<svg xmlns="http://www.w3.org/2000/svg" enable-background="new 0 0 512 512" viewBox="0 0 512 512" id="6621992">
  <path fill="#0966c2" d="M414.457,297.876c0,110.574-89.604,200.305-200.306,200.305
			c-110.574,0-200.305-89.731-200.305-200.305c0-110.702,89.731-200.433,200.305-200.433
			C324.854,97.442,414.457,187.173,414.457,297.876z" class="colorfdce06 svgShape"></path>
  <path fill="#ffffff" d="M214.152,445.308c-81.292,0-147.428-66.137-147.428-147.432
			c0-81.365,66.137-147.557,147.428-147.557S361.58,216.511,361.58,297.875C361.58,379.171,295.443,445.308,214.152,445.308z" class="colorffffff svgShape"></path>
  <path fill="#0966c2" d="M214.152,392.433c-52.135,0-94.553-42.419-94.553-94.558c0-52.208,42.419-94.682,94.553-94.682
			s94.553,42.475,94.553,94.682C308.705,350.014,266.286,392.433,214.152,392.433z" class="colorfdce06 svgShape"></path>
  <path fill="#ffffff" d="M214.152,339.558c-22.978,0-41.678-18.701-41.678-41.683c0-23.051,18.701-41.808,41.678-41.808
			s41.678,18.757,41.678,41.808C255.83,320.858,237.13,339.558,214.152,339.558z" class="colorffffff svgShape"></path>
  <polygon fill="#cfd0d1" points="454.076 13.817 464.98 46.985 418.096 93.869 407.192 60.701" class="colorcfcfd1 svgShape"></polygon>
  <polygon fill="#cfd0d1" points="498.149 57.888 464.98 46.985 418.096 93.869 451.264 104.773" class="colorcfcfd1 svgShape"></polygon>
  <path fill="#707070" d="M500.592,50.464l-29.423-9.67l-9.67-29.414c-0.847-2.579-2.975-4.532-5.615-5.161
			c-2.602-0.626-5.417,0.156-7.332,2.075l-46.882,46.885c-2.083,2.083-2.815,5.165-1.9,7.965l9.402,28.6l-53.567,53.567
			c-37.158-34.519-86.871-55.682-141.453-55.682c-114.759,0-208.118,93.42-208.118,208.247
			c0,114.755,93.359,208.118,208.118,208.118s208.118-93.363,208.118-208.118c0-54.602-21.139-104.336-55.621-141.514l53.569-53.569
			l28.602,9.403c0.801,0.263,1.625,0.389,2.441,0.389c2.037,0,4.036-0.801,5.524-2.289l46.889-46.885
			c1.923-1.919,2.708-4.696,2.075-7.335C505.124,53.435,503.171,51.311,500.592,50.464z M450.621,28.32l5.439,16.537l-34.506,34.509
			l-5.44-16.54L450.621,28.32z M406.646,297.876c0,106.142-86.355,192.493-192.493,192.493S21.66,404.017,21.66,297.876
			c0-106.214,86.355-192.623,192.493-192.623c50.273,0,96.088,19.407,130.41,51.101l-26.46,26.46
			c-27.553-24.958-63.949-40.308-103.95-40.308c-85.6,0-155.239,69.697-155.239,155.369c0,85.6,69.64,155.243,155.239,155.243
			s155.239-69.643,155.239-155.243c0-40.021-15.327-76.436-40.249-104.008l26.462-26.462
			C387.262,201.747,406.646,247.581,406.646,297.876z M248.019,297.876c0,18.676-15.19,33.87-33.866,33.87
			s-33.866-15.194-33.866-33.87c0-18.745,15.19-33.996,33.866-33.996c6.517,0,12.553,1.945,17.724,5.16l-23.248,23.248
			c-3.052,3.052-3.052,7.995,0,11.047c1.526,1.526,3.525,2.289,5.524,2.289s3.998-0.763,5.524-2.289l23.219-23.219
			C246.086,285.3,248.019,291.347,248.019,297.876z M243.159,257.758c-8.162-5.949-18.166-9.502-29.006-9.502
			c-27.29,0-49.491,22.258-49.491,49.62c0,27.29,22.201,49.495,49.491,49.495s49.491-22.205,49.491-49.495
			c0-10.855-3.535-20.875-9.455-29.053l26.538-26.538c12.572,15.077,20.163,34.457,20.163,55.591
			c0,47.831-38.909,86.744-86.737,86.744s-86.744-38.913-86.744-86.744c0-47.9,38.917-86.87,86.744-86.87
			c21.116,0,40.478,7.614,55.536,20.222L243.159,257.758z M280.732,220.185c-17.919-15.419-41.156-24.804-66.579-24.804
			c-56.449,0-102.369,45.978-102.369,102.495c0,56.445,45.92,102.369,102.369,102.369c56.441,0,102.361-45.924,102.361-102.369
			c0-25.442-9.362-48.697-24.744-66.635l26.33-26.33c22.1,24.73,35.668,57.252,35.668,92.965
			c0,76.987-62.628,139.619-139.615,139.619S74.538,374.862,74.538,297.876c0-77.055,62.628-139.744,139.615-139.744
			c35.694,0,68.196,13.59,92.907,35.726L280.732,220.185z M449.133,95.85L432.6,90.414l34.507-34.507l16.54,5.436L449.133,95.85z" class="color3e3e3e svgShape"></path>
</svg>
