<svg xmlns="http://www.w3.org/2000/svg" xml:space="preserve" viewBox="0 0 512 512" enable-background="new 0 0 512 512" id="11962833">
  <g id="_x32_3_Action" fill="#000000" class="color000000 svgShape">
    <g fill="#000000" class="color000000 svgShape">
      <g fill="#000000" class="color000000 svgShape">
        <path d="M498.943,303.429c-3.005,5.263-8.494,8.197-14.137,8.197c-2.892,0-5.841-0.79-8.508-2.427
				l-21.657-13.347l-62.065-38.278l21.333-23.364l59.498,35.442l19.738,11.753C500.763,285.948,503.331,295.74,498.943,303.429z" fill="#ccdff2" class="colord9f2cc svgShape"></path>
      </g>
      <g fill="#000000" class="color000000 svgShape">
        <path d="M498.943,303.429c-3.005,5.263-8.494,8.197-14.137,8.197c-2.892,0-5.841-0.79-8.508-2.427
				l-21.657-13.347l18.765-26.2l19.738,11.753C500.763,285.948,503.331,295.74,498.943,303.429z" fill="#ffffff" class="colorffffff svgShape"></path>
      </g>
      <g fill="#000000" class="color000000 svgShape">
        <path d="M387.496,173.768l18.793-27.428c-5.364-16.532-4.642-29.814,1.605-40.145
				c9.349-15.46,29.134-20.565,45.612-13.156c18.534,8.334,26.281,22.194,24.268,41.054c-1.041,9.752-4.511,19.157-10.095,27.22
				c-3.596,5.192-7.86,9.74-12.692,13.739c-7.028,5.816-17.096,6.193-24.645,1.071l-4.221-2.864l-19.325,24.38L387.496,173.768z" fill="#ffffff" class="colorffffff svgShape"></path>
      </g>
      <g fill="#000000" class="color000000 svgShape">
        <path d="M364.64,453.125v39.957h77.204v0c0-22.067-17.889-39.957-39.957-39.957H364.64z" fill="#ffffff" class="colorffffff svgShape"></path>
      </g>
      <g fill="#000000" class="color000000 svgShape">
        <path d="M423.276,231.135l-42.99,71.942l-65.085-40.93l46.729-79.236l-25.904-11.301
				c-6.476-2.836-14.038-0.381-17.636,5.7l-29.163,49.381l-6.801,11.513c-3.189,5.39-8.875,8.395-14.716,8.395
				c-2.864,0-5.756-0.72-8.423-2.229c-8.338-4.741-11.146-15.407-6.222-23.633l7.097-11.852l35.103-58.623
				c8.494-14.179,26.807-18.864,41.057-10.511l74.749,43.808C427.65,193.281,433.125,214.642,423.276,231.135z" fill="#ccdff2" class="colord9f2cc svgShape"></path>
      </g>
      <g opacity=".3" fill="#000000" class="color000000 svgShape">
        <g fill="#000000" class="color000000 svgShape">
          <path d="M423.295,231.15l-43.016,71.947l-25.017-15.755c21.532-16.805,35.377-43.016,35.377-72.472
					c0-19.813-6.302-38.194-16.948-53.232l37.382,21.914C427.64,193.291,433.13,214.632,423.295,231.15z" fill="#ffffff" class="colorffffff svgShape"></path>
        </g>
      </g>
      <g fill="#000000" class="color000000 svgShape">
        <path d="M208.877,332.24l66.273,37.171c11.621,6.418,26.221,2.875,33.609-8.155l48.614-72.587
				l-42.17-26.522l-33.526,50.289c-5.393,8.089-16.162,10.563-24.545,5.639l-30.647-18.003L208.877,332.24z" fill="#aeaeae" class="colorf66866 svgShape"></path>
      </g>
      <g opacity=".3" fill="#000000" class="color000000 svgShape">
        <g fill="#000000" class="color000000 svgShape">
          <path d="M357.364,288.679l-48.601,72.568c-7.4,11.028-22.009,14.561-33.611,8.164l-66.266-37.191
					l8.211-14.991l52.23,29.266c11.649,6.445,26.258,2.912,33.61-8.116l39.578-59.057L357.364,288.679z" fill="#ffffff" class="colorffffff svgShape"></path>
        </g>
      </g>
      <g fill="#000000" class="color000000 svgShape">
        <path d="M200.75,284.156l25.735,15.915l-20.393,35.973c-7.473,13.183-24.346,17.608-37.327,9.789l0,0
				c-1.605-0.966-2.136-3.042-1.194-4.661L200.75,284.156z" fill="#ffffff" class="colorffffff svgShape"></path>
      </g>
      <g fill="#000000" class="color000000 svgShape">
        <path d="M289.227,226.691l-6.801,11.513c-3.189,5.39-8.875,8.395-14.716,8.395
				c-2.864,0-5.756-0.72-8.423-2.229c-8.338-4.741-11.146-15.407-6.222-23.633l7.097-11.852L289.227,226.691z" fill="#ffffff" class="colorffffff svgShape"></path>
      </g>
      <g fill="#000000" class="color000000 svgShape">
        <path d="M315.202,262.146l92.681,58.29c9.53,5.994,16.006,15.813,17.762,26.934v0
				c0.857,5.428,0.557,10.976-0.879,16.28l-24.233,89.475H364.64l12.867-98.198l-47.641-29.039
				c-14.149-8.624-21.554-25.049-18.649-41.362L315.202,262.146z" fill="#aeaeae" class="colorf66866 svgShape"></path>
      </g>
      <g opacity=".3" fill="#000000" class="color000000 svgShape">
        <g fill="#000000" class="color000000 svgShape">
          <path d="M426.112,353.513c0,3.39-0.43,6.827-1.337,10.121l-24.253,89.469h-22.821l21.293-78.679
					c0.907-3.342,1.385-6.732,1.385-10.169c0-2.053-0.143-4.106-0.478-6.111c-1.766-11.124-8.259-20.959-17.76-26.927
					l-71.184-44.782c0-0.621,0.143-1.289,0.239-1.91l4.01-22.391l92.667,58.293c9.548,6.016,15.993,15.803,17.76,26.927
					C425.969,349.408,426.112,351.46,426.112,353.513z" fill="#ffffff" class="colorffffff svgShape"></path>
        </g>
      </g>
      <g fill="#000000" class="color000000 svgShape">
        <path d="M224.106,163.886c-1.967,6.938-4.763,13.617-8.18,19.83l14.186,14.186l-40.177,40.125
				l-14.186-14.186c-6.213,3.469-12.84,6.213-19.778,8.232v20.037H99.174v-20.037c-6.938-2.019-13.565-4.763-19.829-8.18
				L65.21,238.027l-40.177-40.125l14.186-14.186c-3.417-6.213-6.213-12.892-8.18-19.83H10.951v-56.745h20.088
				c1.967-6.938,4.763-13.617,8.18-19.829L25.033,73.126L65.21,33l14.135,14.135c6.264-3.417,12.892-6.161,19.829-8.18V18.918
				h56.797v20.037c6.938,2.019,13.565,4.763,19.778,8.232L189.935,33l40.177,40.125l-14.186,14.186
				c3.417,6.213,6.213,12.892,8.18,19.829h20.037v56.745H224.106z" fill="#0966c2" class="color5a83fc svgShape"></path>
      </g>
      <g opacity=".3" fill="#000000" class="color000000 svgShape">
        <g fill="#000000" class="color000000 svgShape">
          <path d="M230.161,73.177l-9.395,9.395c-17.946-9.923-38.636-15.623-60.593-15.623
					c-63.971,0-116.858,47.925-124.353,109.996c-1.901-4.222-3.484-8.551-4.75-13.09H10.907v-56.687H31.07
					c1.9-6.967,4.75-13.617,8.128-19.846L25.053,73.177l40.114-40.219l14.146,14.146c6.333-3.378,12.878-6.123,19.846-8.129V18.918
					h56.792v20.057c6.967,2.006,13.618,4.75,19.846,8.234l14.146-14.251L230.161,73.177z" fill="#ffffff" class="colorffffff svgShape"></path>
        </g>
      </g>
      <g fill="#000000" class="color000000 svgShape">
        <circle cx="127.57" cy="135.514" r="79.338" fill="#ffffff" class="colorffffff svgShape"></circle>
      </g>
      <g fill="#000000" class="color000000 svgShape">
        <path d="M474.666,112.129c-9.835,6.779-21.77,10.742-34.613,10.742c-12.986,0-25.017-4.058-34.899-10.981
				c0.716-2.005,1.623-3.867,2.721-5.681c9.357-15.468,29.17-20.577,45.641-13.177C463.876,97.711,470.847,104.109,474.666,112.129z
				" fill="#707070" class="color576066 svgShape"></path>
      </g>
      <path d="m495.654 277.194-69.466-41.374 1.297-2.17c0-.002 0-.002 0-.002 9.354-15.675 6.601-35.028-5.344-47.505l4.994-6.302.46.311c9.349 6.381 21.895 5.833 30.535-1.328 5.246-4.366 9.818-9.315 13.595-14.729 5.993-8.659 9.77-18.851 10.919-29.478 0-.007 0-.017.005-.024 2.205-21.426-7.07-36.974-27.122-46.031-19.152-8.607-41.435-2.101-51.837 15.103-5.792 9.537-8.292 23.298-2.776 41.883l-12.91 18.81-49.199-28.836c-16.496-9.662-37.912-4.189-47.744 12.223l-42.201 70.475c-6.279 10.493-2.825 24.253 8.018 30.418 10.649 6.017 23.799 2.158 29.774-7.944l35.959-60.891c2.331-3.947 7.252-5.541 11.46-3.7l20.828 9.088-43.841 74.343-33.457 50.183c-3.954 5.929-11.862 7.738-17.979 4.131-5.756-3.462 20.85 12.542-56.289-33.86-2.374-1.463-5.444-.656-6.817 1.704l-33.175 57.014c-2.283 3.913-.979 8.997 2.898 11.326 7.395 4.454 16.079 5.732 24.499 3.526 8.317-2.18 15.232-7.482 19.514-14.927l62.533 35.072c13.896 7.674 31.136 3.587 40.052-9.717l20.324-30.348 39.076 23.817-12.455 95.036c-.026.192-.043.473-.043.637v39.956c0 2.707 2.192 4.902 4.902 4.902h77.207c2.709 0 4.902-2.195 4.902-4.902 0-23.052-17.486-42.082-39.888-44.566l22.636-83.586c5.057-18.626-2.68-38.374-19.004-48.644l-23.54-14.805 18.171-30.409c42.53 26.224-5.514-3.4 68.608 42.304 10.302 6.325 23.594 2.769 29.468-7.515 0 0 0 0 0-.002C508.875 295.92 505.491 283.063 495.654 277.194zM451.5 97.502c6.47 2.921 12.558 7.075 16.565 13.002-17.206 9.925-39.638 9.783-56.714-.434.236-.441.451-.882.719-1.323C419.926 95.764 436.857 90.922 451.5 97.502zM410.338 149.135c.862-1.257 1.091-2.841.622-4.289-3.119-9.6-4.035-18.066-2.781-25.34 9.719 5.399 20.6 8.268 31.876 8.268 11.31 0 22.24-2.874 31.986-8.296 1.08 4.215 1.394 8.854.856 14.098-.977 9.002-4.169 17.623-9.224 24.925-3.308 4.746-7.176 8.928-11.809 12.781-5.28 4.38-12.987 4.708-18.765.759l-4.251-2.865c-2.13-1.438-4.988-.986-6.582 1.02l-7.744 9.772c-.329-.206-.636-.439-.973-.636l-17.07-10.005L410.338 149.135zM261.71 240.11c-5.971-3.398-7.941-10.998-4.442-16.855l4.557-7.604 20.727 12.7-4.342 7.355C274.941 241.228 267.339 243.284 261.71 240.11zM366.155 185.401c.713-1.209.876-2.664.44-3.999-.431-1.336-1.417-2.422-2.705-2.982l-25.897-11.299c-8.722-3.82-18.966-.51-23.824 7.695l-26.63 45.094-20.681-12.67 32.61-54.458c7.08-11.816 22.508-15.766 34.375-8.801l74.747 43.809c14.234 8.339 18.939 26.655 10.478 40.832v-.002l-40.42 67.639-56.801-35.724L366.155 185.401zM188.251 344.074c-5.328 1.391-10.842.778-15.689-1.73l29.892-51.37 17.439 10.785-18.066 31.869C198.873 338.842 194.048 342.551 188.251 344.074zM304.687 358.528c-6.012 8.985-17.692 11.821-27.137 6.608l-62.043-34.798 12.853-23.482 26.29 15.445c10.612 6.228 24.279 3.095 31.105-7.147l20.572-30.857c-2.826 17.237 4.407 34.106 18.575 44.047L304.687 358.528zM436.603 488.18h-67.064v-30.153c1.266 0 32.955 0 32.35 0C419.552 458.028 434.21 471.163 436.603 488.18zM420.036 362.369l-23.255 85.855h-26.558l12.144-92.659c.254-1.922-.651-3.813-2.307-4.823l-47.644-29.04c-12.518-7.628-18.946-21.883-16.376-36.316l2.714-15.216c13.807 8.684 67.336 42.351 86.518 54.415C417.912 332.535 423.97 347.826 420.036 362.369zM421.159 244.235l45.155 26.897-12.994 18.143-43.169-26.619L421.159 244.235zM478.866 305.025c-.492-.303-18.313-11.29-17.179-10.59l13.081-18.267 15.864 9.449c5.299 3.159 7.088 10.068 4.054 15.38C491.784 306.065 484.356 308.395 478.866 305.025zM6.048 107.14v56.746c0 2.707 2.195 4.902 4.902 4.902h16.46c1.553 4.763 3.492 9.454 5.79 14.016l-11.632 11.632c-1.913 1.913-1.916 5.02.002 6.934l40.179 40.126c1.915 1.91 5.014 1.912 6.929-.002l11.589-11.589c4.516 2.259 9.203 4.193 14.006 5.778v16.426c0 2.707 2.195 4.902 4.902 4.902h56.796c2.707 0 4.902-2.195 4.902-4.902v-16.426c4.844-1.599 9.523-3.545 13.975-5.806l11.623 11.618c1.915 1.915 5.017 1.912 6.931.002l40.176-40.126c1.923-1.923 1.906-5.028 0-6.934l-11.632-11.632c2.298-4.559 4.236-9.251 5.787-14.016h16.409c2.709 0 4.902-2.195 4.902-4.902V107.14c0-2.707-2.192-4.902-4.902-4.902h-16.409c-1.551-4.765-3.49-9.456-5.787-14.014l11.632-11.634c1.907-1.907 1.921-5.013 0-6.934l-40.176-40.124c-1.915-1.91-5.017-1.912-6.931.002l-11.623 11.618c-4.449-2.264-9.129-4.208-13.975-5.809V18.918c0-2.707-2.195-4.902-4.902-4.902H99.174c-2.707 0-4.902 2.195-4.902 4.902v16.426c-4.804 1.584-9.49 3.518-14.006 5.778L68.677 29.535c-1.915-1.915-5.014-1.912-6.929-.002L21.569 69.657c-1.923 1.918-1.911 5.025-.002 6.934l11.632 11.634c-2.298 4.56-4.234 9.248-5.787 14.014H10.95C8.243 102.238 6.048 104.433 6.048 107.14zM15.852 112.042H31.04c2.192 0 4.117-1.455 4.715-3.564 1.826-6.436 4.435-12.762 7.76-18.803 1.051-1.91.711-4.287-.831-5.828l-10.718-10.72L65.209 39.93l10.67 10.67c1.539 1.537 3.897 1.876 5.814.838 5.967-3.257 12.309-5.873 18.851-7.779 2.094-.608 3.533-2.525 3.533-4.705V23.82h46.993v15.134c0 2.18 1.438 4.098 3.533 4.705 6.63 1.932 12.939 4.557 18.757 7.807 1.91 1.072 4.308.74 5.854-.814l10.723-10.723 33.24 33.197-10.718 10.72c-1.541 1.541-1.881 3.918-.828 5.828 3.322 6.039 5.931 12.364 7.76 18.803.598 2.109 2.523 3.564 4.715 3.564h15.136v46.942h-15.136c-2.192 0-4.117 1.455-4.715 3.564-1.824 6.434-4.437 12.759-7.76 18.805-1.053 1.91-.713 4.287.828 5.828l10.718 10.718-33.24 33.199-10.723-10.723c-1.551-1.553-3.949-1.881-5.854-.814-5.821 3.248-12.13 5.873-18.757 7.805-2.094.608-3.533 2.525-3.533 4.705v15.134h-46.993v-15.134c0-2.18-1.438-4.098-3.533-4.705-6.541-1.905-12.884-4.521-18.851-7.779-1.917-1.039-4.275-.699-5.814.838l-10.67 10.672-33.242-33.199 10.718-10.718c1.541-1.541 1.881-3.916.831-5.828-3.324-6.046-5.936-12.374-7.76-18.805-.598-2.109-2.523-3.564-4.715-3.564H15.852V112.042z" fill="#2c2c2c" class="color242c35 svgShape"></path>
      <path d="M127.57,219.754c46.449,0,84.237-37.79,84.237-84.239s-37.788-84.239-84.237-84.239
			s-84.239,37.79-84.239,84.239S81.121,219.754,127.57,219.754z M59.271,130.613h-5.888c1.105-16.833,7.796-32.128,18.278-44.078
			l4.149,4.151c1.915,1.915,5.017,1.915,6.931,0c1.915-1.912,1.915-5.017,0-6.931l-4.149-4.151
			c11.949-10.481,27.244-17.172,44.077-18.277v5.888c0,2.707,2.195,4.902,4.902,4.902c2.707,0,4.902-2.195,4.902-4.902v-5.888
			c16.831,1.105,32.126,7.796,44.075,18.277l-4.15,4.15c-1.915,1.915-1.915,5.017,0,6.931c1.915,1.915,5.017,1.915,6.931,0
			l4.15-4.15c10.481,11.949,17.172,27.245,18.277,44.078h-5.888c-2.709,0-4.902,2.195-4.902,4.902c0,2.707,2.192,4.902,4.902,4.902
			h5.888c-1.105,16.832-7.795,32.127-18.276,44.076l-4.151-4.151c-1.915-1.915-5.017-1.915-6.931,0s-1.915,5.017,0,6.931
			l4.151,4.151c-11.949,10.481-27.245,17.173-44.076,18.278v-5.891c0-2.707-2.195-4.902-4.902-4.902
			c-2.707,0-4.902,2.195-4.902,4.902v5.891c-16.833-1.105-32.129-7.796-44.078-18.278l4.151-4.152c1.915-1.915,1.915-5.019,0-6.931
			c-1.915-1.915-5.021-1.915-6.931,0l-4.151,4.152c-10.481-11.949-17.172-27.244-18.277-44.077h5.888
			c2.707,0,4.902-2.195,4.902-4.902C64.173,132.807,61.978,130.613,59.271,130.613z" fill="#2c2c2c" class="color242c35 svgShape"></path>
      <path d="M127.57,140.514h35.511c2.707,0,4.902-2.195,4.902-4.902s-2.195-4.902-4.902-4.902h-30.61V97.933
			c0-2.707-2.195-4.902-4.902-4.902c-2.707,0-4.902,2.195-4.902,4.902v37.68C122.668,138.32,124.863,140.514,127.57,140.514z" fill="#2c2c2c" class="color242c35 svgShape"></path>
    </g>
  </g>
</svg>
