<svg xmlns="http://www.w3.org/2000/svg" xml:space="preserve" viewBox="0 0 512 512" enable-background="new 0 0 512 512" id="11962812">
  <g id="_x30_2_Analytics" fill="#000000" class="color000000 svgShape">
    <g fill="#000000" class="color000000 svgShape">
      <g fill="#000000" class="color000000 svgShape">
        <rect width="391.946" height="245.927" x="60.027" y="58.56" fill="#ffffff" class="colorffffff svgShape"></rect>
      </g>
      <g fill="#000000" class="color000000 svgShape">
        <path d="M462.348,10.912H49.652c-7.003,0-12.681,5.677-12.681,12.681V45.88
				c0,7.003,5.677,12.681,12.681,12.681h412.696c7.003,0,12.681-5.677,12.681-12.681V23.593
				C475.028,16.589,469.351,10.912,462.348,10.912z" fill="#d9dee3" class="colord9dde3 svgShape"></path>
      </g>
      <g fill="#000000" class="color000000 svgShape">
        <path d="M462.348,304.487H49.652c-7.003,0-12.681,5.677-12.681,12.681v22.287
				c0,7.003,5.677,12.681,12.681,12.681h412.696c7.003,0,12.681-5.677,12.681-12.681v-22.287
				C475.028,310.165,469.351,304.487,462.348,304.487z" fill="#d9dee3" class="colord9dde3 svgShape"></path>
      </g>
      <g opacity=".3" fill="#000000" class="color000000 svgShape">
        <g fill="#000000" class="color000000 svgShape">
          <path d="M474.999,23.593v11.134H94.575c-13.222,0-23.815,10.67-23.815,23.815H49.651
					c-7.036,0-12.681-5.644-12.681-12.68V23.593c0-7.037,5.645-12.681,12.681-12.681h412.666
					C469.354,10.912,474.999,16.556,474.999,23.593z" fill="#ffffff" class="colorffffff svgShape"></path>
        </g>
      </g>
      <g opacity=".3" fill="#000000" class="color000000 svgShape">
        <g fill="#000000" class="color000000 svgShape">
          <path d="M474.999,317.184v11.134H94.575c-13.222,0-23.815,10.67-23.815,23.815H49.651
					c-7.036,0-12.681-5.644-12.681-12.681v-22.269c0-7.036,5.645-12.681,12.681-12.681h412.666
					C469.354,304.503,474.999,310.148,474.999,317.184z" fill="#ffffff" class="colorffffff svgShape"></path>
        </g>
      </g>
      <g fill="#000000" class="color000000 svgShape">
        <path d="M276.504,392.949l-90.345,90.345c-9.679,9.679-25.372,9.679-35.051,0l0,0
				c-9.679-9.679-9.679-25.372,0-35.051l90.345-90.345L276.504,392.949z" fill="#707070" class="color576066 svgShape"></path>
      </g>
      <g fill="#000000" class="color000000 svgShape">
        <path d="M235.495,392.949l90.345,90.345c9.679,9.679,25.372,9.679,35.051,0l0,0
				c9.679-9.679,9.679-25.372,0-35.051l-90.345-90.345L235.495,392.949z" fill="#707070" class="color576066 svgShape"></path>
      </g>
      <g fill="#000000" class="color000000 svgShape">
        <path d="M280.784,352.136v124.168c0,13.688-11.096,24.785-24.785,24.785h0
				c-13.688,0-24.785-11.096-24.785-24.785V352.136H280.784z" fill="#707070" class="color576066 svgShape"></path>
      </g>
      <g fill="#000000" class="color000000 svgShape">
        <rect width="42.861" height="73.636" x="248.251" y="202.755" fill="#707070" class="color576066 svgShape"></rect>
      </g>
      <g fill="#000000" class="color000000 svgShape">
        <rect width="42.861" height="100.126" x="313.341" y="176.265" fill="#d9dee3" class="colord9dde3 svgShape"></rect>
      </g>
      <g fill="#000000" class="color000000 svgShape">
        <rect width="42.861" height="130.747" x="378.431" y="145.644" fill="#0966c2" class="color5a83fc svgShape"></rect>
      </g>
      <g opacity=".3" fill="#000000" class="color000000 svgShape">
        <g fill="#000000" class="color000000 svgShape">
          <path d="M356.201,176.248v18.382c-2.304-0.882-4.804-1.323-7.353-1.323
					c-11.862,0-21.47,9.607-21.47,21.47v57.252c0,1.52,0.147,2.941,0.441,4.362h-14.46V176.248H356.201z" fill="#ffffff" class="colorffffff svgShape"></path>
        </g>
      </g>
      <g opacity=".3" fill="#000000" class="color000000 svgShape">
        <g fill="#000000" class="color000000 svgShape">
          <path d="M421.296,145.661v18.382c-2.304-0.882-4.804-1.324-7.402-1.324
					c-11.813,0-21.421,9.558-21.421,21.421v87.888c0,1.52,0.147,2.941,0.441,4.362h-14.46v-130.73H421.296z" fill="#ffffff" class="colorffffff svgShape"></path>
        </g>
      </g>
      <g fill="#000000" class="color000000 svgShape">
        <path d="M213.952,144.614v0.022c-0.022,33.852-27.45,61.28-61.28,61.28
				c-33.852,0-61.301-27.45-61.301-61.301s27.45-61.28,61.301-61.28C186.502,83.335,213.952,110.763,213.952,144.614z" fill="#aeaeae" class="colorf66866 svgShape"></path>
      </g>
      <g opacity=".3" fill="#000000" class="color000000 svgShape">
        <g fill="#000000" class="color000000 svgShape">
          <path d="M196.943,102.232c-7.598-3.382-16.029-5.245-24.852-5.245c-33.871,0-61.321,27.45-61.321,61.321
					c0,16.421,6.47,31.322,17.009,42.351c-21.47-9.558-36.42-31.077-36.42-56.027c0-33.871,27.45-61.321,61.321-61.321
					C170.081,83.311,185.767,90.566,196.943,102.232z" fill="#ffffff" class="colorffffff svgShape"></path>
        </g>
      </g>
      <g fill="#000000" class="color000000 svgShape">
        <path d="M213.952,144.614v0.022h-61.28V83.335C186.502,83.335,213.952,110.763,213.952,144.614z" fill="#ccdff2" class="colord9f2cc svgShape"></path>
      </g>
      <g opacity=".3" fill="#000000" class="color000000 svgShape">
        <g fill="#000000" class="color000000 svgShape">
          <path d="M213.952,144.632h-11.274c-3.97-26.029-24.215-46.665-49.998-51.126V83.311
					C186.502,83.311,213.952,110.761,213.952,144.632z" fill="#ffffff" class="colorffffff svgShape"></path>
        </g>
      </g>
      <g fill="#000000" class="color000000 svgShape">
        <line x1="88.663" x2="211.641" y1="236.962" y2="236.962" fill="#fff"></line>
      </g>
      <g fill="#000000" class="color000000 svgShape">
        <line x1="88.663" x2="143.849" y1="273.156" y2="273.156" fill="#fff"></line>
      </g>
      <path d="M49.651,357.036h176.662v9.071l-78.67,78.67c-11.575,11.575-11.575,30.409,0,41.983
			c11.574,11.574,30.406,11.575,41.981,0l36.689-36.689v26.232c0,16.369,13.317,29.686,29.686,29.686
			c16.371,0,29.688-13.317,29.688-29.686v-26.23l36.687,36.687c11.574,11.574,30.408,11.575,41.983,0
			c11.575-11.575,11.575-30.409,0-41.983l-78.67-78.67v-9.071h176.66c9.696,0,17.585-7.886,17.585-17.582v-22.285
			c0-9.696-7.889-17.585-17.585-17.585h-5.471V63.462h5.471c9.696,0,17.585-7.886,17.585-17.582V23.593
			c0-9.696-7.889-17.582-17.585-17.582H49.651c-9.696,0-17.582,7.886-17.582,17.582V45.88c0,9.696,7.886,17.582,17.582,17.582h5.474
			v236.122h-5.474c-9.696,0-17.582,7.889-17.582,17.585v22.285C32.069,349.15,39.955,357.036,49.651,357.036z M182.693,479.829
			c-7.755,7.75-20.363,7.75-28.118,0c-7.752-7.752-7.752-20.368,0-28.12l71.738-71.738v56.239L182.693,479.829z M357.425,451.709
			c7.752,7.752,7.752,20.368,0,28.12c-7.752,7.75-20.363,7.75-28.12,0l-43.618-43.618V379.97L357.425,451.709z M275.883,476.304
			c0,10.964-8.92,19.882-19.885,19.882c-10.962,0-19.882-8.918-19.882-19.882V357.036h39.767V476.304z M41.872,45.88V23.593
			c0-4.289,3.49-7.779,7.779-7.779h412.695c4.291,0,7.781,3.49,7.781,7.779V45.88c0,4.289-3.49,7.779-7.781,7.779
			c-46.549,0-366.144,0-412.695,0C45.362,53.659,41.872,50.169,41.872,45.88z M64.928,63.462h382.143v236.122H64.928V63.462z
			 M41.872,317.169c0-4.291,3.49-7.781,7.779-7.781c46.543,0,366.153,0,412.695,0c4.291,0,7.781,3.49,7.781,7.781v22.285
			c0,4.289-3.49,7.779-7.781,7.779c-82.861,0-329.916,0-412.695,0c-4.289,0-7.779-3.49-7.779-7.779V317.169z" fill="#2c2c2c" class="color242c35 svgShape"></path>
      <path d="M266.666,190.425l57.655-57.655l16.584,16.584c1.838,1.838,5.093,1.838,6.931,0l51.172-51.174
			v20.732c0,2.707,2.195,4.902,4.902,4.902c2.707,0,4.902-2.195,4.902-4.902V85.537c0-2.707-2.195-4.902-4.902-4.902h-33.455
			c-2.707,0-4.902,2.195-4.902,4.902c0,2.707,2.195,4.902,4.902,4.902h22.432l-48.515,48.517l-16.584-16.584
			c-1.915-1.915-5.017-1.915-6.931,0l-61.121,61.121c-1.915,1.915-1.915,5.017,0,6.931
			C261.65,192.339,264.752,192.339,266.666,190.425z" fill="#2c2c2c" class="color242c35 svgShape"></path>
      <path d="M428.539 271.49h-2.346V145.643c0-2.707-2.195-4.902-4.902-4.902H378.43c-2.707 0-4.902 2.195-4.902 4.902V271.49h-12.424v-95.225c0-2.707-2.195-4.902-4.902-4.902h-42.862c-2.707 0-4.902 2.195-4.902 4.902v95.225h-12.427v-68.735c0-2.707-2.195-4.902-4.902-4.902h-42.859c-2.707 0-4.902 2.195-4.902 4.902v68.735h-2.346c-2.707 0-4.902 2.195-4.902 4.902 0 2.707 2.195 4.902 4.902 4.902 111.355 0 86.836 0 187.535 0 2.707 0 4.902-2.195 4.902-4.902C433.441 273.685 431.246 271.49 428.539 271.49zM253.153 271.49v-63.833h33.056v63.833H253.153zM318.242 271.49v-90.324h33.058v90.324H318.242zM383.332 271.49V150.545h33.058V271.49H383.332zM152.672 78.433c-36.505 0-66.202 29.688-66.202 66.181 0 36.505 29.698 66.202 66.202 66.202 36.469 0 66.157-29.688 66.181-66.181v-.022C218.853 108.122 189.164 78.433 152.672 78.433zM208.802 139.734h-51.228V88.485C184.447 90.847 206.415 112.181 208.802 139.734zM152.672 201.013c-31.098 0-56.399-25.301-56.399-56.399 0-29.432 22.69-53.633 51.497-56.129v56.151c0 2.707 2.195 4.902 4.902 4.902h56.126C206.284 178.334 182.084 201.013 152.672 201.013zM211.641 232.061H88.664c-2.707 0-4.902 2.195-4.902 4.902 0 2.707 2.195 4.902 4.902 4.902h122.977c2.707 0 4.902-2.195 4.902-4.902C216.543 234.256 214.348 232.061 211.641 232.061zM143.85 268.254H88.664c-2.707 0-4.902 2.195-4.902 4.902s2.195 4.902 4.902 4.902h55.185c2.707 0 4.902-2.195 4.902-4.902S146.557 268.254 143.85 268.254z" fill="#2c2c2c" class="color242c35 svgShape"></path>
    </g>
  </g>
</svg>
