<svg xmlns="http://www.w3.org/2000/svg" enable-background="new 0 0 512 512" viewBox="0 0 512 512" id="6621988">
  <path fill="#0966c2" d="M225.318,140.271c0,58.389-47.298,105.687-105.688,105.687S13.816,198.66,13.816,140.271
			c0-58.389,47.425-105.688,105.814-105.688S225.318,81.882,225.318,140.271z" class="colorfdce06 svgShape"></path>
  <path fill="#ffffff" d="M498.18,140.271c0,58.389-47.298,105.687-105.688,105.687S286.678,198.66,286.678,140.271
			c0-58.389,47.425-105.688,105.814-105.688S498.18,81.882,498.18,140.271z" class="colorffffff svgShape"></path>
  <path fill="#cfd0d1" d="M361.749,371.73c0,58.389-47.298,105.687-105.688,105.687S150.247,430.118,150.247,371.73
			c0-58.389,47.425-105.688,105.814-105.688S361.749,313.34,361.749,371.73z" class="colorcfcfd1 svgShape"></path>
  <path fill="#707070" d="M119.628,253.768c62.583,0,113.5-50.914,113.5-113.496s-50.917-113.5-113.5-113.5
			c-62.651,0-113.622,50.917-113.622,113.5S56.976,253.768,119.628,253.768z M119.628,42.397c53.969,0,97.875,43.906,97.875,97.875
			c0,53.965-43.906,97.871-97.875,97.871c-54.038,0-97.997-43.906-97.997-97.871C21.63,86.303,65.59,42.397,119.628,42.397z" class="color3e3e3e svgShape"></path>
  <path fill="#707070" d="M84.93 124.255c4.318 0 7.812-3.498 7.812-7.812v-5.196c0-4.314-3.494-7.812-7.812-7.812-4.318 0-7.812 3.498-7.812 7.812v5.196C77.118 120.757 80.612 124.255 84.93 124.255zM154.203 124.255c4.318 0 7.812-3.498 7.812-7.812v-5.196c0-4.314-3.494-7.812-7.812-7.812-4.318 0-7.812 3.498-7.812 7.812v5.196C146.391 120.757 149.885 124.255 154.203 124.255zM84.35 174.741c-3.052 3.052-3.052 7.995 0 11.047 9.414 9.414 21.919 14.599 35.216 14.599 13.305 0 25.81-5.188 35.216-14.599 3.052-3.052 3.052-7.999 0-11.047-3.052-3.052-7.995-3.052-11.047 0-6.462 6.462-15.045 10.021-24.169 10.021s-17.707-3.559-24.169-10.021C92.346 171.689 87.402 171.689 84.35 174.741zM392.494 26.772c-62.659 0-113.63 50.917-113.63 113.5s50.971 113.496 113.63 113.496c62.583 0 113.5-50.914 113.5-113.496S455.077 26.772 392.494 26.772zM392.494 238.144c-54.038 0-98.005-43.906-98.005-97.871 0-53.969 43.967-97.875 98.005-97.875 53.969 0 97.875 43.906 97.875 97.875C490.37 194.238 446.464 238.144 392.494 238.144z" class="color3e3e3e svgShape"></path>
  <path fill="#707070" d="M365.601 116.442v-5.196c0-4.314-3.494-7.812-7.812-7.812s-7.812 3.498-7.812 7.812v5.196c0 4.314 3.494 7.812 7.812 7.812S365.601 120.757 365.601 116.442zM427.062 103.435c-4.318 0-7.812 3.498-7.812 7.812v5.196c0 4.314 3.494 7.812 7.812 7.812 4.318 0 7.812-3.498 7.812-7.812v-5.196C434.875 106.933 431.381 103.435 427.062 103.435zM392.449 160.146c-13.298.004-25.802 5.184-35.216 14.599-3.052 3.052-3.052 7.995 0 11.047 3.052 3.052 7.995 3.052 11.047 0 6.462-6.462 15.045-10.021 24.169-10.021s17.7 3.559 24.162 10.017c3.052 3.052 7.995 3.052 11.047 0 3.052-3.048 3.052-7.995 0-11.047C418.251 165.33 405.746 160.146 392.449 160.146zM256.061 258.232c-62.659 0-113.63 50.917-113.63 113.5s50.971 113.496 113.63 113.496c62.583 0 113.5-50.914 113.5-113.496S318.644 258.232 256.061 258.232zM256.061 469.603c-54.038 0-98.005-43.906-98.005-97.871 0-53.969 43.967-97.875 98.005-97.875 53.969 0 97.875 43.906 97.875 97.875C353.936 425.697 310.03 469.603 256.061 469.603z" class="color3e3e3e svgShape"></path>
  <path fill="#707070" d="M229.176 347.902v-5.196c0-4.314-3.494-7.812-7.812-7.812s-7.812 3.498-7.812 7.812v5.196c0 4.314 3.494 7.812 7.812 7.812S229.176 352.216 229.176 347.902zM290.637 334.894c-4.318 0-7.812 3.498-7.812 7.812v5.196c0 4.314 3.494 7.812 7.812 7.812 4.318 0 7.812-3.498 7.812-7.812v-5.196C298.449 338.392 294.955 334.894 290.637 334.894zM285.701 403.912l-59.371.004c-4.318 0-7.812 3.498-7.812 7.812 0 4.314 3.502 7.812 7.812 7.812l59.371-.004c4.318 0 7.812-3.498 7.812-7.812C293.513 407.41 290.011 403.912 285.701 403.912z" class="color3e3e3e svgShape"></path>
</svg>
