<svg xmlns="http://www.w3.org/2000/svg" xml:space="preserve" viewBox="0 0 512 512" enable-background="new 0 0 512 512" id="11962859">
  <g id="_x34_9_Budget_Management" fill="#0966c2" class="color000000 svgShape">
    <g fill="#0966c2" class="color000000 svgShape">
      <g fill="#0966c2" class="color000000 svgShape">
        <path d="M372.969,122.319v318.895c0,30.21-24.49,54.701-54.701,54.701H65.686
				c-30.21,0-54.701-24.49-54.701-54.701V70.786c0-30.21,24.49-54.701,54.701-54.701h201.049L372.969,122.319z" fill="#ffffff" class="colorffffff svgShape"></path>
      </g>
      <g fill="#0966c2" class="color000000 svgShape">
        <path d="M372.969,122.319h-86.465c-10.918,0-19.769-8.851-19.769-19.769V16.085L372.969,122.319z" fill="#707070" class="color576066 svgShape"></path>
      </g>
      <g fill="#0966c2" class="color000000 svgShape">
        <circle cx="142.075" cy="121.838" r="83.735" transform="rotate(-45.001 142.074 121.84)" fill="#d9dee3" class="colord9dde3 svgShape"></circle>
      </g>
      <g opacity=".3" fill="#0966c2" class="color000000 svgShape">
        <g fill="#0966c2" class="color000000 svgShape">
          <path d="M219.007,88.818c-15.268-19.805-39.272-32.571-66.244-32.571
					c-46.269,0-83.717,37.49-83.717,83.76c0,11.705,2.375,22.817,6.701,32.91c-10.899-14.123-17.388-31.808-17.388-51.062
					c0-46.269,37.448-83.76,83.717-83.76C176.597,38.096,206.241,58.962,219.007,88.818z" fill="#ffffff" class="colorffffff svgShape"></path>
        </g>
      </g>
      <g fill="#0966c2" class="color000000 svgShape">
        <circle cx="142.075" cy="121.838" r="54.055" fill="#ffffff" class="colorffffff svgShape"></circle>
      </g>
      <g fill="#0966c2" class="color000000 svgShape">
        <path d="M341.185,307.909h100.044c60.569,72.301,73.293,129.127,46.878,173.293
				c-5.493,9.184-15.505,14.713-26.206,14.713H320.563c-10.51,0-20.338-5.352-25.924-14.255
				C267.646,438.638,287.594,379.169,341.185,307.909z" fill="#aeaeae" class="colorf66866 svgShape"></path>
      </g>
      <g opacity=".3" fill="#0966c2" class="color000000 svgShape">
        <g fill="#0966c2" class="color000000 svgShape">
          <path d="M461.112,333.542h-13.543c-64.709,0-122.562,44.14-135.878,107.433
					c-4.193,20.002-3.287,38.247,3.4,54.453c-8.386-1.473-15.809-6.459-20.455-13.769c-26.972-43.007-7.026-102.503,46.577-173.728
					h100.01C448.589,316.713,455.219,325.213,461.112,333.542z" fill="#ffffff" class="colorffffff svgShape"></path>
        </g>
      </g>
      <g fill="#0966c2" class="color000000 svgShape">
        <path d="M437.443,278.105h-92.473c-8.23,0-14.902,6.672-14.902,14.902v0
				c0,8.23,6.672,14.902,14.902,14.902h92.473c8.23,0,14.902-6.672,14.902-14.902v0
				C452.345,284.777,445.673,278.105,437.443,278.105z" fill="#ffffff" class="colorffffff svgShape"></path>
      </g>
      <g fill="#0966c2" class="color000000 svgShape">
        <path d="M345.019,233.985c30.495,5.544,61.299,5.584,92.42-0.051c8.198-1.484,14.808,6.693,11.747,14.442
				l-11.743,29.729h-92.473l-11.726-29.687C330.179,240.658,336.81,232.493,345.019,233.985z" fill="#aeaeae" class="colorf66866 svgShape"></path>
      </g>
      <g opacity=".3" fill="#0966c2" class="color000000 svgShape">
        <g fill="#0966c2" class="color000000 svgShape">
          <path d="M449.212,248.378l-2.323,5.893c-3.853-2.04-8.273-2.946-13.089-2.493
					c-16.772,1.7-33.488,1.7-50.09,0.057c-14.676-1.473-26.292,10.369-26.292,23.912c0,0.793,0.057,1.586,0.113,2.38h-12.579
					l-11.729-29.691c-3.06-7.763,3.57-15.922,11.786-14.449c30.485,5.553,61.309,5.61,92.417-0.057
					C445.643,232.456,452.272,240.615,449.212,248.378z" fill="#ffffff" class="colorffffff svgShape"></path>
        </g>
      </g>
      <path d="M67.503 233.753c0 2.709 2.192 4.902 4.902 4.902H312.51c2.709 0 4.902-2.192 4.902-4.902 0-2.709-2.192-4.902-4.902-4.902H72.405C69.696 228.851 67.503 231.044 67.503 233.753zM288.326 296.566H72.405c-2.709 0-4.902 2.192-4.902 4.902 0 2.709 2.192 4.902 4.902 4.902h215.921c2.709 0 4.902-2.192 4.902-4.902C293.228 298.759 291.036 296.566 288.326 296.566zM72.405 364.281c-2.709 0-4.902 2.192-4.902 4.902s2.192 4.902 4.902 4.902h68.663c2.709 0 4.902-2.192 4.902-4.902s-2.192-4.902-4.902-4.902H72.405zM209.731 431.992H72.405c-2.709 0-4.902 2.192-4.902 4.902 0 2.709 2.192 4.902 4.902 4.902h137.326c2.709 0 4.902-2.192 4.902-4.902C214.633 434.184 212.44 431.992 209.731 431.992zM142.073 210.474c48.874 0 88.639-39.765 88.639-88.639s-39.765-88.634-88.639-88.634-88.634 39.76-88.634 88.634S93.199 210.474 142.073 210.474zM142.073 43.006c43.47 0 78.835 35.365 78.835 78.83 0 43.47-35.365 78.835-78.835 78.835-43.465 0-78.83-35.365-78.83-78.835C63.243 78.371 98.608 43.006 142.073 43.006z" fill="#2c2c2c" class="color242c35 svgShape"></path>
      <path d="M142.073,180.796c32.512,0,58.96-26.447,58.96-58.96c0-32.508-26.447-58.955-58.96-58.955
			c-32.508,0-58.955,26.447-58.955,58.955C83.118,154.348,109.566,180.796,142.073,180.796z M142.073,72.684
			c27.103,0,49.156,22.048,49.156,49.152s-22.053,49.156-49.156,49.156s-49.152-22.053-49.152-49.156S114.97,72.684,142.073,72.684z
			" fill="#2c2c2c" class="color242c35 svgShape"></path>
      <path d="M142.073,142.252c-4.275,0-7.755-3.48-7.755-7.755c0-2.709-2.192-4.902-4.902-4.902
			s-4.902,2.192-4.902,4.902c0,7.971,5.368,14.639,12.656,16.776v3.234c0,2.709,2.192,4.902,4.902,4.902
			c2.709,0,4.902-2.192,4.902-4.902v-3.233c7.29-2.137,12.661-8.805,12.661-16.776c0-9.684-7.879-17.563-17.563-17.563
			c-4.275,0-7.755-3.48-7.755-7.755c0-4.275,3.48-7.755,7.755-7.755c4.279,0,7.76,3.48,7.76,7.755c0,2.709,2.192,4.902,4.902,4.902
			s4.902-2.192,4.902-4.902c0-7.971-5.372-14.639-12.661-16.776V89.17c0-2.709-2.192-4.902-4.902-4.902
			c-2.709,0-4.902,2.192-4.902,4.902v3.234c-7.288,2.136-12.656,8.804-12.656,16.776c0,9.684,7.874,17.558,17.558,17.558
			c4.279,0,7.76,3.48,7.76,7.76C149.833,138.772,146.353,142.252,142.073,142.252z" fill="#2c2c2c" class="color242c35 svgShape"></path>
      <path d="M457.246,293.005c0-8.553-5.482-15.788-13.093-18.553l9.589-24.275
			c2.111-5.337,1.197-11.182-2.451-15.634c-3.619-4.413-9.124-6.457-14.724-5.433c-19.529,3.538-39.169,4.762-58.697,3.746V122.319
			c0-0.978-0.511-2.54-1.436-3.466L270.199,12.619c-0.896-0.892-2.423-1.436-3.466-1.436H65.684
			c-32.867,0-59.601,26.735-59.601,59.601v370.432c0,32.867,26.735,59.601,59.601,59.601c76.913,0,298.638,0,396.214,0
			c12.455,0,24.111-6.553,30.416-17.099c27.745-46.393,12.978-105.073-43.661-174.414
			C453.833,305.728,457.246,299.764,457.246,293.005z M447.442,293.005c0,5.514-4.485,10.005-10,10.005H344.97
			c-5.514,0-10-4.49-10-10.005s4.485-10,10-10h92.473C442.957,283.005,447.442,287.49,447.442,293.005z M438.309,238.76
			c2.992-0.56,4.763,1.221,5.4,2.001c1.359,1.656,1.704,3.829,0.919,5.816l-10.522,26.625h-85.8l-10.502-26.582
			c-0.785-1.987-0.44-4.16,0.914-5.811c0.641-0.78,2.413-2.523,5.424-2.001C375.227,244.466,406.921,244.437,438.309,238.76z
			 M361.135,117.418h-74.632c-8.2,0-14.868-6.668-14.868-14.868V27.918L361.135,117.418z M15.886,441.216V70.784
			c0-27.458,22.34-49.798,49.798-49.798h196.147v81.564c0,13.604,11.067,24.672,24.672,24.672h81.564v104.959
			c-7.417-0.677-14.813-1.677-22.173-3.013c-5.61-1.034-11.125,1.005-14.753,5.424c-3.648,4.442-4.562,10.287-2.451,15.629
			l9.57,24.232c-7.611,2.764-13.093,10-13.093,18.553c0,6.861,3.509,12.909,8.82,16.466
			c-55.628,75.435-69.923,132.679-43.501,174.794c1.573,2.508,3.435,4.759,5.512,6.75H65.684
			C38.227,491.014,15.886,468.674,15.886,441.216z M438.936,312.813c55.585,67.007,70.721,122.807,44.963,165.875
			c-4.543,7.602-12.977,12.326-22,12.326H320.561c-8.803,0-17.147-4.581-21.771-11.958c-24.322-38.769-9.65-93.167,44.843-166.243
			C396.144,312.813,386.257,312.813,438.936,312.813z" fill="#2c2c2c" class="color242c35 svgShape"></path>
      <path d="M391.91,448.301c-11.436,0-20.742-9.306-20.742-20.742c0-2.709-2.192-4.902-4.902-4.902
			s-4.902,2.192-4.902,4.902c0,15.168,11.13,27.757,25.643,30.114v10.421c0,2.709,2.192,4.902,4.902,4.902
			c2.709,0,4.902-2.192,4.902-4.902v-10.421c14.518-2.358,25.648-14.946,25.648-30.114c0-16.845-13.705-30.55-30.55-30.55
			c-11.436,0-20.742-9.306-20.742-20.742c0-11.441,9.306-20.746,20.742-20.746c11.441,0,20.746,9.306,20.746,20.746
			c0,2.709,2.192,4.902,4.902,4.902c2.709,0,4.902-2.192,4.902-4.902c0-15.173-11.13-27.761-25.648-30.119v-10.416
			c0-2.709-2.192-4.902-4.902-4.902c-2.709,0-4.902,2.192-4.902,4.902v10.416c-14.513,2.358-25.643,14.947-25.643,30.119
			c0,16.84,13.705,30.545,30.545,30.545c11.441,0,20.746,9.306,20.746,20.746C412.656,438.995,403.35,448.301,391.91,448.301z" fill="#2c2c2c" class="color242c35 svgShape"></path>
    </g>
  </g>
</svg>
