<svg xmlns="http://www.w3.org/2000/svg" xml:space="preserve" viewBox="0 0 512 512" enable-background="new 0 0 512 512" id="11962854">
  <g id="_x34_4_Business_Notification" fill="#000000" class="color000000 svgShape">
    <g fill="#000000" class="color000000 svgShape">
      <g fill="#000000" class="color000000 svgShape">
        <path d="M484.885,358.47v89.229c0,29.487-23.904,53.391-53.391,53.391H210.746
				c-29.487,0-53.391-23.904-53.391-53.391V358.47c0-29.487,23.904-53.391,53.391-53.391h220.747
				C460.981,305.079,484.885,328.983,484.885,358.47z" fill="#0966c2" class="color5a83fc svgShape"></path>
      </g>
      <g opacity=".3" fill="#000000" class="color000000 svgShape">
        <g fill="#000000" class="color000000 svgShape">
          <path d="M484.855,358.477v17.294c-4.752,3.272-10.517,5.141-16.593,5.141H220.535
					c-15.113,16.359-24.383,38.172-24.383,62.165v12.543c0,16.515,4.362,32.018,11.997,45.338
					c-28.278-1.246-50.792-24.617-50.792-53.285v-89.198c0-29.525,23.916-53.362,53.363-53.362h220.773
					C461.018,305.115,484.855,328.953,484.855,358.477z" fill="#ffffff" class="colorffffff svgShape"></path>
        </g>
      </g>
      <g fill="#000000" class="color000000 svgShape">
        <path d="M497.828,274.649v76.642c0,16.349-13.254,29.603-29.603,29.603H174.016
				c-16.349,0-29.603-13.254-29.603-29.603v-76.642c0-16.349,13.254-29.603,29.603-29.603h294.209
				C484.574,245.046,497.828,258.3,497.828,274.649z" fill="#0966c2" class="color5a83fc svgShape"></path>
      </g>
      <g opacity=".3" fill="#000000" class="color000000 svgShape">
        <g fill="#000000" class="color000000 svgShape">
          <path d="M497.865,274.655v23.293c-8.803-4.285-18.696-6.621-29.135-6.621H251.15
					c-18.775,0-35.757,7.556-48.065,19.865c-12.309,12.309-19.865,29.291-19.865,48.065c0,7.557,1.247,14.879,3.506,21.657h-12.698
					c-6.154,0-11.919-1.87-16.671-5.141c-7.79-5.298-12.931-14.256-12.931-24.461v-76.656c0-16.359,13.243-29.603,29.603-29.603
					h294.235C484.544,245.053,497.865,258.296,497.865,274.655z" fill="#ffffff" class="colorffffff svgShape"></path>
        </g>
      </g>
      <g fill="#000000" class="color000000 svgShape">
        <path d="M436.5,245.046h-43.073v-36.473c0-9.225-7.502-16.729-16.724-16.729H265.539
				c-9.222,0-16.724,7.504-16.724,16.729v36.473h-43.073v-36.473c0-32.974,26.826-59.802,59.798-59.802h111.163
				c32.972,0,59.798,26.828,59.798,59.802V245.046z" fill="#aeaeae" class="colorf66866 svgShape"></path>
      </g>
      <g opacity=".3" fill="#000000" class="color000000 svgShape">
        <g fill="#000000" class="color000000 svgShape">
          <path d="M393.84,166.19H282.712c-33.008,0-59.807,26.844-59.807,59.806v19.027h-17.151v-36.446
					c0-32.963,26.799-59.807,59.807-59.807h111.127c21.082,0,39.663,10.943,50.248,27.469
					C417.467,169.897,406.078,166.19,393.84,166.19z" fill="#ffffff" class="colorffffff svgShape"></path>
        </g>
      </g>
      <g fill="#000000" class="color000000 svgShape">
        <path d="M273.2,365.15v20.981c0,13.594-11.02,24.613-24.614,24.613h0
				c-13.594,0-24.614-11.02-24.614-24.613V365.15c0-13.594,11.02-24.613,24.614-24.613h0C262.18,340.536,273.2,351.556,273.2,365.15
				z" fill="#ffffff" class="colorffffff svgShape"></path>
      </g>
      <g fill="#000000" class="color000000 svgShape">
        <path d="M418.267,365.15v20.981c0,13.594-11.02,24.613-24.613,24.613h0
				c-13.594,0-24.613-11.02-24.613-24.613V365.15c0-13.594,11.02-24.613,24.613-24.613h0
				C407.247,340.536,418.267,351.556,418.267,365.15z" fill="#ffffff" class="colorffffff svgShape"></path>
      </g>
      <g fill="#000000" class="color000000 svgShape">
        <path d="M184.959,303.276c0,22.438-18.123,40.561-40.562,40.561c-22.385,0-40.508-18.123-40.508-40.561
				c0-22.384,18.123-40.508,40.508-40.508C166.836,262.768,184.959,280.891,184.959,303.276z" fill="#707070" class="color576066 svgShape"></path>
      </g>
      <g fill="#000000" class="color000000 svgShape">
        <path d="M262.514,276.414H26.335c-0.116,0-0.186-0.129-0.122-0.226l0,0
				c23.177-35.374,35.522-76.744,35.522-119.033l0-31.473c0-45.702,36.103-84.484,81.809-84.962
				c23.184-0.242,44.196,9.08,59.341,24.222c14.953,14.951,24.231,35.621,24.231,58.452v33.761
				c0,42.289,12.345,83.658,35.522,119.032l0,0C262.7,276.285,262.631,276.414,262.514,276.414z" fill="#d9dee3" class="colord9dde3 svgShape"></path>
      </g>
      <g opacity=".3" fill="#000000" class="color000000 svgShape">
        <g fill="#000000" class="color000000 svgShape">
          <path d="M107.006,210.661c0,23.234,4.51,45.439,12.745,65.732H26.323c-0.098,0-0.196-0.098-0.098-0.196
					c11.568-17.695,20.489-36.861,26.421-56.958c5.98-20.049,9.068-40.979,9.068-62.105v-31.469
					c0-45.684,36.126-84.457,81.81-84.947c19.558-0.196,37.596,6.422,51.861,17.597C142.593,88.509,107.006,145.418,107.006,210.661
					z" fill="#ffffff" class="colorffffff svgShape"></path>
        </g>
      </g>
      <g fill="#000000" class="color000000 svgShape">
        <path d="M28.632,305.329h231.586c7.984,0,14.457-6.473,14.457-14.457v0
				c0-7.984-6.473-14.457-14.457-14.457H28.632c-7.985,0-14.457,6.473-14.457,14.457v0
				C14.174,298.856,20.647,305.329,28.632,305.329z" fill="#ffffff" class="colorffffff svgShape"></path>
      </g>
      <g fill="#000000" class="color000000 svgShape">
        <circle cx="144.425" cy="35.235" r="24.32" fill="#ffffff" class="colorffffff svgShape"></circle>
      </g>
      <path d="M28.633,310.23h70.978c3.114,20.181,19.463,36.025,39.9,38.229v2.833
			c0,10.869,5.064,20.566,12.944,26.895V447.7c0,32.139,26.151,58.29,58.29,58.29h220.747c32.144,0,58.295-26.151,58.295-58.29
			v-69.513c7.88-6.329,12.944-16.026,12.944-26.895V274.65c0-19.023-15.476-34.504-34.504-34.504H441.4v-31.574
			c0-35.677-29.023-64.704-64.699-64.704H265.54c-12.285,0-23.738,3.498-33.522,9.479v-29.953c0-23.379-9.114-45.365-25.667-61.918
			c-9.538-9.535-20.879-16.533-33.232-20.794c0.335-1.768,0.528-3.584,0.528-5.447c0-16.113-13.111-29.224-29.224-29.224
			s-29.219,13.111-29.219,29.224c0,1.953,0.201,3.859,0.568,5.705c-34.205,12.261-58.939,45.66-58.939,84.743v31.474
			c0,41.028-11.78,80.853-34.118,115.381c-7.771,2.517-13.445,9.738-13.445,18.336C9.27,301.547,17.958,310.23,28.633,310.23z
			 M109.555,310.23h69.739c-3.247,16.333-17.623,28.702-34.895,28.702C127.152,338.933,112.797,326.563,109.555,310.23z
			 M479.983,447.7c0,26.735-21.752,48.486-48.491,48.486H210.745c-26.735,0-48.486-21.752-48.486-48.486v-64.01
			c3.676,1.338,7.623,2.106,11.757,2.106h45.054v0.335c0,16.275,13.24,29.516,29.516,29.516s29.516-13.241,29.516-29.516v-0.335
			h86.039v0.335c0,16.275,13.24,29.516,29.516,29.516c16.271,0,29.511-13.241,29.511-29.516v-0.335h45.059
			c4.133,0,8.081-0.768,11.757-2.106V447.7z M228.873,386.131V365.15c0-10.871,8.841-19.712,19.712-19.712
			s19.712,8.841,19.712,19.712v20.981c0,10.871-8.841,19.712-19.712,19.712S228.873,397.002,228.873,386.131z M373.944,386.131
			V365.15c0-10.871,8.841-19.712,19.712-19.712c10.866,0,19.708,8.841,19.708,19.712v20.981c0,10.871-8.841,19.712-19.708,19.712
			C382.785,405.843,373.944,397.002,373.944,386.131z M492.926,274.65v76.643c0,13.619-11.082,24.7-24.7,24.7h-45.059V365.15
			c0-16.275-13.24-29.516-29.511-29.516c-16.275,0-29.516,13.24-29.516,29.516v10.842h-86.039V365.15
			c0-16.275-13.24-29.516-29.516-29.516s-29.516,13.24-29.516,29.516v10.842h-45.054c-13.619,0-24.7-11.082-24.7-24.7v-2.836
			c20.45-2.213,36.807-18.052,39.923-38.226h70.979c10.675,0,19.358-8.683,19.358-19.358c0-8.6-5.674-15.822-13.447-18.337
			c-4.726-7.296-8.962-14.842-12.731-22.586c68.438,0,146.485,0,214.829,0C481.845,249.949,492.926,261.031,492.926,274.65z
			 M388.525,240.146H253.717v-31.574c0-6.525,5.304-11.828,11.824-11.828h111.161c6.52,0,11.824,5.304,11.824,11.828V240.146z
			 M376.701,153.671c30.267,0,54.896,24.628,54.896,54.901v31.574h-33.269v-31.574c0-11.929-9.703-21.632-21.627-21.632H265.54
			c-11.924,0-21.627,9.703-21.627,21.632v18.633c-6.961-19.901-10.951-40.788-11.743-62.081c9.259-7.142,20.8-11.453,33.37-11.453
			H376.701z M144.423,15.814c10.708,0,19.42,8.712,19.42,19.42s-8.712,19.42-19.42,19.42c-10.703,0-19.416-8.712-19.416-19.42
			S133.719,15.814,144.423,15.814z M66.636,157.156v-31.474c0-34.937,22.098-64.818,52.636-75.648
			c5.088,8.615,14.442,14.423,25.151,14.423c10.771,0,20.177-5.875,25.245-14.573c11.062,3.772,21.222,9.996,29.751,18.522
			c14.7,14.7,22.795,34.226,22.795,54.987v33.762c0,40.449,10.928,79.788,31.703,114.358H34.933
			C55.698,236.967,66.636,197.615,66.636,157.156z M28.633,281.318h231.584c5.27,0,9.555,4.284,9.555,9.555
			c0,5.27-4.284,9.555-9.555,9.555H28.633c-5.27,0-9.559-4.284-9.559-9.555C19.074,285.602,23.363,281.318,28.633,281.318z" fill="#2c2c2c" class="color242c35 svgShape"></path>
    </g>
  </g>
</svg>
