<svg xmlns="http://www.w3.org/2000/svg" xml:space="preserve" viewBox="0 0 512 512" enable-background="new 0 0 512 512" id="11962831">
  <g id="_x32_1_Business_Plan" fill="#000000" class="color000000 svgShape">
    <g fill="#000000" class="color000000 svgShape">
      <g fill="#000000" class="color000000 svgShape">
        <path d="M501.088,109.161v293.678c0,23.186-18.796,41.983-41.983,41.983H52.895
				c-23.186,0-41.983-18.796-41.983-41.983V109.161c0-23.186,18.796-41.983,41.983-41.983h406.211
				C482.292,67.178,501.088,85.975,501.088,109.161z" fill="#ffffff" class="colorffffff svgShape"></path>
      </g>
      <g fill="#000000" class="color000000 svgShape">
        <path d="M501.088,165.026v-55.866c0-23.186-18.796-41.983-41.983-41.983H52.895
				c-23.186,0-41.983,18.796-41.983,41.983v55.866H501.088z" fill="#707070" class="color576066 svgShape"></path>
      </g>
      <g fill="#000000" class="color000000 svgShape">
        <path d="M85.512,116.102c0,12.871-10.468,23.339-23.339,23.339s-23.339-10.468-23.339-23.339
				c0-12.928,10.468-23.338,23.339-23.338S85.512,103.174,85.512,116.102z" fill="#ffffff" class="colorffffff svgShape"></path>
      </g>
      <g fill="#000000" class="color000000 svgShape">
        <path d="M158.637,116.102c0,12.871-10.468,23.339-23.339,23.339s-23.339-10.468-23.339-23.339
				c0-12.928,10.468-23.338,23.339-23.338S158.637,103.174,158.637,116.102z" fill="#ffffff" class="colorffffff svgShape"></path>
      </g>
      <g fill="#000000" class="color000000 svgShape">
        <path d="M231.762,116.102c0,12.871-10.468,23.339-23.339,23.339s-23.339-10.468-23.339-23.339
				c0-12.928,10.468-23.338,23.339-23.338S231.762,103.174,231.762,116.102z" fill="#ffffff" class="colorffffff svgShape"></path>
      </g>
      <g fill="#000000" class="color000000 svgShape">
        <circle cx="119.299" cy="265.066" r="70.931" fill="#0966c2" class="color5a83fc svgShape"></circle>
      </g>
      <g opacity=".3" fill="#000000" class="color000000 svgShape">
        <g fill="#000000" class="color000000 svgShape">
          <path d="M178.406,225.903c-10.784-6.617-23.479-10.441-37.057-10.441
					c-39.214,0-70.928,31.715-70.928,70.929c0,14.46,4.314,27.891,11.715,39.116c-20.293-12.45-33.773-34.851-33.773-60.439
					c0-39.214,31.714-70.928,70.928-70.928C143.995,194.14,165.71,206.737,178.406,225.903z" fill="#ffffff" class="colorffffff svgShape"></path>
        </g>
      </g>
      <g fill="#000000" class="color000000 svgShape">
        <path d="M190.23,265.066h-70.931v-70.931C158.467,194.135,190.23,225.85,190.23,265.066z" fill="#ffffff" class="colorffffff svgShape"></path>
      </g>
      <g fill="#000000" class="color000000 svgShape">
        <path d="M378.169,200.9v27.834c0,5.629-4.563,10.192-10.192,10.192h-32.529
				c-5.629,0-10.192-4.563-10.192-10.192V200.9c0-5.629,4.563-10.192,10.192-10.192h32.529
				C373.606,190.709,378.169,195.272,378.169,200.9z" fill="#d9dee3" class="colord9dde3 svgShape"></path>
      </g>
      <g opacity=".3" fill="#000000" class="color000000 svgShape">
        <g fill="#000000" class="color000000 svgShape">
          <path d="M378.152,200.904v5.931c-3.431-1.863-7.353-2.892-11.519-2.892h-4.706
					c-6.617,0-12.695,2.696-17.058,7.059c-4.363,4.362-7.059,10.392-7.059,17.058c0,3.921,0.931,7.647,2.598,10.882h-4.951
					c-5.637,0-10.196-4.559-10.196-10.195v-27.842c0-5.637,4.559-10.196,10.196-10.196h32.499
					C373.594,190.709,378.152,195.267,378.152,200.904z" fill="#ffffff" class="colorffffff svgShape"></path>
        </g>
      </g>
      <g fill="#000000" class="color000000 svgShape">
        <path d="M284.402,376.895v27.834c0,5.629-4.563,10.192-10.192,10.192h-32.529
				c-5.629,0-10.192-4.563-10.192-10.192v-27.834c0-5.629,4.563-10.192,10.192-10.192h32.529
				C279.839,366.703,284.402,371.266,284.402,376.895z" fill="#d9dee3" class="colord9dde3 svgShape"></path>
      </g>
      <g fill="#000000" class="color000000 svgShape">
        <path d="M378.169,376.895v27.834c0,5.629-4.563,10.192-10.192,10.192h-32.529
				c-5.629,0-10.192-4.563-10.192-10.192v-27.834c0-5.629,4.563-10.192,10.192-10.192h32.529
				C373.606,366.703,378.169,371.266,378.169,376.895z" fill="#d9dee3" class="colord9dde3 svgShape"></path>
      </g>
      <g fill="#000000" class="color000000 svgShape">
        <path d="M471.936,376.895v27.834c0,5.629-4.563,10.192-10.192,10.192h-32.529
				c-5.629,0-10.192-4.563-10.192-10.192v-27.834c0-5.629,4.563-10.192,10.192-10.192h32.529
				C467.373,366.703,471.936,371.266,471.936,376.895z" fill="#d9dee3" class="colord9dde3 svgShape"></path>
      </g>
      <g fill="#000000" class="color000000 svgShape">
        <path d="M284.402,376.895v27.834c0,5.629-4.563,10.192-10.192,10.192h-32.529
				c-5.629,0-10.192-4.563-10.192-10.192v-27.834c0-5.629,4.563-10.192,10.192-10.192h32.529
				C279.839,366.703,284.402,371.266,284.402,376.895z" fill="#d9dee3" class="colord9dde3 svgShape"></path>
      </g>
      <g fill="#000000" class="color000000 svgShape">
        <path d="M378.169,376.895v27.834c0,5.629-4.563,10.192-10.192,10.192h-32.529
				c-5.629,0-10.192-4.563-10.192-10.192v-27.834c0-5.629,4.563-10.192,10.192-10.192h32.529
				C373.606,366.703,378.169,371.266,378.169,376.895z" fill="#d9dee3" class="colord9dde3 svgShape"></path>
      </g>
      <g fill="#000000" class="color000000 svgShape">
        <path d="M471.936,376.895v27.834c0,5.629-4.563,10.192-10.192,10.192h-32.529
				c-5.629,0-10.192-4.563-10.192-10.192v-27.834c0-5.629,4.563-10.192,10.192-10.192h32.529
				C467.373,366.703,471.936,371.266,471.936,376.895z" fill="#d9dee3" class="colord9dde3 svgShape"></path>
      </g>
      <g opacity=".3" fill="#000000" class="color000000 svgShape">
        <g fill="#000000" class="color000000 svgShape">
          <path d="M284.382,376.877v5.49c-3.333-1.765-7.107-2.745-11.127-2.745h-4.706
					c-6.666,0-12.696,2.696-17.058,7.059c-4.363,4.412-7.059,10.392-7.059,17.058c0,4.019,0.98,7.843,2.745,11.176h-5.49
					c-5.637,0-10.196-4.559-10.196-10.196v-27.842c0-5.588,4.559-10.196,10.196-10.196h32.499
					C279.823,366.681,284.382,371.289,284.382,376.877z" fill="#ffffff" class="colorffffff svgShape"></path>
        </g>
      </g>
      <g opacity=".3" fill="#000000" class="color000000 svgShape">
        <g fill="#000000" class="color000000 svgShape">
          <path d="M378.152,376.877v5.49c-3.333-1.765-7.108-2.745-11.127-2.745h-4.706
					c-6.666,0-12.696,2.696-17.058,7.059c-4.363,4.412-7.059,10.392-7.059,17.058c0,4.019,0.98,7.843,2.745,11.176h-5.49
					c-5.637,0-10.196-4.559-10.196-10.196v-27.842c0-5.588,4.559-10.196,10.196-10.196h32.499
					C373.594,366.681,378.152,371.289,378.152,376.877z" fill="#ffffff" class="colorffffff svgShape"></path>
        </g>
      </g>
      <g opacity=".3" fill="#000000" class="color000000 svgShape">
        <g fill="#000000" class="color000000 svgShape">
          <path d="M471.923,376.877v5.49c-3.333-1.765-7.156-2.745-11.176-2.745h-4.657
					c-6.666,0-12.696,2.696-17.058,7.059c-4.363,4.412-7.059,10.392-7.059,17.058c0,4.019,0.98,7.843,2.745,11.176h-5.49
					c-5.637,0-10.196-4.559-10.196-10.196v-27.842c0-5.588,4.559-10.196,10.196-10.196h32.498
					C467.364,366.681,471.923,371.289,471.923,376.877z" fill="#ffffff" class="colorffffff svgShape"></path>
        </g>
      </g>
      <path d="M459.105,62.278H52.895c-25.852,0-46.885,21.031-46.885,46.883c0,104.269,0,113.847,0,293.679
			c0,25.852,21.034,46.883,46.885,46.883h406.209c25.852,0,46.885-21.031,46.885-46.883c0-179.515,0-189.973,0-293.679
			C505.99,83.309,484.956,62.278,459.105,62.278z M459.105,439.919H52.895c-20.447,0-37.082-16.634-37.082-37.079V169.927h480.372
			V402.84C496.186,423.284,479.552,439.919,459.105,439.919z M496.186,160.124H15.814V109.16c0-20.445,16.634-37.079,37.082-37.079
			h406.209c20.447,0,37.082,16.634,37.082,37.079V160.124z" fill="#2c2c2c" class="color242c35 svgShape"></path>
      <path d="M62.172 87.861c-15.572 0-28.24 12.668-28.24 28.24 0 15.574 12.668 28.243 28.24 28.243s28.24-12.668 28.24-28.243C90.413 100.53 77.744 87.861 62.172 87.861zM62.172 134.54c-10.165 0-18.437-8.272-18.437-18.439 0-10.165 8.272-18.437 18.437-18.437s18.437 8.272 18.437 18.437C80.609 126.269 72.337 134.54 62.172 134.54zM135.299 87.861c-15.572 0-28.24 12.668-28.24 28.24 0 15.574 12.668 28.243 28.24 28.243s28.24-12.668 28.24-28.243C163.539 100.53 150.871 87.861 135.299 87.861zM135.299 134.54c-10.165 0-18.437-8.272-18.437-18.439 0-10.165 8.272-18.437 18.437-18.437s18.437 8.272 18.437 18.437C153.736 126.269 145.464 134.54 135.299 134.54zM208.423 87.861c-15.572 0-28.24 12.668-28.24 28.24 0 15.574 12.668 28.243 28.24 28.243s28.24-12.668 28.24-28.243C236.663 100.53 223.995 87.861 208.423 87.861zM208.423 134.54c-10.165 0-18.437-8.272-18.437-18.439 0-10.165 8.272-18.437 18.437-18.437s18.437 8.272 18.437 18.437C226.86 126.269 218.588 134.54 208.423 134.54zM119.299 340.898c41.816 0 75.834-34.018 75.834-75.831 0-41.816-34.018-75.834-75.834-75.834-41.813 0-75.831 34.018-75.831 75.834C43.468 306.88 77.486 340.898 119.299 340.898zM124.201 199.285c32.344 2.384 58.46 28.052 60.88 60.88h-60.88V199.285zM114.397 199.285v65.782c0 2.707 2.195 4.902 4.902 4.902h65.782c-2.525 34.12-31.027 61.126-65.782 61.126-36.409 0-66.028-29.619-66.028-66.028C53.271 230.312 80.277 201.809 114.397 199.285zM199.237 371.093H51.009c-2.707 0-4.902 2.195-4.902 4.902s2.195 4.902 4.902 4.902h148.228c2.707 0 4.902-2.195 4.902-4.902S201.944 371.093 199.237 371.093zM130.416 402.856H51.009c-2.707 0-4.902 2.195-4.902 4.902s2.195 4.902 4.902 4.902h79.407c2.707 0 4.902-2.195 4.902-4.902S133.123 402.856 130.416 402.856zM445.479 111.2H268.353c-2.707 0-4.902 2.195-4.902 4.902s2.195 4.902 4.902 4.902h177.126c2.707 0 4.902-2.195 4.902-4.902S448.186 111.2 445.479 111.2zM461.745 361.802h-11.364v-47.981c0-2.707-2.195-4.902-4.902-4.902h-88.863v-65.092h11.362c8.322 0 15.093-6.771 15.093-15.093v-27.833c0-8.322-6.771-15.093-15.093-15.093h-32.529c-8.322 0-15.093 6.771-15.093 15.093v27.833c0 8.322 6.771 15.093 15.093 15.093h11.364v65.092h-88.866c-2.707 0-4.902 2.195-4.902 4.902v47.981h-11.362c-8.322 0-15.093 6.771-15.093 15.093v27.833c0 8.322 6.771 15.093 15.093 15.093h32.529c8.322 0 15.093-6.771 15.093-15.093v-27.833c0-8.322-6.771-15.093-15.093-15.093h-11.364v-43.079h83.964v43.079h-11.364c-8.322 0-15.093 6.771-15.093 15.093v27.833c0 8.322 6.771 15.093 15.093 15.093h32.529c8.322 0 15.093-6.771 15.093-15.093v-27.833c0-8.322-6.771-15.093-15.093-15.093h-11.362v-43.079h83.962v43.079h-11.362c-8.322 0-15.093 6.771-15.093 15.093v27.833c0 8.322 6.771 15.093 15.093 15.093h32.529c8.322 0 15.093-6.771 15.093-15.093v-27.833C476.838 368.573 470.067 361.802 461.745 361.802zM330.158 228.734v-27.833c0-2.918 2.372-5.289 5.289-5.289h32.529c2.918 0 5.289 2.372 5.289 5.289v27.833c0 2.918-2.372 5.289-5.289 5.289h-32.529C332.53 234.023 330.158 231.652 330.158 228.734zM279.501 376.895v27.833c0 2.918-2.372 5.289-5.29 5.289h-32.529c-2.918 0-5.289-2.372-5.289-5.289v-27.833c0-2.918 2.372-5.289 5.289-5.289h32.529C277.129 371.605 279.501 373.977 279.501 376.895zM373.266 376.895v27.833c0 2.918-2.372 5.289-5.289 5.289h-32.529c-2.918 0-5.289-2.372-5.289-5.289v-27.833c0-2.918 2.372-5.289 5.289-5.289h32.529C370.895 371.605 373.266 373.977 373.266 376.895zM467.034 404.728c0 2.918-2.372 5.289-5.289 5.289h-32.529c-2.918 0-5.289-2.372-5.289-5.289v-27.833c0-2.918 2.372-5.289 5.289-5.289h32.529c2.918 0 5.289 2.372 5.289 5.289V404.728z" fill="#2c2c2c" class="color242c35 svgShape"></path>
    </g>
  </g>
</svg>
