<svg xmlns="http://www.w3.org/2000/svg" xml:space="preserve" viewBox="0 0 512 512" enable-background="new 0 0 512 512" id="11962851">
  <g id="_x34_1_Business_Goal" fill="#000000" class="color000000 svgShape">
    <g fill="#000000" class="color000000 svgShape">
      <g fill="#000000" class="color000000 svgShape">
        <polygon points="399.194 73.074 346.988 65.762 339.675 13.556 298.012 55.219 295.178 117.572 357.531 114.737" fill="#aeaeae" class="colorf66866 svgShape"></polygon>
      </g>
      <g opacity=".3" fill="#000000" class="color000000 svgShape">
        <g fill="#000000" class="color000000 svgShape">
          <path d="M342.082,30.915l-17.311,17.31c-11.298,11.347-17.99,26.475-18.717,42.476l-1.212,26.427
					l-9.65,0.436l2.812-62.357l41.652-41.652L342.082,30.915z" fill="#ffffff" class="colorffffff svgShape"></path>
        </g>
      </g>
      <g fill="#000000" class="color000000 svgShape">
        <circle cx="165.928" cy="249.598" r="155.007" transform="rotate(-45.001 165.926 249.601)" fill="#aeaeae" class="colorf66866 svgShape"></circle>
      </g>
      <g opacity=".3" fill="#000000" class="color000000 svgShape">
        <g fill="#000000" class="color000000 svgShape">
          <path d="M294.66,163.241c-28.221-29.578-68.03-48.004-112.155-48.004
					c-85.583,0-155.019,69.388-155.019,154.971c0,31.906,9.649,61.581,26.184,86.262c-26.475-27.784-42.767-65.46-42.767-106.87
					c0-85.583,69.436-155.019,155.02-155.019C219.55,94.581,266.827,121.832,294.66,163.241z" fill="#ffffff" class="colorffffff svgShape"></path>
        </g>
      </g>
      <g fill="#000000" class="color000000 svgShape">
        <path d="M165.928,352.202c-56.576,0-102.603-46.029-102.603-102.604s46.027-102.602,102.603-102.602
				s102.604,46.026,102.604,102.602S222.504,352.202,165.928,352.202z" fill="#ffffff" class="colorffffff svgShape"></path>
      </g>
      <g fill="#000000" class="color000000 svgShape">
        <path d="M165.928,299.799c-27.68,0-50.201-22.519-50.201-50.202c0-27.68,22.521-50.199,50.201-50.199
				c27.681,0,50.202,22.519,50.202,50.199C216.13,277.28,193.609,299.799,165.928,299.799z" fill="#aeaeae" class="colorf66866 svgShape"></path>
      </g>
      <g opacity=".3" fill="#000000" class="color000000 svgShape">
        <g fill="#000000" class="color000000 svgShape">
          <path d="M208.786,223.465c-8.146-5.673-18.038-9.019-28.657-9.019c-27.687,0-50.235,22.548-50.235,50.187
					c0,9.552,2.667,18.425,7.273,26.038c-12.946-9.018-21.432-24.05-21.432-41.07c0-27.687,22.499-50.186,50.186-50.186
					C184.056,199.414,199.961,209.064,208.786,223.465z" fill="#ffffff" class="colorffffff svgShape"></path>
        </g>
      </g>
      <g fill="#000000" class="color000000 svgShape">
        <path d="M156.003,237.699L344.607,49.096c5.26-5.26,13.788-5.26,19.048,0l0,0
				c5.26,5.26,5.26,13.788,0,19.048L175.05,256.747c-5.26,5.26-13.788,5.26-19.048,0l0,0
				C150.743,251.487,150.743,242.959,156.003,237.699z" fill="#ccdff2" class="colord9f2cc svgShape"></path>
      </g>
      <g opacity=".3" fill="#000000" class="color000000 svgShape">
        <g fill="#000000" class="color000000 svgShape">
          <path d="M366.472,53.219c-4.219-0.775-8.777,0.437-12.025,3.734L165.824,245.576
					c-2.618,2.619-3.976,6.061-3.976,9.504c0,1.842,0.388,3.685,1.164,5.382c-2.57-0.484-4.995-1.696-7.031-3.734
					c-2.619-2.618-3.928-6.061-3.928-9.504s1.309-6.885,3.928-9.504L344.603,49.098c5.285-5.285,13.771-5.285,19.056,0
					C364.872,50.31,365.793,51.717,366.472,53.219z" fill="#ffffff" class="colorffffff svgShape"></path>
        </g>
      </g>
      <g fill="#000000" class="color000000 svgShape">
        <rect width="51.469" height="88.426" x="276.626" y="410.02" fill="#707070" class="color576066 svgShape"></rect>
      </g>
      <g fill="#000000" class="color000000 svgShape">
        <rect width="51.469" height="120.235" x="354.789" y="378.211" fill="#d9dee3" class="colord9dde3 svgShape"></rect>
      </g>
      <g fill="#000000" class="color000000 svgShape">
        <rect width="51.469" height="157.006" x="432.953" y="341.44" fill="#0966c2" class="color5a83fc svgShape"></rect>
      </g>
      <g opacity=".3" fill="#000000" class="color000000 svgShape">
        <g fill="#000000" class="color000000 svgShape">
          <path d="M406.257,378.19v22.073c-2.766-1.059-5.768-1.589-8.829-1.589
					c-14.245,0-25.782,11.537-25.782,25.782v68.751c0,1.825,0.177,3.532,0.53,5.238h-17.364V378.19H406.257z" fill="#ffffff" class="colorffffff svgShape"></path>
        </g>
      </g>
      <g opacity=".3" fill="#000000" class="color000000 svgShape">
        <g fill="#000000" class="color000000 svgShape">
          <path d="M484.427,341.46v22.073c-2.767-1.059-5.769-1.589-8.888-1.589
					c-14.186,0-25.723,11.478-25.723,25.723v105.54c0,1.825,0.176,3.532,0.53,5.238h-17.364V341.46H484.427z" fill="#ffffff" class="colorffffff svgShape"></path>
        </g>
      </g>
      <path d="m399.873 68.219-28.345-3.969c2.042-6.353.625-13.587-4.41-18.62-4.856-4.857-12.224-6.24-18.603-4.293l-3.987-28.459c-.258-1.843-1.534-3.38-3.298-3.968-1.757-.594-3.705-.134-5.021 1.182l-41.663 41.66c-.864.866-1.376 2.02-1.431 3.245l-1.841 40.497-27.655 27.655c-27.04-20.946-60.92-33.461-97.692-33.461-88.174 0-159.908 71.736-159.908 159.91s71.734 159.91 159.908 159.91 159.908-71.736 159.908-159.91c0-38.19-13.503-73.253-35.927-100.782l27.341-27.341 40.502-1.841c1.221-.057 2.379-.565 3.243-1.431l41.663-41.665c1.314-1.316 1.774-3.26 1.182-5.021C403.25 69.756 401.714 68.478 399.873 68.219zM360.187 52.561c3.339 3.341 3.339 8.774 0 12.116L171.585 253.28c-3.236 3.236-8.877 3.236-12.118 0-3.349-3.354-3.339-8.774.002-12.116L348.072 52.561C351.418 49.215 356.839 49.213 360.187 52.561zM152.538 260.211c7.173 7.178 18.797 7.182 25.978 0l28.815-28.815c2.475 5.576 3.897 11.718 3.897 18.202 0 24.978-20.32 45.298-45.298 45.298s-45.301-20.32-45.301-45.298 20.323-45.298 45.301-45.298c4.963 0 9.711.87 14.176 2.365l-27.567 27.568C145.367 241.404 145.351 253.034 152.538 260.211zM187.7 199.07c-6.685-2.908-14.027-4.573-21.771-4.573-30.385 0-55.104 24.719-55.104 55.102s24.719 55.102 55.104 55.102c30.382 0 55.102-24.719 55.102-55.102 0-9.227-2.316-17.91-6.344-25.558l30.844-30.844c11.346 15.952 18.101 35.38 18.101 56.402 0 53.871-43.829 97.7-97.702 97.7s-97.702-43.829-97.702-97.7 43.829-97.7 97.702-97.7c19.587 0 37.76 5.909 53.061 15.882L187.7 199.07zM302.824 57.339l33.362-33.36 3.269 23.337-37.897 37.897L302.824 57.339zM316.033 249.598c0 82.77-67.337 150.107-150.104 150.107S15.825 332.368 15.825 249.598 83.162 99.492 165.929 99.492c34.068 0 65.51 11.421 90.73 30.62l-30.552 30.552c-17.192-11.673-37.876-18.569-60.178-18.569-59.278 0-107.506 48.228-107.506 107.504s48.228 107.504 107.506 107.504 107.506-48.228 107.506-107.504c0-23.728-7.817-45.615-20.89-63.416l30.398-30.397C303.609 181.505 316.033 214.112 316.033 249.598zM355.408 109.927l-27.875 1.267 37.899-37.9 23.34 3.268L355.408 109.927zM371.441 314.188c-.919-.919-2.166-1.436-3.466-1.436-1.3 0-2.547.517-3.466 1.436l-73.397 73.397c-1.915 1.915-1.915 5.017 0 6.931 1.915 1.915 5.017 1.915 6.931 0l69.931-69.931 20.61 20.612c1.838 1.838 5.093 1.838 6.931 0l63.132-63.129v27.271c0 2.709 2.195 4.902 4.902 4.902s4.902-2.192 4.902-4.902v-40.08c0-2.709-2.195-4.902-4.902-4.902h-40.176c-2.707 0-4.902 2.192-4.902 4.902 0 2.709 2.195 4.902 4.902 4.902h29.319l-60.642 60.64L371.441 314.188zM501.077 493.542h-11.754V341.439c0-2.709-2.195-4.902-4.902-4.902h-51.468c-2.707 0-4.902 2.192-4.902 4.902v152.103h-16.89v-115.33c0-2.709-2.195-4.902-4.902-4.902H354.79c-2.707 0-4.902 2.192-4.902 4.902v115.33h-16.89v-83.521c0-2.709-2.195-4.902-4.902-4.902h-51.471c-2.707 0-4.902 2.192-4.902 4.902v83.521H259.97c-2.707 0-4.902 2.192-4.902 4.902 0 2.709 2.195 4.902 4.902 4.902 104.219 0 137.029 0 241.108 0 2.707 0 4.902-2.192 4.902-4.902C505.979 495.735 503.784 493.542 501.077 493.542zM281.527 493.542v-78.62h41.667v78.62H281.527zM359.692 493.542V383.114h41.665v110.428H359.692zM437.854 493.542V346.341h41.665v147.201H437.854z" fill="#2c2c2c" class="color242c35 svgShape"></path>
    </g>
  </g>
</svg>
