<svg xmlns="http://www.w3.org/2000/svg" xml:space="preserve" viewBox="0 0 512 512" enable-background="new 0 0 512 512" id="11962853">
  <g id="_x34_3_Business_Launch" fill="#000000" class="color000000 svgShape">
    <g fill="#000000" class="color000000 svgShape">
      <g fill="#000000" class="color000000 svgShape">
        <path d="M479.023,175.925v125.549c0,28.889-23.409,52.298-52.298,52.298H128.406
				c-28.889,0-52.298-23.409-52.298-52.298V175.925c0-28.889,23.409-52.298,52.298-52.298h298.319
				C455.614,123.627,479.023,147.036,479.023,175.925z" fill="#ffffff" class="colorffffff svgShape"></path>
      </g>
      <g fill="#000000" class="color000000 svgShape">
        <path d="M221.189,175.82c-34.748,8.812-48.5,45.739-44.74,106.114l64.242-56.785L221.189,175.82z" fill="#aeaeae" class="colorf66866 svgShape"></path>
      </g>
      <g opacity=".3" fill="#000000" class="color000000 svgShape">
        <g fill="#000000" class="color000000 svgShape">
          <path d="M225.752,187.366c-22.156,11.911-32.695,39.312-33.087,80.242l-16.225,14.313
					c-3.774-60.341,10-97.3,44.753-106.123L225.752,187.366z" fill="#ffffff" class="colorffffff svgShape"></path>
        </g>
      </g>
      <g fill="#000000" class="color000000 svgShape">
        <path d="M333.942,175.82c34.748,8.812,48.5,45.739,44.74,106.114l-64.242-56.785L333.942,175.82z" fill="#aeaeae" class="colorf66866 svgShape"></path>
      </g>
      <g opacity=".3" fill="#000000" class="color000000 svgShape">
        <g fill="#000000" class="color000000 svgShape">
          <path d="M378.687,281.921l-14.509-12.843c-0.245-42.645-11.176-70.781-34.508-82.447l4.264-10.833
					C368.687,184.621,382.461,221.58,378.687,281.921z" fill="#ffffff" class="colorffffff svgShape"></path>
        </g>
      </g>
      <g fill="#000000" class="color000000 svgShape">
        <path d="M479.023,301.474v44.643c0,28.889-23.409,52.299-52.298,52.299H128.406
				c-28.889,0-52.298-23.409-52.298-52.299v-44.643c0,28.889,23.409,52.298,52.298,52.298h298.319
				C455.614,353.772,479.023,330.363,479.023,301.474z" fill="#707070" class="color576066 svgShape"></path>
      </g>
      <g fill="#000000" class="color000000 svgShape">
        <rect width="80.583" height="48.511" x="237.274" y="398.415" fill="#ffffff" class="colorffffff svgShape"></rect>
      </g>
      <g fill="#000000" class="color000000 svgShape">
        <path d="M360.888,501.078H194.243v-11.443c0-23.588,19.121-42.709,42.709-42.709h81.228
				c23.588,0,42.709,19.121,42.709,42.709V501.078z" fill="#d9dee3" class="colord9dde3 svgShape"></path>
      </g>
      <g opacity=".3" fill="#000000" class="color000000 svgShape">
        <g fill="#000000" class="color000000 svgShape">
          <path d="M357.248,472.363c-4.581-1.677-9.572-2.618-14.767-2.618h-81.237
					c-19.675,0-36.201,13.294-41.15,31.333h-25.852v-11.453c0-23.561,19.103-42.705,42.705-42.705h81.237
					C335.61,446.92,350.622,457.392,357.248,472.363z" fill="#ffffff" class="colorffffff svgShape"></path>
        </g>
      </g>
      <g fill="#000000" class="color000000 svgShape">
        <path d="M168.95,156.904c-1.255,4.426-3.038,8.686-5.218,12.649l9.049,9.049l-25.629,25.596l-9.049-9.049
				c-3.963,2.213-8.191,3.963-12.616,5.251v12.781h-36.23V200.4c-4.425-1.288-8.653-3.038-12.649-5.218l-9.016,9.016l-25.629-25.596
				l9.049-9.049c-2.18-3.963-3.963-8.224-5.218-12.649H32.979v-36.197h12.814c1.255-4.425,3.038-8.686,5.218-12.649l-9.049-9.049
				l25.629-25.596l9.016,9.016c3.996-2.18,8.224-3.93,12.649-5.218V64.43h36.23v12.781c4.425,1.288,8.653,3.038,12.616,5.251
				l9.049-9.049l25.629,25.596l-9.049,9.049c2.18,3.963,3.963,8.224,5.218,12.649h12.781v36.197H168.95z" fill="#0966c2" class="color5a83fc svgShape"></path>
      </g>
      <g opacity=".3" fill="#000000" class="color000000 svgShape">
        <g fill="#000000" class="color000000 svgShape">
          <path d="M172.813,99.041l-5.993,5.993c-11.448-6.33-24.646-9.966-38.652-9.966
					c-40.807,0-74.543,30.571-79.324,70.166c-1.212-2.693-2.222-5.454-3.03-8.35H32.951v-36.16h12.862
					c1.212-4.445,3.03-8.686,5.185-12.66l-9.023-9.023l25.588-25.656l9.023,9.023c4.04-2.155,8.215-3.906,12.66-5.185V64.43h36.227
					v12.794c4.445,1.279,8.687,3.03,12.66,5.253l9.023-9.091L172.813,99.041z" fill="#ffffff" class="colorffffff svgShape"></path>
        </g>
      </g>
      <g fill="#000000" class="color000000 svgShape">
        <circle cx="107.37" cy="138.806" r="36.197" fill="#ffffff" class="colorffffff svgShape"></circle>
      </g>
      <g fill="#000000" class="color000000 svgShape">
        <path d="M266.896,14.895c-64.381,76.808-69.813,155.651-29.646,236.066h73.993
				c48.286-84.114,39.098-162.914-27.563-236.398C279.158,9.577,271.219,9.736,266.896,14.895z" fill="#d9dee3" class="colord9dde3 svgShape"></path>
      </g>
      <g opacity=".3" fill="#000000" class="color000000 svgShape">
        <g fill="#000000" class="color000000 svgShape">
          <path d="M292.367,28.696c-60.684,72.398-68.968,146.612-36.077,222.245h-19.019
					c-40.194-80.388-34.754-159.258,29.606-236.068c4.363-5.147,12.303-5.294,16.813-0.294c3.725,4.117,7.255,8.235,10.637,12.353
					C293.592,27.422,292.955,28.01,292.367,28.696z" fill="#ffffff" class="colorffffff svgShape"></path>
        </g>
      </g>
      <g fill="#000000" class="color000000 svgShape">
        <path d="M325.421,76.016c-9.638-20.892-23.546-41.39-41.774-61.488c-4.497-4.958-12.41-4.809-16.71,0.321
				c-16.972,20.25-29.824,40.643-38.853,61.167H325.421z" fill="#ffffff" class="colorffffff svgShape"></path>
      </g>
      <g fill="#000000" class="color000000 svgShape">
        <polygon points="297.19 276.772 251.303 276.772 237.25 250.961 311.243 250.961" fill="#707070" class="color576066 svgShape"></polygon>
      </g>
      <g fill="#000000" class="color000000 svgShape">
        <circle cx="276.712" cy="139.209" r="43.449" transform="rotate(-67.5 276.707 139.205)" fill="#aeaeae" class="colorf66866 svgShape"></circle>
      </g>
      <g opacity=".3" fill="#000000" class="color000000 svgShape">
        <g fill="#000000" class="color000000 svgShape">
          <path d="M318.052,125.8c-7.941-8.627-19.313-14.019-31.91-14.019c-24.018,0-43.479,19.46-43.479,43.429
					c0,4.705,0.735,9.216,2.108,13.431c-7.156-7.695-11.519-18.087-11.519-29.411c0-24.018,19.46-43.478,43.479-43.478
					C296.043,95.752,312.415,108.35,318.052,125.8z" fill="#ffffff" class="colorffffff svgShape"></path>
        </g>
      </g>
      <path d="M299.327,371.194h-43.522c-2.709,0-4.902,2.192-4.902,4.902c0,2.709,2.192,4.902,4.902,4.902
			h43.522c2.709,0,4.902-2.192,4.902-4.902C304.229,373.386,302.037,371.194,299.327,371.194z" fill="#2c2c2c" class="color242c35 svgShape"></path>
      <path d="M32.978,115.805c-2.707,0-4.902,2.192-4.902,4.902v36.198c0,2.709,2.195,4.902,4.902,4.902h9.227
			c0.804,2.302,1.742,4.581,2.815,6.807l-6.522,6.525c-1.913,1.908-1.916,5.023,0.002,6.936l25.629,25.595
			c1.915,1.905,5.014,1.91,6.929-0.005l0.148-0.148c0,77.273,0,60.8,0,138.599c0,31.541,25.66,57.203,57.201,57.203h103.966v38.939
			c-24.111,2.312-43.034,22.672-43.034,47.378v6.539h-16.737c-2.707,0-4.902,2.192-4.902,4.902c0,2.709,2.195,4.902,4.902,4.902
			c70.252,0,148.807,0,209.926,0c2.709,0,4.902-2.192,4.902-4.902c0-2.709-2.192-4.902-4.902-4.902h-16.74v-6.539
			c0-24.705-18.92-45.064-43.029-47.378v-38.939h103.966c31.541,0,57.198-25.662,57.198-57.203c0-40.576,0-129.9,0-170.192
			c0-31.541-25.658-57.198-57.198-57.198h-82.801c-7.14-40.947-28.796-76.792-56.612-107.456c-0.006-0.006-0.013-0.011-0.019-0.017
			c-0.005-0.006-0.01-0.011-0.015-0.017c-6.412-7.067-17.855-6.984-24.102,0.464c-0.008,0.01-0.015,0.019-0.023,0.029
			c-0.004,0.005-0.01,0.009-0.015,0.014c-26.416,31.517-45.983,67.151-53.124,106.982h-23.813c-0.762-1.716-2.468-2.92-4.468-2.92
			h-9.193c-0.804-2.302-1.742-4.576-2.815-6.807l6.522-6.525c1.918-1.918,1.91-5.026,0-6.936l-25.631-25.595
			c-1.915-1.905-5.014-1.91-6.929,0.005l-6.51,6.51c-2.188-1.058-4.457-1.996-6.788-2.815v-9.21c0-2.709-2.195-4.902-4.902-4.902
			H89.258c-2.707,0-4.902,2.192-4.902,4.902v9.205c-2.319,0.814-4.591,1.752-6.802,2.805l-6.496-6.496
			c-1.915-1.915-5.014-1.91-6.929-0.005L38.5,95.537c-1.921,1.916-1.913,5.03-0.002,6.936l6.522,6.525
			c-1.072,2.226-2.01,4.504-2.815,6.807H32.978z M355.985,489.635v6.539H199.143v-6.539c0-20.847,16.96-37.807,37.807-37.807
			c27.614,0,52.584,0,81.228,0C339.025,451.829,355.985,468.788,355.985,489.635z M312.955,442.025h-70.779v-38.707h70.779V442.025z
			 M474.12,333.464v12.652c0,26.136-21.263,47.4-47.395,47.4c-111.031,0-239.481,0-298.318,0c-26.134,0-47.397-21.263-47.397-47.4
			v-12.652c0.553,0.484,16.67,25.212,47.397,25.212h298.318C458.589,358.676,473.63,333.896,474.12,333.464z M342.635,184.286
			c22.664,11.311,33.082,39.989,31.631,87.202l-46.811-41.376C334.456,214.682,339.502,199.404,342.635,184.286z M270.668,18.028
			c2.526-2.998,7.266-2.493,9.372-0.18c15.743,17.358,28.348,35.243,37.549,53.266h-81.841
			C244.427,53.183,256.147,35.358,270.668,18.028z M231.157,80.918h91.31c23.321,52.421,18.592,106.964-14.078,165.142H240.3
			C212.004,187.959,208.911,133.415,231.157,80.918z M223.951,233.406l-43.085,38.082c-1.402-45.465,8.212-73.738,29.16-85.877
			C212.763,201.376,217.405,217.314,223.951,233.406z M302.989,255.864l-8.712,16.007h-40.066l-8.712-16.007H302.989z
			 M208.498,175.414c-28.037,13.806-40.508,49.581-36.942,106.826c0.117,1.867,1.288,3.509,3.016,4.222
			c1.784,0.73,3.758,0.357,5.122-0.857l48.323-42.71c6.763,14.976,6.531,12.801,18.98,36.224c0.857,1.575,2.508,2.556,4.303,2.556
			h45.887c1.795,0,3.447-0.981,4.303-2.556c0.888-1.624,19.31-35.337,21.557-39.818l52.39,46.305
			c1.362,1.211,3.334,1.589,5.122,0.857c1.728-0.713,2.901-2.355,3.016-4.222c3.655-58.724-9.54-94.884-39.127-107.871
			c2.348-15.46,2.65-30.745,0.918-45.84h81.357c26.132,0,47.395,21.263,47.395,47.395v125.55c0,26.136-21.263,47.4-47.395,47.4
			H128.407c-26.134,0-47.397-21.263-47.397-47.4v-98.879c1.116,0.46,2.205,0.98,3.346,1.38v9.21c0,2.709,2.195,4.902,4.902,4.902
			h36.229c2.707,0,4.902-2.192,4.902-4.902v-9.215c2.331-0.819,4.6-1.757,6.788-2.815l6.51,6.51c1.915,1.915,5.014,1.91,6.929,0.005
			l25.631-25.595c1.91-1.91,1.917-5.019,0-6.936l-6.522-6.525c1.072-2.231,2.01-4.504,2.815-6.807h9.193
			c2.709,0,4.902-2.192,4.902-4.902v-28.377h21.855C206.556,143.968,206.569,159.603,208.498,175.414z M45.793,125.608
			c2.192,0,4.117-1.455,4.715-3.561c1.13-3.978,2.745-7.889,4.799-11.623c1.053-1.915,0.716-4.289-0.828-5.83l-5.581-5.581
			L67.59,80.343l5.553,5.553c1.541,1.541,3.908,1.881,5.816,0.838c3.681-2.015,7.609-3.633,11.668-4.816
			c2.094-0.608,3.533-2.527,3.533-4.705v-7.879h26.426v7.879c0,2.178,1.438,4.098,3.533,4.705c4.105,1.197,8.006,2.819,11.591,4.825
			c1.92,1.063,4.308,0.737,5.859-0.814l5.586-5.586l18.693,18.669l-5.581,5.581c-1.544,1.541-1.881,3.916-0.828,5.83
			c2.056,3.734,3.669,7.645,4.796,11.618c0.598,2.111,2.523,3.566,4.715,3.566h7.882v26.395h-7.882
			c-2.192,0-4.117,1.455-4.715,3.566c-1.127,3.973-2.74,7.884-4.796,11.618c-1.053,1.915-0.716,4.289,0.828,5.83l5.581,5.581
			l-18.693,18.669l-5.586-5.586c-1.551-1.546-3.94-1.876-5.859-0.814c-3.585,2.006-7.487,3.628-11.591,4.825
			c-2.094,0.608-3.533,2.527-3.533,4.705v7.884H94.159v-7.884c0-2.178-1.438-4.098-3.533-4.705c-4.059-1.182-7.987-2.8-11.668-4.816
			c-1.912-1.044-4.279-0.699-5.816,0.838l-5.553,5.553l-18.693-18.669l5.581-5.581c1.544-1.541,1.881-3.916,0.828-5.83
			c-2.054-3.734-3.669-7.645-4.799-11.623c-0.598-2.106-2.523-3.561-4.715-3.561H37.88v-26.395H45.793z" fill="#2c2c2c" class="color242c35 svgShape"></path>
      <path d="M107.369 179.906c22.663 0 41.1-18.439 41.1-41.1s-18.437-41.1-41.1-41.1c-22.661 0-41.098 18.439-41.098 41.1S84.708 179.906 107.369 179.906zM107.369 107.509c17.257 0 31.297 14.04 31.297 31.297s-14.04 31.297-31.297 31.297-31.294-14.04-31.294-31.297S90.112 107.509 107.369 107.509zM255.029 328.136c2.709 0 4.902-2.192 4.902-4.902v-32.345c0-2.709-2.192-4.902-4.902-4.902s-4.902 2.192-4.902 4.902v32.345C250.128 325.943 252.32 328.136 255.029 328.136zM293.463 328.136c2.709 0 4.902-2.192 4.902-4.902v-32.345c0-2.709-2.192-4.902-4.902-4.902s-4.902 2.192-4.902 4.902v32.345C288.561 325.943 290.754 328.136 293.463 328.136zM274.244 339.892c2.709 0 4.902-2.192 4.902-4.902v-29.688c0-2.709-2.192-4.902-4.902-4.902-2.709 0-4.902 2.192-4.902 4.902v29.688C269.342 337.7 271.535 339.892 274.244 339.892zM276.714 187.56c26.658 0 48.347-21.689 48.347-48.352s-21.689-48.352-48.347-48.352c-26.663 0-48.352 21.689-48.352 48.352S250.051 187.56 276.714 187.56zM276.714 100.659c21.254 0 38.544 17.295 38.544 38.549s-17.29 38.549-38.544 38.549-38.549-17.295-38.549-38.549S255.46 100.659 276.714 100.659z" fill="#2c2c2c" class="color242c35 svgShape"></path>
      <path d="M276.714 155.564c-3.159 0-5.73-2.571-5.73-5.725 0-2.709-2.192-4.902-4.902-4.902-2.709 0-4.902 2.192-4.902 4.902 0 6.841 4.477 12.595 10.632 14.66v2.142c0 2.709 2.192 4.902 4.902 4.902s4.902-2.192 4.902-4.902V164.5c6.153-2.065 10.627-7.82 10.627-14.66 0-8.564-6.965-15.533-15.529-15.533-3.159 0-5.73-2.571-5.73-5.725 0-3.159 2.571-5.73 5.73-5.73 3.155 0 5.725 2.571 5.725 5.73 0 2.709 2.192 4.902 4.902 4.902s4.902-2.192 4.902-4.902c0-6.84-4.474-12.598-10.627-14.665v-2.137c0-2.709-2.192-4.902-4.902-4.902s-4.902 2.192-4.902 4.902v2.137c-6.155 2.066-10.632 7.824-10.632 14.665 0 8.564 6.97 15.529 15.533 15.529 3.155 0 5.725 2.571 5.725 5.73C282.439 152.994 279.869 155.564 276.714 155.564zM399.004 277.553h48.108c2.709 0 4.902-2.192 4.902-4.902 0-2.709-2.192-4.902-4.902-4.902h-48.108c-2.709 0-4.902 2.192-4.902 4.902C394.102 275.361 396.295 277.553 399.004 277.553zM399.004 303.756h26.543c2.709 0 4.902-2.192 4.902-4.902 0-2.709-2.192-4.902-4.902-4.902h-26.543c-2.709 0-4.902 2.192-4.902 4.902C394.102 301.564 396.295 303.756 399.004 303.756zM399.004 329.964h48.108c2.709 0 4.902-2.192 4.902-4.902 0-2.709-2.192-4.902-4.902-4.902h-48.108c-2.709 0-4.902 2.192-4.902 4.902C394.102 327.772 396.295 329.964 399.004 329.964zM152.66 267.749h-48.108c-2.707 0-4.902 2.192-4.902 4.902 0 2.709 2.195 4.902 4.902 4.902h48.108c2.707 0 4.902-2.192 4.902-4.902C157.562 269.942 155.367 267.749 152.66 267.749zM104.552 303.756h26.543c2.707 0 4.902-2.192 4.902-4.902 0-2.709-2.195-4.902-4.902-4.902h-26.543c-2.707 0-4.902 2.192-4.902 4.902C99.65 301.564 101.845 303.756 104.552 303.756zM152.66 320.161h-48.108c-2.707 0-4.902 2.192-4.902 4.902 0 2.709 2.195 4.902 4.902 4.902h48.108c2.707 0 4.902-2.192 4.902-4.902C157.562 322.353 155.367 320.161 152.66 320.161z" fill="#2c2c2c" class="color242c35 svgShape"></path>
    </g>
  </g>
</svg>
