<svg xmlns="http://www.w3.org/2000/svg" xml:space="preserve" viewBox="0 0 512 512" enable-background="new 0 0 512 512" id="11962857">
  <g id="_x34_7_Business_Presentation" fill="#0966c2" class="color000000 svgShape">
    <g fill="#0966c2" class="color000000 svgShape">
      <g fill="#0966c2" class="color000000 svgShape">
        <rect width="300.143" height="188.325" x="182.04" y="47.402" fill="#ffffff" class="colorffffff svgShape"></rect>
      </g>
      <g fill="#0966c2" class="color000000 svgShape">
        <path d="M490.128,10.915H174.095c-5.363,0-9.71,4.348-9.71,9.71v17.067c0,5.363,4.348,9.71,9.71,9.71
				h316.033c5.363,0,9.711-4.348,9.711-9.71V20.625C499.838,15.262,495.491,10.915,490.128,10.915z" fill="#ccdff2" class="colord9f2cc svgShape"></path>
      </g>
      <g fill="#0966c2" class="color000000 svgShape">
        <path d="M490.128,235.728H174.095c-5.363,0-9.71,4.348-9.71,9.71v17.067c0,5.363,4.348,9.711,9.71,9.711
				h316.033c5.363,0,9.711-4.348,9.711-9.711v-17.067C499.838,240.075,495.491,235.728,490.128,235.728z" fill="#ccdff2" class="colord9f2cc svgShape"></path>
      </g>
      <g opacity=".3" fill="#0966c2" class="color000000 svgShape">
        <g fill="#0966c2" class="color000000 svgShape">
          <path d="M499.816,20.625v8.526H208.496c-10.125,0-18.237,8.171-18.237,18.237h-16.165
					c-5.388,0-9.711-4.322-9.711-9.71V20.625c0-5.388,4.323-9.711,9.711-9.711h316.01C495.493,10.915,499.816,15.237,499.816,20.625
					z" fill="#ffffff" class="colorffffff svgShape"></path>
        </g>
      </g>
      <g opacity=".3" fill="#0966c2" class="color000000 svgShape">
        <g fill="#0966c2" class="color000000 svgShape">
          <path d="M499.816,245.45v8.526H208.496c-10.125,0-18.237,8.171-18.237,18.237h-16.165
					c-5.388,0-9.711-4.322-9.711-9.711V245.45c0-5.388,4.323-9.711,9.711-9.711h316.01
					C495.493,235.74,499.816,240.062,499.816,245.45z" fill="#ffffff" class="colorffffff svgShape"></path>
        </g>
      </g>
      <g fill="#0966c2" class="color000000 svgShape">
        <path d="M458.072,176.351v23.586c0,4.12-3.34,7.461-7.461,7.461h-48.494c-4.12,0-7.461-3.34-7.461-7.461
				v-23.586c0-4.12,3.34-7.461,7.461-7.461h48.494C454.732,168.89,458.072,172.23,458.072,176.351z" fill="#707070" class="color576066 svgShape"></path>
      </g>
      <g fill="#0966c2" class="color000000 svgShape">
        <path d="M40.692,306.949v-70.28V306.949V332c0,7.872-6.393,14.265-14.265,14.265
				c-3.943,0-7.509-1.595-10.09-4.175c-2.58-2.58-4.175-6.147-4.175-10.09v-25.05V231.74c0-9.075,2.421-17.976,7.031-25.79
				c2.58-4.393,5.784-8.336,9.51-11.742c3.711-3.392,7.93-6.234,12.54-8.408l20.933-9.901c2.58-1.218,5.393-1.856,8.249-1.856h42.36
				c3.044,0,6.031,0.725,8.742,2.102l12.293,6.248c2.247,1.145,4.74,1.74,7.263,1.74h18.179c6.016,0,11.539-3.378,14.279-8.742
				l32.589-63.8l28.704,15.657l-33.662,67.772c-3.9,7.843-10.206,14.25-17.976,18.266c-2.928,1.508-6.016,2.653-9.191,3.436
				c-3.175,0.768-6.437,1.16-9.727,1.16h-23.383v89.068H46.607H40.692" fill="#707070" class="color576066 svgShape"></path>
      </g>
      <g fill="#0966c2" class="color000000 svgShape">
        <path d="M140.894,306.949v179.07c0,8.323-6.747,15.071-15.071,15.071h0
				c-7.366,0-13.652-5.324-14.865-12.589L90.793,367.72L71.27,488.426c-1.181,7.3-7.483,12.664-14.877,12.664h-0.63
				c-8.323,0-15.071-6.747-15.071-15.071v-179.07H140.894z" fill="#ffffff" class="colorffffff svgShape"></path>
      </g>
      <g fill="#0966c2" class="color000000 svgShape">
        <path d="M40.692,306.949V332c0,7.872-6.393,14.265-14.265,14.265c-3.943,0-7.509-1.595-10.09-4.175
				c-2.58-2.58-4.175-6.147-4.175-10.09v-25.05H40.692z" fill="#ffffff" class="colorffffff svgShape"></path>
      </g>
      <g fill="#0966c2" class="color000000 svgShape">
        <polygon points="115.583 155.951 115.583 174.504 102.391 190.787 79.718 190.787 66.526 174.504 66.526 155.951" fill="#ffffff" class="colorffffff svgShape"></polygon>
      </g>
      <g fill="#0966c2" class="color000000 svgShape">
        <polygon points="74.267 261.719 91.054 282.015 107.841 261.719 102.391 190.787 79.718 190.787" fill="#d9dee3" class="colord9dde3 svgShape"></polygon>
      </g>
      <g opacity=".3" fill="#0966c2" class="color000000 svgShape">
        <g fill="#0966c2" class="color000000 svgShape">
          <path d="M103.355,203.536c-3.209,1.086-6.072,2.863-8.491,5.084c-4.394,4.097-7.306,9.725-7.8,16.093
					l-3.702,48.032l-9.083-11.008l5.43-70.937h22.659L103.355,203.536z" fill="#ffffff" class="colorffffff svgShape"></path>
        </g>
      </g>
      <g fill="#0966c2" class="color000000 svgShape">
        <path d="M206.13,111.591l4.708-8.392c4.541-8.094,14.867-10.845,22.833-6.083l0,0
				c7.829,4.68,10.368,14.828,5.667,22.644l-4.505,7.489L206.13,111.591z" fill="#ffffff" class="colorffffff svgShape"></path>
      </g>
      <g fill="#0966c2" class="color000000 svgShape">
        <path d="M40.692,460.232v25.787c0,8.323,6.748,15.071,15.071,15.071h0.63
				c7.394,0,13.697-5.365,14.878-12.664l4.56-28.193H40.692z" fill="#d9dee3" class="colord9dde3 svgShape"></path>
      </g>
      <g fill="#0966c2" class="color000000 svgShape">
        <path d="M106.239,460.232l4.72,28.269c1.213,7.265,7.5,12.589,14.865,12.589
				c8.323,0,15.071-6.748,15.071-15.071v-25.787H106.239z" fill="#d9dee3" class="colord9dde3 svgShape"></path>
      </g>
      <g opacity=".3" fill="#0966c2" class="color000000 svgShape">
        <g fill="#0966c2" class="color000000 svgShape">
          <path d="M75.809,460.232l-1.58,9.774h-6.664c-8.491,0-15.303,6.862-15.303,15.303v10.169
					c0,1.876,0.346,3.702,0.987,5.381c-7.158-1.185-12.539-7.405-12.539-14.859v-25.768H75.809z" fill="#ffffff" class="colorffffff svgShape"></path>
        </g>
      </g>
      <g opacity=".3" fill="#0966c2" class="color000000 svgShape">
        <g fill="#0966c2" class="color000000 svgShape">
          <path d="M140.872,460.232v9.774h-4.986c-9.478,0-16.685,8.491-15.106,17.821l1.58,9.577
					c0.197,1.185,0.543,2.369,0.938,3.505c-6.22-1.086-11.255-5.973-12.341-12.391l-4.739-28.286H140.872z" fill="#ffffff" class="colorffffff svgShape"></path>
        </g>
      </g>
      <g fill="#0966c2" class="color000000 svgShape">
        <path d="M151.892,71.775c0,33.586-27.229,60.815-60.815,60.815c-33.631,0-60.86-27.229-60.86-60.815
				c0-33.631,27.229-60.86,60.86-60.86C124.662,10.915,151.892,38.144,151.892,71.775z" fill="#707070" class="color576066 svgShape"></path>
      </g>
      <g fill="#0966c2" class="color000000 svgShape">
        <path d="M138.239,89.84v25.766c0,26.059-21.125,47.185-47.185,47.185h0
				c-26.059,0-47.185-21.125-47.185-47.185V89.84h0c11.003,0,20.971-6.485,25.43-16.544l6.143-13.857l29.488,24.116
				c4.969,4.064,11.191,6.284,17.61,6.284H138.239z" fill="#ffffff" class="colorffffff svgShape"></path>
      </g>
      <g fill="#0966c2" class="color000000 svgShape">
        <path d="M156.302,105.325L156.302,105.325c0,8.547-6.929,15.476-15.476,15.476h-2.592V89.849h2.592
				C149.373,89.849,156.302,96.777,156.302,105.325z" fill="#ffffff" class="colorffffff svgShape"></path>
      </g>
      <g fill="#0966c2" class="color000000 svgShape">
        <path d="M25.802,105.325L25.802,105.325c0,8.547,6.929,15.476,15.476,15.476h2.592V89.849h-2.592
				C32.73,89.849,25.802,96.777,25.802,105.325z" fill="#ffffff" class="colorffffff svgShape"></path>
      </g>
      <g fill="#0966c2" class="color000000 svgShape">
        <path d="M377.349,127.249v0.022c-0.022,33.852-27.45,61.28-61.28,61.28
				c-33.852,0-61.301-27.45-61.301-61.301s27.45-61.28,61.301-61.28C349.9,65.97,377.349,93.398,377.349,127.249z" fill="#aeaeae" class="colorf66866 svgShape"></path>
      </g>
      <g opacity=".3" fill="#0966c2" class="color000000 svgShape">
        <g fill="#0966c2" class="color000000 svgShape">
          <path d="M360.34,84.867c-7.598-3.382-16.029-5.245-24.852-5.245c-33.871,0-61.321,27.45-61.321,61.321
					c0,16.421,6.47,31.322,17.009,42.351c-21.47-9.558-36.42-31.077-36.42-56.027c0-33.871,27.45-61.321,61.321-61.321
					C333.479,65.946,349.164,73.201,360.34,84.867z" fill="#ffffff" class="colorffffff svgShape"></path>
        </g>
      </g>
      <g fill="#0966c2" class="color000000 svgShape">
        <path d="M377.349,127.249v0.022h-61.28V65.97C349.9,65.97,377.349,93.398,377.349,127.249z" fill="#ccdff2" class="colord9f2cc svgShape"></path>
      </g>
      <g opacity=".3" fill="#0966c2" class="color000000 svgShape">
        <g fill="#0966c2" class="color000000 svgShape">
          <path d="M377.349,127.267h-11.274c-3.97-26.029-24.215-46.665-49.998-51.126V65.946
					C349.899,65.946,377.349,93.396,377.349,127.267z" fill="#ffffff" class="colorffffff svgShape"></path>
        </g>
      </g>
      <path d="M398.388 87.995h55.954c2.707 0 4.902-2.192 4.902-4.902 0-2.709-2.195-4.902-4.902-4.902h-55.954c-2.707 0-4.902 2.192-4.902 4.902C393.486 85.803 395.681 87.995 398.388 87.995zM398.388 114.639h27.977c2.707 0 4.902-2.192 4.902-4.902 0-2.709-2.195-4.902-4.902-4.902h-27.977c-2.707 0-4.902 2.192-4.902 4.902C393.486 112.446 395.681 114.639 398.388 114.639zM398.388 141.283h55.954c2.707 0 4.902-2.192 4.902-4.902s-2.195-4.902-4.902-4.902h-55.954c-2.707 0-4.902 2.192-4.902 4.902S395.681 141.283 398.388 141.283zM402.117 212.301h48.493c6.819 0 12.364-5.548 12.364-12.364v-23.585c0-6.817-5.546-12.365-12.364-12.365h-48.493c-6.817 0-12.362 5.548-12.362 12.365v23.585C389.755 206.753 395.3 212.301 402.117 212.301zM399.558 176.351c0-1.412 1.149-2.561 2.559-2.561h48.493c1.412 0 2.561 1.149 2.561 2.561v23.585c0 1.412-1.149 2.561-2.561 2.561h-48.493c-1.41 0-2.559-1.149-2.559-2.561V176.351z" fill="#2c2c2c" class="color242c35 svgShape"></path>
      <path d="M490.128,6.01H174.094c-8.056,0-14.612,6.558-14.612,14.614V37.69
			c0,8.056,6.556,14.614,14.612,14.614h3.044v105.265l-7.963,15.589c-1.912,3.748-5.711,6.075-9.914,6.075h-18.181
			c-1.742,0-3.485-0.416-5.041-1.211l-12.293-6.247c-1.045-0.531-2.155-0.91-3.265-1.279v-11.957
			c11.051-7.599,19.024-19.341,21.676-32.973c10.605-0.702,19.043-9.465,19.043-20.242c0-6.124-2.772-11.56-7.062-15.299
			c1.702-5.798,2.653-11.91,2.653-18.252c0-36.261-29.482-65.762-65.719-65.762c-36.261,0-65.76,29.501-65.76,65.762
			c0,6.335,0.992,12.423,2.688,18.218c-4.314,3.739-7.104,9.191-7.104,15.334c0,10.779,8.44,19.544,19.048,20.244
			c2.653,13.631,10.626,25.373,21.676,32.972v12.339c-3.082,1.18,0.629-0.339-22.47,10.49C19.684,190.546,7.26,210.216,7.26,231.74
			c0,31.768,0,67.586,0,100.261c0,10.527,8.508,19.167,19.167,19.167c3.417,0,6.582-0.973,9.363-2.546c0,84.219,0,89.254,0,137.397
			c0,11.01,8.961,19.971,19.973,19.971h0.629c9.854,0,18.145-7.056,19.717-16.783l14.76-91.262
			c3.888,23.287,11.373,68.125,15.253,91.367c1.616,9.665,9.899,16.677,19.7,16.677c11.012,0,19.973-8.961,19.973-19.971
			c0-33.4,0-232.397,0-263.235h18.48c5.426,0,9.049-0.801,12.862-1.911v9.953h-3.044c-8.056,0-14.612,6.558-14.612,14.614v17.065
			c0,8.056,6.556,14.614,14.612,14.614h316.034c8.056,0,14.612-6.558,14.612-14.614V245.44c0-8.056-6.556-14.614-14.612-14.614
			h-3.044V52.304h3.044c8.056,0,14.612-6.558,14.612-14.614V20.625C504.74,12.568,498.185,6.01,490.128,6.01z M143.138,115.643
			c0-0.012,0.002-0.025,0.002-0.037V95.004c4.719,1.06,8.26,5.285,8.26,10.319C151.4,110.358,147.859,114.584,143.138,115.643z
			 M35.119,71.772c0-30.856,25.102-55.959,55.956-55.959c30.832,0,55.915,25.102,55.915,55.959c0,4.728-0.663,9.293-1.788,13.674
			c-3.61-0.795-18.947-0.549-22.664-0.51c-5.275,0-10.426-1.838-14.507-5.175L78.546,55.645c-1.187-0.967-2.755-1.331-4.241-0.972
			c-1.486,0.354-2.724,1.383-3.344,2.781L64.82,71.308c-3.669,8.281-11.893,13.628-20.95,13.628c-0.017,0-0.031,0.01-0.048,0.01
			c-1.302,0.045-3.743-0.2-6.928,0.503C35.775,81.065,35.119,76.499,35.119,71.772z M38.968,115.644
			c-4.722-1.058-8.265-5.285-8.265-10.32s3.542-9.263,8.265-10.32v20.603V115.644z M48.772,115.606V94.371
			c10.933-1.656,20.442-8.784,25.009-19.09l3.535-7.975l24.511,20.047c5.826,4.763,13.181,7.386,20.713,7.386h10.797v20.866
			c0,23.317-18.968,42.282-42.282,42.282S48.772,138.923,48.772,115.606z M110.68,163.823v8.943l-10.627,13.121H82.057
			l-10.629-13.121v-8.943C83.807,168.88,97.802,169.084,110.68,163.823z M84.259,195.69h13.592l4.952,64.431l-11.749,14.203
			l-11.749-14.203L84.259,195.69z M26.426,341.364c-5.186,0-9.363-4.193-9.363-9.363v-20.148H35.79v20.148
			C35.79,337.166,31.589,341.364,26.426,341.364z M56.392,496.186h-0.629c-5.608,0-10.17-4.562-10.17-10.167v-20.885h24.478
			l-3.64,22.513C65.631,492.596,61.409,496.186,56.392,496.186z M90.793,362.819c-0.005,0-0.007,0-0.012,0
			c-2.401,0.005-4.445,1.747-4.828,4.121l-14.296,88.39H45.593c0-30.07,0-113.305,0-143.477h90.4V455.33h-25.604l-14.762-88.418
			C95.233,364.552,93.189,362.819,90.793,362.819z M135.993,486.019c0,5.605-4.562,10.167-10.17,10.167
			c-4.99,0-9.21-3.571-10.031-8.492l-3.766-22.561h23.967V486.019z M164.276,212.98h-23.381c-2.707,0-4.902,2.192-4.902,4.902
			v84.168h-90.4v-65.379c0-2.709-2.195-4.902-4.902-4.902c-2.707,0-4.902,2.192-4.902,4.902v65.379H17.063v-70.31
			c0-17.521,10.053-33.864,26.278-41.507l20.926-9.904c0.17-0.08,0.352-0.108,0.524-0.181l9.892,12.211l-5.303,68.988
			c-0.098,1.264,0.302,2.518,1.111,3.499l16.788,20.296c0.931,1.125,2.317,1.776,3.777,1.776c1.46,0,2.846-0.651,3.777-1.776
			l16.788-20.296c0.809-0.981,1.209-2.235,1.111-3.499l-5.301-68.988l10.118-12.491c0.591,0.209,1.2,0.364,1.76,0.649l12.29,6.247
			c2.925,1.489,6.204,2.274,9.485,2.274h18.181c7.903,0,15.048-4.375,18.645-11.417l30.299-59.314l20.138,10.986l-31.562,63.546
			C190.668,205.133,178.09,212.98,164.276,212.98z M212.832,109.661l2.281-4.064c3.192-5.69,10.44-7.629,16.043-4.275
			c5.504,3.287,7.289,10.414,3.98,15.912l-2.082,3.46C231.535,119.864,211.587,108.981,212.832,109.661z M494.937,245.44v17.065
			c0,2.652-2.156,4.811-4.808,4.811H174.094c-2.652,0-4.808-2.159-4.808-4.811V245.44c0-2.652,2.156-4.811,4.808-4.811
			c73.075,0,241.321,0,316.034,0C492.78,240.629,494.937,242.788,494.937,245.44z M477.28,230.826H186.942V216.71
			c7.94-4.509,14.546-11.318,18.619-19.507c3.883-7.66-14.067,27.749,37.977-74.915c6.103-10.148,2.818-23.3-7.35-29.382
			c-10.449-6.242-23.786-2.516-29.624,7.894c-0.258,0.495-20.928,40.08-19.621,37.577V52.304H477.28V230.826z M494.937,37.69
			c0,2.652-2.156,4.811-4.808,4.811c-73.075,0-241.321,0-316.034,0c-2.652,0-4.808-2.159-4.808-4.811V20.625
			c0-2.652,2.156-4.811,4.808-4.811h316.034c2.652,0,4.808,2.159,4.808,4.811V37.69z" fill="#2c2c2c" class="color242c35 svgShape"></path>
      <path d="M83.294 105.668c-1.922-1.905-5.029-1.896-6.931.029-2.097 2.121-5.818 2.121-7.925 0-1.9-1.92-5.007-1.929-6.931-.029-1.922 1.905-1.936 5.012-.029 6.931 6.008 6.062 15.837 6.062 21.845 0C85.231 110.68 85.216 107.573 83.294 105.668zM120.63 112.6c1.908-1.92 1.893-5.026-.029-6.931-1.924-1.905-5.031-1.896-6.931.029-2.099 2.121-5.823 2.121-7.925 0-1.903-1.92-5.009-1.929-6.931-.029-1.922 1.905-1.936 5.012-.029 6.931C104.793 118.662 114.622 118.662 120.63 112.6zM101.978 138.645c1.905-1.92 1.893-5.021-.026-6.931-1.927-1.91-5.026-1.9-6.934.029-2.101 2.116-5.826 2.116-7.927 0-1.91-1.924-5.009-1.934-6.934-.029-1.92 1.91-1.932 5.012-.026 6.931C86.143 144.707 95.965 144.707 101.978 138.645zM316.07 193.455c36.469 0 66.157-29.688 66.181-66.183v-.024c0-36.49-29.688-66.179-66.181-66.179-36.505 0-66.205 29.688-66.205 66.179C249.866 163.752 279.566 193.455 316.07 193.455zM320.972 71.121c27.635 2.483 48.946 24.366 51.229 51.249h-51.229V71.121zM311.169 71.121v56.151c0 2.709 2.195 4.902 4.902 4.902h56.126c-2.515 28.798-26.714 51.478-56.126 51.478-31.1 0-56.401-25.303-56.401-56.404C259.669 97.815 282.359 73.617 311.169 71.121z" fill="#2c2c2c" class="color242c35 svgShape"></path>
    </g>
  </g>
</svg>
