<svg xmlns="http://www.w3.org/2000/svg" enable-background="new 0 0 512 512" viewBox="0 0 512 512" id="6622008">
  <path fill="#ffffff" d="M451.762,279.487v132.224c0,32.33-26.209,58.539-58.539,58.539h-274.45
			c-32.33,0-58.539-26.209-58.539-58.539V279.487H451.762z" class="colorffffff svgShape"></path>
  <path fill="#0966c2" d="M498.18,160.252v84.753c0,19.026-15.424,34.45-34.45,34.45H48.266
			c-19.026,0-34.45-15.424-34.45-34.45v-84.753c0-19.026,15.424-34.45,34.45-34.45H463.73
			C482.757,125.803,498.18,141.226,498.18,160.252z" class="colorfdce06 svgShape"></path>
  <path fill="#cfd0d1" d="M156.127 272.166v17.525c0 11.673-9.463 21.136-21.136 21.136h0c-11.673 0-21.136-9.463-21.136-21.136v-17.525c0-11.673 9.463-21.136 21.136-21.136h0C146.664 251.03 156.127 260.493 156.127 272.166zM398.141 272.166v17.525c0 11.673-9.463 21.136-21.136 21.136h0c-11.673 0-21.136-9.463-21.136-21.136v-17.525c0-11.673 9.463-21.136 21.136-21.136h0C388.679 251.03 398.141 260.493 398.141 272.166z" class="colorcfcfd1 svgShape"></path>
  <path fill="#707070" d="M463.728,117.987H358.827V79.46c0-25.1-20.423-45.524-45.524-45.524H198.697
			c-25.1,0-45.524,20.423-45.524,45.524v38.528H48.264c-23.3,0-42.258,18.959-42.258,42.266v84.753
			c0,23.3,18.959,42.258,42.258,42.258h4.158v124.448c0,36.59,29.762,66.351,66.351,66.351h274.454
			c36.59,0,66.351-29.762,66.351-66.351V287.265h4.15c23.307,0,42.266-18.959,42.266-42.258v-84.753
			C505.994,136.946,487.036,117.987,463.728,117.987z M168.798,79.46c0-16.487,13.412-29.899,29.899-29.899h114.606
			c16.487,0,29.899,13.412,29.899,29.899v38.528H168.798V79.46z M443.954,411.712c0,27.969-22.758,50.727-50.727,50.727H118.773
			c-27.969,0-50.727-22.758-50.727-50.727v-124.41h37.994v2.388c0,15.96,12.985,28.945,28.953,28.945
			c15.96,0,28.945-12.985,28.945-28.945v-2.388h184.116v2.388c0,15.96,12.985,28.945,28.953,28.945
			c15.96,0,28.945-12.985,28.945-28.945v-2.388h38.001V411.712z M121.665,289.691v-17.524c0-7.347,5.981-13.321,13.328-13.321
			c7.347,0,13.321,5.974,13.321,13.321v17.524c0,7.347-5.974,13.321-13.321,13.321C127.646,303.011,121.665,297.038,121.665,289.691
			z M363.679,289.691v-17.524c0-7.347,5.981-13.321,13.328-13.321c7.347,0,13.321,5.974,13.321,13.321v17.524
			c0,7.347-5.974,13.321-13.321,13.321C369.66,303.011,363.679,297.038,363.679,289.691z M490.37,245.006
			c0,14.686-11.955,26.634-26.641,26.634h-57.829c-0.289-15.713-13.112-28.419-28.892-28.419c-15.788,0-28.611,12.706-28.9,28.419
			H163.885c-0.289-15.713-13.112-28.419-28.892-28.419c-15.788,0-28.611,12.706-28.9,28.419h-57.83
			c-14.686,0-26.634-11.947-26.634-26.634v-84.753c0-14.686,11.947-26.641,26.634-26.641c100.19,0,314.622,0,415.465,0
			c14.686,0,26.641,11.955,26.641,26.641V245.006z" class="color3e3e3e svgShape"></path>
</svg>
