<svg xmlns="http://www.w3.org/2000/svg" xml:space="preserve" viewBox="0 0 512 512" enable-background="new 0 0 512 512" id="11962852">
  <g id="_x34_2_Business_Insurance" fill="#000000" class="color000000 svgShape">
    <g fill="#000000" class="color000000 svgShape">
      <g fill="#000000" class="color000000 svgShape">
        <path d="M388.705,278.198v81.96c0,27.085-21.956,49.041-49.041,49.041H136.901
				c-27.085,0-49.041-21.956-49.041-49.041v-81.96c0-27.085,21.956-49.041,49.041-49.041h202.763
				C366.748,229.157,388.705,251.114,388.705,278.198z" fill="#ccdff2" class="colord9f2cc svgShape"></path>
      </g>
      <g opacity=".3" fill="#000000" class="color000000 svgShape">
        <g fill="#000000" class="color000000 svgShape">
          <path d="M388.678,278.205v15.885c-4.365,3.005-9.66,4.722-15.241,4.722H145.892
					c-13.882,15.026-22.397,35.062-22.397,57.101v11.521c0,15.17,4.007,29.409,11.019,41.645
					c-25.974-1.145-46.654-22.611-46.654-48.943v-81.931c0-27.119,21.967-49.015,49.015-49.015h202.787
					C366.782,229.19,388.678,251.086,388.678,278.205z" fill="#ffffff" class="colorffffff svgShape"></path>
        </g>
      </g>
      <g fill="#000000" class="color000000 svgShape">
        <path d="M400.594,201.207v70.398c0,15.017-12.174,27.191-27.191,27.191h-270.24
				c-15.017,0-27.191-12.174-27.191-27.191v-70.398c0-15.017,12.174-27.191,27.191-27.191h270.24
				C388.42,174.015,400.594,186.189,400.594,201.207z" fill="#ccdff2" class="colord9f2cc svgShape"></path>
      </g>
      <g opacity=".3" fill="#000000" class="color000000 svgShape">
        <g fill="#000000" class="color000000 svgShape">
          <path d="M400.628,201.212v21.395c-8.086-3.935-17.173-6.082-26.761-6.082H174.013
					c-17.245,0-32.844,6.941-44.149,18.246c-11.306,11.306-18.247,26.905-18.247,44.149c0,6.941,1.145,13.667,3.22,19.893h-11.663
					c-5.653,0-10.948-1.717-15.313-4.722c-7.155-4.866-11.878-13.095-11.878-22.468v-70.41c0-15.026,12.164-27.191,27.191-27.191
					h270.263C388.392,174.021,400.628,186.186,400.628,201.212z" fill="#ffffff" class="colorffffff svgShape"></path>
        </g>
      </g>
      <g fill="#000000" class="color000000 svgShape">
        <path d="M344.262,174.015h-39.564v-33.502c0-8.473-6.891-15.366-15.362-15.366H187.23
				c-8.471,0-15.362,6.893-15.362,15.366v33.502h-39.564v-33.502c0-30.287,24.64-54.93,54.926-54.93h102.107
				c30.285,0,54.926,24.642,54.926,54.93V174.015z" fill="#aeaeae" class="colorf66866 svgShape"></path>
      </g>
      <g opacity=".3" fill="#000000" class="color000000 svgShape">
        <g fill="#000000" class="color000000 svgShape">
          <path d="M305.077,101.584H203.004c-30.318,0-54.934,24.657-54.934,54.934v17.477h-15.754v-33.477
					c0-30.277,24.616-54.934,54.934-54.934h102.073c19.365,0,36.431,10.052,46.155,25.231
					C326.78,104.989,316.319,101.584,305.077,101.584z" fill="#ffffff" class="colorffffff svgShape"></path>
        </g>
      </g>
      <g fill="#000000" class="color000000 svgShape">
        <path d="M194.267,284.334v19.272c0,12.486-10.122,22.608-22.608,22.608h0
				c-12.486,0-22.608-10.122-22.608-22.608v-19.272c0-12.486,10.122-22.608,22.608-22.608h0
				C184.145,261.726,194.267,271.848,194.267,284.334z" fill="#ffffff" class="colorffffff svgShape"></path>
      </g>
      <g fill="#000000" class="color000000 svgShape">
        <path d="M327.515,284.334v19.272c0,12.486-10.122,22.608-22.608,22.608h0
				c-12.486,0-22.608-10.122-22.608-22.608v-19.272c0-12.486,10.122-22.608,22.608-22.608h0
				C317.393,261.726,327.515,271.848,327.515,284.334z" fill="#ffffff" class="colorffffff svgShape"></path>
      </g>
      <g fill="#000000" class="color000000 svgShape">
        <path d="M501.088,105.878v60.754c0,57.423-89.076,89.076-89.076,89.076h0c0,0-89.076-31.653-89.076-89.076
				v-60.754c22.153,0,40.111-17.958,40.111-40.111h97.93C460.977,87.919,478.936,105.878,501.088,105.878z" fill="#d9dee3" class="colord9dde3 svgShape"></path>
      </g>
      <g opacity=".3" fill="#000000" class="color000000 svgShape">
        <g fill="#000000" class="color000000 svgShape">
          <path d="M484.636,102.351c-3.486-0.34-7.015-0.51-10.585-0.51c-66.403,0-120.223,53.82-120.223,120.223
					v0.34c-16.92-14.326-30.906-32.989-30.906-55.775V105.88c22.148,0,40.131-17.94,40.131-40.131h97.904
					C460.957,82.073,470.692,96.059,484.636,102.351z" fill="#ffffff" class="colorffffff svgShape"></path>
        </g>
      </g>
      <g fill="#000000" class="color000000 svgShape">
        <path d="M395.112,202.872c-6.329,0-12.659-2.412-17.479-7.232l-15.18-15.18
				c-6.42-6.42-6.42-16.828,0-23.247l0,0c6.419-6.419,16.826-6.42,23.246-0.001l9.417,9.415l43.209-43.209
				c6.419-6.419,16.827-6.419,23.246,0l0,0c6.419,6.419,6.419,16.827,0,23.246l-48.976,48.976
				C407.775,200.46,401.446,202.872,395.112,202.872z" fill="#ffffff" class="colorffffff svgShape"></path>
      </g>
      <g fill="#000000" class="color000000 svgShape">
        <ellipse cx="96.453" cy="360.692" rx="85.541" ry="85.54" transform="rotate(-45.001 96.45 360.695)" fill="#0966c2" class="color5a83fc svgShape"></ellipse>
      </g>
      <g opacity=".3" fill="#000000" class="color000000 svgShape">
        <g fill="#000000" class="color000000 svgShape">
          <path d="M175.044,326.96c-15.597-20.232-40.118-33.273-67.673-33.273
					c-47.267,0-85.522,38.299-85.522,85.566c0,11.958,2.426,23.309,6.845,33.62c-11.134-14.427-17.763-32.493-17.763-52.163
					c0-47.267,38.256-85.566,85.522-85.566C131.719,275.144,162.003,296.46,175.044,326.96z" fill="#ffffff" class="colorffffff svgShape"></path>
        </g>
      </g>
      <g fill="#000000" class="color000000 svgShape">
        <circle cx="96.453" cy="360.692" r="55.221" fill="#ffffff" class="colorffffff svgShape"></circle>
      </g>
      <path d="M501.088,100.975c-19.416,0-35.21-15.792-35.21-35.207c0-2.709-2.195-4.902-4.902-4.902h-97.927
			c-2.707,0-4.902,2.192-4.902,4.902c0,16.003-10.741,29.519-25.384,33.786c-10.911-11.575-26.304-18.87-43.427-18.87H187.229
			c-32.989,0-59.826,26.84-59.826,59.831v28.602h-24.241c-17.697,0-32.094,14.394-32.094,32.091v70.396
			c0,0.779,0.069,1.54,0.126,2.304C33.59,284.873,6.01,319.594,6.01,360.691c0,49.87,40.574,90.443,90.443,90.443
			c29.88,0,56.342-14.627,72.819-37.031h170.392c29.743,0,53.941-24.198,53.941-53.943v-63.65
			c7.246-5.89,11.891-14.863,11.891-24.907v-13.151c2.674,1.078,4.415,1.709,4.875,1.873c1.071,0.376,2.212,0.377,3.284,0
			c3.77-1.34,92.334-33.503,92.334-93.693v-60.755C505.99,103.167,503.795,100.975,501.088,100.975z M137.207,140.514
			c0-27.587,22.441-50.028,50.023-50.028h102.106c11.86,0,22.702,4.222,31.275,11.155c-1.511,0.835-2.575,2.385-2.575,4.235v60.755
			c0,0.839,0.08,1.651,0.113,2.48h-8.548v-28.597c0-11.177-9.09-20.268-20.265-20.268H187.229c-11.173,0-20.263,9.09-20.263,20.268
			v28.597h-29.76V140.514z M176.77,140.514c0-5.768,4.691-10.464,10.459-10.464h102.106c5.768,0,10.462,4.696,10.462,10.464v28.602
			H176.77V140.514z M96.454,441.331c-44.465,0-80.64-36.174-80.64-80.64s36.174-80.64,80.64-80.64
			c44.463,0,80.637,36.174,80.637,80.64S140.916,441.331,96.454,441.331z M153.951,290.929v-6.593
			c0-9.765,7.944-17.707,17.707-17.707c9.763,0,17.707,7.941,17.707,17.707v19.272c0,7.79-5.094,14.347-12.1,16.706
			C171.573,308.972,163.65,298.936,153.951,290.929z M383.802,360.16c0,24.336-19.801,44.14-44.137,44.14H175.638
			c7.157-12.943,11.256-27.801,11.256-43.608c0-11.042-2.087-21.58-5.725-31.371c10.451-3.872,17.951-13.851,17.99-25.621h78.242
			c0.05,15.122,12.367,27.414,27.506,27.414s27.456-12.293,27.506-27.414h40.99c3.643,0,7.133-0.639,10.399-1.763V360.16z
			 M287.201,303.608v-19.272c0-9.765,7.944-17.707,17.707-17.707s17.707,7.941,17.707,17.707v19.272
			c0,9.76-7.944,17.702-17.707,17.702S287.201,313.368,287.201,303.608z M395.693,271.603c0,12.293-10,22.292-22.29,22.292h-40.985
			v-9.559c0-15.17-12.341-27.51-27.51-27.51s-27.51,12.341-27.51,27.51v9.559h-78.229v-9.559c0-15.17-12.341-27.51-27.51-27.51
			c-15.056,0-27.311,12.161-27.493,27.175c-18.173-11.349-40.028-16.376-63.286-12.314c0-0.029-0.007-0.055-0.007-0.084v-70.396
			c0-12.288,10-22.288,22.29-22.288h216.173c8.049,38.947,52.658,64.346,76.357,75.281V271.603z M496.186,166.632
			c0,49.142-72.277,79.223-84.175,83.837c-11.903-4.61-84.172-34.638-84.172-83.837v-56.117
			c20.914-2.279,37.572-18.932,39.846-39.846h88.655c2.274,20.914,18.932,37.567,39.846,39.846V166.632z" fill="#707070" class="color242c35 svgShape"></path>
      <path d="m434.859 119.95-39.743 39.745-5.95-5.95c-8.32-8.32-21.859-8.324-30.179 0-8.322 8.32-8.322 21.862 0 30.181l15.182 15.179c11.56 11.565 30.327 11.57 41.892 0l48.977-48.979c8.32-8.32 8.32-21.857 0-30.176C456.716 111.626 443.176 111.635 434.859 119.95zM458.107 143.195l-48.977 48.979c-7.734 7.734-20.293 7.737-28.03 0l-15.182-15.179c-4.497-4.5-4.497-11.819 0-16.318 4.511-4.511 11.809-4.507 16.316 0l9.416 9.416c1.838 1.838 5.093 1.838 6.931 0l43.209-43.211c4.5-4.5 11.816-4.5 16.316 0C462.604 131.381 462.604 138.695 458.107 143.195zM96.454 300.568c-33.151 0-60.123 26.969-60.123 60.123s26.972 60.123 60.123 60.123 60.123-26.969 60.123-60.123S129.605 300.568 96.454 300.568zM96.454 411.011c-27.747 0-50.32-22.575-50.32-50.32s22.572-50.32 50.32-50.32 50.32 22.575 50.32 50.32S124.201 411.011 96.454 411.011z" fill="#707070" class="color242c35 svgShape"></path>
      <path d="M96.454,339.73c4.428,0,8.03,3.604,8.03,8.032c0,2.709,2.195,4.902,4.902,4.902
			s4.902-2.192,4.902-4.902c0-8.125-5.491-14.919-12.932-17.065v-3.375c0-2.709-2.195-4.902-4.902-4.902
			c-2.707,0-4.902,2.192-4.902,4.902v3.375c-7.44,2.146-12.932,8.94-12.932,17.065c0,9.832,8.001,17.831,17.833,17.831
			c4.428,0,8.03,3.604,8.03,8.032s-3.602,8.028-8.03,8.028s-8.03-3.6-8.03-8.028c0-2.709-2.195-4.902-4.902-4.902
			c-2.707,0-4.902,2.192-4.902,4.902c0,8.121,5.491,14.915,12.932,17.06v3.38c0,2.709,2.195,4.902,4.902,4.902
			c2.707,0,4.902-2.192,4.902-4.902v-3.38c7.44-2.145,12.932-8.939,12.932-17.06c0-9.837-8.001-17.836-17.833-17.836
			c-4.428,0-8.03-3.6-8.03-8.028S92.026,339.73,96.454,339.73z" fill="#707070" class="color242c35 svgShape"></path>
    </g>
  </g>
</svg>
