<svg xmlns="http://www.w3.org/2000/svg" enable-background="new 0 0 512 512" viewBox="0 0 512 512" id="6621979">
  <path fill="#ffffff" d="M182.516 106.631c0 24.236-19.642 43.878-43.915 43.878-24.235 0-43.878-19.642-43.878-43.878 0-24.235 19.642-43.915 43.878-43.915C162.874 62.716 182.516 82.396 182.516 106.631zM417.277 106.631c0 24.236-19.642 43.878-43.915 43.878-24.235 0-43.878-19.642-43.878-43.878 0-24.235 19.642-43.915 43.878-43.915C397.634 62.716 417.277 82.396 417.277 106.631zM300.246 57.733c0 24.236-19.642 43.878-43.915 43.878-24.235 0-43.878-19.642-43.878-43.878 0-24.235 19.642-43.915 43.878-43.915C280.604 13.818 300.246 33.497 300.246 57.733z" class="colorffffff svgShape"></path>
  <line x1="138.661" x2="138.661" y1="481.964" y2="394.477" fill="none"></line>
  <path fill="#0966c2" d="M450.627 257.03v96.248c0 10.312-8.437 18.672-18.75 18.672-5.156 0-9.844-2.109-13.203-5.469-3.359-3.359-5.469-8.047-5.469-13.203v18.672l-7.421 110.779c-.391 8.593-7.5 15.468-16.25 15.468-8.828 0-16.093-7.265-16.093-16.25 0 9.141-7.5 16.25-16.25 16.25-8.672 0-15.781-6.875-16.172-15.468l-7.422-110.779v-84.139l-37.421-30.781c0-39.609 32.109-71.717 71.717-71.717h11.016C418.518 185.313 450.627 217.421 450.627 257.03zM215.867 257.03l-37.421 30.781v84.139l-7.421 110.779c-.391 8.593-7.5 15.468-16.25 15.468-8.828 0-16.093-7.265-16.093-16.25 0 9.141-7.5 16.25-16.25 16.25-8.672 0-15.781-6.875-16.172-15.468l-7.422-110.779v-18.672c0 10.312-8.437 18.672-18.749 18.672-5.156 0-9.844-2.109-13.203-5.469-3.359-3.359-5.469-8.047-5.469-13.203V257.03c0-39.609 32.109-71.717 71.717-71.717h11.016C183.758 185.313 215.867 217.421 215.867 257.03z" class="colorcfcfd1 svgShape"></path>
  <line x1="373.421" x2="373.421" y1="481.964" y2="394.477" fill="none"></line>
  <path fill="#818181" d="M216.539,304.341c0,10.33-8.374,18.703-18.703,18.703h0c-10.33,0-18.703-8.374-18.703-18.703
			v-96.207c0-39.609,32.109-71.718,71.718-71.718h11.001c39.609,0,71.718,32.109,71.718,71.718v96.207
			c0,10.33-8.374,18.703-18.703,18.703h0c-10.33,0-18.703-8.374-18.703-18.703" class="colorfdce06 svgShape"></path>
  <path fill="#818181" d="M296.162,225.574v97.471l-7.417,159.654c-0.407,8.639-7.498,15.484-16.218,15.484
			c-8.883,0-16.136-7.253-16.136-16.218c0,9.121-7.452,16.218-16.218,16.218c-8.72,0-15.811-6.845-16.218-15.484l-7.417-159.654
			v-97.471" class="colorfdce06 svgShape"></path>
  <line x1="256.391" x2="256.391" y1="481.964" y2="345.578" fill="#fdce06"></line>
  <path fill="#707070" d="M138.6 158.323c28.526 0 51.73-23.189 51.73-51.692 0-28.522-23.204-51.726-51.73-51.726-28.499 0-51.688 23.204-51.688 51.726C86.912 135.134 110.101 158.323 138.6 158.323zM138.6 70.53c19.908 0 36.105 16.197 36.105 36.101 0 19.889-16.197 36.067-36.105 36.067-19.886 0-36.063-16.178-36.063-36.067C102.536 86.727 118.714 70.53 138.6 70.53zM80.106 379.754c4.026 0 7.804-.971 11.225-2.583l7.089 105.898c.61 12.855 11.158 22.926 24.021 22.926 6.241 0 11.928-2.388 16.204-6.302 4.265 3.914 9.933 6.302 16.151 6.302 12.863 0 23.414-10.071 24.013-22.773l7.435-111.28v-43.866c3.517 1.726 7.418 2.783 11.593 2.783 3.986 0 7.732-.947 11.127-2.53l7.187 154.741c.61 12.855 11.158 22.926 24.021 22.926 6.241 0 11.928-2.388 16.204-6.302 4.265 3.914 9.933 6.302 16.151 6.302 12.863 0 23.414-10.071 24.024-22.933l7.179-154.738c3.397 1.585 7.146 2.535 11.135 2.535 3.895 0 7.567-.893 10.901-2.408l.009 44.013 7.404 110.605c.61 12.855 11.162 22.926 24.024 22.926 6.237 0 11.928-2.388 16.204-6.302 4.261 3.914 9.933 6.302 16.151 6.302 12.863 0 23.41-10.071 24.009-22.773l7.086-106.059c3.425 1.616 7.208 2.592 11.24 2.592 14.621 0 26.519-11.894 26.519-26.515v-96.205c0-43.853-35.678-79.531-79.531-79.531h-11.001c-10.782 0-20.993 2.302-30.371 6.217-10.332-31.938-40.326-55.117-75.659-55.117h-11.001c-35.432 0-65.504 23.303-75.756 55.379-9.54-4.079-19.958-6.479-30.973-6.479h-11.001c-43.853 0-79.531 35.678-79.531 79.531v96.205C53.587 367.86 65.485 379.754 80.106 379.754zM367.881 193.128h11.001c35.239 0 63.906 28.667 63.906 63.906v96.205c0 6.004-4.887 10.891-10.895 10.891-6.004 0-10.891-4.887-10.891-10.891V274.47c0-4.314-3.498-7.812-7.812-7.812s-7.812 3.498-7.812 7.812l.015 78.691c0 .027-.015.05-.015.077 0 .052.015.101.016.154l.003 18.027-7.427 110.91c-.214 4.509-3.906 8.041-8.411 8.041-4.593 0-8.327-3.773-8.327-8.407v-87.484c0-4.314-3.498-7.812-7.812-7.812s-7.812 3.498-7.812 7.812v87.484c0 4.635-3.769 8.407-8.404 8.407-4.505 0-8.201-3.532-8.426-8.194l-7.397-110.235c0-59.202 0-105.702 0-163.807 0-2.991-.198-5.933-.522-8.839C349.081 195.409 358.197 193.128 367.881 193.128zM186.942 208.134c0-35.239 28.667-63.906 63.906-63.906h11.001c35.239 0 63.906 28.667 63.906 63.906v96.208c0 6.004-4.887 10.891-10.891 10.891-6.004 0-10.891-4.887-10.891-10.891v-78.768c0-4.314-3.498-7.812-7.812-7.812s-7.812 3.498-7.812 7.812l.006 78.737c0 .011-.006.02-.006.031 0 .021.006.04.006.061l.001 18.28-7.416 159.645c-.214 4.509-3.91 8.041-8.415 8.041-4.589 0-8.323-3.773-8.323-8.407V345.579c0-4.314-3.498-7.812-7.812-7.812-4.314 0-7.812 3.498-7.812 7.812v136.384c0 4.635-3.773 8.407-8.407 8.407-4.505 0-8.198-3.532-8.411-8.034l-7.408-159.291v-97.471c0-4.314-3.498-7.812-7.812-7.812s-7.812 3.498-7.812 7.812l.006 78.737c0 .011-.006.02-.006.031 0 6.004-4.887 10.891-10.891 10.891-6.008 0-10.895-4.887-10.895-10.891V208.134zM69.212 257.034c0-35.239 28.667-63.906 63.906-63.906h11.001c9.926 0 19.303 2.322 27.686 6.385-.307 2.835-.488 5.707-.488 8.622-.213 30.792-.562 116.001-.679 163.284l-7.427 110.91c-.214 4.509-3.91 8.041-8.415 8.041-4.589 0-8.323-3.773-8.323-8.407v-87.484c0-4.314-3.498-7.812-7.812-7.812-4.314 0-7.812 3.498-7.812 7.812v87.484c0 4.635-3.773 8.407-8.407 8.407-4.505 0-8.198-3.532-8.423-8.194l-7.397-110.235V274.47c0-4.314-3.498-7.812-7.812-7.812-4.314 0-7.812 3.498-7.812 7.812l.015 78.692c0 .027-.015.049-.015.076 0 6.004-4.887 10.891-10.891 10.891-6.008 0-10.895-4.887-10.895-10.891V257.034zM373.362 158.323c28.522 0 51.726-23.189 51.726-51.692 0-28.522-23.204-51.726-51.726-51.726-28.503 0-51.692 23.204-51.692 51.726C321.67 135.134 344.859 158.323 373.362 158.323zM373.362 70.53c19.905 0 36.102 16.197 36.102 36.101 0 19.889-16.197 36.067-36.102 36.067-19.889 0-36.067-16.178-36.067-36.067C337.295 86.727 353.473 70.53 373.362 70.53zM256.33 109.424c28.526 0 51.73-23.189 51.73-51.692 0-28.522-23.204-51.726-51.73-51.726-28.499 0-51.688 23.204-51.688 51.726C204.642 86.235 227.831 109.424 256.33 109.424zM256.33 21.63c19.908 0 36.105 16.197 36.105 36.101 0 19.889-16.197 36.067-36.105 36.067-19.886 0-36.063-16.178-36.063-36.067C220.267 37.827 236.444 21.63 256.33 21.63z" class="color3e3e3e svgShape"></path>
</svg>
