<svg xmlns="http://www.w3.org/2000/svg" xml:space="preserve" viewBox="0 0 512 512" enable-background="new 0 0 512 512" id="11962845">
  <g id="_x33_5_Ceo" fill="#0966c2" class="color000000 svgShape">
    <g fill="#0966c2" class="color000000 svgShape">
      <g fill="#0966c2" class="color000000 svgShape">
        <path d="M122.443,203.564l-23.517-37.708c-7.91-12.683-11.637-27.556-10.539-42.463
				c3.127-42.448,23.619-69.105,71.695-70.68v0c0-13.615,11.037-24.653,24.653-24.653h57.352c54.839,0,99.295,44.456,99.295,99.295
				v0c0,17.386-3.298,34.614-9.719,50.77l-8.477,21.328L122.443,203.564z" fill="#707070" class="color576066 svgShape"></path>
      </g>
      <g fill="#0966c2" class="color000000 svgShape">
        <path d="M132.569,194.696v53.282h-19.534c-10.391,0-18.815-8.424-18.815-18.815v-15.652
				c0-10.391,8.424-18.815,18.815-18.815H132.569z" fill="#ffffff" class="colorffffff svgShape"></path>
      </g>
      <g fill="#0966c2" class="color000000 svgShape">
        <path d="M299.267,194.696v53.282h19.534c10.391,0,18.815-8.424,18.815-18.815v-15.652
				c0-10.391-8.424-18.815-18.815-18.815H299.267z" fill="#ffffff" class="colorffffff svgShape"></path>
      </g>
      <g fill="#0966c2" class="color000000 svgShape">
        <path d="M417.101,446.568v2.984c0,18.991-15.395,34.386-34.386,34.386H45.306
				c-18.991,0-34.386-15.395-34.386-34.386v-2.984c0-48.95,39.682-88.632,88.632-88.632h228.917
				C377.419,357.937,417.101,397.618,417.101,446.568z" fill="#707070" class="color576066 svgShape"></path>
      </g>
      <g fill="#0966c2" class="color000000 svgShape">
        <polygon points="258.815 394.328 258.815 368.502 289.142 368.502 289.142 292.196 138.878 292.196 138.878 360.089 170.77 360.089 170.77 394.328" fill="#ffffff" class="colorffffff svgShape"></polygon>
      </g>
      <g fill="#0966c2" class="color000000 svgShape">
        <path d="M309.392,165.95v70.706c0,51.734-41.435,94.701-93.168,94.867
				c-25.932,0.083-49.414-10.4-66.405-27.375c-16.908-16.924-27.376-40.289-27.376-66.099v-83.594
				c26.238-1.148,39.925-14.179,42.262-37.957c2.05,2.403,4.12,4.679,6.215,6.778c8.476,8.492,20.032,13.179,32.029,13.179h76.947
				C296.187,136.454,309.392,149.66,309.392,165.95z" fill="#ffffff" class="colorffffff svgShape"></path>
      </g>
      <g fill="#0966c2" class="color000000 svgShape">
        <path d="M156.487,78.149c-2.739,12.783,0,25.566,8.218,38.348" fill="#ffffff" class="colorffffff svgShape"></path>
      </g>
      <g fill="#0966c2" class="color000000 svgShape">
        <polygon points="242.698 394.328 233.465 424.264 194.555 424.264 185.322 394.328" fill="#ffffff" class="colorffffff svgShape"></polygon>
      </g>
      <g fill="#0966c2" class="color000000 svgShape">
        <polygon points="180.358 483.939 247.663 483.939 233.465 424.264 194.555 424.264" fill="#ffffff" class="colorffffff svgShape"></polygon>
      </g>
      <g fill="#0966c2" class="color000000 svgShape">
        <path d="M174.283,427.343l39.728-33.015l-75.279-71.023l-16.582,34.631l31.389,64.909
				C157.35,430.728,167.549,432.939,174.283,427.343z" fill="#d9dee3" class="colord9dde3 svgShape"></path>
      </g>
      <g opacity=".3" fill="#0966c2" class="color000000 svgShape">
        <g fill="#0966c2" class="color000000 svgShape">
          <path d="M214.025,394.335l-13.48,11.176l-42.498-40.048c-8.284-7.843-21.862-5.343-26.812,5l-1.52,3.137
					l-7.549-15.686l16.568-34.606L214.025,394.335z" fill="#ffffff" class="colorffffff svgShape"></path>
        </g>
      </g>
      <g fill="#0966c2" class="color000000 svgShape">
        <path d="M253.738,427.343l-39.728-33.015l75.278-71.023l16.582,34.631l-31.389,64.909
				C270.67,430.728,260.472,432.939,253.738,427.343z" fill="#d9dee3" class="colord9dde3 svgShape"></path>
      </g>
      <g opacity=".3" fill="#0966c2" class="color000000 svgShape">
        <g fill="#0966c2" class="color000000 svgShape">
          <path d="M305.883,357.914l-7.353,15.195c-0.147-0.392-0.294-0.784-0.49-1.176l-1.176-2.451
					c-5.637-11.764-21.127-14.656-30.636-5.686l-40.194,37.94c-0.49,0.441-0.931,0.931-1.372,1.421l-10.637-8.823l75.242-71.026
					L305.883,357.914z" fill="#ffffff" class="colorffffff svgShape"></path>
        </g>
      </g>
      <g fill="#0966c2" class="color000000 svgShape">
        <path d="M501.082,118.799v89.833c0,21.831-17.682,39.513-39.513,39.513h-77.137
				c-12.594,25.43-32.072,42.372-57.69,51.745c9.975-18.259,12.678-35.653,4.428-51.745h-13.037
				c-21.831,0-39.513-17.682-39.513-39.513v-89.833c0-21.831,17.682-39.513,39.513-39.513h143.436
				C483.4,79.286,501.082,96.968,501.082,118.799z" fill="#ccdff2" class="colord9f2cc svgShape"></path>
      </g>
      <g opacity=".3" fill="#0966c2" class="color000000 svgShape">
        <g fill="#0966c2" class="color000000 svgShape">
          <path d="M501.096,118.81v15.75c-20.822-17.052-47.451-27.263-76.449-27.263
					c-66.772,0-120.93,54.158-120.93,120.93c0,6.006,0.434,11.913,1.301,17.686c-15.383-5.406-26.395-20.055-26.395-37.273v-89.83
					c0-21.857,17.686-39.509,39.509-39.509h143.421C483.41,79.301,501.096,96.954,501.096,118.81z" fill="#ffffff" class="colorffffff svgShape"></path>
        </g>
      </g>
      <path d="M201.245 217.339c-1.915-1.915-5.017-1.915-6.931 0-6.486 6.486-17.022 6.477-23.499 0-1.915-1.915-5.017-1.915-6.931 0s-1.915 5.017 0 6.931c10.302 10.302 27.061 10.301 37.362 0C203.16 222.355 203.16 219.254 201.245 217.339zM261.019 217.339c-6.481 6.477-17.017 6.486-23.499 0-1.915-1.915-5.017-1.915-6.931 0-1.915 1.915-1.915 5.017 0 6.931 10.301 10.301 27.059 10.302 37.362 0 1.915-1.915 1.915-5.017 0-6.931C266.036 215.424 262.934 215.424 261.019 217.339zM227.669 281.43c-6.481 6.471-16.997 6.501-23.499 0-1.915-1.915-5.017-1.915-6.931 0-1.915 1.915-1.915 5.017 0 6.931 10.307 10.317 27.045 10.317 37.362 0 1.915-1.915 1.915-5.017 0-6.931C232.686 279.516 229.584 279.516 227.669 281.43z" fill="#2c2c2c" class="color242c35 svgShape"></path>
      <path d="M461.57,74.384H331.657c-18.163-30.613-51.467-51.224-89.57-51.224h-57.352
			c-14.7,0-26.931,10.79-29.186,24.873c-44.36,2.939-68.596,28.152-72.052,75.001c-1.178,16.003,2.719,31.708,11.268,45.418
			l13.607,21.816c-10.852,2.172-19.054,11.761-19.054,23.243v15.653c0,13.078,10.636,23.719,23.714,23.719h5.734
			c2.144,14.224,7.247,27.72,15.209,39.646v29.362l-14.913,31.147H99.553c-51.574,0-93.535,41.957-93.535,93.531v2.987
			c0,21.661,17.625,39.286,39.286,39.286c33.311,0,300.497,0,337.412,0c21.661,0,39.286-17.625,39.286-39.286v-2.987
			c0-51.574-41.957-93.531-93.531-93.531h-19.509l-14.918-31.157v-24.776c9.607-12.747,16.175-27.918,18.827-44.401
			c1.728,0.205,3.477,0.341,5.26,0.341h9.928c5.5,12.944,3.648,27.534-5.62,44.494c-0.977,1.79-0.742,4.002,0.589,5.548
			c1.338,1.554,3.496,2.102,5.4,1.407c26.246-9.607,46.083-26.907,59.008-51.449h74.134c24.49,0,44.413-19.923,44.413-44.413v-89.83
			C505.982,94.311,486.059,74.384,461.57,74.384z M113.033,243.078c-7.669,0-13.911-6.242-13.911-13.915v-15.653
			c0-7.669,6.242-13.911,13.911-13.911h4.509v38.448c0,1.691,0.161,3.354,0.245,5.031H113.033z M117.542,154.454v31.985
			l-14.456-23.177c-7.444-11.934-10.833-25.595-9.813-39.511c3.226-43.733,24.509-64.747,66.973-66.14
			c2.642-0.086,4.739-2.255,4.739-4.897c0-10.89,8.86-19.751,19.751-19.751h57.352c32.411,0,61.005,16.46,78.006,41.421h-1.961
			c-24.49,0-44.413,19.928-44.413,44.417v12.752h-70.769c-10.703,0-21.11-4.279-28.558-11.737c-1.842-1.847-3.717-3.895-5.709-6.218
			c-7.433-11.667-9.864-22.93-7.402-34.418c0.57-2.647-1.115-5.256-3.762-5.821c-2.666-0.584-5.256,1.12-5.821,3.762
			c-2.884,13.465-0.191,27.025,7.895,40.338c-2.553,20.832-14.41,31.097-37.363,32.097
			C119.61,149.672,117.542,151.83,117.542,154.454z M140.256,331.482l66.365,62.612l-35.471,29.478
			c-0.005,0-0.005,0.005-0.005,0.005c-4.321,3.591-10.794,2.11-13.193-2.867l-30.363-62.78L140.256,331.482z M214.012,400.702
			l17.186,14.283l-1.351,4.379h-31.675l-1.35-4.378L214.012,400.702z M15.821,449.555v-2.987c0-46.169,37.563-83.727,83.732-83.727
			h19.523l30.05,62.138c5.205,10.772,19.119,13.753,28.286,6.137l11.242-9.342l0.821,2.664l-12.99,54.599H45.303
			C29.047,479.037,15.821,465.811,15.821,449.555z M186.559,479.037l11.867-49.87h31.167l11.867,49.87H186.559z M412.198,446.568
			v2.987c0,16.256-13.226,29.482-29.482,29.482H251.535l-12.99-54.598l0.822-2.665l11.241,9.342
			c9.19,7.625,23.088,4.62,28.286-6.137l30.054-62.138h19.524C374.64,362.841,412.198,400.398,412.198,446.568z M270.066,420.709
			c-2.399,4.976-8.86,6.46-13.197,2.863l-35.466-29.478l66.365-62.612l12.666,26.447L270.066,420.709z M284.24,321.329
			l-70.228,66.258l-70.233-66.263v-16.552c37.854,40.901,100.907,42.324,140.461,3.409V321.329z M216.209,326.623
			c-48.005,0.438-88.863-38.768-88.863-88.576v-79.036c21.594-2.221,35.385-13.15,40.439-31.938
			c9.248,9.081,22.039,14.284,35.164,14.284h70.769v67.275c0,19.3,12.395,35.717,29.626,41.828
			C296.778,293.389,260.257,326.48,216.209,326.623z M496.179,208.632c0,19.085-15.524,34.609-34.609,34.609h-77.136
			c-1.862,0-3.566,1.058-4.394,2.729c-9.823,19.837-24.413,34.71-43.47,44.336c6.108-16.227,5.768-31.115-1.039-44.398
			c-0.838-1.637-2.523-2.666-4.361-2.666h-13.039c-19.085,0-34.609-15.524-34.609-34.609v-89.83
			c0-19.085,15.524-34.614,34.609-34.614H461.57c19.085,0,34.609,15.529,34.609,34.614V208.632z" fill="#2c2c2c" class="color242c35 svgShape"></path>
      <path d="M333.09 134.794c8.951 0 16.237 7.286 16.237 16.237 0 2.709 2.192 4.902 4.902 4.902s4.902-2.192 4.902-4.902c0-14.361-11.68-26.041-26.041-26.041s-26.041 11.68-26.041 26.041v30.109c0 14.361 11.68 26.041 26.041 26.041s26.041-11.68 26.041-26.041c0-2.709-2.192-4.902-4.902-4.902s-4.902 2.192-4.902 4.902c0 8.951-7.286 16.237-16.237 16.237s-16.237-7.286-16.237-16.237v-30.109C316.853 142.08 324.139 134.794 333.09 134.794zM446.611 124.99c-14.361 0-26.041 11.68-26.041 26.041v30.109c0 14.361 11.68 26.041 26.041 26.041 14.361 0 26.041-11.68 26.041-26.041v-30.109C472.651 136.67 460.971 124.99 446.611 124.99zM462.848 181.141c0 8.951-7.286 16.237-16.237 16.237s-16.237-7.286-16.237-16.237v-30.109c0-8.951 7.286-16.237 16.237-16.237s16.237 7.286 16.237 16.237V181.141zM407.66 138.274c2.709 0 4.902-2.192 4.902-4.902 0-2.709-2.192-4.902-4.902-4.902h-35.619c-2.709 0-4.902 2.192-4.902 4.902v65.427c0 2.709 2.192 4.902 4.902 4.902h35.619c2.709 0 4.902-2.192 4.902-4.902s-2.192-4.902-4.902-4.902h-30.717v-22.91h30.717c2.709 0 4.902-2.192 4.902-4.902 0-2.709-2.192-4.902-4.902-4.902h-30.717v-22.91H407.66z" fill="#2c2c2c" class="color242c35 svgShape"></path>
    </g>
  </g>
</svg>
