<svg xmlns="http://www.w3.org/2000/svg" xml:space="preserve" viewBox="0 0 512 512" enable-background="new 0 0 512 512" id="11962818">
  <g id="_x30_8_Cfo" fill="#0966c2" class="color000000 svgShape">
    <g fill="#0966c2" class="color000000 svgShape">
      <g fill="#0966c2" class="color000000 svgShape">
        <path d="M253.095,116.125v57.968h-167.4v-57.968c0-29.46,23.882-53.342,53.342-53.342h60.715
				C229.213,62.782,253.095,86.664,253.095,116.125z" fill="#707070" class="color576066 svgShape"></path>
      </g>
      <g fill="#0966c2" class="color000000 svgShape">
        <path d="M117.724,154.216v53.776H89.969c-11.257,0-20.383-9.126-20.383-20.383v-13.01
				c0-11.257,9.126-20.383,20.383-20.383H117.724z" fill="#ffffff" class="colorffffff svgShape"></path>
      </g>
      <g fill="#0966c2" class="color000000 svgShape">
        <path d="M224.246,154.216v53.776h27.755c11.257,0,20.383-9.126,20.383-20.383v-13.01
				c0-11.257-9.126-20.383-20.383-20.383H224.246z" fill="#ffffff" class="colorffffff svgShape"></path>
      </g>
      <g fill="#0966c2" class="color000000 svgShape">
        <path d="M331.057,379.673v75.503c0,8.602-6.973,15.575-15.575,15.575H26.487
				c-8.602,0-15.575-6.973-15.575-15.575v-75.503c0-19.151,12.019-36.214,30.033-42.659l65.006-23.298l33.256-11.913l31.777-11.385
				l31.777,11.385l33.256,11.913l65.006,23.298C319.039,343.459,331.057,360.522,331.057,379.673z" fill="#707070" class="color576066 svgShape"></path>
      </g>
      <g fill="#0966c2" class="color000000 svgShape">
        <rect width="65.033" height="77.976" x="138.469" y="266.619" fill="#ffffff" class="colorffffff svgShape"></rect>
      </g>
      <g fill="#0966c2" class="color000000 svgShape">
        <path d="M70.504,433.664v37.086H26.487c-8.602,0-15.575-6.973-15.575-15.575v-21.511H70.504z" fill="#ffffff" class="colorffffff svgShape"></path>
      </g>
      <g fill="#0966c2" class="color000000 svgShape">
        <path d="M271.466,402.918v30.747v37.086h44.017c8.602,0,15.575-6.973,15.575-15.575v-21.511v-30.747" fill="#ffffff" class="colorffffff svgShape"></path>
      </g>
      <g fill="#0966c2" class="color000000 svgShape">
        <path d="M331.057,433.664v21.511c0,8.602-6.973,15.575-15.575,15.575h-44.017v-37.086H331.057z" fill="#ffffff" class="colorffffff svgShape"></path>
      </g>
      <g fill="#0966c2" class="color000000 svgShape">
        <polygon points="207.341 336.089 185.815 386.557 156.156 386.557 134.629 336.089" fill="#d9dee3" class="colord9dde3 svgShape"></polygon>
      </g>
      <g opacity=".3" fill="#0966c2" class="color000000 svgShape">
        <g fill="#0966c2" class="color000000 svgShape">
          <path d="M207.332,336.073l-7.881,18.432h-24.16c-8.441,0-14.125,8.613-10.809,16.365l6.675,15.676
					h-14.987l-21.533-50.472H207.332z" fill="#ffffff" class="colorffffff svgShape"></path>
        </g>
      </g>
      <g fill="#0966c2" class="color000000 svgShape">
        <polygon points="143 470.75 198.97 470.75 185.815 386.557 156.156 386.557" fill="#d9dee3" class="colord9dde3 svgShape"></polygon>
      </g>
      <g opacity=".3" fill="#0966c2" class="color000000 svgShape">
        <g fill="#0966c2" class="color000000 svgShape">
          <path d="M188.168,401.575c-2.196-1.077-4.694-1.636-7.321-1.636c-4.264,0-8.182,1.551-11.24,4.177
					c-3.057,2.584-5.211,6.244-5.857,10.465l-7.752,49.525c-0.345,2.282-0.258,4.522,0.258,6.632h-13.264l13.178-84.192H185.8
					L188.168,401.575z" fill="#ffffff" class="colorffffff svgShape"></path>
        </g>
      </g>
      <g fill="#0966c2" class="color000000 svgShape">
        <path d="M244.132,166.407v46.717c0,40.398-32.749,73.147-73.147,73.147h0
				c-40.398,0-73.147-32.749-73.147-73.147v-46.717c0-6.879,5.577-12.456,12.456-12.456l26.274,0c4.95,0,9.859-1.026,14.382-3.039
				c17.9-7.967,30.067-22.02,36.225-42.449c2.985,13.585,8.423,25.12,16.733,34.257c6.594,7.25,16.053,11.231,25.853,11.231h1.914
				C238.555,153.951,244.132,159.528,244.132,166.407z" fill="#ffffff" class="colorffffff svgShape"></path>
      </g>
      <g fill="#0966c2" class="color000000 svgShape">
        <path d="M170.985,337.172l-25.781,23.667l-4.31,3.96c-3.363,3.09-8.752,2.081-10.77-2.016l-24.172-49.067
				l33.256-11.913l30.799,34.286L170.985,337.172z" fill="#d9dee3" class="colord9dde3 svgShape"></path>
      </g>
      <g opacity=".3" fill="#0966c2" class="color000000 svgShape">
        <g fill="#0966c2" class="color000000 svgShape">
          <path d="M133.605,336.891l11.714,23.815l-0.129,0.129l-4.307,3.962
					c-3.359,3.101-8.742,2.067-10.766-2.024l-24.159-49.051l33.246-11.929l11.154,12.446l-8.914,3.187
					C133.562,320.268,129.858,329.355,133.605,336.891z" fill="#ffffff" class="colorffffff svgShape"></path>
        </g>
      </g>
      <g fill="#0966c2" class="color000000 svgShape">
        <path d="M236.018,313.716l-24.172,49.067c-2.018,4.097-7.407,5.106-10.77,2.016l-4.31-3.96l-25.781-23.667
				l0.977-1.083l30.799-34.286L236.018,313.716z" fill="#d9dee3" class="colord9dde3 svgShape"></path>
      </g>
      <g opacity=".3" fill="#0966c2" class="color000000 svgShape">
        <g fill="#0966c2" class="color000000 svgShape">
          <path d="M236.014,313.722l-24.16,49.051c-2.024,4.091-7.407,5.125-10.766,2.024l-3.101-2.885
					l11.068-22.437c4.952-10.12,0.043-22.308-10.551-26.097l-4.651-1.68l8.914-9.905L236.014,313.722z" fill="#ffffff" class="colorffffff svgShape"></path>
        </g>
      </g>
      <g fill="#0966c2" class="color000000 svgShape">
        <path d="M300.653,310.617h85.213c51.589,61.582,62.427,109.984,39.928,147.602
				c-4.679,7.823-13.206,12.532-22.321,12.532H283.088c-8.952,0-17.323-4.559-22.081-12.142
				C238.017,421.965,255.007,371.312,300.653,310.617z" fill="#aeaeae" class="colorf66866 svgShape"></path>
      </g>
      <g opacity=".3" fill="#0966c2" class="color000000 svgShape">
        <g fill="#0966c2" class="color000000 svgShape">
          <path d="M402.8,332.45h-11.535c-55.116,0-104.392,37.596-115.733,91.505
					c-3.571,17.037-2.799,32.577,2.896,46.38c-7.143-1.255-13.465-5.502-17.423-11.728c-22.973-36.631-5.984-87.307,39.672-147.973
					h85.183C392.134,318.116,397.781,325.355,402.8,332.45z" fill="#ffffff" class="colorffffff svgShape"></path>
        </g>
      </g>
      <g fill="#0966c2" class="color000000 svgShape">
        <path d="M382.641,285.232h-78.763c-7.01,0-12.693,5.683-12.693,12.693v0
				c0,7.01,5.683,12.693,12.693,12.693h78.763c7.01,0,12.693-5.683,12.693-12.693v0
				C395.333,290.914,389.651,285.232,382.641,285.232z" fill="#ffffff" class="colorffffff svgShape"></path>
      </g>
      <g fill="#0966c2" class="color000000 svgShape">
        <path d="M303.918,247.653c25.974,4.722,52.211,4.756,78.719-0.043c6.983-1.264,12.613,5.701,10.006,12.301
				l-10.002,25.321h-78.763l-9.988-25.286C291.279,253.336,296.926,246.381,303.918,247.653z" fill="#aeaeae" class="colorf66866 svgShape"></path>
      </g>
      <g opacity=".3" fill="#0966c2" class="color000000 svgShape">
        <g fill="#0966c2" class="color000000 svgShape">
          <path d="M392.665,259.911l-1.979,5.019c-3.282-1.737-7.046-2.509-11.149-2.124
					c-14.286,1.448-28.523,1.448-42.664,0.048c-12.5-1.255-22.394,8.832-22.394,20.367c0,0.676,0.048,1.351,0.097,2.027h-10.714
					l-9.99-25.289c-2.606-6.612,3.041-13.562,10.039-12.307c25.965,4.73,52.22,4.778,78.716-0.048
					C389.625,246.35,395.271,253.3,392.665,259.911z" fill="#ffffff" class="colorffffff svgShape"></path>
        </g>
      </g>
      <g fill="#0966c2" class="color000000 svgShape">
        <path d="M501.088,68.152v57.369c0,14.867-12.036,26.903-26.903,26.903h-89.934l-52.964,36.652
				l1.752-36.652h-22.647c-14.867,0-26.903-12.036-26.903-26.903V68.152c0-14.867,12.036-26.903,26.903-26.903h163.793
				C489.052,41.25,501.088,53.286,501.088,68.152z" fill="#ccdff2" class="colord9f2cc svgShape"></path>
      </g>
      <g opacity=".3" fill="#0966c2" class="color000000 svgShape">
        <g fill="#0966c2" class="color000000 svgShape">
          <path d="M501.079,68.165v56.028c-22.437-32.902-60.248-54.477-103.098-54.477
					c-48.663,0-90.824,27.82-111.366,68.474c-1.981-3.747-3.144-8.053-3.144-12.661V68.165c0-14.901,12.058-26.916,26.916-26.916
					h163.82C489.064,41.25,501.079,53.265,501.079,68.165z" fill="#ffffff" class="colorffffff svgShape"></path>
        </g>
      </g>
      <path d="M26.486,475.653c348.595,0,28.501,0,376.988,0c10.857,0,21.019-5.716,26.529-14.918
			c23.732-39.682,11.279-89.754-36.799-148.833c4.242-3.216,7.029-8.258,7.029-13.979c0-7.335-4.52-13.623-10.915-16.26l7.88-19.95
			c1.872-4.729,1.024-10.11-2.202-14.047c-3.255-3.968-8.224-5.806-13.231-4.88c-25.667,4.646-51.564,4.665-76.973,0.043
			c-5.017-0.914-9.995,0.907-13.255,4.875c-3.279,3.992-4.102,9.241-2.207,14.045l7.868,19.914
			c-6.397,2.637-10.918,8.924-10.918,16.26c0,5.82,2.875,10.95,7.243,14.155c-3.39,4.612-6.591,9.141-9.617,13.595
			c-72.63-26.025,47.637,17.069-75.406-27.02l-0.098-0.035V281.59c24.19-13.273,40.631-38.981,40.631-68.466v-0.23h2.968
			c13.944,0,25.284-11.342,25.284-25.284v-13.011c0-11.867-8.246-21.78-19.291-24.489v-33.985c0-32.115-26.127-58.244-58.242-58.244
			h-60.717c-32.115,0-58.244,26.129-58.244,58.244v34.976c-9.407,3.687-16.11,12.801-16.11,23.498v13.011
			c0,13.942,11.342,25.284,25.287,25.284h2.965v0.23c0,29.484,16.442,55.192,40.631,68.466v17.027
			c-162.709,58.305-56.988,20.421-94.273,33.782C19.385,339.521,6.01,358.52,6.01,379.674c0,42.974,0,33.179,0,75.503
			C6.01,466.467,15.196,475.653,26.486,475.653z M26.486,465.849c-5.885,0-10.672-4.787-10.672-10.672v-16.61h49.788v27.283H26.486z
			 M148.729,465.849l11.623-74.39h21.27l11.623,74.39H148.729z M137.264,307.707l0.498-0.178l26.335,29.315l-26.517,24.344
			c-0.627,0.577-1.319,0.55-1.675,0.481c-0.357-0.067-1.01-0.292-1.383-1.051l-21.743-44.137L137.264,307.707z M170.986,343.827
			l19.924,18.295l-8.331,19.534h-23.185l-8.333-19.537L170.986,343.827z M204.206,307.528l7.314,2.619l17.672,6.332l-21.741,44.135
			c-0.378,0.761-1.029,0.986-1.388,1.053c-0.349,0.072-1.044,0.101-1.671-0.479l-26.519-24.348L204.206,307.528z M299.115,253.925
			c0.469-0.565,1.776-1.841,3.925-1.45c26.567,4.828,53.642,4.818,80.467-0.043c2.135-0.373,3.442,0.881,3.906,1.45
			c0.474,0.579,1.489,2.149,0.67,4.229l-8.779,22.218H307.21l-8.76-22.182C297.627,256.069,298.641,254.502,299.115,253.925z
			 M303.878,290.133h78.763c4.294,0,7.788,3.494,7.788,7.791c0,4.296-3.494,7.791-7.788,7.791h-78.763
			c-4.299,0-7.793-3.494-7.793-7.791C296.085,293.627,299.58,290.133,303.878,290.133z M382.641,315.518h0.929
			c46.954,56.696,59.75,103.854,38.017,140.184c-3.743,6.259-10.684,10.148-18.114,10.148H283.089
			c-7.357,0-14.059-3.681-17.932-9.844c-20.507-32.687-8.099-78.651,37.95-140.488h0.771H382.641z M256.857,461.216
			c1.061,1.692,2.309,3.209,3.639,4.634h-57.33l-12.29-78.661l7.733-18.13c2.613,2,5.853,2.887,9.259,2.246
			c3.672-0.687,6.721-3.001,8.377-6.355l22.239-45.14l39.835,14.274C243.936,387.62,236.896,429.401,256.857,461.216z
			 M267.484,174.599v13.011c0,8.535-6.946,15.481-15.481,15.481h-2.968v-36.684c0-2.611-0.621-5.065-1.659-7.288h4.627
			C260.538,159.118,267.484,166.064,267.484,174.599z M139.038,67.684h60.717c26.711,0,48.438,21.73,48.438,48.441v33.19
			c-1.927-0.033-19.615-0.299-18.429-0.266c-8.564,0-16.663-3.509-22.23-9.629c-7.468-8.212-12.704-18.98-15.572-32.01
			c-0.479-2.18-2.37-3.76-4.6-3.846c-2.192-0.105-4.236,1.35-4.878,3.485c-5.73,19.013-16.697,31.895-33.527,39.384
			c-3.844,1.711-8.128,2.616-12.388,2.616c-11.493,0.065-45.424,0.258-45.971,0.266v-33.19
			C90.597,89.414,112.327,67.684,139.038,67.684z M89.97,203.091c-8.537,0-15.483-6.946-15.483-15.481v-13.011
			c0-8.535,6.946-15.481,15.483-15.481h4.624c-1.037,2.223-1.659,4.677-1.659,7.288v36.684H89.97z M102.739,213.124v-46.717
			c0-4.165,3.389-7.554,7.556-7.554h26.273c5.704,0,11.213-1.166,16.376-3.463c15.012-6.68,26.266-17.415,33.589-32.005
			c3.384,8.717,7.984,16.295,13.748,22.632c7.42,8.157,18.166,12.836,29.482,12.836h1.915c4.165,0,7.554,3.389,7.554,7.554v46.717
			c0,37.632-30.617,68.246-68.246,68.246C133.353,281.37,102.739,250.756,102.739,213.124z M198.601,286.034v13.062l-27.615,30.741
			l-27.615-30.738v-13.066C161.074,292.764,180.251,293.009,198.601,286.034z M15.814,379.674c0-17.025,10.763-32.314,26.785-38.046
			l60.892-21.819l22.237,45.141c1.649,3.351,4.701,5.668,8.372,6.355c3.393,0.639,6.638-0.237,9.26-2.248l7.736,18.137
			l-12.289,78.657H75.406c0-22.068,0-40.87,0-62.931c0-2.707-2.195-4.902-4.902-4.902c-2.707,0-4.902,2.195-4.902,4.902v25.844
			H15.814C15.814,411.266,15.814,396.738,15.814,379.674z" fill="#2c2c2c" class="color242c35 svgShape"></path>
      <path d="M144.313 192.986c-3.983 3.983-10.466 3.983-14.449 0-1.915-1.915-5.017-1.915-6.931 0-1.915 1.915-1.915 5.017 0 6.931 7.799 7.804 20.504 7.808 28.312 0 1.915-1.912 1.915-5.017 0-6.931S146.227 191.071 144.313 192.986zM219.036 199.917c1.915-1.915 1.915-5.019 0-6.931-1.915-1.915-5.017-1.915-6.931 0-3.858 3.858-10.589 3.858-14.447 0-1.915-1.915-5.017-1.915-6.931 0s-1.915 5.019 0 6.931C198.549 207.74 211.21 207.743 219.036 199.917zM185.14 243.298c1.915-1.915 1.915-5.019 0-6.931-1.915-1.915-5.017-1.915-6.931 0-3.858 3.858-10.589 3.858-14.447 0-1.915-1.915-5.017-1.915-6.931 0s-1.915 5.017 0 6.931C164.654 251.122 177.314 251.124 185.14 243.298zM343.858 429.469c-9.339 0-16.941-7.602-16.941-16.943 0-2.707-2.192-4.902-4.902-4.902-2.709 0-4.902 2.195-4.902 4.902 0 13.072 9.431 23.965 21.842 26.276v8.252c0 2.707 2.192 4.902 4.902 4.902 2.709 0 4.902-2.195 4.902-4.902v-8.252c12.412-2.311 21.842-13.204 21.842-26.276 0-14.746-11.996-26.744-26.744-26.744-9.339 0-16.941-7.599-16.941-16.941s7.602-16.943 16.941-16.943c9.339 0 16.941 7.602 16.941 16.943 0 2.707 2.192 4.902 4.902 4.902s4.902-2.195 4.902-4.902c0-13.072-9.431-23.965-21.842-26.276v-8.252c0-2.707-2.192-4.902-4.902-4.902-2.709 0-4.902 2.195-4.902 4.902v8.252c-12.412 2.311-21.842 13.204-21.842 26.276 0 14.746 11.996 26.744 26.744 26.744 9.339 0 16.941 7.599 16.941 16.941C360.799 421.867 353.197 429.469 343.858 429.469zM505.99 68.151c0-17.537-14.265-31.804-31.804-31.804H310.393c-17.539 0-31.804 14.267-31.804 31.804v57.371c0 17.537 14.265 31.804 31.804 31.804h17.506l-1.508 31.517c-.086 1.864.886 3.616 2.518 4.521 1.631.905 3.636.805 5.17-.256l51.703-35.782h88.404c17.539 0 31.804-14.267 31.804-31.804V68.151zM496.186 125.522c0 12.13-9.871 22-22 22H384.25c-.996 0-1.972.304-2.791.871l-44.8 31.007 1.278-26.742c.062-1.34-.426-2.647-1.35-3.616-.924-.972-2.207-1.52-3.547-1.52h-22.647c-12.13 0-22-9.871-22-22V68.151c0-12.13 9.871-22 22-22h163.792c12.13 0 22 9.871 22 22V125.522z" fill="#2c2c2c" class="color242c35 svgShape"></path>
      <path d="M332.853 68.481c7.582 0 13.748 6.165 13.748 13.746 0 2.707 2.192 4.902 4.902 4.902 2.709 0 4.902-2.195 4.902-4.902 0-12.984-10.565-23.549-23.551-23.549-12.982 0-23.547 10.565-23.547 23.549v29.219c0 12.984 10.565 23.549 23.547 23.549 12.987 0 23.551-10.565 23.551-23.549 0-2.707-2.192-4.902-4.902-4.902-2.709 0-4.902 2.195-4.902 4.902 0 7.58-6.165 13.746-13.748 13.746-7.578 0-13.743-6.165-13.743-13.746V82.227C319.11 74.647 325.276 68.481 332.853 68.481zM451.726 58.678c-12.987 0-23.551 10.565-23.551 23.549v29.219c0 12.984 10.565 23.549 23.551 23.549 12.982 0 23.547-10.565 23.547-23.549V82.227C475.272 69.243 464.708 58.678 451.726 58.678zM465.469 111.446c0 7.58-6.165 13.746-13.743 13.746-7.582 0-13.748-6.165-13.748-13.746V82.227c0-7.58 6.165-13.746 13.748-13.746 7.578 0 13.743 6.165 13.743 13.746V111.446zM413.086 68.481c2.709 0 4.902-2.195 4.902-4.902 0-2.707-2.192-4.902-4.902-4.902h-39.372c-2.709 0-4.902 2.195-4.902 4.902v66.514c0 2.707 2.192 4.902 4.902 4.902 2.709 0 4.902-2.195 4.902-4.902v-28.355h34.47c2.709 0 4.902-2.195 4.902-4.902 0-2.707-2.192-4.902-4.902-4.902h-34.47V68.481H413.086z" fill="#2c2c2c" class="color242c35 svgShape"></path>
    </g>
  </g>
</svg>
