<svg xmlns="http://www.w3.org/2000/svg" enable-background="new 0 0 512 512" viewBox="0 0 512 512" id="6621986">
  <path fill="#0966c2" d="M389.961,410.18v-48.706c0-68.716-55.705-124.421-124.421-124.421h-19.084
			c-68.716,0-124.421,55.705-124.421,124.421v48.707c0,24.142,19.571,43.712,43.712,43.712h180.501
			C370.39,453.892,389.961,434.321,389.961,410.18z" class="colorfdce06 svgShape"></path>
  <path fill="#ffffff" d="M241.062,297.508l-11.253,80.452c-0.655,4.681,0.925,9.397,4.267,12.739l11.302,11.302
			c5.883,5.883,15.422,5.883,21.305,0l11.237-11.237c3.343-3.343,4.923-8.062,4.267-12.744l-11.286-80.517
			c-1.043-7.439-7.407-12.974-14.919-12.974h0C248.468,284.53,242.103,290.067,241.062,297.508z" class="colorffffff svgShape"></path>
  <circle cx="255.998" cy="129.894" r="71.786" fill="#ffffff" transform="rotate(-80.781 256 129.89)" class="colorffffff svgShape"></circle>
  <ellipse cx="75.095" cy="191.172" fill="#cfd0d1" rx="61.278" ry="61.279" transform="rotate(-80.781 75.098 191.171)" class="colorcfcfd1 svgShape"></ellipse>
  <ellipse cx="436.902" cy="191.172" fill="#cfd0d1" rx="61.278" ry="61.279" transform="rotate(-80.781 436.905 191.165)" class="colorcfcfd1 svgShape"></ellipse>
  <path fill="#707070" d="M265.537,229.24h-19.081c-72.912,0-132.23,59.321-132.23,132.234v48.705
			c0,28.411,23.109,51.524,51.52,51.524h180.5c28.411,0,51.528-23.113,51.528-51.524v-48.705
			C397.774,288.562,338.449,229.24,265.537,229.24z M382.149,410.179c0,19.794-16.105,35.899-35.903,35.899h-180.5
			c-19.79,0-35.896-16.105-35.896-35.899v-48.705c0-64.299,52.306-116.609,116.605-116.609h19.081
			c64.299,0,116.613,52.31,116.613,116.609V410.179z" class="color3e3e3e svgShape"></path>
  <path fill="#707070" d="M278.636 296.416c-1.579-11.23-11.314-19.699-22.651-19.699-11.352 0-21.095 8.472-22.659 19.706l-11.253 80.454c-.992 7.065 1.427 14.297 6.477 19.344l11.307 11.303c8.935 8.943 23.412 8.944 32.348 0l11.238-11.238c5.051-5.051 7.469-12.283 6.477-19.348L278.636 296.416zM272.395 385.243l-11.238 11.234c-2.747 2.739-7.507 2.739-10.254 0l-11.307-11.303c-1.595-1.598-2.365-3.891-2.052-6.13l11.253-80.454c0-.004 0-.004 0-.004.496-3.559 3.586-6.245 7.187-6.245 3.593 0 6.676 2.685 7.179 6.245l11.284 80.519C274.76 381.348 273.99 383.641 272.395 385.243zM256 50.297c-43.891 0-79.603 35.705-79.603 79.596s35.712 79.6 79.603 79.6 79.596-35.709 79.596-79.6S299.891 50.297 256 50.297zM256 193.868c-35.278 0-63.979-28.697-63.979-63.975 0-35.274 28.701-63.971 63.979-63.971s63.971 28.697 63.971 63.971C319.971 165.17 291.278 193.868 256 193.868zM75.096 260.265c38.093 0 69.09-30.994 69.09-69.094 0-38.097-30.998-69.09-69.09-69.09s-69.09 30.994-69.09 69.09C6.006 229.271 37.003 260.265 75.096 260.265zM75.096 137.705c29.479 0 53.466 23.986 53.466 53.466 0 29.483-23.986 53.469-53.466 53.469S21.63 220.654 21.63 191.171C21.63 161.691 45.617 137.705 75.096 137.705zM436.904 122.08c-38.093 0-69.09 30.994-69.09 69.09 0 38.1 30.998 69.094 69.09 69.094s69.09-30.994 69.09-69.094C505.994 153.074 474.997 122.08 436.904 122.08zM436.904 244.64c-29.479 0-53.466-23.986-53.466-53.469 0-29.479 23.986-53.466 53.466-53.466 29.479 0 53.466 23.986 53.466 53.466C490.37 220.654 466.383 244.64 436.904 244.64z" class="color3e3e3e svgShape"></path>
</svg>
