<svg xmlns="http://www.w3.org/2000/svg" enable-background="new 0 0 512 512" viewBox="0 0 512 512" id="6621997">
  <path fill="#ffffff" d="M397.555,451.992v-51.467c0-72.611-58.863-131.474-131.474-131.474h-20.166
			c-72.611,0-131.473,58.863-131.473,131.473v51.468c0,25.51,20.68,46.19,46.19,46.19h190.733
			C376.875,498.182,397.555,477.502,397.555,451.992z" class="colorffffff svgShape"></path>
  <path fill="#0966c2" d="M240.216,332.934l-11.891,85.012c-0.692,4.946,0.978,9.93,4.509,13.461l11.943,11.943
			c6.217,6.217,16.296,6.217,22.513,0l11.874-11.874c3.533-3.533,5.202-8.519,4.508-13.466l-11.925-85.081
			c-1.102-7.861-7.827-13.709-15.765-13.709h0C248.041,319.22,241.315,325.071,240.216,332.934z" class="colorcfcfd1 svgShape"></path>
  <path fill="#818181" d="M325.632,161.154l6.155,35.825c3.193,18.586-16.315,32.764-33.007,23.989l-32.209-16.932
			c-6.629-3.485-14.549-3.484-21.177,0.003l-32.175,16.926c-16.687,8.778-36.197-5.388-33.015-23.972l6.137-35.852
			c1.263-7.378-1.185-14.906-6.545-20.131l-26.045-25.383c-13.504-13.161-6.054-36.094,12.607-38.806l36.008-5.232
			c7.412-1.077,13.818-5.733,17.132-12.45l16.097-32.635c8.341-16.91,32.451-16.917,40.8-0.011l16.129,32.656
			c3.315,6.711,9.719,11.362,17.126,12.439l35.992,5.23c18.665,2.712,26.113,25.654,12.6,38.812l-26.057,25.373
			C326.814,146.232,324.364,153.768,325.632,161.154z" class="colorfdce06 svgShape"></path>
  <path fill="#707070" d="M106.627,451.995c0,29.777,24.23,54,54.007,54h190.731c29.777,0,54-24.223,54-54v-51.467
			c0-76.803-62.483-139.287-139.287-139.287h-20.164c-76.803,0-139.287,62.483-139.287,139.279V451.995z M122.252,400.52
			c0-68.182,55.472-123.654,123.662-123.654h20.164c68.19,0,123.662,55.472,123.662,123.662v51.467
			c0,21.163-17.212,38.375-38.375,38.375H160.635c-21.163,0-38.383-17.212-38.383-38.375V400.52z" class="color3e3e3e svgShape"></path>
  <path fill="#707070" d="M239.254 448.874c9.238 9.253 24.316 9.26 33.561 0l11.871-11.871c5.241-5.234 7.751-12.741 6.721-20.08l-11.924-85.089c-1.64-11.642-11.741-20.423-23.498-20.423-11.772 0-21.881 8.789-23.506 20.439l-11.894 85.02c-1.022 7.324 1.495 14.824 6.721 20.065L239.254 448.874zM236.057 419.029l11.894-85.012c.557-3.982 4.013-6.981 8.034-6.981 4.013 0 7.469 2.998 8.026 6.973l11.924 85.081c.351 2.51-.504 5.073-2.296 6.866l-11.871 11.871c-3.166 3.166-8.316 3.151-11.467 0l-11.94-11.932C236.568 424.102 235.714 421.531 236.057 419.029zM363.686 121.23c8.4-8.186 11.368-20.195 7.751-31.341-3.624-11.146-13.076-19.119-24.673-20.797l-35.995-5.234c-4.86-.71-9.064-3.761-11.245-8.163l-16.128-32.661c-5.188-10.505-15.686-17.028-27.404-17.028h-.008c-11.718.008-22.216 6.538-27.397 17.044l-16.105 32.63c-2.167 4.417-6.37 7.469-11.238 8.179l-36.01 5.234c-11.604 1.686-21.057 9.659-24.681 20.813-3.616 11.146-.648 23.147 7.744 31.318l26.039 25.382c3.525 3.433 5.134 8.369 4.303 13.214l-6.134 35.857c-1.976 11.551 2.678 23.002 12.161 29.884 9.375 6.811 21.688 7.835 32.188 2.319l32.18-16.929c4.349-2.289 9.544-2.289 13.908 0l32.203 16.929c10.383 5.463 22.72 4.562 32.188-2.327 9.475-6.889 14.137-18.341 12.153-29.891l-6.157-35.827c-.832-4.852.778-9.796 4.303-13.229L363.686 121.23zM326.738 135.405c-7.217 7.019-10.505 17.143-8.804 27.068l6.157 35.827c.984 5.73-1.244 11.192-5.943 14.61-4.722 3.426-10.589 3.83-15.739 1.144l-32.195-16.929c-8.911-4.684-19.546-4.684-28.457 0l-32.18 16.929c-5.15 2.685-11.024 2.266-15.731-1.137-4.7-3.418-6.92-8.873-5.943-14.602l6.134-35.857c1.701-9.91-1.587-20.019-8.789-27.038L159.2 110.03c-4.158-4.051-5.577-9.773-3.784-15.304 1.8-5.531 6.309-9.338 12.062-10.177l36.01-5.234c9.964-1.442 18.57-7.698 23.01-16.723l16.098-32.63c2.571-5.218 7.576-8.331 13.397-8.331 5.813 0 10.826 3.113 13.397 8.316l16.128 32.668c4.463 9.018 13.061 15.258 23.01 16.7l35.995 5.234c5.752.839 10.254 4.639 12.054 10.162 1.793 5.539.381 11.261-3.784 15.319L326.738 135.405zM109.824 199.498c3.796 2.135 8.529.781 10.65-2.945l7.004-12.359c2.129-3.754.809-8.522-2.945-10.65-3.761-2.113-8.522-.801-10.65 2.945l-7.004 12.359C104.751 192.601 106.07 197.369 109.824 199.498zM84.854 126.54c4.318 0 7.812-3.494 7.812-7.812 0-4.318-3.494-7.812-7.812-7.812h-14.19c-4.318 0-7.812 3.494-7.812 7.812 0 4.318 3.494 7.812 7.812 7.812H84.854zM113.883 60.959c2.121 3.725 6.854 5.081 10.65 2.945 3.754-2.129 5.073-6.897 2.945-10.65l-7.004-12.359c-2.136-3.746-6.889-5.058-10.658-2.937-3.746 2.136-5.066 6.904-2.93 10.658L113.883 60.959zM384.514 184.194l7.011 12.359c2.121 3.725 6.854 5.081 10.65 2.945 3.754-2.129 5.073-6.897 2.945-10.65l-7.011-12.359c-2.129-3.746-6.882-5.058-10.65-2.945C383.706 175.672 382.386 180.44 384.514 184.194zM441.337 126.54c4.318 0 7.812-3.494 7.812-7.812 0-4.318-3.494-7.812-7.812-7.812h-14.19c-4.318 0-7.812 3.494-7.812 7.812 0 4.318 3.494 7.812 7.812 7.812H441.337zM387.459 63.904c3.796 2.135 8.529.781 10.65-2.945l7.004-12.344c2.136-3.754.816-8.522-2.93-10.658-3.776-2.121-8.529-.809-10.658 2.937l-7.011 12.359C382.386 57.007 383.706 61.775 387.459 63.904z" class="color3e3e3e svgShape"></path>
</svg>
