<svg xmlns="http://www.w3.org/2000/svg" xml:space="preserve" viewBox="0 0 512 512" enable-background="new 0 0 512 512" id="11962839">
  <g id="_x32_9_Competition" fill="#000000" class="color000000 svgShape">
    <g fill="#000000" class="color000000 svgShape">
      <g fill="#000000" class="color000000 svgShape">
        <circle cx="92.815" cy="121.692" r="57.122" fill="#707070" class="color576066 svgShape"></circle>
      </g>
      <g fill="#000000" class="color000000 svgShape">
        <path d="M478.601,116.067c0,21.754-17.654,39.408-39.408,39.408c-7.16,0-13.938-1.913-19.677-5.302
				c-5.794,3.389-12.517,5.302-19.677,5.302c-21.754,0-39.354-17.654-39.354-39.408c0-21.699,17.6-39.354,39.354-39.354
				c7.16,0,13.883,1.913,19.677,5.302c5.739-3.389,12.516-5.302,19.677-5.302C460.947,76.713,478.601,94.368,478.601,116.067z" fill="#707070" class="color576066 svgShape"></path>
      </g>
      <g fill="#000000" class="color000000 svgShape">
        <path d="M213.224,79.603h101.893c7.269,0,13.494-5.718,13.569-12.987c0.001-0.055,0.001-0.11,0.001-0.166
				c0-8.312-6.49-15.093-14.628-15.616c0.814-1.899,1.259-3.972,1.259-6.142c0-8.66-7.033-15.654-15.654-15.654
				c-4.166,0-7.944,1.608-10.733,4.262c-2.654-4.824-7.808-8.079-13.698-8.079c-4.34,0-8.234,1.744-11.063,4.572
				c-2.829-2.829-6.723-4.572-11.063-4.572c-5.87,0-11.024,3.255-13.698,8.06c-2.809-2.635-6.587-4.243-10.733-4.243
				c-8.622,0-15.654,6.994-15.654,15.654c0,2.17,0.446,4.243,1.259,6.142c-8.137,0.523-14.628,7.304-14.628,15.616
				c0,0.055,0,0.111,0.001,0.166C199.73,73.886,205.955,79.603,213.224,79.603z" fill="#707070" class="color576066 svgShape"></path>
      </g>
      <g fill="#000000" class="color000000 svgShape">
        <rect width="115.789" height="160.693" x="34.742" y="326.086" fill="#ffffff" class="colorffffff svgShape"></rect>
      </g>
      <g fill="#000000" class="color000000 svgShape">
        <rect width="115.789" height="218.786" x="198.106" y="267.992" fill="#ccdff2" class="colord9f2cc svgShape"></rect>
      </g>
      <g opacity=".3" fill="#000000" class="color000000 svgShape">
        <g fill="#000000" class="color000000 svgShape">
          <path d="M313.884,267.992v39.938c-7.807-3.999-16.708-6.236-26.086-6.236
					c-31.941,0-57.884,25.895-57.884,57.884v102.963c0,8.664,1.904,16.851,5.331,24.229h-37.129V267.992H313.884z" fill="#ffffff" class="colorffffff svgShape"></path>
        </g>
      </g>
      <g fill="#000000" class="color000000 svgShape">
        <rect width="115.789" height="160.693" x="361.47" y="326.086" fill="#707070" class="color576066 svgShape"></rect>
      </g>
      <g fill="#000000" class="color000000 svgShape">
        <path d="M501.088,267.824c0,45.131-163.447,45.131-163.447,0c0-45.131,36.593-81.724,81.724-81.724
				S501.088,222.694,501.088,267.824z" fill="#0966c2" class="color5a83fc svgShape"></path>
      </g>
      <g opacity=".3" fill="#000000" class="color000000 svgShape">
        <g fill="#000000" class="color000000 svgShape">
          <path d="M489.4,225.695c-14.806-8.187-31.848-12.861-49.993-12.861
					c-44.477,0-82.364,28.074-96.968,67.471c-3.077-3.687-4.79-7.839-4.79-12.484c0-45.116,36.581-81.726,81.726-81.726
					C449.074,186.095,475.087,201.976,489.4,225.695z" fill="#ffffff" class="colorffffff svgShape"></path>
        </g>
      </g>
      <g fill="#000000" class="color000000 svgShape">
        <path d="M440.176,171.556v28.022c0,5.188-2.078,10.16-5.769,13.806l-15.043,14.857l-15.043-14.857
				c-3.691-3.646-5.769-8.618-5.769-13.806v-28.022H440.176z" fill="#ffffff" class="colorffffff svgShape"></path>
      </g>
      <g fill="#000000" class="color000000 svgShape">
        <path d="M459.284,140.399l-0.011,19.777c-0.009,20.24-13.978,37.798-33.698,42.358l-1.955,0.452
				c-3.552,0.821-7.248,0.792-10.787-0.085l0,0c-19.413-4.812-33.042-22.242-33.031-42.242l0.011-20.297
				c0.002-3.333,2.705-6.034,6.039-6.033l5.424,0.003c4.707,0.002,9.273-1.613,12.931-4.576l16.869-13.661v0
				c1.156,10.393,9.939,18.256,20.396,18.261l11.779,0.005C456.585,134.362,459.286,137.066,459.284,140.399z" fill="#ffffff" class="colorffffff svgShape"></path>
      </g>
      <g fill="#000000" class="color000000 svgShape">
        <line x1="419.365" x2="419.365" y1="228.241" y2="301.673" fill="#fff"></line>
      </g>
      <g fill="#000000" class="color000000 svgShape">
        <path d="M174.36,267.824c0,45.131-163.447,45.131-163.447,0c0-45.131,36.593-81.724,81.724-81.724
				S174.36,222.694,174.36,267.824z" fill="#d9dee3" class="colord9dde3 svgShape"></path>
      </g>
      <g opacity=".3" fill="#000000" class="color000000 svgShape">
        <g fill="#000000" class="color000000 svgShape">
          <path d="M162.672,225.695c-14.806-8.187-31.848-12.861-49.993-12.861
					c-44.477,0-82.364,28.074-96.968,67.471c-3.077-3.687-4.79-7.839-4.79-12.484c0-45.116,36.581-81.726,81.726-81.726
					C122.346,186.095,148.359,201.976,162.672,225.695z" fill="#ffffff" class="colorffffff svgShape"></path>
        </g>
      </g>
      <g fill="#000000" class="color000000 svgShape">
        <path d="M113.448,171.556v28.022c0,5.188-2.078,10.16-5.769,13.806l-15.043,14.857l-15.043-14.857
				c-3.691-3.646-5.769-8.618-5.769-13.806v-28.022H113.448z" fill="#ffffff" class="colorffffff svgShape"></path>
      </g>
      <g fill="#000000" class="color000000 svgShape">
        <path d="M132.556,140.399l-0.011,19.777c-0.009,20.24-13.978,37.798-33.698,42.358l-1.955,0.452
				c-3.552,0.821-7.248,0.792-10.787-0.085l0,0c-19.413-4.812-33.042-22.242-33.031-42.242l0.011-20.297
				c0.002-3.333,2.705-6.034,6.039-6.033l5.424,0.003c4.707,0.002,9.273-1.613,12.931-4.576l16.869-13.661v0
				c1.156,10.393,9.939,18.256,20.396,18.261l11.779,0.005C129.857,134.362,132.558,137.066,132.556,140.399z" fill="#ffffff" class="colorffffff svgShape"></path>
      </g>
      <g fill="#000000" class="color000000 svgShape">
        <line x1="92.636" x2="92.636" y1="228.241" y2="301.673" fill="#fff"></line>
      </g>
      <g fill="#000000" class="color000000 svgShape">
        <path d="M345.716,200.42c0,45.131-163.447,45.131-163.447,0c0-45.131,36.593-81.724,81.724-81.724
				S345.716,155.289,345.716,200.42z" fill="#aeaeae" class="colorf66866 svgShape"></path>
      </g>
      <g opacity=".3" fill="#000000" class="color000000 svgShape">
        <g fill="#000000" class="color000000 svgShape">
          <path d="M334.027,158.291c-14.806-8.187-31.848-12.861-49.993-12.861
					c-44.477,0-82.364,28.074-96.968,67.471c-3.077-3.687-4.79-7.839-4.79-12.484c0-45.116,36.581-81.726,81.726-81.726
					C293.702,118.691,319.714,134.571,334.027,158.291z" fill="#ffffff" class="colorffffff svgShape"></path>
        </g>
      </g>
      <g fill="#000000" class="color000000 svgShape">
        <path d="M284.804,104.152v28.022c0,5.188-2.078,10.16-5.769,13.806l-15.043,14.857l-15.043-14.857
				c-3.691-3.646-5.769-8.618-5.769-13.806v-28.022H284.804z" fill="#ffffff" class="colorffffff svgShape"></path>
      </g>
      <g fill="#000000" class="color000000 svgShape">
        <path d="M303.911,72.995L303.9,92.772c-0.009,20.24-13.978,37.798-33.698,42.358l-1.955,0.452
				c-3.552,0.821-7.248,0.792-10.787-0.085l0,0c-19.413-4.812-33.042-22.242-33.031-42.242l0.011-20.297
				c0.002-3.333,2.705-6.034,6.039-6.033l5.424,0.003c4.707,0.002,9.273-1.613,12.931-4.576l16.869-13.661v0
				c1.156,10.393,9.939,18.256,20.396,18.261l11.779,0.006C301.212,66.958,303.913,69.661,303.911,72.995z" fill="#ffffff" class="colorffffff svgShape"></path>
      </g>
      <g fill="#000000" class="color000000 svgShape">
        <line x1="263.992" x2="263.992" y1="160.837" y2="234.268" fill="#fff"></line>
      </g>
      <g fill="#000000" class="color000000 svgShape">
        <circle cx="263.992" cy="197.552" r="12.424" fill="#ffffff" class="colorffffff svgShape"></circle>
      </g>
      <path d="M313.897,263.092h-115.79c-2.709,0-4.902,2.192-4.902,4.902v213.882h-37.773V326.087
			c0-2.709-2.192-4.902-4.902-4.902H34.741c-2.709,0-4.902,2.192-4.902,4.902v155.789h-9.612c-2.709,0-4.902,2.192-4.902,4.902
			c0,2.709,2.192,4.902,4.902,4.902c439.122,0,180.591,0,471.545,0c2.709,0,4.902-2.192,4.902-4.902
			c0-2.709-2.192-4.902-4.902-4.902h-9.612V326.087c0-2.709-2.192-4.902-4.902-4.902h-115.79c-2.709,0-4.902,2.192-4.902,4.902
			v155.789h-37.768V267.994C318.799,265.284,316.607,263.092,313.897,263.092z M39.643,481.876V330.989h105.986v150.887H39.643z
			 M203.009,481.876v-208.98h105.986v208.98H203.009z M366.371,330.989h105.986v150.887H366.371V330.989z" fill="#2c2c2c" class="color242c35 svgShape"></path>
      <path d="M454.736,188.906c5.959-8.081,9.436-18.028,9.44-28.732l0.004-7.678
			c11.622-7.989,19.321-21.288,19.321-36.428c0-24.403-19.875-44.255-44.307-44.255c-6.912,0-13.662,1.594-19.688,4.624
			c-6.06-3.03-12.8-4.624-19.664-4.624c-24.403,0-44.255,19.851-44.255,44.255c0,15.162,7.681,28.513,19.319,36.495l-0.004,8.094
			c-0.004,10.451,3.343,20.224,9.094,28.238c-30.158,13.558-51.257,43.777-51.257,78.93c0,30.929,55.438,38.75,86.623,38.75
			c0.001,0,0.003,0,0.004,0h0c0,0,0,0,0.001,0c43.118-0.001,86.623-11.983,86.623-38.75
			C505.99,232.675,484.888,202.468,454.736,188.906z M419.366,221.351l-11.599-11.45c-1.327-1.311-2.365-2.877-3.098-4.571
			c2.244,0.933,4.566,1.732,6.985,2.331c7.994,1.981,13.998-0.219,15.026-0.349c2.617-0.605,5.132-1.425,7.547-2.413
			c-0.736,1.861-1.829,3.579-3.268,4.998L419.366,221.351z M424.464,197.761c-1.069,0.148-5.042,1.72-10.455,0.383
			c-17.261-4.279-29.315-19.693-29.305-37.486l0.01-20.292c0-0.627,0.507-1.134,1.139-1.134h5.419c0.01,0,0.014,0,0.024,0
			c5.802,0,11.484-2.015,15.993-5.668l11.125-9.009c4.069,8.75,12.92,14.696,23.058,14.7l11.776,0.005
			c0.622,0,1.134,0.512,1.134,1.139l-0.01,19.775C454.363,178.235,442.07,193.692,424.464,197.761z M365.39,116.068
			c0-18.994,15.457-34.451,34.451-34.451c6.079,0,12.025,1.599,17.199,4.629c1.541,0.895,3.437,0.9,4.969-0.01
			c5.117-3.021,11.058-4.619,17.185-4.619c19.028,0,34.504,15.457,34.504,34.451c0,9.216-3.658,17.565-9.57,23.75
			c-0.309-5.752-5.042-10.352-10.875-10.361l-11.78-0.005c-7.965-0.005-14.643-5.979-15.524-13.901
			c-0.201-1.781-1.355-3.313-3.011-3.992c-1.671-0.689-3.557-0.402-4.945,0.723l-16.874,13.662c-2.772,2.25-6.256,3.485-9.827,3.485
			c-0.005,0-0.01,0-0.014,0h-5.419c-0.005,0-0.01,0-0.014,0c-5.847,0-10.599,4.628-10.881,10.422
			C369.054,133.654,365.39,125.294,365.39,116.068z M342.542,267.826c0-32.258,19.998-59.917,48.24-71.283
			c0.925,0.838,1.878,1.647,2.869,2.414v0.623c0,6.453,2.633,12.752,7.228,17.295l13.585,13.412v66.398
			C373.144,295.79,342.542,283.702,342.542,267.826z M424.268,296.685v-66.394l13.585-13.421c4.591-4.538,7.223-10.837,7.223-17.29
			v-0.846c0.906-0.685,1.772-1.415,2.624-2.16c28.345,11.313,48.485,38.92,48.485,71.253
			C496.186,283.7,465.588,295.788,424.268,296.685z" fill="#2c2c2c" class="color242c35 svgShape"></path>
      <path d="M412.349 151.194c-1.915-1.92-5.017-1.92-6.931-.01-1.407 1.398-3.695 1.403-5.093-.005-1.915-1.905-5.021-1.91-6.936.005-1.91 1.92-1.91 5.021.005 6.936 5.215 5.205 13.719 5.222 18.946.005C414.259 156.216 414.259 153.109 412.349 151.194zM438.763 151.199c-1.412 1.398-3.7 1.393-5.093 0-1.915-1.915-5.017-1.915-6.931 0-1.915 1.915-1.915 5.017 0 6.931 5.206 5.215 13.713 5.223 18.946.01 1.92-1.91 1.92-5.017.01-6.931C443.784 149.289 440.682 149.289 438.763 151.199zM422.09 175.349c-1.407 1.398-3.695 1.403-5.093-.005-1.915-1.905-5.021-1.91-6.936.005-1.91 1.92-1.91 5.021.005 6.936 5.215 5.205 13.719 5.222 18.946.005 1.92-1.91 1.92-5.017.01-6.931C427.112 173.434 424.01 173.444 422.09 175.349zM6.01 267.826c0 31.019 55.716 38.75 86.628 38.75 43.115 0 86.623-11.982 86.623-38.75 0-35.151-21.101-65.361-51.253-78.921 5.072-6.877 8.335-15.105 9.193-24.007 10.89-11.176 17.637-26.403 17.637-43.205 0-34.202-27.821-62.023-62.023-62.023S30.792 87.49 30.792 121.693c0 16.767 6.71 31.975 17.559 43.147.754 8.867 3.932 17.108 8.901 24.039C27.096 202.437 6.01 232.675 6.01 267.826zM15.814 267.826c0-32.268 20.035-59.882 48.292-71.236.909.822 1.844 1.616 2.817 2.369v.62c0 6.453 2.633 12.752 7.228 17.295l13.585 13.412v66.398C46.414 295.789 15.814 283.701 15.814 267.826zM92.638 221.351 81.04 209.9c-1.324-1.308-2.35-2.868-3.07-4.56 2.235.927 4.548 1.723 6.957 2.32 7.906 1.959 14.014-.218 15.026-.349 2.598-.601 5.094-1.415 7.493-2.393-.723 1.851-1.782 3.567-3.214 4.978L92.638 221.351zM97.736 197.761c-1.062.148-5.054 1.721-10.455.383-17.266-4.279-29.32-19.693-29.305-37.486l.01-20.292c0-.627.507-1.134 1.139-1.134h5.419c.01 0 .014 0 .024 0 5.802 0 11.484-2.015 15.993-5.668l11.125-9.009c4.069 8.75 12.92 14.696 23.058 14.7l11.776.005c.622 0 1.134.512 1.134 1.139l-.01 19.775C127.635 178.235 115.343 193.692 97.736 197.761zM169.458 267.826c0 15.875-30.6 27.962-71.918 28.859v-66.394l13.585-13.421c4.591-4.538 7.223-10.837 7.223-17.29v-.846c.936-.708 1.832-1.461 2.711-2.232C149.381 207.828 169.458 235.51 169.458 267.826zM92.816 69.473c28.793 0 52.22 23.427 52.22 52.22 0 9.879-2.791 19.102-7.582 26.984l.004-8.277c0-6.027-4.902-10.933-10.933-10.943l-11.78-.005c-7.965-.005-14.643-5.979-15.524-13.901-.201-1.781-1.355-3.313-3.011-3.992-1.671-.689-3.557-.402-4.945.723l-16.874 13.662c-2.772 2.25-6.256 3.485-9.827 3.485-.005 0-.01 0-.014 0H59.13c-.005 0-.01 0-.014 0-6.022 0-10.924 4.897-10.933 10.933l-.004 8.322c-4.8-7.878-7.583-17.108-7.583-26.99C40.596 92.9 64.022 69.473 92.816 69.473z" fill="#2c2c2c" class="color242c35 svgShape"></path>
      <path d="M85.621 151.194c-1.915-1.92-5.017-1.92-6.931-.01-1.407 1.398-3.695 1.403-5.093-.005-1.915-1.905-5.021-1.91-6.936.005-1.91 1.92-1.91 5.021.005 6.936 5.215 5.205 13.719 5.222 18.946.005C87.531 156.216 87.531 153.109 85.621 151.194zM112.035 151.199c-1.412 1.398-3.691 1.393-5.093 0-1.915-1.915-5.017-1.915-6.931 0s-1.915 5.017 0 6.931c5.206 5.215 13.714 5.223 18.946.01 1.92-1.91 1.92-5.017.01-6.931C117.056 149.289 113.954 149.289 112.035 151.199zM95.362 175.349c-1.407 1.398-3.695 1.403-5.093-.005-1.915-1.905-5.021-1.91-6.936.005-1.91 1.92-1.91 5.021.005 6.936 5.215 5.205 13.719 5.222 18.946.005 1.92-1.91 1.92-5.017.01-6.931C100.384 173.434 97.282 173.444 95.362 175.349zM177.366 200.422c0 30.929 55.438 38.75 86.623 38.75.001 0 .003 0 .004 0h0c0 0 0 0 .001 0 43.118-.001 86.623-11.983 86.623-38.75 0-35.15-21.098-65.364-51.248-78.928 5.956-8.079 9.43-18.023 9.434-28.724l.004-8.267h6.31c10.086 0 18.372-8.004 18.449-17.443.7-7.235-4.332-16.57-13.489-19.918.096-.809.144-1.623.144-2.446 0-15.594-16.706-25.389-30.243-18.147-6.863-7.07-17.733-8.188-25.806-3.011-8.045-5.159-18.897-4.084-25.806 3.016-2.953-1.58-6.266-2.417-9.689-2.417-11.335 0-20.555 9.224-20.555 20.56 0 .823.048 1.637.144 2.446-7.908 2.896-13.513 10.541-13.513 19.526.105 9.832 8.391 17.836 18.473 17.836h6.308l-.004 8.746c-.007 10.448 3.338 20.22 9.086 28.233C198.458 135.04 177.366 165.27 177.366 200.422zM269.092 130.357c-1.064.149-5.062 1.723-10.45.383-17.271-4.284-29.324-19.698-29.31-37.486l.01-20.292c0-.627.507-1.134 1.139-1.134h5.419c.01 0 .014 0 .024 0 5.802 0 11.484-2.015 15.993-5.668l11.125-9.009c4.069 8.75 12.92 14.696 23.058 14.7l11.776.005c.622 0 1.134.512 1.134 1.139L299 92.77C298.991 110.831 286.698 126.288 269.092 130.357zM256.282 140.256c7.906 1.959 14.014-.218 15.026-.349 2.617-.605 5.132-1.425 7.547-2.413-.736 1.861-1.829 3.579-3.268 4.998l-11.594 11.455-11.599-11.45c-1.328-1.312-2.366-2.877-3.099-4.572C251.541 138.857 253.864 139.656 256.282 140.256zM263.994 190.03c4.145 0 7.52 3.375 7.52 7.52 0 4.15-3.375 7.525-7.52 7.525-4.15 0-7.525-3.375-7.525-7.525C256.469 193.405 259.844 190.03 263.994 190.03zM340.814 200.422c0 15.874-30.598 27.962-71.918 28.859v-15.195c7.157-2.13 12.422-8.695 12.422-16.536 0-7.841-5.265-14.402-12.422-16.531v-18.132l13.585-13.421c4.591-4.538 7.223-10.837 7.223-17.29v-.846c.906-.685 1.771-1.415 2.623-2.159C320.678 140.475 340.814 168.087 340.814 200.422zM213.225 74.7c-4.734 0-8.621-3.652-8.669-8.248 0-5.653 4.409-10.364 10.043-10.723 1.584-.101 3.025-.967 3.858-2.326.838-1.355.957-3.03.33-4.495-.57-1.34-.862-2.757-.862-4.212 0-5.931 4.825-10.756 10.751-10.756 2.752 0 5.371 1.034 7.377 2.92 1.101 1.029 2.599 1.503 4.112 1.269 1.489-.235 2.791-1.139 3.528-2.46 3.459-6.221 11.944-7.464 17.013-2.408 1.915 1.915 5.017 1.915 6.931 0 5.036-5.024 13.554-3.855 16.998 2.403.732 1.336 2.039 2.25 3.542 2.484 1.517.22 3.03-.249 4.131-1.292 6.638-6.332 18.109-1.731 18.109 7.841 0 1.455-.292 2.872-.862 4.212-.627 1.465-.507 3.14.33 4.495.833 1.359 2.274 2.226 3.858 2.326 5.634.359 10.043 5.069 10.038 10.837-.043 4.485-3.93 8.133-8.664 8.133h-6.305l.001-1.704c0-6.027-4.902-10.933-10.933-10.943l-11.78-.005c-7.965-.005-14.643-5.979-15.524-13.901-.201-1.781-1.355-3.313-3.011-3.992-1.666-.685-3.557-.402-4.945.723l-16.874 13.662c-2.772 2.25-6.256 3.485-9.827 3.485-.005 0-.01 0-.014 0h-5.419c-.005 0-.01 0-.014 0-6.022 0-10.924 4.897-10.933 10.933l-.001 1.742H213.225zM235.524 129.236c.891.802 1.804 1.58 2.755 2.317v.624c0 6.453 2.633 12.752 7.228 17.295l13.585 13.412v18.135c-7.158 2.129-12.427 8.691-12.427 16.532s5.268 14.406 12.427 16.536v15.195c-41.32-.895-71.923-12.984-71.923-28.859C187.17 168.14 207.244 140.572 235.524 129.236z" fill="#2c2c2c" class="color242c35 svgShape"></path>
      <path d="M256.977 83.79c-1.91-1.92-5.012-1.92-6.931-.01-1.407 1.398-3.695 1.403-5.093-.005-1.915-1.905-5.021-1.91-6.936.005-1.91 1.92-1.91 5.021.005 6.936 5.215 5.205 13.719 5.222 18.946.005C258.886 88.812 258.886 85.705 256.977 83.79zM283.39 83.795c-1.407 1.398-3.695 1.403-5.093-.005-1.915-1.905-5.021-1.91-6.936.005-1.91 1.92-1.91 5.021.005 6.936 5.215 5.205 13.719 5.222 18.946.005 1.92-1.91 1.92-5.017.01-6.931C288.412 81.885 285.31 81.885 283.39 83.795zM266.718 107.945c-1.407 1.398-3.695 1.403-5.093-.005-1.915-1.905-5.021-1.91-6.936.005-1.91 1.92-1.91 5.021.005 6.936 5.215 5.205 13.719 5.222 18.946.005 1.92-1.91 1.92-5.017.01-6.931C271.739 106.03 268.637 106.04 266.718 107.945z" fill="#2c2c2c" class="color242c35 svgShape"></path>
    </g>
  </g>
</svg>
