<svg xmlns="http://www.w3.org/2000/svg" xml:space="preserve" viewBox="0 0 512 512" enable-background="new 0 0 512 512" id="11962825">
  <g id="_x31_5_Company" fill="#000000" class="color000000 svgShape">
    <g fill="#000000" class="color000000 svgShape">
      <g fill="#000000" class="color000000 svgShape">
        <polygon points="407.78 220.636 407.78 486.71 316.843 486.71 316.843 185.271" fill="#ccdff2" class="colord9f2cc svgShape"></polygon>
      </g>
      <g opacity=".3" fill="#000000" class="color000000 svgShape">
        <g fill="#000000" class="color000000 svgShape">
          <path d="M407.781,220.655v22.656c-3.83-3.368-8.26-6.091-13.151-7.982
					c-29.808-11.582-61.922,10.428-61.922,42.404v189.505c0,6.967,1.569,13.565,4.384,19.472h-20.256V185.264L407.781,220.655z" fill="#ffffff" class="colorffffff svgShape"></path>
        </g>
      </g>
      <g fill="#000000" class="color000000 svgShape">
        <path d="M316.843,116.738V486.71H166.404V116.738c0-8.343,6.763-15.106,15.106-15.106h120.226
				C310.08,101.632,316.843,108.395,316.843,116.738z" fill="#ccdff2" class="colord9f2cc svgShape"></path>
      </g>
      <g opacity=".3" fill="#000000" class="color000000 svgShape">
        <g fill="#000000" class="color000000 svgShape">
          <path d="M316.835,116.744v32.346c-12.227-8.721-27.224-13.796-43.373-13.796
					c-41.528,0-75.212,33.684-75.212,75.211V460.27c0,9.459,2.215,18.457,6.137,26.439h-37.975V116.744
					c0-8.352,6.737-15.089,15.088-15.089h120.246C310.098,101.655,316.835,108.392,316.835,116.744z" fill="#ffffff" class="colorffffff svgShape"></path>
        </g>
      </g>
      <g fill="#000000" class="color000000 svgShape">
        <polygon points="75.468 220.636 75.468 486.71 166.404 486.71 166.404 185.271" fill="#ccdff2" class="colord9f2cc svgShape"></polygon>
      </g>
      <g opacity=".3" fill="#000000" class="color000000 svgShape">
        <g fill="#000000" class="color000000 svgShape">
          <path d="M166.412,185.264V486.71h-26.301c1.154-3.83,1.753-7.844,1.753-12.043V278.194
					c0-29.992-30.131-50.618-58.093-39.728l-5.629,2.169c-0.923,0.369-1.8,0.738-2.676,1.154v-21.133L166.412,185.264z" fill="#ffffff" class="colorffffff svgShape"></path>
        </g>
      </g>
      <g fill="#000000" class="color000000 svgShape">
        <path d="M229.511,135.073v21.833c0,5.778-4.684,10.463-10.463,10.463h-18.526
				c-5.778,0-10.463-4.684-10.463-10.463v-21.833c0-5.778,4.684-10.463,10.463-10.463h18.526
				C224.827,124.611,229.511,129.295,229.511,135.073z" fill="#ffffff" class="colorffffff svgShape"></path>
      </g>
      <g fill="#000000" class="color000000 svgShape">
        <path d="M293.187,135.073v21.833c0,5.778-4.684,10.463-10.463,10.463h-18.526
				c-5.778,0-10.463-4.684-10.463-10.463v-21.833c0-5.778,4.684-10.463,10.463-10.463h18.526
				C288.503,124.611,293.187,129.295,293.187,135.073z" fill="#ffffff" class="colorffffff svgShape"></path>
      </g>
      <g fill="#000000" class="color000000 svgShape">
        <path d="M229.511,195.686v21.833c0,5.778-4.684,10.463-10.463,10.463h-18.526
				c-5.778,0-10.463-4.684-10.463-10.463v-21.833c0-5.778,4.684-10.463,10.463-10.463h18.526
				C224.827,185.223,229.511,189.907,229.511,195.686z" fill="#ffffff" class="colorffffff svgShape"></path>
      </g>
      <g fill="#000000" class="color000000 svgShape">
        <path d="M293.187,195.686v21.833c0,5.778-4.684,10.463-10.463,10.463h-18.526
				c-5.778,0-10.463-4.684-10.463-10.463v-21.833c0-5.778,4.684-10.463,10.463-10.463h18.526
				C288.503,185.223,293.187,189.907,293.187,195.686z" fill="#ffffff" class="colorffffff svgShape"></path>
      </g>
      <g fill="#000000" class="color000000 svgShape">
        <path d="M229.511,256.298v21.833c0,5.778-4.684,10.463-10.463,10.463h-18.526
				c-5.778,0-10.463-4.684-10.463-10.463v-21.833c0-5.778,4.684-10.463,10.463-10.463h18.526
				C224.827,245.835,229.511,250.52,229.511,256.298z" fill="#ffffff" class="colorffffff svgShape"></path>
      </g>
      <g fill="#000000" class="color000000 svgShape">
        <path d="M293.187,256.298v21.833c0,5.778-4.684,10.463-10.463,10.463h-18.526
				c-5.778,0-10.463-4.684-10.463-10.463v-21.833c0-5.778,4.684-10.463,10.463-10.463h18.526
				C288.503,245.835,293.187,250.52,293.187,256.298z" fill="#ffffff" class="colorffffff svgShape"></path>
      </g>
      <g fill="#000000" class="color000000 svgShape">
        <path d="M229.511,316.911v21.833c0,5.778-4.684,10.463-10.463,10.463h-18.526
				c-5.778,0-10.463-4.684-10.463-10.463v-21.833c0-5.778,4.684-10.463,10.463-10.463h18.526
				C224.827,306.448,229.511,311.132,229.511,316.911z" fill="#ffffff" class="colorffffff svgShape"></path>
      </g>
      <g fill="#000000" class="color000000 svgShape">
        <path d="M293.187,316.911v21.833c0,5.778-4.684,10.463-10.463,10.463h-18.526
				c-5.778,0-10.463-4.684-10.463-10.463v-21.833c0-5.778,4.684-10.463,10.463-10.463h18.526
				C288.503,306.448,293.187,311.132,293.187,316.911z" fill="#ffffff" class="colorffffff svgShape"></path>
      </g>
      <g fill="#000000" class="color000000 svgShape">
        <path d="M501.09,459.81v26.9H352.99v-26.9c0-31.048,25.169-56.217,56.217-56.217h35.665
				C475.92,403.593,501.09,428.762,501.09,459.81z" fill="#aeaeae" class="colorf66866 svgShape"></path>
      </g>
      <g opacity=".3" fill="#000000" class="color000000 svgShape">
        <g fill="#000000" class="color000000 svgShape">
          <path d="M496.097,436.692c-6.368-2.584-13.335-3.968-20.672-3.968h-8.767
					c-22.933,0-43.743,9.321-58.785,24.317c-8.306,8.305-14.858,18.411-19.057,29.669H353.01v-26.901
					c0-31.053,25.147-56.201,56.201-56.201h35.668C467.673,403.608,487.329,417.174,496.097,436.692z" fill="#ffffff" class="colorffffff svgShape"></path>
        </g>
      </g>
      <g fill="#000000" class="color000000 svgShape">
        <path d="M450.464,373.268v24.734c0,12.937-10.487,23.424-23.424,23.424h0
				c-12.937,0-23.424-10.487-23.424-23.424v-24.734H450.464z" fill="#ffffff" class="colorffffff svgShape"></path>
      </g>
      <g fill="#000000" class="color000000 svgShape">
        <circle cx="427.04" cy="305.757" r="56.217" fill="#707070" class="color576066 svgShape"></circle>
      </g>
      <g fill="#000000" class="color000000 svgShape">
        <path d="M494.261,341.658c0,10.125-8.211,18.336-18.336,18.336s-18.336-8.211-18.336-18.336
				c0-10.176,8.211-18.387,18.336-18.387S494.261,331.483,494.261,341.658z" fill="#ffffff" class="colorffffff svgShape"></path>
      </g>
      <g fill="#000000" class="color000000 svgShape">
        <path d="M396.491,341.658c0,10.125-8.211,18.336-18.336,18.336c-10.125,0-18.336-8.211-18.336-18.336
				c0-10.176,8.211-18.387,18.336-18.387C388.28,323.272,396.491,331.483,396.491,341.658z" fill="#ffffff" class="colorffffff svgShape"></path>
      </g>
      <g fill="#000000" class="color000000 svgShape">
        <path d="M475.241,324.931v18.976c0,26.621-21.58,48.201-48.201,48.201h0
				c-26.621,0-48.201-21.58-48.201-48.201v-18.976c0-3.128,2.536-5.664,5.664-5.664h10.632c7.814,0,15.372-2.791,21.311-7.87
				l23.667-20.239l0.335,6.919c0.574,11.865,10.361,21.189,22.239,21.189h6.891C472.706,319.267,475.241,321.803,475.241,324.931z" fill="#ffffff" class="colorffffff svgShape"></path>
      </g>
      <g fill="#000000" class="color000000 svgShape">
        <path d="M282.229,393.964v92.745h-81.21v-92.745c0-10.04,8.139-18.18,18.18-18.18h44.85
				C274.089,375.784,282.229,383.924,282.229,393.964z" fill="#ffffff" class="colorffffff svgShape"></path>
      </g>
      <g fill="#000000" class="color000000 svgShape">
        <path d="M433.509,79.922c0,14.652-11.831,26.482-26.482,26.482h-52.964
				c-14.621,0-26.482-11.831-26.482-26.482c0-14.621,11.861-26.482,26.482-26.482c0.03,0,0.03,0,0.061,0
				c-0.03-0.546-0.061-1.122-0.061-1.668c0-14.591,11.861-26.482,26.482-26.482c14.652,0,26.482,11.891,26.482,26.482
				c0,0.546-0.03,1.122-0.061,1.668c0.03,0,0.03,0,0.061,0C421.679,53.441,433.509,65.301,433.509,79.922z" fill="#0966c2" class="color5a83fc svgShape"></path>
      </g>
      <g opacity=".29" fill="#000000" class="color000000 svgShape">
        <path d="M405.381,42.64c-32.53,2.215-58.185,29.3-58.185,62.384v0.461
				c-11.305-2.999-19.61-13.289-19.61-25.563c0-14.627,11.859-26.486,26.485-26.486c0,0,0,0,0.046,0
				c-0.046-0.554-0.046-1.107-0.046-1.661c0-14.581,11.859-26.485,26.485-26.485C391.954,25.29,401.69,32.535,405.381,42.64z" fill="#ffffff" class="colorffffff svgShape"></path>
      </g>
      <g fill="#000000" class="color000000 svgShape">
        <path d="M472.333,132.804c0,14.652-11.831,26.482-26.482,26.482h-52.964
				c-14.621,0-26.482-11.831-26.482-26.482c0-14.621,11.861-26.482,26.482-26.482c0.03,0,0.03,0,0.061,0
				c-0.03-0.546-0.061-1.122-0.061-1.668c0-14.591,11.861-26.482,26.482-26.482c14.652,0,26.482,11.891,26.482,26.482
				c0,0.546-0.03,1.122-0.061,1.668c0.03,0,0.03,0,0.061,0C460.503,106.322,472.333,118.183,472.333,132.804z" fill="#0966c2" class="color5a83fc svgShape"></path>
      </g>
      <g opacity=".29" fill="#000000" class="color000000 svgShape">
        <path d="M444.279,95.981c-32.53,2.215-58.185,29.3-58.185,62.384v0.461
				c-11.305-2.999-19.61-13.289-19.61-25.563c0-14.627,11.859-26.486,26.485-26.486c0,0,0,0,0.046,0
				c-0.046-0.554-0.046-1.107-0.046-1.661c0-14.581,11.858-26.485,26.485-26.485C430.852,78.632,440.588,85.876,444.279,95.981z" fill="#ffffff" class="colorffffff svgShape"></path>
      </g>
      <g fill="#000000" class="color000000 svgShape">
        <circle cx="80.282" cy="87.964" r="39.484" transform="rotate(-45.001 80.282 87.965)" fill="#aeaeae" class="colorf66866 svgShape"></circle>
      </g>
      <g opacity=".3" fill="#000000" class="color000000 svgShape">
        <g fill="#000000" class="color000000 svgShape">
          <path d="M117.778,75.631c-6.367-4.429-14.165-7.06-22.563-7.06c-21.779,0-39.452,17.626-39.452,39.451
					c0,4.337,0.692,8.49,1.938,12.366c-10.197-7.152-16.888-19.01-16.888-32.438c0-21.825,17.672-39.451,39.452-39.451
					C97.799,48.5,112.611,59.851,117.778,75.631z" fill="#ffffff" class="colorffffff svgShape"></path>
        </g>
      </g>
      <path d="M337.784 250.737h12.819c2.709 0 4.902-2.195 4.902-4.902 0-2.707-2.192-4.902-4.902-4.902h-12.819c-2.709 0-4.902 2.195-4.902 4.902C332.882 248.542 335.074 250.737 337.784 250.737zM374.02 250.737h12.819c2.709 0 4.902-2.195 4.902-4.902 0-2.707-2.192-4.902-4.902-4.902H374.02c-2.709 0-4.902 2.195-4.902 4.902C369.119 248.542 371.311 250.737 374.02 250.737zM337.784 305.372h12.819c2.709 0 4.902-2.195 4.902-4.902s-2.192-4.902-4.902-4.902h-12.819c-2.709 0-4.902 2.195-4.902 4.902S335.074 305.372 337.784 305.372zM337.784 360.009h12.819c2.709 0 4.902-2.195 4.902-4.902s-2.192-4.902-4.902-4.902h-12.819c-2.709 0-4.902 2.195-4.902 4.902S335.074 360.009 337.784 360.009zM337.784 414.644h12.819c2.709 0 4.902-2.195 4.902-4.902 0-2.707-2.192-4.902-4.902-4.902h-12.819c-2.709 0-4.902 2.195-4.902 4.902C332.882 412.449 335.074 414.644 337.784 414.644z" fill="#2c2c2c" class="color242c35 svgShape"></path>
      <path d="M10.912,491.612c232.877,0,271.053,0,490.176,0c2.709,0,4.902-2.195,4.902-4.902v-26.9
			c0-30.144-21.965-55.159-50.712-60.117c0.034-0.562,0.086-1.12,0.086-1.691v-9.256c8.994-5.701,16.181-13.994,20.443-23.862
			c0.04,0,0.077,0.012,0.117,0.012c12.814,0,23.24-10.423,23.24-23.238c0-9.123-5.312-16.958-12.955-20.776
			c1.257-4.838,1.95-9.898,1.95-15.126c0-33.702-27.419-61.119-61.119-61.119c-4.954,0-9.746,0.657-14.361,1.775v-25.779
			c0-2.022-1.24-3.837-3.126-4.569l-87.81-34.147v-65.18c0-11.031-8.975-20.007-20.004-20.007h-10.407V72.392
			c0-11.031-8.975-20.007-20.009-20.007h-24.796V25.29c0-2.707-2.192-4.902-4.902-4.902c-2.709,0-4.902,2.195-4.902,4.902v27.096
			h-24.801c-11.034,0-20.009,8.975-20.009,20.007v24.339h-10.402c-11.034,0-20.009,8.975-20.009,20.007v65.18l-87.81,34.147
			c-1.886,0.732-3.126,2.547-3.126,4.569v261.174H10.912c-2.709,0-4.902,2.195-4.902,4.902S8.203,491.612,10.912,491.612z
			 M205.92,481.809v-87.844c0-7.322,5.955-13.279,13.279-13.279h44.848c7.324,0,13.279,5.957,13.279,13.279v87.844H205.92z
			 M496.186,459.811v21.998c-61.992,0-100.771,0-138.293,0v-21.998c0-25.511,18.737-46.65,43.159-50.571
			c4.359,10.04,14.36,17.087,25.987,17.087c11.625,0,21.626-7.044,25.986-17.083C477.446,413.167,496.186,434.3,496.186,459.811z
			 M445.56,398.003c0,10.213-8.31,18.52-18.52,18.52c-10.21,0-18.52-8.308-18.52-18.52v-4.392c11.716,4.382,24.529,4.679,37.041,0
			V398.003z M427.04,387.206c-23.872,0-43.297-19.425-43.297-43.3v-18.975c0-0.419,0.34-0.761,0.761-0.761h10.632
			c8.971,0,17.668-3.212,24.499-9.047l16.218-13.872c2.049,13.068,13.317,22.92,26.835,22.92h6.888c0.421,0,0.766,0.342,0.766,0.761
			v18.975C470.342,367.781,450.917,387.206,427.04,387.206z M479.04,354.692c0.722-3.484,1.106-7.091,1.106-10.786v-14.984
			c5.334,1.788,9.215,6.789,9.215,12.737C489.36,347.989,484.945,353.278,479.04,354.692z M478.355,305.757
			c0,4.012-0.494,7.905-1.378,11.651c-1.909-1.876-4.52-3.041-7.401-3.041h-6.888c-9.277,0-16.893-7.259-17.343-16.527l-0.335-6.919
			c-0.091-1.869-1.235-3.523-2.953-4.263c-1.728-0.744-3.715-0.445-5.132,0.775l-23.662,20.239
			c-5.055,4.318-11.488,6.694-18.128,6.694h-10.632c-2.866,0-5.46,1.155-7.365,3.014c-0.889-3.738-1.414-7.615-1.414-11.623
			c0-28.295,23.02-51.315,51.315-51.315C455.335,254.442,478.355,277.462,478.355,305.757z M373.939,328.966v14.94
			c0,3.695,0.384,7.302,1.106,10.787c-5.908-1.412-10.326-6.702-10.326-13.035C364.719,335.714,368.605,330.744,373.939,328.966z
			 M402.876,223.988v25.653c-21.712,9.386-36.955,30.997-36.955,56.117c0,5.227,0.703,10.283,1.961,15.12
			c-7.649,3.816-12.966,11.654-12.966,20.781c0,12.814,10.426,23.238,23.24,23.238c0.041,0,0.079-0.012,0.12-0.012
			c4.261,9.867,11.447,18.16,20.439,23.862v9.257c0,0.565,0.052,1.116,0.085,1.673c-5.682,0.98-11.102,2.731-16.137,5.165h-8.644
			c-2.709,0-4.902,2.195-4.902,4.902c0,1.193,0.478,2.246,1.186,3.096c-13.456,11.132-22.095,27.863-22.198,46.637h-10.323
			c-2.709,0-4.902,2.195-4.902,4.902s2.192,4.902,4.902,4.902h10.306v12.53h-26.347V192.438L402.876,223.988z M201.717,72.392
			c0-5.627,4.576-10.203,10.206-10.203h59.4c5.629,0,10.206,4.576,10.206,10.203v24.339h-79.812V72.392z M171.306,116.738
			c0-5.627,4.576-10.203,10.206-10.203c30.076,0,89.926,0,120.227,0c5.625,0,10.201,4.576,10.201,10.203
			c0,41.104,0,318.213,0,365.071h-24.81v-87.844c0-12.728-10.354-23.082-23.082-23.082h-44.848
			c-12.728,0-23.082,10.354-23.082,23.082v87.844h-24.81C171.306,443.309,171.306,162.286,171.306,116.738z M80.37,223.988
			l81.133-31.55v289.371H80.37V223.988z" fill="#2c2c2c" class="color242c35 svgShape"></path>
      <path d="M418.845 336.039c-1.91-1.905-5.021-1.896-6.931.024-2.347 2.362-6.183 2.345-8.506.002-1.9-1.922-5.002-1.936-6.931-.029-1.924 1.905-1.934 5.009-.029 6.931 6.145 6.205 16.243 6.231 22.426.002C420.779 341.048 420.769 337.944 418.845 336.039zM450.677 336.063c-2.25 2.274-6.261 2.274-8.511 0-1.91-1.924-5.021-1.934-6.931-.024-1.924 1.905-1.934 5.009-.029 6.931 6.164 6.208 16.248 6.228 22.431 0 1.905-1.922 1.896-5.026-.029-6.931C455.699 334.134 452.587 334.143 450.677 336.063zM431.295 363.123c-2.25 2.274-6.261 2.274-8.511 0-1.91-1.924-5.021-1.934-6.931-.024-1.924 1.905-1.934 5.009-.029 6.931 6.164 6.208 16.248 6.228 22.431 0 1.905-1.922 1.896-5.026-.029-6.931C436.317 361.194 433.205 361.203 431.295 363.123zM200.525 172.27h18.525c8.468 0 15.361-6.893 15.361-15.363v-21.833c0-8.473-6.893-15.366-15.361-15.366h-18.525c-8.473 0-15.366 6.893-15.366 15.366v21.833C185.159 165.377 192.052 172.27 200.525 172.27zM194.963 135.074c0-3.066 2.494-5.562 5.562-5.562h18.525c3.064 0 5.558 2.496 5.558 5.562v21.833c0 3.066-2.494 5.56-5.558 5.56h-18.525c-3.068 0-5.562-2.494-5.562-5.56V135.074zM264.2 172.27h18.525c8.473 0 15.366-6.893 15.366-15.363v-21.833c0-8.473-6.893-15.366-15.366-15.366H264.2c-8.473 0-15.366 6.893-15.366 15.366v21.833C248.834 165.377 255.727 172.27 264.2 172.27zM258.638 135.074c0-3.066 2.494-5.562 5.562-5.562h18.525c3.068 0 5.562 2.496 5.562 5.562v21.833c0 3.066-2.494 5.56-5.562 5.56H264.2c-3.068 0-5.562-2.494-5.562-5.56V135.074zM200.525 232.884h18.525c8.468 0 15.361-6.893 15.361-15.366v-21.833c0-8.47-6.893-15.363-15.361-15.363h-18.525c-8.473 0-15.366 6.893-15.366 15.363v21.833C185.159 225.991 192.052 232.884 200.525 232.884zM194.963 195.685c0-3.066 2.494-5.56 5.562-5.56h18.525c3.064 0 5.558 2.494 5.558 5.56v21.833c0 3.066-2.494 5.562-5.558 5.562h-18.525c-3.068 0-5.562-2.496-5.562-5.562V195.685zM264.2 232.884h18.525c8.473 0 15.366-6.893 15.366-15.366v-21.833c0-8.47-6.893-15.363-15.366-15.363H264.2c-8.473 0-15.366 6.893-15.366 15.363v21.833C248.834 225.991 255.727 232.884 264.2 232.884zM258.638 195.685c0-3.066 2.494-5.56 5.562-5.56h18.525c3.068 0 5.562 2.494 5.562 5.56v21.833c0 3.066-2.494 5.562-5.562 5.562H264.2c-3.068 0-5.562-2.496-5.562-5.562V195.685zM200.525 293.496h18.525c8.468 0 15.361-6.893 15.361-15.363v-21.833c0-8.473-6.893-15.366-15.361-15.366h-18.525c-8.473 0-15.366 6.893-15.366 15.366v21.833C185.159 286.602 192.052 293.496 200.525 293.496zM194.963 256.299c0-3.066 2.494-5.562 5.562-5.562h18.525c3.064 0 5.558 2.496 5.558 5.562v21.833c0 3.066-2.494 5.56-5.558 5.56h-18.525c-3.068 0-5.562-2.494-5.562-5.56V256.299zM264.2 293.496h18.525c8.473 0 15.366-6.893 15.366-15.363v-21.833c0-8.473-6.893-15.366-15.366-15.366H264.2c-8.473 0-15.366 6.893-15.366 15.366v21.833C248.834 286.602 255.727 293.496 264.2 293.496zM258.638 256.299c0-3.066 2.494-5.562 5.562-5.562h18.525c3.068 0 5.562 2.496 5.562 5.562v21.833c0 3.066-2.494 5.56-5.562 5.56H264.2c-3.068 0-5.562-2.494-5.562-5.56V256.299zM200.525 354.109h18.525c8.468 0 15.361-6.893 15.361-15.366v-21.833c0-8.47-6.893-15.363-15.361-15.363h-18.525c-8.473 0-15.366 6.893-15.366 15.363v21.833C185.159 347.216 192.052 354.109 200.525 354.109zM194.963 316.911c0-3.066 2.494-5.56 5.562-5.56h18.525c3.064 0 5.558 2.494 5.558 5.56v21.833c0 3.066-2.494 5.562-5.558 5.562h-18.525c-3.068 0-5.562-2.496-5.562-5.562V316.911zM264.2 354.109h18.525c8.473 0 15.366-6.893 15.366-15.366v-21.833c0-8.47-6.893-15.363-15.366-15.363H264.2c-8.473 0-15.366 6.893-15.366 15.363v21.833C248.834 347.216 255.727 354.109 264.2 354.109zM258.638 316.911c0-3.066 2.494-5.56 5.562-5.56h18.525c3.068 0 5.562 2.494 5.562 5.56v21.833c0 3.066-2.494 5.562-5.562 5.562H264.2c-3.068 0-5.562-2.496-5.562-5.562V316.911zM109.23 240.933H96.41c-2.709 0-4.902 2.195-4.902 4.902 0 2.707 2.192 4.902 4.902 4.902h12.819c2.709 0 4.902-2.195 4.902-4.902C114.131 243.128 111.939 240.933 109.23 240.933zM145.462 240.933h-12.819c-2.709 0-4.902 2.195-4.902 4.902 0 2.707 2.192 4.902 4.902 4.902h12.819c2.709 0 4.902-2.195 4.902-4.902C150.363 243.128 148.171 240.933 145.462 240.933zM109.23 295.568H96.41c-2.709 0-4.902 2.195-4.902 4.902s2.192 4.902 4.902 4.902h12.819c2.709 0 4.902-2.195 4.902-4.902S111.939 295.568 109.23 295.568zM145.462 295.568h-12.819c-2.709 0-4.902 2.195-4.902 4.902s2.192 4.902 4.902 4.902h12.819c2.709 0 4.902-2.195 4.902-4.902S148.171 295.568 145.462 295.568zM109.23 350.206H96.41c-2.709 0-4.902 2.195-4.902 4.902s2.192 4.902 4.902 4.902h12.819c2.709 0 4.902-2.195 4.902-4.902S111.939 350.206 109.23 350.206zM145.462 350.206h-12.819c-2.709 0-4.902 2.195-4.902 4.902s2.192 4.902 4.902 4.902h12.819c2.709 0 4.902-2.195 4.902-4.902S148.171 350.206 145.462 350.206zM109.23 404.841H96.41c-2.709 0-4.902 2.195-4.902 4.902 0 2.707 2.192 4.902 4.902 4.902h12.819c2.709 0 4.902-2.195 4.902-4.902C114.131 407.035 111.939 404.841 109.23 404.841zM145.462 404.841h-12.819c-2.709 0-4.902 2.195-4.902 4.902 0 2.707 2.192 4.902 4.902 4.902h12.819c2.709 0 4.902-2.195 4.902-4.902C150.363 407.035 148.171 404.841 145.462 404.841zM109.23 459.476H96.41c-2.709 0-4.902 2.195-4.902 4.902s2.192 4.902 4.902 4.902h12.819c2.709 0 4.902-2.195 4.902-4.902S111.939 459.476 109.23 459.476zM145.462 459.476h-12.819c-2.709 0-4.902 2.195-4.902 4.902s2.192 4.902 4.902 4.902h12.819c2.709 0 4.902-2.195 4.902-4.902S148.171 459.476 145.462 459.476zM361.503 132.805c0 17.305 14.078 31.383 31.383 31.383h52.967c17.305 0 31.383-14.078 31.383-31.383 0-15.667-11.541-28.69-26.61-31.017-.816-8.983-5.436-16.886-12.231-22.079-.106-15.57-11.596-28.488-26.596-30.801-1.45-15.969-14.916-28.52-31.253-28.52s-29.798 12.549-31.253 28.513c-15.045 2.307-26.61 15.34-26.61 31.021 0 17.307 14.078 31.385 31.383 31.385h16.101C364.838 116.934 361.503 124.463 361.503 132.805zM440.95 104.653c0 .448-.024.921-.053 1.367-.081 1.35.426 2.676 1.355 3.66.924.986 2.25 1.544 3.6 1.544 11.9 0 21.579 9.681 21.579 21.582 0 11.898-9.679 21.579-21.579 21.579h-52.967c-11.9 0-21.579-9.681-21.579-21.579 0-11.9 9.679-21.582 21.641-21.582 1.345 0 2.628-.627 3.552-1.604.929-.974 1.407-2.362 1.336-3.705-.024-.416-.048-.85-.048-1.261 0-11.898 9.684-21.579 21.584-21.579S440.95 92.756 440.95 104.653zM332.485 79.922c0-11.898 9.679-21.579 21.641-21.579 1.35 0 2.642-.558 3.571-1.544.924-.984 1.403-2.31 1.321-3.66-.029-.445-.053-.919-.053-1.367 0-11.9 9.679-21.582 21.579-21.582 11.9 0 21.579 9.681 21.579 21.582 0 .462-.029.95-.053 1.41-.067 1.343.445 2.657 1.369 3.633.924.974 2.24 1.527 3.585 1.527 9.995 0 18.347 6.863 20.791 16.099-2.69-.753-5.519-1.171-8.446-1.171-16.242 0-29.633 12.403-31.22 28.233h-34.088C342.164 101.504 332.485 91.822 332.485 79.922zM124.667 87.964c0-24.475-19.909-44.386-44.384-44.386S35.895 63.489 35.895 87.964s19.913 44.386 44.389 44.386S124.667 112.439 124.667 87.964zM80.284 122.547c-19.071 0-34.585-15.514-34.585-34.583s15.514-34.583 34.585-34.583c19.066 0 34.58 15.514 34.58 34.583S99.35 122.547 80.284 122.547zM85.185 32.125v-5.783c0-2.707-2.192-4.902-4.902-4.902-2.709 0-4.902 2.195-4.902 4.902v5.783c0 2.707 2.192 4.902 4.902 4.902C82.993 37.027 85.185 34.832 85.185 32.125zM75.382 143.803v5.783c0 2.707 2.192 4.902 4.902 4.902 2.709 0 4.902-2.195 4.902-4.902v-5.783c0-2.707-2.192-4.902-4.902-4.902C77.574 138.901 75.382 141.096 75.382 143.803zM127.319 40.926c-1.915-1.915-5.017-1.915-6.931 0l-4.088 4.088c-1.915 1.915-1.915 5.017 0 6.931 1.915 1.915 5.017 1.915 6.931 0l4.088-4.088C129.234 45.942 129.234 42.841 127.319 40.926zM33.243 135.002c1.915 1.915 5.017 1.915 6.931 0l4.088-4.088c1.915-1.915 1.915-5.017 0-6.931-1.915-1.915-5.017-1.915-6.931 0l-4.088 4.088C31.328 129.986 31.328 133.087 33.243 135.002zM136.122 83.062c-2.709 0-4.902 2.195-4.902 4.902 0 2.707 2.192 4.902 4.902 4.902h5.783c2.709 0 4.902-2.195 4.902-4.902 0-2.707-2.192-4.902-4.902-4.902H136.122zM18.662 83.062c-2.709 0-4.902 2.195-4.902 4.902 0 2.707 2.192 4.902 4.902 4.902h5.783c2.709 0 4.902-2.195 4.902-4.902 0-2.707-2.192-4.902-4.902-4.902H18.662zM120.388 135.002c1.915 1.915 5.017 1.915 6.931 0 1.915-1.915 1.915-5.017 0-6.931l-4.088-4.088c-1.915-1.915-5.017-1.915-6.931 0s-1.915 5.017 0 6.931L120.388 135.002zM37.331 51.945c1.915 1.915 5.017 1.915 6.931 0 1.915-1.915 1.915-5.017 0-6.931l-4.088-4.088c-1.915-1.915-5.017-1.915-6.931 0s-1.915 5.017 0 6.931L37.331 51.945z" fill="#2c2c2c" class="color242c35 svgShape"></path>
    </g>
  </g>
</svg>
