<svg xmlns="http://www.w3.org/2000/svg" enable-background="new 0 0 512 512" viewBox="0 0 512 512" id="6622002">
  <path fill="#ffffff" d="M498.197,352.575c0,6.484-2.734,12.891-8.046,17.344l-110.154,92.966
			c-12.578,10.703-28.593,16.484-45.077,16.484h-52.577c-11.953,0-23.749-3.046-34.218-8.906l-58.436-32.734
			c-8.359-4.688-17.812-7.188-27.421-7.188h-30.234l-4.609-110.075h84.607c11.094,0,22.109,1.484,32.734,4.453l96.404,26.718
			c14.218,3.984,21.327,19.921,14.609,33.124l109.841-52.655c8.984-4.297,19.609-2.265,26.406,4.922
			C496.166,341.481,498.197,347.028,498.197,352.575z" class="colorffffff svgShape"></path>
  <path fill="#0966c2" d="M455.525,104.694c0,82.18-132.74,172.174-132.74,172.174s-132.839-89.995-132.839-172.174
			c0-39.832,32.264-72.096,72.096-72.096c25.492,0,47.898,13.244,60.743,33.26c12.746-20.016,35.152-33.26,60.644-33.26
			C423.261,32.599,455.525,64.862,455.525,104.694z" class="colorfdce06 svgShape"></path>
  <path fill="#cfd0d1" d="M121.821,287.769H13.811v175.663h108.01c16.359,0,29.62-13.262,29.62-29.621V317.389
			C151.441,301.03,138.18,287.769,121.821,287.769z" class="colorcfcfd1 svgShape"></path>
  <path fill="#707070" d="M462.259 325.044l-96.445 46.226c-1.314-13.909-10.706-23.857-22.525-27.138l-96.433-26.771c-11.322-3.143-23.04-4.738-34.827-4.738h-53.253c-2.372-18.376-17.943-32.668-36.955-32.668H13.813c-4.318 0-7.812 3.494-7.812 7.812v175.663c0 4.318 3.494 7.812 7.812 7.812H121.82c19.09 0 34.706-14.41 36.977-32.89 1.78.191 13.78-1.287 27.108 6.18l58.417 32.745c11.581 6.5 24.734 9.933 38.024 9.933h52.55c18.341 0 36.163-6.515 50.17-18.348l110.082-92.954c13.356-11.259 14.576-31.408 2.586-44.204C488.587 321.932 474.336 319.254 462.259 325.044zM143.632 433.814c0 12.024-9.788 21.804-21.812 21.804H21.625V295.58H121.82c12.024 0 21.812 9.788 21.812 21.812V433.814zM485.07 363.969l-110.09 92.962c-11.192 9.453-25.428 14.656-40.084 14.656h-52.55c-10.62 0-21.125-2.747-30.38-7.934l-58.417-32.745c-17.096-9.572-32.733-8-34.293-8.179v-94.48h52.771c10.368 0 20.683 1.404 30.647 4.173l96.433 26.771c9.451 2.623 14.159 13.244 9.72 22.01-3.242 6.378-10.368 9.743-17.311 8.133l-75.331-17.097c-4.249-.946-8.4 1.686-9.353 5.89-.954 4.211 1.686 8.392 5.89 9.353 79.133 17.688 76.089 17.875 82.266 17.875 10.588 0 20.519-5.457 26.267-14.578l107.755-51.651c5.905-2.823 12.848-1.511 17.326 3.258C492.145 348.587 491.645 358.426 485.07 363.969zM322.766 52.75c-15.098-17.677-37.093-27.961-60.721-27.961-44.059 0-79.908 35.85-79.908 79.908 0 85.34 130.696 174.869 136.266 178.638 1.32.893 2.853 1.343 4.379 1.343 1.533 0 3.059-.45 4.387-1.343 5.554-3.776 136.166-93.305 136.166-178.638 0-44.059-35.85-79.908-79.909-79.908C359.768 24.789 337.788 35.073 322.766 52.75zM447.71 104.697c0 68.9-102.316 146.336-124.929 162.609-22.636-16.258-125.02-93.649-125.02-162.609 0-35.445 28.838-64.284 64.284-64.284 21.995 0 42.243 11.085 54.16 29.662 1.442 2.243 3.914 3.593 6.576 3.593.008 0 .008 0 .015 0 2.663-.008 5.142-1.366 6.576-3.616 11.818-18.562 32.027-29.64 54.053-29.64C418.871 40.413 447.71 69.252 447.71 104.697z" class="color3e3e3e svgShape"></path>
</svg>
