<svg xmlns="http://www.w3.org/2000/svg" xml:space="preserve" viewBox="0 0 512 512" enable-background="new 0 0 512 512" id="11962829">
  <g id="_x31_9_Concept" fill="#000000" class="color000000 svgShape">
    <g fill="#000000" class="color000000 svgShape">
      <g fill="#000000" class="color000000 svgShape">
        <path d="M416.823,144.926v274.106c0,45.318-36.737,82.055-82.055,82.055H98.11
				c-45.318,0-82.055-36.737-82.055-82.055V92.968c0-45.318,36.737-82.055,82.055-82.055h184.698L416.823,144.926z" fill="#ffffff" class="colorffffff svgShape"></path>
      </g>
      <g fill="#000000" class="color000000 svgShape">
        <path d="M416.823,144.926h-98.329c-19.708,0-35.685-15.977-35.685-35.685V10.912L416.823,144.926z" fill="#0966c2" class="color5a83fc svgShape"></path>
      </g>
      <g opacity=".3" fill="#000000" class="color000000 svgShape">
        <g fill="#000000" class="color000000 svgShape">
          <path d="M416.802,144.926h-98.329c-19.705,0-35.685-15.98-35.685-35.685V10.912l28.234,28.234v44.067
					c0,19.705,15.98,35.685,35.685,35.685h44.067L416.802,144.926z" fill="#ffffff" class="colorffffff svgShape"></path>
        </g>
      </g>
      <g fill="#000000" class="color000000 svgShape">
        <path d="M182.344,334.296c0,9.923-8.03,17.953-17.953,17.953c-9.905,0-17.934-8.03-17.934-17.953
				c0-9.905,8.03-17.934,17.934-17.934C174.314,316.362,182.344,324.391,182.344,334.296z" fill="#ffffff" class="colorffffff svgShape"></path>
      </g>
      <g fill="#000000" class="color000000 svgShape">
        <path d="M146.474,334.305h35.851c5.883,0,10.651-4.769,10.651-10.651v0
				c0-5.883-4.769-10.651-10.651-10.651h-35.851c-5.883,0-10.651,4.769-10.651,10.651v0
				C135.823,329.536,140.592,334.305,146.474,334.305z" fill="#0966c2" class="color5a83fc svgShape"></path>
      </g>
      <g opacity=".3" fill="#000000" class="color000000 svgShape">
        <g fill="#000000" class="color000000 svgShape">
          <path d="M192.988,323.644c0,0.735-0.049,1.421-0.196,2.108c-0.637-0.147-1.274-0.196-1.911-0.196h-35.832
					c-5.147,0-9.509,3.725-10.49,8.578c-2.157-0.392-4.118-1.47-5.588-2.941c-1.961-1.961-3.137-4.608-3.137-7.549
					c0-5.882,4.755-10.637,10.637-10.637h35.832c2.941,0,5.588,1.176,7.549,3.088C191.811,318.056,192.988,320.703,192.988,323.644z
					" fill="#ffffff" class="colorffffff svgShape"></path>
        </g>
      </g>
      <g fill="#000000" class="color000000 svgShape">
        <path d="M258.392,157.625c2.138,33.565-13.335,63.67-38.076,81.951
				c-14.251,10.53-22.494,27.334-22.494,45.053v5.754h-66.843v-5.759c0-17.734-8.274-34.53-22.531-45.076
				c-23.196-17.157-38.235-44.711-38.235-75.762c0-54.384,46.123-98.022,101.376-93.921
				C218.07,73.316,255.429,111.109,258.392,157.625z" fill="#d9dee3" class="colord9dde3 svgShape"></path>
      </g>
      <g opacity=".3" fill="#000000" class="color000000 svgShape">
        <g fill="#000000" class="color000000 svgShape">
          <path d="M175.782,290.361H130.98v-5.735c0-17.744-8.284-34.508-22.548-45.096
					c-23.186-17.156-38.234-44.704-38.234-75.732c0-54.41,46.125-98.035,101.368-93.918c5.833,0.441,11.519,1.373,16.96,2.843
					c-36.91,24.313-61.272,66.076-61.272,113.574C127.255,228.06,146.127,265.46,175.782,290.361z" fill="#ffffff" class="colorffffff svgShape"></path>
        </g>
      </g>
      <g fill="#000000" class="color000000 svgShape">
        <line x1="164.4" x2="164.4" y1="37.857" y2="53.985" fill="#fff"></line>
      </g>
      <g fill="#000000" class="color000000 svgShape">
        <line x1="254.958" x2="243.554" y1="75.367" y2="86.771" fill="#fff"></line>
      </g>
      <g fill="#000000" class="color000000 svgShape">
        <line x1="292.468" x2="276.34" y1="165.925" y2="165.925" fill="#fff"></line>
      </g>
      <g fill="#000000" class="color000000 svgShape">
        <line x1="52.46" x2="36.332" y1="165.925" y2="165.925" fill="#fff"></line>
      </g>
      <g fill="#000000" class="color000000 svgShape">
        <line x1="85.246" x2="73.842" y1="86.771" y2="75.367" fill="#fff"></line>
      </g>
      <g fill="#000000" class="color000000 svgShape">
        <path d="M217.031,178.34c-1.072,3.781-2.596,7.42-4.458,10.806l7.731,7.731l-21.894,21.866l-7.731-7.731
				c-3.386,1.89-6.997,3.386-10.778,4.486v10.919H148.95v-10.919c-3.781-1.1-7.392-2.596-10.806-4.458l-7.703,7.702l-21.894-21.866
				l7.731-7.731c-1.862-3.386-3.386-7.025-4.458-10.806h-10.947v-30.923h10.947c1.072-3.781,2.596-7.42,4.458-10.806l-7.731-7.731
				l21.894-21.866l7.703,7.703c3.414-1.862,7.025-3.358,10.806-4.458V99.34h30.951v10.919c3.781,1.1,7.392,2.596,10.778,4.486
				l7.731-7.731l21.894,21.866l-7.731,7.731c1.862,3.386,3.386,7.025,4.458,10.806h10.919v30.923H217.031z" fill="#707070" class="color576066 svgShape"></path>
      </g>
      <g fill="#000000" class="color000000 svgShape">
        <circle cx="164.424" cy="162.878" r="30.923" fill="#ffffff" class="colorffffff svgShape"></circle>
      </g>
      <g fill="#000000" class="color000000 svgShape">
        <path d="M141.106,313.002h46.588c7.644,0,13.841-6.197,13.841-13.841v0
				c0-7.644-6.197-13.841-13.841-13.841h-46.588c-7.644,0-13.841,6.197-13.841,13.841v0
				C127.265,306.805,133.462,313.002,141.106,313.002z" fill="#0966c2" class="color5a83fc svgShape"></path>
      </g>
      <g opacity=".3" fill="#000000" class="color000000 svgShape">
        <g fill="#000000" class="color000000 svgShape">
          <path d="M201.517,298.939c-1.618-0.686-3.382-1.029-5.245-1.029h-46.616
					c-7.647,0-13.823,6.176-13.823,13.823v0.245c-1.715-0.735-3.235-1.765-4.51-3.039c-2.5-2.5-4.069-5.98-4.069-9.754
					c0-7.647,6.225-13.872,13.872-13.872h46.567c3.824,0,7.255,1.569,9.804,4.069C199.899,291.832,201.467,295.214,201.517,298.939z
					" fill="#ffffff" class="colorffffff svgShape"></path>
        </g>
      </g>
      <g fill="#000000" class="color000000 svgShape">
        <path d="M495.948,181.133v240.629L466.8,493.264l-29.148-71.503V181.133
				c0-16.098,13.05-29.148,29.148-29.148h0C482.898,151.985,495.948,165.035,495.948,181.133z" fill="#aeaeae" class="colorf66866 svgShape"></path>
      </g>
      <g opacity=".3" fill="#000000" class="color000000 svgShape">
        <g fill="#000000" class="color000000 svgShape">
          <path d="M495.965,181.15v47.743c-3.774-1.814-7.99-2.794-12.402-2.794
					c-16.078,0-29.166,13.039-29.166,29.166v207.59l-16.764-41.077V181.15c0-16.127,13.088-29.166,29.166-29.166
					c8.039,0,15.343,3.235,20.587,8.529C492.681,165.808,495.965,173.062,495.965,181.15z" fill="#ffffff" class="colorffffff svgShape"></path>
        </g>
      </g>
      <g fill="#000000" class="color000000 svgShape">
        <path d="M495.948,215.833v-34.7c0-16.098-13.05-29.148-29.148-29.148h0
				c-16.098,0-29.148,13.05-29.148,29.148v34.7H495.948z" fill="#ffffff" class="colorffffff svgShape"></path>
      </g>
      <g fill="#000000" class="color000000 svgShape">
        <polygon points="437.96 422.518 466.8 493.264 495.639 422.518" fill="#ffffff" class="colorffffff svgShape"></polygon>
      </g>
      <g fill="#000000" class="color000000 svgShape">
        <polygon points="449.688 451.288 466.8 493.264 483.911 451.288" fill="#707070" class="color576066 svgShape"></polygon>
      </g>
      <path d="M11.151,92.969v326.063c0,47.95,39.008,86.958,86.958,86.958h236.658
			c47.95,0,86.958-39.008,86.958-86.958V144.925c0-0.963-0.513-2.542-1.436-3.466L286.272,7.446
			c-0.877-0.879-2.441-1.436-3.466-1.436H98.11C50.16,6.01,11.151,45.019,11.151,92.969z M287.708,22.745
			c41.018,41.017,76.265,76.262,117.283,117.278h-86.498c-16.974,0-30.784-13.808-30.784-30.782V22.745z M98.11,15.814h179.795
			v93.428c0,22.379,18.209,40.585,40.588,40.585h93.43v269.204c0,42.543-34.614,77.155-77.155,77.155H98.11
			c-42.541,0-77.155-34.611-77.155-77.155V92.969C20.955,50.425,55.569,15.814,98.11,15.814z" fill="#2c2c2c" class="color242c35 svgShape"></path>
      <path d="M105.529 243.49c12.867 9.514 20.545 24.892 20.545 41.136v3.451c-2.302 3.113-3.71 6.924-3.71 11.084 0 7.427 4.375 13.803 10.654 16.834-1.298 2.27-2.1 4.861-2.1 7.658 0 7.065 4.763 12.975 11.225 14.865 2 10.565 11.117 18.634 22.245 18.634 11.14 0 20.266-8.069 22.268-18.634 6.461-1.89 11.221-7.8 11.221-14.865 0-2.797-.801-5.386-2.098-7.657 6.28-3.031 10.657-9.407 10.657-16.835 0-4.163-1.41-7.976-3.715-11.09v-3.44c0-16.254 7.664-31.624 20.502-41.112 27.237-20.124 42.215-52.349 40.061-86.204-3.121-49.006-42.388-88.703-91.334-92.336C112.789 60.589 65.31 107.63 65.31 163.786 65.31 195.063 80.346 224.859 105.529 243.49zM164.389 347.348c-5.447 0-10.103-3.374-12.043-8.14h24.108C174.511 343.974 169.847 347.348 164.389 347.348zM182.325 329.404h-35.849c-3.174 0-5.754-2.58-5.754-5.751 0-3.169 2.58-5.749 5.754-5.749h35.849c3.169 0 5.749 2.58 5.749 5.749C188.074 326.824 185.494 329.404 182.325 329.404zM187.696 308.1c-.665 0-47.433 0-46.591 0-4.926 0-8.937-4.011-8.937-8.939 0-4.928 4.011-8.939 8.937-8.939h46.591c4.926 0 8.937 4.011 8.937 8.939C196.633 304.089 192.622 308.1 187.696 308.1zM171.225 74.752c44.092 3.274 79.467 39.037 82.277 83.184 1.943 30.516-11.556 59.563-36.103 77.698-14.444 10.675-23.299 27.572-24.285 45.677-1.727-.526-3.521-.893-5.418-.893h-46.591c-1.909 0-3.716.371-5.452.904-.981-18.099-9.824-35.012-24.293-45.714-22.695-16.79-36.246-43.64-36.246-71.822C75.114 112.952 118.066 70.866 171.225 74.752zM164.398 58.886c2.709 0 4.902-2.195 4.902-4.902V37.857c0-2.707-2.192-4.902-4.902-4.902s-4.902 2.195-4.902 4.902v16.127C159.497 56.691 161.689 58.886 164.398 58.886z" fill="#2c2c2c" class="color242c35 svgShape"></path>
      <path d="m247.02 90.238 11.402-11.405c1.915-1.915 1.915-5.019 0-6.931-1.915-1.915-5.017-1.915-6.931 0l-11.402 11.405c-1.915 1.915-1.915 5.019 0 6.931C242.003 92.153 245.105 92.153 247.02 90.238zM276.339 170.827h16.127c2.709 0 4.902-2.195 4.902-4.902s-2.192-4.902-4.902-4.902h-16.127c-2.709 0-4.902 2.195-4.902 4.902S273.63 170.827 276.339 170.827zM36.33 170.827h16.127c2.709 0 4.902-2.195 4.902-4.902s-2.192-4.902-4.902-4.902H36.33c-2.709 0-4.902 2.195-4.902 4.902S33.621 170.827 36.33 170.827zM81.782 90.238c1.915 1.915 5.017 1.915 6.931 0 1.915-1.915 1.915-5.019 0-6.931L77.306 71.902c-1.915-1.915-5.017-1.915-6.931 0-1.915 1.915-1.915 5.019 0 6.931L81.782 90.238zM108.248 183.242c.598 1.675 1.283 3.329 2.049 4.954l-5.218 5.213c-1.913 1.918-1.916 5.02 0 6.936l21.895 21.866c1.915 1.91 5.017 1.912 6.931-.002l5.194-5.196c1.623.754 3.274 1.436 4.95 2.042v7.362c0 2.707 2.192 4.902 4.902 4.902h30.952c2.709 0 4.902-2.195 4.902-4.902v-7.365c1.685-.61 3.332-1.292 4.93-2.049l5.208 5.206c1.915 1.915 5.017 1.912 6.931.002l21.895-21.866c1.923-1.923 1.906-5.028 0-6.934l-5.213-5.215c.761-1.628 1.446-3.281 2.044-4.954h7.348c2.709 0 4.902-2.195 4.902-4.902v-30.923c0-2.707-2.192-4.902-4.902-4.902h-7.348c-.598-1.673-1.283-3.327-2.044-4.954l5.213-5.215c1.907-1.907 1.921-5.013 0-6.934l-21.895-21.866c-1.915-1.91-5.017-1.912-6.931.002l-5.203 5.203c-1.599-.754-3.25-1.438-4.935-2.046V99.34c0-2.707-2.192-4.902-4.902-4.902h-30.952c-2.709 0-4.902 2.195-4.902 4.902v7.362c-1.68.606-3.332 1.288-4.95 2.042l-5.194-5.196c-1.915-1.915-5.017-1.912-6.931-.002l-21.895 21.866c-1.915 1.915-1.914 5.018 0 6.936l5.218 5.213c-.766 1.625-1.45 3.279-2.049 4.954h-7.377c-2.709 0-4.902 2.195-4.902 4.902v30.923c0 2.707 2.192 4.902 4.902 4.902H108.248zM105.774 152.319h6.046c2.192 0 4.117-1.455 4.715-3.564.953-3.351 2.307-6.639 4.04-9.777 1.053-1.912.713-4.291-.828-5.835l-4.265-4.26 14.959-14.94 4.236 4.239c1.537 1.537 3.906 1.879 5.811.838 3.116-1.697 6.424-3.061 9.832-4.054 2.092-.608 3.533-2.525 3.533-4.705v-6.017h21.148v6.017c0 2.178 1.436 4.095 3.528 4.705 3.461 1.008 6.74 2.374 9.76 4.059 1.91 1.07 4.308.737 5.854-.814l4.265-4.267 14.959 14.94-4.26 4.263c-1.541 1.541-1.881 3.916-.828 5.828 1.728 3.145 3.088 6.436 4.035 9.782.598 2.109 2.523 3.564 4.715 3.564h6.017v21.12h-6.017c-2.192 0-4.117 1.455-4.715 3.564-.953 3.348-2.307 6.639-4.035 9.782-1.053 1.912-.713 4.287.828 5.828l4.26 4.263-14.959 14.94-4.265-4.267c-1.551-1.551-3.935-1.881-5.854-.814-3.025 1.687-6.309 3.054-9.76 4.059-2.092.61-3.528 2.527-3.528 4.705v6.017h-21.148v-6.017c0-2.18-1.441-4.098-3.533-4.705-3.399-.991-6.711-2.355-9.832-4.057-1.905-1.039-4.275-.699-5.811.838l-4.241 4.239-14.954-14.937 4.265-4.26c1.541-1.544 1.881-3.923.828-5.835-1.728-3.135-3.088-6.424-4.04-9.777-.598-2.109-2.523-3.564-4.715-3.564h-6.046V152.319z" fill="#2c2c2c" class="color242c35 svgShape"></path>
      <path d="M164.422 198.704c19.755 0 35.825-16.072 35.825-35.825s-16.07-35.825-35.825-35.825c-19.751 0-35.82 16.072-35.82 35.825S144.672 198.704 164.422 198.704zM164.422 136.857c14.346 0 26.021 11.673 26.021 26.021S178.769 188.9 164.422 188.9s-26.017-11.673-26.017-26.021S150.076 136.857 164.422 136.857zM268.005 245.411h115.876c2.709 0 4.902-2.195 4.902-4.902 0-2.707-2.192-4.902-4.902-4.902H268.005c-2.709 0-4.902 2.195-4.902 4.902C263.104 243.217 265.296 245.411 268.005 245.411zM320.355 297.763c2.709 0 4.902-2.195 4.902-4.902 0-2.707-2.192-4.902-4.902-4.902h-52.349c-2.709 0-4.902 2.195-4.902 4.902 0 2.707 2.192 4.902 4.902 4.902H320.355zM383.881 340.311H233.301c-2.709 0-4.902 2.195-4.902 4.902 0 2.707 2.192 4.902 4.902 4.902h150.581c2.709 0 4.902-2.195 4.902-4.902C388.783 342.506 386.591 340.311 383.881 340.311zM63.898 402.464h185.357c2.709 0 4.902-2.195 4.902-4.902s-2.192-4.902-4.902-4.902H63.898c-2.709 0-4.902 2.195-4.902 4.902S61.189 402.464 63.898 402.464zM63.898 454.816h256.457c2.709 0 4.902-2.195 4.902-4.902s-2.192-4.902-4.902-4.902H63.898c-2.709 0-4.902 2.195-4.902 4.902S61.189 454.816 63.898 454.816zM432.75 421.762c0 .634.124 1.264.364 1.85-.981-2.406 15.299 37.532 29.147 71.501.752 1.845 2.547 3.052 4.538 3.052 1.991 0 3.786-1.206 4.538-3.052.2-.491 31.103-76.297 29.147-71.501.239-.586.364-1.216.364-1.85 0-50.131 0-188.718 0-240.629 0-18.777-15.275-34.051-34.049-34.051s-34.049 15.275-34.049 34.051C432.75 233.441 432.75 371.697 432.75 421.762zM491.045 220.735v196.882h-19.344V220.735H491.045zM480.616 446.386h-27.633l-7.731-18.966h43.096L480.616 446.386zM461.898 417.617h-19.344V220.735h19.344V417.617zM456.979 456.189h19.641l-9.82 24.09L456.979 456.189zM442.554 181.133c0-13.37 10.876-24.248 24.245-24.248 13.37 0 24.246 10.878 24.246 24.248v29.798h-48.491V181.133z" fill="#2c2c2c" class="color242c35 svgShape"></path>
    </g>
  </g>
</svg>
