<svg xmlns="http://www.w3.org/2000/svg" enable-background="new 0 0 512 512" viewBox="0 0 512 512" id="6622001">
  <path fill="#ffffff" d="M498.197,333.825c0,6.406-2.734,12.812-8.046,17.344l-110.154,92.967
			c-12.578,10.625-28.593,16.484-45.077,16.484h-52.577c-11.953,0-23.749-3.047-34.218-8.906l-58.436-32.812
			c-8.359-4.687-17.812-7.109-27.421-7.109h-30.234l-4.609-110.154h84.607c11.094,0,22.109,1.484,32.734,4.453l96.404,26.796
			c14.219,3.906,21.328,19.922,14.609,33.046l109.841-52.655c8.984-4.219,19.609-2.266,26.406,5
			C496.165,322.653,498.197,328.2,498.197,333.825z" class="colorffffff svgShape"></path>
  <polygon fill="#0966c2" points="452.26 102.658 450.385 102.658 329.919 260.936 209.375 102.658 249.843 51.488 249.843 51.409 411.792 51.409" class="colorfdce06 svgShape"></polygon>
  <path fill="#cfd0d1" d="M121.82,268.988H13.81v175.663h108.01c16.359,0,29.62-13.262,29.62-29.621V298.608
			C151.44,282.249,138.179,268.988,121.82,268.988z" class="colorcfcfd1 svgShape"></path>
  <path fill="#707070" d="M462.258 306.269l-96.446 46.22c-1.327-14.003-10.802-23.877-22.524-27.139l-96.441-26.771c-11.352-3.143-23.063-4.738-34.82-4.738h-53.253c-2.372-18.376-17.943-32.668-36.955-32.668H13.812c-4.318 0-7.812 3.494-7.812 7.812v175.663c0 4.318 3.494 7.812 7.812 7.812h108.007c19.09 0 34.706-14.41 36.977-32.89 1.78.191 13.78-1.287 27.108 6.18l58.417 32.752c11.596 6.5 24.749 9.933 38.024 9.933h52.55c18.341 0 36.155-6.515 50.17-18.356l110.09-92.954c13.366-11.283 14.551-31.426 2.586-44.196C488.587 303.164 474.35 300.463 462.258 306.269zM143.631 415.031c0 12.024-9.788 21.804-21.812 21.804H21.625V276.797h100.195c12.024 0 21.812 9.788 21.812 21.812V415.031zM485.069 345.193l-110.09 92.954c-11.192 9.453-25.428 14.663-40.084 14.663h-52.55c-10.612 0-21.118-2.747-30.38-7.934l-58.417-32.752c-17.096-9.572-32.733-8-34.293-8.179v-94.48h52.771c10.345 0 20.66 1.404 30.647 4.173l96.433 26.771c9.442 2.62 14.16 13.242 9.72 22.01-3.227 6.37-10.353 9.743-17.311 8.133l-75.331-17.097c-4.249-.938-8.4 1.678-9.353 5.89-.954 4.211 1.686 8.392 5.89 9.353 79.238 17.712 76.059 17.875 82.266 17.875 10.588 0 20.525-5.463 26.268-14.578l107.762-51.643c5.913-2.83 12.855-1.518 17.318 3.258C492.156 329.824 491.632 339.645 485.069 345.193zM202.708 106.649c1.233 2.075-9.808-12.727 119.528 155.89 3.63 5.486 3.971 6.41 8.21 6.101 2.983.163 5.185-1.119 6.594-2.966C469.18 93.326 457.52 108.901 458.845 106.763c.436-.702.921-1.48 1.129-3.035.206-1.518-.166-3.406-.706-4.493-.624-1.272-40.641-51.812-41.534-52.868-.633-.752-1.398-1.349-2.253-1.812-.857-.461-2.297-.965-3.618-.979-.017 0-.032-.011-.049-.011-.004 0-.007.003-.011.003-.007 0-.012-.003-.019-.003-56.633 0-105.297 0-161.93 0-1.219 0-2.606.432-3.558.928-.942.487-1.775 1.136-2.454 1.966-.64.783-41.364 52.169-40.603 51.388-1.125 1.43-1.567 3.035-1.616 4.609C201.57 104.205 201.894 105.286 202.708 106.649zM225.203 110.503h57.229l29.61 113.098L225.203 110.503zM329.891 230.068l-31.303-119.565h62.598L329.891 230.068zM355.167 94.878h-48.705l24.369-30.873L355.167 94.878zM346.753 227.356l30.583-116.853h59.082L346.753 227.356zM387.423 94.878l24.383-30.891 24.352 30.891H387.423zM371.294 90.062l-24.336-30.873h48.705L371.294 90.062zM290.328 90.057l-24.338-30.868h48.711L290.328 90.057zM249.861 64.006l24.336 30.873h-48.705L249.861 64.006z" class="color3e3e3e svgShape"></path>
</svg>
