<svg xmlns="http://www.w3.org/2000/svg" enable-background="new 0 0 512 512" viewBox="0 0 512 512" id="6621989">
  <path fill="#ffffff" d="M376.785,458.77v-43.915c0-61.956-50.225-112.182-112.182-112.182h-17.207
			c-61.956,0-112.181,50.225-112.181,112.181v43.915c0,21.767,17.645,39.412,39.412,39.412h162.745
			C359.139,498.182,376.785,480.537,376.785,458.77z" class="colorffffff svgShape"></path>
  <path fill="#0966c2" d="M242.533,357.182l-10.146,72.537c-0.59,4.22,0.834,8.473,3.847,11.486l10.19,10.19
			c5.304,5.305,13.905,5.305,19.209,0l10.132-10.132c3.014-3.014,4.439-7.269,3.847-11.49l-10.175-72.596
			c-0.94-6.708-6.678-11.698-13.451-11.698h0C249.211,345.481,243.472,350.473,242.533,357.182z" class="colorcfcfd1 svgShape"></path>
  <path fill="#818181" d="M333.655,144.376c0,34.062-21.953,63.046-52.499,73.514v19.609
			c0,13.893-11.263,25.156-25.156,25.156h0c-13.893,0-25.156-11.263-25.156-25.156V217.89
			c-30.546-10.469-52.499-39.452-52.499-73.514c0-42.811,34.765-77.576,77.655-77.576S333.655,101.565,333.655,144.376z" class="colorfdce06 svgShape"></path>
  <path fill="#707070" d="M174.629,505.994h162.743c26.039,0,47.225-21.186,47.225-47.225v-43.914
			c0-66.164-53.828-119.996-119.992-119.996h-17.208c-66.164,0-119.992,53.832-119.992,119.996v43.914
			C127.404,484.808,148.59,505.994,174.629,505.994z M143.028,414.856c0-57.551,46.821-104.372,104.368-104.372h17.208
			c57.547,0,104.368,46.821,104.368,104.372v43.914c0,17.425-14.175,31.6-31.6,31.6H174.629c-17.425,0-31.6-14.175-31.6-31.6
			V414.856z" class="color3e3e3e svgShape"></path>
  <path fill="#707070" d="M240.9 456.919c4.04 4.043 9.414 6.267 15.129 6.267 5.714 0 11.089-2.224 15.129-6.267l10.132-10.132c4.726-4.723 6.988-11.493 6.058-18.097l-10.174-72.596c-1.469-10.505-10.578-18.428-21.186-18.428-10.612 0-19.722 7.923-21.19 18.432l-10.147 72.546c-.923 6.607 1.343 13.37 6.061 18.085L240.9 456.919zM250.269 358.266c.397-2.838 2.857-4.974 5.718-4.974 2.861 0 5.318 2.136 5.714 4.97l10.174 72.604c.252 1.778-.359 3.601-1.633 4.875l-10.132 10.132c-2.251 2.251-5.913 2.251-8.163 0l-10.189-10.189c-1.27-1.274-1.884-3.097-1.636-4.879L250.269 358.266zM170.532 144.377c0 34.652 20.877 65.68 52.5 78.901v14.221c0 18.18 14.789 32.97 32.966 32.97 18.18 0 32.97-14.789 32.97-32.97v-14.221c31.623-13.221 52.501-44.249 52.501-78.901 0-47.084-38.341-85.39-85.466-85.39C208.872 58.987 170.532 97.293 170.532 144.377zM256.002 74.611c38.512 0 69.842 31.295 69.842 69.765 0 29.868-18.978 56.445-47.221 66.126-3.159 1.08-5.279 4.051-5.279 7.389v19.607c0 9.563-7.782 17.345-17.345 17.345-9.563 0-17.341-7.782-17.341-17.345v-19.607c0-3.338-2.121-6.309-5.279-7.389-28.243-9.681-47.221-36.258-47.221-66.126C186.156 105.906 217.49 74.611 256.002 74.611z" class="color3e3e3e svgShape"></path>
  <path fill="#707070" d="M241.628 152.769h16.422l-9.113 19.317c-1.842 3.902-.172 8.56 3.731 10.399 1.08.507 2.212.751 3.33.748 2.93 0 5.737-1.656 7.068-4.478l14.37-30.463c1.144-2.422.965-5.257-.465-7.519-1.434-2.258-3.925-3.628-6.599-3.628h-15.239l11.215-19.504c2.151-3.742.862-8.518-2.876-10.666-3.746-2.148-8.518-.862-10.666 2.876l-17.948 31.211c-1.392 2.418-1.389 5.394.008 7.809C236.261 151.281 238.84 152.769 241.628 152.769zM263.81 27.23V13.818c0-4.314-3.498-7.812-7.812-7.812-4.314 0-7.812 3.498-7.812 7.812V27.23c0 4.314 3.498 7.812 7.812 7.812C260.312 35.042 263.81 31.544 263.81 27.23zM353.988 46.593c-3.052-3.052-8.003-3.052-11.047 0l-9.483 9.487c-3.052 3.052-3.052 7.999 0 11.047 1.526 1.526 3.525 2.289 5.524 2.289 1.999 0 4.002-.763 5.524-2.289l9.483-9.487C357.04 54.588 357.04 49.641 353.988 46.593zM158.012 242.573c1.526 1.526 3.525 2.289 5.524 2.289s3.998-.763 5.524-2.289l9.483-9.483c3.052-3.052 3.052-7.995 0-11.047-3.052-3.052-7.995-3.052-11.047 0l-9.483 9.483C154.96 234.577 154.96 239.521 158.012 242.573zM394.579 144.583c0-4.314-3.498-7.812-7.812-7.812h-13.412c-4.314 0-7.812 3.498-7.812 7.812 0 4.314 3.498 7.812 7.812 7.812h13.412C391.081 152.395 394.579 148.897 394.579 144.583zM146.458 144.583c0-4.314-3.498-7.812-7.812-7.812h-13.412c-4.314 0-7.812 3.498-7.812 7.812 0 4.314 3.498 7.812 7.812 7.812h13.412C142.96 152.395 146.458 148.897 146.458 144.583zM344.505 222.042c-3.052-3.052-7.995-3.052-11.047 0-3.052 3.052-3.052 7.995 0 11.047l9.483 9.483c1.526 1.526 3.525 2.289 5.524 2.289 1.999 0 3.998-.763 5.524-2.289 3.052-3.052 3.052-7.995 0-11.047L344.505 222.042zM169.059 46.593c-3.052-3.052-7.995-3.052-11.047 0-3.052 3.052-3.052 7.995 0 11.047l9.483 9.483c1.526 1.526 3.525 2.289 5.524 2.289s3.998-.763 5.524-2.289c3.052-3.052 3.052-7.995 0-11.047L169.059 46.593z" class="color3e3e3e svgShape"></path>
</svg>
