<svg xmlns="http://www.w3.org/2000/svg" xml:space="preserve" viewBox="0 0 512 512" enable-background="new 0 0 512 512" id="11962824">
  <g id="_x31_4_Customers" fill="#000000" class="color000000 svgShape">
    <g fill="#000000" class="color000000 svgShape">
      <g fill="#000000" class="color000000 svgShape">
        <path d="M200.52,302.52v12.512H85.301c-6.91,0-12.512-5.602-12.512-12.512v0
				c0-35.272,28.593-63.865,63.865-63.865h0C171.927,238.655,200.52,267.248,200.52,302.52z" fill="#707070" class="color576066 svgShape"></path>
      </g>
      <g fill="#000000" class="color000000 svgShape">
        <path d="M439.212,302.52L439.212,302.52c0,6.91-5.602,12.512-12.512,12.512H311.481V302.52
				c0-35.272,28.593-63.865,63.865-63.865h0C410.618,238.655,439.212,267.248,439.212,302.52z" fill="#0966c2" class="color5a83fc svgShape"></path>
      </g>
      <g opacity=".3" fill="#000000" class="color000000 svgShape">
        <g fill="#000000" class="color000000 svgShape">
          <path d="M421.023,257.848c-8.018-3.64-16.911-5.668-26.311-5.668c-34.974,0-63.313,28.062-63.819,62.852
					h-19.399v-12.533c0-9.032,1.889-17.602,5.253-25.39c9.815-22.625,32.348-38.476,58.613-38.476
					c17.648,0,33.591,7.142,45.157,18.708C420.701,257.525,420.839,257.663,421.023,257.848z" fill="#ffffff" class="colorffffff svgShape"></path>
        </g>
      </g>
      <g fill="#000000" class="color000000 svgShape">
        <path d="M169.217,199.549v26.946c0,17.984-14.579,32.562-32.562,32.562h0
				c-17.984,0-32.562-14.579-32.562-32.562v-26.946c0-17.984,14.579-32.562,32.562-32.562h0
				C154.639,166.986,169.217,181.565,169.217,199.549z" fill="#ffffff" class="colorffffff svgShape"></path>
      </g>
      <g fill="#000000" class="color000000 svgShape">
        <path d="M407.909,199.549v26.946c0,17.984-14.579,32.562-32.562,32.562h0
				c-17.984,0-32.563-14.579-32.563-32.562v-26.946c0-17.984,14.579-32.562,32.563-32.562h0
				C393.33,166.986,407.909,181.565,407.909,199.549z" fill="#ffffff" class="colorffffff svgShape"></path>
      </g>
      <g fill="#000000" class="color000000 svgShape">
        <path d="M217.638,441.751L217.638,441.751c6.581-6.581,15.508-10.279,24.816-10.279h71.948
				c8.222,0,14.887-6.665,14.887-14.887v0c0-8.222-6.665-14.887-14.887-14.887h-64.219c-10.979,0-21.873-1.919-32.19-5.671h0
				c-10.318-3.752-21.212-5.671-32.19-5.671h-42.243v84.358l99.528,24.465c17.484,4.298,35.965,1.294,51.188-8.321l117.387-74.139
				c9.93-6.272,10.62-20.5,1.342-27.702v0c-4.854-3.768-11.369-4.612-17.023-2.205l-66.692,28.394" fill="#ffffff" class="colorffffff svgShape"></path>
      </g>
      <g fill="#000000" class="color000000 svgShape">
        <path d="M75.741,483.812V381.259c0-8.548,6.93-15.477,15.477-15.477h36.862
				c8.548,0,15.477,6.93,15.477,15.477v102.553c0,8.548-6.93,15.477-15.477,15.477H91.219
				C82.671,499.29,75.741,492.36,75.741,483.812z" fill="#ccdff2" class="colord9f2cc svgShape"></path>
      </g>
      <g opacity=".3" fill="#000000" class="color000000 svgShape">
        <g fill="#000000" class="color000000 svgShape">
          <path d="M143.558,381.242v3.318c-5.852-4.746-13.27-7.603-21.334-7.603
					c-18.708,0-33.914,15.206-33.914,33.914v65.709c0,8.755,3.364,16.727,8.847,22.717h-5.944c-8.525,0-15.482-6.958-15.482-15.482
					V381.242c0-8.525,6.958-15.483,15.482-15.483h36.863C136.646,365.759,143.558,372.717,143.558,381.242z" fill="#ffffff" class="colorffffff svgShape"></path>
        </g>
      </g>
      <g fill="#000000" class="color000000 svgShape">
        <path d="M125.133,414.528c0,8.523-6.942,15.465-15.5,15.465c-8.523,0-15.465-6.942-15.465-15.465
				c0-8.557,6.942-15.5,15.465-15.5C118.191,399.028,125.133,405.97,125.133,414.528z" fill="#ffffff" class="colorffffff svgShape"></path>
      </g>
      <g fill="#000000" class="color000000 svgShape">
        <path d="M340.516,351.539L340.516,351.539c0,9.144-7.413,16.557-16.557,16.557H188.042
				c-9.144,0-16.557-7.413-16.557-16.557v0c0-46.676,37.839-84.515,84.515-84.515h0
				C302.677,267.024,340.516,304.863,340.516,351.539z" fill="#aeaeae" class="colorf66866 svgShape"></path>
      </g>
      <g opacity=".3" fill="#000000" class="color000000 svgShape">
        <g fill="#000000" class="color000000 svgShape">
          <path d="M316.448,292.423c-10.61-4.817-22.379-7.501-34.818-7.501c-46.282,0-83.783,37.136-84.454,83.174
					h-9.115c-9.144,0-16.557-7.413-16.557-16.557v-0.029c0-46.648,37.806-84.515,84.515-84.515c23.355,0,44.453,9.451,59.758,24.757
					C316.021,291.996,316.204,292.178,316.448,292.423z" fill="#ffffff" class="colorffffff svgShape"></path>
        </g>
      </g>
      <g fill="#000000" class="color000000 svgShape">
        <path d="M299.091,215.274v35.658c0,23.798-19.292,43.091-43.091,43.091h0
				c-23.798,0-43.091-19.292-43.091-43.091v-35.658c0-23.798,19.292-43.091,43.091-43.091h0
				C279.799,172.183,299.091,191.475,299.091,215.274z" fill="#ffffff" class="colorffffff svgShape"></path>
      </g>
      <g fill="#000000" class="color000000 svgShape">
        <path d="M165.482,184.424c-16.865,12.119-36.356,20.551-56.862,23.316
				c-1.475,0.23-2.995,0.369-4.516,0.461v-8.663c0-17.971,14.561-32.532,32.532-32.532c8.985,0,17.141,3.64,23.039,9.538
				C161.98,178.848,163.961,181.521,165.482,184.424z" fill="#707070" class="color576066 svgShape"></path>
      </g>
      <g fill="#000000" class="color000000 svgShape">
        <path d="M401.175,179.816c-0.461,0.415-0.921,0.783-1.382,1.152c-16.634,12.948-36.264,22.348-57,26.035
				v-7.465c0-17.971,14.561-32.532,32.532-32.532c8.985,0,17.142,3.64,23.039,9.538
				C399.379,177.558,400.346,178.664,401.175,179.816z" fill="#707070" class="color576066 svgShape"></path>
      </g>
      <g fill="#000000" class="color000000 svgShape">
        <path d="M293.627,194.239c-1.797,1.567-3.64,3.087-5.53,4.562c-17.833,13.916-39.121,23.731-61.561,26.818
				c-4.562,0.599-9.17,0.922-13.639,0.046v-10.414c0-23.777,19.307-43.084,43.084-43.084c11.935,0,22.717,4.838,30.505,12.626
				C289.296,187.604,291.692,190.783,293.627,194.239z" fill="#707070" class="color576066 svgShape"></path>
      </g>
      <g fill="#000000" class="color000000 svgShape">
        <path d="M292.773,97.612l6.821,39.711c1.03,5.999-5.266,10.575-10.654,7.743l-35.678-18.754
				l-35.678,18.754c-5.388,2.832-11.684-1.744-10.654-7.743l6.821-39.711L184.894,69.49c-4.358-4.247-1.955-11.648,4.067-12.526
				l39.876-5.807l17.841-36.139c2.694-5.457,10.475-5.457,13.169,0l17.841,36.139l39.876,5.807
				c6.022,0.877,8.425,8.278,4.067,12.526L292.773,97.612z" fill="#ccdff2" class="colord9f2cc svgShape"></path>
      </g>
      <g opacity=".3" fill="#000000" class="color000000 svgShape">
        <g fill="#000000" class="color000000 svgShape">
          <path d="M277.638,51.031c-25.528,20.643-42.531,51.332-44.973,86.122l-15.068,7.925
					c-5.391,2.811-11.704-1.751-10.644-7.741l6.82-39.72l-28.892-28.108c-4.331-4.285-1.935-11.658,4.101-12.534l39.858-5.806
					l17.833-36.172c2.719-5.437,10.46-5.437,13.179,0L277.638,51.031z" fill="#ffffff" class="colorffffff svgShape"></path>
        </g>
      </g>
      <g fill="#000000" class="color000000 svgShape">
        <path d="M152.451,113.721l3.221,18.753c1.03,5.999-5.266,10.575-10.654,7.743l-16.85-8.857l-16.85,8.857
				c-5.388,2.832-11.684-1.744-10.654-7.743l3.221-18.753L90.257,100.44c-4.358-4.247-1.955-11.648,4.067-12.526l18.834-2.743
				l8.427-17.07c2.694-5.457,10.475-5.457,13.169,0l8.427,17.07l18.834,2.743c6.022,0.877,8.425,8.278,4.067,12.526L152.451,113.721
				z" fill="#0966c2" class="color5a83fc svgShape"></path>
      </g>
      <g fill="#000000" class="color000000 svgShape">
        <path d="M402.558,113.721l3.221,18.753c1.03,5.999-5.266,10.575-10.654,7.743l-16.85-8.857l-16.85,8.857
				c-5.388,2.832-11.684-1.744-10.654-7.743l3.221-18.753l-13.629-13.282c-4.358-4.247-1.955-11.648,4.067-12.526l18.834-2.743
				l8.427-17.07c2.694-5.457,10.475-5.457,13.169,0l8.427,17.07l18.834,2.743c6.022,0.877,8.425,8.278,4.067,12.526L402.558,113.721
				z" fill="#d9dee3" class="colord9dde3 svgShape"></path>
      </g>
      <g opacity=".3" fill="#000000" class="color000000 svgShape">
        <g fill="#000000" class="color000000 svgShape">
          <path d="M366.887,124.205c0,4.285,0.507,8.433,1.475,12.395l-6.912,3.64
					c-5.391,2.811-11.704-1.751-10.69-7.787l3.226-18.754l-13.639-13.271c-4.331-4.239-1.935-11.658,4.101-12.533l18.8-2.719
					l8.433-17.095c2.719-5.437,10.506-5.437,13.179,0l5.991,12.119C376.425,89.553,366.887,105.773,366.887,124.205z" fill="#ffffff" class="colorffffff svgShape"></path>
        </g>
      </g>
      <path d="M85.3,319.933h87.088c-3.736,9.829-5.803,20.476-5.803,31.605c0,11.833,9.626,21.46,21.455,21.46
			h135.918c11.833,0,21.46-9.626,21.46-21.46c0-11.129-2.068-21.775-5.804-31.605H426.7c9.602,0,17.415-7.812,17.415-17.412
			c0-25.656-14.165-48.009-35.047-59.821c2.369-4.913,3.736-10.396,3.736-16.207v-26.955c0-20.378-16.496-37.433-37.476-37.433
			c-20.641,0-37.433,16.792-37.433,37.433c0,0.923,0,27.529,0,26.955c0,5.734,1.317,11.252,3.736,16.266
			c-14.631,8.282-25.937,21.709-31.399,37.858c-3.68-2.816-7.565-5.372-11.661-7.6c3.457-6.623,5.442-14.13,5.442-22.102v-35.665
			c0-26.131-21.131-47.986-48.032-47.986c-26.457,0-47.984,21.527-47.984,47.986c0,0.561,0,36.918,0,35.665
			c0,7.832,1.886,15.368,5.405,22.119c-4.109,2.237-8.005,4.807-11.694,7.636c-5.461-16.16-16.724-29.614-31.364-37.899
			c2.391-4.931,3.772-10.44,3.772-16.278v-26.955c0-20.422-16.528-37.433-37.481-37.433c-20.641,0-37.433,16.792-37.433,37.433
			c0,0.974,0,28.099,0,26.955c0,5.717,1.31,11.22,3.717,16.222c-20.874,11.814-35.033,34.156-35.033,59.806
			C67.886,312.121,75.698,319.933,85.3,319.933z M347.697,226.494v-15.522c18.22-3.891,36.082-12.096,52.225-24.03
			c2.007,3.841,3.077,8.113,3.077,12.598v26.955c0,15.261-12.412,27.678-27.673,27.678
			C360.106,254.171,347.697,241.833,347.697,226.494z M347.697,199.539c0-15.234,12.393-27.63,27.63-27.63
			c6.777,0,13.219,2.363,18.633,7.329c-14.297,10.553-30.127,17.994-46.263,21.756V199.539z M347.018,250.962
			c7.535,8.708,17.804,13.013,28.309,13.013c11.347,0,21.511-5.089,28.389-13.082c18.21,10.046,30.595,29.402,30.595,51.629
			c0,4.196-3.413,7.609-7.611,7.609h-91.546c-4.407-8.371-10.06-15.988-16.782-22.534
			C322.507,271.817,333.044,258.674,347.018,250.962z M217.801,250.916v-19.855c2.284,0.057,4.468,0.063,9.401-0.587
			c22.061-3.033,44.48-12.463,64.61-28.384c1.544,4.194,2.397,8.646,2.397,13.162v35.665c0,21.055-17.151,38.182-38.228,38.182
			C234.466,289.099,217.801,271.584,217.801,250.916z M217.801,215.252c0-21.055,17.127-38.182,38.18-38.182
			c12.186,0,23.722,5.636,31.178,16.211c-17.83,14.463-38.974,24.415-61.264,27.479c-2.513,0.328-5.318,0.603-8.095,0.524V215.252z
			 M255.981,298.902c14.993,0,28.393-6.905,37.208-17.69c25.203,13.376,42.427,39.862,42.427,70.327
			c0,6.426-5.227,11.656-11.656,11.656H188.041c-6.424,0-11.651-5.23-11.651-11.656c0-30.454,17.212-56.932,42.398-70.314
			C228.24,292.772,241.756,298.902,255.981,298.902z M109.005,226.494v-13.866c19.14-2.858,36.484-9.135,54.185-20.74
			c0.713,2.473,1.123,5.045,1.123,7.651v26.955c0,15.261-12.417,27.678-27.678,27.678
			C121.421,254.171,109.005,241.828,109.005,226.494z M109.005,199.539c0-15.234,12.393-27.63,27.63-27.63
			c8.572,0,16.795,3.901,22.204,11.156c-15.559,10.402-32.653,17.164-49.834,19.674V199.539z M108.287,250.915
			c7.493,8.685,17.759,13.06,28.348,13.06c11.318,0,21.459-5.065,28.337-13.022c13.993,7.716,24.462,20.916,28.595,36.714
			c-6.692,6.53-12.323,14.122-16.715,22.464H85.3c-4.198,0-7.611-3.413-7.611-7.609C77.689,280.298,90.078,260.957,108.287,250.915z
			" fill="#2c2c2c" class="color242c35 svgShape"></path>
      <path d="M128.08 360.88H91.217c-11.235 0-20.378 9.141-20.378 20.378v102.554c0 11.237 9.143 20.38 20.378 20.38h36.864c11.24 0 20.383-9.143 20.383-20.38v-2.845l93.454 22.974c18.582 4.569 38.643 1.379 54.977-8.937l117.384-74.139c12.785-8.077 13.686-26.444 1.733-35.72-6.261-4.856-14.672-5.938-21.948-2.841l-61.593 26.22c-3.092-6.905-10.029-11.728-18.07-11.728h-64.216c-10.44 0-20.708-1.809-30.516-5.376-10.885-3.959-22.278-5.967-33.867-5.967h-37.338v-4.196C148.463 370.021 139.32 360.88 128.08 360.88zM109.632 425.091c-5.826 0-10.565-4.739-10.565-10.565 0-5.845 4.739-10.598 10.565-10.598 5.845 0 10.598 4.753 10.598 10.598C120.23 420.352 115.477 425.091 109.632 425.091zM138.659 483.812c0 5.833-4.744 10.577-10.579 10.577h-13.528v-60.161c8.867-2.213 15.481-10.173 15.481-19.7 0-11.249-9.152-20.402-20.402-20.402-11.23 0-20.368 9.152-20.368 20.402 0 9.538 6.618 17.507 15.486 19.71v60.152H91.217c-5.83 0-10.574-4.744-10.574-10.577V381.258c0-5.83 4.744-10.574 10.574-10.574h36.864c5.835 0 10.579 4.744 10.579 10.574C138.659 406.734 138.659 458.498 138.659 483.812zM185.801 395.257c10.44 0 20.708 1.809 30.516 5.378 10.885 3.956 22.283 5.964 33.867 5.964H314.4c5.505 0 9.985 4.48 9.985 9.985s-4.48 9.985-9.985 9.985h-71.947c-10.684 0-20.727 4.16-28.281 11.716-1.915 1.915-1.915 5.017 0 6.931 1.915 1.915 5.017 1.915 6.931 0 5.706-5.704 13.284-8.844 21.349-8.844H314.4c10.273 0 18.741-7.865 19.698-17.889l63.804-27.163c4.016-1.709 8.65-1.108 12.096 1.568 6.574 5.106 6.138 15.207-.957 19.684l-117.384 74.139c-14.011 8.853-31.292 11.663-47.404 7.707l-95.79-23.549v-75.613H185.801zM328.153 60.452c-1.45-4.466-5.237-7.659-9.88-8.339l-37.328-5.435-16.701-33.829c-2.077-4.21-6.285-6.824-10.981-6.824-4.696 0-8.904 2.614-10.981 6.824l-16.701 33.829-37.328 5.435c-4.643.68-8.43 3.873-9.88 8.339s-.258 9.275 3.102 12.551l27.012 26.321-6.386 37.172c-.795 4.627 1.072 9.215 4.868 11.974 3.791 2.757 8.736 3.126 12.896.936l33.398-17.556 33.398 17.556c4.142 2.181 9.091 1.833 12.896-.936 3.796-2.76 5.663-7.348 4.868-11.977l-6.386-37.17 27.012-26.321C328.411 69.726 329.603 64.918 328.153 60.452zM318.205 65.98l-28.855 28.12c-1.154 1.127-1.68 2.75-1.407 4.342l6.821 39.709c.23 1.35-.603 2.121-.972 2.389s-1.355.831-2.575.187l-35.677-18.755c-1.424-.75-3.133-.75-4.557 0l-35.677 18.755c-1.216.644-2.202.081-2.575-.187-.369-.268-1.202-1.039-.972-2.386l6.821-39.712c.273-1.592-.254-3.214-1.407-4.342l-28.855-28.12c-.986-.957-.761-2.068-.622-2.504.144-.433.618-1.465 1.972-1.661l39.875-5.806c1.594-.232 2.973-1.235 3.686-2.681L251.07 17.19c.608-1.23 1.738-1.362 2.192-1.362.455 0 1.584.132 2.192 1.362l17.841 36.138c.713 1.446 2.092 2.448 3.686 2.681l39.875 5.806c1.355.196 1.829 1.228 1.972 1.661C318.967 63.912 319.191 65.023 318.205 65.98zM172.603 91.403c-1.45-4.466-5.237-7.661-9.88-8.341l-16.29-2.372-7.286-14.76c-2.078-4.21-6.285-6.824-10.981-6.824-4.691 0-8.899 2.614-10.976 6.824l-7.29 14.76-16.285 2.372c-4.643.68-8.43 3.873-9.88 8.339-1.45 4.464-.263 9.272 3.097 12.549l11.79 11.484-2.786 16.213c-.795 4.627 1.072 9.217 4.868 11.977 3.845 2.792 8.788 3.094 12.891.933l14.571-7.659 14.571 7.659c4.155 2.188 9.105 1.824 12.896-.936 3.796-2.76 5.663-7.348 4.868-11.977l-2.786-16.211 11.78-11.484C172.862 100.676 174.054 95.867 172.603 91.403zM162.656 96.927l-13.628 13.284c-1.154 1.127-1.68 2.75-1.407 4.342l3.222 18.75c.23 1.35-.603 2.121-.972 2.389-.364.268-1.355.828-2.575.187l-16.85-8.858c-1.424-.75-3.133-.75-4.557 0l-16.855 8.858c-1.192.639-2.192.086-2.566-.184-.369-.27-1.202-1.039-.972-2.389l3.222-18.753c.273-1.592-.254-3.214-1.407-4.342L93.677 96.927c-.981-.953-.761-2.066-.618-2.499.139-.436.613-1.467 1.972-1.663l18.832-2.743c1.594-.232 2.973-1.235 3.686-2.681l8.43-17.07c.608-1.23 1.733-1.362 2.188-1.362.46 0 1.584.132 2.192 1.359l8.425 17.07c.713 1.448 2.092 2.451 3.686 2.683l18.836 2.743c1.359.196 1.833 1.228 1.972 1.661S163.637 95.972 162.656 96.927zM422.708 91.401c-1.45-4.466-5.237-7.659-9.88-8.339l-16.285-2.372-7.29-14.758c-2.073-4.208-6.28-6.824-10.972-6.826-.005 0-.005 0-.005 0-4.696 0-8.904 2.614-10.981 6.826l-7.286 14.758-16.29 2.372c-4.643.68-8.43 3.875-9.88 8.341-1.45 4.464-.258 9.272 3.102 12.546l11.785 11.484-2.786 16.213c-.795 4.627 1.072 9.215 4.868 11.974 3.791 2.76 8.736 3.123 12.896.936l14.571-7.659 14.566 7.659c4.161 2.185 9.095 1.827 12.901-.936 3.796-2.762 5.663-7.353 4.863-11.974l-2.781-16.213 11.785-11.484C422.971 100.673 424.158 95.865 422.708 91.401zM412.765 96.927l-13.628 13.284c-1.154 1.127-1.68 2.75-1.407 4.339l3.217 18.757c.23 1.348-.603 2.116-.972 2.384-.369.268-1.35.828-2.571.187l-16.85-8.858c-1.424-.75-3.133-.75-4.557 0l-16.85 8.858c-1.216.641-2.207.081-2.575-.187s-1.202-1.039-.972-2.386l3.222-18.753c.273-1.592-.254-3.214-1.407-4.342l-13.633-13.284c-.977-.955-.756-2.068-.617-2.501s.613-1.465 1.972-1.661l18.836-2.743c1.594-.232 2.973-1.235 3.686-2.683l8.425-17.068c.608-1.228 1.733-1.362 2.192-1.362.455 0 1.58.134 2.188 1.362l8.43 17.07c.713 1.446 2.092 2.448 3.686 2.681l18.832 2.743c1.359.196 1.833 1.228 1.972 1.663C413.526 94.862 413.747 95.975 412.765 96.927z" fill="#2c2c2c" class="color242c35 svgShape"></path>
    </g>
  </g>
</svg>
