<svg xmlns="http://www.w3.org/2000/svg" xml:space="preserve" viewBox="0 0 512 512" enable-background="new 0 0 512 512" id="11962821">
  <g id="_x31_1_Deal" fill="#000000" class="color000000 svgShape">
    <g fill="#000000" class="color000000 svgShape">
      <g fill="#000000" class="color000000 svgShape">
        <path d="M292.028,398.433l38.704,38.704c6.987,6.987,18.314,6.987,25.301,0l0,0
				c7.07-7.07,6.973-18.563-0.215-25.513l-83.529-80.754l-14.764-41.725l-65.477-8.345l-77.032,95.006l130.356,120.918
				c6.426,5.961,16.415,5.773,22.612-0.424v0c6.366-6.366,6.366-16.687,0-23.053l-7.731-7.731l14.132,14.173
				c7.369,7.391,19.357,7.336,26.659-0.122l0,0c7.186-7.34,7.124-19.096-0.14-26.359l-27.331-27.331l29.392,29.16
				c6.303,6.253,16.462,6.278,22.795,0.054l0,0c6.466-6.354,6.47-16.773,0.008-23.132l-33.74-33.204" fill="#ffffff" class="colorffffff svgShape"></path>
      </g>
      <g fill="#000000" class="color000000 svgShape">
        <path d="M47.566,336.617l43.408,35.542c7.889,6.459,19.511,5.345,26.029-2.496l73.438-88.343
				c6.62-7.964,5.442-19.805-2.618-26.307l-46.113-37.204c-8.049-6.494-19.854-5.155-26.245,2.977L44.731,310.79
				C38.488,318.735,39.748,330.215,47.566,336.617z" fill="#d9dee3" class="colord9dde3 svgShape"></path>
      </g>
      <g opacity=".3" fill="#000000" class="color000000 svgShape">
        <g fill="#000000" class="color000000 svgShape">
          <path d="M190.44,281.325l-7.082,8.558c-2.459-8.754-7.574-16.82-15.148-22.968l-3.935-3.197
					c-19.673-15.837-48.445-12.591-64.085,7.279l-37.772,48.101c-5.213,6.64-8.312,14.263-9.296,22.083l-5.558-4.574
					c-7.82-6.394-9.099-17.853-2.853-25.821l70.774-90.004c6.344-8.115,18.198-9.443,26.215-2.951l46.133,37.182
					C195.9,261.504,197.08,273.357,190.44,281.325z" fill="#ffffff" class="colorffffff svgShape"></path>
        </g>
      </g>
      <g fill="#000000" class="color000000 svgShape">
        <path d="M317.545,274.38l76.711,92.759l-42.478,40.578l-79.488-76.847l-27.461,17.613
				c-10.567,6.778-24.622,3.78-31.504-6.72l0,0c-6.954-10.61-3.954-24.852,6.689-31.755l41.824-27.124
				c10.142-6.577,22.072-9.849,34.15-9.366L317.545,274.38z" fill="#ffffff" class="colorffffff svgShape"></path>
      </g>
      <g fill="#000000" class="color000000 svgShape">
        <path d="M464.436,333.13l-43.408,35.542c-7.889,6.459-19.511,5.345-26.029-2.496l-73.438-88.343
				c-6.62-7.964-5.442-19.805,2.618-26.307l46.113-37.204c8.049-6.494,19.854-5.155,26.245,2.977l70.733,90.005
				C473.514,315.248,472.254,326.728,464.436,333.13z" fill="#d9dee3" class="colord9dde3 svgShape"></path>
      </g>
      <g opacity=".3" fill="#000000" class="color000000 svgShape">
        <g fill="#000000" class="color000000 svgShape">
          <path d="M464.437,333.114l-8.115,6.64c-0.885-8.558-4.131-16.968-9.837-24.247l-35.707-45.445
					c-16.181-20.608-46.084-24.001-66.446-7.574l-1.23,1.033c-7.328,5.951-12.443,13.623-15.148,21.985l-6.394-7.673
					c-6.64-7.968-5.46-19.82,2.607-26.313l46.133-37.182c8.017-6.492,19.87-5.164,26.214,2.951l70.774,90.004
					C473.536,315.261,472.257,326.72,464.437,333.114z" fill="#ffffff" class="colorffffff svgShape"></path>
        </g>
      </g>
      <g fill="#000000" class="color000000 svgShape">
        <path d="M161.628,367.75l-29.656,27.994c-6.201,5.853-6.555,15.6-0.796,21.888l0,0
				c5.844,6.38,15.763,6.788,22.111,0.909l29.908-27.699c6.137-5.684,6.701-15.195,1.279-21.565l-0.252-0.296
				C178.432,362.181,168.124,361.618,161.628,367.75z" fill="#ffffff" class="colorffffff svgShape"></path>
      </g>
      <g fill="#000000" class="color000000 svgShape">
        <path d="M183.007,390.426L153.35,418.42c-6.201,5.853-6.555,15.6-0.796,21.888h0
				c5.844,6.38,15.763,6.788,22.111,0.909l29.908-27.699c6.137-5.684,6.701-15.195,1.279-21.565l-0.252-0.296
				C199.81,384.856,189.502,384.294,183.007,390.426z" fill="#ffffff" class="colorffffff svgShape"></path>
      </g>
      <g fill="#000000" class="color000000 svgShape">
        <path d="M204.295,414.611l-29.656,27.995c-6.201,5.853-6.555,15.6-0.796,21.888l0,0
				c5.844,6.38,15.763,6.788,22.111,0.909l29.908-27.699c6.137-5.684,6.701-15.195,1.279-21.565l-0.252-0.296
				C221.098,409.041,210.791,408.479,204.295,414.611z" fill="#ffffff" class="colorffffff svgShape"></path>
      </g>
      <g fill="#000000" class="color000000 svgShape">
        <path d="M219.517,444.362l-22.263,20.658c-6.295,5.841-6.694,15.667-0.894,22l0,0
				c5.807,6.34,15.645,6.795,22.013,1.019l22.485-20.396c6.248-5.667,6.867-15.271,1.399-21.694l-0.222-0.261
				C236.273,438.918,226.032,438.316,219.517,444.362z" fill="#ffffff" class="colorffffff svgShape"></path>
      </g>
      <g fill="#000000" class="color000000 svgShape">
        <circle cx="256.001" cy="140.003" r="99.418" transform="rotate(-45.001 256 140.007)" fill="#0966c2" class="color5a83fc svgShape"></circle>
      </g>
      <g opacity=".3" fill="#000000" class="color000000 svgShape">
        <g fill="#000000" class="color000000 svgShape">
          <path d="M347.342,100.799c-18.127-23.515-46.627-38.671-78.652-38.671
					c-54.935,0-99.397,44.512-99.397,99.447c0,13.898,2.82,27.09,7.956,39.074c-12.941-16.768-20.645-37.765-20.645-60.625
					c0-54.935,44.462-99.447,99.397-99.447C296.988,40.576,332.185,65.35,347.342,100.799z" fill="#ffffff" class="colorffffff svgShape"></path>
        </g>
      </g>
      <g fill="#000000" class="color000000 svgShape">
        <circle cx="256.001" cy="140.003" r="64.18" fill="#ffffff" class="colorffffff svgShape"></circle>
      </g>
      <path d="M424.132,372.465l43.407-35.54c9.811-8.035,11.419-22.68,3.585-32.649l-70.733-90.008
			c-8.07-10.265-22.976-11.999-33.175-3.76l-46.114,37.204c-6.161,4.967-9.669,12.78-8.428,21.568l-16.49-0.659
			c-13.138-0.541-25.959,2.98-37.012,10.151l-7.269,4.714l-53.43-6.811c2.954-9.118,0.158-19.24-7.571-25.478l-46.114-37.204
			c-10.11-8.154-25.043-6.59-33.175,3.765L40.878,307.76c-7.836,9.969-6.23,24.614,3.583,32.649l43.407,35.543
			c6.331,5.182,15.205,6.965,23.805,3.434c0.004,0.004,0.005,0.009,0.009,0.013l15.523,14.399
			c-6.636,7.748-6.676,19.467,0.355,27.148c3.912,4.269,9.483,6.913,16.243,6.551c-0.63,5.693,1.004,11.61,5.137,16.122
			c3.935,4.298,9.544,6.945,16.35,6.544c-1.143,6.141,0.436,12.726,4.937,17.64c4.175,4.56,10.22,7.225,17.354,6.453
			c-0.614,5.672,1.029,11.562,5.164,16.074c7.591,8.294,20.568,8.916,28.92,1.34l5.587-5.068l14.786,13.716
			c8.393,7.789,21.312,7.55,29.411-0.553c3.284-3.281,5.357-7.451,5.998-11.967c8.594,4.114,19.627,2.829,27.101-4.801
			c5-5.112,7.207-11.974,6.623-18.628c6.381,0.979,13.114-0.955,18.023-5.78c3.518-3.456,5.67-7.915,6.194-12.743
			c8.019,2.997,17.531,1.342,24.111-5.242c9.015-9.015,8.893-23.642-0.275-32.503l-0.372-0.36l36.318-34.696
			C403.72,379.466,415.715,379.354,424.132,372.465z M327.258,255.342l46.114-37.204c5.892-4.759,14.584-3.824,19.313,2.188
			l70.733,90.005c4.56,5.804,3.624,14.332-2.087,19.006l-43.41,35.54c-5.778,4.737-14.373,3.916-19.152-1.833L325.331,274.7
			C320.457,268.836,321.317,260.133,327.258,255.342z M94.079,368.365l-43.41-35.543c-5.711-4.674-6.647-13.2-2.085-19.004
			l70.733-90.005c4.695-5.975,13.371-6.984,19.313-2.19l46.114,37.204c5.911,4.771,6.82,13.473,1.927,19.361l-73.438,88.342
			C108.454,372.278,99.862,373.099,94.079,368.365z M134.792,414.323c-3.928-4.289-3.684-11.024,0.546-15.014l29.657-27.996
			c4.272-4.033,11.28-4.107,15.746,1.142c3.202,3.763,4.051,9.547-1.099,14.406c-7.488,7.077-27.578,26.005-29.825,28.188
			C145.468,418.951,138.779,418.68,134.792,414.323z M156.17,436.999c-3.855-4.21-3.667-10.762,0.34-14.776
			c6.533-6.047,31.624-29.274,30.014-27.784c5.666-5.247,11.808-3.76,15.596,0.692c3.731,4.385,3.346,10.881-0.878,14.791
			l-29.906,27.697C167.053,441.589,160.242,441.442,156.17,436.999z M177.457,461.182c-3.925-4.287-3.681-11.022,0.546-15.012
			l29.657-27.996c4.184-3.95,11.182-4.22,15.749,1.142c3.731,4.382,3.346,10.881-0.878,14.789l-29.908,27.702
			C188.309,465.805,181.507,465.597,177.457,461.182z M215.08,484.408c-4.356,3.947-11.134,3.633-15.105-0.699
			c-3.966-4.33-3.691-11.103,0.613-15.098l22.264-20.658c4.313-3.999,11.284-3.986,15.675,1.173
			c3.774,4.433,3.353,10.972-0.962,14.885L215.08,484.408z M352.568,433.672c-5.062,5.067-13.303,5.067-18.37,0
			c-53.04-53.04-34.747-34.747-38.704-38.704c-1.915-1.915-5.017-1.915-6.931,0c-0.998,0.998-1.477,2.319-1.434,3.626
			c-0.043,1.321,0.445,2.654,1.46,3.655l35.021,34.7c3.114,4.341,2.832,10.596-1.285,14.645c-4.399,4.318-11.534,4.303-15.909-0.038
			l-29.391-29.159c-1.915-1.9-5.014-1.898-6.924,0.022c-1.908,1.915-1.905,5.012,0.007,6.924l27.331,27.331
			c5.34,5.337,5.385,14.069,0.105,19.463c-5.391,5.505-14.24,5.554-19.688,0.091c-0.96-0.963-15.035-15.081-14.136-14.179
			c-1.915-1.915-5.014-1.912-6.929-0.002c-1.915,1.912-1.92,5.012-0.007,6.929l8.176,8.202c4.007,4.473,3.865,11.35-0.44,15.655
			c-4.351,4.356-11.292,4.485-15.811,0.299l-14.167-13.141l9.61-8.718c8.26-7.491,9.069-20.012,1.618-28.762
			c-3.201-3.76-7.548-6.083-12.351-6.854c3.732-7.209,2.966-16.223-2.795-22.99c-3.862-4.538-9.426-7.388-16.54-7.097
			c0.991-5.837-0.485-12.08-4.749-17.091c-3.822-4.488-9.308-7.336-16.403-7.103c0.501-5.386-1.079-10.995-4.975-15.573
			c-7.546-8.861-21.061-9.767-29.691-1.618l-24.073,22.723l-12.48-11.576l72.425-89.325l45.029,5.739l-21.819,14.151
			c-12.936,8.388-16.57,25.664-8.121,38.556c8.317,12.69,25.473,16.35,38.249,8.157l24.198-15.519
			c20.824,20.133,62.231,60.165,80.738,78.057C357.631,420.195,357.707,428.533,352.568,433.672z M351.797,400.92
			c-9.378-9.066-66.491-64.283-76.102-73.574c-1.633-1.583-4.142-1.828-6.053-0.603l-27.462,17.613
			c-8.262,5.297-19.37,2.939-24.755-5.28c-5.468-8.338-3.12-19.526,5.254-24.956l41.825-27.125
			c9.342-6.058,20.167-9.033,31.287-8.58l19.372,0.775l72.406,87.557L351.797,400.92z" fill="#707070" class="color242c35 svgShape"></path>
      <path d="M256,244.322c57.521,0,104.32-46.799,104.32-104.32S313.522,35.684,256,35.684
			S151.682,82.481,151.682,140.002S198.479,244.322,256,244.322z M256,45.488c52.117,0,94.517,42.4,94.517,94.514
			c0,52.117-42.4,94.517-94.517,94.517c-52.115,0-94.514-42.4-94.514-94.517C161.486,87.887,203.885,45.488,256,45.488z" fill="#707070" class="color242c35 svgShape"></path>
      <path d="M256,209.084c38.092,0,69.082-30.99,69.082-69.082S294.092,70.923,256,70.923
			s-69.079,30.988-69.079,69.079S217.909,209.084,256,209.084z M256,80.726c32.687,0,59.278,26.591,59.278,59.276
			c0,32.687-26.591,59.278-59.278,59.278c-32.685,0-59.276-26.591-59.276-59.278C196.724,107.317,223.315,80.726,256,80.726z" fill="#707070" class="color242c35 svgShape"></path>
      <path d="M256 165.16c-5.584 0-10.127-4.543-10.127-10.127 0-2.707-2.195-4.902-4.902-4.902-2.707 0-4.902 2.195-4.902 4.902 0 9.29 6.415 17.049 15.028 19.248v4.507c0 2.707 2.195 4.902 4.902 4.902 2.707 0 4.902-2.195 4.902-4.902v-4.507c8.614-2.199 15.031-9.958 15.031-19.248 0-10.991-8.942-19.933-19.933-19.933-5.584 0-10.127-4.543-10.127-10.127 0-5.586 4.543-10.129 10.127-10.129 5.586 0 10.129 4.543 10.129 10.129 0 2.707 2.195 4.902 4.902 4.902 2.707 0 4.902-2.195 4.902-4.902 0-9.29-6.417-17.051-15.031-19.25v-4.507c0-2.707-2.195-4.902-4.902-4.902-2.707 0-4.902 2.195-4.902 4.902v4.507c-8.614 2.2-15.028 9.96-15.028 19.25 0 10.991 8.939 19.93 19.93 19.93 5.586 0 10.129 4.543 10.129 10.129C266.129 160.617 261.586 165.16 256 165.16zM389.248 31.232l-11.962 11.962c-1.915 1.915-1.915 5.017 0 6.931 1.915 1.915 5.017 1.915 6.931 0l11.962-11.962c1.915-1.915 1.915-5.017 0-6.931C394.264 29.318 391.162 29.318 389.248 31.232zM394.693 92.155c0 2.707 2.195 4.902 4.902 4.902h16.919c2.707 0 4.902-2.195 4.902-4.902s-2.195-4.902-4.902-4.902h-16.919C396.887 87.253 394.693 89.448 394.693 92.155zM340.158 27.817V10.898c0-2.707-2.195-4.902-4.902-4.902-2.707 0-4.902 2.195-4.902 4.902v16.919c0 2.707 2.195 4.902 4.902 4.902C337.963 32.719 340.158 30.524 340.158 27.817zM134.718 50.126c1.915-1.915 1.915-5.019 0-6.931l-11.965-11.962c-1.915-1.915-5.017-1.915-6.931 0s-1.915 5.019 0 6.931l11.965 11.962C129.701 52.041 132.803 52.041 134.718 50.126zM95.489 87.253c-2.707 0-4.902 2.195-4.902 4.902s2.195 4.902 4.902 4.902h16.917c2.707 0 4.902-2.195 4.902-4.902s-2.195-4.902-4.902-4.902H95.489zM181.648 27.817V10.898c0-2.707-2.195-4.902-4.902-4.902-2.707 0-4.902 2.195-4.902 4.902v16.919c0 2.707 2.195 4.902 4.902 4.902C179.453 32.719 181.648 30.524 181.648 27.817z" fill="#707070" class="color242c35 svgShape"></path>
    </g>
  </g>
</svg>
