<svg xmlns="http://www.w3.org/2000/svg" xml:space="preserve" viewBox="0 0 512 512" enable-background="new 0 0 512 512" id="11962842">
  <g id="_x33_2_Development" fill="#000000" class="color000000 svgShape">
    <g fill="#000000" class="color000000 svgShape">
      <g fill="#000000" class="color000000 svgShape">
        <path d="M501.088,230.511v54.311c0,35.146-28.479,63.625-63.625,63.625H74.537
				c-35.146,0-63.625-28.479-63.625-63.625v-54.311c0,35.146,28.479,63.625,63.625,63.625h362.926
				C472.609,294.136,501.088,265.656,501.088,230.511z" fill="#707070" class="color576066 svgShape"></path>
      </g>
      <g fill="#000000" class="color000000 svgShape">
        <path d="M501.088,77.772v152.739c0,35.146-28.479,63.625-63.625,63.625H74.537
				c-35.146,0-63.625-28.479-63.625-63.625V77.772c0-35.146,28.479-63.625,63.625-63.625h362.926
				C472.609,14.147,501.088,42.626,501.088,77.772z" fill="#ffffff" class="colorffffff svgShape"></path>
      </g>
      <g fill="#000000" class="color000000 svgShape">
        <rect width="98.035" height="83.526" x="206.983" y="348.447" fill="#ffffff" class="colorffffff svgShape"></rect>
      </g>
      <g fill="#000000" class="color000000 svgShape">
        <path d="M357.369,497.853H154.632v-13.921c0-28.696,23.263-51.959,51.959-51.959h98.819
				c28.696,0,51.959,23.263,51.959,51.959V497.853z" fill="#d9dee3" class="colord9dde3 svgShape"></path>
      </g>
      <g opacity=".3" fill="#000000" class="color000000 svgShape">
        <g fill="#000000" class="color000000 svgShape">
          <path d="M352.941,462.918c-5.574-2.04-11.645-3.185-17.965-3.185h-98.831
					c-23.936,0-44.041,16.173-50.063,38.119h-31.451v-13.934c0-28.664,23.24-51.954,51.954-51.954h98.831
					C326.616,431.965,344.879,444.705,352.941,462.918z" fill="#ffffff" class="colorffffff svgShape"></path>
        </g>
      </g>
      <g fill="#000000" class="color000000 svgShape">
        <path d="M236.821,178.286c-1.674,5.904-4.053,11.588-6.962,16.875l12.073,12.072l-34.19,34.146
				l-12.072-12.072c-5.287,2.952-10.927,5.287-16.831,7.005v17.051h-48.334v-17.051c-5.904-1.718-11.544-4.053-16.875-6.961
				l-12.028,12.028l-34.19-34.146l12.073-12.072c-2.908-5.287-5.287-10.971-6.962-16.875H55.428v-48.289h17.095
				c1.674-5.904,4.053-11.588,6.962-16.875l-12.073-12.073l34.19-34.146l12.028,12.028c5.331-2.908,10.971-5.243,16.875-6.962
				V54.919h48.334V71.97c5.904,1.718,11.544,4.053,16.831,7.006l12.072-12.073l34.19,34.146l-12.073,12.073
				c2.908,5.287,5.287,10.971,6.962,16.875h17.051v48.289H236.821z" fill="#0966c2" class="color5a83fc svgShape"></path>
      </g>
      <g opacity=".3" fill="#000000" class="color000000 svgShape">
        <g fill="#000000" class="color000000 svgShape">
          <path d="M241.974,101.093l-7.995,7.995c-15.272-8.444-32.879-13.295-51.564-13.295
					c-54.439,0-99.446,40.784-105.823,93.606c-1.617-3.593-2.965-7.276-4.043-11.139H55.39v-48.24h17.158
					c1.617-5.929,4.043-11.588,6.917-16.889l-12.037-12.038l34.137-34.226l12.038,12.038c5.39-2.875,10.959-5.21,16.889-6.917
					V54.919h48.33v17.068c5.929,1.707,11.589,4.043,16.889,7.007l12.038-12.128L241.974,101.093z" fill="#ffffff" class="colorffffff svgShape"></path>
        </g>
      </g>
      <g fill="#000000" class="color000000 svgShape">
        <circle cx="154.67" cy="154.141" r="48.289" fill="#ffffff" class="colorffffff svgShape"></circle>
      </g>
      <path d="M437.463,9.244H74.537C36.752,9.244,6.01,39.985,6.01,77.773c0,49.121,0,157.734,0,207.051
			c0,37.783,30.741,68.524,68.526,68.524h127.544v73.951c-29.246,2.312-52.349,26.803-52.349,56.635v9.018h-21.426
			c-2.707,0-4.902,2.192-4.902,4.902s2.195,4.902,4.902,4.902c53.728,0,206.509,0,255.389,0c2.707,0,4.902-2.192,4.902-4.902
			s-2.195-4.902-4.902-4.902h-21.424v-9.018c0-29.832-23.104-54.322-52.352-56.635v-73.951h127.544
			c37.785,0,68.526-30.741,68.526-68.524c0-49.317,0-157.931,0-207.051C505.99,39.985,475.248,9.244,437.463,9.244z
			 M352.467,483.934v9.018H159.535v-9.018c0-25.95,21.108-47.06,47.055-47.06c42.918,0,55.678,0,98.82,0
			C331.357,436.874,352.467,457.984,352.467,483.934z M300.116,427.071h-88.232v-73.723h88.232V427.071z M496.186,265.801v19.023
			c0,32.378-26.342,58.721-58.723,58.721c-109.33,0-249.107,0-362.926,0c-32.381,0-58.723-26.342-58.723-58.721v-19.023
			c12.383,20.524,34.784,33.235,58.723,33.235h362.926C461.87,299.036,484.019,285.968,496.186,265.801z M496.186,230.512
			c0,32.378-26.342,58.721-58.723,58.721H74.537c-32.381,0-58.723-26.342-58.723-58.721V77.773
			c0-32.383,26.342-58.725,58.723-58.725h362.926c32.381,0,58.723,26.342,58.723,58.725V230.512z" fill="#2c2c2c" class="color242c35 svgShape"></path>
      <path d="M253.872,125.096h-13.434c-1.249-3.753-2.776-7.448-4.567-11.053l9.526-9.526
			c1.913-1.913,1.916-5.023-0.002-6.936l-34.19-34.15c-1.915-1.905-5.014-1.91-6.929,0.005l-9.516,9.516
			c-3.528-1.766-7.214-3.298-11.019-4.581V54.92c0-2.709-2.195-4.902-4.902-4.902h-48.333c-2.707,0-4.902,2.192-4.902,4.902v13.451
			c-3.774,1.273-7.468,2.796-11.043,4.557l-9.492-9.492c-1.915-1.915-5.019-1.91-6.929-0.005l-34.19,34.15
			c-1.911,1.906-1.922,5.016-0.002,6.936l9.526,9.526c-1.79,3.605-3.317,7.3-4.567,11.053H55.428c-2.707,0-4.902,2.192-4.902,4.902
			v48.29c0,2.709,2.195,4.902,4.902,4.902h13.48c1.247,3.748,2.774,7.448,4.564,11.053l-9.526,9.526
			c-1.913,1.913-1.916,5.023,0.002,6.936l34.19,34.145c1.915,1.905,5.014,1.91,6.929-0.005l9.492-9.492
			c3.571,1.762,7.266,3.289,11.043,4.562v13.451c0,2.709,2.195,4.902,4.902,4.902h48.333c2.707,0,4.902-2.192,4.902-4.902v-13.451
			c3.808-1.283,7.494-2.819,11.022-4.581l9.514,9.512c1.915,1.915,5.014,1.91,6.929,0.005l34.19-34.145
			c1.911-1.906,1.922-5.016,0.002-6.936l-9.526-9.526c1.788-3.605,3.317-7.305,4.567-11.053h13.434c2.707,0,4.902-2.192,4.902-4.902
			v-48.29C258.774,127.288,256.579,125.096,253.872,125.096z M248.97,173.386h-12.149c-2.192,0-4.117,1.455-4.715,3.561
			c-1.539,5.424-3.741,10.756-6.544,15.854c-1.051,1.91-0.711,4.284,0.831,5.826l8.604,8.607l-27.254,27.213l-8.609-8.607
			c-1.549-1.551-3.94-1.876-5.857-0.814c-4.909,2.743-10.227,4.954-15.809,6.582c-2.094,0.608-3.533,2.527-3.533,4.706v12.149
			h-38.53v-12.149c0-2.178-1.438-4.098-3.533-4.706c-5.512-1.604-10.859-3.81-15.895-6.563c-1.908-1.039-4.279-0.704-5.814,0.838
			l-8.566,8.564l-27.254-27.213l8.604-8.607c1.541-1.541,1.881-3.916,0.831-5.826c-2.805-5.103-5.005-10.435-6.541-15.849
			c-0.596-2.111-2.523-3.566-4.715-3.566H60.329v-38.486h12.195c2.192,0,4.119-1.455,4.715-3.566
			c1.537-5.419,3.736-10.751,6.539-15.845c1.053-1.915,0.716-4.289-0.828-5.83l-8.604-8.607l27.254-27.218l8.566,8.564
			c1.537,1.537,3.904,1.876,5.811,0.838c5.043-2.748,10.392-4.954,15.897-6.558c2.094-0.608,3.533-2.527,3.533-4.705V59.822h38.53
			v12.149c0,2.178,1.438,4.098,3.533,4.705c5.577,1.623,10.897,3.839,15.811,6.577c1.917,1.077,4.306,0.732,5.854-0.814l8.609-8.607
			l27.254,27.218l-8.604,8.607c-1.544,1.541-1.881,3.916-0.828,5.83c2.8,5.088,5.002,10.421,6.541,15.845
			c0.598,2.111,2.523,3.566,4.715,3.566h12.149V173.386z" fill="#2c2c2c" class="color242c35 svgShape"></path>
      <path d="M154.669 100.951c-29.329 0-53.192 23.863-53.192 53.192s23.863 53.192 53.192 53.192 53.192-23.863 53.192-53.192S183.998 100.951 154.669 100.951zM154.669 197.531c-23.925 0-43.388-19.463-43.388-43.388s19.463-43.388 43.388-43.388 43.388 19.463 43.388 43.388S178.594 197.531 154.669 197.531zM346.07 131.352c2.068 1.74 5.156 1.497 6.907-.579 1.75-2.063 1.491-5.155-.574-6.907l-33.278-28.156 33.278-28.161c2.066-1.752 2.324-4.844.574-6.912-1.747-2.063-4.84-2.317-6.907-.574l-37.699 31.905c-1.101.933-1.735 2.302-1.735 3.743s.634 2.81 1.735 3.743L346.07 131.352zM419.33 60.061c-2.066-1.742-5.155-1.489-6.907.574-1.75 2.068-1.491 5.16.574 6.912l33.278 28.161-33.278 28.156c-2.066 1.752-2.324 4.844-.574 6.907 1.749 2.072 4.836 2.323 6.907.579l37.699-31.9c1.101-.933 1.735-2.302 1.735-3.743s-.634-2.81-1.735-3.743L419.33 60.061zM357.228 159.183c2.436.994 5.346-.157 6.376-2.724l47.292-117.853c1.008-2.513-.213-5.366-2.724-6.371-2.518-1.034-5.368.211-6.376 2.724l-47.292 117.853C353.497 155.325 354.717 158.178 357.228 159.183zM311.537 192.447h61.708c2.707 0 4.902-2.192 4.902-4.902s-2.195-4.902-4.902-4.902h-61.708c-2.707 0-4.902 2.192-4.902 4.902S308.83 192.447 311.537 192.447zM453.863 215.553H311.537c-2.707 0-4.902 2.192-4.902 4.902 0 2.709 2.195 4.902 4.902 4.902h142.326c2.707 0 4.902-2.192 4.902-4.902C458.765 217.746 456.57 215.553 453.863 215.553zM382.699 248.463h-71.162c-2.707 0-4.902 2.192-4.902 4.902s2.195 4.902 4.902 4.902h71.162c2.707 0 4.902-2.192 4.902-4.902S385.406 248.463 382.699 248.463zM282.474 316.389h-52.948c-2.707 0-4.902 2.192-4.902 4.902 0 2.709 2.195 4.902 4.902 4.902h52.948c2.707 0 4.902-2.192 4.902-4.902C287.376 318.581 285.181 316.389 282.474 316.389z" fill="#2c2c2c" class="color242c35 svgShape"></path>
    </g>
  </g>
</svg>
