<svg xmlns="http://www.w3.org/2000/svg" enable-background="new 0 0 512 512" viewBox="0 0 512 512" id="6621991">
  <path fill="#ffffff" d="M474.881,165.669v283.06c0,27.312-22.141,49.453-49.453,49.453H86.569
			c-27.312,0-49.453-22.141-49.453-49.453v-283.06H474.881z" class="colorffffff svgShape"></path>
  <path fill="#0966c2" d="M474.881,165.669v-64.216c0-27.312-22.141-49.453-49.453-49.453H86.569
			c-27.312,0-49.453,22.141-49.453,49.453v64.216H474.881z" class="colorcfcfd1 svgShape"></path>
  <path fill="#818181" d="M299.429,403.082h-87.002c-6.746,0-10.72-7.571-6.88-13.118
			c5.512-7.961,11.647-16.816,12.536-18.061v-36.828c0-20.88,16.926-37.806,37.806-37.806h0.108
			c20.879,0,37.805,16.926,37.805,37.805v36.828c0.431,0.615,6.778,9.792,12.502,18.056
			C310.147,395.505,306.176,403.082,299.429,403.082z" class="colorfdce06 svgShape"></path>
  <path fill="#ffffff" d="M168.838 35.778V68.22c0 12.128-9.832 21.96-21.96 21.96h0c-12.128 0-21.96-9.832-21.96-21.96V35.778c0-12.128 9.832-21.96 21.96-21.96h0C159.006 13.818 168.838 23.65 168.838 35.778zM277.958 35.778V68.22c0 12.128-9.832 21.96-21.96 21.96h0c-12.128 0-21.96-9.832-21.96-21.96V35.778c0-12.128 9.832-21.96 21.96-21.96h0C268.126 13.818 277.958 23.65 277.958 35.778zM387.079 35.778V68.22c0 12.128-9.832 21.96-21.96 21.96h0c-12.128 0-21.96-9.832-21.96-21.96V35.778c0-12.128 9.832-21.96 21.96-21.96h0C377.247 13.818 387.079 23.65 387.079 35.778z" class="colorffffff svgShape"></path>
  <path fill="#707070" d="M482.695,165.67v-64.219c0-31.577-25.688-57.265-57.265-57.265h-30.54v-8.407
			c0-16.418-13.351-29.773-29.769-29.773s-29.777,13.355-29.777,29.773v8.407h-49.575v-8.407c0-16.418-13.351-29.773-29.769-29.773
			s-29.777,13.355-29.777,29.773v8.407h-49.575v-8.407c0-16.418-13.351-29.773-29.769-29.773s-29.777,13.355-29.777,29.773v8.407
			H86.57c-31.577,0-57.265,25.688-57.265,57.265v64.219v283.059c0,31.577,25.688,57.265,57.265,57.265h338.86
			c31.577,0,57.265-25.688,57.265-57.265V165.67z M350.969,35.779c0-7.801,6.348-14.148,14.152-14.148
			c7.797,0,14.145,6.348,14.145,14.148v32.443c0,7.801-6.348,14.145-14.145,14.145c-7.805,0-14.152-6.344-14.152-14.145V35.779z
			 M241.848,35.779c0-7.801,6.348-14.148,14.152-14.148c7.797,0,14.145,6.348,14.145,14.148v32.443
			c0,7.801-6.348,14.145-14.145,14.145c-7.805,0-14.152-6.344-14.152-14.145V35.779z M132.727,35.779
			c0-7.801,6.348-14.148,14.152-14.148c7.797,0,14.145,6.348,14.145,14.148v32.443c0,7.801-6.348,14.145-14.145,14.145
			c-7.805,0-14.152-6.344-14.152-14.145V35.779z M44.93,101.451c0-22.96,18.676-41.64,41.64-41.64h30.532v8.411
			c0,16.414,13.359,29.769,29.777,29.769s29.769-13.355,29.769-29.769v-8.411h49.575v8.411c0,16.414,13.359,29.769,29.777,29.769
			s29.769-13.355,29.769-29.769v-8.411h49.575v8.411c0,16.414,13.359,29.769,29.777,29.769s29.769-13.355,29.769-29.769v-8.411
			h30.54c22.964,0,41.64,18.68,41.64,41.64v56.407H44.93V101.451z M467.07,448.729c0,22.96-18.676,41.64-41.64,41.64H86.57
			c-22.964,0-41.64-18.68-41.64-41.64V173.482h422.14V448.729z" class="color3e3e3e svgShape"></path>
  <path fill="#707070" d="M198.094 402.226c2.808 5.348 8.293 8.667 14.335 8.667h35.758v14.492c0 4.314 3.494 7.812 7.812 7.812s7.812-3.498 7.812-7.812v-14.492h35.613c6.035 0 11.528-3.323 14.328-8.667 2.808-5.344 2.411-11.749-1.022-16.716l-11.116-16.048v-34.389c0-22.49-16.374-41.183-37.894-44.898v-9.086c0-4.314-3.494-7.812-7.812-7.812s-7.812 3.498-7.812 7.812v9.085c-21.445 3.716-37.826 22.412-37.826 44.903v34.366c-2.335 3.353-6.927 9.979-11.146 16.079C195.691 390.484 195.294 396.885 198.094 402.226zM224.446 376.431c.946-1.32 1.45-2.903 1.45-4.528v-36.826c0-16.54 13.458-29.994 30.105-29.994 16.54 0 29.99 13.454 29.99 29.99v36.83c0 1.595.488 3.151 1.396 4.463l8.491 12.256 4.043 6.348c-.16.298-.351.298-.496.298h-43.388c-.013 0-.024-.008-.038-.008-.013 0-.024.008-.038.008H212.43l-.458-.858C217.457 386.486 223.568 377.671 224.446 376.431zM318.819 246.277c29.044.004 52.68 23.635 52.68 52.684 0 4.314 3.494 7.812 7.812 7.812 4.318 0 7.812-3.498 7.812-7.812 0-37.662-30.639-68.304-68.304-68.308-4.311 0-7.812 3.498-7.812 7.812C311.007 242.779 314.501 246.277 318.819 246.277zM318.819 294.676c2.327 0 4.288 1.961 4.288 4.284 0 4.314 3.494 7.812 7.812 7.812s7.812-3.498 7.812-7.812c0-10.978-8.934-19.908-19.912-19.908-4.318 0-7.812 3.498-7.812 7.812C311.007 291.178 314.501 294.676 318.819 294.676zM132.681 306.772c4.318 0 7.812-3.498 7.812-7.812 0-29.048 23.635-52.68 52.687-52.684 4.318 0 7.812-3.498 7.812-7.812 0-4.314-3.502-7.812-7.812-7.812-37.665.004-68.312 30.647-68.312 68.308C124.869 303.274 128.363 306.772 132.681 306.772zM200.993 286.864c0-4.314-3.494-7.812-7.812-7.812-10.978 0-19.912 8.93-19.912 19.908 0 4.314 3.494 7.812 7.812 7.812s7.812-3.498 7.812-7.812c0-2.323 1.961-4.284 4.288-4.284C197.499 294.676 200.993 291.178 200.993 286.864z" class="color3e3e3e svgShape"></path>
</svg>
