<svg xmlns="http://www.w3.org/2000/svg" xml:space="preserve" viewBox="0 0 512 512" enable-background="new 0 0 512 512" id="11962819">
  <g id="_x30_9_Early_Bird" fill="#0966c2" class="color000000 svgShape">
    <g fill="#0966c2" class="color000000 svgShape">
      <g fill="#0966c2" class="color000000 svgShape">
        <ellipse cx="156.302" cy="158.213" rx="145.381" ry="145.38" transform="rotate(-45.001 156.3 158.216)" fill="#ccdff2" class="colord9f2cc svgShape"></ellipse>
      </g>
      <g opacity=".3" fill="#0966c2" class="color000000 svgShape">
        <g fill="#0966c2" class="color000000 svgShape">
          <path d="M270.751,68.518C244.635,43.569,209.23,28.25,170.323,28.25
					C90.029,28.25,24.91,93.321,24.91,173.615c0,33.849,11.574,64.974,30.979,89.68c-27.721-26.408-44.986-63.758-44.986-105.097
					c0-80.294,65.12-145.365,145.414-145.365C202.762,12.833,244.149,34.621,270.751,68.518z" fill="#ffffff" class="colorffffff svgShape"></path>
        </g>
      </g>
      <g fill="#0966c2" class="color000000 svgShape">
        <path d="M156.301,267.902c-60.483,0-109.69-49.207-109.69-109.69S95.818,48.524,156.301,48.524
				s109.69,49.205,109.69,109.688S216.784,267.902,156.301,267.902z" fill="#ffffff" class="colorffffff svgShape"></path>
      </g>
      <g fill="#0966c2" class="color000000 svgShape">
        <path d="M501.079,117.697c0,16.677-62.074,24.428-62.074,24.428V93.269
				C439.005,93.269,501.079,101.02,501.079,117.697z" fill="#707070" class="color576066 svgShape"></path>
      </g>
      <g fill="#0966c2" class="color000000 svgShape">
        <path d="M451.979,310.692c-19.651,37.646-44.554,64.639-74.193,81.983
				c-8.916,5.225-18.267,9.568-28.038,13.055v0.014c-24.722,8.874-52.129,12.308-81.965,10.776c-1.814-0.093-3.661-0.29-5.469-0.473
				c-16.703-1.685-31.257,1.779-43.812,10.094l-111.636,70.61c-2.579,1.629-5.456,2.416-8.306,2.416
				c-4.886,0-9.663-2.294-12.689-6.541c-4.994-7.03-3.325-16.774,3.732-21.727l55.289-38.895l190.598-266.58
				c1.441-2.016,2.143-4.464,2.106-6.942c-0.564-38.058,16.351-64.935,56.475-76.965c13.245-3.963,27.617-2.931,39.763,3.664
				c20.248,11.006,24.822,31.037,16.177,58.695c-0.556,1.805-0.38,3.746,0.529,5.388c0.231,0.421,0.461,0.841,0.692,1.262
				C478.306,200.277,478.198,260.479,451.979,310.692z" fill="#aeaeae" class="colorf66866 svgShape"></path>
      </g>
      <g opacity=".3" fill="#0966c2" class="color000000 svgShape">
        <g fill="#0966c2" class="color000000 svgShape">
          <path d="M451.959,310.713c-19.648,37.642-44.548,64.634-74.166,81.947
					c-8.56,5.058-17.605,9.24-26.992,12.645c57.096-46.688,93.522-117.693,93.522-197.208c0-47.029-12.742-91.091-34.967-128.878
					c8.462-0.097,16.924,1.848,24.462,5.982c20.28,10.991,24.852,31.028,16.195,58.652c-0.584,1.848-0.389,3.793,0.535,5.398
					c0.243,0.438,0.438,0.875,0.681,1.265C478.318,200.266,478.221,260.474,451.959,310.713z" fill="#ffffff" class="colorffffff svgShape"></path>
        </g>
      </g>
      <g fill="#0966c2" class="color000000 svgShape">
        <path d="M146.936,408.928c44.566-83.824,92.6-150.401,143.607-202.187
				c19.331-19.626,45.22-31.785,72.74-33.002c16.367-0.724,30.826,2.186,43.325,8.827c16.272,8.645,25.832,26.219,24.919,44.622
				c-2.119,42.705-26.482,79.218-72.484,109.709c-26.204,20.741-55.421,33.428-87.452,38.596
				c-32.662,4.221-60.626,14.653-83.544,31.756l-20.206,18.079c-4.516,4.041-11.173,4.574-16.275,1.304h0
				C145.652,422.841,143.637,415.133,146.936,408.928z" fill="#ffffff" class="colorffffff svgShape"></path>
      </g>
      <g fill="#0966c2" class="color000000 svgShape">
        <path d="M420.503,113.135c0,6.65-5.375,12.026-12.026,12.026c-6.633,0-12.009-5.375-12.009-12.026
				c0-6.633,5.375-12.009,12.009-12.009C415.128,101.126,420.503,106.502,420.503,113.135z" fill="#ffffff" class="colorffffff svgShape"></path>
      </g>
      <g fill="#0966c2" class="color000000 svgShape">
        <path d="M437.702,479.068L437.702,479.068c0,2.698-2.187,4.886-4.886,4.886h-66.688
				c-10.118,0-18.321-8.203-18.321-18.321v0c0-10.118,8.203-18.321,18.321-18.321h1.71l-18.09-41.568v-0.014
				c9.771-3.488,19.122-7.83,28.038-13.055l23.274,55.614h5.863C423.921,448.289,437.702,462.069,437.702,479.068z" fill="#707070" class="color576066 svgShape"></path>
      </g>
      <path d="M156.299,43.623c-62.896,0-114.588,51.112-114.588,114.588c0,0.001,0,0.001,0,0.002v0v0
			c0.001,62.901,51.116,114.59,114.588,114.59c62.89,0,114.592-51.104,114.593-114.59v0v0c0-0.001,0-0.001,0-0.002
			C270.892,95.325,219.79,43.623,156.299,43.623z M250.399,163.116h10.44c-1.174,25.189-11.238,48.036-27.179,65.529l-7.359-7.359
			c-1.915-1.915-5.017-1.915-6.931,0s-1.915,5.017,0,6.931l7.359,7.359c-17.492,15.939-40.339,26.003-65.529,27.177v-10.441
			c0-2.707-2.192-4.902-4.902-4.902c-2.709,0-4.902,2.195-4.902,4.902v10.441c-25.188-1.174-48.034-11.238-65.526-27.178
			l7.361-7.358c1.915-1.912,1.915-5.017,0-6.931s-5.017-1.915-6.931,0l-7.361,7.357c-15.939-17.493-26.003-40.339-27.177-65.527
			h10.44c2.709,0,4.902-2.195,4.902-4.902c0-2.707-2.192-4.902-4.902-4.902H51.763C52.936,128.123,63,105.276,78.939,87.784
			l7.361,7.358c1.915,1.915,5.017,1.915,6.931,0c1.915-1.915,1.915-5.019,0-6.931l-7.362-7.358
			c17.492-15.94,40.339-26.003,65.527-27.177v10.441c0,2.707,2.192,4.902,4.902,4.902c2.709,0,4.902-2.195,4.902-4.902V53.675
			c25.19,1.174,48.037,11.237,65.53,27.176l-7.36,7.36c-1.915,1.915-1.915,5.017,0,6.931c1.915,1.915,5.017,1.915,6.931,0l7.36-7.36
			c15.941,17.493,26.005,40.34,27.178,65.53h-10.441c-2.709,0-4.902,2.195-4.902,4.902
			C245.498,160.921,247.69,163.116,250.399,163.116z" fill="#2c2c2c" class="color242c35 svgShape"></path>
      <path d="M207.48,153.439h-46.275V89.079c0-2.707-2.192-4.902-4.902-4.902s-4.902,2.195-4.902,4.902v69.261
			c0,2.707,2.192,4.902,4.902,4.902h51.176c2.709,0,4.902-2.195,4.902-4.902C212.382,155.634,210.19,153.439,207.48,153.439z" fill="#2c2c2c" class="color242c35 svgShape"></path>
      <path d="M454.892,144.625c20.953-3.812,51.088-11.894,51.088-26.928c0-16.836-37.892-24.987-58.249-28.149
			c-3.192-3.299-7.019-6.209-11.558-8.676c-12.886-6.994-28.74-8.47-43.508-4.052c-40.42,12.12-60.592,39.619-59.97,81.729
			c0.019,1.491-0.402,2.922-1.192,4.026l-12.768,17.857c-5.36,2.652-10.572,5.653-15.522,9.153
			c2.17-10.126,3.369-20.606,3.369-31.371c0-82.866-67.414-150.281-150.279-150.281S6.02,75.348,6.02,158.214
			s67.418,150.281,150.284,150.281c18.187,0,35.587-3.321,51.723-9.283c-22.871,32.664-44.734,68.512-65.418,107.416
			c-3.235,6.084-2.628,13.298,0.973,18.777l-2.193,3.068l-54.599,38.415c-9.276,6.509-11.498,19.306-4.911,28.582
			c6.207,8.703,18.28,11.324,27.606,5.424l111.721-70.666c11.819-7.824,25.098-10.878,40.617-9.303
			c1.954,0.197,3.887,0.398,5.711,0.491c29.022,1.495,55.727-1.788,79.499-9.627l13.61,31.275
			c-10.167,2.472-17.735,11.654-17.735,22.57c0,5.008,1.63,9.62,4.337,13.418H228.351c-2.709,0-4.902,2.195-4.902,4.902
			c0,2.707,2.192,4.902,4.902,4.902c95.43,0,177.603,0,272.727,0c2.709,0,4.902-2.195,4.902-4.902c0-2.707-2.192-4.902-4.902-4.902
			h-58.477c-0.009-19.666-16.012-35.665-35.68-35.665h-2.594L383.9,394.578c29.165-18.094,53.552-45.461,72.426-81.616
			c46.52-89.101-1.296-165.273-1.498-166.073c-0.254-0.46-0.302-1.017-0.139-1.551C454.764,145.095,454.819,144.866,454.892,144.625
			z M496.177,117.698c0,5.147-16.61,11.849-38.592,16.369c2.569-13.015,1.801-24.084-2.215-33.194
			C478.447,105.389,496.177,112.378,496.177,117.698z M156.304,298.692c-77.461,0-140.48-63.019-140.48-140.478
			S78.843,17.736,156.304,17.736c77.456,0,140.476,63.019,140.476,140.478c0,14.639-2.265,28.755-6.439,42.034
			c-1.091,1.028-2.234,1.979-3.292,3.053c-23.448,23.807-46.13,50.685-67.936,80.417
			C200.194,293.243,178.892,298.692,156.304,298.692z M151.263,411.229c43.005-80.886,91.042-148.529,142.773-201.049
			c33.574-34.089,81.313-38.673,110.275-23.283c14.385,7.645,23.145,23.365,22.316,40.049
			c-2.015,40.664-25.662,76.284-70.63,106.108c-25.112,19.88-53.776,32.532-85.034,37.579
			c-33.743,4.358-62.627,15.356-86.188,32.965l-20.205,18.078c-2.867,2.563-7.128,2.903-10.359,0.831
			C150.473,420.108,149.176,415.156,151.263,411.229z M401.061,453.19h5.859c14.265,0,25.868,11.599,25.878,25.861h-66.672
			c-7.401,0-13.418-6.02-13.418-13.42c0-7.398,6.017-13.418,13.418-13.418h1.709c1.651,0,3.193-0.833,4.098-2.214
			c0.909-1.383,1.058-3.128,0.397-4.643l-16.031-36.845c6.046-2.369,12.568-5.331,19.095-8.863l21.144,50.533
			C397.304,452.003,399.084,453.19,401.061,453.19z M447.633,308.423c-18.793,36.012-43.13,62.935-72.325,80.022
			c-32.479,19.036-69.527,25.11-107.274,23.18c-1.685-0.087-3.426-0.273-5.227-0.457c-17.616-1.776-33.427,1.888-46.926,10.828
			l-111.635,70.611c-4.653,2.944-11.22,1.611-14.38-2.822c-3.404-4.791-2.304-11.462,2.556-14.878l55.288-38.896
			c0.45-0.318,0.847-0.708,1.168-1.158l2.121-2.967c6.856,3.233,14.746,1.895,20.109-2.907l19.866-17.802
			c21.862-16.311,49.195-26.682,81.396-30.844c33.087-5.34,63.268-18.662,89.38-39.35c47.371-31.4,72.492-69.604,74.67-113.552
			c1.015-20.464-9.784-39.774-27.51-49.195c-21.871-11.623-49.147-11.949-73.327-4.518l3.894-5.446
			c2.025-2.834,3.068-6.242,3.021-9.863c-0.56-37.725,16.768-61.341,52.976-72.198c11.851-3.54,25.038-2.689,36.016,3.274
			c17.477,9.502,22.005,26.814,13.834,52.948c-0.948,3.08-0.608,6.436,0.929,9.212C446.4,152.224,489.716,227.826,447.633,308.423z" fill="#2c2c2c" class="color242c35 svgShape"></path>
      <path d="M320.077 326.659c49.803-27.376 77.997-63.373 83.799-106.994.359-2.683-1.527-5.148-4.212-5.505-2.695-.364-5.151 1.529-5.505 4.212-5.371 40.361-31.885 73.905-78.801 99.694-2.374 1.304-3.241 4.284-1.934 6.659C314.732 327.11 317.728 327.954 320.077 326.659zM408.476 96.224c-9.325 0-16.912 7.587-16.912 16.912 0 9.334 7.587 16.926 16.912 16.926 9.334 0 16.926-7.592 16.926-16.926C425.403 103.811 417.811 96.224 408.476 96.224zM408.476 120.259c-3.92 0-7.108-3.195-7.108-7.123 0-3.92 3.188-7.108 7.108-7.108 3.925 0 7.123 3.188 7.123 7.108C415.599 117.063 412.401 120.259 408.476 120.259z" fill="#2c2c2c" class="color242c35 svgShape"></path>
    </g>
  </g>
</svg>
