<svg xmlns="http://www.w3.org/2000/svg" enable-background="new 0 0 512 512" viewBox="0 0 512 512" id="6622003">
  <path fill="#0966c2" d="M305.481,285.187h-22.36c-2.941-14.029-8.515-27.2-16.112-38.84l15.806-15.806
			c7.229-7.167,7.229-18.807,0.061-25.975l-8.76-8.76c-7.167-7.229-18.868-7.229-26.036,0l-15.805,15.744
			c-11.64-7.596-24.811-13.11-38.84-16.05V173.14c0-10.169-8.209-18.378-18.378-18.378h-12.375c-10.169,0-18.44,8.209-18.44,18.378
			V195.5c-14.029,2.94-27.139,8.454-38.778,16.05l-15.806-15.744c-7.167-7.229-18.869-7.229-26.036,0l-8.76,8.76
			c-7.167,7.168-7.167,18.807,0.061,25.975l15.805,15.806c-7.596,11.64-13.171,24.811-16.111,38.84H32.256
			c-10.169,0-18.44,8.209-18.44,18.378v12.375c0,10.17,8.27,18.378,18.44,18.378h22.361c2.94,14.029,8.515,27.2,16.111,38.84
			l-15.805,15.806c-7.229,7.167-7.229,18.807-0.061,25.975l8.76,8.76c7.167,7.229,18.869,7.229,26.036,0.061l15.806-15.806
			c11.639,7.596,24.749,13.11,38.778,16.05v22.361c0,10.169,8.27,18.378,18.44,18.378h12.375c10.169,0,18.378-8.209,18.378-18.378
			v-22.361c14.029-2.94,27.2-8.454,38.84-16.05l15.805,15.806c7.168,7.167,18.869,7.167,26.036-0.061l8.76-8.76
			c7.168-7.167,7.168-18.807-0.061-25.975l-15.806-15.806c7.596-11.64,13.171-24.811,16.112-38.84h22.36
			c10.17,0,18.378-8.209,18.378-18.378v-12.375C323.859,293.396,315.651,285.187,305.481,285.187z M168.868,375.364
			c-36.267,0-65.611-29.344-65.611-65.611c0-36.267,29.344-65.611,65.611-65.611s65.611,29.344,65.611,65.611
			C234.479,346.02,205.135,375.364,168.868,375.364z" class="colorfdce06 svgShape"></path>
  <path fill="#ffffff" d="M168.868,375.364c-36.267,0-65.611-29.344-65.611-65.611c0-36.267,29.344-65.611,65.611-65.611
			s65.611,29.344,65.611,65.611C234.479,346.02,205.135,375.364,168.868,375.364z" class="colorffffff svgShape"></path>
  <path fill="#cfd0d1" d="M486.209,132.211h-14.565c-1.916-9.138-5.547-17.717-10.495-25.299l10.295-10.295
			c4.709-4.669,4.709-12.25,0.04-16.919l-5.706-5.706c-4.669-4.709-12.29-4.709-16.959,0l-10.295,10.255
			c-7.582-4.948-16.161-8.539-25.299-10.455V59.227c0-6.624-5.347-11.971-11.971-11.971h-8.061c-6.624,0-12.011,5.347-12.011,11.971
			v14.565c-9.138,1.915-17.677,5.507-25.259,10.455l-10.295-10.255c-4.669-4.709-12.29-4.709-16.959,0l-5.706,5.706
			c-4.669,4.669-4.669,12.25,0.04,16.919l10.295,10.295c-4.948,7.582-8.579,16.161-10.494,25.299h-14.565
			c-6.624,0-12.011,5.347-12.011,11.971v8.06c0,6.624,5.387,11.971,12.011,11.971h14.565c1.915,9.138,5.546,17.717,10.494,25.299
			l-10.295,10.295c-4.709,4.669-4.709,12.25-0.04,16.919l5.706,5.706c4.669,4.709,12.29,4.709,16.959,0.04l10.295-10.295
			c7.582,4.948,16.121,8.539,25.259,10.455v14.565c0,6.624,5.387,11.971,12.011,11.971h8.061c6.624,0,11.971-5.347,11.971-11.971
			v-14.565c9.138-1.915,17.717-5.507,25.299-10.455l10.295,10.295c4.669,4.669,12.29,4.669,16.959-0.04l5.706-5.706
			c4.669-4.669,4.669-12.25-0.04-16.919l-10.295-10.295c4.948-7.582,8.579-16.161,10.495-25.299h14.565
			c6.624,0,11.971-5.347,11.971-11.971v-8.06C498.18,137.558,492.833,132.211,486.209,132.211z M397.224,190.949
			c-23.623,0-42.737-19.114-42.737-42.737c0-23.623,19.114-42.737,42.737-42.737c23.623,0,42.737,19.114,42.737,42.737
			C439.961,171.835,420.847,190.949,397.224,190.949z" class="colorcfcfd1 svgShape"></path>
  <path fill="#707070" d="M168.867,383.179c40.488,0,73.424-32.935,73.424-73.424s-32.935-73.424-73.424-73.424
			s-73.424,32.935-73.424,73.424S128.378,383.179,168.867,383.179z M168.867,251.957c31.867,0,57.799,25.932,57.799,57.799
			s-25.932,57.799-57.799,57.799s-57.799-25.932-57.799-57.799S136.999,251.957,168.867,251.957z" class="color3e3e3e svgShape"></path>
  <path fill="#707070" d="M32.258 342.134h16.189c2.769 10.452 6.92 20.454 12.39 29.868l-11.413 11.413c-10.291 10.197-10.346 26.785-.084 37.048l8.728 8.735c10.245 10.324 26.911 10.305 37.116.084l11.436-11.444c9.361 5.44 19.348 9.575 29.807 12.344v16.182c0 14.442 11.78 26.191 26.252 26.191h12.375c14.442 0 26.191-11.749 26.191-26.191v-16.182c10.498-2.777 20.507-6.904 29.868-12.344l11.444 11.444c10.098 10.114 26.781 10.332 37.078-.061l8.766-8.758c10.308-10.323 10.132-26.91-.061-37.025l-11.444-11.436c5.47-9.399 9.62-19.401 12.397-29.868h16.189c14.442 0 26.191-11.749 26.191-26.191v-12.375c0-14.442-11.749-26.191-26.191-26.191h-16.189c-2.777-10.467-6.927-20.477-12.397-29.868l11.421-11.421c10.288-10.194 10.33-26.786.084-37.048l-8.743-8.735c-9.887-9.964-27.267-9.933-37.093-.031l-11.444 11.398c-9.361-5.44-19.371-9.575-29.876-12.352v-16.182c0-14.442-11.749-26.191-26.191-26.191h-12.375c-14.473 0-26.252 11.749-26.252 26.191v16.182c-10.46 2.769-20.446 6.904-29.815 12.352l-11.406-11.368c-10.106-10.184-26.81-10.417-37.109-.023l-8.758 8.758c-10.254 10.254-10.207 26.852.061 37.025l11.436 11.444c-5.47 9.407-9.62 19.409-12.39 29.868H32.258c-14.473 0-26.252 11.749-26.252 26.191v12.375C6.006 330.385 17.785 342.134 32.258 342.134zM21.63 303.568c0-5.829 4.768-10.566 10.628-10.566h22.361c3.7 0 6.889-2.594 7.644-6.21 2.701-12.878 7.744-25.047 15.007-36.17 2.014-3.097 1.595-7.179-1.022-9.796l-15.823-15.838c-4.122-4.075-4.192-10.73-.038-14.9l8.781-8.781c4.027-4.073 10.737-4.225 14.976.031l15.8 15.747c2.617 2.609 6.691 3.014 9.788 1.015 11.055-7.217 23.2-12.253 36.109-14.953 3.616-.755 6.21-3.944 6.21-7.644v-22.361c0-5.829 4.768-10.566 10.628-10.566h12.375c5.829 0 10.566 4.738 10.566 10.566V195.5c0 3.7 2.594 6.889 6.21 7.644 12.962 2.716 25.131 7.744 36.17 14.953 3.097 1.999 7.164 1.594 9.788-1.015l15.838-15.777c3.982-4.013 10.933-4.036 14.961.023l8.766 8.758c4.045 4.045 4.178 10.723-.061 14.93l-15.808 15.808c-2.617 2.617-3.036 6.698-1.015 9.796 7.248 11.101 12.298 23.269 15.007 36.17.755 3.616 3.952 6.21 7.644 6.21h22.361c5.829 0 10.566 4.738 10.566 10.566v12.375c0 5.829-4.738 10.566-10.566 10.566h-22.361c-3.693 0-6.889 2.586-7.644 6.21-7.019 33.412-22.315 37.668-13.992 45.966l15.831 15.823c4.143 4.127 4.15 10.795.038 14.908l-8.796 8.781c-4.142 4.189-10.86 4.116-14.953.038l-15.808-15.808c-2.624-2.624-6.706-3.029-9.796-1.022-11.039 7.21-23.208 12.237-36.17 14.953-3.616.755-6.21 3.944-6.21 7.645v22.361c0 5.829-4.738 10.566-10.566 10.566h-12.375c-5.859 0-10.628-4.738-10.628-10.566v-22.361c0-3.7-2.594-6.889-6.21-7.645-12.909-2.701-25.054-7.736-36.109-14.953-3.168-2.044-7.223-1.55-9.796 1.022l-15.8 15.808c-4.099 4.099-10.818 4.144-14.991-.061l-8.758-8.758c-11.218-11.218 9.536-22.286 15.861-30.73 2.609-2.609 3.036-6.698 1.022-9.788-7.263-11.139-12.306-23.307-15.007-36.178-.755-3.616-3.944-6.21-7.644-6.21H32.258c-5.859 0-10.628-4.738-10.628-10.566V303.568zM397.225 97.663c-27.877 0-50.551 22.674-50.551 50.551 0 27.87 22.674 50.544 50.551 50.544 27.877 0 50.551-22.674 50.551-50.544C447.776 120.337 425.102 97.663 397.225 97.663zM397.225 183.133c-19.256 0-34.927-15.663-34.927-34.919s15.67-34.927 34.927-34.927 34.927 15.67 34.927 34.927S416.481 183.133 397.225 183.133z" class="color3e3e3e svgShape"></path>
  <path fill="#707070" d="M486.212 124.396h-8.476c-1.663-5.653-3.921-11.093-6.752-16.266l5.958-5.958c7.777-7.714 7.82-20.247.069-27.999l-5.684-5.684c-7.469-7.538-20.614-7.507-28.015-.038l-5.997 5.974c-5.165-2.823-10.612-5.073-16.281-6.729v-8.468c0-10.91-8.873-19.783-19.783-19.783h-8.056c-10.933 0-19.828 8.873-19.828 19.783v8.476c-5.646 1.648-11.078 3.899-16.235 6.721l-5.958-5.936c-7.484-7.538-20.607-7.515-28.03-.023l-5.707 5.707c-7.669 7.669-7.773 20.221.038 27.969l5.989 5.989c-2.838 5.18-5.096 10.62-6.752 16.266h-8.476c-10.933 0-19.821 8.873-19.821 19.783v8.064c0 10.91 8.888 19.783 19.821 19.783h8.476c1.656 5.646 3.914 11.085 6.752 16.273l-5.966 5.966c-7.768 7.705-7.813 20.232-.061 27.984l5.684 5.684c7.785 7.849 20.37 7.72 28.03.061l5.989-5.989c5.15 2.823 10.582 5.066 16.227 6.714v8.476c0 10.91 8.896 19.79 19.828 19.79h8.056c10.91 0 19.783-8.88 19.783-19.79v-8.468c5.676-1.656 11.116-3.899 16.273-6.721l5.989 5.989c7.796 7.796 20.388 7.643 28.007-.038l5.707-5.707c7.753-7.753 7.699-20.295-.046-27.961l-5.989-5.989c2.846-5.18 5.104-10.62 6.759-16.273h8.476c10.91 0 19.783-8.873 19.783-19.783v-8.064C505.994 133.269 497.122 124.396 486.212 124.396zM490.37 152.243c0 2.296-1.862 4.158-4.158 4.158h-14.564c-3.693 0-6.882 2.586-7.645 6.203-1.701 8.072-4.86 15.693-9.392 22.636-2.022 3.097-1.602 7.179 1.015 9.796l10.315 10.33c1.611 1.58 1.664 4.179.023 5.836l-5.73 5.73c-1.587 1.598-4.253 1.652-5.89.015l-10.299-10.292c-2.624-2.624-6.721-3.036-9.796-1.015-6.882 4.494-14.496 7.637-22.628 9.346-3.616.755-6.21 3.944-6.21 7.644v14.564c0 2.296-1.862 4.166-4.158 4.166h-8.056c-2.319 0-4.204-1.869-4.204-4.166V222.63c0-3.7-2.594-6.889-6.21-7.644-8.087-1.701-15.693-4.845-22.59-9.346-3.146-2.049-7.214-1.567-9.796 1.015l-10.292 10.292c-1.596 1.596-4.254 1.632-5.913-.038l-5.707-5.707c-1.624-1.64-1.61-4.234.038-5.867l10.299-10.299c2.617-2.609 3.036-6.698 1.015-9.796-4.539-6.958-7.706-14.572-9.392-22.628-.755-3.616-3.944-6.21-7.644-6.21h-14.564c-2.312 0-4.196-1.862-4.196-4.158v-8.064c0-2.296 1.884-4.158 4.196-4.158h14.564c3.7 0 6.889-2.594 7.644-6.21 1.694-8.056 4.852-15.67 9.392-22.628 2.022-3.097 1.602-7.187-1.015-9.796l-10.322-10.315c-1.573-1.558-1.681-4.17-.015-5.852l5.73-5.73c1.596-1.607 4.22-1.659 5.897.031l10.292 10.254c2.632 2.617 6.714 3.014 9.781 1.015 6.92-4.516 14.526-7.66 22.598-9.353 3.616-.755 6.21-3.944 6.21-7.644V59.227c0-2.296 1.884-4.158 4.204-4.158h8.056c2.296 0 4.158 1.862 4.158 4.158v14.564c0 3.7 2.594 6.889 6.21 7.644 8.117 1.701 15.731 4.845 22.628 9.353 3.09 1.991 7.171 1.595 9.781-1.007l10.338-10.292c1.583-1.595 4.211-1.668 5.89.023l5.707 5.707c1.582 1.597 1.654 4.19-.046 5.874l-10.292 10.292c-2.617 2.609-3.036 6.698-1.015 9.796 4.532 6.943 7.69 14.557 9.392 22.636.763 3.616 3.952 6.203 7.645 6.203h14.564c2.296 0 4.158 1.862 4.158 4.158V152.243zM150.358 317.568h18.508c4.318 0 7.812-3.494 7.812-7.812v-33.202c0-4.318-3.494-7.812-7.812-7.812s-7.812 3.494-7.812 7.812v25.39h-10.696c-4.318 0-7.812 3.494-7.812 7.812C142.546 314.074 146.04 317.568 150.358 317.568z" class="color3e3e3e svgShape"></path>
</svg>
