<svg xmlns="http://www.w3.org/2000/svg" enable-background="new 0 0 512 512" viewBox="0 0 512 512" id="6621981">
  <path fill="#ffffff" d="M307.816,300.779c0,3.906-1.718,7.812-4.922,10.547l-66.795,56.405
			c-7.656,6.484-17.343,10-27.421,10h-31.874c-7.265,0-14.453-1.875-20.781-5.391l-35.468-19.844
			c-5.078-2.891-10.781-4.375-16.64-4.375H85.555l-2.812-66.873h51.405c6.718,0,13.359,0.937,19.843,2.735l58.514,16.25
			c8.672,2.422,12.891,12.109,8.906,20.077l66.639-31.952c5.391-2.578,11.874-1.406,16.015,2.969
			C306.566,293.982,307.816,297.42,307.816,300.779z" class="colorffffff svgShape"></path>
  <path fill="#0966c2" d="M79.37,261.45H13.816v106.615H79.37c9.929,0,17.977-8.049,17.977-17.978v-70.66
			C97.347,269.498,89.299,261.45,79.37,261.45z" class="colorfdce06 svgShape"></path>
  <path fill="#ffffff" d="M434.844,230.702h-51.327c-6.718,0-13.437-0.859-19.921-2.656l-58.514-16.249
			c-8.594-2.422-12.891-12.109-8.828-20.078l-66.639,31.952c-5.468,2.578-11.953,1.328-16.093-3.046
			c-2.5-2.656-3.75-6.016-3.75-9.375c0-3.906,1.718-7.812,4.922-10.547l66.873-56.405c7.656-6.484,17.343-10.078,27.343-10.078
			h31.952c7.266,0,14.375,1.875,20.703,5.468l35.468,19.844c5.078,2.891,10.859,4.375,16.718,4.375h18.281L434.844,230.702z" class="colorffffff svgShape"></path>
  <path fill="#cfd0d1" d="M498.18,143.935h-59.929c-9.929,0-17.978,8.049-17.978,17.978l0.001,70.66
			c0,9.929,8.048,17.977,17.977,17.977h59.929V143.935z" class="colorcfcfd1 svgShape"></path>
  <path fill="#707070" d="M13.818 375.878h65.55c12.186 0 22.369-8.519 25.051-19.898 4.312.087 8.573 1.183 12.34 3.293l35.461 19.878c7.5 4.2 15.998 6.42 24.574 6.42h31.898c11.848 0 23.368-4.211 32.432-11.86l66.809-56.422c9.411-7.93 10.306-22.22 1.831-31.272-6.477-6.912-16.563-8.797-25.1-4.715l-54.986 26.351c-2.368-7.94-8.121-13.026-15.065-14.949l-58.531-16.25c-7.141-1.984-14.534-2.991-21.965-2.991h-29.718c-2.708-11.339-12.87-19.825-25.029-19.825h-65.55c-4.318 0-7.812 3.498-7.812 7.812v106.615C6.006 372.38 9.5 375.878 13.818 375.878zM151.899 291.506l58.531 16.25c3.863 1.074 5.8 5.406 3.967 9.014-1.312 2.605-4.211 3.979-7.08 3.33l-45.722-10.376c-4.257-.973-8.4 1.678-9.353 5.89-.954 4.208 1.686 8.392 5.89 9.346 47.65 10.625 46.244 10.925 50.612 10.925 7.064 0 13.591-3.56 17.72-9.362l64.95-31.13c2.357-1.125 5.15-.607 6.943 1.301 2.391 2.552 2.068 6.495-.504 8.655l-66.817 56.422c-6.241 5.272-14.175 8.175-22.346 8.175h-31.898c-5.913 0-11.772-1.53-16.937-4.425l-35.453-19.874c-5.885-3.298-12.512-5.072-19.241-5.278v-51.281h28.953C140.135 289.088 146.116 289.9 151.899 291.506zM21.63 269.263h57.738c5.607 0 10.17 4.558 10.17 10.162v70.662c0 5.604-4.562 10.166-10.17 10.166H21.63V269.263zM498.182 136.122h-59.928c-12.186 0-22.369 8.519-25.051 19.898-4.312-.087-8.573-1.183-12.34-3.297l-35.461-19.87c-7.492-4.204-15.991-6.424-24.581-6.424h-31.89c-11.848 0-23.368 4.211-32.432 11.86l-66.809 56.422c-9.446 7.967-10.29 22.254-1.831 31.272 6.503 6.94 16.588 8.787 25.1 4.715l54.986-26.351c2.368 7.94 8.121 13.026 15.065 14.949l58.531 16.25c7.141 1.984 14.534 2.991 21.965 2.991h29.718c2.708 11.339 12.87 19.825 25.029 19.825h59.928c4.318 0 7.812-3.498 7.812-7.812V143.934C505.994 139.62 502.5 136.122 498.182 136.122zM365.723 220.494l-58.531-16.25c-3.863-1.074-5.8-5.406-3.967-9.014 1.312-2.609 4.196-3.994 7.08-3.33l45.714 10.376c4.234.965 8.392-1.678 9.353-5.89.954-4.208-1.686-8.392-5.89-9.346l-45.714-10.376c-8.869-2.011-17.874 1.65-22.915 8.959l-64.646 30.984c-2.357 1.121-5.157.61-6.95-1.305-2.304-2.467-2.152-6.406.511-8.652l66.817-56.422c6.241-5.272 14.175-8.175 22.346-8.175h31.89c5.92 0 11.772 1.53 16.937 4.429l35.461 19.87c5.885 3.298 12.512 5.072 19.241 5.278v51.281h-28.953C377.488 222.912 371.506 222.1 365.723 220.494zM490.37 242.737h-52.115c-5.607 0-10.17-4.558-10.17-10.162v-70.662c0-5.604 4.562-10.166 10.17-10.166h52.115V242.737z" class="color3e3e3e svgShape"></path>
</svg>
