<svg xmlns="http://www.w3.org/2000/svg" enable-background="new 0 0 512 512" viewBox="0 0 512 512" id="6621984">
  <path fill="#ffffff" d="M403.185,450.157v-53.513c0-75.498-61.203-136.701-136.701-136.701h-20.968
			c-75.497,0-136.7,61.203-136.7,136.7v53.514c0,26.524,21.502,48.027,48.027,48.027h198.316
			C381.682,498.183,403.185,476.681,403.185,450.157z" class="colorffffff svgShape"></path>
  <path fill="#0966c2" d="M239.59,326.365l-12.364,88.392c-0.719,5.143,1.016,10.325,4.688,13.997l12.417,12.418
			c6.464,6.464,16.944,6.464,23.408,0l12.346-12.346c3.673-3.673,5.409-8.857,4.688-14.001l-12.4-88.464
			c-1.146-8.174-8.138-14.254-16.392-14.254h0C247.727,312.106,240.734,318.189,239.59,326.365z" class="colorcfcfd1 svgShape"></path>
  <polygon fill="#818181" points="231.341 216.124 244.195 131.042 197.413 131.042 268.854 13.819 265.531 103.198 314.587 101.908" class="colorfdce06 svgShape"></polygon>
  <path fill="#707070" d="M101.003,450.157c0,30.788,25.051,55.838,55.838,55.838h198.318
			c30.788,0,55.838-25.051,55.838-55.838v-53.515c0-79.683-64.829-144.513-144.513-144.513h-20.969
			c-79.683,0-144.513,64.829-144.513,144.513V450.157z M116.627,396.642c0-71.07,57.818-128.888,128.888-128.888h20.969
			c71.07,0,128.888,57.818,128.888,128.888v53.515c0,22.174-18.039,40.214-40.214,40.214H156.841
			c-22.174,0-40.214-18.039-40.214-40.214V396.642z" class="color3e3e3e svgShape"></path>
  <path fill="#707070" d="M238.806 446.694c9.514 9.514 24.934 9.532 34.457 0l12.352-12.348c5.371-5.375 7.95-13.08 6.893-20.607l-12.397-88.461c-1.675-11.963-12.047-20.984-24.127-20.984-12.085 0-22.457 9.022-24.127 20.988l-12.367 88.396c-1.049 7.522 1.53 15.224 6.901 20.599L238.806 446.694zM234.961 415.841l12.367-88.392v-.004c.599-4.291 4.322-7.526 8.655-7.526 4.333 0 8.053 3.235 8.655 7.526l12.397 88.461c.378 2.705-.546 5.47-2.472 7.397l-12.352 12.344c-3.296 3.303-9.052 3.303-12.356 0l-12.417-12.413C235.51 421.304 234.587 418.538 234.961 415.841zM271.104 6.339c-3.403-1.03-7.076.378-8.922 3.414l-71.44 117.223c-1.469 2.411-1.522 5.428-.141 7.892 1.385 2.46 3.99 3.986 6.813 3.986h37.7l-11.497 76.102c-.538 3.559 1.427 7.027 4.757 8.392 3.297 1.361 7.145.306 9.281-2.624L320.9 106.51c1.755-2.403 1.987-5.596.603-8.232-1.381-2.636-4.154-4.314-7.122-4.177l-40.732 1.068 3.014-81.061C276.792 10.558 274.51 7.361 271.104 6.339zM298.924 110.138l-55.087 75.579 8.083-53.508c.339-2.251-.317-4.536-1.8-6.264-1.484-1.724-3.647-2.716-5.924-2.716h-32.874l48.613-79.764-2.212 59.443c-.08 2.155.736 4.249 2.254 5.783 1.518 1.537 3.559 2.479 5.76 2.315L298.924 110.138zM152.103 194.063c3.766 2.137 8.53.798 10.65-2.937l6.851-12.085c2.125-3.754.805-8.522-2.949-10.647-3.761-2.132-8.518-.809-10.647 2.949l-6.843 12.069C147.038 187.163 148.35 191.931 152.103 194.063zM127.789 122.784c4.314 0 7.812-3.498 7.812-7.812s-3.498-7.812-7.812-7.812h-13.866c-4.314 0-7.812 3.498-7.812 7.812s3.498 7.812 7.812 7.812H127.789zM156.009 58.599c2.121 3.741 6.879 5.073 10.65 2.945 3.754-2.129 5.07-6.897 2.945-10.65l-6.851-12.077c-2.132-3.754-6.897-5.054-10.65-2.937-3.754 2.129-5.066 6.901-2.937 10.65L156.009 58.599zM355.991 171.344c-2.129-3.757-6.889-5.081-10.647-2.949-3.754 2.125-5.073 6.893-2.949 10.647l6.851 12.085c2.132 3.761 6.909 5.06 10.65 2.937 3.754-2.132 5.066-6.901 2.937-10.65L355.991 171.344zM398.077 122.784c4.314 0 7.812-3.498 7.812-7.812s-3.498-7.812-7.812-7.812h-13.866c-4.314 0-7.812 3.498-7.812 7.812s3.498 7.812 7.812 7.812H398.077zM359.897 35.879c-3.746-2.117-8.518-.816-10.65 2.937l-6.851 12.077c-2.125 3.754-.809 8.522 2.945 10.65 3.773 2.129 8.53.795 10.65-2.945l6.843-12.069C364.962 42.78 363.65 38.008 359.897 35.879z" class="color3e3e3e svgShape"></path>
</svg>
