<svg xmlns="http://www.w3.org/2000/svg" enable-background="new 0 0 512 512" viewBox="0 0 512 512" id="6621996">
  <path fill="#ffffff" d="M470.623,385.848c0,5.703-2.422,11.328-7.109,15.312l-97.576,82.42
			c-11.172,9.375-25.39,14.609-39.999,14.609h-46.562c-10.625,0-21.093-2.735-30.312-7.969l-51.795-28.983
			c-7.422-4.141-15.859-6.328-24.375-6.328h-26.796l-4.062-97.654h74.998c9.765,0,19.531,1.328,28.984,3.984l85.467,23.75
			c12.656,3.515,18.827,17.656,12.968,29.296l97.342-46.64c7.891-3.828,17.421-2.031,23.359,4.375
			C468.826,375.926,470.623,380.848,470.623,385.848z" class="colorffffff svgShape"></path>
  <circle cx="308.376" cy="161.162" r="147.351" fill="#0966c2" class="colorfdce06 svgShape"></circle>
  <path fill="#ffffff" d="M304.007 115.139c-11.75 9.582-9.127 28.861-18.138 40.952-9.696 12.776-30.344 13.005-43.12 3.423-12.891-9.697-18.823-26.124-20.306-42.094-1.597-15.857.57-31.942.456-48.026-.113-8.67-.912-17.681-3.194-26.009 24.64-18.594 55.326-29.545 88.636-29.545 6.844 0 13.688.456 20.305 1.483.913 7.414 3.422 14.601 7.757 21.104 8.328 12.434 22.016 20.191 31.827 31.599 9.81 11.293 14.487 30.23 3.422 40.382C354.314 124.265 322.259 100.309 304.007 115.139zM445.802 214.156c-20.876 54.414-73.236 93.199-134.608 94.226.798-2.396 1.483-4.791 1.825-7.301 1.825-11.522-1.255-23.271-4.107-34.678-2.738-11.407-5.362-23.272-2.51-34.679s12.891-21.788 24.526-21.332c15.4.799 29.431 19.051 43.006 11.636 11.864-6.502 8.556-26.58 19.392-34.793 7.301-5.476 18.252-2.966 25.667 2.509 7.415 5.476 12.776 13.347 19.735 19.393C440.897 211.076 443.292 212.673 445.802 214.156z" class="colorffffff svgShape"></path>
  <path fill="#cfd0d1" d="M137.089,328.344H41.368v155.678h95.722c14.498,0,26.25-11.753,26.25-26.251V354.594
			C163.339,340.097,151.587,328.344,137.089,328.344z" class="colorcfcfd1 svgShape"></path>
  <path fill="#707070" d="M470.891 366.677c-8.385-8.949-21.438-11.413-32.485-6.096l-84.306 40.405c-1.721-12.255-10.259-20.7-20.496-23.545l-85.463-23.727c-10.124-2.808-20.591-4.234-31.112-4.234h-46.391c-2.49-16.348-16.515-28.953-33.548-28.953H41.365c-4.318 0-7.812 3.494-7.812 7.812v155.682c0 4.318 3.494 7.812 7.812 7.812h95.724c17.1 0 31.161-12.708 33.568-29.151 1.368.154 11.267-1.093 22.789 5.363l51.772 29.022c10.391 5.836 22.193 8.919 34.133 8.919h46.576c16.464 0 32.455-5.852 45.035-16.471l97.555-82.38C480.737 396.824 481.853 378.4 470.891 366.677zM155.529 457.77c0 10.17-8.27 18.44-18.44 18.44H49.178V336.153h87.912c10.17 0 18.44 8.27 18.44 18.44V457.77zM458.44 395.196l-97.563 82.388c-9.758 8.24-22.171 12.779-34.949 12.779h-46.576c-9.262 0-18.425-2.396-26.489-6.92l-51.772-29.022c-15.027-8.421-28.983-7.248-29.937-7.362v-81.953h45.875c9.109 0 18.165 1.236 26.931 3.67l85.463 23.727c7.9 2.193 11.703 11.028 8.056 18.241-2.678 5.287-8.591 8.095-14.358 6.744l-66.756-15.152c-4.272-.954-8.4 1.686-9.353 5.89-.954 4.211 1.686 8.392 5.89 9.353 69.63 15.556 67.415 15.861 73.096 15.861 9.603 0 18.626-4.909 23.908-13.12l95.261-45.656c4.86-2.312 10.628-1.251 14.32 2.693C464.335 382.558 463.807 390.66 458.44 395.196zM354.92 309.168c65.941-20.483 108.616-81.965 108.616-148.007 0-103.596-100.634-178.666-200.515-148.365C198.14 32.704 153.21 93.105 153.21 161.161 153.21 265.695 255.051 340.604 354.92 309.168zM321.038 300.051c1.383-12.142-1.601-23.771-4.524-35.476-2.754-11.459-4.845-21.705-2.525-30.959 1.904-7.656 8.951-15.84 16.533-15.419 12.775.649 29.015 20.584 47.172 10.681 15.194-8.33 12.69-29.615 20.324-35.392 4.135-3.113 11.512-1.03 16.342 2.541 7.033 5.188 13.102 14.412 21.762 21.072C415.998 262.87 372.342 295.567 321.038 300.051zM228.545 46.882c28.695-20.106 62.438-27.751 93.416-24.55 6.16 26.736 27.429 35.789 40.374 50.811 7.591 8.751 11.116 23.01 4.043 29.502-13.161 12-45.81-11.018-67.297 6.431 0 .008-.008.008-.008.008-14.241 11.619-11.85 32.128-19.432 42.281-7.095 9.361-23.147 8.705-32.195 1.907-12.939-9.735-16.342-27.091-17.227-36.636C227.952 94.191 233.583 71.89 228.545 46.882zM214.443 58.274c2.093 20.297-1.88 39.022.22 59.874 1.93 20.805 10.238 37.711 23.399 47.614 15.552 11.672 41.32 11.793 54.068-5.005 9.97-13.376 7.938-32.328 16.815-39.558 14.14-11.436 47.296 11.885 67.984-7.034 14.343-13.153 9.72-36.849-2.777-51.238-12.274-14.272-28.183-21.617-34.865-37.736 62.093 14.119 108.624 69.664 108.624 135.969 0 13.994-2.123 27.491-5.974 40.246-6.644-6.382-11.03-12.577-18.302-17.953-9.3-6.859-24.208-10.566-35.026-2.441-12.97 9.819-10.902 30.046-18.417 34.156-8.067 4.502-22.087-11.712-38.962-12.581-16.433-.725-28.991 13.549-32.401 27.236-3.174 12.695-.755 24.902 2.502 38.467 2.579 10.317 5.581 21.417 3.944 31.73-.024.174-.079.342-.107.516-75.452-1.726-136.334-63.517-136.334-139.376C168.835 120.415 186.499 83.808 214.443 58.274z" class="color3e3e3e svgShape"></path>
</svg>
