<svg xmlns="http://www.w3.org/2000/svg" enable-background="new 0 0 512 512" viewBox="0 0 512 512" id="6621995">
  <path fill="#0966c2" d="M173.359 266.278c0 32.393-26.29 58.683-58.761 58.683-32.393 0-58.683-26.29-58.683-58.683H173.359zM456.085 266.278c0 32.393-26.29 58.683-58.761 58.683-32.393 0-58.683-26.29-58.683-58.683H456.085z" class="colorfdce06 svgShape"></path>
  <path fill="#ffffff" d="M334.247,455.116L334.247,455.116l-156.488,0v0c0-23.785,19.281-43.066,43.066-43.066h70.355
			C314.965,412.049,334.247,431.331,334.247,455.116z" class="colorffffff svgShape"></path>
  <path fill="#cfd0d1" d="M373.405,498.182L373.405,498.182l-234.804,0v0c0-23.785,19.281-43.066,43.066-43.066h148.672
			C354.124,455.116,373.405,474.397,373.405,498.182z" class="colorcfcfd1 svgShape"></path>
  <path fill="#707070" d="M397.326,332.773c36.708,0,66.573-29.83,66.573-66.496c0-0.096-0.052-0.176-0.055-0.271
			c-0.029-0.828-0.141-1.656-0.437-2.452L408.574,116.37h20.852c4.314,0,7.812-3.494,7.812-7.812s-3.498-7.812-7.812-7.812h-64.57
			c-16.62,0-32.642-4.982-46.332-14.396l-54.709-37.663V13.818c0-4.318-3.498-7.812-7.812-7.812c-4.314,0-7.812,3.494-7.812,7.812
			v34.867l-54.713,37.656c-13.691,9.422-29.712,14.404-46.332,14.404h-64.57c-4.314,0-7.812,3.494-7.812,7.812
			s3.498,7.812,7.812,7.812h20.783L48.594,263.553c-0.297,0.796-0.408,1.624-0.437,2.452c-0.003,0.095-0.055,0.175-0.055,0.271
			c0,36.666,29.83,66.496,66.496,66.496c36.708,0,66.573-29.83,66.573-66.496c0-0.096-0.051-0.176-0.055-0.271
			c-0.029-0.828-0.141-1.656-0.437-2.452L125.846,116.37h21.298c19.798,0,38.882-5.928,55.19-17.158l45.855-31.564v336.588h-27.366
			c-25.84,0-47.195,19.383-50.41,44.363c-20.157,4.575-35.76,21.134-38.962,41.77H92.153c-4.314,0-7.812,3.494-7.812,7.812
			s3.498,7.812,7.812,7.812c101.351,0,226.015,0,327.702,0c4.314,0,7.812-3.494,7.812-7.812s-3.498-7.812-7.812-7.812h-39.302
			c-3.202-20.635-18.803-37.193-38.959-41.77c-3.215-24.98-24.57-44.364-50.414-44.364h-27.366V67.65l45.852,31.569
			c16.307,11.223,35.392,17.15,55.19,17.15h21.23l-54.764,147.183c-0.297,0.796-0.408,1.624-0.437,2.452
			c-0.003,0.095-0.055,0.175-0.055,0.271C330.829,302.943,360.66,332.773,397.326,332.773z M114.598,317.148
			c-25.394,0-46.504-18.707-50.273-43.059h100.622C161.171,298.441,140.03,317.148,114.598,317.148z M67.156,258.464l47.446-127.515
			l47.507,127.515H67.156z M364.718,490.37H147.285c3.563-15.693,17.627-27.442,34.381-27.442h148.671
			C347.091,462.927,361.155,474.676,364.718,490.37z M325.561,447.303H186.446c3.563-15.693,17.624-27.442,34.377-27.442h70.357
			C307.934,419.86,321.999,431.609,325.561,447.303z M397.326,317.148c-25.394,0-46.504-18.707-50.273-43.059h100.622
			C443.898,298.441,422.758,317.148,397.326,317.148z M397.329,130.949l47.507,127.515h-94.953L397.329,130.949z" class="color3e3e3e svgShape"></path>
</svg>
