<svg xmlns="http://www.w3.org/2000/svg" xml:space="preserve" viewBox="0 0 512 512" enable-background="new 0 0 512 512" id="11962830">
  <g id="_x32_0_Failure" fill="#0966c2" class="color000000 svgShape">
    <g fill="#0966c2" class="color000000 svgShape">
      <g fill="#0966c2" class="color000000 svgShape">
        <polygon points="10.902 434.995 457.326 434.995 422.257 334.527 45.972 334.527" fill="#d9dee3" class="colord9dde3 svgShape"></polygon>
      </g>
      <g opacity=".3" fill="#0966c2" class="color000000 svgShape">
        <g fill="#0966c2" class="color000000 svgShape">
          <path d="M432.17,362.972H177.898c-53.063,0-101.279,27.93-128.011,72H10.914l35.076-100.43h376.287
					L432.17,362.972z" fill="#ffffff" class="colorffffff svgShape"></path>
        </g>
      </g>
      <g fill="#0966c2" class="color000000 svgShape">
        <path d="M430.196,479.697H38.032c-14.984,0-27.13-12.147-27.13-27.13v-17.572h446.424v17.572
				C457.326,467.551,445.18,479.697,430.196,479.697z" fill="#707070" class="color576066 svgShape"></path>
      </g>
      <g fill="#0966c2" class="color000000 svgShape">
        <path d="M168.225,434.995h131.778l-7.835-19.223c-1.522-3.735-5.154-6.177-9.187-6.177h-97.734
				c-4.033,0-7.665,2.442-9.187,6.177L168.225,434.995z" fill="#ffffff" class="colorffffff svgShape"></path>
      </g>
      <g fill="#0966c2" class="color000000 svgShape">
        <path d="M477.389,234.071h-194.78c-18.618,0-29.936-20.515-20.006-36.264l97.39-154.467
				c9.278-14.716,30.734-14.716,40.012,0l97.39,154.467C507.325,213.556,496.007,234.071,477.389,234.071z" fill="#ccdff2" class="colord9f2cc svgShape"></path>
      </g>
      <g opacity=".3" fill="#0966c2" class="color000000 svgShape">
        <g fill="#0966c2" class="color000000 svgShape">
          <path d="M321.347,201.285c0,11.292,1.449,22.284,4.147,32.777h-42.87
					c-18.637,0-29.929-20.486-20.036-36.275L359.97,43.345c9.293-14.739,30.778-14.739,40.022,0l19.886,31.528
					C363.268,89.064,321.347,140.278,321.347,201.285z" fill="#ffffff" class="colorffffff svgShape"></path>
        </g>
      </g>
      <g fill="#0966c2" class="color000000 svgShape">
        <path d="M400.466,93.186l-4.218,49.689c-0.717,8.441-7.777,14.928-16.249,14.928h0
				c-8.472,0-15.533-6.487-16.249-14.928l-4.218-49.689c-1.017-11.986,8.437-22.277,20.467-22.277h0
				C392.029,70.908,401.483,81.199,400.466,93.186z" fill="#ffffff" class="colorffffff svgShape"></path>
      </g>
      <g fill="#0966c2" class="color000000 svgShape">
        <path d="M395.468,195.063c0,8.548-6.92,15.469-15.469,15.469c-8.549,0-15.469-6.92-15.469-15.469
				c0-8.549,6.92-15.469,15.469-15.469C388.548,179.594,395.468,186.514,395.468,195.063z" fill="#ffffff" class="colorffffff svgShape"></path>
      </g>
      <g fill="#0966c2" class="color000000 svgShape">
        <path d="M209.125,236.029c-1.282,4.521-3.104,8.873-5.331,12.922l9.245,9.245l-26.182,26.148l-9.245-9.245
				c-4.049,2.26-8.368,4.049-12.888,5.364v13.057h-37.012v-13.057c-4.521-1.316-8.84-3.104-12.922-5.331l-9.211,9.211
				l-26.182-26.148l9.245-9.245c-2.227-4.049-4.049-8.401-5.331-12.922H70.22v-36.978h13.091c1.282-4.521,3.104-8.873,5.331-12.922
				l-9.245-9.245l26.182-26.148l9.211,9.211c4.082-2.227,8.401-4.015,12.922-5.331v-13.057h37.012v13.057
				c4.521,1.316,8.84,3.104,12.888,5.365l9.245-9.245l26.182,26.148l-9.245,9.245c2.227,4.049,4.049,8.401,5.331,12.922h13.057
				v36.978H209.125z" fill="#707070" class="color576066 svgShape"></path>
      </g>
      <g fill="#0966c2" class="color000000 svgShape">
        <circle cx="146.216" cy="217.54" r="36.978" fill="#ffffff" class="colorffffff svgShape"></circle>
      </g>
      <g fill="#0966c2" class="color000000 svgShape">
        <line x1="252.927" x2="328.698" y1="272.187" y2="272.187" fill="#fff"></line>
      </g>
      <g fill="#0966c2" class="color000000 svgShape">
        <line x1="252.927" x2="382.88" y1="301.932" y2="301.932" fill="#fff"></line>
      </g>
      <path d="M38.034,484.598h392.164c17.659,0,32.029-14.37,32.029-32.031v-17.573
			c0-0.357-0.104-1.132-0.273-1.616l-35.021-100.33v-94.077h50.454c10.555,0,19.904-5.517,25.002-14.76
			c5.098-9.241,4.782-20.088-0.847-29.018l-97.389-154.47c-5.261-8.344-14.294-13.322-24.159-13.322
			c-9.861,0-18.889,4.983-24.145,13.324l-34.629,54.925H93.834c-29.219,0-52.991,23.772-52.991,52.991v185.697L6.273,433.379
			C6.104,433.863,6,434.637,6,434.994v17.573C6,470.228,20.37,484.598,38.034,484.598z M452.424,452.567
			c0,12.257-9.971,22.228-22.225,22.228H38.034c-12.259,0-22.23-9.971-22.23-22.228v-12.671c52.82,0,390.828,0,436.62,0V452.567z
			 M175.518,430.093l5.079-12.47c0.775-1.898,2.599-3.126,4.653-3.126h97.734c2.049,0,3.873,1.228,4.648,3.126l5.084,12.47H175.518z
			 M364.139,45.953c3.456-5.476,9.382-8.748,15.859-8.748c6.477,0,12.408,3.269,15.864,8.748l97.389,154.468
			c3.695,5.864,3.901,12.987,0.555,19.057c-3.351,6.067-9.488,9.691-16.419,9.691H282.609c-6.931,0-13.068-3.624-16.419-9.693
			c-3.346-6.067-3.135-13.19,0.56-19.054L364.139,45.953z M50.647,148.641c0-23.812,19.372-43.187,43.187-43.187h221.204
			l-56.578,89.737c-5.629,8.93-5.95,19.777-0.852,29.018c5.098,9.243,14.447,14.763,25.002,14.763H417.13v90.654H50.647V148.641z
			 M49.45,339.429h369.326l31.646,90.663H303.299l-6.592-16.17c-2.283-5.605-7.669-9.229-13.724-9.229h-97.734
			c-6.055,0-11.445,3.624-13.729,9.229l-6.588,16.17H17.804L49.45,339.429z" fill="#2c2c2c" class="color242c35 svgShape"></path>
      <path d="M84.897 354.912H74.342c-2.709 0-4.902 2.195-4.902 4.902s2.192 4.902 4.902 4.902h10.555c2.709 0 4.902-2.195 4.902-4.902S87.607 354.912 84.897 354.912zM128.975 354.912H118.42c-2.709 0-4.902 2.195-4.902 4.902s2.192 4.902 4.902 4.902h10.555c2.709 0 4.902-2.195 4.902-4.902S131.684 354.912 128.975 354.912zM162.497 364.716h10.555c2.709 0 4.902-2.195 4.902-4.902s-2.192-4.902-4.902-4.902h-10.555c-2.709 0-4.902 2.195-4.902 4.902S159.788 364.716 162.497 364.716zM206.575 364.716h10.55c2.709 0 4.902-2.195 4.902-4.902s-2.192-4.902-4.902-4.902h-10.55c-2.709 0-4.902 2.195-4.902 4.902S203.865 364.716 206.575 364.716zM250.652 364.716h10.55c2.709 0 4.902-2.195 4.902-4.902s-2.192-4.902-4.902-4.902h-10.55c-2.709 0-4.902 2.195-4.902 4.902S247.943 364.716 250.652 364.716zM294.725 364.716h10.555c2.709 0 4.902-2.195 4.902-4.902s-2.192-4.902-4.902-4.902h-10.555c-2.709 0-4.902 2.195-4.902 4.902S292.016 364.716 294.725 364.716zM338.802 364.716h10.555c2.709 0 4.902-2.195 4.902-4.902s-2.192-4.902-4.902-4.902h-10.555c-2.709 0-4.902 2.195-4.902 4.902S336.093 364.716 338.802 364.716zM382.88 364.716h10.555c2.709 0 4.902-2.195 4.902-4.902s-2.192-4.902-4.902-4.902H382.88c-2.709 0-4.902 2.195-4.902 4.902S380.171 364.716 382.88 364.716zM64.658 381.788H52.672c-2.709 0-4.902 2.195-4.902 4.902 0 2.707 2.192 4.902 4.902 4.902h11.986c2.709 0 4.902-2.195 4.902-4.902C69.56 383.983 67.368 381.788 64.658 381.788zM114.719 381.788h-11.986c-2.709 0-4.902 2.195-4.902 4.902 0 2.707 2.192 4.902 4.902 4.902h11.986c2.709 0 4.902-2.195 4.902-4.902C119.621 383.983 117.429 381.788 114.719 381.788zM169.687 386.69c0-2.707-2.192-4.902-4.902-4.902h-11.986c-2.709 0-4.902 2.195-4.902 4.902 0 2.707 2.192 4.902 4.902 4.902h11.986C167.495 391.592 169.687 389.397 169.687 386.69zM202.865 391.592h11.986c2.709 0 4.902-2.195 4.902-4.902 0-2.707-2.192-4.902-4.902-4.902h-11.986c-2.709 0-4.902 2.195-4.902 4.902C197.963 389.397 200.156 391.592 202.865 391.592zM252.926 381.788c-2.709 0-4.902 2.195-4.902 4.902 0 2.707 2.192 4.902 4.902 4.902h11.986c2.709 0 4.902-2.195 4.902-4.902 0-2.707-2.192-4.902-4.902-4.902H252.926zM298.09 386.69c0 2.707 2.192 4.902 4.902 4.902h11.986c2.709 0 4.902-2.195 4.902-4.902 0-2.707-2.192-4.902-4.902-4.902h-11.986C300.283 381.788 298.09 383.983 298.09 386.69zM348.156 386.69c0 2.707 2.192 4.902 4.902 4.902h11.986c2.709 0 4.902-2.195 4.902-4.902 0-2.707-2.192-4.902-4.902-4.902h-11.986C350.348 381.788 348.156 383.983 348.156 386.69zM403.119 391.592h11.986c2.709 0 4.902-2.195 4.902-4.902 0-2.707-2.192-4.902-4.902-4.902h-11.986c-2.709 0-4.902 2.195-4.902 4.902C398.217 389.397 400.41 391.592 403.119 391.592zM358.869 143.287c.933 11.07 10.019 19.418 21.129 19.418 11.106 0 20.196-8.346 21.134-19.416l4.217-49.69c1.264-14.829-10.464-27.594-25.351-27.594-14.884 0-26.611 12.759-25.346 27.594L358.869 143.287zM379.998 75.809c9.136 0 16.362 7.788 15.586 16.962l-4.217 49.688c-.507 5.955-5.395 10.443-11.369 10.443-5.974 0-10.861-4.488-11.364-10.44l-4.217-49.693C363.636 83.539 370.923 75.809 379.998 75.809zM379.998 174.691c-11.23 0-20.368 9.138-20.368 20.371s9.138 20.371 20.368 20.371c11.235 0 20.373-9.138 20.373-20.371S391.233 174.691 379.998 174.691zM379.998 205.629c-5.826 0-10.565-4.741-10.565-10.567s4.739-10.567 10.565-10.567c5.826 0 10.569 4.741 10.569 10.567S385.824 205.629 379.998 205.629zM222.18 194.148h-9.464c-.833-2.396-1.809-4.763-2.93-7.082l6.716-6.716c1.907-1.907 1.921-5.012 0-6.934l-26.179-26.148c-1.915-1.91-5.017-1.912-6.931.002l-6.702 6.704c-2.279-1.103-4.638-2.085-7.065-2.934v-9.48c0-2.707-2.192-4.902-4.902-4.902h-37.012c-2.709 0-4.902 2.195-4.902 4.902v9.48c-2.413.845-4.777 1.821-7.075 2.92l-6.692-6.69c-1.915-1.915-5.017-1.912-6.931-.002l-26.179 26.148c-1.923 1.923-1.906 5.028 0 6.934l6.716 6.716c-1.12 2.322-2.097 4.686-2.93 7.082h-9.497c-2.709 0-4.902 2.195-4.902 4.902v36.979c0 2.707 2.192 4.902 4.902 4.902h9.497c.833 2.396 1.809 4.763 2.93 7.085l-6.716 6.716c-1.907 1.907-1.921 5.013 0 6.934l26.179 26.148c1.915 1.91 5.017 1.912 6.931-.002l6.692-6.69c2.298 1.099 4.662 2.075 7.075 2.92v9.48c0 2.707 2.192 4.902 4.902 4.902h37.012c2.709 0 4.902-2.195 4.902-4.902v-9.48c2.427-.85 4.787-1.831 7.065-2.934l6.702 6.704c1.915 1.915 5.017 1.912 6.931.002l26.179-26.148c1.923-1.923 1.906-5.028 0-6.934l-6.716-6.716c1.12-2.319 2.097-4.686 2.93-7.085h9.464c2.709 0 4.902-2.195 4.902-4.902v-36.979C227.082 196.342 224.889 194.148 222.18 194.148zM217.278 231.126h-8.152c-2.192 0-4.117 1.455-4.715 3.564-1.154 4.066-2.805 8.071-4.911 11.898-1.053 1.91-.713 4.287.828 5.828l5.778 5.778-19.243 19.219-5.783-5.78c-1.556-1.553-3.949-1.884-5.854-.814-3.686 2.056-7.678 3.719-11.871 4.94-2.092.608-3.533 2.525-3.533 4.706v8.154h-27.209v-8.154c0-2.178-1.441-4.098-3.533-4.706-4.15-1.211-8.166-2.867-11.938-4.928-1.896-1.041-4.275-.706-5.816.835l-5.749 5.749-19.248-19.222 5.778-5.778c1.541-1.541 1.881-3.918.828-5.828-2.106-3.832-3.758-7.834-4.907-11.893-.594-2.111-2.523-3.569-4.715-3.569h-8.19v-27.175h8.19c2.192 0 4.121-1.458 4.715-3.569 1.149-4.057 2.8-8.059 4.907-11.891 1.053-1.91.713-4.287-.828-5.828l-5.778-5.778 19.248-19.222 5.749 5.749c1.541 1.541 3.92 1.879 5.816.835 3.772-2.061 7.788-3.717 11.938-4.928 2.092-.608 3.533-2.527 3.533-4.705v-8.154h27.209v8.154c0 2.18 1.441 4.098 3.533 4.705 4.193 1.221 8.186 2.884 11.871 4.94 1.905 1.07 4.303.74 5.854-.814l5.783-5.78 19.243 19.219-5.778 5.778c-1.541 1.541-1.881 3.918-.828 5.828 2.106 3.827 3.758 7.829 4.911 11.895.598 2.109 2.523 3.564 4.715 3.564h8.152V231.126z" fill="#2c2c2c" class="color242c35 svgShape"></path>
      <path d="M146.217 175.661c-23.092 0-41.88 18.786-41.88 41.878s18.788 41.88 41.88 41.88 41.88-18.788 41.88-41.88S169.309 175.661 146.217 175.661zM146.217 249.616c-17.688 0-32.077-14.389-32.077-32.077 0-17.685 14.389-32.074 32.077-32.074s32.077 14.389 32.077 32.074C178.294 235.226 163.905 249.616 146.217 249.616zM252.926 277.09h75.771c2.709 0 4.902-2.195 4.902-4.902 0-2.707-2.192-4.902-4.902-4.902h-75.771c-2.709 0-4.902 2.195-4.902 4.902C248.024 274.895 250.217 277.09 252.926 277.09zM382.88 297.029H252.926c-2.709 0-4.902 2.195-4.902 4.902 0 2.707 2.192 4.902 4.902 4.902H382.88c2.709 0 4.902-2.195 4.902-4.902C387.782 299.224 385.589 297.029 382.88 297.029z" fill="#2c2c2c" class="color242c35 svgShape"></path>
    </g>
  </g>
</svg>
