<svg xmlns="http://www.w3.org/2000/svg" xml:space="preserve" viewBox="0 0 512 512" enable-background="new 0 0 512 512" id="11962832">
  <g id="_x32_2_Feedback" fill="#000000" class="color000000 svgShape">
    <g fill="#000000" class="color000000 svgShape">
      <g fill="#000000" class="color000000 svgShape">
        <path d="M174.305,226.877v131.96c0,32.069,25.974,58.042,58.042,58.042h113.31
				c18.5,37.355,47.113,62.242,84.744,76.01c-14.652-26.822-18.623-52.373-6.505-76.01h19.15c32.069,0,58.042-25.973,58.042-58.042
				v-131.96c0-32.069-25.974-58.042-58.042-58.042H232.347C200.279,168.834,174.305,194.807,174.305,226.877z" fill="#0966c2" class="color5a83fc svgShape"></path>
      </g>
      <g opacity=".3" fill="#000000" class="color000000 svgShape">
        <g fill="#000000" class="color000000 svgShape">
          <path d="M501.093,226.87v25.783c-37.597-17.205-79.409-26.764-123.475-26.764
					c-78.624,0-150.092,30.44-203.325,80.193V226.87c0-32.057,25.98-58.037,58.037-58.037h210.726
					C475.113,168.833,501.093,194.813,501.093,226.87z" fill="#ffffff" class="colorffffff svgShape"></path>
        </g>
      </g>
      <g fill="#000000" class="color000000 svgShape">
        <path d="M337.697,77.154v131.96c0,32.069-25.974,58.042-58.042,58.042h-113.31
				c-18.499,37.355-47.113,62.242-84.744,76.01c14.652-26.822,18.623-52.373,6.505-76.01h-19.15
				c-32.069,0-58.042-25.973-58.042-58.042V77.154c0-32.069,25.974-58.042,58.042-58.042h210.699
				C311.723,19.111,337.697,45.085,337.697,77.154z" fill="#ccdff2" class="colord9f2cc svgShape"></path>
      </g>
      <g opacity=".3" fill="#000000" class="color000000 svgShape">
        <g fill="#000000" class="color000000 svgShape">
          <path d="M337.717,77.171v23.136c-30.587-25.048-69.703-40.047-112.299-40.047
					c-98.084,0-177.64,79.555-177.64,177.64c0,8.823,0.637,17.499,1.912,25.979c-22.597-7.941-38.773-29.46-38.773-54.753V77.171
					c0-32.106,25.979-58.037,58.037-58.037h210.678C311.738,19.134,337.717,45.064,337.717,77.171z" fill="#ffffff" class="colorffffff svgShape"></path>
        </g>
      </g>
      <g fill="#000000" class="color000000 svgShape">
        <path d="M142.426,120.535v108.479c0,4.897-3.97,8.866-8.866,8.866H88.708c-4.897,0-8.866-3.97-8.866-8.866
				V120.535c0-4.897,3.97-8.866,8.866-8.866h44.852C138.457,111.669,142.426,115.638,142.426,120.535z" fill="#aeaeae" class="colorf66866 svgShape"></path>
      </g>
      <g opacity=".3" fill="#000000" class="color000000 svgShape">
        <g fill="#000000" class="color000000 svgShape">
          <path d="M142.431,120.551v18.137c-4.51-2.598-9.804-4.069-15.391-4.069
					c-17.303,0-31.322,14.019-31.322,31.273v63.625c0,2.892,0.392,5.735,1.176,8.382h-8.186c-4.902,0-8.872-3.97-8.872-8.872
					V120.551c0-4.902,3.97-8.872,8.872-8.872h44.851C138.461,111.679,142.431,115.649,142.431,120.551z" fill="#ffffff" class="colorffffff svgShape"></path>
        </g>
      </g>
      <g fill="#000000" class="color000000 svgShape">
        <path d="M195.623,101.238c12.173-23.758,11.963-43.709-7.462-57.754c-5.24-3.788-12.437,0.28-12.398,6.745
				c0.194,31.803-14.153,54.857-33.337,75v96.484l18.368,2.37c9.302,1.2,18.671,1.802,28.05,1.802h62.061" fill="#ffffff" class="colorffffff svgShape"></path>
      </g>
      <g fill="#000000" class="color000000 svgShape">
        <path d="M195.623,101.238H252.6c8.929,0,16.168,7.238,16.168,16.168v0c0,8.929-7.238,16.168-16.168,16.168
				h-56.978" fill="#ffffff" class="colorffffff svgShape"></path>
      </g>
      <g fill="#000000" class="color000000 svgShape">
        <path d="M195.623,133.573h57.239c8.785,0,15.907,7.122,15.907,15.907v0
				c0,8.785-7.122,15.907-15.907,15.907h-57.239" fill="#ffffff" class="colorffffff svgShape"></path>
      </g>
      <g fill="#000000" class="color000000 svgShape">
        <path d="M195.623,165.387H252.6c8.929,0,16.168,7.238,16.168,16.168v0c0,8.929-7.238,16.168-16.168,16.168
				h-56.978" fill="#ffffff" class="colorffffff svgShape"></path>
      </g>
      <g fill="#000000" class="color000000 svgShape">
        <path d="M195.623,197.722h59.064c7.777,0,14.081,6.304,14.081,14.081v0
				c0,7.777-6.305,14.081-14.081,14.081h-59.064" fill="#ffffff" class="colorffffff svgShape"></path>
      </g>
      <path d="M325.85 293.505H225.412c-2.707 0-4.902 2.195-4.902 4.902 0 2.707 2.195 4.902 4.902 4.902H325.85c2.707 0 4.902-2.195 4.902-4.902C330.752 295.7 328.557 293.505 325.85 293.505zM426.82 298.407c0-2.707-2.195-4.902-4.902-4.902h-57.313c-2.707 0-4.902 2.195-4.902 4.902 0 2.707 2.195 4.902 4.902 4.902h57.313C424.625 303.309 426.82 301.114 426.82 298.407zM460.129 354.03h-76.42c-2.707 0-4.902 2.195-4.902 4.902 0 2.707 2.195 4.902 4.902 4.902h76.42c2.707 0 4.902-2.195 4.902-4.902C465.031 356.225 462.836 354.03 460.129 354.03zM325.85 354.03H225.412c-2.707 0-4.902 2.195-4.902 4.902 0 2.707 2.195 4.902 4.902 4.902H325.85c2.707 0 4.902-2.195 4.902-4.902C330.752 356.225 328.557 354.03 325.85 354.03z" fill="#707070" class="color242c35 svgShape"></path>
      <path d="M68.955,272.057h16.077c9.119,20.035,6.577,42.562-7.733,68.759
			c-0.979,1.793-0.744,4.002,0.586,5.548c1.318,1.53,3.458,2.114,5.4,1.405c38.431-14.061,67.378-39.528,86.073-75.712h0.045v86.779
			c0,34.707,28.238,62.945,62.945,62.945h110.297c18.695,36.184,47.641,61.65,86.07,75.709c1.942,0.709,4.082,0.125,5.4-1.405
			c1.331-1.546,1.565-3.755,0.586-5.548c-14.308-26.196-16.85-48.723-7.731-68.756h16.077c34.707,0,62.943-28.238,62.943-62.945
			v-131.96c0-34.707-28.235-62.945-62.943-62.945H342.599V77.153c0-34.707-28.238-62.943-62.945-62.943H68.955
			C34.248,14.21,6.01,42.446,6.01,77.153v131.96C6.01,243.82,34.248,272.057,68.955,272.057z M443.047,173.735
			c29.3,0,53.139,23.839,53.139,53.141v131.96c0,29.303-23.839,53.141-53.139,53.141h-19.15c-1.838,0-3.523,1.029-4.361,2.666
			c-10.601,20.674-10.376,43.278,0.756,68.802c-31.074-14.222-54.671-37.299-70.243-68.742c-0.826-1.671-2.527-2.726-4.392-2.726
			h-113.31c-29.303,0-53.141-23.839-53.141-53.141v-86.779h100.448c22.319,0,41.913-11.711,53.092-29.277h127.382
			c2.707,0,4.902-2.195,4.902-4.902c0-2.707-2.195-4.902-4.902-4.902H337.87c3.031-7.367,4.73-15.418,4.73-23.865v-35.377H443.047z
			 M15.814,77.153c0-29.3,23.839-53.139,53.141-53.139h210.699c29.303,0,53.141,23.839,53.141,53.139v131.96
			c0,29.303-23.839,53.141-53.141,53.141h-113.31c-1.864,0-3.566,1.056-4.392,2.726c-15.572,31.443-39.169,54.52-70.245,68.742
			c11.132-25.521,11.359-48.127,0.759-68.802c-0.838-1.637-2.523-2.666-4.361-2.666h-19.15c-29.303,0-53.141-23.839-53.141-53.141
			V77.153z" fill="#707070" class="color242c35 svgShape"></path>
      <path d="M88.708,242.781h44.851c7.592,0,13.769-6.175,13.769-13.767v-1.727l12.838,1.658
			c18.289,2.359,31.304,1.744,35.456,1.843c17.114,0,48.022,0,59.063,0c10.469,0,18.985-8.516,18.985-18.985
			c0-5.923-2.783-11.155-7.048-14.639c4.293-3.86,7.048-9.395,7.048-15.609c0-6.489-3.012-12.23-7.64-16.098
			c4.625-3.82,7.64-9.523,7.64-15.977s-3.014-12.157-7.64-15.977c4.628-3.868,7.64-9.608,7.64-16.098
			c0-11.618-9.452-21.069-21.069-21.069h-49.319c10.259-24.39,6.187-43.495-12.25-56.825c-3.841-2.776-8.858-3.15-13.085-0.969
			c-4.402,2.264-7.116,6.754-7.087,11.716c0.143,23.262-7.693,43.321-25.141,63.956c-2.3-4.403-6.859-7.447-12.161-7.447H88.708
			c-7.592,0-13.767,6.175-13.767,13.767v108.48C74.941,236.606,81.116,242.781,88.708,242.781z M180.664,50.2
			c-0.012-1.879,1.352-2.726,1.769-2.942c0.562-0.294,1.68-0.653,2.855,0.199c16.122,11.656,18.02,28.034,5.972,51.545
			c-0.783,1.524-0.531,4.094,0.776,5.522c0.886,0.969,2.628,1.616,3.587,1.616h56.978c6.211,0,11.266,5.055,11.266,11.266
			s-5.055,11.266-11.266,11.266h-56.978c-2.707,0-4.902,2.195-4.902,4.902c0,2.707,2.195,4.902,4.902,4.902
			c27.993,0,32.906,0,57.239,0c6.067,0,11.005,4.938,11.005,11.005c0,6.067-4.938,11.005-11.005,11.005c-20.281,0-34.91,0-57.239,0
			c-2.707,0-4.902,2.195-4.902,4.902c0,2.707,2.195,4.902,4.902,4.902h56.978c6.211,0,11.266,5.055,11.266,11.266
			s-5.055,11.266-11.266,11.266h-56.978c-2.707,0-4.902,2.195-4.902,4.902s2.195,4.902,4.902,4.902c27.084,0,40.884,0,59.063,0
			c5.062,0,9.181,4.117,9.181,9.179s-4.119,9.181-9.181,9.181c-11.042,0-41.969,0-59.063,0c-4.224-0.1-16.615,0.504-34.202-1.762
			l-14.093-1.821v-90.225C170.54,102.322,180.837,78.508,180.664,50.2z M84.745,120.534c0-2.185,1.778-3.964,3.964-3.964h44.851
			c2.188,0,3.966,1.778,3.966,3.964c0,44.057,0,65.285,0,108.48c0,2.185-1.778,3.964-3.966,3.964H88.708
			c-2.185,0-3.964-1.778-3.964-3.964V120.534z" fill="#707070" class="color242c35 svgShape"></path>
    </g>
  </g>
</svg>
