<svg xmlns="http://www.w3.org/2000/svg" enable-background="new 0 0 512 512" viewBox="0 0 512 512" id="6621983">
  <path fill="#0966c2" d="M305.848,256.011c0,27.523-22.318,49.841-49.864,49.841c-27.523,0-49.841-22.318-49.841-49.841
			c0-27.546,22.318-49.864,49.841-49.864C283.529,206.147,305.848,228.466,305.848,256.011z" class="colorfdce06 svgShape"></path>
  <path fill="#707070" d="M13.818,263.812h33.598c4.011,108.926,91.849,196.761,200.772,200.772v33.598
			c0,4.314,3.494,7.812,7.812,7.812s7.812-3.498,7.812-7.812v-33.6c108.932-4.054,196.761-91.873,200.772-200.77h33.598
			c4.318,0,7.812-3.498,7.812-7.812s-3.494-7.812-7.812-7.812h-33.6c-4.055-108.903-91.867-196.714-200.77-200.77v-33.6
			c0-4.314-3.494-7.812-7.812-7.812s-7.812,3.498-7.812,7.812v33.598c-108.894,4.012-196.715,91.84-200.77,200.772h-33.6
			c-4.318,0-7.812,3.498-7.812,7.812S9.5,263.812,13.818,263.812z M248.188,63.04v33.238c0,4.314,3.494,7.812,7.812,7.812
			s7.812-3.498,7.812-7.812V63.043c100.291,4.037,181.108,84.858,185.145,185.145h-33.24c-4.318,0-7.812,3.498-7.812,7.812
			s3.494,7.812,7.812,7.812h33.242c-3.993,100.282-84.827,181.109-185.147,185.145v-33.236c0-4.314-3.494-7.812-7.812-7.812
			s-7.812,3.498-7.812,7.812v33.238C147.877,444.967,67.033,364.123,63.04,263.812h33.234c4.318,0,7.812-3.498,7.812-7.812
			s-3.494-7.812-7.812-7.812H63.043C67.079,147.871,147.906,67.034,248.188,63.04z" class="color3e3e3e svgShape"></path>
  <path fill="#707070" d="M177.816,263.812h21.106c3.479,25.543,23.708,45.777,49.25,49.26v21.092
			c0,4.314,3.494,7.812,7.812,7.812s7.812-3.498,7.812-7.812v-21.092c25.555-3.483,45.793-23.717,49.273-49.261h21.076
			c4.318,0,7.812-3.498,7.812-7.812s-3.494-7.812-7.812-7.812h-21.079c-3.488-25.544-23.722-45.777-49.27-49.26v-21.092
			c0-4.314-3.494-7.812-7.812-7.812s-7.812,3.498-7.812,7.812v21.093c-25.535,3.485-45.761,23.717-49.248,49.26h-21.109
			c-4.318,0-7.812,3.498-7.812,7.812S173.498,263.812,177.816,263.812z M255.985,213.959c23.165,0,42.014,18.833,42.047,41.994
			c0,0.017-0.01,0.03-0.01,0.047c0,0.019,0.011,0.035,0.011,0.054c-0.024,23.153-18.878,41.986-42.048,41.986
			c-23.178,0-42.029-18.856-42.029-42.029C213.955,232.822,232.807,213.959,255.985,213.959z" class="color3e3e3e svgShape"></path>
</svg>
