<svg xmlns="http://www.w3.org/2000/svg" xml:space="preserve" viewBox="0 0 512 512" enable-background="new 0 0 512 512" id="11962835">
  <g id="_x32_5_Founder" fill="#000000" class="color000000 svgShape">
    <g fill="#000000" class="color000000 svgShape">
      <g fill="#000000" class="color000000 svgShape">
        <path d="M95.356,288.365l-17.806-28.551c-5.989-9.603-8.811-20.865-7.98-32.152
				c2.368-32.141,17.884-52.325,54.286-53.517v0c0-10.309,8.357-18.666,18.666-18.666h43.425c41.523,0,75.184,33.661,75.184,75.184
				v0c0,13.164-2.497,26.209-7.359,38.442l-6.418,16.149L95.356,288.365z" fill="#707070" class="color576066 svgShape"></path>
      </g>
      <g fill="#000000" class="color000000 svgShape">
        <path d="M103.022,281.65v40.344h-14.79c-7.868,0-14.246-6.378-14.246-14.246v-11.852
				c0-7.868,6.378-14.246,14.246-14.246H103.022z" fill="#ffffff" class="colorffffff svgShape"></path>
      </g>
      <g fill="#000000" class="color000000 svgShape">
        <path d="M229.243,281.65v40.344h14.79c7.868,0,14.246-6.378,14.246-14.246v-11.852
				c0-7.868-6.378-14.246-14.246-14.246H229.243z" fill="#ffffff" class="colorffffff svgShape"></path>
      </g>
      <g fill="#000000" class="color000000 svgShape">
        <path d="M318.463,472.362v2.26c0,14.379-11.657,26.036-26.036,26.036H36.949
				c-14.379,0-26.036-11.657-26.036-26.036v-2.26c0-37.064,30.046-67.11,67.11-67.11h173.331
				C288.417,405.252,318.463,435.298,318.463,472.362z" fill="#aeaeae" class="colorf66866 svgShape"></path>
      </g>
      <g opacity=".3" fill="#000000" class="color000000 svgShape">
        <g fill="#000000" class="color000000 svgShape">
          <path d="M310.276,440.175c-8.759-4.257-18.594-6.606-28.967-6.606H107.993
					c-37.09,0-67.134,30.044-67.134,67.085h-3.914c-14.386,0-26.032-11.646-26.032-26.032v-2.251
					c0-37.09,30.044-67.134,67.134-67.134h173.316C276.758,405.238,298.826,419.33,310.276,440.175z" fill="#ffffff" class="colorffffff svgShape"></path>
        </g>
      </g>
      <g fill="#000000" class="color000000 svgShape">
        <polygon points="198.613 432.807 198.613 413.252 221.576 413.252 221.576 355.475 107.8 355.475 107.8 406.881 131.948 406.881 131.948 432.807" fill="#ffffff" class="colorffffff svgShape"></polygon>
      </g>
      <g fill="#000000" class="color000000 svgShape">
        <path d="M236.909,259.884v53.537c0,39.172-31.374,71.706-70.545,71.831
				c-19.635,0.063-37.415-7.875-50.28-20.728c-12.802-12.815-20.728-30.506-20.728-50.049V251.18
				c19.867-0.869,30.23-10.736,32-28.74c1.552,1.82,3.119,3.543,4.706,5.132c6.418,6.43,15.167,9.979,24.252,9.979h58.263
				C226.91,237.551,236.909,247.549,236.909,259.884z" fill="#ffffff" class="colorffffff svgShape"></path>
      </g>
      <g fill="#000000" class="color000000 svgShape">
        <path d="M121.133,193.403c-2.074,9.679,0,19.358,6.222,29.037" fill="#ffffff" class="colorffffff svgShape"></path>
      </g>
      <g fill="#000000" class="color000000 svgShape">
        <polygon points="186.41 432.807 179.419 455.473 149.957 455.473 142.966 432.807" fill="#ffffff" class="colorffffff svgShape"></polygon>
      </g>
      <g fill="#000000" class="color000000 svgShape">
        <polygon points="139.207 500.658 190.169 500.658 179.419 455.473 149.957 455.473" fill="#ffffff" class="colorffffff svgShape"></polygon>
      </g>
      <g fill="#000000" class="color000000 svgShape">
        <path d="M134.607,457.805l30.081-24.998l-56.999-53.777l-12.555,26.222l23.767,49.148
				C121.786,460.368,129.508,462.042,134.607,457.805z" fill="#ccdff2" class="colord9f2cc svgShape"></path>
      </g>
      <g opacity=".3" fill="#000000" class="color000000 svgShape">
        <g fill="#000000" class="color000000 svgShape">
          <path d="M164.699,432.811l-10.207,8.462l-32.179-30.323c-6.272-5.938-16.553-4.045-20.302,3.786
					l-1.151,2.375l-5.716-11.877l12.545-26.203L164.699,432.811z" fill="#ffffff" class="colorffffff svgShape"></path>
        </g>
      </g>
      <g fill="#000000" class="color000000 svgShape">
        <path d="M194.769,457.805l-30.081-24.998l56.999-53.777l12.555,26.222l-23.767,49.148
				C207.59,460.368,199.868,462.042,194.769,457.805z" fill="#ccdff2" class="colord9f2cc svgShape"></path>
      </g>
      <g opacity=".3" fill="#000000" class="color000000 svgShape">
        <g fill="#000000" class="color000000 svgShape">
          <path d="M234.252,405.235l-5.567,11.506c-0.111-0.297-0.223-0.594-0.371-0.891l-0.891-1.856
					c-4.268-8.907-15.997-11.097-23.197-4.305l-30.434,28.727c-0.371,0.334-0.705,0.705-1.039,1.076l-8.054-6.681l56.971-53.78
					L234.252,405.235z" fill="#ffffff" class="colorffffff svgShape"></path>
        </g>
      </g>
      <g fill="#000000" class="color000000 svgShape">
        <path d="M387.665,316.661c0,10.22-8.27,18.491-18.491,18.491c-10.202,0-18.472-8.27-18.472-18.491
				c0-10.202,8.27-18.472,18.472-18.472C379.395,298.189,387.665,306.459,387.665,316.661z" fill="#ffffff" class="colorffffff svgShape"></path>
      </g>
      <g fill="#000000" class="color000000 svgShape">
        <path d="M350.722,316.67h36.925c6.059,0,10.971-4.912,10.971-10.971l0,0
				c0-6.059-4.912-10.971-10.971-10.971h-36.925c-6.059,0-10.97,4.912-10.97,10.971l0,0
				C339.751,311.758,344.663,316.67,350.722,316.67z" fill="#707070" class="color576066 svgShape"></path>
      </g>
      <g fill="#000000" class="color000000 svgShape">
        <path d="M465.991,134.698c2.202,34.571-13.734,65.577-39.217,84.406
				c-14.678,10.845-23.168,28.153-23.168,46.403v5.926h-68.845v-5.932c0-18.266-8.521-35.564-23.206-46.426
				c-23.891-17.671-39.38-46.05-39.38-78.031c0-56.013,47.504-100.958,104.412-96.734C424.462,47.863,462.94,86.788,465.991,134.698
				z" fill="#ffffff" class="colorffffff svgShape"></path>
      </g>
      <g fill="#000000" class="color000000 svgShape">
        <line x1="369.184" x2="369.184" y1="11.342" y2="27.953" fill="#fff"></line>
      </g>
      <g fill="#000000" class="color000000 svgShape">
        <line x1="462.455" x2="450.709" y1="49.976" y2="61.722" fill="#fff"></line>
      </g>
      <g fill="#000000" class="color000000 svgShape">
        <line x1="501.088" x2="484.478" y1="143.247" y2="143.247" fill="#fff"></line>
      </g>
      <g fill="#000000" class="color000000 svgShape">
        <line x1="253.891" x2="237.28" y1="143.247" y2="143.247" fill="#fff"></line>
      </g>
      <g fill="#000000" class="color000000 svgShape">
        <line x1="287.66" x2="275.914" y1="61.722" y2="49.976" fill="#fff"></line>
      </g>
      <g fill="#000000" class="color000000 svgShape">
        <path d="M425.754,156.727c-1.152,4.064-2.79,7.976-4.791,11.615l8.309,8.309l-23.533,23.502l-8.309-8.309
				c-3.639,2.032-7.521,3.639-11.584,4.822v11.736h-33.267v-11.736c-4.064-1.183-7.945-2.79-11.615-4.791l-8.279,8.279
				l-23.533-23.502l8.309-8.309c-2.002-3.639-3.639-7.551-4.791-11.615h-11.766V123.49h11.766c1.152-4.064,2.79-7.976,4.791-11.615
				l-8.309-8.309l23.533-23.502l8.279,8.279c3.669-2.002,7.551-3.609,11.615-4.791V71.815h33.267v11.736
				c4.064,1.183,7.945,2.79,11.584,4.822l8.309-8.309l23.533,23.502l-8.309,8.309c2.002,3.639,3.639,7.551,4.791,11.615h11.736
				v33.237H425.754z" fill="#0966c2" class="color5a83fc svgShape"></path>
      </g>
      <g opacity=".3" fill="#000000" class="color000000 svgShape">
        <g fill="#000000" class="color000000 svgShape">
          <path d="M429.301,103.596l-5.503,5.503c-10.511-5.812-22.63-9.151-35.491-9.151
					c-37.469,0-68.447,28.071-72.836,64.428c-1.113-2.473-2.041-5.008-2.782-7.667h-11.81v-33.203h11.81
					c1.113-4.081,2.782-7.976,4.761-11.624l-8.285-8.285l23.496-23.558l8.285,8.285c3.71-1.979,7.543-3.586,11.624-4.761V71.816
					h33.265v11.748c4.081,1.175,7.976,2.782,11.624,4.823l8.285-8.347L429.301,103.596z" fill="#ffffff" class="colorffffff svgShape"></path>
        </g>
      </g>
      <g fill="#000000" class="color000000 svgShape">
        <circle cx="369.211" cy="140.109" r="33.237" fill="#ffffff" class="colorffffff svgShape"></circle>
      </g>
      <g fill="#000000" class="color000000 svgShape">
        <path d="M345.193,294.729h47.983c7.873,0,14.256-6.383,14.256-14.256v0
				c0-7.873-6.383-14.256-14.256-14.256h-47.983c-7.873,0-14.256,6.383-14.256,14.256v0
				C330.937,288.347,337.319,294.729,345.193,294.729z" fill="#707070" class="color576066 svgShape"></path>
      </g>
      <path d="M36.948,505.559c58.02,0,206.263,0,255.48,0c17.06,0,30.938-13.88,30.938-30.938v-2.259
			c0-39.707-32.307-72.011-72.014-72.011h-14.019l-10.853-22.667v-18.181c7.028-9.434,11.959-20.523,14.088-32.607h3.466
			c10.56,0,19.147-8.59,19.147-19.147v-11.852c0-6.606-3.363-12.439-8.466-15.882l3.617-9.1c5.112-12.87,7.702-26.414,7.702-40.253
			c0-44.159-35.925-80.084-80.084-80.084h-43.426c-11.398,0-20.933,8.133-23.106,18.899c-33.69,2.549-52.096,21.984-54.733,57.825
			c-0.914,12.367,2.097,24.506,8.707,35.107l9.48,15.2c-7.94,2.335-13.788,9.605-13.788,18.289v11.852
			c0,10.557,8.588,19.147,19.147,19.147h3.316c1.718,10.444,5.534,20.348,11.351,29.158v21.63l-10.853,22.667H78.024
			c-39.707,0-72.014,32.304-72.014,72.011v2.259C6.01,491.679,19.888,505.559,36.948,505.559z M166.136,390.154
			c0.081,0,0.163,0,0.244,0c19.333-0.062,36.933-7.596,50.296-19.809v6.672l-51.985,49.05l-51.99-49.05v-8.952
			C127.004,382.314,145.963,390.154,166.136,390.154z M164.69,439.179l11.641,9.674l-0.53,1.719h-22.225l-0.53-1.718L164.69,439.179
			z M145.409,495.755l8.42-35.38h21.718l8.42,35.38H145.409z M313.562,472.362v2.259c0,11.654-9.483,21.134-21.134,21.134h-98.386
			l-9.544-40.11l0.001-0.005l7.141,5.934c3.644,3.031,8.349,4.126,12.853,3.145c4.571-0.991,8.358-3.975,10.397-8.186l22.429-46.38
			h14.033C285.655,410.154,313.562,438.061,313.562,472.362z M206.063,452.264c-0.713,1.479-2.044,2.527-3.648,2.875
			c-1.628,0.347-3.25-0.06-4.514-1.103l-25.82-21.46l48.084-45.372l8.64,18.039L206.063,452.264z M253.377,307.748
			c0,5.153-4.193,9.344-9.344,9.344h-2.405c0.366-7.763,0.043,2.154,0.183-30.54h2.221c5.151,0,9.344,4.191,9.344,9.344V307.748z
			 M74.458,228.021c2.384-32.386,18.128-47.948,49.558-48.977c2.642-0.086,4.739-2.255,4.739-4.899
			c0-7.59,6.175-13.765,13.767-13.765h43.426c38.755,0,70.281,31.529,70.281,70.283c0,12.594-2.36,24.918-7.013,36.629l-3.814,9.595
			c-0.461-0.033-2.693-0.108-3.591-0.139v-16.864c0-15.016-12.221-27.235-27.237-27.235h-58.261
			c-20.108,0-34.271-20.115-30.387-38.218c0.57-2.647-1.115-5.254-3.762-5.821c-2.666-0.562-5.256,1.118-5.821,3.762
			c-2.228,10.371-0.206,20.798,5.898,31.026c-1.957,14.827-10.559,22.161-27.099,22.884c-2.618,0.115-4.686,2.274-4.686,4.897
			v20.062l-8.746-14.023C76.286,248.523,73.711,238.155,74.458,228.021z M88.23,317.092c-5.151,0-9.344-4.191-9.344-9.344v-11.852
			c0-5.153,4.193-9.344,9.344-9.344h2.226c0.058,17.511-0.12,23.226,0.127,30.54H88.23z M100.259,255.696
			c15.586-1.891,25.796-9.758,30.038-23.061c7.075,6.264,16.429,9.818,26.017,9.818h58.261c9.612,0,17.434,7.819,17.434,17.431
			v53.536c0,36.787-29.454,66.813-65.657,66.93c-0.072,0-0.144,0-0.215,0c-36.338,0-65.877-29.399-65.877-65.875V255.696z
			 M109.211,387.203l48.089,45.372l-25.825,21.46c-1.264,1.044-2.901,1.448-4.514,1.103c-1.604-0.347-2.934-1.395-3.648-2.875
			l-22.742-47.021L109.211,387.203z M15.814,472.362c0-34.3,27.907-62.208,62.21-62.208h14.033l22.429,46.38
			c2.039,4.21,5.826,7.195,10.397,8.186c4.504,0.981,9.209-0.114,12.853-3.145l7.141-5.933l0.001,0.004l-9.544,40.11H36.948
			c-11.651,0-21.134-9.48-21.134-21.134V472.362z" fill="#2c2c2c" class="color242c35 svgShape"></path>
      <path d="M155.863 304.886c1.915-1.912 1.915-5.017 0-6.931-1.915-1.915-5.017-1.915-6.931 0-4.447 4.44-11.67 4.43-16.108 0-1.915-1.915-5.017-1.915-6.931 0-1.915 1.915-1.915 5.019 0 6.931C134.155 313.148 147.601 313.148 155.863 304.886zM206.374 304.886c1.915-1.912 1.915-5.017 0-6.931-1.915-1.915-5.017-1.915-6.931 0-4.442 4.437-11.67 4.437-16.113 0-1.915-1.915-5.017-1.915-6.931 0-1.915 1.915-1.915 5.019 0 6.931C184.661 313.148 198.112 313.148 206.374 304.886zM151.148 346.479c-1.915 1.915-1.915 5.019 0 6.934 8.268 8.278 21.694 8.276 29.971 0 1.915-1.915 1.915-5.017 0-6.931-1.915-1.915-5.017-1.915-6.931 0-4.433 4.428-11.642 4.465-16.108 0C156.165 344.567 153.063 344.569 151.148 346.479zM470.883 134.387c-3.207-50.401-43.589-91.228-93.933-94.964-60.809-4.541-109.677 43.854-109.677 101.621 0 32.168 15.466 62.813 41.368 81.975 13.288 9.825 21.22 25.708 21.22 42.484v3.603c-2.372 3.189-3.825 7.098-3.825 11.368 0 7.646 4.533 14.21 11.027 17.28-1.371 2.346-2.214 5.039-2.214 7.947 0 7.249 4.914 13.311 11.563 15.203 2.014 10.851 11.348 19.15 22.764 19.15 11.429 0 20.767-8.299 22.783-19.15 6.648-1.892 11.559-7.955 11.559-15.203 0-2.908-.842-5.6-2.212-7.946 6.495-3.07 11.03-9.634 11.03-17.281 0-4.27-1.453-8.179-3.825-11.368v-3.598c0-16.79 7.917-32.663 21.182-42.462C457.7 202.346 473.099 169.202 470.883 134.387zM369.176 330.249c-5.742 0-10.598-3.617-12.566-8.676h25.149C379.788 326.632 374.925 330.249 369.176 330.249zM387.649 311.769h-36.926c-3.346 0-6.07-2.724-6.07-6.07 0-3.346 2.724-6.07 6.07-6.07h36.926c3.346 0 6.065 2.724 6.065 6.07C393.714 309.046 390.995 311.769 387.649 311.769zM393.177 289.826c-.641 0-49.193 0-47.984 0-5.155 0-9.354-4.196-9.354-9.354 0-5.158 4.198-9.354 9.354-9.354h47.984c5.155 0 9.354 4.196 9.354 9.354C402.531 285.631 398.333 289.826 393.177 289.826zM423.866 215.161c-14.896 11.006-24.01 28.447-24.97 47.124-1.818-.574-3.713-.969-5.718-.969h-47.984c-2.005 0-3.901.395-5.719.969-.961-18.665-10.089-36.117-25.004-47.148-23.417-17.321-37.395-45.021-37.395-74.094 0-52.456 44.376-95.908 99.146-91.846 45.49 3.377 81.98 40.27 84.876 85.812C463.104 166.488 449.184 196.449 423.866 215.161zM374.087 27.953v-16.61c0-2.707-2.192-4.902-4.902-4.902-2.709 0-4.902 2.195-4.902 4.902v16.61c0 2.707 2.192 4.902 4.902 4.902C371.895 32.855 374.087 30.66 374.087 27.953z" fill="#2c2c2c" class="color242c35 svgShape"></path>
      <path d="m454.177 65.188 11.742-11.747c1.915-1.915 1.915-5.019 0-6.931-1.915-1.915-5.017-1.915-6.931 0l-11.742 11.747c-1.915 1.915-1.915 5.019 0 6.931C449.16 67.103 452.262 67.103 454.177 65.188zM501.088 138.346h-16.61c-2.709 0-4.902 2.195-4.902 4.902 0 2.707 2.192 4.902 4.902 4.902h16.61c2.709 0 4.902-2.195 4.902-4.902C505.99 140.541 503.797 138.346 501.088 138.346zM237.279 138.346c-2.709 0-4.902 2.195-4.902 4.902 0 2.707 2.192 4.902 4.902 4.902h16.61c2.709 0 4.902-2.195 4.902-4.902 0-2.707-2.192-4.902-4.902-4.902H237.279zM291.126 65.188c1.915-1.915 1.915-5.017 0-6.931L279.379 46.51c-1.915-1.915-5.017-1.915-6.931 0-1.915 1.915-1.915 5.017 0 6.931l11.747 11.747C286.109 67.103 289.211 67.103 291.126 65.188zM437.489 118.588h-8.157c-.689-1.951-1.484-3.877-2.384-5.771l5.787-5.785c1.923-1.923 1.906-5.028 0-6.934l-23.532-23.504c-1.915-1.91-5.017-1.912-6.931.002l-5.778 5.778c-1.862-.888-3.782-1.685-5.749-2.389v-8.171c0-2.707-2.192-4.902-4.902-4.902H352.58c-2.709 0-4.902 2.195-4.902 4.902v8.171c-1.958.699-3.882 1.491-5.763 2.377l-5.763-5.766c-1.915-1.915-5.017-1.912-6.931-.002l-23.532 23.504c-1.907 1.907-1.921 5.013 0 6.934l5.787 5.787c-.9 1.896-1.695 3.822-2.384 5.768h-8.186c-2.709 0-4.902 2.195-4.902 4.902v33.238c0 2.707 2.192 4.902 4.902 4.902h8.186c.689 1.946 1.484 3.873 2.384 5.768l-5.787 5.787c-1.923 1.923-1.906 5.028 0 6.934l23.532 23.504c1.915 1.91 5.017 1.912 6.931-.002l5.763-5.766c1.881.886 3.806 1.678 5.763 2.377v8.171c0 2.707 2.192 4.902 4.902 4.902h33.264c2.709 0 4.902-2.195 4.902-4.902v-8.171c1.967-.704 3.887-1.501 5.749-2.389l5.778 5.778c1.915 1.915 5.017 1.912 6.931.002l23.532-23.504c1.907-1.907 1.921-5.012 0-6.934l-5.787-5.785c.9-1.893 1.695-3.82 2.384-5.771h8.157c2.709 0 4.902-2.195 4.902-4.902V123.49C442.391 120.783 440.199 118.588 437.489 118.588zM432.588 151.826h-6.836c-2.192 0-4.121 1.458-4.715 3.569-1.024 3.619-2.494 7.178-4.37 10.584-1.053 1.91-.713 4.289.828 5.83l4.84 4.84-16.596 16.577-4.844-4.847c-1.551-1.551-3.954-1.879-5.854-.814-3.274 1.826-6.826 3.305-10.569 4.397-2.092.61-3.528 2.527-3.528 4.705v6.833h-23.46v-6.833c0-2.178-1.436-4.095-3.528-4.705-3.695-1.077-7.276-2.554-10.646-4.39-1.905-1.041-4.275-.701-5.811.838l-4.816 4.813-16.591-16.575 4.839-4.84c1.541-1.541 1.881-3.916.828-5.826-1.881-3.425-3.351-6.986-4.37-10.589-.594-2.111-2.523-3.569-4.715-3.569h-6.864v-23.434h6.864c2.192 0 4.121-1.458 4.715-3.569 1.02-3.602 2.489-7.164 4.37-10.589 1.053-1.91.713-4.284-.828-5.826l-4.839-4.84 16.591-16.575 4.816 4.813c1.537 1.537 3.911 1.879 5.811.838 3.37-1.836 6.951-3.313 10.646-4.39 2.092-.61 3.528-2.527 3.528-4.705v-6.833h23.46v6.833c0 2.178 1.436 4.095 3.528 4.705 3.743 1.091 7.295 2.571 10.569 4.397 1.905 1.072 4.303.74 5.854-.814l4.844-4.847 16.596 16.577-4.84 4.84c-1.541 1.541-1.881 3.92-.828 5.83 1.876 3.406 3.346 6.965 4.37 10.584.594 2.111 2.523 3.569 4.715 3.569h6.836V151.826z" fill="#2c2c2c" class="color242c35 svgShape"></path>
      <path d="M369.21,101.97c-21.029,0-38.137,17.108-38.137,38.137c0,21.031,17.108,38.139,38.137,38.139
			c21.034,0,38.142-17.108,38.142-38.139C407.351,119.079,390.243,101.97,369.21,101.97z M369.21,168.443
			c-15.624,0-28.333-12.712-28.333-28.336c0-15.622,12.709-28.333,28.333-28.333c15.624,0,28.338,12.712,28.338,28.333
			C397.548,155.732,384.834,168.443,369.21,168.443z" fill="#2c2c2c" class="color242c35 svgShape"></path>
    </g>
  </g>
</svg>
