<svg xmlns="http://www.w3.org/2000/svg" xml:space="preserve" viewBox="0 0 512 512" enable-background="new 0 0 512 512" id="11962838">
  <g id="_x32_8_Funding" fill="#000000" class="color000000 svgShape">
    <g fill="#000000" class="color000000 svgShape">
      <g fill="#000000" class="color000000 svgShape">
        <path d="M208.673,243.835h94.64c57.297,68.396,69.334,122.152,44.346,163.932
				c-5.196,8.688-14.667,13.918-24.791,13.918H189.165c-9.943,0-19.24-5.063-24.524-13.485
				C139.107,367.502,157.977,311.245,208.673,243.835z" fill="#d9dee3" class="colord9dde3 svgShape"></path>
      </g>
      <g opacity=".3" fill="#000000" class="color000000 svgShape">
        <g fill="#000000" class="color000000 svgShape">
          <path d="M322.121,268.083H309.31c-61.213,0-115.941,41.756-128.537,101.629
					c-3.966,18.922-3.109,36.181,3.216,51.511c-7.933-1.393-14.955-6.11-19.35-13.025c-25.515-40.684-6.647-96.966,44.061-164.344
					h94.607C310.275,252.163,316.547,260.204,322.121,268.083z" fill="#ffffff" class="colorffffff svgShape"></path>
        </g>
      </g>
      <g fill="#000000" class="color000000 svgShape">
        <path d="M299.731,215.641h-87.477c-7.786,0-14.097,6.311-14.097,14.097v0
				c0,7.786,6.311,14.097,14.097,14.097h87.477c7.786,0,14.097-6.311,14.097-14.097v0
				C313.828,221.952,307.517,215.641,299.731,215.641z" fill="#ffffff" class="colorffffff svgShape"></path>
      </g>
      <g fill="#000000" class="color000000 svgShape">
        <path d="M212.3,173.904c28.848,5.244,57.987,5.282,87.428-0.048c7.755-1.404,14.008,6.331,11.113,13.661
				l-11.108,28.123h-87.477l-11.093-28.083C198.262,180.217,204.534,172.492,212.3,173.904z" fill="#d9dee3" class="colord9dde3 svgShape"></path>
      </g>
      <g opacity=".3" fill="#000000" class="color000000 svgShape">
        <g fill="#000000" class="color000000 svgShape">
          <path d="M310.865,187.519l-2.198,5.574c-3.645-1.93-7.826-2.787-12.382-2.359
					c-15.866,1.608-31.679,1.608-47.384,0.054c-13.883-1.394-24.871,9.809-24.871,22.62c0,0.751,0.054,1.501,0.107,2.251h-11.9
					l-11.096-28.087c-2.894-7.343,3.377-15.062,11.149-13.668c28.838,5.253,57.997,5.307,87.425-0.054
					C307.488,172.457,313.759,180.176,310.865,187.519z" fill="#ffffff" class="colorffffff svgShape"></path>
        </g>
      </g>
      <g fill="#000000" class="color000000 svgShape">
        <path d="M204.584,447.78L204.584,447.78c5.913-5.913,13.933-9.235,22.296-9.235h64.642
				c7.387,0,13.375-5.988,13.375-13.375v0c0-7.387-5.988-13.375-13.375-13.375h-57.698c-9.864,0-19.652-1.724-28.921-5.095l0,0
				c-9.27-3.371-19.058-5.095-28.921-5.095h-37.954v75.792l89.421,21.981c15.709,3.861,32.313,1.162,45.99-7.476l105.466-66.61
				c8.922-5.635,9.541-18.418,1.206-24.889h0c-4.361-3.386-10.214-4.144-15.294-1.981l-59.92,25.51" fill="#ffffff" class="colorffffff svgShape"></path>
      </g>
      <g fill="#000000" class="color000000 svgShape">
        <path d="M77.097,485.57v-92.139c0-7.68,6.226-13.906,13.906-13.906h33.119
				c7.68,0,13.906,6.226,13.906,13.906v92.139c0,7.68-6.226,13.906-13.906,13.906H91.003
				C83.323,499.475,77.097,493.25,77.097,485.57z" fill="#ccdff2" class="colord9f2cc svgShape"></path>
      </g>
      <g opacity=".3" fill="#000000" class="color000000 svgShape">
        <g fill="#000000" class="color000000 svgShape">
          <path d="M138.027,393.415v2.981c-5.258-4.264-11.923-6.831-19.168-6.831
					c-16.808,0-30.47,13.662-30.47,30.47v59.036c0,7.866,3.022,15.028,7.949,20.41h-5.341c-7.659,0-13.91-6.251-13.91-13.91v-92.156
					c0-7.659,6.251-13.91,13.91-13.91h33.12C131.817,379.505,138.027,385.756,138.027,393.415z" fill="#ffffff" class="colorffffff svgShape"></path>
        </g>
      </g>
      <g fill="#000000" class="color000000 svgShape">
        <path d="M121.472,423.321c0,7.658-6.237,13.895-13.926,13.895c-7.658,0-13.895-6.237-13.895-13.895
				c0-7.688,6.237-13.926,13.895-13.926C115.235,409.395,121.472,415.633,121.472,423.321z" fill="#ffffff" class="colorffffff svgShape"></path>
      </g>
      <g fill="#000000" class="color000000 svgShape">
        <circle cx="381.185" cy="105.674" r="72.964" transform="rotate(-45.001 381.186 105.679)" fill="#0966c2" class="color5a83fc svgShape"></circle>
      </g>
      <g opacity=".3" fill="#000000" class="color000000 svgShape">
        <g fill="#000000" class="color000000 svgShape">
          <path d="M448.221,76.901c-13.304-17.258-34.22-28.381-57.724-28.381
					c-40.318,0-72.949,32.668-72.949,72.986c0,10.2,2.069,19.882,5.839,28.677c-9.497-12.306-15.151-27.716-15.151-44.494
					c0-40.318,32.631-72.986,72.949-72.986C411.267,32.703,437.098,50.885,448.221,76.901z" fill="#ffffff" class="colorffffff svgShape"></path>
        </g>
      </g>
      <g fill="#000000" class="color000000 svgShape">
        <circle cx="381.185" cy="105.674" r="47.102" fill="#ffffff" class="colorffffff svgShape"></circle>
      </g>
      <g fill="#000000" class="color000000 svgShape">
        <circle cx="130.816" cy="105.674" r="72.964" transform="rotate(-45.001 130.815 105.676)" fill="#0966c2" class="color5a83fc svgShape"></circle>
      </g>
      <g opacity=".3" fill="#000000" class="color000000 svgShape">
        <g fill="#000000" class="color000000 svgShape">
          <path d="M63.78,76.901C77.083,59.644,98,48.52,121.503,48.52c40.318,0,72.949,32.668,72.949,72.986
					c0,10.2-2.069,19.882-5.839,28.677c9.497-12.306,15.151-27.716,15.151-44.494c0-40.318-32.631-72.986-72.949-72.986
					C100.734,32.703,74.903,50.885,63.78,76.901z" fill="#ffffff" class="colorffffff svgShape"></path>
        </g>
      </g>
      <g fill="#000000" class="color000000 svgShape">
        <circle cx="130.816" cy="105.674" r="47.102" fill="#ffffff" class="colorffffff svgShape"></circle>
      </g>
      <path d="M298.852,169.03c-28.558,5.179-57.39,5.189-85.675,0.053c-5.38-0.972-10.713,0.967-14.212,5.227
			c-3.509,4.279-4.394,9.904-2.36,15.05l8.95,22.658c-7.169,2.72-12.3,9.606-12.3,17.719c0,6.48,3.269,12.198,8.234,15.628
			c-46.644,63.32-62.327,113.051-47.79,151.338h-10.769v-3.274c0-10.368-8.437-18.808-18.808-18.808H91.004
			c-10.371,0-18.808,8.439-18.808,18.808v92.142c0,10.368,8.437,18.808,18.808,18.808h33.118c10.371,0,18.808-8.439,18.808-18.808
			v-1.925l83.344,20.489c16.836,4.149,34.989,1.251,49.783-8.09l105.464-66.609c11.785-7.446,12.602-24.361,1.594-32.905
			c-5.754-4.471-13.494-5.491-20.22-2.618l-4.122,1.755c15.788-41.427-0.3-91.925-48.063-150.479
			c4.837-3.447,8.021-9.071,8.021-15.452c0-8.113-5.132-14.999-12.301-17.719l8.965-22.701c2.034-5.141,1.149-10.77-2.36-15.055
			C309.546,170.011,304.247,168.063,298.852,169.03z M107.547,432.313c-4.959,0-8.995-4.031-8.995-8.99
			c0-4.974,4.035-9.023,8.995-9.023c4.976,0,9.023,4.05,9.023,9.023C116.57,428.282,112.523,432.313,107.547,432.313z
			 M133.126,485.571c0,4.964-4.04,9.004-9.004,9.004h-11.658v-53.192c7.988-2.174,13.911-9.406,13.911-18.061
			c0-10.383-8.446-18.827-18.827-18.827c-10.366,0-18.798,8.444-18.798,18.827c0,8.663,5.923,15.901,13.911,18.068v53.185H91.004
			c-4.964,0-9.004-4.04-9.004-9.004v-92.142c0-4.964,4.04-9.004,9.004-9.004h33.118c4.964,0,9.004,4.04,9.004,9.004
			C133.126,416.13,133.126,462.781,133.126,485.571z M366.735,402.931c3.447-1.46,7.415-0.957,10.368,1.345
			c5.657,4.381,5.243,13.049-0.819,16.869L270.82,487.754c-12.489,7.889-27.864,10.373-42.206,6.864l-85.685-21.067v-67.045h33.053
			c9.32,0,18.487,1.613,27.242,4.796c9.832,3.581,20.129,5.395,30.598,5.395h57.701c4.672,0,8.473,3.801,8.473,8.473
			c0,4.672-3.801,8.473-8.473,8.473h-64.642c-9.732,0-18.884,3.791-25.763,10.67c-1.915,1.915-1.915,5.017,0,6.931
			c1.915,1.915,5.017,1.915,6.931,0c4.954-4.954,11.819-7.798,18.832-7.798h64.642c9.387,0,17.142-7.108,18.161-16.227
			L366.735,402.931z M301.016,248.736c50.777,61.238,65.665,112.51,44.523,152.566l-37.534,15.98
			c-2.949-6.142-9.229-10.388-16.481-10.388h-57.701c-9.325,0-18.492-1.618-27.247-4.801c-9.832-3.576-20.124-5.39-30.593-5.39
			h-11.758c-15.849-35.837-0.501-84.373,46.904-147.967C242.332,248.736,270.259,248.736,301.016,248.736z M299.733,238.932h-87.48
			c-5.069,0-9.196-4.126-9.196-9.196c0-5.069,4.126-9.196,9.196-9.196h87.48c5.069,0,9.196,4.126,9.196,9.196
			C308.928,234.806,304.802,238.932,299.733,238.932z M305.453,180.48c1.225,1.489,1.532,3.447,0.828,5.237l-9.885,25.021h-80.807
			l-9.871-24.978c-0.704-1.79-0.397-3.743,0.823-5.232c0.579-0.704,2.226-2.274,4.883-1.805c29.439,5.361,59.453,5.337,89.175-0.043
			C303.242,178.182,304.874,179.776,305.453,180.48z" fill="#707070" class="color242c35 svgShape"></path>
      <path d="M256.661 376.378c-10.675 0-19.363-8.683-19.363-19.358 0-2.709-2.192-4.902-4.902-4.902s-4.902 2.192-4.902 4.902c0 14.406 10.512 26.375 24.265 28.716v9.631c0 2.709 2.192 4.902 4.902 4.902 2.709 0 4.902-2.192 4.902-4.902v-9.631c13.749-2.342 24.26-14.311 24.26-28.716 0-16.079-13.083-29.162-29.162-29.162-10.675 0-19.363-8.683-19.363-19.358 0-10.675 8.688-19.358 19.363-19.358 10.675 0 19.358 8.683 19.358 19.358 0 2.709 2.192 4.902 4.902 4.902 2.709 0 4.902-2.192 4.902-4.902 0-14.406-10.511-26.374-24.26-28.716v-9.632c0-2.709-2.192-4.902-4.902-4.902-2.709 0-4.902 2.192-4.902 4.902v9.631c-13.753 2.342-24.265 14.311-24.265 28.716 0 16.079 13.083 29.162 29.166 29.162 10.675 0 19.358 8.683 19.358 19.358C276.019 367.695 267.335 376.378 256.661 376.378zM303.318 105.675c0 42.933 34.93 77.863 77.868 77.863 42.933 0 77.863-34.93 77.863-77.863 0-42.938-34.93-77.868-77.863-77.868C338.248 27.807 303.318 62.737 303.318 105.675zM449.246 105.675c0 37.529-30.531 68.06-68.06 68.06s-68.065-30.531-68.065-68.06 30.535-68.065 68.065-68.065S449.246 68.146 449.246 105.675z" fill="#707070" class="color242c35 svgShape"></path>
      <path d="M329.182,105.675c0,28.673,23.331,52.005,52.005,52.005s52.005-23.331,52.005-52.005
			s-23.331-52.005-52.005-52.005S329.182,77.002,329.182,105.675z M423.387,105.675c0,23.269-18.932,42.201-42.201,42.201
			s-42.201-18.932-42.201-42.201s18.932-42.201,42.201-42.201S423.387,82.407,423.387,105.675z" fill="#707070" class="color242c35 svgShape"></path>
      <path d="M376.285 77.208v2.354c-6.381 2.081-11.034 8.016-11.034 15.08 0 8.789 7.147 15.935 15.935 15.935 3.38 0 6.127 2.748 6.127 6.127s-2.748 6.127-6.127 6.127c-3.38 0-6.132-2.748-6.132-6.127 0-2.709-2.192-4.902-4.902-4.902-2.709 0-4.902 2.192-4.902 4.902 0 7.064 4.653 12.999 11.034 15.08v2.354c0 2.709 2.192 4.902 4.902 4.902 2.709 0 4.902-2.192 4.902-4.902v-2.355c6.377-2.082 11.029-8.016 11.029-15.079 0-8.784-7.147-15.931-15.931-15.931-3.38 0-6.132-2.752-6.132-6.132s2.752-6.127 6.132-6.127c3.38 0 6.127 2.748 6.127 6.127 0 2.709 2.192 4.902 4.902 4.902 2.709 0 4.902-2.192 4.902-4.902 0-7.063-4.652-12.997-11.029-15.079v-2.355c0-2.709-2.192-4.902-4.902-4.902C378.477 72.306 376.285 74.499 376.285 77.208zM476.206 40.636l8.779-8.784c1.915-1.915 1.915-5.017 0-6.931-1.915-1.915-5.017-1.915-6.931 0l-8.779 8.784c-1.915 1.915-1.915 5.017 0 6.931C471.189 42.551 474.291 42.551 476.206 40.636zM498.986 65.657h-12.417c-2.709 0-4.902 2.192-4.902 4.902 0 2.709 2.192 4.902 4.902 4.902h12.417c2.709 0 4.902-2.192 4.902-4.902C503.888 67.85 501.696 65.657 498.986 65.657zM444.253 23.337V10.919c0-2.709-2.192-4.902-4.902-4.902-2.709 0-4.902 2.192-4.902 4.902v12.417c0 2.709 2.192 4.902 4.902 4.902C442.061 28.238 444.253 26.046 444.253 23.337zM130.816 27.807c-42.936 0-77.866 34.93-77.866 77.868 0 42.933 34.93 77.863 77.866 77.863s77.866-34.93 77.866-77.863C208.682 62.737 173.752 27.807 130.816 27.807zM130.816 173.735c-37.529 0-68.062-30.531-68.062-68.06s30.533-68.065 68.062-68.065 68.062 30.535 68.062 68.065S168.345 173.735 130.816 173.735z" fill="#707070" class="color242c35 svgShape"></path>
      <path d="M130.816,53.671c-28.676,0-52.005,23.331-52.005,52.005s23.329,52.005,52.005,52.005
			c28.673,0,52.002-23.331,52.002-52.005S159.489,53.671,130.816,53.671z M130.816,147.877c-23.269,0-42.201-18.932-42.201-42.201
			s18.932-42.201,42.201-42.201s42.199,18.932,42.199,42.201S154.085,147.877,130.816,147.877z" fill="#707070" class="color242c35 svgShape"></path>
      <path d="M130.816 88.515c3.38 0 6.127 2.748 6.127 6.127 0 2.709 2.195 4.902 4.902 4.902 2.707 0 4.902-2.192 4.902-4.902 0-7.063-4.652-12.997-11.029-15.079v-2.355c0-2.709-2.195-4.902-4.902-4.902-2.707 0-4.902 2.192-4.902 4.902v2.354c-6.379 2.081-11.031 8.016-11.031 15.08 0 8.789 7.147 15.935 15.933 15.935 3.38 0 6.127 2.748 6.127 6.127s-2.748 6.127-6.127 6.127-6.13-2.748-6.13-6.127c0-2.709-2.195-4.902-4.902-4.902-2.707 0-4.902 2.192-4.902 4.902 0 7.063 4.652 12.998 11.031 15.08v2.354c0 2.709 2.195 4.902 4.902 4.902 2.707 0 4.902-2.192 4.902-4.902v-2.355c6.377-2.082 11.029-8.016 11.029-15.079 0-8.784-7.147-15.931-15.931-15.931-3.38 0-6.13-2.752-6.13-6.132S127.437 88.515 130.816 88.515zM42.726 40.636c1.915-1.915 1.915-5.017.002-6.931l-8.779-8.784c-1.915-1.915-5.019-1.915-6.934 0s-1.915 5.017-.002 6.931l8.779 8.784C37.703 42.547 40.807 42.555 42.726 40.636zM13.014 65.657c-2.707 0-4.902 2.192-4.902 4.902 0 2.709 2.195 4.902 4.902 4.902h12.417c2.707 0 4.902-2.192 4.902-4.902 0-2.709-2.195-4.902-4.902-4.902H13.014zM77.553 23.337V10.919c0-2.709-2.195-4.902-4.902-4.902-2.707 0-4.902 2.192-4.902 4.902v12.417c0 2.709 2.195 4.902 4.902 4.902C75.358 28.238 77.553 26.046 77.553 23.337z" fill="#707070" class="color242c35 svgShape"></path>
    </g>
  </g>
</svg>
