<svg xmlns="http://www.w3.org/2000/svg" xml:space="preserve" viewBox="0 0 512 512" enable-background="new 0 0 512 512" id="11962841">
  <g id="_x33_1_Future" fill="#0966c2" class="color000000 svgShape">
    <g fill="#0966c2" class="color000000 svgShape">
      <g fill="#0966c2" class="color000000 svgShape">
        <path d="M282.044,73.069v51.959h-51.959V73.069c0-14.348,11.631-25.979,25.979-25.979h0
				C270.413,47.09,282.044,58.721,282.044,73.069z" fill="#aeaeae" class="colorf66866 svgShape"></path>
      </g>
      <g opacity=".3" fill="#0966c2" class="color000000 svgShape">
        <g fill="#0966c2" class="color000000 svgShape">
          <path d="M269.839,51.06c-11.225,2.843-19.46,12.989-19.46,25.097v48.87h-20.293V73.069
					c0-14.362,11.617-25.979,25.979-25.979C261.114,47.09,265.868,48.511,269.839,51.06z" fill="#ffffff" class="colorffffff svgShape"></path>
        </g>
      </g>
      <g fill="#0966c2" class="color000000 svgShape">
        <path d="M102.583,122.777l36.887,36.593l-36.593,36.887L65.99,159.664
				c-10.186-10.105-10.252-26.554-0.147-36.74l0,0C75.948,112.738,92.397,112.672,102.583,122.777z" fill="#aeaeae" class="colorf66866 svgShape"></path>
      </g>
      <g opacity=".3" fill="#0966c2" class="color000000 svgShape">
        <g fill="#0966c2" class="color000000 svgShape">
          <path d="M116.169,182.819l-13.284,13.431l-36.91-36.567c-10.146-10.147-10.245-26.567-0.147-36.763
					c4.951-5.049,11.519-7.598,18.087-7.696c-9.608,10.196-9.363,26.274,0.637,36.224L116.169,182.819z" fill="#ffffff" class="colorffffff svgShape"></path>
        </g>
      </g>
      <g fill="#0966c2" class="color000000 svgShape">
        <path d="M409.546,122.777l-36.887,36.593l36.593,36.887l36.887-36.593
				c10.186-10.105,10.252-26.554,0.147-36.74l0,0C436.181,112.738,419.732,112.672,409.546,122.777z" fill="#aeaeae" class="colorf66866 svgShape"></path>
      </g>
      <g opacity=".3" fill="#0966c2" class="color000000 svgShape">
        <g fill="#0966c2" class="color000000 svgShape">
          <path d="M453.213,135.958c-4.46-3.235-9.754-4.853-15.048-4.853c-6.618,0-13.235,2.5-18.284,7.549
					l-34.165,33.871l-13.039-13.137l36.861-36.616c5.049-5.049,11.715-7.549,18.333-7.549c6.666,0,13.382,2.549,18.431,7.696
					C449.978,126.645,452.282,131.204,453.213,135.958z" fill="#ffffff" class="colorffffff svgShape"></path>
        </g>
      </g>
      <g fill="#0966c2" class="color000000 svgShape">
        <circle cx="256.065" cy="306.351" r="194.74" fill="#ccdff2" class="colord9f2cc svgShape"></circle>
      </g>
      <g opacity=".3" fill="#0966c2" class="color000000 svgShape">
        <g fill="#0966c2" class="color000000 svgShape">
          <path d="M423.558,206.985c-35.587-45.929-91.32-75.536-153.915-75.536
					c-107.545,0-194.747,87.202-194.747,194.747c0,36.42,10,70.487,27.401,99.604c-25.685-32.989-40.979-74.458-40.979-119.456
					c0-107.545,87.202-194.747,194.747-194.747C327.287,111.597,389.638,149.879,423.558,206.985z" fill="#ffffff" class="colorffffff svgShape"></path>
        </g>
      </g>
      <g fill="#0966c2" class="color000000 svgShape">
        <circle cx="256.065" cy="306.351" r="151.897" fill="#ffffff" class="colorffffff svgShape"></circle>
      </g>
      <g fill="#0966c2" class="color000000 svgShape">
        <path d="M269.619,240.978v60.854h-27.108v-60.851c0-17.696,4.676-35.077,13.555-50.384v0l0.001,0.002
				C264.944,205.905,269.619,223.285,269.619,240.978z" fill="#707070" class="color576066 svgShape"></path>
      </g>
      <g fill="#0966c2" class="color000000 svgShape">
        <path d="M303.365,319.905h-60.854v-27.108h60.851c17.696,0,35.077,4.676,50.384,13.555l0,0l-0.002,0.001
				C338.438,315.23,321.059,319.905,303.365,319.905z" fill="#707070" class="color576066 svgShape"></path>
      </g>
      <g fill="#0966c2" class="color000000 svgShape">
        <circle cx="256.065" cy="306.351" r="23.681" fill="#d9dee3" class="colord9dde3 svgShape"></circle>
      </g>
      <g opacity=".3" fill="#0966c2" class="color000000 svgShape">
        <g fill="#0966c2" class="color000000 svgShape">
          <path d="M277.829,297.079c-3.431-2.01-7.451-3.137-11.715-3.137c-13.039,0-23.676,10.588-23.676,23.676
					c0,3.284,0.686,6.421,1.912,9.264c-7.156-4.068-11.96-11.715-11.96-20.538c0-13.039,10.637-23.675,23.676-23.675
					C265.819,282.668,274.25,288.648,277.829,297.079z" fill="#ffffff" class="colorffffff svgShape"></path>
        </g>
      </g>
      <g fill="#0966c2" class="color000000 svgShape">
        <circle cx="407.962" cy="417.486" r="83.604" fill="#707070" class="color576066 svgShape"></circle>
      </g>
      <g fill="#0966c2" class="color000000 svgShape">
        <path d="M467.695,426.865l-36.986,27.721c-7.727,5.792-18.75,0.278-18.75-9.379v-55.443
				c0-9.657,11.023-15.17,18.75-9.379l36.986,27.721C473.95,412.796,473.95,422.177,467.695,426.865z" fill="#d9dee3" class="colord9dde3 svgShape"></path>
      </g>
      <g opacity=".3" fill="#0966c2" class="color000000 svgShape">
        <g fill="#0966c2" class="color000000 svgShape">
          <path d="M467.674,426.878l-36.959,27.695c-7.059,5.294-16.862,1.176-18.529-6.912
					c1.225-0.49,2.451-1.176,3.578-2.059l22.891-17.156c9.117-6.814,9.117-20.391,0-27.205l-22.891-17.156
					c-0.539-0.392-1.128-0.784-1.667-1.128c3.578-5,10.98-6.813,16.617-2.549l36.959,27.695
					C473.948,412.81,473.948,422.172,467.674,426.878z" fill="#ffffff" class="colorffffff svgShape"></path>
        </g>
      </g>
      <g fill="#0966c2" class="color000000 svgShape">
        <path d="M407.268,426.865l-36.986,27.721c-7.727,5.792-18.75,0.278-18.75-9.379v-55.443
				c0-9.657,11.023-15.17,18.75-9.379l36.986,27.721C413.523,412.796,413.523,422.177,407.268,426.865z" fill="#d9dee3" class="colord9dde3 svgShape"></path>
      </g>
      <g opacity=".3" fill="#0966c2" class="color000000 svgShape">
        <g fill="#0966c2" class="color000000 svgShape">
          <path d="M407.137,426.878l-36.959,27.695c-7.059,5.294-16.862,1.176-18.529-6.912
					c1.225-0.49,2.451-1.176,3.578-2.059l22.891-17.156c9.117-6.814,9.117-20.391,0-27.205l-22.891-17.156
					c-0.539-0.392-1.128-0.784-1.667-1.128c3.578-5,10.98-6.813,16.617-2.549l36.959,27.695
					C413.411,412.81,413.411,422.172,407.137,426.878z" fill="#ffffff" class="colorffffff svgShape"></path>
        </g>
      </g>
      <path d="M36.682,93.993c-21.496,21.665-40.14,60.711-19.013,81.669c14.578,14.46,38.636,9.233,56.716-0.767
			l17.79,17.647c-22.506,32.311-35.752,71.531-35.752,113.806c0,110.084,89.558,199.641,199.641,199.641
			c33.443,0,64.929-8.358,92.637-22.958c15.708,14.215,36.456,22.958,59.26,22.958c48.802,0,88.507-39.702,88.507-88.504
			c0-32.538-17.701-60.955-43.93-76.332c2.019-11.312,3.167-22.92,3.167-34.804c0-42.275-13.245-81.495-35.751-113.806
			l17.799-17.656c18.12,10.048,42.159,15.209,56.709,0.776c17.525-17.386,9.172-53.259-19.013-81.669
			c-21.508-21.685-60.406-40.621-81.513-19.664c-8.705,8.636-11.273,22.125-7.228,37.993c1.584,6.216,4.16,12.522,7.542,18.725
			l-16.963,16.827c-25.884-19.846-56.726-33.527-90.34-38.769V89.784c24.12-6.983,40.487-21.945,40.487-39.753
			c0-24.686-31.349-44.02-71.37-44.02s-71.37,19.334-71.37,44.02c0,17.808,16.37,32.769,40.49,39.751v19.323
			c-33.615,5.242-64.458,18.922-90.341,38.769l-16.969-16.832c9.832-18.086,14.927-42.221,0.319-56.712h0.002
			C96.975,53.278,57.999,72.501,36.682,93.993z M486.665,417.485c0,43.398-35.306,78.701-78.703,78.701
			c-43.395,0-78.701-35.303-78.701-78.701s35.306-78.701,78.701-78.701C451.359,338.784,486.665,374.087,486.665,417.485z
			 M319.457,417.485c0,6.946,0.887,13.675,2.407,20.165c-18.432,9.297-39.053,14.819-60.898,15.546v-8.191
			c0-2.709-2.195-4.902-4.902-4.902s-4.902,2.192-4.902,4.902v8.219c-36.834-1.216-70.267-16.031-95.444-39.597l5.769-5.768
			c1.915-1.915,1.915-5.017,0-6.931c-1.915-1.915-5.017-1.915-6.931,0l-5.769,5.768c-23.564-25.177-38.378-58.609-39.593-95.44
			h8.217c2.707,0,4.902-2.192,4.902-4.902c0-2.709-2.195-4.902-4.902-4.902h-8.217c1.216-36.833,16.03-70.266,39.596-95.443
			l5.767,5.765c1.915,1.915,5.017,1.915,6.931,0c1.915-1.915,1.915-5.017,0-6.931l-5.767-5.765
			c25.177-23.565,58.609-38.38,95.442-39.595v8.214c0,2.709,2.195,4.902,4.902,4.902s4.902-2.192,4.902-4.902v-8.214
			c36.833,1.215,70.266,16.03,95.442,39.595l-5.765,5.765c-1.915,1.915-1.915,5.017,0,6.931c1.915,1.915,5.017,1.915,6.931,0
			l5.765-5.765c23.565,25.177,38.38,58.61,39.595,95.442h-8.214c-2.707,0-4.902,2.192-4.902,4.902c0,2.709,2.195,4.902,4.902,4.902
			h8.217c-0.206,6.124-0.784,12.153-1.722,18.067C355.563,332.791,319.457,370.96,319.457,417.485z M443.442,336.46
			c-9.937-4.369-20.827-6.902-32.26-7.316c1.097-7.442,1.681-15.048,1.681-22.791c0-86.066-69.933-156.799-156.799-156.799
			c-86.067,0-156.799,69.934-156.799,156.799c0,86.05,69.918,156.799,156.799,156.799c24.63,0,47.884-5.805,68.62-15.99
			c3.788,10.595,9.512,20.249,16.789,28.548c-25.693,13.03-54.675,20.476-85.41,20.476c-104.677,0-189.838-85.163-189.838-189.838
			s85.161-189.838,189.838-189.838s189.838,85.163,189.838,189.838C445.902,316.601,445.019,326.644,443.442,336.46z M396.207,109.9
			c-3.152-12.364-1.505-22.522,4.631-28.611c16.031-15.908,49.474,1.288,67.65,19.607c23.504,23.695,32.237,54.743,19.071,67.806
			c-10.477,10.388-29.337,5.718-42.531-1.033l4.561-4.525c12.111-12.017,12.203-31.551,0.177-43.671
			c-11.999-12.103-31.551-12.2-43.673-0.177l-4.573,4.537C399.2,119.182,397.381,114.503,396.207,109.9z M412.997,126.257
			c8.255-8.19,21.625-8.123,29.81,0.12c8.201,8.265,8.154,21.603-0.12,29.808l-28.599,28.37
			c-8.618-11.156-18.382-21.377-29.126-30.486L412.997,126.257z M194.498,50.03c0-18.549,28.195-34.217,61.566-34.217
			s61.566,15.667,61.566,34.217c0,12.337-12.509,23.364-30.684,29.387V73.07c0-17.027-13.853-30.88-30.883-30.88
			c-17.027,0-30.88,13.853-30.88,30.88v6.382C206.996,73.428,194.498,62.374,194.498,50.03z M234.988,73.07
			c0-11.623,9.454-21.077,21.077-21.077s21.079,9.454,21.079,21.077v34.759c-13.834-1.459-27.646-1.53-42.156,0V73.07z
			 M98.04,184.554l-28.599-28.37c-8.268-8.198-8.324-21.537-0.117-29.808c8.187-8.249,21.551-8.305,29.808-0.12l28.036,27.811
			C116.422,163.176,106.659,173.397,98.04,184.554z M111.288,81.289c0.002,0,0.002,0,0.002,0
			c10.487,10.406,5.922,29.342-0.681,42.546l-4.575-4.539c-11.877-11.775-31.438-12.162-43.671,0.177
			c-11.991,12.087-11.915,31.68,0.175,43.671l4.573,4.536c-13.223,6.748-32.079,11.4-42.54,1.021
			c-16.582-16.453,2.314-50.915,19.071-67.806C61.729,82.663,95.43,65.535,111.288,81.289z" fill="#2c2c2c" class="color242c35 svgShape"></path>
      <path d="M358.647 306.353c0-1.747-.931-3.365-2.441-4.241-16.034-9.301-34.307-14.217-52.845-14.217H277.85c-1.017-1.199-2.131-2.312-3.33-3.33v-43.587c0-18.535-4.914-36.806-14.212-52.842-.878-1.513-2.494-2.441-4.241-2.441-1.747 0-3.363.929-4.241 2.441-9.301 16.036-14.217 34.312-14.217 52.847v43.582c-6.185 5.247-10.127 13.062-10.127 21.788 0 15.758 12.822 28.582 28.582 28.582 8.728 0 16.543-3.943 21.79-10.129h25.512c18.53 0 36.801-4.916 52.837-14.212C357.716 309.718 358.647 308.1 358.647 306.353zM247.412 240.984c0-13.729 2.973-27.29 8.655-39.721 5.68 12.427 8.65 25.993 8.65 39.717v38.139c-5.639-1.796-11.663-1.796-17.305 0V240.984zM237.285 306.353c0-10.354 8.425-18.779 18.779-18.779s18.779 8.425 18.779 18.779-8.425 18.779-18.779 18.779S237.285 316.707 237.285 306.353zM303.366 315.003h-20.065c1.795-5.637 1.796-11.662-.001-17.305h20.062c13.724 0 27.29 2.973 39.721 8.655C330.651 312.03 317.087 315.003 303.366 315.003zM407.057 401.826l-33.836-25.36c-5.067-3.801-11.735-4.394-17.403-1.57-5.668 2.839-9.188 8.535-9.188 14.868v55.442c0 6.333 3.518 12.034 9.184 14.868 5.602 2.801 12.286 2.279 17.407-1.565l33.836-25.364v12.062c0 6.333 3.518 12.034 9.184 14.868 5.602 2.801 12.286 2.279 17.407-1.565l36.986-27.726c4.229-3.169 6.656-8.013 6.656-13.298 0-5.285-2.427-10.134-6.656-13.298l-36.986-27.721c-5.067-3.801-11.735-4.394-17.403-1.57-5.668 2.839-9.188 8.535-9.188 14.868V401.826zM404.328 422.937v.005l-36.986 27.721c-2.116 1.584-4.784 1.824-7.142.641-2.36-1.178-3.767-3.461-3.767-6.098v-55.442c0-2.638 1.41-4.916 3.77-6.098 2.367-1.178 5.013-.945 7.14.641l36.986 27.726c1.735 1.297 2.729 3.284 2.729 5.452C407.057 419.654 406.063 421.64 404.328 422.937zM416.86 389.764c0-2.638 1.41-4.916 3.77-6.098 2.367-1.178 5.013-.945 7.14.641l36.986 27.726c1.735 1.297 2.731 3.284 2.731 5.452 0 2.168-.996 4.155-2.731 5.452v.005l-36.986 27.721c-2.113 1.584-4.782 1.824-7.142.641-2.36-1.178-3.767-3.461-3.767-6.098V389.764z" fill="#2c2c2c" class="color242c35 svgShape"></path>
    </g>
  </g>
</svg>
