<svg xmlns="http://www.w3.org/2000/svg" enable-background="new 0 0 512 512" viewBox="0 0 512 512" id="6621994">
  <rect width="53.857" height="95.374" x="64.157" y="366.295" fill="#ffffff" class="colorffffff svgShape"></rect>
  <rect width="53.857" height="138.576" x="174.099" y="323.093" fill="#0966c2" class="colorfdce06 svgShape"></rect>
  <rect width="53.857" height="201.347" x="284.04" y="260.322" fill="#cfd0d1" class="colorcfcfd1 svgShape"></rect>
  <rect width="53.857" height="292.552" x="393.982" y="169.117" fill="#0966c2" class="colorfdce06 svgShape"></rect>
  <path fill="#707070" d="M420.909 104.239c4.314 0 7.812-3.494 7.812-7.812V50.331c0-4.318-3.498-7.812-7.812-7.812h-46.1c-4.314 0-7.812 3.494-7.812 7.812s3.498 7.812 7.812 7.812h27.597L86.517 285.952c-3.498 2.525-4.291 7.408-1.766 10.91 2.505 3.481 7.385 4.299 10.906 1.77L413.097 69.705v26.722C413.097 100.745 416.595 104.239 420.909 104.239zM498.182 453.856h-42.529V169.118c0-4.318-3.498-7.812-7.812-7.812h-53.858c-4.314 0-7.812 3.494-7.812 7.812v284.738h-40.462V260.318c0-4.318-3.498-7.812-7.812-7.812h-53.855c-4.314 0-7.812 3.494-7.812 7.812v193.538h-40.462V323.091c0-4.318-3.498-7.812-7.812-7.812H174.1c-4.314 0-7.812 3.494-7.812 7.812v130.765h-40.462v-87.561c0-4.318-3.498-7.812-7.812-7.812H64.156c-4.314 0-7.812 3.494-7.812 7.812v87.561H13.818c-4.314 0-7.812 3.494-7.812 7.812s3.498 7.812 7.812 7.812c219.927 0 277 0 484.364 0 4.314 0 7.812-3.494 7.812-7.812S502.496 453.856 498.182 453.856zM71.968 453.856v-79.748h38.234v79.748H71.968zM181.913 453.856V330.904h38.23v122.953H181.913zM291.854 453.856V268.13h38.23v185.726H291.854zM401.794 453.856V176.931h38.234v276.926H401.794z" class="color3e3e3e svgShape"></path>
</svg>
