<svg xmlns="http://www.w3.org/2000/svg" enable-background="new 0 0 512 512" viewBox="0 0 512 512" id="6622007">
  <path fill="#0966c2" d="M282.712,40.535v416.759h-53.434V40.535c0-14.755,11.962-26.717,26.717-26.717h0
			C270.75,13.818,282.712,25.779,282.712,40.535z" class="colorfdce06 svgShape"></path>
  <path fill="#cfd0d1" d="M185.385,498.182v-13.92c0-14.894,12.074-26.969,26.969-26.969h87.281
			c14.894,0,26.969,12.074,26.969,26.969v13.92H185.385z" class="colorcfcfd1 svgShape"></path>
  <path fill="#ffffff" d="M448.055 108.879l-35.699 41.478H193.539c-22.908 0-41.478-18.571-41.478-41.478v0c0-22.908 18.571-41.478 41.478-41.478h218.817L448.055 108.879zM63.949 230.694l35.699-41.478 218.817 0c22.908 0 41.478 18.571 41.478 41.478v0c0 22.908-18.571 41.478-41.478 41.478H99.648L63.949 230.694z" class="colorffffff svgShape"></path>
  <path fill="#707070" d="M418.277,62.302c-1.48-1.724-3.647-2.716-5.92-2.716H290.526v-19.05
			c0-19.043-15.487-34.53-34.53-34.53s-34.53,15.487-34.53,34.53v19.05h-27.931c-27.175,0-49.285,22.109-49.285,49.292
			s22.109,49.292,49.285,49.292h27.931v23.231H99.651c-2.274,0-4.44,0.992-5.92,2.716l-35.705,41.48
			c-2.525,2.93-2.525,7.263,0,10.193l35.705,41.48c1.48,1.724,3.647,2.716,5.92,2.716h121.816v169.498h-9.109
			c-19.18,0-34.782,15.602-34.782,34.774v6.111h-36.773c-4.318,0-7.812,3.494-7.812,7.812s3.494,7.812,7.812,7.812
			c50.198,0,180.323,0,230.387,0c4.318,0,7.812-3.494,7.812-7.812s-3.494-7.812-7.812-7.812h-36.773v-6.111
			c0-19.172-15.602-34.774-34.782-34.774h-9.109V279.986h27.938c27.183,0,49.292-22.109,49.292-49.292s-22.109-49.292-49.292-49.292
			h-27.938V158.17h121.831c2.274,0,4.44-0.992,5.92-2.716l35.697-41.48c2.525-2.93,2.525-7.263,0-10.193L418.277,62.302z
			 M237.091,40.535c0-10.422,8.484-18.905,18.905-18.905c10.422,0,18.905,8.484,18.905,18.905v19.05h-37.81V40.535z
			 M318.792,484.259v6.111H193.2v-6.111c0-10.559,8.591-19.149,19.157-19.149c0.803,0,73.443,0,70.357,0h16.922
			C310.202,465.109,318.792,473.7,318.792,484.259z M274.901,449.485h-37.81V279.986h37.81V449.485z M352.132,230.694
			c0,18.562-15.106,33.668-33.668,33.668H103.236l-28.983-33.668l28.983-33.668h215.228
			C337.026,197.026,352.132,212.132,352.132,230.694z M274.901,181.401h-37.81V158.17h37.81V181.401z M408.771,142.546H193.536
			c-18.562,0-33.66-15.106-33.66-33.668s15.098-33.668,33.66-33.668h215.236l28.976,33.668L408.771,142.546z" class="color3e3e3e svgShape"></path>
</svg>
