<svg xmlns="http://www.w3.org/2000/svg" xml:space="preserve" viewBox="0 0 512 512" enable-background="new 0 0 512 512" id="11962816">
  <g id="_x30_6_Innovation" fill="#000000" class="color000000 svgShape">
    <g fill="#000000" class="color000000 svgShape">
      <g fill="#000000" class="color000000 svgShape">
        <path d="M284.041,431.433v11.848c0,10.315-8.362,18.676-18.676,18.676h-17.271
				c-10.315,0-18.676-8.362-18.676-18.676v-11.848H284.041z" fill="#707070" class="color576066 svgShape"></path>
      </g>
      <g fill="#000000" class="color000000 svgShape">
        <path d="M246.286,440.47h20.885c16.415,0,29.721-13.307,29.721-29.721V349.7h-80.328v61.049
				C216.565,427.164,229.872,440.47,246.286,440.47z" fill="#ffffff" class="colorffffff svgShape"></path>
      </g>
      <g fill="#000000" class="color000000 svgShape">
        <path d="M380.314,196.378c2.105,48.439-23.661,91.058-62.601,113.159
				c-7.775,4.413-12.586,12.651-12.586,21.59v11.979c0,11.627-9.426,21.053-21.053,21.053h-54.69
				c-11.627,0-21.053-9.426-21.053-21.053v-11.979c0-8.947-4.823-17.183-12.603-21.6c-37.446-21.26-62.705-61.495-62.705-107.631
				c0-70.255,58.558-126.827,129.531-123.571C326.058,81.239,377.553,132.868,380.314,196.378z" fill="#d9dee3" class="colord9dde3 svgShape"></path>
      </g>
      <g opacity=".3" fill="#000000" class="color000000 svgShape">
        <g fill="#000000" class="color000000 svgShape">
          <path d="M305.366,327.53c-0.147,1.177-0.245,2.402-0.245,3.578v12.009
					c0,11.617-9.412,21.028-21.029,21.028h-54.703c-11.617,0-21.077-9.411-21.077-21.028v-12.009
					c0-8.921-4.804-17.156-12.598-21.568c-37.449-21.273-62.694-61.517-62.694-107.643c0-70.242,58.576-126.808,129.554-123.573
					c0.784,0.049,1.617,0.098,2.402,0.196c-19.46,29.411-30.783,64.703-30.783,102.594
					C234.193,240.523,262.035,293.463,305.366,327.53z" fill="#ffffff" class="colorffffff svgShape"></path>
        </g>
      </g>
      <g fill="#000000" class="color000000 svgShape">
        <circle cx="459.49" cy="336.548" r="15.597" transform="rotate(-22.5 459.47 336.535)" fill="#0966c2" class="color5a83fc svgShape"></circle>
      </g>
      <g opacity=".3" fill="#000000" class="color000000 svgShape">
        <g fill="#000000" class="color000000 svgShape">
          <path d="M474.281,331.696c-2.255-1.225-4.755-1.912-7.45-1.912c-8.578,0-15.588,6.96-15.588,15.588
					c0,1.667,0.245,3.284,0.735,4.804c-4.804-2.598-8.088-7.745-8.088-13.627c0-8.627,7.009-15.588,15.588-15.588
					C466.389,320.961,472.271,325.471,474.281,331.696z" fill="#ffffff" class="colorffffff svgShape"></path>
        </g>
      </g>
      <g fill="#000000" class="color000000 svgShape">
        <circle cx="459.49" cy="65.639" r="15.597" transform="rotate(-22.5 459.47 65.638)" fill="#0966c2" class="color5a83fc svgShape"></circle>
      </g>
      <g opacity=".3" fill="#000000" class="color000000 svgShape">
        <g fill="#000000" class="color000000 svgShape">
          <path d="M471.879,56.218c-1.225-0.343-2.549-0.539-3.872-0.539c-8.627,0-15.637,6.96-15.637,15.588
					c0,3.578,1.225,6.862,3.235,9.46c-6.715-1.715-11.715-7.794-11.715-15.097c0-8.627,7.009-15.588,15.588-15.588
					C464.575,50.041,469.036,52.443,471.879,56.218z" fill="#ffffff" class="colorffffff svgShape"></path>
        </g>
      </g>
      <g fill="#000000" class="color000000 svgShape">
        <circle cx="485.491" cy="201.093" r="15.597" transform="rotate(-22.5 485.47 201.086)" fill="#0966c2" class="color5a83fc svgShape"></circle>
      </g>
      <g opacity=".3" fill="#000000" class="color000000 svgShape">
        <g fill="#000000" class="color000000 svgShape">
          <path d="M498.986,193.32c-1.079-0.245-2.206-0.392-3.333-0.392c-8.627,0-15.588,6.96-15.588,15.588
					c0,2.843,0.735,5.49,2.059,7.794c-7.009-1.52-12.205-7.794-12.205-15.195c0-8.627,6.96-15.637,15.588-15.637
					C491.241,185.477,496.29,188.614,498.986,193.32z" fill="#ffffff" class="colorffffff svgShape"></path>
        </g>
      </g>
      <g fill="#000000" class="color000000 svgShape">
        <ellipse cx="258.43" cy="200.957" rx="19.847" ry="19.848" transform="rotate(-76.714 258.455 200.965)" fill="#aeaeae" class="colorf66866 svgShape"></ellipse>
      </g>
      <g opacity=".3" fill="#000000" class="color000000 svgShape">
        <g fill="#000000" class="color000000 svgShape">
          <path d="M274.142,188.859c-1.422-0.343-2.941-0.49-4.461-0.49c-10.98,0-19.852,8.921-19.852,19.852
					c0,4.559,1.52,8.725,4.118,12.058c-8.774-2.01-15.343-9.901-15.343-19.313c0-10.98,8.872-19.852,19.803-19.852
					C264.829,181.114,270.515,184.153,274.142,188.859z" fill="#ffffff" class="colorffffff svgShape"></path>
        </g>
      </g>
      <g fill="#000000" class="color000000 svgShape">
        <circle cx="319.204" cy="139.076" r="13.278" transform="rotate(-76.714 319.23 139.077)" fill="#aeaeae" class="colorf66866 svgShape"></circle>
      </g>
      <g opacity=".3" fill="#000000" class="color000000 svgShape">
        <g fill="#000000" class="color000000 svgShape">
          <path d="M332.081,135.871c-2.157-1.569-4.853-2.451-7.696-2.451c-7.353,0-13.284,5.931-13.284,13.284
					c0,1.078,0.147,2.157,0.392,3.137c-3.382-2.402-5.588-6.323-5.588-10.784c0-7.304,5.98-13.284,13.284-13.284
					C325.414,125.773,330.659,130.087,332.081,135.871z" fill="#ffffff" class="colorffffff svgShape"></path>
        </g>
      </g>
      <g fill="#000000" class="color000000 svgShape">
        <circle cx="198.917" cy="139.076" r="13.278" transform="rotate(-76.714 198.935 139.08)" fill="#aeaeae" class="colorf66866 svgShape"></circle>
      </g>
      <g opacity=".3" fill="#000000" class="color000000 svgShape">
        <g fill="#000000" class="color000000 svgShape">
          <path d="M211.694,135.479c-2.157-1.47-4.706-2.304-7.5-2.304c-7.304,0-13.284,5.931-13.284,13.284
					c0,1.225,0.147,2.402,0.49,3.529c-3.48-2.353-5.784-6.372-5.784-10.931c0-7.304,5.98-13.284,13.284-13.284
					C205.027,125.773,210.125,129.891,211.694,135.479z" fill="#ffffff" class="colorffffff svgShape"></path>
        </g>
      </g>
      <g fill="#000000" class="color000000 svgShape">
        <circle cx="196.346" cy="260.191" r="13.278" transform="rotate(-76.714 196.367 260.204)" fill="#aeaeae" class="colorf66866 svgShape"></circle>
      </g>
      <g opacity=".3" fill="#000000" class="color000000 svgShape">
        <g fill="#000000" class="color000000 svgShape">
          <path d="M207.429,252.827c-0.735-0.147-1.52-0.196-2.304-0.196c-7.353,0-13.284,5.98-13.284,13.284
					c0,2.696,0.784,5.245,2.206,7.353c-6.225-1.079-10.98-6.519-10.98-13.088c0-7.304,5.931-13.284,13.284-13.284
					C200.959,246.896,205.027,249.249,207.429,252.827z" fill="#ffffff" class="colorffffff svgShape"></path>
        </g>
      </g>
      <g fill="#000000" class="color000000 svgShape">
        <circle cx="319.204" cy="263.11" r="13.278" transform="rotate(-76.714 319.234 263.12)" fill="#aeaeae" class="colorf66866 svgShape"></circle>
      </g>
      <g opacity=".3" fill="#000000" class="color000000 svgShape">
        <g fill="#000000" class="color000000 svgShape">
          <path d="M329.189,254.346c-0.392-0.049-0.784-0.049-1.225-0.049c-7.353,0-13.284,5.931-13.284,13.284
					c0,3.382,1.225,6.421,3.333,8.774c-6.764-0.588-12.107-6.323-12.107-13.235c0-7.353,5.98-13.284,13.284-13.284
					C323.16,249.837,326.738,251.601,329.189,254.346z" fill="#ffffff" class="colorffffff svgShape"></path>
        </g>
      </g>
      <g fill="#000000" class="color000000 svgShape">
        <circle cx="52.511" cy="65.639" r="15.597" transform="rotate(-67.5 52.51 65.637)" fill="#0966c2" class="color5a83fc svgShape"></circle>
      </g>
      <g opacity=".3" fill="#000000" class="color000000 svgShape">
        <g fill="#000000" class="color000000 svgShape">
          <path d="M67.435,61.021c-2.059-1.029-4.362-1.569-6.813-1.569c-8.627,0-15.637,6.961-15.637,15.588
					c0,1.568,0.245,3.088,0.686,4.559c-5.196-2.5-8.774-7.794-8.774-13.97c0-8.627,7.009-15.588,15.637-15.588
					C59.543,50.041,65.474,54.649,67.435,61.021z" fill="#ffffff" class="colorffffff svgShape"></path>
        </g>
      </g>
      <g fill="#000000" class="color000000 svgShape">
        <circle cx="26.51" cy="201.093" r="15.597" transform="rotate(-67.5 26.51 201.09)" fill="#0966c2" class="color5a83fc svgShape"></circle>
      </g>
      <g opacity=".3" fill="#000000" class="color000000 svgShape">
        <g fill="#000000" class="color000000 svgShape">
          <path d="M41.358,196.31c-2.353-1.422-5.049-2.206-7.941-2.206c-8.627,0-15.588,7.009-15.588,15.637
					c0,1.666,0.245,3.235,0.735,4.755c-4.559-2.696-7.647-7.696-7.647-13.382c0-8.627,6.96-15.637,15.588-15.637
					C33.466,185.477,39.348,190.035,41.358,196.31z" fill="#ffffff" class="colorffffff svgShape"></path>
        </g>
      </g>
      <g fill="#000000" class="color000000 svgShape">
        <circle cx="52.511" cy="336.548" r="15.597" transform="rotate(-67.5 52.511 336.541)" fill="#0966c2" class="color5a83fc svgShape"></circle>
      </g>
      <g opacity=".3" fill="#000000" class="color000000 svgShape">
        <g fill="#000000" class="color000000 svgShape">
          <path d="M67.092,331.01c-1.569-0.49-3.235-0.784-4.951-0.784c-8.578,0-15.588,6.96-15.588,15.588
					c0,1.961,0.343,3.823,1.029,5.539c-6.225-2.059-10.686-7.892-10.686-14.803c0-8.627,7.009-15.588,15.637-15.588
					C59.151,320.961,64.886,325.128,67.092,331.01z" fill="#ffffff" class="colorffffff svgShape"></path>
        </g>
      </g>
      <path d="M258.429,176.208c-13.645,0-24.748,11.103-24.748,24.751c0,13.645,11.103,24.748,24.748,24.748
			c13.647,0,24.751-11.103,24.751-24.748C283.18,187.311,272.077,176.208,258.429,176.208z M258.429,215.903
			c-8.241,0-14.945-6.704-14.945-14.945c0-8.243,6.704-14.947,14.945-14.947c8.243,0,14.947,6.704,14.947,14.947
			C273.376,209.199,266.672,215.903,258.429,215.903z" fill="#2c2c2c" class="color242c35 svgShape"></path>
      <path d="M178.165,260.191c0,10.024,8.157,18.181,18.181,18.181c5.417,0,10.233-2.43,13.567-6.201
			c16.317,0.898,34.966-8.477,48.518-17.468c16.536,10.972,32.471,17.148,45.153,17.557c3.162,5.376,8.945,9.033,15.62,9.033
			c10.024,0,18.181-8.157,18.181-18.181c0-6.109-3.053-11.496-7.688-14.794c0.315-13.01-5.92-29.863-17.528-47.375
			c8.833-13.27,18.07-31.173,17.636-47.16c4.571-3.306,7.581-8.647,7.581-14.706c0-10.024-8.157-18.181-18.181-18.181
			c-6.528,0-12.217,3.49-15.424,8.672c-15.519,0.308-32.483,9.096-45.349,17.663c-12.62-8.403-28.999-16.879-44.082-17.649
			c-3.205-5.19-8.898-8.686-15.432-8.686c-10.024,0-18.181,8.157-18.181,18.181c0,5.482,2.491,10.347,6.341,13.683
			c-0.882,16.224,8.679,34.758,17.624,48.194c-10.519,15.863-16.601,31.162-17.429,43.578
			C181.856,247.683,178.165,253.487,178.165,260.191z M187.969,260.191c0-4.619,3.758-8.377,8.377-8.377
			c4.619,0,8.377,3.758,8.377,8.377c0,4.619-3.758,8.377-8.377,8.377C191.727,268.568,187.969,264.81,187.969,260.191z
			 M319.203,271.488c-4.619,0-8.377-3.758-8.377-8.377s3.758-8.377,8.377-8.377s8.377,3.758,8.377,8.377
			S323.823,271.488,319.203,271.488z M319.872,244.998c-10.397-0.384-18.31,7.705-18.762,17.261
			c-9.18-0.991-21.074-5.533-34.061-13.669c13.921-10.526,27.619-23.989,39.007-39.026
			C314.599,223.201,319.205,235.651,319.872,244.998z M258.43,242.76c-15.439-11.188-30.246-25.916-41.798-41.799
			c10.986-15.158,25.595-30.02,41.798-41.805c16.345,11.888,30.957,26.833,41.803,41.799
			C288.702,216.812,273.899,231.552,258.43,242.76z M319.203,130.699c4.619,0,8.377,3.758,8.377,8.377
			c0,4.619-3.758,8.377-8.377,8.377s-8.377-3.758-8.377-8.377C310.826,134.457,314.584,130.699,319.203,130.699z M301.065,139.493
			c0.227,9.796,8.302,18.093,18.812,17.695c-0.881,11.978-7.361,25.011-13.798,35.223c-10.725-14.21-24.087-27.758-39.088-39.112
			C276.829,147.099,289.606,140.757,301.065,139.493z M198.917,130.699c4.619,0,8.377,3.758,8.377,8.377
			c0,4.619-3.758,8.377-8.377,8.377c-4.619,0-8.377-3.758-8.377-8.377C190.54,134.457,194.297,130.699,198.917,130.699z
			 M196.927,157.055c11.189,1.239,19.792-7.379,20.112-17.404c11.169,1.584,23.296,7.639,32.83,13.649
			c-14.58,11.035-28.065,24.502-39.091,39.106C204.402,182.289,197.773,168.984,196.927,157.055z M249.811,248.589
			c-13.673,8.564-26.155,13.173-35.509,13.818c1.371-11.111-7.053-19.776-17.009-20.301c1.318-8.962,5.812-20.27,13.508-32.547
			C222.17,224.571,235.862,238.04,249.811,248.589z" fill="#2c2c2c" class="color242c35 svgShape"></path>
      <path d="M26.51,221.592c9.604,0,17.628-6.666,19.839-15.598h81.912
			c0.663,20.665,6.294,40.541,16.046,58.146H71.722c-2.183,0-4.102,1.443-4.708,3.54l-14.012,48.419
			c-0.168-0.004-0.324-0.05-0.492-0.05c-11.302,0-20.497,9.196-20.497,20.5c0,11.302,9.196,20.497,20.497,20.497
			c11.304,0,20.5-9.196,20.5-20.497c0-7.682-4.297-14.309-10.565-17.82l12.961-44.785h74.854
			c10.928,16.161,25.541,29.907,43.049,39.846c6.242,3.545,10.122,10.189,10.122,17.338v11.979c0,7.445,3.194,14.12,8.233,18.858
			v48.786c0,10.846,5.021,20.533,12.853,26.885v5.646c0,13.001,10.577,23.578,23.578,23.578h17.271
			c13.001,0,23.578-10.577,23.578-23.578v-5.648c7.83-6.353,12.85-16.039,12.85-26.884v-48.784
			c5.04-4.738,8.236-11.413,8.236-18.859v-11.979c0-7.152,3.87-13.791,10.103-17.328c17.654-10.019,32.231-23.755,43.129-39.855
			h73.333l12.961,44.785c-6.269,3.51-10.565,10.138-10.565,17.82c0,11.302,9.196,20.497,20.5,20.497s20.5-9.196,20.5-20.497
			c0-11.304-9.196-20.5-20.5-20.5c-0.168,0-0.324,0.045-0.492,0.05l-14.012-48.419c-0.606-2.097-2.525-3.54-4.708-3.54h-70.935
			c9.703-17.563,15.251-37.419,15.904-58.146h80.404c2.212,8.932,10.235,15.598,19.842,15.598c11.302,0,20.497-9.196,20.497-20.5
			c0-11.302-9.196-20.497-20.497-20.497c-9.606,0-17.629,6.665-19.841,15.596h-80.439c0-0.009,0-0.018,0-0.026
			c-0.919-21.131-7.111-41.022-17.243-58.409h72.845c2.166,0,4.076-1.424,4.696-3.499l14.379-48.158
			c11.116-0.219,20.1-9.292,20.1-20.459c0-11.302-9.196-20.497-20.5-20.497s-20.5,9.196-20.5,20.497
			c0,7.993,4.643,14.858,11.333,18.237l-13.161,44.076h-75.51c-22.311-31.427-58.296-52.661-98.871-54.522
			c-45.376-2.047-86.289,19.117-111.312,54.522h-76.63l-13.16-44.077c6.689-3.379,11.331-10.244,11.331-18.236
			c0-11.302-9.196-20.497-20.5-20.497c-11.302,0-20.497,9.196-20.497,20.497c0,11.168,8.985,20.242,20.1,20.46l14.378,48.158
			c0.62,2.075,2.53,3.499,4.696,3.499h74.022c-10.206,17.661-16.044,37.554-16.942,58.436H46.349
			c-2.212-8.93-10.235-15.596-19.839-15.596c-11.304,0-20.5,9.196-20.5,20.497C6.01,212.396,15.206,221.592,26.51,221.592z
			 M52.51,347.243c-5.897,0-10.694-4.796-10.694-10.694c0-5.897,4.796-10.696,10.694-10.696s10.696,4.799,10.696,10.696
			C63.206,342.446,58.408,347.243,52.51,347.243z M470.186,336.549c0,5.897-4.799,10.694-10.696,10.694s-10.696-4.796-10.696-10.694
			c0-5.897,4.799-10.696,10.696-10.696S470.186,330.651,470.186,336.549z M459.49,54.944c5.897,0,10.696,4.796,10.696,10.694
			s-4.799,10.696-10.696,10.696s-10.696-4.799-10.696-10.696S453.592,54.944,459.49,54.944z M41.816,65.638
			c0-5.897,4.796-10.694,10.694-10.694s10.696,4.796,10.696,10.694S58.408,76.334,52.51,76.334S41.816,71.535,41.816,65.638z
			 M291.99,410.075h-70.523v-15.11h70.523V410.075z M267.173,435.568h-20.885c-10.456,0-19.379-6.519-23.029-15.689h66.94
			C286.549,429.048,277.627,435.568,267.173,435.568z M279.14,443.282c0,7.594-6.18,13.774-13.774,13.774h-17.271
			c-7.594,0-13.774-6.18-13.774-13.774v-0.086c3.736,1.383,7.756,2.176,11.967,2.176h20.885c4.211,0,8.231-0.793,11.967-2.176
			V443.282z M291.99,385.162h-70.523v-17.467c2.512,0.812,5.139,1.366,7.917,1.366h54.69c2.778,0,5.404-0.554,7.915-1.366V385.162z
			 M485.492,190.398c5.897,0,10.694,4.796,10.694,10.694c0,5.897-4.796,10.696-10.694,10.696s-10.696-4.799-10.696-10.696
			C474.796,195.195,479.595,190.398,485.492,190.398z M262.331,83.223c60.769,2.786,110.443,52.584,113.087,113.367
			c1.948,44.884-21.089,86.527-60.125,108.684c-9.294,5.275-15.067,15.184-15.067,25.854v11.979c0,8.906-7.245,16.151-16.151,16.151
			h-54.69c-8.906,0-16.151-7.245-16.151-16.151v-11.979c0-10.67-5.78-20.579-15.086-25.863
			c-37.146-21.089-60.221-60.698-60.221-103.368C137.927,134.309,194.115,80.11,262.331,83.223z M26.51,190.398
			c5.897,0,10.694,4.796,10.694,10.694c0,5.897-4.796,10.696-10.694,10.696s-10.696-4.799-10.696-10.696
			C15.814,195.195,20.613,190.398,26.51,190.398z" fill="#2c2c2c" class="color242c35 svgShape"></path>
    </g>
  </g>
</svg>
