<svg xmlns="http://www.w3.org/2000/svg" xml:space="preserve" viewBox="0 0 512 512" enable-background="new 0 0 512 512" id="11962822">
  <g id="_x31_2_Intellectual_Property" fill="#000000" class="color000000 svgShape">
    <g fill="#000000" class="color000000 svgShape">
      <g fill="#000000" class="color000000 svgShape">
        <path d="M245.516,473.097c0,15.471-12.519,27.991-27.991,27.991c-15.443,0-27.962-12.519-27.962-27.991
				c0-15.443,12.519-27.962,27.962-27.962C232.997,445.135,245.516,457.654,245.516,473.097z" fill="#ffffff" class="colorffffff svgShape"></path>
      </g>
      <g fill="#000000" class="color000000 svgShape">
        <path d="M189.592,473.111h55.896c9.172,0,16.607-7.435,16.607-16.607v0
				c0-9.172-7.435-16.607-16.607-16.607h-55.896c-9.172,0-16.607,7.435-16.607,16.607v0
				C172.985,465.676,180.42,473.111,189.592,473.111z" fill="#707070" class="color576066 svgShape"></path>
      </g>
      <g fill="#000000" class="color000000 svgShape">
        <path d="M364.085,197.645c3.333,52.332-20.79,99.269-59.365,127.772
				c-22.219,16.418-35.071,42.617-35.071,70.243v8.971H165.432v-8.979c0-27.65-12.899-53.836-35.129-70.279
				c-36.166-26.751-59.613-69.71-59.613-118.122c0-84.792,71.911-152.829,158.057-146.434
				C301.218,66.197,359.465,125.121,364.085,197.645z" fill="#ffffff" class="colorffffff svgShape"></path>
      </g>
      <g fill="#000000" class="color000000 svgShape">
        <line x1="217.54" x2="217.54" y1="10.912" y2="36.057" fill="#fff"></line>
      </g>
      <g fill="#000000" class="color000000 svgShape">
        <line x1="358.731" x2="340.95" y1="69.395" y2="87.176" fill="#fff"></line>
      </g>
      <g fill="#000000" class="color000000 svgShape">
        <line x1="417.214" x2="392.069" y1="210.586" y2="210.586" fill="#fff"></line>
      </g>
      <g fill="#000000" class="color000000 svgShape">
        <line x1="43.011" x2="17.866" y1="210.586" y2="210.586" fill="#fff"></line>
      </g>
      <g fill="#000000" class="color000000 svgShape">
        <line x1="94.129" x2="76.349" y1="87.176" y2="69.395" fill="#fff"></line>
      </g>
      <g fill="#000000" class="color000000 svgShape">
        <polygon points="396.995 371.013 358.681 485.495 338.312 448.633 299.858 465.809 338.171 351.326" fill="#aeaeae" class="colorf66866 svgShape"></polygon>
      </g>
      <g opacity=".3" fill="#000000" class="color000000 svgShape">
        <g fill="#000000" class="color000000 svgShape">
          <path d="M396.988,371.031l-38.315,114.454l-17.661-31.986l3.63-10.842
					c5.495-16.385-3.336-34.145-19.721-39.639l-3.63-1.226l16.876-50.482L396.988,371.031z" fill="#ffffff" class="colorffffff svgShape"></path>
        </g>
      </g>
      <g fill="#000000" class="color000000 svgShape">
        <polygon points="396.995 371.013 435.309 485.495 455.678 448.633 494.133 465.809 455.819 351.326" fill="#aeaeae" class="colorf66866 svgShape"></polygon>
      </g>
      <g opacity=".3" fill="#000000" class="color000000 svgShape">
        <g fill="#000000" class="color000000 svgShape">
          <path d="M437.118,444.177l7.947,23.695l-9.763,17.612l-38.315-114.454l58.821-19.722l15.208,45.527
					l-12.314,4.121C440.798,406.942,431.133,426.271,437.118,444.177z" fill="#ffffff" class="colorffffff svgShape"></path>
        </g>
      </g>
      <g fill="#000000" class="color000000 svgShape">
        <circle cx="396.995" cy="322.832" r="84.428" fill="#ccdff2" class="colord9f2cc svgShape"></circle>
      </g>
      <g opacity=".3" fill="#000000" class="color000000 svgShape">
        <g fill="#000000" class="color000000 svgShape">
          <path d="M471.852,283.804c-12.755-7.653-27.669-12.117-43.662-12.117c-46.606,0-84.43,37.775-84.43,84.43
					c0,14.031,3.434,27.326,9.567,38.953c-24.431-14.766-40.768-41.602-40.768-72.214c0-46.655,37.824-84.43,84.43-84.43
					C429.563,238.425,457.821,256.822,471.852,283.804z" fill="#ffffff" class="colorffffff svgShape"></path>
        </g>
      </g>
      <g fill="#000000" class="color000000 svgShape">
        <path d="M423.771,337.75l4.825,28.125c0.465,2.71-2.379,4.777-4.813,3.498l-25.243-13.266
				c-0.966-0.508-2.121-0.508-3.087,0l-25.243,13.266c-2.434,1.279-5.278-0.788-4.813-3.498l4.825-28.125
				c0.185-1.076-0.172-2.175-0.954-2.937l-20.419-19.898c-1.969-1.919-0.884-5.263,1.837-5.659l28.202-4.111
				c1.079-0.157,2.013-0.835,2.496-1.813l12.64-25.581c1.218-2.464,4.731-2.464,5.949,0l12.64,25.581
				c0.483,0.978,1.416,1.656,2.496,1.813l28.202,4.111c2.721,0.397,3.806,3.74,1.837,5.659l-20.419,19.898
				C423.943,335.576,423.586,336.674,423.771,337.75z" fill="#ffffff" class="colorffffff svgShape"></path>
      </g>
      <g fill="#000000" class="color000000 svgShape">
        <path d="M303.174,230.993c-1.744,6.152-4.223,12.073-7.253,17.582l12.579,12.578l-35.623,35.577
				l-12.578-12.578c-5.509,3.076-11.385,5.509-17.536,7.299v17.766h-50.359v-17.766c-6.151-1.79-12.027-4.223-17.582-7.253
				l-12.533,12.532l-35.623-35.577l12.579-12.578c-3.03-5.509-5.509-11.431-7.253-17.582h-17.812v-50.313h17.812
				c1.744-6.151,4.223-12.073,7.253-17.582l-12.579-12.579l35.623-35.577l12.533,12.533c5.554-3.03,11.431-5.463,17.582-7.253
				v-17.766h50.359v17.766c6.151,1.79,12.027,4.223,17.536,7.299l12.578-12.579l35.623,35.577l-12.579,12.579
				c3.03,5.509,5.509,11.431,7.253,17.582h17.766v50.313H303.174z" fill="#0966c2" class="color5a83fc svgShape"></path>
      </g>
      <g opacity=".3" fill="#000000" class="color000000 svgShape">
        <g fill="#000000" class="color000000 svgShape">
          <path d="M308.544,150.564l-8.33,8.33c-15.912-8.798-34.257-13.852-53.725-13.852
					c-56.721,0-103.613,42.493-110.258,97.529c-1.685-3.744-3.089-7.581-4.212-11.606H114.14v-50.262h17.878
					c1.685-6.178,4.212-12.074,7.207-17.597l-12.542-12.542l35.567-35.661l12.542,12.542c5.616-2.995,11.419-5.429,17.597-7.207
					v-17.783h50.355v17.783c6.178,1.778,12.075,4.212,17.597,7.301l12.542-12.636L308.544,150.564z" fill="#ffffff" class="colorffffff svgShape"></path>
        </g>
      </g>
      <g fill="#000000" class="color000000 svgShape">
        <circle cx="217.58" cy="205.836" r="50.313" fill="#ffffff" class="colorffffff svgShape"></circle>
      </g>
      <g fill="#000000" class="color000000 svgShape">
        <path d="M181.222,439.898h72.636c11.918,0,21.58-9.662,21.58-21.58v0c0-11.918-9.662-21.58-21.58-21.58
				h-72.636c-11.918,0-21.58,9.662-21.58,21.58v0C159.642,430.236,169.304,439.898,181.222,439.898z" fill="#707070" class="color576066 svgShape"></path>
      </g>
      <path d="M222.443 36.058V10.912c0-2.707-2.195-4.902-4.902-4.902-2.707 0-4.902 2.195-4.902 4.902v25.145c0 2.707 2.195 4.902 4.902 4.902C220.248 40.959 222.443 38.765 222.443 36.058zM344.417 90.642l17.778-17.781c1.915-1.915 1.915-5.019 0-6.931-1.915-1.915-5.017-1.915-6.931 0l-17.778 17.781c-1.915 1.915-1.915 5.019 0 6.931C339.4 92.557 342.502 92.557 344.417 90.642zM417.213 215.489c2.707 0 4.902-2.195 4.902-4.902s-2.195-4.902-4.902-4.902h-25.145c-2.707 0-4.902 2.195-4.902 4.902s2.195 4.902 4.902 4.902H417.213zM17.866 215.489h25.145c2.707 0 4.902-2.195 4.902-4.902s-2.195-4.902-4.902-4.902H17.866c-2.707 0-4.902 2.195-4.902 4.902S15.159 215.489 17.866 215.489zM97.594 90.642c1.915-1.912 1.915-5.017 0-6.931L79.816 65.93c-1.915-1.915-5.017-1.915-6.931 0-1.915 1.912-1.915 5.017 0 6.931l17.778 17.781C92.577 92.557 95.679 92.557 97.594 90.642z" fill="#2c2c2c" class="color242c35 svgShape"></path>
      <path d="M486.324,322.832c0-49.257-40.073-89.33-89.328-89.33c-11,0-21.496,2.094-31.236,5.747
			c2.921-13.569,4.126-27.63,3.216-41.914c-4.78-75.051-64.91-135.842-139.865-141.404
			c-90.848-6.759-163.323,65.592-163.323,151.323c0,47.905,23.027,93.533,61.6,122.063c20.753,15.349,33.142,40.147,33.142,66.336
			v6.185c-3.613,4.528-5.79,10.251-5.79,16.481c0,11.614,7.527,21.483,17.951,25.044c-2.843,3.647-4.608,8.172-4.608,13.143
			c0,10.277,7.257,18.868,16.908,20.985c2.157,16.062,15.907,28.5,32.536,28.5c16.642,0,30.403-12.437,32.562-28.499
			c9.652-2.116,16.908-10.708,16.908-20.986c0-4.971-1.764-9.496-4.606-13.143c10.424-3.561,17.95-13.43,17.95-25.045
			c0-6.23-2.176-11.954-5.79-16.482v-6.174c0-26.208,12.367-50.995,33.082-66.303c0.12-0.089,0.231-0.187,0.35-0.276
			c1.204,17.256,7.308,33.142,16.958,46.33l-29.73,88.84c-0.617,1.845-0.086,3.88,1.355,5.187c1.438,1.309,3.521,1.639,5.292,0.845
			l34.341-15.34l18.193,32.922c0.902,1.631,2.688,2.676,4.737,2.511c1.936-0.177,3.585-1.482,4.203-3.327l25.206-75.317
			c5.959,0.563,10.8,0.578,16.919,0l25.205,75.317c0.617,1.843,2.267,3.15,4.203,3.327c2.038,0.164,3.829-0.871,4.737-2.511
			l18.193-32.922l34.343,15.34c1.771,0.795,3.853,0.462,5.292-0.845c1.441-1.307,1.972-3.341,1.355-5.187l-29.732-88.84
			C479.859,360.64,486.324,342.498,486.324,322.832z M217.527,496.186c-11.028,0-20.248-7.801-22.508-18.173h45.041
			C237.797,488.385,228.567,496.186,217.527,496.186z M245.489,468.209h-55.896c-6.455,0-11.706-5.251-11.706-11.704
			c0-6.455,5.251-11.706,11.706-11.706h55.896c6.453,0,11.704,5.251,11.704,11.706C257.193,462.958,251.942,468.209,245.489,468.209
			z M253.859,434.996c-26.999,0-46.105,0-72.636,0c-9.198,0-16.68-7.482-16.68-16.677c0-9.198,7.482-16.68,16.68-16.68h72.636
			c9.196,0,16.677,7.482,16.677,16.68C270.536,427.514,263.055,434.996,253.859,434.996z M301.807,321.475
			c-22.826,16.867-36.571,43.978-37.017,72.749c-3.337-1.52-7.03-2.39-10.93-2.39h-72.636c-3.901,0-7.595,0.869-10.932,2.39
			c-0.444-28.755-14.211-55.882-37.073-72.793c-36.083-26.687-57.627-69.371-57.627-114.179c0-80.97,68.569-147.841,152.792-141.548
			c70.104,5.203,126.338,62.059,130.808,132.252c1.01,15.851-0.613,31.448-4.603,46.276c-26.175,14.179-44.418,41.072-46.605,72.327
			C305.976,318.247,303.935,319.902,301.807,321.475z M357.574,473.357l-14.971-27.096c-1.247-2.25-3.996-3.132-6.29-2.104
			l-28.264,12.625l24.266-72.514c12.272,12.914,28.304,22.212,46.377,25.992L357.574,473.357z M317.469,322.832
			c0-43.85,35.677-79.527,79.527-79.527s79.524,35.677,79.524,79.527s-35.674,79.527-79.524,79.527S317.469,366.682,317.469,322.832
			z M485.943,456.783l-28.266-12.625c-2.324-1.039-5.055-0.122-6.29,2.104l-14.971,27.096L415.3,410.261
			c18.072-3.78,34.104-13.078,46.376-25.992L485.943,456.783z" fill="#2c2c2c" class="color242c35 svgShape"></path>
      <path d="m444.013 304.405-27.379-3.992-12.269-24.829c-1.393-2.824-4.217-4.581-7.367-4.581h-.002c-3.15 0-5.974 1.754-7.369 4.579l-12.271 24.832-27.381 3.992c-3.119.457-5.66 2.602-6.632 5.601-.972 2.997-.172 6.223 2.085 8.42l19.82 19.315-4.682 27.302c-.536 3.107.716 6.189 3.267 8.042 2.553 1.858 5.868 2.09 8.657.627l24.504-12.877 24.506 12.877c2.784 1.46 6.108 1.23 8.657-.627 2.551-1.853 3.803-4.935 3.269-8.037l-4.684-27.307 19.822-19.315c2.257-2.2 3.054-5.426 2.082-8.423C449.673 307.007 447.134 304.862 444.013 304.405zM421.301 331.305c-1.934 1.888-2.817 4.605-2.362 7.271 0 .002 0 .002 0 .002l4.282 24.961-22.393-11.766c-2.396-1.269-5.261-1.264-7.657-.005l-22.403 11.771 4.279-24.952c.462-2.669-.419-5.39-2.362-7.286l-18.118-17.659 25.016-3.648c2.676-.385 4.99-2.063 6.192-4.492l11.218-22.704 11.223 22.709c1.199 2.425 3.514 4.102 6.182 4.488l25.026 3.648L421.301 331.305zM311.964 257.687l-10.029-10.031c1.912-3.834 3.538-7.769 4.859-11.761h14.145c2.707 0 4.902-2.195 4.902-4.902v-50.315c0-2.707-2.195-4.902-4.902-4.902h-14.145c-1.321-3.992-2.946-7.927-4.859-11.761l10.029-10.031c1.913-1.913 1.916-5.02-.002-6.934l-35.622-35.578c-1.915-1.91-5.014-1.912-6.929.002l-10.019 10.019c-3.751-1.884-7.673-3.516-11.728-4.875v-14.162c0-2.707-2.195-4.902-4.902-4.902h-50.36c-2.707 0-4.902 2.195-4.902 4.902v14.162c-4.021 1.348-7.951 2.97-11.754 4.851l-9.993-9.995c-1.915-1.915-5.014-1.912-6.929-.002l-35.624 35.578c-1.923 1.918-1.911 5.025-.002 6.934l10.031 10.031c-1.912 3.832-3.538 7.767-4.861 11.761h-14.191c-2.707 0-4.902 2.195-4.902 4.902v50.315c0 2.707 2.195 4.902 4.902 4.902h14.191c1.324 3.995 2.949 7.929 4.861 11.761l-10.031 10.031c-1.913 1.913-1.916 5.02.002 6.934l35.624 35.576c1.915 1.91 5.014 1.912 6.929-.002l9.993-9.993c3.801 1.881 7.733 3.504 11.754 4.851v14.162c0 2.707 2.195 4.902 4.902 4.902h50.36c2.707 0 4.902-2.195 4.902-4.902v-14.162c4.054-1.359 7.977-2.989 11.728-4.875l10.019 10.017c1.915 1.915 5.014 1.912 6.929.002l35.622-35.576C313.885 262.703 313.873 259.596 311.964 257.687zM272.88 289.8l-9.117-9.114c-1.551-1.551-3.932-1.886-5.857-.814-5.127 2.865-10.684 5.177-16.512 6.874-2.094.608-3.533 2.525-3.533 4.705v12.862h-40.557v-12.862c0-2.18-1.438-4.098-3.533-4.705-5.754-1.675-11.34-3.98-16.603-6.852-1.915-1.041-4.277-.697-5.814.838l-9.069 9.069-28.688-28.649 9.112-9.109c1.541-1.541 1.881-3.916.831-5.828-2.93-5.325-5.23-10.895-6.836-16.558-.598-2.109-2.523-3.564-4.715-3.564h-12.91V185.58h12.91c2.192 0 4.117-1.455 4.715-3.564 1.606-5.663 3.906-11.232 6.836-16.558 1.051-1.912.711-4.287-.831-5.828l-9.112-9.109 28.688-28.649 9.069 9.069c1.537 1.537 3.899 1.879 5.814.838 5.263-2.872 10.849-5.177 16.603-6.852 2.094-.608 3.533-2.525 3.533-4.705v-12.862h40.557v12.862c0 2.18 1.438 4.098 3.533 4.705 5.828 1.697 11.386 4.009 16.512 6.874 1.924 1.07 4.306.737 5.857-.814l9.117-9.117 28.685 28.652-9.109 9.109c-1.541 1.541-1.881 3.918-.831 5.828 2.932 5.328 5.23 10.897 6.833 16.555.596 2.111 2.523 3.566 4.715 3.566h12.865v40.511h-12.865c-2.192 0-4.119 1.455-4.715 3.566-1.604 5.658-3.901 11.228-6.833 16.555-1.051 1.91-.711 4.287.831 5.828l9.109 9.109L272.88 289.8z" fill="#2c2c2c" class="color242c35 svgShape"></path>
      <path d="M217.579,150.622c-30.445,0-55.214,24.77-55.214,55.214s24.77,55.214,55.214,55.214
			c30.447,0,55.217-24.77,55.217-55.214S248.026,150.622,217.579,150.622z M217.579,251.247c-25.04,0-45.411-20.371-45.411-45.411
			s20.371-45.411,45.411-45.411s45.413,20.371,45.413,45.411S242.619,251.247,217.579,251.247z" fill="#2c2c2c" class="color242c35 svgShape"></path>
    </g>
  </g>
</svg>
