<svg xmlns="http://www.w3.org/2000/svg" enable-background="new 0 0 512 512" viewBox="0 0 512 512" id="6621982">
  <rect width="212.778" height="138.216" x="147.148" y="112.068" fill="#ffffff" transform="rotate(-45.001 253.536 181.18)" class="colorffffff svgShape"></rect>
  <path fill="#0966c2" d="M92.693 235.088L199.625 342.02c8.878 8.878 23.272 8.878 32.15 0l0 0c8.878-8.878 8.878-23.272 0-32.15L124.843 202.938c-8.878-8.878-23.272-8.878-32.15 0l0 0C83.815 211.816 83.815 226.21 92.693 235.088zM275.299 52.482l106.932 106.932c8.878 8.878 23.272 8.878 32.15 0l0 0c8.878-8.878 8.878-23.272 0-32.15L307.449 20.332c-8.878-8.878-23.272-8.878-32.15 0l0 0C266.421 29.21 266.421 43.604 275.299 52.482zM490.973 418.621L490.973 418.621c-7.479 7.479-18.961 9.343-28.357 4.486-74.552-38.546-137.977-104.729-172.502-180.774l24.564-24.564c76.083 34.492 142.271 97.919 180.786 172.506C500.315 399.669 498.449 411.145 490.973 418.621z" class="colorfdce06 svgShape"></path>
  <path fill="#cfd0d1" d="M260.938,417.527v37.628H86.035v-37.628c0-10.722,8.692-19.414,19.414-19.414h136.076
			C252.246,398.113,260.938,406.805,260.938,417.527z" class="colorcfcfd1 svgShape"></path>
  <path fill="#ffffff" d="M297.461,498.038v-23.469c0-10.722-8.692-19.414-19.414-19.414H68.925
			c-10.722,0-19.414,8.692-19.414,19.414v23.469H297.461z" class="colorffffff svgShape"></path>
  <path fill="#707070" d="M327.991 215.503l49.731-49.728c12.406 11.398 30.855 10.488 42.18-.836 11.915-11.923 11.963-31.233 0-43.197L312.97 14.81c-11.535-11.539-31.661-11.554-43.197 0-11.585 11.589-11.8 30.206-.831 42.178L129.341 196.589c-11.664-10.616-30.952-10.41-42.173.826-11.895 11.895-11.983 31.206 0 43.197l106.931 106.931c11.9 11.908 31.233 11.963 43.197 0 11.231-11.231 12.325-29.674.833-42.183l49.722-49.719c36.079 73.334 97.891 136.512 171.181 174.405 12.426 6.437 27.491 4.067 37.467-5.897 0-.004 0-.004 0-.004 9.956-9.956 12.329-25.009 5.905-37.456C464.552 313.377 401.365 251.566 327.991 215.503zM280.821 25.857c5.646-5.646 15.472-5.63 21.102 0l106.931 106.931c5.832 5.824 5.834 15.261 0 21.102-5.623 5.638-15.464 5.638-21.102 0-9.433-9.433 19.751 19.742-106.931-106.931C275.007 41.142 275.007 31.675 280.821 25.857zM279.896 68.129l86.689 86.689L227.172 294.223l-86.683-86.687L279.896 68.129zM226.249 336.496c-5.623 5.638-15.464 5.638-21.102 0L98.215 229.565c-5.823-5.831-5.841-15.269 0-21.102 5.843-5.835 15.281-5.83 21.102 0l106.931 106.931C232.061 321.199 232.102 330.651 226.249 336.496zM485.452 413.098c-5.142 5.131-12.878 6.363-19.249 3.071C394.252 378.964 333.752 316.412 299.497 244l16.853-16.849c72.447 34.232 135.007 94.728 172.169 166.71C491.815 400.235 490.579 407.967 485.452 413.098zM13.829 505.85c81.938 0 240.955 0 319.321 0 4.318 0 7.812-3.498 7.812-7.812s-3.494-7.812-7.812-7.812h-27.877V474.57c0-15.014-12.214-27.229-27.229-27.229h-9.292v-29.815c0-15.01-12.214-27.225-27.229-27.225H105.448c-15.014 0-27.229 12.214-27.229 27.225v29.815h-9.292c-15.014 0-27.229 12.214-27.229 27.229v15.655h-27.87c-4.318 0-7.812 3.498-7.812 7.812S9.51 505.85 13.829 505.85zM93.844 417.526c0-6.397 5.203-11.6 11.604-11.6h136.075c6.401 0 11.604 5.203 11.604 11.6v29.815H93.844V417.526zM57.323 474.57c0-6.397 5.203-11.604 11.604-11.604 76.68 0 132.973 0 209.117 0 6.401 0 11.604 5.207 11.604 11.604v15.655H57.323V474.57z" class="color3e3e3e svgShape"></path>
</svg>
