<svg xmlns="http://www.w3.org/2000/svg" xml:space="preserve" viewBox="0 0 512 512" enable-background="new 0 0 512 512" id="11962826">
  <g id="_x31_6_Legal_Paper" fill="#000000" class="color000000 svgShape">
    <g fill="#000000" class="color000000 svgShape">
      <g fill="#000000" class="color000000 svgShape">
        <path d="M445.073,69.96v415.612H147.736c-14.784,0-28.007-6.428-37.144-16.621
				c-7.851-8.816-12.626-20.386-12.626-33.15V69.96c0-24.059-19.467-43.526-43.526-43.526h347.108
				C425.606,26.434,445.073,45.902,445.073,69.96z" fill="#ffffff" class="colorffffff svgShape"></path>
      </g>
      <g fill="#000000" class="color000000 svgShape">
        <path d="M97.965,71.272l0,77.66H34.604c-13.084,0-23.692-10.607-23.692-23.692V69.96
				c0-12.029,4.867-22.911,12.764-30.762c8.519-8.569,20.607-13.571,33.858-12.657C80.555,28.128,97.965,48.197,97.965,71.272z" fill="#ccdff2" class="colord9f2cc svgShape"></path>
      </g>
      <g opacity=".3" fill="#000000" class="color000000 svgShape">
        <g fill="#000000" class="color000000 svgShape">
          <path d="M86.808,41.31c-2.158-0.505-4.408-0.826-6.704-1.01c-13.223-0.918-25.299,4.086-33.838,12.672
					c-7.897,7.851-12.764,18.733-12.764,30.762v55.28c0,3.535,0.781,6.887,2.204,9.918h-1.102
					c-13.086,0-23.692-10.606-23.692-23.692V69.96c0-12.029,4.867-22.911,12.764-30.762c8.54-8.586,20.615-13.59,33.838-12.672
					C69.269,27.353,79.508,32.954,86.808,41.31z" fill="#ffffff" class="colorffffff svgShape"></path>
        </g>
      </g>
      <g fill="#000000" class="color000000 svgShape">
        <path d="M197.506,413.028v22.773c0,6.704-1.331,13.04-3.719,18.871
				c-2.479,6.153-6.199,11.708-10.836,16.345c-9.045,8.999-21.442,14.555-35.216,14.555c-14.784,0-28.007-6.428-37.144-16.621
				c-7.851-8.816-12.626-20.386-12.626-33.15v-22.773" fill="#ffffff" class="colorffffff svgShape"></path>
      </g>
      <g fill="#000000" class="color000000 svgShape">
        <rect width="20.845" height="141.873" x="266.658" y="112.319" fill="#aeaeae" class="colorf66866 svgShape"></rect>
      </g>
      <g opacity=".3" fill="#000000" class="color000000 svgShape">
        <g fill="#000000" class="color000000 svgShape">
          <path d="M287.497,112.339v33.012c-0.23-0.046-0.413-0.046-0.643-0.046
					c-5.785,0-10.423,4.683-10.423,10.422v98.485h-9.78V112.339H287.497z" fill="#ffffff" class="colorffffff svgShape"></path>
        </g>
      </g>
      <g fill="#000000" class="color000000 svgShape">
        <path d="M238.612,281.164h76.937v-9.507c0-9.646-7.82-17.466-17.466-17.466h-42.006
				c-9.646,0-17.466,7.82-17.466,17.466V281.164z" fill="#ffffff" class="colorffffff svgShape"></path>
      </g>
      <g fill="#000000" class="color000000 svgShape">
        <path d="M295.794,73.898c0,10.33-8.384,18.713-18.713,18.713c-10.33,0-18.713-8.384-18.713-18.713
				c0-10.33,18.713-25.251,18.713-25.251S295.794,63.568,295.794,73.898z" fill="#0966c2" class="color5a83fc svgShape"></path>
      </g>
      <g opacity=".3" fill="#000000" class="color000000 svgShape">
        <g fill="#000000" class="color000000 svgShape">
          <path d="M270.785,75.424c0,7.346,4.224,13.682,10.376,16.713c-1.285,0.321-2.663,0.459-4.086,0.459
					c-10.331,0-18.687-8.356-18.687-18.687s18.687-25.253,18.687-25.253s3.214,2.571,6.979,6.336
					C278.544,60.227,270.785,68.767,270.785,75.424z" fill="#ffffff" class="colorffffff svgShape"></path>
        </g>
      </g>
      <g fill="#000000" class="color000000 svgShape">
        <path d="M174.561,218.629h32.973c17.897,0,32.405-14.508,32.405-32.405v0h-97.782v0
				C142.157,204.121,156.665,218.629,174.561,218.629z" fill="#aeaeae" class="colorf66866 svgShape"></path>
      </g>
      <g fill="#000000" class="color000000 svgShape">
        <path d="M338.858,218.629h32.973c17.897,0,32.405-14.508,32.405-32.405v0h-97.782v0
				C306.453,204.121,320.961,218.629,338.858,218.629z" fill="#aeaeae" class="colorf66866 svgShape"></path>
      </g>
      <g opacity=".3" fill="#000000" class="color000000 svgShape">
        <g fill="#000000" class="color000000 svgShape">
          <path d="M239.931,186.214c0,4.821-1.056,9.366-2.939,13.453H178.59c-8.953,0-16.208,7.254-16.208,16.208
					v0.367c-4.086-1.607-7.713-4.086-10.744-7.117c-5.877-5.831-9.504-13.958-9.504-22.911H239.931z" fill="#ffffff" class="colorffffff svgShape"></path>
        </g>
      </g>
      <g opacity=".3" fill="#000000" class="color000000 svgShape">
        <g fill="#000000" class="color000000 svgShape">
          <path d="M404.256,186.214c0,4.821-1.056,9.366-2.938,13.453h-58.402c-8.953,0-16.207,7.254-16.207,16.208
					v0.367c-4.04-1.607-7.713-4.086-10.744-7.117c-5.877-5.831-9.504-13.958-9.504-22.911H404.256z" fill="#ffffff" class="colorffffff svgShape"></path>
        </g>
      </g>
      <g fill="#000000" class="color000000 svgShape">
        <circle cx="354.871" cy="117.965" r="13.305" fill="#aeaeae" class="colorf66866 svgShape"></circle>
      </g>
      <g fill="#000000" class="color000000 svgShape">
        <circle cx="190.574" cy="117.965" r="13.305" fill="#aeaeae" class="colorf66866 svgShape"></circle>
      </g>
      <g opacity=".3" fill="#000000" class="color000000 svgShape">
        <g fill="#000000" class="color000000 svgShape">
          <path d="M367.387,113.533c-1.699-0.78-3.535-1.194-5.51-1.194c-7.346,0-13.269,5.923-13.269,13.269
					c0,1.561,0.275,3.076,0.781,4.454c-4.591-2.066-7.805-6.704-7.805-12.075c0-7.346,5.923-13.315,13.269-13.315
					C360.638,104.671,365.551,108.39,367.387,113.533z" fill="#ffffff" class="colorffffff svgShape"></path>
        </g>
      </g>
      <g opacity=".3" fill="#000000" class="color000000 svgShape">
        <g fill="#000000" class="color000000 svgShape">
          <path d="M203.108,113.533c-1.699-0.78-3.535-1.194-5.509-1.194c-7.346,0-13.315,5.923-13.315,13.269
					c0,1.561,0.275,3.076,0.78,4.454c-4.591-2.112-7.805-6.749-7.805-12.075c0-7.346,5.969-13.315,13.315-13.315
					C196.359,104.671,201.271,108.39,203.108,113.533z" fill="#ffffff" class="colorffffff svgShape"></path>
        </g>
      </g>
      <g fill="#000000" class="color000000 svgShape">
        <circle cx="277.081" cy="112.793" r="20.182" fill="#ffffff" class="colorffffff svgShape"></circle>
      </g>
      <g fill="#000000" class="color000000 svgShape">
        <path d="M501.088,420.834v7.851c0,31.405-25.482,56.887-56.887,56.887H147.736
				c13.774,0,26.171-5.556,35.216-14.555c4.637-4.637,8.356-10.193,10.836-16.345c2.388-5.831,3.719-12.167,3.719-18.871v-22.773
				h295.777C497.599,413.028,501.088,416.518,501.088,420.834z" fill="#ccdff2" class="colord9f2cc svgShape"></path>
      </g>
      <g opacity=".3" fill="#000000" class="color000000 svgShape">
        <g fill="#000000" class="color000000 svgShape">
          <path d="M501.088,420.834v7.851c0,2.801-0.184,5.601-0.597,8.31H250.353
					c-6.29,0-11.983,2.571-16.116,6.658c-4.132,4.132-6.658,9.826-6.658,16.116c0,6.703-1.331,13.039-3.719,18.87
					c-0.964,2.388-2.112,4.729-3.489,6.933h-72.636c13.774,0,26.171-5.556,35.216-14.555c4.637-4.637,8.356-10.193,10.836-16.345
					c2.388-5.831,3.719-12.167,3.719-18.871v-22.773h295.777C497.599,413.028,501.088,416.518,501.088,420.834z" fill="#ffffff" class="colorffffff svgShape"></path>
        </g>
      </g>
      <path d="M174.561 223.531h32.972c20.572 0 37.306-16.735 37.306-37.306 0-2.707-2.195-4.902-4.902-4.902h-11.035l-28.438-48.112c4.835-3.147 8.055-8.518 8.256-14.657 14.366-9.415 28.707-12.126 43.534-8.294-.086.845-.256 1.666-.256 2.533 0 8.035 3.865 15.119 9.758 19.712v116.785h-5.677c-12.333 0-22.369 10.033-22.369 22.367v9.507c0 2.707 2.195 4.902 4.902 4.902h76.937c2.707 0 4.902-2.195 4.902-4.902v-9.507c0-12.333-10.033-22.367-22.367-22.367h-5.68V132.508c5.895-4.594 9.76-11.678 9.76-19.714 0-.827-.166-1.607-.244-2.414 12.006-3.228 23.688-2.164 35.317 3.268-.341 1.391-.574 2.823-.574 4.318 0 6.679 3.656 12.467 9.033 15.634l-28.205 47.722h-11.038c-2.707 0-4.902 2.195-4.902 4.902 0 20.572 16.735 37.306 37.306 37.306h32.972c20.572 0 37.306-16.735 37.306-37.306 0-2.707-2.195-4.902-4.902-4.902h-11.038l-28.436-48.112c4.993-3.25 8.316-8.856 8.316-15.244 0-10.04-8.166-18.207-18.207-18.207-4.999 0-9.53 2.028-12.823 5.301-14.042-6.691-28.423-8.04-42.962-4.053-1.835-3.41-4.37-6.371-7.506-8.608 5.507-4.327 9.116-10.969 9.116-18.501 0-12.08-17.125-26.347-20.557-29.083-1.79-1.426-4.323-1.426-6.113 0-3.432 2.736-20.56 17.003-20.56 29.083 0 7.532 3.609 14.174 9.117 18.501-3.099 2.21-5.609 5.129-7.441 8.488-16.642-4.418-33.061-1.798-49.006 7.769-3.185-5.304-8.937-8.897-15.563-8.897-10.038 0-18.204 8.166-18.204 18.207 0 6.679 3.655 12.466 9.031 15.634l-28.206 47.723h-11.038c-2.707 0-4.902 2.195-4.902 4.902C137.254 206.796 153.989 223.531 174.561 223.531zM371.83 213.727h-32.972c-13.492 0-24.748-9.765-27.065-22.601 32.015 0 76.659 0 87.102 0C396.578 203.962 385.322 213.727 371.83 213.727zM328.878 181.322l26.467-44.779 26.467 44.779H328.878zM354.87 109.562c4.634 0 8.403 3.77 8.403 8.403 0 4.631-3.77 8.401-8.403 8.401s-8.403-3.77-8.403-8.401C346.467 113.332 350.237 109.562 354.87 109.562zM310.647 271.658v4.605h-67.133v-4.605c0-6.927 5.637-12.563 12.566-12.563 15.802 0 26.846 0 42.005 0C305.01 259.095 310.647 264.731 310.647 271.658zM282.601 249.291H271.56V137.219c3.846.87 7.149.881 11.041.001V249.291zM263.269 73.898c0-4.715 7.31-13.037 13.813-18.832 6.503 5.795 13.81 14.116 13.81 18.832 0 7.616-6.194 13.813-13.81 13.813S263.269 81.514 263.269 73.898zM277.081 97.514c8.425 0 15.28 6.855 15.28 15.28s-6.855 15.28-15.28 15.28-15.28-6.855-15.28-15.28S268.656 97.514 277.081 97.514zM190.573 109.562c4.634 0 8.403 3.77 8.403 8.403 0 4.631-3.77 8.401-8.403 8.401-4.631 0-8.401-3.77-8.401-8.401C182.172 113.332 185.942 109.562 190.573 109.562zM191.047 136.544l26.467 44.779H164.58L191.047 136.544zM234.598 191.126c-2.317 12.836-13.573 22.601-27.065 22.601h-32.972c-13.492 0-24.748-9.765-27.065-22.601C159.426 191.126 199.199 191.126 234.598 191.126zM141.491 316.37h188.074c2.707 0 4.902-2.195 4.902-4.902 0-2.707-2.195-4.902-4.902-4.902H141.491c-2.707 0-4.902 2.195-4.902 4.902C136.589 314.175 138.784 316.37 141.491 316.37zM141.491 353.219h249.176c2.707 0 4.902-2.195 4.902-4.902s-2.195-4.902-4.902-4.902H141.491c-2.707 0-4.902 2.195-4.902 4.902S138.784 353.219 141.491 353.219zM281.911 385.169c0-2.707-2.195-4.902-4.902-4.902H141.491c-2.707 0-4.902 2.195-4.902 4.902 0 2.707 2.195 4.902 4.902 4.902H277.01C279.717 390.071 281.911 387.876 281.911 385.169z" fill="#707070" class="color242c35 svgShape"></path>
      <path d="M493.283,408.127h-43.307V69.961c0-26.704-21.725-48.429-48.429-48.429
			c-375.453,0.059-345.241-0.08-347.412,0.061C27.714,21.785,6.01,43.048,6.01,69.961v55.281c0,15.766,12.826,28.592,28.594,28.592
			h58.46c0,88.271,0,150.087,0,281.968c0,30.417,24.709,54.671,54.671,54.671c42.456,0,254.182,0,296.465,0
			c34.071,0,61.789-27.718,61.789-61.789v-7.85C505.99,413.828,500.288,408.127,493.283,408.127z M34.605,144.03
			c-10.361,0-18.791-8.427-18.791-18.788V69.961c0-21.575,17.541-38.62,38.678-38.623c21.805,0.029,38.573,18.385,38.573,39.934
			v72.758H34.605z M102.868,435.802c0-121.184,0-242.828,0-364.53c-0.119-0.49,1.892-23.925-19.246-39.937h317.925
			c21.299,0,38.625,17.326,38.625,38.625v338.166H197.507c-2.707,0-4.902,2.195-4.902,4.902v22.774
			c0,24.573-19.805,44.867-44.87,44.867C123.159,480.669,102.868,460.789,102.868,435.802z M496.186,428.684
			c0,28.664-23.322,51.985-51.985,51.985c-68.778,0-221.377,0-265.178,0c15.239-10.632,23.386-27.675,23.386-44.867V417.93h290.874
			c1.601,0,2.903,1.302,2.903,2.903V428.684z" fill="#707070" class="color242c35 svgShape"></path>
    </g>
  </g>
</svg>
