<svg xmlns="http://www.w3.org/2000/svg" xml:space="preserve" viewBox="0 0 512 512" enable-background="new 0 0 512 512" id="11962860">
  <g id="_x35_0_Long_Term_Target" fill="#000000" class="color000000 svgShape">
    <g fill="#000000" class="color000000 svgShape">
      <g fill="#000000" class="color000000 svgShape">
        <polygon points="390.791 66.942 341.648 60.058 334.765 10.916 295.547 50.134 292.879 108.827 351.573 106.159" fill="#aeaeae" class="colorf66866 svgShape"></polygon>
      </g>
      <g opacity=".3" fill="#000000" class="color000000 svgShape">
        <g fill="#000000" class="color000000 svgShape">
          <path d="M337.031,27.256l-16.295,16.294c-10.635,10.681-16.934,24.922-17.618,39.984l-1.141,24.876
					l-9.083,0.411l2.647-58.697l39.208-39.207L337.031,27.256z" fill="#ffffff" class="colorffffff svgShape"></path>
        </g>
      </g>
      <g fill="#000000" class="color000000 svgShape">
        <circle cx="171.215" cy="233.105" r="145.909" transform="rotate(-45.001 171.213 233.108)" fill="#aeaeae" class="colorf66866 svgShape"></circle>
      </g>
      <g opacity=".3" fill="#000000" class="color000000 svgShape">
        <g fill="#000000" class="color000000 svgShape">
          <path d="M292.391,151.817c-26.564-27.842-64.037-45.187-105.573-45.187
					c-80.56,0-145.921,65.316-145.921,145.876c0,30.034,9.083,57.967,24.647,81.199c-24.921-26.153-40.257-61.618-40.257-100.598
					c0-80.56,65.361-145.921,145.922-145.921C221.69,87.186,266.192,112.837,292.391,151.817z" fill="#ffffff" class="colorffffff svgShape"></path>
        </g>
      </g>
      <g fill="#000000" class="color000000 svgShape">
        <path d="M171.215,329.687c-53.255,0-96.582-43.327-96.582-96.583s43.326-96.58,96.582-96.58
				s96.583,43.325,96.583,96.58S224.47,329.687,171.215,329.687z" fill="#ffffff" class="colorffffff svgShape"></path>
      </g>
      <g fill="#000000" class="color000000 svgShape">
        <path d="M171.215,280.36c-26.056,0-47.254-21.198-47.254-47.256c0-26.056,21.199-47.253,47.254-47.253
				c26.057,0,47.256,21.198,47.256,47.253C218.471,259.162,197.272,280.36,171.215,280.36z" fill="#aeaeae" class="colorf66866 svgShape"></path>
      </g>
      <g opacity=".3" fill="#000000" class="color000000 svgShape">
        <g fill="#000000" class="color000000 svgShape">
          <path d="M211.557,208.506c-7.668-5.34-16.979-8.49-26.975-8.49c-26.062,0-47.286,21.224-47.286,47.241
					c0,8.992,2.51,17.344,6.846,24.51c-12.187-8.489-20.174-22.639-20.174-38.66c0-26.062,21.178-47.241,47.241-47.241
					C188.279,185.866,203.25,194.95,211.557,208.506z" fill="#ffffff" class="colorffffff svgShape"></path>
        </g>
      </g>
      <g fill="#000000" class="color000000 svgShape">
        <path d="M161.872,221.905L339.407,44.37c4.951-4.951,12.979-4.951,17.93,0v0
				c4.951,4.951,4.951,12.979,0,17.93L179.802,239.835c-4.951,4.951-12.979,4.951-17.93,0l0,0
				C156.921,234.883,156.921,226.856,161.872,221.905z" fill="#ccdff2" class="colord9f2cc svgShape"></path>
      </g>
      <g opacity=".3" fill="#000000" class="color000000 svgShape">
        <g fill="#000000" class="color000000 svgShape">
          <path d="M359.989,48.252c-3.971-0.73-8.261,0.411-11.319,3.515L171.117,229.319
					c-2.465,2.465-3.743,5.705-3.743,8.946c0,1.734,0.365,3.469,1.096,5.066c-2.419-0.456-4.701-1.597-6.618-3.515
					c-2.465-2.464-3.697-5.705-3.697-8.946s1.232-6.481,3.697-8.946L339.404,44.372c4.975-4.975,12.963-4.975,17.938,0
					C358.483,45.513,359.35,46.837,359.989,48.252z" fill="#ffffff" class="colorffffff svgShape"></path>
        </g>
      </g>
      <g fill="#000000" class="color000000 svgShape">
        <path d="M465.694,408.624c-2.062,7.272-4.992,14.272-8.574,20.784l14.869,14.869l-42.11,42.056
				l-14.869-14.869c-6.512,3.636-13.458,6.512-20.729,8.628v21.001h-59.529v-21.001c-7.271-2.116-14.217-4.992-20.783-8.574
				l-14.815,14.814l-42.11-42.056l14.869-14.869c-3.582-6.512-6.512-13.512-8.574-20.784h-21.055v-59.475h21.055
				c2.062-7.271,4.992-14.272,8.574-20.783l-14.869-14.869l42.11-42.056l14.815,14.815c6.566-3.582,13.512-6.458,20.783-8.574
				v-21.001h59.529v21.001c7.271,2.116,14.217,4.992,20.729,8.628l14.869-14.869l42.11,42.056l-14.869,14.869
				c3.582,6.512,6.512,13.512,8.574,20.783h21.001v59.475H465.694z" fill="#0966c2" class="color5a83fc svgShape"></path>
      </g>
      <g opacity=".3" fill="#000000" class="color000000 svgShape">
        <g fill="#000000" class="color000000 svgShape">
          <path d="M472.041,313.55l-9.847,9.847c-18.809-10.4-40.495-16.375-63.508-16.375
					c-67.049,0-122.48,50.231-130.336,115.289c-1.992-4.425-3.651-8.962-4.979-13.719h-21.133v-59.415h21.133
					c1.991-7.303,4.979-14.273,8.519-20.801l-14.826-14.826l42.044-42.154l14.826,14.826c6.638-3.541,13.498-6.417,20.801-8.52
					v-21.022h59.525v21.022c7.303,2.102,14.273,4.979,20.801,8.63l14.826-14.937L472.041,313.55z" fill="#ffffff" class="colorffffff svgShape"></path>
        </g>
      </g>
      <g fill="#000000" class="color000000 svgShape">
        <circle cx="364.513" cy="378.886" r="83.155" fill="#ffffff" class="colorffffff svgShape"></circle>
      </g>
      <path d="M486.694,344.247h-17.367c-1.651-5.093-3.724-10.11-6.185-14.973l12.312-12.312
			c1.918-1.918,1.91-5.026,0-6.936l-42.11-42.057c-1.915-1.905-5.017-1.91-6.931,0.005l-12.297,12.302
			c-4.753-2.427-9.751-4.504-14.93-6.209v-17.386c0-2.709-2.192-4.902-4.902-4.902h-59.53c-2.709,0-4.902,2.192-4.902,4.902v17.386
			c-5.127,1.685-10.139,3.753-14.964,6.175l-0.397-0.397c4.823-14.734,7.535-30.415,7.535-46.739
			c0-35.923-12.68-68.903-33.732-94.829l25.492-25.492l38.014-1.729c1.221-0.057,2.374-0.565,3.241-1.431l39.214-39.219
			c1.316-1.316,1.771-3.26,1.182-5.021c-0.589-1.762-2.125-3.04-3.968-3.298l-26.351-3.689c1.799-6.001,0.415-12.761-4.314-17.493
			c-4.741-4.734-11.499-6.116-17.495-4.317l-3.691-26.353c-0.258-1.843-1.537-3.38-3.298-3.968
			c-1.752-0.598-3.705-0.129-5.021,1.182l-39.214,39.219c-0.866,0.866-1.374,2.02-1.431,3.241l-1.73,38.014l-25.754,25.754
			c-25.471-19.657-57.363-31.38-91.953-31.38c-83.158,0-150.81,67.653-150.81,150.81s67.653,150.81,150.81,150.81
			c23.77,0,46.183-5.658,66.169-15.533v40.238c0,2.709,2.192,4.902,4.902,4.902h17.419c1.651,5.093,3.719,10.105,6.185,14.973
			l-12.312,12.312c-1.918,1.918-1.91,5.026,0,6.936l42.11,42.057c1.915,1.905,5.017,1.91,6.931-0.005l12.269-12.269
			c4.825,2.422,9.837,4.49,14.964,6.175v17.386c0,2.709,2.192,4.902,4.902,4.902h59.53c2.709,0,4.902-2.192,4.902-4.902v-17.386
			c5.175-1.699,10.172-3.777,14.93-6.204l12.297,12.297c1.915,1.915,5.017,1.91,6.931,0.005l42.11-42.057
			c1.91-1.91,1.917-5.019,0-6.936l-12.312-12.312c2.465-4.868,4.533-9.88,6.185-14.973h17.367c2.709,0,4.902-2.192,4.902-4.902
			v-59.472C491.595,346.44,489.403,344.247,486.694,344.247z M349.454,101.347l-25.387,1.155l35.048-35.048l21.252,2.974
			L349.454,101.347z M353.872,47.835c3.03,3.03,3.03,7.97,0,11L176.337,236.371c-3.035,3.035-7.965,3.035-11,0
			c-3.03-3.035-3.03-7.97,0-11L342.872,47.835C345.901,44.806,350.837,44.8,353.872,47.835z M158.405,243.302
			c6.859,6.85,18.003,6.86,24.863,0l26.828-26.828c2.21,5.109,3.473,10.718,3.473,16.632c0,23.355-18.999,42.354-42.354,42.354
			s-42.354-18.999-42.354-42.354s18.999-42.354,42.354-42.354c4.476,0,8.761,0.765,12.807,2.07l-25.617,25.617
			C151.555,225.289,151.55,236.442,158.405,243.302z M191.646,185.198c-6.283-2.701-13.17-4.25-20.431-4.25
			c-28.76,0-52.158,23.398-52.158,52.158s23.398,52.158,52.158,52.158s52.158-23.398,52.158-52.158
			c0-8.658-2.155-16.81-5.906-24.003l28.694-28.694c10.528,14.919,16.737,33.09,16.737,52.696c0,50.549-41.129,91.678-91.683,91.678
			c-50.549,0-91.678-41.129-91.678-91.678s41.129-91.678,91.678-91.678c18.253,0,35.197,5.468,49.492,14.709L191.646,185.198z
			 M300.36,52.253l30.914-30.918l2.977,21.258l-35.046,35.046L300.36,52.253z M171.215,374.113
			c-77.753,0-141.007-63.254-141.007-141.007S93.462,92.099,171.215,92.099c31.885,0,61.316,10.656,84.961,28.569l-28.416,28.415
			c-16.184-10.94-35.583-17.46-56.546-17.46c-55.959,0-101.482,45.523-101.482,101.482s45.523,101.482,101.482,101.482
			c55.958,0,101.486-45.523,101.486-101.482c0-22.31-7.322-42.895-19.575-59.662l28.216-28.216
			c19.296,24.119,30.879,54.659,30.879,87.879c0,13.499-2.031,26.508-5.595,38.875l-4.008-4.008
			c-1.915-1.915-5.017-1.91-6.931-0.005l-42.11,42.057c-1.91,1.91-1.917,5.019,0,6.936l12.312,12.312
			c-2.071,4.093-3.799,8.309-5.301,12.573c-0.96,0.789-1.868,1.637-2.849,2.401h-15.455c-2.709,0-4.902,2.192-4.902,4.902v8.369
			C217.645,368.086,195.133,374.113,171.215,374.113z M481.792,403.72h-16.098c-2.192,0-4.117,1.455-4.715,3.566
			c-1.92,6.759-4.662,13.408-8.152,19.76c-1.053,1.91-0.713,4.284,0.828,5.826l11.398,11.402L429.878,479.4l-11.402-11.402
			c-1.551-1.551-3.949-1.876-5.854-0.814c-6.122,3.418-12.752,6.175-19.708,8.2c-2.092,0.608-3.533,2.527-3.533,4.706v16.098
			h-49.726v-16.098c0-2.178-1.441-4.098-3.533-4.706c-6.86-1.996-13.523-4.749-19.808-8.171c-1.896-1.029-4.27-0.704-5.811,0.838
			l-11.35,11.35l-35.174-35.126l11.398-11.402c1.541-1.541,1.881-3.916,0.828-5.826c-3.49-6.352-6.233-13.001-8.152-19.76
			c-0.598-2.111-2.523-3.566-4.715-3.566h-16.151v-49.669h16.151c2.192,0,4.117-1.455,4.715-3.561
			c1.92-6.769,4.662-13.418,8.152-19.765c1.053-1.91,0.713-4.284-0.828-5.826l-11.398-11.402l35.174-35.126l11.35,11.35
			c1.542,1.541,3.911,1.876,5.811,0.838c6.285-3.423,12.948-6.175,19.808-8.171c2.092-0.608,3.533-2.527,3.533-4.705v-16.098h49.726
			v16.098c0,2.178,1.441,4.098,3.533,4.705c6.96,2.025,13.59,4.787,19.703,8.205c1.92,1.067,4.308,0.742,5.859-0.814l11.407-11.407
			l35.169,35.126l-11.398,11.402c-1.541,1.541-1.881,3.916-0.828,5.826c3.49,6.347,6.233,12.996,8.152,19.765
			c0.598,2.106,2.523,3.561,4.715,3.561h16.098V403.72z" fill="#707070" class="color242c35 svgShape"></path>
      <path d="M364.514,290.831c-48.558,0-88.059,39.501-88.059,88.055c0,48.558,39.501,88.059,88.059,88.059
			c48.553,0,88.055-39.501,88.055-88.059C452.568,330.332,413.067,290.831,364.514,290.831z M436.096,383.787h6.42
			c-1.116,17.883-8.23,34.127-19.396,46.776l-4.525-4.527c-1.915-1.915-5.017-1.915-6.931,0c-1.915,1.91-1.915,5.017,0,6.931
			l4.525,4.527c-12.648,11.167-28.891,18.282-46.774,19.398v-6.425c0-2.709-2.192-4.902-4.902-4.902
			c-2.709,0-4.902,2.192-4.902,4.902v6.425c-17.882-1.116-34.126-8.23-46.775-19.397l4.526-4.528c1.915-1.915,1.915-5.021,0-6.931
			c-1.915-1.915-5.017-1.915-6.931,0l-4.526,4.528c-11.167-12.649-18.283-28.894-19.399-46.777h6.425
			c2.709,0,4.902-2.192,4.902-4.902c0-2.709-2.192-4.902-4.902-4.902h-6.425c1.116-17.883,8.232-34.127,19.399-46.775l4.526,4.526
			c1.915,1.915,5.017,1.915,6.931,0c1.915-1.915,1.915-5.017,0-6.931l-4.526-4.526c12.649-11.165,28.893-18.279,46.775-19.395v6.42
			c0,2.709,2.192,4.902,4.902,4.902c2.709,0,4.902-2.192,4.902-4.902v-6.42c17.882,1.116,34.126,8.23,46.774,19.396l-4.525,4.525
			c-1.915,1.915-1.915,5.017,0,6.931c1.915,1.915,5.017,1.915,6.931,0l4.525-4.525c11.165,12.648,18.28,28.891,19.396,46.774h-6.42
			c-2.709,0-4.902,2.192-4.902,4.902C431.195,381.595,433.387,383.787,436.096,383.787z" fill="#707070" class="color242c35 svgShape"></path>
      <path d="M401.736,374.089h-32.321v-34.595c0-2.709-2.192-4.902-4.902-4.902
			c-2.709,0-4.902,2.192-4.902,4.902v39.496c0,2.709,2.192,4.902,4.902,4.902h37.223c2.709,0,4.902-2.192,4.902-4.902
			C406.638,376.281,404.446,374.089,401.736,374.089z" fill="#707070" class="color242c35 svgShape"></path>
    </g>
  </g>
</svg>
