<svg xmlns="http://www.w3.org/2000/svg" xml:space="preserve" viewBox="0 0 512 512" enable-background="new 0 0 512 512" id="11962850">
  <g id="_x34_0_Marketing" fill="#000000" class="color000000 svgShape">
    <g fill="#000000" class="color000000 svgShape">
      <g fill="#000000" class="color000000 svgShape">
        <path d="M375.857,195.764v165.004H41.842V195.764c0-23.575,19.112-42.687,42.687-42.687H333.17
				C356.745,153.077,375.857,172.188,375.857,195.764z" fill="#ffffff" class="colorffffff svgShape"></path>
      </g>
      <g fill="#000000" class="color000000 svgShape">
        <polygon points="407.188 449.954 10.912 449.954 42.059 360.792 42.059 360.753 376.04 360.753 376.04 360.792 386.502 390.751 403.78 440.206 403.78 440.245" fill="#0966c2" class="color5a83fc svgShape"></polygon>
      </g>
      <g opacity=".3" fill="#000000" class="color000000 svgShape">
        <g fill="#000000" class="color000000 svgShape">
          <path d="M376.053,360.786l10.468,29.97c-7.284-5.095-16.119-7.96-25.433-7.96H90.404
					c-18.945,0-35.86,12.02-42.109,29.93c-1.711,4.935-2.507,9.911-2.507,14.726c0,8.08,2.229,15.801,6.129,22.487H10.922
					l31.124-89.153H376.053z" fill="#ffffff" class="colorffffff svgShape"></path>
        </g>
      </g>
      <g fill="#000000" class="color000000 svgShape">
        <path d="M383.105,489.631H34.994c-13.3,0-24.083-10.782-24.083-24.083V449.95h396.276v15.599
				C407.188,478.849,396.405,489.631,383.105,489.631z" fill="#d9dee3" class="colord9dde3 svgShape"></path>
      </g>
      <g opacity=".3" fill="#000000" class="color000000 svgShape">
        <g fill="#000000" class="color000000 svgShape">
          <path d="M407.17,449.96v15.588c0,0.392,0,0.784-0.049,1.176H53.851c-4.314,0-8.235,1.716-11.029,4.559
					c-2.794,2.843-4.559,6.715-4.559,11.029c0,2.549,0.392,5,1.127,7.304h-4.412c-13.284,0-24.067-10.784-24.067-24.068V449.96
					H407.17z" fill="#ffffff" class="colorffffff svgShape"></path>
        </g>
      </g>
      <g fill="#000000" class="color000000 svgShape">
        <path d="M150.562,449.95h116.975l-6.955-17.063c-1.351-3.315-4.575-5.483-8.155-5.483h-86.755
				c-3.58,0-6.804,2.167-8.155,5.483L150.562,449.95z" fill="#ffffff" class="colorffffff svgShape"></path>
      </g>
      <g fill="#000000" class="color000000 svgShape">
        <circle cx="396.905" cy="126.547" r="37.079" transform="rotate(-13.286 396.818 126.531)" fill="#d9dee3" class="colord9dde3 svgShape"></circle>
      </g>
      <g opacity=".3" fill="#000000" class="color000000 svgShape">
        <g fill="#000000" class="color000000 svgShape">
          <path d="M433.835,129.924c-1.716-4.902-4.608-9.509-8.529-13.431c-14.46-14.46-37.94-14.46-52.4,0
					c-6.421,6.421-9.95,14.558-10.735,22.891c-4.902-13.137-2.059-28.479,8.529-39.067c14.46-14.46,37.94-14.46,52.4,0
					C431.188,108.406,434.766,119.336,433.835,129.924z" fill="#ffffff" class="colorffffff svgShape"></path>
        </g>
      </g>
      <g fill="#000000" class="color000000 svgShape">
        <path d="M333.99,217.766l59.985,59.985c6.582,6.582,6.582,17.253,0,23.835v0
				c-6.582,6.582-17.253,6.582-23.835,0l-59.985-59.985L333.99,217.766z" fill="#d9dee3" class="colord9dde3 svgShape"></path>
      </g>
      <g opacity=".3" fill="#000000" class="color000000 svgShape">
        <g fill="#000000" class="color000000 svgShape">
          <path d="M391.827,303.397c-2.892,2.059-6.323,3.088-9.755,3.088c-4.313,0-8.627-1.618-11.911-4.902
					l-59.997-59.997l23.822-23.822l28.185,28.185l-4.46,4.411c-5.245,5.245-5.245,13.725,0,18.97L391.827,303.397z" fill="#ffffff" class="colorffffff svgShape"></path>
        </g>
      </g>
      <g fill="#000000" class="color000000 svgShape">
        <path d="M278.01,179.795l65.646,65.646l-13.788,13.788c-18.128,18.128-47.519,18.128-65.646,0l0,0
				c-18.128-18.128-18.128-47.519,0-65.646L278.01,179.795z" fill="#707070" class="color576066 svgShape"></path>
      </g>
      <g fill="#000000" class="color000000 svgShape">
        <path d="M343.825,73.466l106.161,106.16c7.431,7.431,4.935,20.028-4.769,24.064l-102.387,42.579
				l-65.646-65.646l42.579-102.387C323.797,68.531,336.393,66.035,343.825,73.466z" fill="#ffffff" class="colorffffff svgShape"></path>
      </g>
      <g fill="#000000" class="color000000 svgShape">
        <path d="M319.761,78.235l-4.483,10.78l119.158,119.158l10.78-4.483c9.704-4.035,12.2-16.632,4.769-24.064
				L343.825,73.466C336.393,66.035,323.797,68.531,319.761,78.235z" fill="#707070" class="color576066 svgShape"></path>
      </g>
      <g fill="#000000" class="color000000 svgShape">
        <rect width="36.594" height="62.869" x="82.783" y="275.088" fill="#ccdff2" class="colord9f2cc svgShape"></rect>
      </g>
      <g opacity=".3" fill="#000000" class="color000000 svgShape">
        <g fill="#000000" class="color000000 svgShape">
          <path d="M119.388,275.065v16.323c-1.176-0.245-2.402-0.392-3.676-0.392
					c-10.098,0-18.283,8.186-18.283,18.283v26.273c0,0.833,0.049,1.618,0.196,2.402H82.771v-62.889H119.388z" fill="#ffffff" class="colorffffff svgShape"></path>
        </g>
      </g>
      <g fill="#000000" class="color000000 svgShape">
        <rect width="36.594" height="85.486" x="138.356" y="252.472" fill="#d9dee3" class="colord9dde3 svgShape"></rect>
      </g>
      <g fill="#000000" class="color000000 svgShape">
        <rect width="36.594" height="111.63" x="193.929" y="226.328" fill="#aeaeae" class="colorf66866 svgShape"></rect>
      </g>
      <g opacity=".3" fill="#000000" class="color000000 svgShape">
        <g fill="#000000" class="color000000 svgShape">
          <path d="M174.949,252.457v15.694c-1.967-0.753-4.101-1.13-6.278-1.13c-10.128,0-18.33,8.202-18.33,18.33
					v48.881c0,1.297,0.126,2.511,0.377,3.724h-12.346v-85.5H174.949z" fill="#ffffff" class="colorffffff svgShape"></path>
        </g>
      </g>
      <g opacity=".3" fill="#000000" class="color000000 svgShape">
        <g fill="#000000" class="color000000 svgShape">
          <path d="M230.526,226.343v15.694c-1.967-0.753-4.102-1.13-6.319-1.13
					c-10.086,0-18.289,8.161-18.289,18.289v75.038c0,1.297,0.125,2.511,0.377,3.724h-12.346V226.343H230.526z" fill="#ffffff" class="colorffffff svgShape"></path>
        </g>
      </g>
      <path d="M383.105,494.534c15.983,0,28.984-13.001,28.984-28.985v-15.6c0-0.349-0.108-1.136-0.278-1.618
			c0.608,1.744-22.164-63.443-31.029-88.825c-0.005-0.019-0.019-0.034-0.024-0.054v-48.164c6.856,0.407,12.545-2.1,16.682-6.238
			c8.482-8.482,8.482-22.283,0-30.765l-16.682-16.682v-21.802l66.336-27.584c12.96-5.397,16.224-22.18,6.357-32.058l-23.618-23.618
			c13.018-16.461,11.951-40.49-3.245-55.682c-15.198-15.198-39.219-16.263-55.683-3.244l-23.616-23.615
			c-9.848-9.858-26.666-6.619-32.053,6.352c-0.005,0-0.005,0-0.005,0c-40.925,98.426-26.81,64.479-29.864,71.822H84.528
			c-26.242,0-47.591,21.349-47.591,47.586v164.837L6.282,448.336c-0.169,0.484-0.273,1.257-0.273,1.613v15.6
			c0,15.983,13.001,28.985,28.985,28.985H383.105z M157.854,445.048l4.203-10.316c0.603-1.474,2.02-2.427,3.614-2.427h86.757
			c1.594,0,3.016,0.957,3.619,2.427l4.198,10.316H157.854z M400.269,445.048H270.83l-5.707-14.021
			c-2.121-5.179-7.104-8.525-12.695-8.525h-86.757c-5.596,0-10.579,3.351-12.69,8.535l-5.71,14.011H17.816l27.733-79.381H372.55
			C374.998,372.677,362.966,338.219,400.269,445.048z M390.51,298.119c-4.667,4.667-12.245,4.658-16.902,0l-37.849-37.846
			l9.853-9.857l9.957-4.141l34.941,34.941C395.168,285.879,395.168,293.457,390.51,298.119z M316.99,97.656l108.797,108.801
			l-80.643,33.538l-61.69-61.69L316.99,97.656z M277.181,187.553l58.716,58.716l-9.493,9.497c-16.189,16.189-42.527,16.189-58.716,0
			s-16.189-42.527,0-58.716L277.181,187.553z M370.956,247.8l-5.595-5.595l5.595-2.327V247.8z M419.657,103.792
			c11.364,11.364,12.396,29.166,3.173,41.747l-44.92-44.918C390.739,91.215,408.459,92.593,419.657,103.792z M340.358,76.932
			l106.163,106.158c4.98,4.98,3.293,13.377-3.188,16.07l-7.756,3.225L321.067,87.866l3.217-7.75
			C326.957,73.706,335.31,71.885,340.358,76.932z M84.528,157.979h196.763l-8.259,19.86l-12.275,12.279
			c-20.009,20.009-20.009,52.569,0,72.579c18.319,18.319,47.396,20.043,67.759,4.198l38.16,38.157
			c1.304,1.304,2.763,2.337,4.279,3.24v47.558H46.741V195.762C46.741,174.929,63.691,157.979,84.528,157.979z M15.813,465.55
			v-10.694h386.473v10.694c0,10.574-8.607,19.181-19.181,19.181H34.994C24.42,484.731,15.813,476.124,15.813,465.55z" fill="#2c2c2c" class="color242c35 svgShape"></path>
      <path d="M76.597 378.314h-9.368c-2.709 0-4.902 2.192-4.902 4.902 0 2.709 2.192 4.902 4.902 4.902h9.368c2.709 0 4.902-2.192 4.902-4.902C81.498 380.506 79.306 378.314 76.597 378.314zM115.72 378.314h-9.368c-2.709 0-4.902 2.192-4.902 4.902 0 2.709 2.192 4.902 4.902 4.902h9.368c2.709 0 4.902-2.192 4.902-4.902C120.622 380.506 118.429 378.314 115.72 378.314zM154.848 378.314h-9.373c-2.709 0-4.902 2.192-4.902 4.902 0 2.709 2.192 4.902 4.902 4.902h9.373c2.709 0 4.902-2.192 4.902-4.902C159.749 380.506 157.557 378.314 154.848 378.314zM193.971 378.314h-9.368c-2.709 0-4.902 2.192-4.902 4.902 0 2.709 2.192 4.902 4.902 4.902h9.368c2.709 0 4.902-2.192 4.902-4.902C198.873 380.506 196.68 378.314 193.971 378.314zM233.094 388.117c2.709 0 4.902-2.192 4.902-4.902 0-2.709-2.192-4.902-4.902-4.902h-9.368c-2.709 0-4.902 2.192-4.902 4.902 0 2.709 2.192 4.902 4.902 4.902H233.094zM277.124 383.216c0-2.709-2.192-4.902-4.902-4.902h-9.368c-2.709 0-4.902 2.192-4.902 4.902 0 2.709 2.192 4.902 4.902 4.902h9.368C274.931 388.117 277.124 385.925 277.124 383.216zM316.247 383.216c0-2.709-2.192-4.902-4.902-4.902h-9.368c-2.709 0-4.902 2.192-4.902 4.902 0 2.709 2.192 4.902 4.902 4.902h9.368C314.054 388.117 316.247 385.925 316.247 383.216zM350.473 378.314h-9.368c-2.709 0-4.902 2.192-4.902 4.902 0 2.709 2.192 4.902 4.902 4.902h9.368c2.709 0 4.902-2.192 4.902-4.902C355.375 380.506 353.182 378.314 350.473 378.314zM58.627 402.167H47.986c-2.709 0-4.902 2.192-4.902 4.902s2.192 4.902 4.902 4.902h10.641c2.709 0 4.902-2.192 4.902-4.902S61.336 402.167 58.627 402.167zM103.068 402.167H92.427c-2.709 0-4.902 2.192-4.902 4.902s2.192 4.902 4.902 4.902h10.641c2.709 0 4.902-2.192 4.902-4.902S105.777 402.167 103.068 402.167zM147.509 402.167h-10.641c-2.709 0-4.902 2.192-4.902 4.902s2.192 4.902 4.902 4.902h10.641c2.709 0 4.902-2.192 4.902-4.902S150.219 402.167 147.509 402.167zM191.951 402.167h-10.641c-2.709 0-4.902 2.192-4.902 4.902s2.192 4.902 4.902 4.902h10.641c2.709 0 4.902-2.192 4.902-4.902S194.66 402.167 191.951 402.167zM236.392 402.167h-10.641c-2.709 0-4.902 2.192-4.902 4.902s2.192 4.902 4.902 4.902h10.641c2.709 0 4.902-2.192 4.902-4.902S239.101 402.167 236.392 402.167zM280.829 402.167h-10.641c-2.709 0-4.902 2.192-4.902 4.902s2.192 4.902 4.902 4.902h10.641c2.709 0 4.902-2.192 4.902-4.902S283.538 402.167 280.829 402.167zM325.27 402.167h-10.641c-2.709 0-4.902 2.192-4.902 4.902s2.192 4.902 4.902 4.902h10.641c2.709 0 4.902-2.192 4.902-4.902S327.979 402.167 325.27 402.167zM369.711 402.167H359.07c-2.709 0-4.902 2.192-4.902 4.902s2.192 4.902 4.902 4.902h10.641c2.709 0 4.902-2.192 4.902-4.902S372.421 402.167 369.711 402.167zM99.014 265.066l48.716-48.716 13.652 13.652c1.915 1.915 5.017 1.915 6.931 0l42.469-42.469v15.969c0 2.709 2.192 4.902 4.902 4.902s4.902-2.192 4.902-4.902v-28.491c0-2.709-2.192-4.902-4.902-4.902h-28.563c-2.709 0-4.902 2.192-4.902 4.902 0 2.709 2.192 4.902 4.902 4.902h17.419l-39.693 39.693-13.652-13.652c-1.915-1.915-5.017-1.915-6.931 0l-52.182 52.182c-1.915 1.915-1.915 5.017 0 6.931C93.997 266.981 97.099 266.981 99.014 265.066z" fill="#2c2c2c" class="color242c35 svgShape"></path>
      <path d="M76.597 342.858c10.624 0 168.284 0 160.116 0 2.709 0 4.902-2.192 4.902-4.902s-2.192-4.902-4.902-4.902h-1.288V226.326c0-2.709-2.192-4.902-4.902-4.902h-36.596c-2.709 0-4.902 2.192-4.902 4.902v106.728h-9.176v-80.582c0-2.709-2.192-4.902-4.902-4.902h-36.591c-2.709 0-4.902 2.192-4.902 4.902v80.582h-9.176V275.09c0-2.709-2.192-4.902-4.902-4.902H82.781c-2.709 0-4.902 2.192-4.902 4.902v57.964h-1.283c-2.709 0-4.902 2.192-4.902 4.902S73.887 342.858 76.597 342.858zM198.829 231.228h26.792v101.826h-26.792V231.228zM143.259 257.374h26.787v75.68h-26.787V257.374zM87.683 279.992h26.792v53.062H87.683V279.992zM431.897 17.527c-2.714-.421-5.203 1.355-5.648 4.021l-7.683 45.633c-.45 2.671 1.35 5.199 4.021 5.649 2.834.44 5.221-1.476 5.648-4.021l7.683-45.633C436.368 20.505 434.569 17.977 431.897 17.527zM442.893 87.488l26.658-26.658c1.915-1.915 1.915-5.017 0-6.931-1.915-1.915-5.017-1.915-6.931 0l-26.658 26.658c-1.915 1.915-1.915 5.017 0 6.931C437.876 89.402 440.978 89.402 442.893 87.488zM500.273 87.535l-45.633 7.683c-2.671.45-4.471 2.977-4.021 5.649.428 2.545 2.814 4.461 5.648 4.021l45.633-7.683c2.671-.45 4.471-2.977 4.021-5.649C505.472 88.89 502.987 87.1 500.273 87.535z" fill="#2c2c2c" class="color242c35 svgShape"></path>
    </g>
  </g>
</svg>
