<svg xmlns="http://www.w3.org/2000/svg" enable-background="new 0 0 512 512" viewBox="0 0 512 512" id="6621993">
  <path fill="#0966c2" d="M324.056,157.819l6.015,35.014c3.121,18.165-15.945,32.022-32.26,23.446l-31.48-16.549
			c-6.479-3.406-14.22-3.405-20.698,0.003l-31.447,16.543c-16.309,8.58-35.377-5.266-32.268-23.43l5.998-35.04
			c1.234-7.211-1.158-14.569-6.397-19.675l-25.456-24.809c-13.199-12.863-5.917-35.277,12.321-37.927l35.193-5.114
			c7.244-1.053,13.506-5.603,16.744-12.168l15.732-31.896c8.152-16.527,31.716-16.534,39.877-0.011l15.764,31.917
			c3.24,6.559,9.499,11.105,16.738,12.157l35.177,5.112c18.243,2.651,25.522,25.073,12.314,37.934l-25.467,24.799
			C325.21,143.234,322.816,150.6,324.056,157.819z" class="colorfdce06 svgShape"></path>
  <path fill="#707070" d="M344.736 67.661l-35.178-5.112c-4.7-.683-8.758-3.628-10.856-7.885l-15.77-31.913c-5.096-10.33-15.419-16.746-26.939-16.746-11.528.004-21.85 6.424-26.939 16.754l-15.731 31.894c-2.106 4.261-6.164 7.213-10.864 7.896l-35.194 5.112c-11.406 1.659-20.698 9.495-24.261 20.454-3.555 10.956-.641 22.762 7.606 30.803l25.459 24.806c3.403 3.315 4.951 8.083 4.15 12.764l-5.997 35.037c-1.945 11.356 2.632 22.613 11.955 29.384 9.331 6.775 21.438 7.644 31.646 2.277l31.448-16.54c4.196-2.22 9.216-2.212 13.427 0l31.478 16.548c4.433 2.331 9.231 3.483 14.007 3.483 6.21 0 12.375-1.945 17.639-5.775 9.323-6.775 13.9-18.035 11.947-29.392l-6.019-35.014c-.801-4.684.755-9.46 4.158-12.775l25.466-24.799c8.262-8.041 11.177-19.847 7.622-30.811C365.434 77.152 356.141 69.317 344.736 67.661zM350.48 107.73l-25.466 24.795c-7.095 6.904-10.33 16.853-8.659 26.611 0 .004 0 .008 0 .008l6.019 35.014c.946 5.531-1.198 10.803-5.737 14.106-4.532 3.296-10.216 3.708-15.197 1.099l-31.471-16.548c-4.379-2.3-9.186-3.452-13.984-3.452-4.806 0-9.613 1.152-13.992 3.456l-31.448 16.544c-4.982 2.609-10.658 2.197-15.182-1.095-4.547-3.3-6.691-8.571-5.745-14.106l5.997-35.037c1.671-9.743-1.556-19.68-8.636-26.588l-25.459-24.81c-4.021-3.918-5.386-9.445-3.654-14.785 1.732-5.34 6.088-9.01 11.642-9.815l35.194-5.112c9.788-1.423 18.249-7.572 22.628-16.445l15.732-31.898c2.487-5.035 7.316-8.041 12.932-8.041s10.444 3.002 12.932 8.037l15.77 31.913c4.372 8.865 12.825 15.007 22.621 16.433l35.178 5.112c5.554.805 9.903 4.475 11.642 9.811C355.867 98.281 354.501 103.808 350.48 107.73zM170.797 461.241c-4.318 0-7.812 3.498-7.812 7.812 0 4.314 3.494 7.812 7.812 7.812h20.935l-2.747 20.267c-.58 4.276 2.418 8.213 6.691 8.789.359.05.71.072 1.06.072 3.853 0 7.202-2.842 7.736-6.763l3.031-22.365h96.993l3.032 22.365c.534 3.921 3.883 6.763 7.736 6.763.351 0 .702-.023 1.06-.072 4.272-.576 7.271-4.513 6.691-8.789l-2.747-20.267h20.928c4.318 0 7.812-3.498 7.812-7.812 0-4.314-3.494-7.812-7.812-7.812H318.15l-4.011-29.59h14.857c4.318 0 7.812-3.498 7.812-7.812s-3.494-7.812-7.812-7.812h-16.975l-4.011-29.586h11.846c4.318 0 7.812-3.498 7.812-7.812s-3.494-7.812-7.812-7.812h-13.964l-4.01-29.586h10.864c4.318 0 7.812-3.498 7.812-7.812s-3.494-7.812-7.812-7.812h-12.982l-4.011-29.586h11.309c4.318 0 7.812-3.498 7.812-7.812 0-4.314-3.494-7.812-7.812-7.812h-13.427l-3.449-25.443c-.58-4.28-4.509-7.255-8.797-6.691-4.272.576-7.271 4.513-6.691 8.789l3.165 23.345h-43.735l3.164-23.345c.58-4.276-2.418-8.213-6.691-8.789-4.288-.572-8.209 2.411-8.796 6.691l-3.448 25.443H204.93c-4.318 0-7.812 3.498-7.812 7.812 0 4.314 3.494 7.812 7.812 7.812h11.31l-4.01 29.586h-12.984c-4.318 0-7.812 3.498-7.812 7.812s3.494 7.812 7.812 7.812h10.867l-4.01 29.586h-13.96c-4.318 0-7.812 3.498-7.812 7.812s3.494 7.812 7.812 7.812h11.843l-4.01 29.586h-16.981c-4.318 0-7.812 3.498-7.812 7.812s3.494 7.812 7.812 7.812h14.863l-4.01 29.59H170.797zM232.012 296.019h47.97l4.011 29.586h-55.99L232.012 296.019zM225.885 341.23h60.226l4.011 29.586h-68.245L225.885 341.23zM219.758 386.441h72.481l4.011 29.586h-80.501L219.758 386.441zM213.631 431.651h84.736l4.011 29.59h-92.758L213.631 431.651zM113.044 195.447c1.221.69 2.541 1.015 3.845 1.015 2.724 0 5.371-1.423 6.805-3.963l6.843-12.066c2.136-3.75.824-8.518-2.93-10.65-3.754-2.14-8.514-.832-10.65 2.93l-6.859 12.089C107.97 188.554 109.29 193.322 113.044 195.447zM88.729 124.163c4.318 0 7.812-3.498 7.812-7.812 0-4.314-3.494-7.812-7.812-7.812h-13.87c-4.318 0-7.812 3.498-7.812 7.812 0 4.314 3.494 7.812 7.812 7.812H88.729zM116.95 59.979c1.442 2.537 4.082 3.96 6.805 3.96 1.305 0 2.624-.328 3.845-1.015 3.754-2.129 5.073-6.897 2.945-10.65L123.694 40.2c-2.129-3.754-6.882-5.066-10.65-2.945-3.754 2.129-5.073 6.897-2.945 10.65L116.95 59.979zM381.455 180.425l6.843 12.073c1.434 2.541 4.082 3.963 6.805 3.963 1.305 0 2.624-.324 3.845-1.015 3.754-2.125 5.073-6.893 2.945-10.647l-6.843-12.081c-2.129-3.754-6.882-5.066-10.65-2.945C380.646 171.903 379.326 176.671 381.455 180.425zM437.141 108.539h-13.87c-4.318 0-7.812 3.498-7.812 7.812 0 4.314 3.494 7.812 7.812 7.812h13.87c4.318 0 7.812-3.498 7.812-7.812C444.953 112.037 441.459 108.539 437.141 108.539zM384.4 62.923c1.221.687 2.541 1.015 3.845 1.015 2.724 0 5.363-1.423 6.805-3.96l6.843-12.073c2.129-3.754.809-8.522-2.945-10.65-3.761-2.121-8.522-.809-10.65 2.945l-6.843 12.073C379.326 56.027 380.646 60.795 384.4 62.923z" class="color3e3e3e svgShape"></path>
</svg>
