<svg xmlns="http://www.w3.org/2000/svg" xml:space="preserve" viewBox="0 0 512 512" enable-background="new 0 0 512 512" id="11962827">
  <g id="_x31_7_Motivation" fill="#0966c2" class="color000000 svgShape">
    <g fill="#0966c2" class="color000000 svgShape">
      <g fill="#0966c2" class="color000000 svgShape">
        <path d="M451.759,410.712v56.543c0,18.685-15.147,33.833-33.833,33.833H278.043
				c-18.685,0-33.833-15.147-33.833-33.833v-56.543c0-18.685,15.147-33.833,33.833-33.833h139.883
				C436.611,376.88,451.759,392.027,451.759,410.712z" fill="#ccdff2" class="colord9f2cc svgShape"></path>
      </g>
      <g opacity=".3" fill="#0966c2" class="color000000 svgShape">
        <g fill="#0966c2" class="color000000 svgShape">
          <path d="M451.74,410.717v10.959c-3.011,2.073-6.664,3.258-10.515,3.258h-156.98
					c-9.577,10.366-15.451,24.189-15.451,39.393v7.948c0,10.465,2.764,20.289,7.602,28.73c-17.919-0.79-32.186-15.599-32.186-33.765
					v-56.523c0-18.709,15.155-33.815,33.815-33.815h139.899C436.634,376.902,451.74,392.008,451.74,410.717z" fill="#ffffff" class="colorffffff svgShape"></path>
        </g>
      </g>
      <g fill="#0966c2" class="color000000 svgShape">
        <path d="M55.323,306.947v-70.28V306.947v25.05c0,7.872-6.393,14.265-14.265,14.265
				c-3.943,0-7.509-1.595-10.09-4.175c-2.58-2.58-4.175-6.147-4.175-10.09v-25.05v-75.209c0-9.075,2.421-17.976,7.031-25.79
				c2.58-4.393,5.784-8.336,9.51-11.742c3.711-3.392,7.93-6.234,12.54-8.408l20.933-9.901c2.58-1.218,5.393-1.856,8.249-1.856h42.36
				c3.044,0,6.031,0.725,8.742,2.102l12.293,6.248c2.247,1.145,4.74,1.74,7.263,1.74h18.179c6.016,0,11.539-3.378,14.279-8.742
				l32.589-63.8l28.704,15.657l-33.662,67.772c-3.9,7.843-10.206,14.25-17.976,18.266c-2.928,1.508-6.016,2.653-9.191,3.436
				c-3.175,0.768-6.437,1.16-9.727,1.16h-23.383v89.068H61.237H55.323" fill="#707070" class="color576066 svgShape"></path>
      </g>
      <g fill="#0966c2" class="color000000 svgShape">
        <path d="M155.524,306.947v179.07c0,8.323-6.747,15.071-15.071,15.071h0
				c-7.366,0-13.652-5.324-14.865-12.589l-20.165-120.782L85.901,488.423c-1.181,7.3-7.483,12.664-14.877,12.664h-0.63
				c-8.323,0-15.071-6.747-15.071-15.071v-179.07H155.524z" fill="#ffffff" class="colorffffff svgShape"></path>
      </g>
      <g fill="#0966c2" class="color000000 svgShape">
        <path d="M55.323,306.947v25.05c0,7.872-6.393,14.265-14.265,14.265c-3.943,0-7.509-1.595-10.09-4.175
				c-2.58-2.58-4.175-6.147-4.175-10.09v-25.05H55.323z" fill="#ffffff" class="colorffffff svgShape"></path>
      </g>
      <g fill="#0966c2" class="color000000 svgShape">
        <polygon points="130.213 155.948 130.213 174.501 117.021 190.784 94.348 190.784 81.156 174.501 81.156 155.948" fill="#ffffff" class="colorffffff svgShape"></polygon>
      </g>
      <g fill="#0966c2" class="color000000 svgShape">
        <polygon points="88.897 261.717 105.684 282.012 122.472 261.717 117.021 190.784 94.348 190.784" fill="#d9dee3" class="colord9dde3 svgShape"></polygon>
      </g>
      <g opacity=".3" fill="#0966c2" class="color000000 svgShape">
        <g fill="#0966c2" class="color000000 svgShape">
          <path d="M117.985,203.533c-3.209,1.086-6.072,2.863-8.491,5.084c-4.394,4.097-7.306,9.725-7.8,16.093
					l-3.702,48.032l-9.083-11.008l5.43-70.937h22.659L117.985,203.533z" fill="#ffffff" class="colorffffff svgShape"></path>
        </g>
      </g>
      <g fill="#0966c2" class="color000000 svgShape">
        <path d="M220.76,111.588l4.708-8.392c4.541-8.094,14.867-10.845,22.833-6.083l0,0
				c7.829,4.68,10.368,14.828,5.667,22.644l-4.505,7.489L220.76,111.588z" fill="#ffffff" class="colorffffff svgShape"></path>
      </g>
      <g fill="#0966c2" class="color000000 svgShape">
        <path d="M55.323,460.23v25.787c0,8.323,6.748,15.071,15.071,15.071h0.63
				c7.394,0,13.697-5.365,14.878-12.664l4.56-28.193H55.323z" fill="#d9dee3" class="colord9dde3 svgShape"></path>
      </g>
      <g fill="#0966c2" class="color000000 svgShape">
        <path d="M120.869,460.23l4.72,28.269c1.213,7.265,7.5,12.589,14.865,12.589
				c8.323,0,15.071-6.748,15.071-15.071V460.23H120.869z" fill="#d9dee3" class="colord9dde3 svgShape"></path>
      </g>
      <g opacity=".3" fill="#0966c2" class="color000000 svgShape">
        <g fill="#0966c2" class="color000000 svgShape">
          <path d="M90.44,460.23l-1.58,9.774h-6.664c-8.491,0-15.303,6.862-15.303,15.303v10.169
					c0,1.876,0.346,3.702,0.987,5.381c-7.158-1.185-12.539-7.405-12.539-14.859V460.23H90.44z" fill="#ffffff" class="colorffffff svgShape"></path>
        </g>
      </g>
      <g opacity=".3" fill="#0966c2" class="color000000 svgShape">
        <g fill="#0966c2" class="color000000 svgShape">
          <path d="M155.502,460.23v9.774h-4.986c-9.478,0-16.685,8.491-15.106,17.821l1.58,9.577
					c0.197,1.185,0.543,2.369,0.938,3.505c-6.22-1.086-11.255-5.973-12.341-12.391l-4.739-28.286H155.502z" fill="#ffffff" class="colorffffff svgShape"></path>
        </g>
      </g>
      <g fill="#0966c2" class="color000000 svgShape">
        <path d="M166.522,71.772c0,33.586-27.229,60.815-60.815,60.815c-33.631,0-60.86-27.229-60.86-60.815
				c0-33.631,27.229-60.86,60.86-60.86C139.293,10.912,166.522,38.141,166.522,71.772z" fill="#707070" class="color576066 svgShape"></path>
      </g>
      <g fill="#0966c2" class="color000000 svgShape">
        <path d="M152.869,89.838v25.766c0,26.059-21.125,47.185-47.185,47.185h0
				c-26.059,0-47.185-21.125-47.185-47.185V89.838h0c11.003,0,20.971-6.485,25.43-16.544l6.143-13.857l29.488,24.116
				c4.969,4.064,11.191,6.284,17.61,6.284H152.869z" fill="#ffffff" class="colorffffff svgShape"></path>
      </g>
      <g fill="#0966c2" class="color000000 svgShape">
        <path d="M170.932,105.322L170.932,105.322c0,8.547-6.929,15.476-15.476,15.476h-2.592V89.846h2.592
				C164.003,89.846,170.932,96.775,170.932,105.322z" fill="#ffffff" class="colorffffff svgShape"></path>
      </g>
      <g fill="#0966c2" class="color000000 svgShape">
        <path d="M40.432,105.322L40.432,105.322c0,8.547,6.929,15.476,15.476,15.476H58.5V89.846h-2.592
				C47.361,89.846,40.432,96.775,40.432,105.322z" fill="#ffffff" class="colorffffff svgShape"></path>
      </g>
      <g fill="#0966c2" class="color000000 svgShape">
        <path d="M459.96,357.597v48.566c0,10.36-8.399,18.759-18.759,18.759H254.767
				c-10.36,0-18.759-8.399-18.759-18.759v-48.566c0-10.36,8.399-18.759,18.759-18.759h186.434
				C451.562,338.838,459.96,347.236,459.96,357.597z" fill="#ccdff2" class="colord9f2cc svgShape"></path>
      </g>
      <g opacity=".3" fill="#0966c2" class="color000000 svgShape">
        <g fill="#0966c2" class="color000000 svgShape">
          <path d="M459.984,357.6v14.76c-5.578-2.715-11.847-4.196-18.462-4.196H303.646
					c-11.897,0-22.659,4.788-30.458,12.588c-7.8,7.8-12.588,18.561-12.588,30.458c0,4.789,0.79,9.429,2.221,13.724h-8.046
					c-3.9,0-7.553-1.185-10.564-3.258c-4.936-3.357-8.194-9.034-8.194-15.501V357.6c0-10.366,8.392-18.759,18.759-18.759h186.451
					C451.542,338.842,459.984,347.234,459.984,357.6z" fill="#ffffff" class="colorffffff svgShape"></path>
        </g>
      </g>
      <g fill="#0966c2" class="color000000 svgShape">
        <path d="M317.618,414.945v13.295c0,8.614-6.983,15.597-15.597,15.597h0
				c-8.614,0-15.597-6.983-15.597-15.597v-13.295c0-8.614,6.983-15.597,15.597-15.597h0
				C310.635,399.348,317.618,406.331,317.618,414.945z" fill="#ffffff" class="colorffffff svgShape"></path>
      </g>
      <g fill="#0966c2" class="color000000 svgShape">
        <path d="M409.544,414.945v13.295c0,8.614-6.983,15.597-15.597,15.597h0
				c-8.614,0-15.597-6.983-15.597-15.597v-13.295c0-8.614,6.983-15.597,15.597-15.597h0
				C402.561,399.348,409.544,406.331,409.544,414.945z" fill="#ffffff" class="colorffffff svgShape"></path>
      </g>
      <g fill="#0966c2" class="color000000 svgShape">
        <path d="M378.296,210.578l4.55,26.553c1.063,6.204-5.45,10.933-11.02,8.002l-23.842-12.544l-23.842,12.544
				c-5.57,2.931-12.083-1.799-11.02-8.002l4.55-26.553l-19.276-18.793c-4.505-4.392-2.02-12.044,4.207-12.951l26.65-3.881
				l11.921-24.154c2.785-5.644,10.833-5.644,13.618,0l11.921,24.154l26.65,3.881c6.227,0.907,8.712,8.559,4.207,12.951
				L378.296,210.578z" fill="#aeaeae" class="colorf66866 svgShape"></path>
      </g>
      <g opacity=".3" fill="#0966c2" class="color000000 svgShape">
        <g fill="#0966c2" class="color000000 svgShape">
          <path d="M335.338,211.382c0,8.935,1.925,17.426,5.381,25.028l-16.587,8.738
					c-5.578,2.912-12.094-1.826-11.008-7.997l4.541-26.558l-19.252-18.808c-4.541-4.394-2.024-12.045,4.196-12.934l26.657-3.9
					l11.897-24.139c2.814-5.677,10.86-5.677,13.625,0l5.677,11.453C345.26,173.223,335.338,191.143,335.338,211.382z" fill="#ffffff" class="colorffffff svgShape"></path>
        </g>
      </g>
      <g fill="#0966c2" class="color000000 svgShape">
        <path d="M270.755,258.146l3.321,19.38c0.776,4.528-3.977,7.98-8.043,5.841l-17.401-9.155l-17.401,9.155
				c-4.065,2.139-8.819-1.313-8.043-5.841l3.321-19.38l-14.068-13.716c-3.288-3.206-1.474-8.791,3.07-9.452l19.45-2.832
				l8.701-17.629c2.033-4.119,7.906-4.119,9.939,0l8.701,17.629l19.45,2.832c4.544,0.662,6.358,6.246,3.07,9.452L270.755,258.146z" fill="#aeaeae" class="colorf66866 svgShape"></path>
      </g>
      <g fill="#0966c2" class="color000000 svgShape">
        <path d="M469.459,258.146l3.321,19.38c0.776,4.528-3.977,7.98-8.043,5.841l-17.401-9.155l-17.401,9.155
				c-4.065,2.139-8.819-1.313-8.043-5.841l3.321-19.38l-14.068-13.716c-3.288-3.206-1.474-8.791,3.07-9.452l19.45-2.832
				l8.701-17.629c2.033-4.119,7.906-4.119,9.939,0l8.701,17.629l19.45,2.832c4.544,0.662,6.358,6.246,3.07,9.452L469.459,258.146z" fill="#aeaeae" class="colorf66866 svgShape"></path>
      </g>
      <g opacity=".3" fill="#0966c2" class="color000000 svgShape">
        <path d="M243.47,257.094c0,6.368,1.382,12.391,3.85,17.821l-16.093,8.441
				c-4.048,2.172-8.836-1.284-8.046-5.825l3.307-19.4l-14.069-13.724c-3.258-3.159-1.432-8.787,3.11-9.429l19.45-2.814l8.688-17.673
				c2.024-4.097,7.899-4.097,9.922,0l4.936,10.021C249.295,232.313,243.47,244.012,243.47,257.094z" fill="#ffffff" class="colorffffff svgShape"></path>
      </g>
      <g opacity=".3" fill="#0966c2" class="color000000 svgShape">
        <path d="M441.324,253.095c0,7.75,2.024,15.056,5.529,21.375l-16.932,8.886
				c-4.048,2.172-8.787-1.284-8.046-5.825l3.357-19.4l-14.069-13.724c-3.307-3.159-1.481-8.787,3.061-9.429l19.45-2.814
				l8.688-17.673c2.024-4.097,7.899-4.097,9.922,0l3.159,6.368C446.754,228.857,441.324,240.359,441.324,253.095z" fill="#ffffff" class="colorffffff svgShape"></path>
      </g>
      <path d="M278.043 505.99h139.882c21.359 0 38.735-17.376 38.735-38.735v-43.326c4.983-4.341 8.202-10.655 8.202-17.766v-48.565c0-13.047-10.615-23.661-23.661-23.661H414.55v-19.066c0-16.565-13.477-30.042-30.042-30.042h-73.045c-16.567 0-30.045 13.477-30.045 30.042v19.066h-26.651c-13.047 0-23.659 10.615-23.659 23.661v48.565c0 7.111 3.219 13.424 8.2 17.766v43.327C239.307 488.613 256.684 505.99 278.043 505.99zM446.857 467.254c0 15.952-12.98 28.932-28.932 28.932H278.043c-15.952 0-28.932-12.98-28.932-28.932v-38.191c1.822.451 3.697.76 5.656.76h26.916c.823 10.552 9.577 18.915 20.337 18.915 10.762 0 19.516-8.363 20.34-18.915h51.248c.823 10.552 9.577 18.915 20.34 18.915s19.516-8.363 20.34-18.915h26.914c1.959 0 3.834-.309 5.656-.76V467.254zM291.326 428.241v-13.296c0-5.897 4.796-10.696 10.694-10.696s10.696 4.799 10.696 10.696v13.296c0 5.897-4.799 10.694-10.696 10.694S291.326 434.139 291.326 428.241zM383.251 428.241v-13.296c0-5.897 4.799-10.696 10.696-10.696s10.696 4.799 10.696 10.696v13.296c0 5.897-4.799 10.694-10.696 10.694S383.251 434.139 383.251 428.241zM291.221 314.869c0-11.161 9.081-20.239 20.241-20.239h73.045c11.161 0 20.239 9.078 20.239 20.239v19.066H291.221V314.869zM240.911 357.597c0-7.642 6.216-13.858 13.856-13.858h186.434c7.642 0 13.858 6.216 13.858 13.858v48.565c0 7.642-6.216 13.858-13.858 13.858h-26.754v-5.074c0-11.304-9.196-20.5-20.5-20.5s-20.5 9.196-20.5 20.5v5.074H322.52v-5.074c0-11.304-9.196-20.5-20.5-20.5-11.302 0-20.497 9.196-20.497 20.5v5.074h-26.756c-7.64 0-13.856-6.216-13.856-13.858V357.597zM120.753 489.305c1.613 9.667 9.899 16.685 19.7 16.685 11.012 0 19.973-8.961 19.973-19.973 0-33.4 0-232.397 0-263.235h18.48c17.626 0 33.568-10.053 41.284-25.583 3.883-7.66-14.068 27.749 37.979-74.915 6.102-10.148 2.815-23.296-7.355-29.379-10.368-6.194-23.738-2.598-29.621 7.894-51.236 99.164-33.565 64.962-37.388 72.361-1.912 3.743-5.711 6.07-9.914 6.07h-18.181c-1.75 0-3.49-.416-5.041-1.209-12.457-6.197-11.986-6.361-15.557-7.559v-11.923c11.051-7.599 19.024-19.341 21.676-32.973 10.605-.702 19.043-9.463 19.043-20.243 0-6.613-3.216-12.441-8.111-16.166 2.02-5.524 3.323-11.342 3.703-17.383 2.273-36.189-29.482-65.762-65.719-65.762-36.261 0-65.76 29.501-65.76 65.762 0 6.341.939 12.458 2.638 18.256-4.285 3.739-7.053 9.172-7.053 15.293 0 10.782 8.44 19.544 19.048 20.243 2.653 13.631 10.626 25.373 21.676 32.972v12.359c-3.436 1.338-10.152 4.707-22.47 10.467-19.674 9.28-31.895 29.069-31.895 50.375 0 31.767 0 67.584 0 100.259 0 10.58 8.546 19.167 19.167 19.167 3.417 0 6.582-.973 9.363-2.546 0 84.221 0 89.256 0 137.399 0 11.012 8.961 19.973 19.973 19.973.49-.185 17.578.337 20.347-16.783l14.76-91.262C108.835 417.919 118.012 472.888 120.753 489.305zM150.623 486.016c0 5.608-4.562 10.17-10.17 10.17-4.99 0-9.21-3.573-10.031-8.494l-3.767-22.561h23.967V486.016zM245.786 101.319c5.502 3.285 7.289 10.414 3.983 15.912l-2.082 3.461c-.645-.352-21.368-11.657-20.224-11.033l2.28-4.065C232.956 99.871 240.218 97.99 245.786 101.319zM157.768 115.641c0-.013.002-.025.002-.037V95.002c4.719 1.06 8.26 5.283 8.26 10.319C166.03 110.358 162.49 114.582 157.768 115.641zM49.75 71.772c0-30.856 25.102-55.959 55.956-55.959 30.832 0 55.915 25.102 55.915 55.959 0 4.728-.637 9.299-1.763 13.679-3.28-.727-5.093-.443-6.954-.508-.013 0-.023-.007-.036-.007H137.17c-5.273 0-10.423-1.838-14.507-5.177L93.176 55.643c-1.187-.972-2.755-1.333-4.241-.974-1.489.354-2.724 1.383-3.344 2.781L79.45 71.308c-3.672 8.279-11.893 13.628-20.95 13.628-.013 0-.023.007-.036.007-1.302.045-3.646-.224-6.934.501C50.402 81.066 49.75 76.499 49.75 71.772zM53.598 115.642c-4.722-1.058-8.265-5.282-8.265-10.32 0-5.038 3.542-9.263 8.265-10.32v20.603V115.642zM63.402 115.603V94.371c10.931-1.659 20.44-8.784 25.009-19.09l3.537-7.98 24.509 20.045c5.83 4.768 13.185 7.393 20.713 7.393h10.792v20.958c-.052 23.27-18.995 42.188-42.278 42.188C82.37 157.886 63.402 138.918 63.402 115.603zM125.31 163.82v8.945l-10.627 13.116H96.687l-10.629-13.118v-8.943C98.437 168.878 112.432 169.082 125.31 163.82zM98.889 195.685h13.592l4.952 64.434-11.749 14.203-11.749-14.203L98.889 195.685zM57.971 190.228c9.048-4.255 18.801-8.949 21.453-10.081l9.888 12.204-5.303 68.99c-.098 1.266.302 2.52 1.111 3.499l16.788 20.294c.931 1.127 2.317 1.778 3.777 1.778 1.46 0 2.846-.651 3.777-1.778l16.788-20.294c.809-.979 1.209-2.233 1.111-3.499l-5.301-68.99 10.116-12.488c2.908 1.031 3.439 1.624 14.047 6.892 2.92 1.489 6.201 2.276 9.49 2.276h18.181c7.903 0 15.048-4.373 18.645-11.412l30.299-59.316 20.138 10.986-31.562 63.545c-6.057 12.19-18.577 20.143-32.505 20.143h-23.381c-2.707 0-4.902 2.195-4.902 4.902v84.165h-90.4v-65.379c0-2.707-2.195-4.902-4.902-4.902-2.707 0-4.902 2.195-4.902 4.902v65.379H31.694v-70.307C31.694 214.127 41.825 197.84 57.971 190.228zM41.057 341.359c-5.223 0-9.363-4.224-9.363-9.363v-20.148H50.42v20.148C50.42 337.159 46.219 341.359 41.057 341.359zM70.393 496.186c-5.608 0-10.17-4.562-10.17-10.17v-20.885h24.478l-3.64 22.51C79.63 496.503 70.884 496.007 70.393 496.186zM105.423 362.817c-.005 0-.007 0-.012 0-2.401.007-4.445 1.75-4.828 4.119l-14.297 88.392H60.223c0-30.071 0-113.307 0-143.479h90.4v143.479H125.02l-14.762-88.416C109.863 364.547 107.819 362.817 105.423 362.817z" fill="#2c2c2c" class="color242c35 svgShape"></path>
      <path d="M97.925 105.666c-1.922-1.908-5.029-1.898-6.931.029-2.101 2.121-5.823 2.116-7.925 0-1.9-1.922-5.007-1.931-6.931-.029-1.922 1.905-1.936 5.009-.029 6.931 6.008 6.062 15.837 6.062 21.845 0C99.861 110.675 99.847 107.571 97.925 105.666zM135.26 112.597c1.908-1.922 1.893-5.026-.029-6.931-1.924-1.908-5.031-1.898-6.931.029-2.099 2.116-5.821 2.121-7.925 0-1.903-1.922-5.009-1.931-6.931-.029-1.922 1.905-1.936 5.009-.029 6.931C119.423 118.66 129.252 118.66 135.26 112.597zM116.606 138.645c1.908-1.922 1.898-5.024-.024-6.931-1.915-1.905-5.021-1.896-6.931.024-2.101 2.116-5.83 2.116-7.932 0-1.905-1.922-5.012-1.932-6.931-.024-1.922 1.908-1.932 5.009-.024 6.931C100.773 144.7 110.593 144.702 116.606 138.645zM404.155 182.49c-1.479-4.557-5.342-7.817-10.084-8.509l-24.102-3.509-10.782-21.845c-2.121-4.294-6.412-6.965-11.204-6.965s-9.083 2.671-11.206 6.967l-10.78 21.842-24.1 3.509c-4.741.692-8.604 3.949-10.084 8.506-1.482 4.555-.27 9.461 3.159 12.805l17.434 16.996-4.117 24.013c-.809 4.722 1.099 9.406 4.976 12.221 3.875 2.817 8.918 3.181 13.159.948l21.558-11.342 21.56 11.345c4.26 2.238 9.299 1.853 13.161-.95 3.875-2.817 5.783-7.499 4.974-12.221l-4.117-24.013 17.429-16.993C404.423 191.952 405.634 187.045 404.155 182.49zM394.148 188.275l-19.274 18.793c-1.154 1.125-1.68 2.748-1.41 4.337l4.55 26.553c.256 1.489-.663 2.336-1.07 2.633-.409.294-1.501.905-2.836.206l-23.841-12.544c-1.432-.752-3.13-.755-4.567 0l-23.839 12.542c-1.333.701-2.425.091-2.836-.203-.407-.297-1.326-1.144-1.07-2.633l4.55-26.553c.27-1.589-.256-3.212-1.41-4.337l-19.277-18.793c-1.082-1.055-.838-2.281-.682-2.76s.68-1.613 2.173-1.831l26.648-3.88c1.596-.232 2.975-1.235 3.691-2.683l11.919-24.152c.67-1.355 1.912-1.503 2.415-1.503s1.745.148 2.413 1.501l11.922 24.155c.716 1.448 2.094 2.451 3.691 2.683l26.651 3.88c1.494.218 2.015 1.352 2.171 1.831S395.23 187.22 394.148 188.275zM222.515 286.914c3.225 2.343 7.447 2.663 11 .79l15.117-7.953 15.117 7.953c3.554 1.872 7.764 1.565 11-.79 3.241-2.355 4.835-6.268 4.16-10.215l-2.889-16.84 12.223-11.917c2.867-2.796 3.882-6.898 2.645-10.706-1.237-3.808-4.469-6.532-8.43-7.109l-16.9-2.46-7.561-15.318c-1.774-3.593-5.361-5.823-9.366-5.823-4.004 0-7.592 2.231-9.363 5.821l-7.563 15.32-16.9 2.46c-3.961.577-7.192 3.301-8.43 7.109-1.237 3.808-.223 7.91 2.642 10.703l12.226 11.919-2.889 16.84C217.68 280.645 219.274 284.558 222.515 286.914zM215.861 240.919c-.084-.081-.282-.275-.16-.653.122-.378.397-.419.517-.436l19.449-2.834c1.596-.235 2.975-1.235 3.688-2.681l8.705-17.63c.053-.105.175-.357.572-.357s.519.251.574.359l8.703 17.628c.713 1.446 2.092 2.446 3.688 2.681l19.449 2.834c.12.017.395.057.517.436s-.077.572-.163.656l-14.069 13.717c-1.154 1.125-1.68 2.748-1.41 4.337l3.322 19.38c.022.117.067.39-.254.625-.326.242-.572.108-.675.05l-17.4-9.155c-1.431-.752-3.135-.752-4.567 0l-17.4 9.155c-.108.055-.349.187-.675-.05-.321-.235-.275-.507-.254-.625l3.322-19.38c.27-1.589-.256-3.212-1.41-4.337L215.861 240.919zM489.591 237.235c-1.237-3.808-4.466-6.532-8.427-7.109l-16.902-2.46-7.561-15.32c-1.774-3.59-5.361-5.821-9.366-5.821h-.002c-4.004.002-7.592 2.233-9.361 5.823l-7.561 15.318-16.902 2.46c-3.961.577-7.19 3.301-8.427 7.109-1.237 3.808-.223 7.91 2.642 10.703l12.223 11.919-2.886 16.84c-.675 3.947.919 7.862 4.16 10.215 3.25 2.358 7.472 2.651 10.998.79l15.117-7.953 15.119 7.953c3.542 1.869 7.757 1.568 10.998-.79 3.241-2.353 4.835-6.268 4.16-10.215l-2.889-16.84 12.223-11.917C489.814 245.146 490.829 241.043 489.591 237.235zM480.104 240.921l-14.069 13.717c-1.154 1.125-1.68 2.748-1.41 4.337l3.322 19.38c.022.117.067.393-.254.625-.323.235-.565.105-.675.05l-17.403-9.157c-1.426-.752-3.133-.749-4.564.002l-17.4 9.155c-.105.055-.347.187-.673-.05-.321-.232-.275-.507-.254-.625l3.32-19.38c.27-1.589-.256-3.212-1.41-4.337l-14.069-13.719c-.084-.081-.282-.278-.16-.656.122-.378.397-.416.515-.433l19.451-2.834c1.596-.235 2.975-1.235 3.688-2.683l8.703-17.628c.053-.105.175-.357.572-.357.4 0 .524.251.574.357l8.7 17.628c.716 1.448 2.094 2.448 3.691 2.683l19.451 2.834c.117.017.393.055.515.433C480.389 240.641 480.19 240.838 480.104 240.921z" fill="#2c2c2c" class="color242c35 svgShape"></path>
    </g>
  </g>
</svg>
