<svg xmlns="http://www.w3.org/2000/svg" xml:space="preserve" viewBox="0 0 512 512" enable-background="new 0 0 512 512" id="11962856">
  <g id="_x34_6_Network" fill="#000000" class="color000000 svgShape">
    <g fill="#000000" class="color000000 svgShape">
      <g fill="#000000" class="color000000 svgShape">
        <path d="M405.319,256.002c0,44.387-19.353,84.277-50.068,111.66
				c-26.439,23.609-61.311,37.943-99.534,37.943c-38.224,0-73.095-14.334-99.534-37.943c-30.715-27.383-50.068-67.273-50.068-111.66
				c0-44.387,19.353-84.277,50.068-111.66c26.439-23.609,61.311-37.943,99.534-37.943c38.224,0,73.095,14.334,99.534,37.943
				C385.966,171.725,405.319,211.616,405.319,256.002z" fill="#d9dee3" class="colord9dde3 svgShape"></path>
      </g>
      <g opacity=".3" fill="#000000" class="color000000 svgShape">
        <g fill="#000000" class="color000000 svgShape">
          <path d="M385.079,180.907c-24.215-16.96-53.674-26.862-85.438-26.862
					c-38.234,0-73.134,14.313-99.555,37.94c-30.734,27.401-50.096,67.252-50.096,111.662c0,27.401,7.353,53.037,20.195,75.095
					c-4.902-3.432-9.558-7.108-14.019-11.078c-30.685-27.401-50.047-67.252-50.047-111.662s19.362-84.261,50.047-111.662
					c26.469-23.627,61.321-37.94,99.555-37.94c38.234,0,73.085,14.313,99.506,37.94
					C366.991,154.879,377.138,167.183,385.079,180.907z" fill="#ffffff" class="colorffffff svgShape"></path>
        </g>
      </g>
      <g fill="#000000" class="color000000 svgShape">
        <path d="M282.208,37.124c0,14.507-11.7,26.208-26.209,26.208s-26.209-11.7-26.209-26.208
				c0-14.509,11.7-26.21,26.209-26.21S282.208,22.615,282.208,37.124z" fill="#707070" class="color576066 svgShape"></path>
      </g>
      <g fill="#000000" class="color000000 svgShape">
        <path d="M229.791,474.881c0-14.507,11.7-26.208,26.209-26.208s26.209,11.7,26.209,26.208
				c0,14.509-11.7,26.21-26.209,26.21S229.791,489.39,229.791,474.881z" fill="#707070" class="color576066 svgShape"></path>
      </g>
      <g fill="#000000" class="color000000 svgShape">
        <path d="M429.302,119.764c-10.258,10.258-26.805,10.258-37.064-0.001S381.98,92.958,392.238,82.7
				c10.26-10.26,26.806-10.26,37.065-0.001S439.562,109.505,429.302,119.764z" fill="#0966c2" class="color5a83fc svgShape"></path>
      </g>
      <g opacity=".3" fill="#000000" class="color000000 svgShape">
        <g fill="#000000" class="color000000 svgShape">
          <path d="M436.792,104.685c-1.079-1.814-2.402-3.53-3.97-5.098c-10.245-10.244-26.813-10.244-37.057,0
					c-4.216,4.265-6.716,9.559-7.451,15.097c-6.078-10.097-4.755-23.283,3.921-32.008c10.245-10.245,26.813-10.245,37.057,0
					C435.322,88.705,437.822,96.892,436.792,104.685z" fill="#ffffff" class="colorffffff svgShape"></path>
        </g>
      </g>
      <g fill="#000000" class="color000000 svgShape">
        <path d="M82.697,392.24c10.258-10.258,26.805-10.258,37.064,0.001
				c10.259,10.259,10.259,26.806,0.001,37.064c-10.26,10.26-26.806,10.26-37.065,0.001S72.438,402.5,82.697,392.24z" fill="#0966c2" class="color5a83fc svgShape"></path>
      </g>
      <g opacity=".3" fill="#000000" class="color000000 svgShape">
        <g fill="#000000" class="color000000 svgShape">
          <path d="M97.689,433.74c1.275,1.225,2.598,2.353,4.019,3.284c-6.862,0.098-13.774-2.451-19.019-7.695
					c-10.244-10.294-10.244-26.812,0-37.106c9.019-9.02,22.891-10.098,33.087-3.284c-6.568,0.098-13.039,2.647-18.087,7.695
					C87.444,406.928,87.444,423.446,97.689,433.74z" fill="#ffffff" class="colorffffff svgShape"></path>
        </g>
      </g>
      <g fill="#000000" class="color000000 svgShape">
        <path d="M474.878,282.211c-14.507,0-26.208-11.7-26.208-26.209c0-14.508,11.7-26.209,26.208-26.209
				c14.509,0,26.21,11.7,26.21,26.209C501.088,270.511,489.387,282.211,474.878,282.211z" fill="#aeaeae" class="colorf66866 svgShape"></path>
      </g>
      <g opacity=".3" fill="#000000" class="color000000 svgShape">
        <g fill="#000000" class="color000000 svgShape">
          <path d="M501.103,256.002c0,3.137-0.539,6.176-1.618,8.97c-3.627-10.097-13.235-17.254-24.607-17.254
					s-20.979,7.156-24.607,17.254c-1.079-2.794-1.618-5.833-1.618-8.97c0-14.509,11.715-26.225,26.224-26.225
					C489.388,229.778,501.103,241.493,501.103,256.002z" fill="#ffffff" class="colorffffff svgShape"></path>
        </g>
      </g>
      <g fill="#000000" class="color000000 svgShape">
        <path d="M37.122,229.794c14.507,0,26.208,11.7,26.208,26.209c0,14.508-11.7,26.209-26.208,26.209
				c-14.509,0-26.21-11.7-26.21-26.209C10.912,241.494,22.612,229.794,37.122,229.794z" fill="#ccdff2" class="colord9f2cc svgShape"></path>
      </g>
      <g opacity=".3" fill="#000000" class="color000000 svgShape">
        <g fill="#000000" class="color000000 svgShape">
          <path d="M63.327,256.002c0,3.088-0.539,6.078-1.569,8.823c-3.578-10.147-13.235-17.401-24.656-17.401
					c-11.421,0-21.077,7.255-24.607,17.401c-1.029-2.745-1.569-5.735-1.569-8.823c0-14.509,11.666-26.225,26.175-26.225
					C51.612,229.778,63.327,241.493,63.327,256.002z" fill="#ffffff" class="colorffffff svgShape"></path>
        </g>
      </g>
      <g fill="#000000" class="color000000 svgShape">
        <path d="M392.238,429.305c-10.258-10.258-10.258-26.805,0.001-37.064
				c10.259-10.259,26.806-10.259,37.064-0.001c10.26,10.26,10.26,26.806,0.001,37.065S402.497,439.565,392.238,429.305z" fill="#ccdff2" class="colord9f2cc svgShape"></path>
      </g>
      <g opacity=".3" fill="#000000" class="color000000 svgShape">
        <g fill="#000000" class="color000000 svgShape">
          <path d="M410.127,429.328c2.794,2.794,6.127,4.853,9.607,6.078c-9.264,3.383-20.048,1.373-27.499-6.078
					c-10.245-10.294-10.245-26.812,0-37.106c7.451-7.451,18.235-9.461,27.499-6.078c-3.48,1.225-6.813,3.284-9.607,6.078
					C399.882,402.516,399.882,419.035,410.127,429.328z" fill="#ffffff" class="colorffffff svgShape"></path>
        </g>
      </g>
      <g fill="#000000" class="color000000 svgShape">
        <path d="M119.762,82.7c10.258,10.258,10.258,26.805-0.001,37.064s-26.806,10.259-37.064,0.001
				c-10.26-10.26-10.26-26.806-0.001-37.065S109.502,72.44,119.762,82.7z" fill="#aeaeae" class="colorf66866 svgShape"></path>
      </g>
      <g opacity=".3" fill="#000000" class="color000000 svgShape">
        <g fill="#000000" class="color000000 svgShape">
          <path d="M100.336,119.782c2.843,2.843,6.176,4.902,9.705,6.127c-9.215,3.333-19.95,1.275-27.352-6.127
					c-10.244-10.294-10.244-26.812,0-37.106c7.402-7.402,18.137-9.461,27.352-6.127c-3.529,1.225-6.862,3.284-9.705,6.127
					C90.091,92.97,90.091,109.489,100.336,119.782z" fill="#ffffff" class="colorffffff svgShape"></path>
        </g>
      </g>
      <path d="M474.877,224.89c-15.384,0-28.16,11.235-30.639,25.926h-34.156
			c-1.266-37.53-16.205-73.292-41.809-100.555l24.033-24.035c12.458,9.21,29.649,7.817,40.46-2.994
			c12.13-12.13,12.13-31.866,0.002-43.996c-12.162-12.162-31.79-12.208-43.999,0c-10.876,10.878-11.966,27.857-3.334,39.998
			l-24.102,24.103c-28.324-26.551-64.091-40.568-100.716-41.725V67.853c14.965-2.243,26.491-15.146,26.491-30.728
			c0-17.156-13.956-31.115-31.11-31.115s-31.11,13.959-31.11,31.115c0,15.386,11.236,28.162,25.926,30.642v33.844
			c-36.729,1.158-72.401,15.116-100.837,41.838l-23.757-23.755c8.995-12.172,8.02-29.446-2.995-40.459
			c-12.186-12.186-31.815-12.186-43.996,0c-12.128,12.125-12.128,31.861,0,43.996c10.753,10.753,27.649,12.12,40,3.334
			l23.816,23.815c-25.665,27.386-40.58,63.323-41.711,101.005H67.849c-2.241-14.969-15.144-26.495-30.727-26.495
			C19.967,224.89,6.01,238.844,6.01,256s13.956,31.115,31.112,31.115c15.383,0,28.157-11.236,30.639-25.926h33.589
			c1.271,37.667,16.316,73.547,42.086,100.846l-23.743,23.745c-12.169-8.998-29.445-8.024-40.463,2.994
			c-12.128,12.135-12.128,31.871,0,43.996c12.136,12.136,31.866,12.13,43.996,0c10.876-10.873,11.966-27.852,3.335-39.996
			l23.828-23.83c28.414,26.485,64.25,40.437,100.991,41.463v33.745c-14.965,2.243-26.491,15.146-26.491,30.728
			c0,17.156,13.956,31.11,31.11,31.11s31.11-13.954,31.11-31.11c0-15.386-11.236-28.162-25.926-30.642v-33.857
			c37.259-1.313,72.743-15.811,100.562-42.101l24.031,24.03c-8.996,12.168-8.021,29.443,2.994,40.46
			c12.123,12.123,31.868,12.13,43.999,0c12.128-12.13,12.128-31.866-0.002-43.996c-10.879-10.879-27.857-11.968-39.998-3.334
			l-24.106-24.104c25.497-27.349,40.306-63.166,41.434-100.716h34.054c2.243,14.967,15.145,26.495,30.726,26.495
			c17.156,0,31.112-13.958,31.112-31.115S492.033,224.89,474.877,224.89z M37.123,277.311c-11.749,0-21.309-9.559-21.309-21.311
			c0-11.747,9.559-21.306,21.309-21.306c11.747,0,21.304,9.559,21.304,21.306C58.427,267.752,48.87,277.311,37.123,277.311z
			 M355.09,361.086c-11.373-9.575-23.955-17.401-37.371-23.284c6.437-22.304,10.259-48.525,10.657-76.896h71.91
			C398.992,298.889,382.736,334.933,355.09,361.086z M285.379,397.51c11.839-10.963,21.935-28.36,29.37-50.251
			c11.772,5.266,22.879,12.07,32.963,20.393C329.592,382.668,308.788,392.614,285.379,397.51z M163.72,367.651
			c10.084-8.323,21.192-15.127,32.964-20.393c7.435,21.892,17.531,39.289,29.37,50.251
			C201.803,392.437,180.982,381.911,163.72,367.651z M111.146,260.907h71.91c0.398,28.371,4.22,54.591,10.657,76.896
			c-13.417,5.882-25.999,13.71-37.373,23.285C130.334,336.477,112.505,300.784,111.146,260.907z M156.342,150.919
			c11.373,9.575,23.955,17.402,37.372,23.285c-6.438,22.306-10.26,48.527-10.658,76.9h-71.91
			C112.42,213.672,128.234,177.52,156.342,150.919z M226.056,114.495c-11.84,10.963-21.936,28.36-29.371,50.252
			c-11.772-5.266-22.88-12.07-32.964-20.393C181.258,129.82,202.378,119.452,226.056,114.495z M347.713,144.353
			c-10.084,8.324-21.192,15.127-32.965,20.393c-7.435-21.892-17.531-39.289-29.37-50.252
			C309.736,119.595,330.532,130.161,347.713,144.353z M400.286,251.103h-71.91c-0.398-28.373-4.22-54.594-10.658-76.9
			c13.417-5.883,26-13.711,37.374-23.286C382.738,177.073,398.994,213.117,400.286,251.103z M250.816,111.807v65.366
			c-15.425-0.522-30.537-3.394-44.807-8.615C216.668,136.868,232.813,115.179,250.816,111.807z M250.816,187.076v64.027H192.86
			c0.41-26.68,4.136-51.787,10.244-73.173C218.311,183.439,234.393,186.557,250.816,187.076z M250.816,260.907v64.022
			c-16.423,0.519-32.505,3.637-47.712,9.147c-6.108-21.385-9.834-46.49-10.244-73.169H250.816z M250.816,334.831v65.366
			c-18.003-3.371-34.148-25.061-44.807-56.751C220.279,338.225,235.391,335.353,250.816,334.831z M260.619,400.197v-65.366
			c15.425,0.522,30.536,3.394,44.805,8.615C294.766,375.136,278.622,396.826,260.619,400.197z M260.619,324.929v-64.022h57.953
			c-0.41,26.678-4.136,51.783-10.243,73.169C293.122,328.566,277.041,325.447,260.619,324.929z M260.619,251.103v-64.027
			c16.422-0.519,32.503-3.637,47.71-9.147c6.107,21.387,9.834,46.493,10.244,73.173H260.619z M260.619,177.173v-65.366
			c18.003,3.371,34.147,25.06,44.805,56.751C291.156,173.779,276.044,176.652,260.619,177.173z M395.702,86.167
			c8.361-8.356,21.78-8.351,30.136,0c8.305,8.305,8.305,21.823-0.002,30.133c-8.31,8.305-21.826,8.31-30.131,0
			C387.397,107.99,387.397,94.472,395.702,86.167z M234.694,37.125c0-11.752,9.557-21.311,21.306-21.311
			c11.749,0,21.306,9.559,21.306,21.311c0,11.747-9.557,21.306-21.306,21.306C244.251,58.431,234.694,48.872,234.694,37.125z
			 M86.162,116.3c-8.305-8.31-8.305-21.828,0-30.133c8.343-8.348,21.778-8.36,30.133,0c8.305,8.305,8.305,21.823,0,30.133
			C107.988,124.61,94.474,124.61,86.162,116.3z M116.295,425.838c-8.31,8.31-21.823,8.31-30.133,0
			c-8.305-8.305-8.305-21.823,0-30.133c8.305-8.31,21.819-8.315,30.133,0C124.6,404.015,124.6,417.533,116.295,425.838z
			 M277.306,474.88c0,11.747-9.557,21.306-21.306,21.306c-11.749,0-21.306-9.559-21.306-21.306s9.557-21.306,21.306-21.306
			C267.749,453.573,277.306,463.133,277.306,474.88z M425.836,395.705c8.308,8.31,8.308,21.828,0.002,30.133
			c-8.31,8.296-21.826,8.3-30.136,0c-8.305-8.305-8.305-21.823,0.002-30.133C404.012,387.395,417.528,387.39,425.836,395.705z
			 M474.877,277.311c-11.747,0-21.304-9.559-21.304-21.311c0-11.747,9.557-21.306,21.304-21.306
			c11.749,0,21.309,9.559,21.309,21.306C496.186,267.752,486.627,277.311,474.877,277.311z" fill="#2c2c2c" class="color242c35 svgShape"></path>
    </g>
  </g>
</svg>
