<svg xmlns="http://www.w3.org/2000/svg" xml:space="preserve" viewBox="0 0 512 512" enable-background="new 0 0 512 512" id="11962837">
  <g id="_x32_7_Office_Location" fill="#000000" class="color000000 svgShape">
    <g fill="#000000" class="color000000 svgShape">
      <g fill="#000000" class="color000000 svgShape">
        <path d="M423.975,135.699H275v42.272h148.975c6.464,0,11.704-5.24,11.704-11.704v-18.863
				C435.68,140.939,430.439,135.699,423.975,135.699z" fill="#aeaeae" class="colorf66866 svgShape"></path>
      </g>
      <g fill="#000000" class="color000000 svgShape">
        <rect width="240.451" height="336.511" x="34.549" y="108.881" fill="#ffffff" class="colorffffff svgShape"></rect>
      </g>
      <g fill="#000000" class="color000000 svgShape">
        <path d="M209.546,348.423v96.968H100.002v-96.968c0-9.79,7.937-17.727,17.727-17.727h74.09
				C201.61,330.696,209.546,338.633,209.546,348.423z" fill="#0966c2" class="color5a83fc svgShape"></path>
      </g>
      <g opacity=".3" fill="#000000" class="color000000 svgShape">
        <g fill="#000000" class="color000000 svgShape">
          <path d="M209.533,348.425v10.322c-5.182-2.591-11.044-4.078-17.246-4.078h-32.75
					c-21.196,0-38.399,17.161-38.399,38.399v52.331H99.985v-96.974c0-9.812,7.943-17.713,17.755-17.713h74.079
					C201.589,330.712,209.533,338.613,209.533,348.425z" fill="#ffffff" class="colorffffff svgShape"></path>
        </g>
      </g>
      <g fill="#000000" class="color000000 svgShape">
        <path d="M286.932,66.609H22.617c-6.464,0-11.704,5.24-11.704,11.704v18.863
				c0,6.464,5.24,11.704,11.704,11.704h264.315c6.464,0,11.704-5.24,11.704-11.704V78.313
				C298.636,71.849,293.396,66.609,286.932,66.609z" fill="#aeaeae" class="colorf66866 svgShape"></path>
      </g>
      <g opacity=".3" fill="#000000" class="color000000 svgShape">
        <g fill="#000000" class="color000000 svgShape">
          <path d="M435.678,147.382v9.472h-94.978c-14.017,0-25.953,8.75-30.668,21.111h-35.043v-42.264h148.966
					C430.454,135.701,435.678,140.926,435.678,147.382z" fill="#ffffff" class="colorffffff svgShape"></path>
        </g>
      </g>
      <g opacity=".3" fill="#000000" class="color000000 svgShape">
        <g fill="#000000" class="color000000 svgShape">
          <path d="M298.649,78.315v9.43H64.942c-11.681,0-21.153,9.472-21.153,21.153H22.635
					c-6.499,0-11.724-5.267-11.724-11.724v-18.86c0-6.457,5.225-11.724,11.724-11.724h264.29
					C293.382,66.592,298.649,71.859,298.649,78.315z" fill="#ffffff" class="colorffffff svgShape"></path>
        </g>
      </g>
      <g fill="#000000" class="color000000 svgShape">
        <path d="M106.536,153.568v36.778c0,5.601-4.541,10.142-10.142,10.142H70.315
				c-5.601,0-10.142-4.541-10.142-10.142v-36.778c0-5.601,4.541-10.142,10.142-10.142h26.079
				C101.996,143.426,106.536,147.966,106.536,153.568z" fill="#ccdff2" class="colord9f2cc svgShape"></path>
      </g>
      <g fill="#000000" class="color000000 svgShape">
        <path d="M177.956,153.568v36.778c0,5.601-4.541,10.142-10.142,10.142h-26.079
				c-5.601,0-10.142-4.541-10.142-10.142v-36.778c0-5.601,4.541-10.142,10.142-10.142h26.079
				C173.415,143.426,177.956,147.966,177.956,153.568z" fill="#ccdff2" class="colord9f2cc svgShape"></path>
      </g>
      <g fill="#000000" class="color000000 svgShape">
        <path d="M249.375,153.568v36.778c0,5.601-4.541,10.142-10.142,10.142h-26.079
				c-5.601,0-10.142-4.541-10.142-10.142v-36.778c0-5.601,4.541-10.142,10.142-10.142h26.079
				C244.834,143.426,249.375,147.966,249.375,153.568z" fill="#ccdff2" class="colord9f2cc svgShape"></path>
      </g>
      <g fill="#000000" class="color000000 svgShape">
        <path d="M106.536,249.231v36.778c0,5.601-4.541,10.142-10.142,10.142H70.315
				c-5.601,0-10.142-4.541-10.142-10.142v-36.778c0-5.601,4.541-10.142,10.142-10.142h26.079
				C101.996,239.089,106.536,243.629,106.536,249.231z" fill="#ccdff2" class="colord9f2cc svgShape"></path>
      </g>
      <g fill="#000000" class="color000000 svgShape">
        <path d="M177.956,249.231v36.778c0,5.601-4.541,10.142-10.142,10.142h-26.079
				c-5.601,0-10.142-4.541-10.142-10.142v-36.778c0-5.601,4.541-10.142,10.142-10.142h26.079
				C173.415,239.089,177.956,243.629,177.956,249.231z" fill="#ccdff2" class="colord9f2cc svgShape"></path>
      </g>
      <g fill="#000000" class="color000000 svgShape">
        <path d="M249.375,249.231v36.778c0,5.601-4.541,10.142-10.142,10.142h-26.079
				c-5.601,0-10.142-4.541-10.142-10.142v-36.778c0-5.601,4.541-10.142,10.142-10.142h26.079
				C244.834,239.089,249.375,243.629,249.375,249.231z" fill="#ccdff2" class="colord9f2cc svgShape"></path>
      </g>
      <g opacity=".3" fill="#000000" class="color000000 svgShape">
        <path d="M106.527,153.584v7.773c-2.761-1.147-5.777-1.784-8.92-1.784c-12.785,0-23.15,10.407-23.15,23.192
				v10.704c0,2.421,0.382,4.8,1.104,7.009h-5.225c-5.607,0-10.152-4.545-10.152-10.152v-36.742c0-5.607,4.545-10.152,10.152-10.152
				h26.038C101.982,143.432,106.527,147.977,106.527,153.584z" fill="#ffffff" class="colorffffff svgShape"></path>
      </g>
      <g opacity=".3" fill="#000000" class="color000000 svgShape">
        <path d="M177.972,153.584v7.773c-2.761-1.147-5.777-1.784-8.92-1.784
				c-12.828,0-23.192,10.407-23.192,23.192v10.704c0,2.421,0.382,4.8,1.104,7.009h-5.225c-5.607,0-10.152-4.545-10.152-10.152
				v-36.742c0-5.607,4.545-10.152,10.152-10.152h26.081C173.427,143.432,177.972,147.977,177.972,153.584z" fill="#ffffff" class="colorffffff svgShape"></path>
      </g>
      <g opacity=".3" fill="#000000" class="color000000 svgShape">
        <path d="M249.376,153.584v7.773c-2.761-1.147-5.777-1.784-8.92-1.784
				c-12.785,0-23.192,10.407-23.192,23.192v10.704c0,2.421,0.382,4.8,1.104,7.009h-5.225c-5.607,0-10.152-4.545-10.152-10.152
				v-36.742c0-5.607,4.545-10.152,10.152-10.152h26.081C244.831,143.432,249.376,147.977,249.376,153.584z" fill="#ffffff" class="colorffffff svgShape"></path>
      </g>
      <g opacity=".3" fill="#000000" class="color000000 svgShape">
        <path d="M106.527,249.241v7.773c-2.761-1.147-5.777-1.784-8.92-1.784c-12.785,0-23.15,10.407-23.15,23.192
				v10.704c0,2.421,0.382,4.8,1.104,7.009h-5.225c-5.607,0-10.152-4.545-10.152-10.109v-36.785c0-5.607,4.545-10.152,10.152-10.152
				h26.038C101.982,239.09,106.527,243.634,106.527,249.241z" fill="#ffffff" class="colorffffff svgShape"></path>
      </g>
      <g opacity=".3" fill="#000000" class="color000000 svgShape">
        <path d="M177.972,249.241v7.773c-2.761-1.147-5.777-1.784-8.92-1.784
				c-12.828,0-23.192,10.407-23.192,23.192v10.704c0,2.421,0.382,4.8,1.104,7.009h-5.225c-5.607,0-10.152-4.545-10.152-10.109
				v-36.785c0-5.607,4.545-10.152,10.152-10.152h26.081C173.427,239.09,177.972,243.634,177.972,249.241z" fill="#ffffff" class="colorffffff svgShape"></path>
      </g>
      <g opacity=".3" fill="#000000" class="color000000 svgShape">
        <path d="M249.376,249.241v7.773c-2.761-1.147-5.777-1.784-8.92-1.784
				c-12.785,0-23.192,10.407-23.192,23.192v10.704c0,2.421,0.382,4.8,1.104,7.009h-5.225c-5.607,0-10.152-4.545-10.152-10.109
				v-36.785c0-5.607,4.545-10.152,10.152-10.152h26.081C244.831,239.09,249.376,243.634,249.376,249.241z" fill="#ffffff" class="colorffffff svgShape"></path>
      </g>
      <g fill="#000000" class="color000000 svgShape">
        <rect width="138.332" height="267.421" x="275" y="177.971" fill="#ffffff" class="colorffffff svgShape"></rect>
      </g>
      <g fill="#000000" class="color000000 svgShape">
        <path d="M333.175,219.822v32.264c0,4.914-3.983,8.897-8.897,8.897h-22.878
				c-4.914,0-8.897-3.983-8.897-8.897v-32.264c0-4.914,3.983-8.897,8.897-8.897h22.878
				C329.192,210.925,333.175,214.908,333.175,219.822z" fill="#ccdff2" class="colord9f2cc svgShape"></path>
      </g>
      <g fill="#000000" class="color000000 svgShape">
        <path d="M395.828,219.822v32.264c0,4.914-3.983,8.897-8.897,8.897h-22.878
				c-4.914,0-8.897-3.983-8.897-8.897v-32.264c0-4.914,3.983-8.897,8.897-8.897h22.878
				C391.844,210.925,395.828,214.908,395.828,219.822z" fill="#ccdff2" class="colord9f2cc svgShape"></path>
      </g>
      <g fill="#000000" class="color000000 svgShape">
        <path d="M333.175,295.549v32.264c0,4.914-3.983,8.897-8.897,8.897h-22.878
				c-4.914,0-8.897-3.983-8.897-8.897v-32.264c0-4.914,3.983-8.897,8.897-8.897h22.878
				C329.192,286.652,333.175,290.636,333.175,295.549z" fill="#ccdff2" class="colord9f2cc svgShape"></path>
      </g>
      <g fill="#000000" class="color000000 svgShape">
        <path d="M395.828,295.549v32.264c0,4.914-3.983,8.897-8.897,8.897h-22.878
				c-4.914,0-8.897-3.983-8.897-8.897v-32.264c0-4.914,3.983-8.897,8.897-8.897h22.878
				C391.844,286.652,395.828,290.636,395.828,295.549z" fill="#ccdff2" class="colord9f2cc svgShape"></path>
      </g>
      <g fill="#000000" class="color000000 svgShape">
        <path d="M333.175,371.277v32.264c0,4.914-3.983,8.897-8.897,8.897h-22.878
				c-4.914,0-8.897-3.983-8.897-8.897v-32.264c0-4.914,3.983-8.897,8.897-8.897h22.878
				C329.192,362.38,333.175,366.363,333.175,371.277z" fill="#ccdff2" class="colord9f2cc svgShape"></path>
      </g>
      <g fill="#000000" class="color000000 svgShape">
        <path d="M395.828,371.277v32.264c0,4.914-3.983,8.897-8.897,8.897h-22.878
				c-4.914,0-8.897-3.983-8.897-8.897v-32.264c0-4.914,3.983-8.897,8.897-8.897h22.878
				C391.844,362.38,395.828,366.363,395.828,371.277z" fill="#ccdff2" class="colord9f2cc svgShape"></path>
      </g>
      <g opacity=".3" fill="#000000" class="color000000 svgShape">
        <path d="M333.182,219.805v4.63c-1.784-0.51-3.653-0.765-5.607-0.765c-11.214,0-20.346,9.09-20.346,20.346
				v9.387c0,2.676,0.51,5.225,1.487,7.561h-7.306c-4.927,0-8.92-3.95-8.92-8.877v-32.282c0-4.885,3.993-8.877,8.92-8.877h22.852
				C329.189,210.928,333.182,214.92,333.182,219.805z" fill="#ffffff" class="colorffffff svgShape"></path>
      </g>
      <g opacity=".3" fill="#000000" class="color000000 svgShape">
        <path d="M395.835,219.805v4.673c-1.784-0.552-3.653-0.807-5.607-0.807
				c-11.214,0-20.346,9.09-20.346,20.346v9.387c0,2.676,0.51,5.225,1.487,7.561h-7.306c-4.927,0-8.92-3.95-8.92-8.877v-32.282
				c0-4.885,3.993-8.877,8.92-8.877h22.852C391.842,210.928,395.835,214.92,395.835,219.805z" fill="#ffffff" class="colorffffff svgShape"></path>
      </g>
      <g opacity=".3" fill="#000000" class="color000000 svgShape">
        <path d="M333.182,295.541v4.672c-1.784-0.552-3.653-0.807-5.607-0.807
				c-11.214,0-20.346,9.09-20.346,20.304v9.387c0,2.676,0.51,5.267,1.487,7.603h-7.306c-4.927,0-8.92-3.993-8.92-8.878v-32.282
				c0-4.885,3.993-8.878,8.92-8.878h22.852C329.189,286.663,333.182,290.656,333.182,295.541z" fill="#ffffff" class="colorffffff svgShape"></path>
      </g>
      <g fill="#000000" class="color000000 svgShape">
        <path d="M395.835,295.541v4.672c-1.784-0.552-3.653-0.807-5.607-0.807
				c-11.214,0-20.346,9.09-20.346,20.304v9.387c0,2.676,0.51,5.267,1.487,7.603h-7.306c-4.927,0-8.92-3.993-8.92-8.878v-32.282
				c0-4.885,3.993-8.878,8.92-8.878h22.852C391.842,286.663,395.835,290.656,395.835,295.541z" fill="#ffffff" class="colorffffff svgShape"></path>
      </g>
      <g opacity=".3" fill="#000000" class="color000000 svgShape">
        <path d="M333.182,371.277v4.63c-1.784-0.51-3.653-0.765-5.607-0.765c-11.214,0-20.346,9.09-20.346,20.304
				v9.387c0,2.676,0.51,5.267,1.487,7.603h-7.306c-4.927,0-8.92-3.993-8.92-8.878v-32.282c0-4.927,3.993-8.878,8.92-8.878h22.852
				C329.189,362.399,333.182,366.35,333.182,371.277z" fill="#ffffff" class="colorffffff svgShape"></path>
      </g>
      <g fill="#000000" class="color000000 svgShape">
        <path d="M395.835,371.277v4.672c-1.784-0.552-3.653-0.807-5.607-0.807
				c-11.214,0-20.346,9.09-20.346,20.304v9.387c0,2.676,0.51,5.267,1.487,7.603h-7.306c-4.927,0-8.92-3.993-8.92-8.878v-32.282
				c0-4.927,3.993-8.878,8.92-8.878h22.852C391.842,362.399,395.835,366.35,395.835,371.277z" fill="#ffffff" class="colorffffff svgShape"></path>
      </g>
      <g fill="#000000" class="color000000 svgShape">
        <path d="M432.377,439.657c-5.077,6.128-14.452,6.127-19.528-0.002
				c-21.022-25.382-68.684-86.645-68.684-120.36c0-43.271,35.191-78.475,78.447-78.475c43.271,0,78.475,35.204,78.475,78.475
				C501.087,353.011,453.406,414.276,432.377,439.657z" fill="#707070" class="color576066 svgShape"></path>
      </g>
      <g fill="#000000" class="color000000 svgShape">
        <path d="M464.766,319.292c0,23.269-18.859,42.128-42.152,42.128c-23.268,0-42.127-18.859-42.127-42.128
				c0-23.293,18.859-42.152,42.127-42.152C445.907,277.139,464.766,295.998,464.766,319.292z" fill="#ffffff" class="colorffffff svgShape"></path>
      </g>
      <path d="M70.316 205.391h26.079c8.296 0 15.043-6.749 15.043-15.045v-36.778c0-8.296-6.747-15.045-15.043-15.045H70.316c-8.296 0-15.045 6.749-15.045 15.045v36.778C55.271 198.641 62.02 205.391 70.316 205.391zM65.074 153.568c0-2.891 2.35-5.242 5.242-5.242h26.079c2.889 0 5.239 2.35 5.239 5.242v36.778c0 2.891-2.35 5.242-5.239 5.242H70.316c-2.891 0-5.242-2.35-5.242-5.242V153.568zM141.734 205.391h26.081c8.296 0 15.043-6.749 15.043-15.045v-36.778c0-8.296-6.747-15.045-15.043-15.045h-26.081c-8.296 0-15.043 6.749-15.043 15.045v36.778C126.691 198.641 133.438 205.391 141.734 205.391zM136.495 153.568c0-2.891 2.35-5.242 5.239-5.242h26.081c2.889 0 5.239 2.35 5.239 5.242v36.778c0 2.891-2.35 5.242-5.239 5.242h-26.081c-2.889 0-5.239-2.35-5.239-5.242V153.568zM213.154 205.391h26.079c8.296 0 15.045-6.749 15.045-15.045v-36.778c0-8.296-6.749-15.045-15.045-15.045h-26.079c-8.296 0-15.043 6.749-15.043 15.045v36.778C198.111 198.641 204.858 205.391 213.154 205.391zM207.915 153.568c0-2.891 2.35-5.242 5.239-5.242h26.079c2.891 0 5.242 2.35 5.242 5.242v36.778c0 2.891-2.35 5.242-5.242 5.242h-26.079c-2.889 0-5.239-2.35-5.239-5.242V153.568zM96.395 301.052c8.296 0 15.043-6.745 15.043-15.04v-36.782c0-8.296-6.747-15.04-15.043-15.04H70.316c-8.296 0-15.045 6.745-15.045 15.04v36.782c0 8.296 6.749 15.04 15.045 15.04H96.395zM65.074 286.011v-36.782c0-2.886 2.35-5.237 5.242-5.237h26.079c2.889 0 5.239 2.35 5.239 5.237v36.782c0 2.886-2.35 5.237-5.239 5.237H70.316C67.425 291.248 65.074 288.898 65.074 286.011zM141.734 301.052h26.081c8.296 0 15.043-6.745 15.043-15.04v-36.782c0-8.296-6.747-15.04-15.043-15.04h-26.081c-8.296 0-15.043 6.745-15.043 15.04v36.782C126.691 294.307 133.438 301.052 141.734 301.052zM136.495 249.229c0-2.886 2.35-5.237 5.239-5.237h26.081c2.889 0 5.239 2.35 5.239 5.237v36.782c0 2.886-2.35 5.237-5.239 5.237h-26.081c-2.889 0-5.239-2.35-5.239-5.237V249.229zM213.154 301.052h26.079c8.296 0 15.045-6.745 15.045-15.04v-36.782c0-8.296-6.749-15.04-15.045-15.04h-26.079c-8.296 0-15.043 6.745-15.043 15.04v36.782C198.111 294.307 204.858 301.052 213.154 301.052zM207.915 249.229c0-2.886 2.35-5.237 5.239-5.237h26.079c2.891 0 5.242 2.35 5.242 5.237v36.782c0 2.886-2.35 5.237-5.242 5.237h-26.079c-2.889 0-5.239-2.35-5.239-5.237V249.229zM324.279 206.023H301.4c-7.609 0-13.798 6.189-13.798 13.801v32.264c0 7.606 6.189 13.796 13.798 13.796h22.879c7.609 0 13.798-6.189 13.798-13.796v-32.264C338.077 212.212 331.887 206.023 324.279 206.023zM328.273 252.087c0 2.202-1.793 3.992-3.995 3.992H301.4c-2.202 0-3.995-1.79-3.995-3.992v-32.264c0-2.202 1.793-3.997 3.995-3.997h22.879c2.202 0 3.995 1.795 3.995 3.997V252.087zM324.279 281.751H301.4c-7.609 0-13.798 6.189-13.798 13.801v32.263c0 7.606 6.189 13.796 13.798 13.796h22.879c7.609 0 13.798-6.189 13.798-13.796v-32.263C338.077 287.94 331.887 281.751 324.279 281.751zM328.273 327.815c0 2.202-1.793 3.992-3.995 3.992H301.4c-2.202 0-3.995-1.79-3.995-3.992v-32.263c0-2.202 1.793-3.997 3.995-3.997h22.879c2.202 0 3.995 1.795 3.995 3.997V327.815zM324.279 357.479H301.4c-7.609 0-13.798 6.189-13.798 13.796v32.264c0 7.611 6.189 13.801 13.798 13.801h22.879c7.609 0 13.798-6.189 13.798-13.801v-32.264C338.077 363.669 331.887 357.479 324.279 357.479zM328.273 403.539c0 2.202-1.793 3.997-3.995 3.997H301.4c-2.202 0-3.995-1.795-3.995-3.997v-32.264c0-2.202 1.793-3.992 3.995-3.992h22.879c2.202 0 3.995 1.79 3.995 3.992V403.539z" fill="#2c2c2c" class="color242c35 svgShape"></path>
      <path d="M422.613,235.917c-1.479,0-2.92,0.145-4.38,0.222v-53.265h5.742
			c9.157,0,16.606-7.448,16.606-16.606v-18.865c0-9.157-7.448-16.606-16.606-16.606H279.902v-17.013h7.03
			c9.157,0,16.606-7.453,16.606-16.61v-18.86c0-9.157-7.448-16.606-16.606-16.606H22.617c-9.157,0-16.606,7.448-16.606,16.606v18.86
			c0,9.157,7.448,16.61,16.606,16.61h7.03v326.704H12.201c-2.707,0-4.902,2.192-4.902,4.902s2.195,4.902,4.902,4.902
			c203.022,0,305,0,423.478,0c2.707,0,4.902-2.192,4.902-4.902c0-1.996-1.201-3.695-2.91-4.46
			c26.221-31.842,68.318-88.161,68.318-121.635C505.988,273.321,468.586,235.917,422.613,235.917z M423.975,140.6
			c3.751,0,6.802,3.049,6.802,6.802v18.865c0,3.753-3.052,6.802-6.802,6.802c-41.907,0-78.97,0-144.073,0V140.6H423.975z
			 M15.815,97.174v-18.86c0-3.753,3.052-6.802,6.802-6.802h264.314c3.751,0,6.802,3.049,6.802,6.802v18.86
			c0,3.753-3.052,6.807-6.802,6.807c-53.035,0-211.672,0-264.314,0C18.867,103.981,15.815,100.927,15.815,97.174z M39.45,113.784
			h230.648c0,63.389,0,165.498,0,326.704h-55.65v-92.066c0-12.475-10.151-22.628-22.63-22.628H117.73
			c-12.477,0-22.63,10.153-22.63,22.628v92.066H39.45V113.784z M104.904,440.488v-92.066c0-7.07,5.754-12.824,12.826-12.824h74.089
			c7.073,0,12.826,5.754,12.826,12.824v92.066H104.904z M279.902,182.873H408.43v54.343c-2.612,0.451-5.176,1.025-7.7,1.714v-19.107
			c0-7.611-6.189-13.801-13.798-13.801h-22.879c-7.609,0-13.798,6.189-13.798,13.801v32.264c0,5.988,3.86,11.047,9.205,12.95
			c-12.552,14.599-20.195,33.537-20.195,54.258c0,12.212,5.656,27.485,14.048,43.488c-1.869,2.349-3.057,5.263-3.057,8.493v32.264
			c0,7.611,6.189,13.801,13.798,13.801h22.879c0.646,0,1.277-0.058,1.899-0.144c6.469,8.572,12.755,16.468,18.366,23.294H279.902
			V182.873z M368.418,256.079h-4.365c-2.202,0-3.995-1.79-3.995-3.992v-32.264c0-2.202,1.793-3.997,3.995-3.997h22.879
			c2.202,0,3.995,1.795,3.995,3.997v22.39C382.667,245.624,375.098,250.34,368.418,256.079z M360.058,374.876
			c6.545,11.053,14.031,22.176,21.619,32.659h-17.624c-2.202,0-3.995-1.795-3.995-3.997V374.876z M428.604,436.53
			c-3.118,3.756-8.861,3.762-11.979,0c-42.302-51.066-67.557-94.895-67.557-117.235c0-40.569,32.993-73.574,73.546-73.574
			c40.569,0,73.572,33.005,73.572,73.574C496.185,341.63,470.92,385.454,428.604,436.53z" fill="#2c2c2c" class="color242c35 svgShape"></path>
      <path d="M422.613,272.239c-25.93,0-47.029,21.105-47.029,47.05c0,25.935,21.098,47.031,47.029,47.031
			c25.947,0,47.055-21.096,47.055-47.031C469.668,293.345,448.56,272.239,422.613,272.239z M422.613,356.517
			c-20.526,0-37.225-16.701-37.225-37.227c0-20.536,16.699-37.247,37.225-37.247c20.54,0,37.251,16.711,37.251,37.247
			C459.865,339.816,443.154,356.517,422.613,356.517z" fill="#2c2c2c" class="color242c35 svgShape"></path>
    </g>
  </g>
</svg>
