<svg xmlns="http://www.w3.org/2000/svg" enable-background="new 0 0 512 512" viewBox="0 0 512 512" id="6622000">
  <rect width="111.898" height="170.66" x="186.116" y="43.597" fill="#0966c2" class="colorcfcfd1 svgShape"></rect>
  <path fill="#818181" d="M391.094,454.105v-49.117c0-69.296-56.176-125.472-125.472-125.472h-19.245
			c-69.296,0-125.471,56.175-125.471,125.471v49.118c0,24.346,19.736,44.081,44.081,44.081h182.025
			C371.358,498.187,391.094,478.451,391.094,454.105z" class="colorfdce06 svgShape"></path>
  <path fill="#ffffff" d="M240.938,340.482l-11.348,81.131c-0.66,4.72,0.933,9.477,4.303,12.847l11.397,11.398
			c5.933,5.933,15.552,5.933,21.485,0l11.332-11.332c3.371-3.371,4.964-8.13,4.303-12.851l-11.381-81.197
			c-1.052-7.502-7.469-13.083-15.045-13.083h0C248.406,327.395,241.988,332.978,240.938,340.482z" class="colorffffff svgShape"></path>
  <polygon fill="#ffffff" points="325.884 43.597 325.884 214.257 242.065 244.031 242.065 13.823" class="colorffffff svgShape"></polygon>
  <path fill="#707070" d="M113.095,404.988v49.117c0,28.617,23.281,51.894,51.894,51.894h182.022
			c28.613,0,51.894-23.277,51.894-51.894v-49.117c0-73.492-59.79-133.283-133.283-133.283h-19.245
			C172.885,271.706,113.095,331.496,113.095,404.988z M246.378,287.33h19.245c64.875,0,117.658,52.779,117.658,117.658v49.117
			c0,19.996-16.269,36.269-36.269,36.269H164.989c-20,0-36.269-16.273-36.269-36.269v-49.117
			C128.72,340.109,181.503,287.33,246.378,287.33z" class="color3e3e3e svgShape"></path>
  <path fill="#707070" d="M239.763 451.381c8.928 8.936 23.514 9.037 32.535 0l11.333-11.329c5.073-5.073 7.511-12.352 6.515-19.462l-11.383-81.198c-1.579-11.291-11.371-19.813-22.781-19.813s-21.202 8.522-22.781 19.821l-11.348 81.129c-.992 7.103 1.442 14.373 6.515 19.454L239.763 451.381zM248.674 341.566c.507-3.632 3.651-6.363 7.309-6.363s6.801 2.731 7.309 6.355l11.383 81.198c.317 2.281-.462 4.623-2.09 6.248l-11.337 11.329c-2.785 2.792-7.641 2.792-10.433 0l-11.394-11.398c-1.629-1.625-2.411-3.96-2.094-6.241L248.674 341.566zM244.684 251.397l83.818-29.777c3.113-1.106 5.195-4.059 5.195-7.362V43.599c0-3.303-2.083-6.256-5.195-7.362L244.684 6.46c-5.055-1.809-10.429 1.946-10.429 7.362v21.965h-48.14c-4.314 0-7.812 3.494-7.812 7.812v170.658c0 4.318 3.498 7.812 7.812 7.812h48.14v21.965C234.255 249.486 239.673 253.194 244.684 251.397zM249.879 24.885l68.194 24.23v159.626l-68.194 24.23V24.885zM193.927 206.445V51.412h40.328v155.033H193.927z" class="color3e3e3e svgShape"></path>
  <path fill="#707070" d="M274.907,114.536c-4.314,0-7.812,3.494-7.812,7.812v13.153c0,4.318,3.498,7.812,7.812,7.812
			c4.314,0,7.812-3.494,7.812-7.812v-13.153C282.719,118.03,279.221,114.536,274.907,114.536z" class="color3e3e3e svgShape"></path>
</svg>
