<svg xmlns="http://www.w3.org/2000/svg" xml:space="preserve" viewBox="0 0 512 512" enable-background="new 0 0 512 512" id="11962847">
  <g id="_x33_7_Options" fill="#000000" class="color000000 svgShape">
    <g fill="#000000" class="color000000 svgShape">
      <g fill="#000000" class="color000000 svgShape">
        <path d="M501.088,357.77L501.088,357.77c0,12.061-9.777,21.837-21.837,21.837H32.75
				c-12.06,0-21.837-9.777-21.837-21.837v0c0-12.06,9.777-21.837,21.837-21.837h446.501
				C491.311,335.932,501.088,345.709,501.088,357.77z" fill="#aeaeae" class="colorf66866 svgShape"></path>
      </g>
      <g fill="#000000" class="color000000 svgShape">
        <path d="M501.088,458.592L501.088,458.592c0,12.061-9.777,21.837-21.837,21.837H32.75
				c-12.06,0-21.837-9.777-21.837-21.837v0c0-12.06,9.777-21.837,21.837-21.837h446.501
				C491.311,436.754,501.088,446.531,501.088,458.592z" fill="#ccdff2" class="colord9f2cc svgShape"></path>
      </g>
      <g opacity=".3" fill="#000000" class="color000000 svgShape">
        <g fill="#000000" class="color000000 svgShape">
          <path d="M501.039,356.169c-1.324-0.245-2.745-0.392-4.166-0.392H50.421
					c-6.078,0-11.519,2.451-15.489,6.421c-3.922,3.971-6.373,9.412-6.373,15.441c0,0.539,0,1.029,0.049,1.569
					c-10.098-1.961-17.695-10.784-17.695-21.421c0-6.029,2.451-11.519,6.372-15.441c3.97-3.97,9.411-6.421,15.49-6.421h446.452
					C490.795,335.925,500.206,344.846,501.039,356.169z" fill="#ffffff" class="colorffffff svgShape"></path>
        </g>
      </g>
      <g opacity=".3" fill="#000000" class="color000000 svgShape">
        <g fill="#000000" class="color000000 svgShape">
          <path d="M501.039,456.999c-1.324-0.245-2.745-0.392-4.166-0.392H50.421
					c-6.078,0-11.519,2.451-15.489,6.372c-3.922,3.97-6.373,9.411-6.373,15.44c0,0.539,0,1.079,0.049,1.618
					c-10.098-1.961-17.695-10.784-17.695-21.421c0-6.078,2.451-11.519,6.372-15.49c3.97-3.921,9.411-6.372,15.49-6.372h446.452
					C490.795,436.754,500.206,445.676,501.039,456.999z" fill="#ffffff" class="colorffffff svgShape"></path>
        </g>
      </g>
      <g fill="#000000" class="color000000 svgShape">
        <path d="M378.034,194.894c-2.486,8.766-6.018,17.205-10.336,25.056l17.925,17.925l-50.765,50.7
				l-17.925-17.925c-7.85,4.383-16.224,7.85-24.99,10.401v25.317h-71.765v-25.317c-8.766-2.551-17.14-6.018-25.055-10.336
				l-17.86,17.859l-50.765-50.7l17.925-17.925c-4.318-7.85-7.85-16.289-10.336-25.056h-25.383v-71.699h25.383
				c2.486-8.766,6.018-17.205,10.336-25.055l-17.925-17.925l50.765-50.7l17.86,17.86c7.915-4.318,16.289-7.785,25.055-10.336V11.721
				h71.765v25.317c8.766,2.551,17.14,6.018,24.99,10.402l17.925-17.925l50.765,50.7L367.698,98.14
				c4.318,7.85,7.85,16.289,10.336,25.055h25.317v71.699H378.034z" fill="#0966c2" class="color5a83fc svgShape"></path>
      </g>
      <g opacity=".3" fill="#000000" class="color000000 svgShape">
        <g fill="#000000" class="color000000 svgShape">
          <path d="M385.686,80.28l-11.871,11.871c-22.675-12.538-48.818-19.74-76.561-19.74
					c-80.83,0-147.655,60.555-157.124,138.984c-2.402-5.335-4.402-10.804-6.002-16.539H108.65v-71.626h25.477
					c2.401-8.804,6.002-17.206,10.27-25.076L126.523,80.28l50.685-50.819l17.874,17.874c8.003-4.268,16.272-7.736,25.076-10.271
					V11.722h71.759v25.342c8.804,2.534,17.207,6.002,25.076,10.404l17.874-18.007L385.686,80.28z" fill="#ffffff" class="colorffffff svgShape"></path>
        </g>
      </g>
      <g fill="#000000" class="color000000 svgShape">
        <circle cx="256.057" cy="159.045" r="71.699" fill="#ffffff" class="colorffffff svgShape"></circle>
      </g>
      <g fill="#000000" class="color000000 svgShape">
        <circle cx="121.937" cy="357.77" r="41.689" transform="rotate(-45.001 121.934 357.773)" fill="#ffffff" class="colorffffff svgShape"></circle>
      </g>
      <g fill="#000000" class="color000000 svgShape">
        <circle cx="319.973" cy="458.592" r="41.689" transform="rotate(-45.001 319.969 458.598)" fill="#ffffff" class="colorffffff svgShape"></circle>
      </g>
      <path d="M479.25 331.029H160.032c-8.439-11.985-22.355-19.851-38.095-19.851s-29.655 7.866-38.094 19.851H32.75c-14.744 0-26.739 11.996-26.739 26.739s11.996 26.739 26.739 26.739h51.093c8.438 11.985 22.353 19.851 38.094 19.851s29.656-7.866 38.095-19.851H479.25c14.744 0 26.739-11.996 26.739-26.739S493.994 331.029 479.25 331.029zM32.75 374.705c-9.339 0-16.936-7.597-16.936-16.936 0-9.339 7.597-16.936 16.936-16.936h45.83c-4.243 10.822-4.38 22.701 0 33.872H32.75zM121.936 394.556c-20.284 0-36.787-16.5-36.787-36.787 0-20.287 16.503-36.787 36.787-36.787 20.287 0 36.789 16.5 36.789 36.787C158.726 378.056 142.223 394.556 121.936 394.556zM479.25 374.705H165.296c4.234-10.8 4.389-22.678 0-33.872H479.25c9.339 0 16.936 7.597 16.936 16.936C496.186 367.108 488.589 374.705 479.25 374.705zM479.25 431.851H358.067c-8.439-11.985-22.355-19.851-38.095-19.851-15.74 0-29.655 7.866-38.094 19.851H32.75c-14.744 0-26.739 11.996-26.739 26.739s11.996 26.739 26.739 26.739h249.128c8.438 11.985 22.353 19.851 38.094 19.851 15.74 0 29.656-7.866 38.095-19.851H479.25c14.744 0 26.739-11.996 26.739-26.739S493.994 431.851 479.25 431.851zM32.75 475.526c-9.339 0-16.936-7.597-16.936-16.936 0-9.339 7.597-16.936 16.936-16.936h243.865c-4.243 10.822-4.38 22.701 0 33.872H32.75zM319.972 495.377c-20.284 0-36.787-16.5-36.787-36.787s16.503-36.787 36.787-36.787c20.287 0 36.789 16.5 36.789 36.787S340.259 495.377 319.972 495.377zM479.25 475.526H363.331c4.234-10.8 4.389-22.678 0-33.872H479.25c9.339 0 16.936 7.597 16.936 16.936C496.186 467.929 488.589 475.526 479.25 475.526zM108.706 118.291c-2.707 0-4.902 2.192-4.902 4.902v71.703c0 2.709 2.195 4.902 4.902 4.902h21.737c2.08 6.553 4.744 13.001 7.951 19.248l-15.361 15.361c-1.913 1.913-1.916 5.023.002 6.936l50.765 50.703c1.915 1.905 5.014 1.91 6.929-.005l15.306-15.304c6.182 3.145 12.628 5.806 19.241 7.937v21.694c0 2.709 2.195 4.902 4.902 4.902h71.765c2.707 0 4.902-2.192 4.902-4.902v-21.694c6.682-2.154 13.114-4.825 19.2-7.98l15.349 15.347c1.915 1.915 5.014 1.91 6.929.005l50.765-50.703c1.911-1.906 1.922-5.016.002-6.936l-15.361-15.361c3.205-6.247 5.869-12.695 7.951-19.248h21.673c2.707 0 4.902-2.192 4.902-4.902v-71.703c0-2.709-2.195-4.902-4.902-4.902h-21.673c-2.082-6.553-4.746-13.001-7.951-19.248l15.361-15.361c1.913-1.913 1.916-5.023-.002-6.936l-50.765-50.703c-1.915-1.905-5.014-1.91-6.929.005l-15.349 15.347c-6.087-3.155-12.518-5.826-19.2-7.98V11.721c0-2.709-2.195-4.902-4.902-4.902h-71.765c-2.707 0-4.902 2.192-4.902 4.902v21.694c-6.613 2.13-13.059 4.792-19.241 7.937l-15.306-15.304c-1.915-1.915-5.014-1.91-6.929-.005l-50.765 50.703c-1.911 1.906-1.922 5.016-.002 6.936l15.361 15.356c-3.207 6.252-5.871 12.7-7.951 19.253H108.706zM138.803 124.529c2.331-8.219 5.665-16.304 9.914-24.03 1.053-1.91.713-4.284-.828-5.826l-14.456-14.456 43.829-43.771 14.397 14.394c1.537 1.537 3.899 1.876 5.814.838 7.623-4.16 15.722-7.501 24.076-9.933 2.094-.608 3.533-2.527 3.533-4.705V16.623h61.961v20.416c0 2.178 1.438 4.098 3.533 4.705 8.47 2.465 16.534 5.821 23.968 9.976 1.917 1.067 4.311.732 5.857-.814l14.464-14.461 43.829 43.771-14.459 14.456c-1.541 1.541-1.881 3.916-.828 5.826 4.246 7.726 7.582 15.811 9.916 24.035.598 2.106 2.523 3.561 4.715 3.561h20.416v61.899h-20.416c-2.192 0-4.117 1.455-4.715 3.566-2.334 8.219-5.67 16.304-9.916 24.03-1.053 1.91-.713 4.284.828 5.826l14.459 14.456-43.829 43.771-14.464-14.461c-1.546-1.546-3.94-1.876-5.857-.814-7.434 4.155-15.497 7.511-23.968 9.976-2.094.608-3.533 2.527-3.533 4.706v20.416h-61.961V281.05c0-2.178-1.438-4.098-3.533-4.706-8.353-2.432-16.452-5.773-24.076-9.933-1.915-1.039-4.277-.699-5.814.838l-14.397 14.394-43.829-43.771 14.456-14.456c1.541-1.541 1.881-3.916.828-5.826-4.248-7.726-7.582-15.811-9.914-24.03-.596-2.111-2.523-3.566-4.715-3.566h-20.481v-61.899h20.481C136.28 128.095 138.207 126.64 138.803 124.529z" fill="#707070" class="color242c35 svgShape"></path>
      <path d="M256.057,235.646c42.237,0,76.6-34.36,76.6-76.6s-34.363-76.604-76.6-76.604
			c-42.239,0-76.602,34.365-76.602,76.604S213.818,235.646,256.057,235.646z M256.057,92.246c36.833,0,66.796,29.966,66.796,66.801
			c0,36.83-29.963,66.796-66.796,66.796s-66.798-29.966-66.798-66.796C189.259,122.212,219.225,92.246,256.057,92.246z" fill="#707070" class="color242c35 svgShape"></path>
    </g>
  </g>
</svg>
