<svg xmlns="http://www.w3.org/2000/svg" enable-background="new 0 0 512 512" viewBox="0 0 512 512" id="6621987">
  <path fill="#0966c2" d="M178.137,222.422c-7.504-4.717-11.844-13.144-14.623-21.56
			c-8.601-26.044-4.993-55.844,9.576-79.082c2.737,13.56,3.48,28.958,12.96,39.033c18.006,19.135,48.388,8.76,40.817-21.737
			c-2.088-8.41-6.362-16.097-9.293-24.252c-14.663-40.797,6.453-86.064,47.192-101.01c-8.128,14.893-19.966,49.759-17.725,68.454
			c6.117,51.037,73.163,37.472,53.287-17.635c49.186,13.009,60.974,83.983,47.498,132.177c-8.144,29.125-25.741,55.526-49.491,74.25
			" class="colorfdce06 svgShape"></path>
  <path fill="#ffffff" d="M409.718,298.866c0,95.133-153.663,199.313-153.663,199.313s-153.777-104.18-153.777-199.313
			c0-46.11,37.349-83.459,83.459-83.459c29.511,0,55.448,15.332,70.318,38.502c14.756-23.171,40.693-38.502,70.203-38.502
			C372.369,215.407,409.718,252.756,409.718,298.866z" class="colorffffff svgShape"></path>
  <path fill="#707070" d="M345.155,91.591c-10.231-17.871-25.039-29.804-42.83-34.511c-2.823-0.748-5.791,0.13-7.759,2.277
			c-1.961,2.14-2.571,5.192-1.587,7.927c5.104,14.167,4.036,26.363-2.937,33.458c-4.997,5.081-12.588,6.862-19.386,4.539
			c-8.606-2.933-14.389-11.661-15.854-23.944c-1.953-16.235,8.835-49.14,16.822-63.78c1.556-2.857,1.183-6.378-0.938-8.842
			c-2.129-2.46-5.562-3.342-8.613-2.235c-44.692,16.399-67.954,66.187-51.856,110.986c2.846,7.929,7.231,16.079,9.064,23.494
			c2.365,9.514,0.32,16.826-5.6,20.057c-5.325,2.918-14.465,2.392-21.942-5.554c-6.027-6.412-7.721-16.403-9.514-26.981
			c-0.465-2.785-0.938-5.554-1.48-8.247c-0.633-3.136-3.113-5.569-6.256-6.142c-3.174-0.557-6.325,0.828-8.026,3.536
			c-15.854,25.302-19.729,57.33-10.368,85.684c0.99,2.995,2.134,5.667,3.358,8.177c-37.546,11.318-64.987,46.187-64.987,87.376
			c0,98.146,150.784,201.431,157.208,205.783c1.32,0.896,2.853,1.343,4.379,1.343c1.533,0,3.059-0.45,4.387-1.347
			c6.409-4.349,157.093-107.633,157.093-205.779c0-41.652-28.078-76.801-66.28-87.707c1.528-4.025,2.933-8.096,4.094-12.247
			C365.403,162.947,361.306,119.819,345.155,91.591z M401.909,298.866c0,81.099-121.091,172.02-145.855,189.762
			c-24.787-17.73-145.962-108.602-145.962-189.762c0-41.713,33.935-75.648,75.644-75.648c25.886,0,49.712,13.05,63.742,34.911
			c1.442,2.239,3.914,3.593,6.576,3.593c0.008,0,0.008,0,0.015,0c2.663-0.004,5.142-1.369,6.576-3.616
			c13.908-21.846,37.688-34.888,63.612-34.888C367.974,223.218,401.909,257.153,401.909,298.866z M326.258,207.593
			c-27.519,0-53.046,12.184-70.227,33.065c-17.265-20.881-42.815-33.065-70.296-33.065c-3.517,0-6.974,0.247-10.389,0.636
			c-1.643-2.717-3.129-5.921-4.42-9.818c-5.463-16.559-5.592-34.602-0.732-51.234c1.984,6.843,4.974,13.473,10.162,18.989
			c11.284,12.001,28.083,15.518,40.801,8.568c9.628-5.249,18.173-17.868,13.29-37.536c-2.325-9.387-6.655-16.995-9.521-25.016
			c-10.727-29.83-0.168-62.357,23.796-80.74c-5.997,16.838-11.116,37.727-9.437,51.753c2.212,18.482,11.81,31.921,26.328,36.876
			c12.436,4.257,26.397,0.961,35.567-8.373c8.278-8.423,11.78-20.332,10.269-33.931c7.957,4.86,14.702,12.077,20.141,21.583
			c14.213,24.837,17.715,63.155,8.713,95.354c-1.273,4.551-2.88,8.992-4.629,13.376
			C332.578,207.761,329.437,207.593,326.258,207.593z" class="color3e3e3e svgShape"></path>
</svg>
