<svg xmlns="http://www.w3.org/2000/svg" enable-background="new 0 0 512 512" viewBox="0 0 512 512" id="6621998">
  <path fill="#ffffff" d="M381.803,225.33c0,44.434-23.059,83.533-57.878,105.934c-17.327,11.147-27.173,30.897-27.173,51.5
			v34.185h-81.508v-34.185c0-20.603-9.846-40.353-27.173-51.5c-34.819-22.401-57.878-61.5-57.878-105.934
			c0-69.357,56.321-125.678,125.805-125.678S381.803,155.973,381.803,225.33z" class="colorffffff svgShape"></path>
  <path fill="#0966c2" d="M331.81,472.197v-29.286c0-14.351-11.634-25.985-25.985-25.985h-99.622
			c-14.351,0-25.985,11.634-25.985,25.985v29.286c0,14.351,11.634,25.985,25.985,25.985h99.622
			C320.176,498.182,331.81,486.548,331.81,472.197z" class="colorcfcfd1 svgShape"></path>
  <path fill="#818181" d="M319.794,222.714c0,35.224-28.533,63.757-63.757,63.757s-63.834-28.533-63.834-63.757
			c0-35.224,28.61-63.757,63.834-63.757S319.794,187.49,319.794,222.714z" class="colorfdce06 svgShape"></path>
  <path fill="#707070" d="M256 91.842c-73.675 0-133.618 59.882-133.618 133.489 0 45.691 22.979 87.744 61.461 112.501 14.549 9.361 23.59 26.58 23.59 44.936v26.344h-1.228c-18.638 0-33.797 15.159-33.797 33.797v29.289c0 18.638 15.159 33.797 33.797 33.797h99.622c18.638 0 33.797-15.159 33.797-33.797v-29.289c0-18.638-15.159-33.797-33.797-33.797h-1.266v-26.344c0-18.356 9.041-35.575 23.59-44.936 38.489-24.757 61.469-66.817 61.469-112.501C389.618 151.724 329.675 91.842 256 91.842zM323.999 442.908v29.289c0 10.017-8.156 18.173-18.173 18.173h-99.622c-10.017 0-18.173-8.156-18.173-18.173v-29.289c0-10.017 8.156-18.173 18.173-18.173.781 0 106.3.009 99.622 0C315.844 424.736 323.999 432.891 323.999 442.908zM319.696 324.694c-19.264 12.39-30.761 34.103-30.761 58.074v26.344h-65.878v-26.344c0-23.971-11.497-45.684-30.761-58.074-33.996-21.873-54.29-59.012-54.29-99.363 0-64.993 52.932-117.864 117.994-117.864s117.994 52.871 117.994 117.864C373.994 265.674 353.692 302.821 319.696 324.694zM248.188 13.818v21.728c0 4.318 3.494 7.812 7.812 7.812s7.812-3.494 7.812-7.812V13.818c0-4.318-3.494-7.812-7.812-7.812S248.188 9.5 248.188 13.818zM411.323 70.343c-3.052-3.052-7.995-3.052-11.047 0l-15.365 15.365c-3.052 3.052-3.052 7.995 0 11.047 3.052 3.052 7.995 3.052 11.047 0l15.365-15.365C414.375 78.338 414.375 73.395 411.323 70.343zM100.677 380.99c3.052 3.052 7.995 3.052 11.047 0l15.365-15.365c3.052-3.052 3.052-7.995 0-11.047-3.052-3.052-7.995-3.052-11.047 0l-15.365 15.365C97.625 372.994 97.625 377.938 100.677 380.99zM438.308 225.666c0 4.318 3.494 7.812 7.812 7.812h21.728c4.318 0 7.812-3.494 7.812-7.812 0-4.318-3.494-7.812-7.812-7.812H446.12C441.802 217.854 438.308 221.348 438.308 225.666zM44.152 217.854c-4.318 0-7.812 3.494-7.812 7.812 0 4.318 3.494 7.812 7.812 7.812H65.88c4.318 0 7.812-3.494 7.812-7.812 0-4.318-3.494-7.812-7.812-7.812H44.152zM395.958 354.577c-3.052-3.052-7.995-3.052-11.047 0-3.052 3.052-3.052 7.995 0 11.047l15.365 15.365c3.052 3.052 7.995 3.052 11.047 0 3.052-3.052 3.052-7.995 0-11.047L395.958 354.577zM100.677 70.343c-3.052 3.052-3.052 7.995 0 11.047l15.365 15.365c3.052 3.052 7.995 3.052 11.047 0 3.052-3.052 3.052-7.995 0-11.047l-15.365-15.365C108.672 67.291 103.728 67.291 100.677 70.343z" class="color3e3e3e svgShape"></path>
  <path fill="#707070" d="M256.038,151.144c-39.504,0-71.646,32.104-71.646,71.57s32.142,71.57,71.646,71.57
			c39.466,0,71.57-32.104,71.57-71.57S295.504,151.144,256.038,151.144z M256.038,278.659c-30.891,0-56.021-25.1-56.021-55.945
			s25.131-55.945,56.021-55.945c30.845,0,55.945,25.1,55.945,55.945S286.883,278.659,256.038,278.659z" class="color3e3e3e svgShape"></path>
  <path fill="#707070" d="M242.916 208.34v-3.136c0-4.318-3.494-7.812-7.812-7.812-4.318 0-7.812 3.494-7.812 7.812v3.136c0 4.318 3.494 7.812 7.812 7.812C239.422 216.153 242.916 212.658 242.916 208.34zM276.896 197.392c-4.318 0-7.812 3.494-7.812 7.812v3.136c0 4.318 3.494 7.812 7.812 7.812 4.318 0 7.812-3.494 7.812-7.812v-3.136C284.709 200.886 281.215 197.392 276.896 197.392zM268.39 241.321c-6.836 6.821-17.944 6.821-24.78 0-3.052-3.052-7.995-3.052-11.047 0-3.052 3.052-3.052 7.995 0 11.047 6.462 6.462 14.946 9.689 23.437 9.689 8.484 0 16.975-3.227 23.437-9.689 3.052-3.044 3.052-7.995 0-11.047C276.385 238.27 271.442 238.27 268.39 241.321z" class="color3e3e3e svgShape"></path>
</svg>
