<svg xmlns="http://www.w3.org/2000/svg" xml:space="preserve" viewBox="0 0 512 512" enable-background="new 0 0 512 512" id="11962843">
  <g id="_x33_3_Product_Value_Chain" fill="#0966c2" class="color000000 svgShape">
    <g fill="#0966c2" class="color000000 svgShape">
      <g fill="#0966c2" class="color000000 svgShape">
        <polygon points="128.453 399.796 70.428 432.331 12.403 399.796 70.428 367.262" fill="#aeaeae" class="colorf66866 svgShape"></polygon>
      </g>
      <g opacity=".3" fill="#0966c2" class="color000000 svgShape">
        <g fill="#0966c2" class="color000000 svgShape">
          <path d="M128.435,399.806l-22.744,12.744c-1.52-2.304-3.627-4.314-6.323-5.833l-19.803-11.078
					c-5.686-3.186-12.598-3.186-18.284,0l-19.803,11.078c-2.696,1.52-4.804,3.529-6.323,5.833L12.41,399.806l58.037-32.548
					L128.435,399.806z" fill="#ffffff" class="colorffffff svgShape"></path>
        </g>
      </g>
      <g fill="#0966c2" class="color000000 svgShape">
        <polygon points="12.403 460.505 70.428 493.039 70.428 432.331 12.403 399.796" fill="#aeaeae" class="colorf66866 svgShape"></polygon>
      </g>
      <g opacity=".3" fill="#0966c2" class="color000000 svgShape">
        <g fill="#0966c2" class="color000000 svgShape">
          <path d="M70.447,432.354v17.009l-30.832-17.303c-7.745-4.363-17.303,1.225-17.303,10.098v23.872
					l-9.901-5.539v-60.684L70.447,432.354z" fill="#ffffff" class="colorffffff svgShape"></path>
        </g>
      </g>
      <g fill="#0966c2" class="color000000 svgShape">
        <polygon points="128.453 460.505 70.428 493.039 70.428 432.331 128.453 399.796" fill="#aeaeae" class="colorf66866 svgShape"></polygon>
      </g>
      <g opacity=".3" fill="#0966c2" class="color000000 svgShape">
        <g fill="#0966c2" class="color000000 svgShape">
          <path d="M128.435,399.806v20.538c-2.99-0.49-6.225,0-9.215,1.666l-29.018,16.323
					c-4.608,2.549-7.402,7.402-7.402,12.647v27.499c0,2.451,0.588,4.755,1.618,6.715l-13.97,7.843v-60.684L128.435,399.806z" fill="#ffffff" class="colorffffff svgShape"></path>
        </g>
      </g>
      <g fill="#0966c2" class="color000000 svgShape">
        <polygon points="501.089 390.493 443.063 423.028 385.038 390.493 443.063 357.959" fill="#aeaeae" class="colorf66866 svgShape"></polygon>
      </g>
      <g opacity=".3" fill="#0966c2" class="color000000 svgShape">
        <g fill="#0966c2" class="color000000 svgShape">
          <path d="M501.067,390.492l-18.921,10.637c-1.323-3.186-3.725-5.98-7.156-7.941l-23.725-13.284
					c-5.098-2.843-11.323-2.843-16.421,0l-23.676,13.284c-3.431,1.911-5.833,4.755-7.205,7.892l-18.921-10.588l58.037-32.547
					L501.067,390.492z" fill="#ffffff" class="colorffffff svgShape"></path>
        </g>
      </g>
      <g fill="#0966c2" class="color000000 svgShape">
        <polygon points="385.038 451.202 443.063 483.736 443.063 423.028 385.038 390.493" fill="#aeaeae" class="colorf66866 svgShape"></polygon>
      </g>
      <g opacity=".3" fill="#0966c2" class="color000000 svgShape">
        <g fill="#0966c2" class="color000000 svgShape">
          <path d="M443.079,423.04v15.931l-29.46-16.519c-7.549-4.215-16.911,1.225-16.911,9.902v25.391
					l-11.666-6.519v-60.733L443.079,423.04z" fill="#ffffff" class="colorffffff svgShape"></path>
        </g>
      </g>
      <g fill="#0966c2" class="color000000 svgShape">
        <polygon points="501.089 451.202 443.063 483.736 443.063 423.028 501.089 390.493" fill="#aeaeae" class="colorf66866 svgShape"></polygon>
      </g>
      <g opacity=".3" fill="#0966c2" class="color000000 svgShape">
        <g fill="#0966c2" class="color000000 svgShape">
          <path d="M501.067,390.492v21.421c-2.255,0.098-4.51,0.735-6.667,1.912l-27.695,15.538
					c-4.804,2.696-7.745,7.745-7.745,13.235v25.979c0,2.059,0.392,3.922,1.127,5.637l-17.009,9.509V423.04L501.067,390.492z" fill="#ffffff" class="colorffffff svgShape"></path>
        </g>
      </g>
      <g fill="#0966c2" class="color000000 svgShape">
        <polygon points="476.102 48.213 418.076 80.748 360.051 48.213 418.076 15.679" fill="#aeaeae" class="colorf66866 svgShape"></polygon>
      </g>
      <g opacity=".3" fill="#0966c2" class="color000000 svgShape">
        <g fill="#0966c2" class="color000000 svgShape">
          <path d="M476.117,48.203l-18.774,10.539c-1.127-1.52-2.647-2.843-4.51-3.872l-27.45-15.392
					c-4.559-2.549-10.098-2.549-14.607,0l-27.499,15.392c-1.814,1.029-3.333,2.353-4.46,3.872l-18.774-10.539l58.037-32.548
					L476.117,48.203z" fill="#ffffff" class="colorffffff svgShape"></path>
        </g>
      </g>
      <g fill="#0966c2" class="color000000 svgShape">
        <polygon points="360.051 108.922 418.076 141.456 418.076 80.748 360.051 48.213" fill="#aeaeae" class="colorf66866 svgShape"></polygon>
      </g>
      <g opacity=".3" fill="#0966c2" class="color000000 svgShape">
        <g fill="#0966c2" class="color000000 svgShape">
          <path d="M418.08,80.75v18.087l-27.156-15.244c-8.872-4.951-19.852,1.47-19.852,11.617v19.901
					l-11.029-6.176V48.203L418.08,80.75z" fill="#ffffff" class="colorffffff svgShape"></path>
        </g>
      </g>
      <g fill="#0966c2" class="color000000 svgShape">
        <polygon points="476.102 108.922 418.076 141.456 418.076 80.748 476.102 48.213" fill="#aeaeae" class="colorf66866 svgShape"></polygon>
      </g>
      <g opacity=".3" fill="#0966c2" class="color000000 svgShape">
        <g fill="#0966c2" class="color000000 svgShape">
          <path d="M476.117,48.203v33.822c-7.696-4.657-17.695-5.49-26.666-0.441l-5.049,2.843
					c-4.216,2.304-7.549,5.686-9.902,9.706c-2.353,3.97-3.627,8.578-3.627,13.382c0,8.823,4.166,16.274,10.294,20.98l-23.087,12.94
					V80.75L476.117,48.203z" fill="#ffffff" class="colorffffff svgShape"></path>
        </g>
      </g>
      <g fill="#0966c2" class="color000000 svgShape">
        <polygon points="126.963 46.033 68.938 78.568 10.913 46.033 68.938 13.499" fill="#aeaeae" class="colorf66866 svgShape"></polygon>
      </g>
      <g opacity=".3" fill="#0966c2" class="color000000 svgShape">
        <g fill="#0966c2" class="color000000 svgShape">
          <path d="M126.965,46.046l-19.656,11.029c-1.275-1.667-2.941-3.137-4.951-4.265L76.672,38.448
					c-4.804-2.696-10.686-2.696-15.489,0L35.498,52.811c-2.01,1.127-3.676,2.598-4.902,4.265L10.891,46.046l58.037-32.548
					L126.965,46.046z" fill="#ffffff" class="colorffffff svgShape"></path>
        </g>
      </g>
      <g fill="#0966c2" class="color000000 svgShape">
        <polygon points="10.913 106.742 68.938 139.276 68.938 78.568 10.913 46.033" fill="#aeaeae" class="colorf66866 svgShape"></polygon>
      </g>
      <g opacity=".3" fill="#0966c2" class="color000000 svgShape">
        <g fill="#0966c2" class="color000000 svgShape">
          <path d="M68.928,78.545v13.627l-34.802-19.46c-6.519-3.628-14.558,1.029-14.558,8.48v30.391l-8.676-4.853
					V46.046L68.928,78.545z" fill="#ffffff" class="colorffffff svgShape"></path>
        </g>
      </g>
      <g fill="#0966c2" class="color000000 svgShape">
        <polygon points="126.963 106.742 68.938 139.276 68.938 78.568 126.963 46.033" fill="#aeaeae" class="colorf66866 svgShape"></polygon>
      </g>
      <g opacity=".3" fill="#0966c2" class="color000000 svgShape">
        <g fill="#0966c2" class="color000000 svgShape">
          <path d="M126.965,46.046v21.666c-1.422,0.196-2.892,0.686-4.265,1.47L90.544,87.221
					c-4.069,2.304-6.618,6.618-6.618,11.274v31.028c0,0.441,0,0.882,0.049,1.324l-15.048,8.431V78.545L126.965,46.046z" fill="#ffffff" class="colorffffff svgShape"></path>
        </g>
      </g>
      <g fill="#0966c2" class="color000000 svgShape">
        <circle cx="256.001" cy="256.008" r="133.483" transform="rotate(-45.001 256 256.012)" fill="#d9dee3" class="colord9dde3 svgShape"></circle>
      </g>
      <g opacity=".3" fill="#0966c2" class="color000000 svgShape">
        <g fill="#0966c2" class="color000000 svgShape">
          <path d="M378.639,203.371c-24.339-31.572-62.604-51.922-105.601-51.922
					c-73.759,0-133.455,59.764-133.455,133.523c0,18.659,3.786,36.372,10.682,52.463c-17.375-22.513-27.718-50.705-27.718-81.398
					c0-73.758,59.697-133.523,133.455-133.523C311.032,122.513,358.289,155.776,378.639,203.371z" fill="#ffffff" class="colorffffff svgShape"></path>
        </g>
      </g>
      <g fill="#0966c2" class="color000000 svgShape">
        <circle cx="256.001" cy="256.008" r="86.17" fill="#ffffff" class="colorffffff svgShape"></circle>
      </g>
      <path d="M362.081 473.367c2.432-1.187 3.432-4.126 2.24-6.558-1.182-2.432-4.121-3.451-6.558-2.24-31.909 15.639-66.236 23.571-102.023 23.571-23.255 0-46.116-3.42-68.1-10.16l9.341-4.617c2.432-1.197 3.427-4.136 2.226-6.563-1.197-2.427-4.145-3.427-6.563-2.226l-19.772 9.765c-2.427 1.197-3.423 4.136-2.223 6.563l9.765 19.775c.852 1.733 2.59 2.733 4.399 2.733.728 0 1.47-.163 2.164-.507 2.427-1.197 3.427-4.136 2.226-6.563l-4.437-8.99c22.914 7.027 46.741 10.593 70.975 10.593C293.035 497.943 328.817 489.676 362.081 473.367zM311.057 46.588c1.442 2.262 4.466 2.961 6.769 1.494l18.587-11.862c1.096-.699 1.867-1.805 2.149-3.073.278-1.269.043-2.599-.656-3.695L326.04 10.859c-1.455-2.283-4.48-2.958-6.769-1.494-2.283 1.455-2.949 4.485-1.493 6.769l4.762 7.462C267.164 7.702 206.283 11.722 152.011 37.522c-2.446 1.163-3.485 4.088-2.324 6.534.84 1.766 2.599 2.796 4.43 2.796.706 0 1.424-.153 2.101-.474 54.233-25.784 113.929-28.246 165.975-12.711l-9.643 6.153C310.268 41.275 309.602 44.305 311.057 46.588zM40.836 188.5c1.137 2.479 4.053 3.529 6.498 2.413 2.46-1.13 3.54-4.04 2.41-6.501l-9.2-20.043c-1.116-2.438-4.014-3.548-6.501-2.413l-20.04 9.205c-2.46 1.134-3.537 4.045-2.408 6.501 1.127 2.465 4.035 3.528 6.501 2.413l9.499-4.365C7.309 233.246 8.981 298.729 36.018 357.314c1.141 2.473 4.064 3.522 6.505 2.398 2.458-1.134 3.53-4.05 2.398-6.505-25.644-55.555-27.705-118.23-8.252-173.78L40.836 188.5zM472.902 314.787c-1.197-2.422-4.131-3.418-6.568-2.221-2.427 1.202-3.423 4.141-2.221 6.568l9.77 19.77c1.193 2.419 4.134 3.421 6.568 2.221l19.77-9.77c2.427-1.202 3.423-4.141 2.221-6.568-1.192-2.422-4.126-3.423-6.568-2.221l-8.831 4.364c17.8-58.153 13.631-123.712-16.214-181.569-1.245-2.413-4.203-3.365-6.601-2.111-2.408 1.24-3.351 4.198-2.111 6.601 29.126 56.469 32.345 119.522 15.478 174.435L472.902 314.787zM10.004 464.779c63.247 35.464 57.642 32.401 58.682 32.8 1.397.534 2.323.444 3.485 0 .927-.355 58.187-32.516 58.68-32.8 1.546-.866 2.504-2.504 2.504-4.275v-60.707c0-1.378-.547-2.703-1.795-3.742-.841-.699-58.227-32.819-58.732-33.069-1.489-.833-3.308-.833-4.796 0-62.53 35.147-57.618 32.14-58.735 33.069-1.254 1.044-1.795 2.37-1.795 3.742v60.707C7.5 462.276 8.458 463.913 10.004 464.779zM17.304 408.165l48.223 27.036v49.472l-48.223-27.041V408.165zM75.33 484.673v-49.472c19.234-10.784 28.69-16.086 48.221-27.036v49.468L75.33 484.673zM70.429 372.881l48 26.917-48 26.912-48.003-26.912L70.429 372.881zM503.566 386.26c-.491-.288-57.587-32.297-58.103-32.575-1.493-.833-3.303-.833-4.796 0-27.951 15.669-58.725 32.938-58.108 32.575-1.431.841-2.422 2.443-2.422 4.232v60.712c0 1.771.957 3.408 2.504 4.275 61.778 34.567 57.16 32.204 58.664 32.788 1.423.549 2.358.448 3.522 0 1.434-.556-3.701 2.108 58.659-32.788 1.546-.866 2.504-2.504 2.504-4.275v-60.712C505.988 388.669 504.887 387.036 503.566 386.26zM443.065 363.58l47.998 26.912-47.998 26.917-48.003-26.917L443.065 363.58zM389.94 398.859c11.34 6.359 36.6 20.523 48.223 27.041v49.468l-48.223-27.036V398.859zM447.967 475.368V425.9c4.381-2.457 41.453-23.246 48.218-27.04v49.471L447.967 475.368zM416.317 145.985c1.165.449 2.078.557 3.522 0 1.434-.556-3.701 2.108 58.659-32.788 1.546-.866 2.504-2.504 2.504-4.275V48.211c0-1.855-1.114-3.462-2.422-4.232-.491-.288-57.587-32.297-58.103-32.575-1.494-.833-3.303-.833-4.796 0-27.949 15.672-58.725 32.938-58.108 32.575-1.284.755-2.422 2.382-2.422 4.232v60.712c0 1.771.957 3.408 2.504 4.275C419.43 147.764 414.813 145.402 416.317 145.985zM422.979 133.087V83.62c4.381-2.457 41.453-23.246 48.218-27.04v49.471L422.979 133.087zM418.078 21.299l47.998 26.912-47.998 26.917-48.003-26.917L418.078 21.299zM364.953 56.579c11.34 6.359 36.6 20.523 48.223 27.041v49.468l-48.223-27.036V56.579zM6.012 46.033v60.707c0 1.771.957 3.408 2.504 4.275 63.43 35.568 57.761 32.447 58.68 32.8 1.144.437 2.072.541 3.485 0 .911-.349-4.066 2.384 58.682-32.8 1.546-.866 2.504-2.504 2.504-4.275V46.033c0-1.404-.566-2.73-1.817-3.759-1.171-.964 3.021 1.646-58.713-33.052-1.489-.833-3.308-.833-4.796 0C38.591 24.896 7.818 42.164 8.436 41.802 7.105 42.583 6.012 44.259 6.012 46.033zM15.815 54.401c3.889 2.181 43.733 24.524 48.221 27.04v49.468l-48.221-27.041V54.401zM73.839 130.909V81.442c11.758-6.593 36.937-20.712 48.223-27.041v49.467L73.839 130.909zM68.937 19.117l48.005 26.917c-4.379 2.456-41.736 23.401-48.005 26.917-14.749-8.27-34.192-19.172-48.003-26.917L68.937 19.117zM255.999 117.626c-76.303 0-138.384 62.081-138.384 138.384s62.081 138.384 138.384 138.384c76.308 0 138.388-62.081 138.388-138.384S332.306 117.626 255.999 117.626zM255.999 384.589c-70.898 0-128.58-57.682-128.58-128.58s57.682-128.58 128.58-128.58c70.903 0 128.585 57.682 128.585 128.58S326.902 384.589 255.999 384.589z" fill="#707070" class="color242c35 svgShape"></path>
      <path d="M255.999,164.934c-50.214,0-91.07,40.856-91.07,91.075c0,50.214,40.856,91.07,91.07,91.07
			c50.219,0,91.075-40.856,91.075-91.07C347.074,205.79,306.218,164.934,255.999,164.934z M255.999,337.276
			c-44.81,0-81.267-36.457-81.267-81.267c0-44.815,36.457-81.271,81.267-81.271c44.815,0,81.272,36.457,81.272,81.271
			C337.27,300.819,300.814,337.276,255.999,337.276z" fill="#707070" class="color242c35 svgShape"></path>
      <path d="M255.999,220.553c8.425,0,15.28,6.85,15.28,15.275c0,2.709,2.192,4.902,4.902,4.902
			c2.709,0,4.902-2.192,4.902-4.902c0-12.151-8.692-22.296-20.181-24.583v-7.312c0-2.709-2.192-4.902-4.902-4.902
			c-2.709,0-4.902,2.192-4.902,4.902v7.312c-11.488,2.287-20.177,12.432-20.177,24.583c0,13.829,11.249,25.083,25.078,25.083
			c8.425,0,15.28,6.85,15.28,15.275s-6.855,15.28-15.28,15.28s-15.275-6.855-15.275-15.28c0-2.709-2.192-4.902-4.902-4.902
			c-2.709,0-4.902,2.192-4.902,4.902c0,12.151,8.688,22.299,20.177,24.587v7.313c0,2.709,2.192,4.902,4.902,4.902
			c2.709,0,4.902-2.192,4.902-4.902v-7.312c11.489-2.288,20.181-12.437,20.181-24.587c0-13.829-11.254-25.078-25.083-25.078
			c-8.425,0-15.275-6.855-15.275-15.28S247.574,220.553,255.999,220.553z" fill="#707070" class="color242c35 svgShape"></path>
    </g>
  </g>
</svg>
