<svg xmlns="http://www.w3.org/2000/svg" xml:space="preserve" viewBox="0 0 512 512" enable-background="new 0 0 512 512" id="11962844">
  <g id="_x33_4_Product_Value_Chain" fill="#0966c2" class="color000000 svgShape">
    <g fill="#0966c2" class="color000000 svgShape">
      <g fill="#0966c2" class="color000000 svgShape">
        <path d="M256.001,86.137v339.121c0,15.736,5.913,31.147,17.366,41.901
				c11.732,11.081,27.562,17.878,45.021,17.878c36.314,0,65.785-29.471,65.785-65.832c0-0.326,0-0.605-0.046-0.931
				c0.186,0,0.326,0.047,0.512,0.047c36.92,6.239,72.35-20.532,76.26-57.824c1.629-15.783-2.281-30.635-10.103-42.693
				c28.865-6.984,50.282-32.962,50.282-63.969c0-35.197-27.655-63.969-62.433-65.739c4.516-8.892,7.03-18.902,7.03-29.517
				c0-36.315-29.471-65.785-65.832-65.785c0-36.361-29.47-65.832-65.785-65.832c-1.257,0-2.514,0.047-3.771,0.093
				C279.512,28.778,256.001,55.316,256.001,86.137z" fill="#ccdff2" class="colord9f2cc svgShape"></path>
      </g>
      <g opacity=".3" fill="#0966c2" class="color000000 svgShape">
        <g fill="#0966c2" class="color000000 svgShape">
          <path d="M303.14,483.268c4.888,1.164,10.01,1.769,15.271,1.769c36.314,0,65.785-29.471,65.785-65.832
					c0-0.326,0-0.605-0.046-0.931c0.186,0,0.326,0.047,0.512,0.047c36.92,6.239,72.35-20.532,76.26-57.824
					c1.629-15.783-2.281-30.635-10.103-42.693c28.865-6.984,50.282-32.962,50.282-63.969c0-35.197-27.655-63.969-62.433-65.739
					c4.516-8.892,7.03-18.902,7.03-29.517c0-36.315-29.471-65.785-65.832-65.785c0-36.361-29.47-65.832-65.785-65.832
					c-1.257,0-2.514,0.047-3.771,0.093c-24.815,1.397-44.881,18.902-51.725,41.762c82.639,39.201,139.811,123.376,139.811,220.913
					C398.396,368.505,361.057,438.62,303.14,483.268z" fill="#ffffff" class="colorffffff svgShape"></path>
        </g>
      </g>
      <g fill="#0966c2" class="color000000 svgShape">
        <path d="M256.001,86.137v339.121c0,15.736-5.913,31.147-17.366,41.901
				c-11.732,11.081-27.562,17.878-45.021,17.878c-36.314,0-65.785-29.471-65.785-65.832c0-0.326,0-0.605,0.046-0.931
				c-0.186,0-0.326,0.047-0.512,0.047c-36.92,6.239-72.35-20.532-76.26-57.824c-1.629-15.783,2.281-30.635,10.103-42.693
				c-28.865-6.984-50.282-32.962-50.282-63.969c0-35.197,27.655-63.969,62.433-65.739c-4.516-8.892-7.03-18.902-7.03-29.517
				c0-36.315,29.471-65.785,65.832-65.785c0-36.361,29.47-65.832,65.785-65.832c1.257,0,2.514,0.047,3.771,0.093
				C232.49,28.778,256.001,55.316,256.001,86.137z" fill="#ccdff2" class="colord9f2cc svgShape"></path>
      </g>
      <g opacity=".3" fill="#0966c2" class="color000000 svgShape">
        <g fill="#0966c2" class="color000000 svgShape">
          <path d="M208.885,483.268c-4.888,1.164-10.01,1.769-15.271,1.769c-36.314,0-65.785-29.471-65.785-65.832
					c0-0.326,0-0.605,0.046-0.931c-0.186,0-0.326,0.047-0.512,0.047c-36.92,6.239-72.35-20.532-76.26-57.824
					c-1.629-15.783,2.281-30.635,10.103-42.693c-28.865-6.984-50.282-32.962-50.282-63.969c0-35.197,27.655-63.969,62.433-65.739
					c-4.516-8.892-7.03-18.902-7.03-29.517c0-36.315,29.471-65.785,65.832-65.785c0-36.361,29.47-65.832,65.785-65.832
					c1.257,0,2.514,0.047,3.771,0.093c24.815,1.397,44.881,18.902,51.725,41.762c-82.639,39.201-139.811,123.376-139.811,220.913
					C113.629,368.505,150.968,438.62,208.885,483.268z" fill="#ffffff" class="colorffffff svgShape"></path>
        </g>
      </g>
      <g fill="#0966c2" class="color000000 svgShape">
        <path d="M275.926,410.653c0,11.019-8.916,19.935-19.935,19.935c-10.998,0-19.915-8.916-19.915-19.935
				c0-10.998,8.916-19.915,19.915-19.915C267.01,390.739,275.926,399.655,275.926,410.653z" fill="#ffffff" class="colorffffff svgShape"></path>
      </g>
      <g fill="#0966c2" class="color000000 svgShape">
        <path d="M236.097,410.664h39.809c6.532,0,11.827-5.295,11.827-11.827v0
				c0-6.532-5.295-11.827-11.827-11.827h-39.809c-6.532,0-11.827,5.295-11.827,11.827v0
				C224.269,405.368,229.565,410.664,236.097,410.664z" fill="#d9dee3" class="colord9dde3 svgShape"></path>
      </g>
      <g opacity=".3" fill="#0966c2" class="color000000 svgShape">
        <g fill="#0966c2" class="color000000 svgShape">
          <path d="M287.745,398.825c0,0.817-0.054,1.578-0.218,2.34c-0.708-0.163-1.415-0.218-2.122-0.218h-39.788
					c-5.715,0-10.559,4.137-11.648,9.525c-2.395-0.436-4.572-1.633-6.205-3.266c-2.177-2.177-3.484-5.116-3.484-8.382
					c0-6.532,5.28-11.811,11.811-11.811h39.788c3.266,0,6.205,1.306,8.382,3.429C286.439,392.62,287.745,395.56,287.745,398.825z" fill="#ffffff" class="colorffffff svgShape"></path>
        </g>
      </g>
      <g fill="#0966c2" class="color000000 svgShape">
        <path d="M360.371,214.476c2.374,37.271-14.807,70.699-42.28,90.999
				c-15.824,11.693-24.977,30.352-24.977,50.027v6.389H218.89v-6.395c0-19.692-9.187-38.342-25.019-50.052
				c-25.757-19.052-42.457-49.648-42.457-84.127c0-60.389,51.215-108.845,112.568-104.291
				C315.597,120.859,357.081,162.824,360.371,214.476z" fill="#aeaeae" class="colorf66866 svgShape"></path>
      </g>
      <g opacity=".3" fill="#0966c2" class="color000000 svgShape">
        <g fill="#0966c2" class="color000000 svgShape">
          <path d="M268.64,361.868h-49.749v-6.368c0-19.703-9.199-38.318-25.037-50.075
					c-25.745-19.05-42.455-49.64-42.455-84.094c0-60.417,51.218-108.859,112.56-104.287c6.477,0.49,12.791,1.524,18.832,3.157
					c-40.985,26.997-68.037,73.371-68.037,126.113C214.755,292.688,235.711,334.218,268.64,361.868z" fill="#ffffff" class="colorffffff svgShape"></path>
        </g>
      </g>
      <g fill="#0966c2" class="color000000 svgShape">
        <path d="M230.136,387.009h51.731c8.488,0,15.369-6.881,15.369-15.369v0
				c0-8.488-6.881-15.369-15.369-15.369h-51.731c-8.488,0-15.369,6.881-15.369,15.369v0
				C214.766,380.127,221.647,387.009,230.136,387.009z" fill="#d9dee3" class="colord9dde3 svgShape"></path>
      </g>
      <g opacity=".3" fill="#0966c2" class="color000000 svgShape">
        <g fill="#0966c2" class="color000000 svgShape">
          <path d="M297.216,371.393c-1.796-0.762-3.756-1.143-5.824-1.143h-51.763
					c-8.491,0-15.349,6.858-15.349,15.349v0.272c-1.905-0.817-3.592-1.959-5.007-3.375c-2.776-2.776-4.518-6.641-4.518-10.831
					c0-8.491,6.913-15.404,15.404-15.404h51.708c4.246,0,8.055,1.742,10.886,4.518C295.42,363.501,297.162,367.256,297.216,371.393z
					" fill="#ffffff" class="colorffffff svgShape"></path>
        </g>
      </g>
      <g fill="#0966c2" class="color000000 svgShape">
        <polygon points="235.02 155.111 289.548 155.111 273.75 210.15 304.327 210.15 226.866 310.034 248.779 232.573 214.635 232.573" fill="#ffffff" class="colorffffff svgShape"></polygon>
      </g>
      <path d="M445.883,183.903c3.116-8.037,4.691-16.524,4.691-25.323c0-37.385-29.19-68.084-65.987-70.53
			c-2.446-36.797-33.144-65.987-70.53-65.987c-1.321,0-2.638,0.043-4.045,0.101c-24.488,1.37-45.015,17.181-54.011,39.122
			c-9.001-21.941-29.545-37.753-54.1-39.127c-1.316-0.053-2.638-0.096-3.959-0.096c-37.381,0-68.079,29.19-70.525,65.987
			c-36.801,2.446-65.992,33.144-65.992,70.53c0,8.798,1.575,17.29,4.696,25.323C31.9,189.039,6.022,218.512,6.022,253.834
			c0,30.583,19.344,57.241,47.783,66.92c-6.434,12.25-9.047,26.036-7.573,40.253c3.967,37.914,38.51,66.305,76.844,62.813
			c2.384,36.859,33.111,66.116,70.539,66.116c25.523,0,51.822-14.124,62.386-39.841c10.568,25.738,36.913,39.841,62.389,39.841
			c37.424,0,68.151-29.257,70.535-66.116c17.395,1.565,35.069-3.466,49.257-14.236c28.094-21.341,35.633-59.068,20.014-88.83
			c28.439-9.679,47.783-36.337,47.783-66.92C505.978,218.512,480.1,189.039,445.883,183.903z M255.993,425.687
			c-6.554,0-12.081-4.252-14.125-10.124h28.264C268.084,421.436,262.551,425.687,255.993,425.687z M275.906,405.76h-39.808
			c-3.82,0-6.927-3.107-6.927-6.922c0-3.82,3.107-6.927,6.927-6.927h39.808c3.82,0,6.927,3.107,6.927,6.927
			C282.833,402.653,279.726,405.76,275.906,405.76z M281.866,382.108h-5.96h-39.808h-5.964c-5.768,0-10.464-4.696-10.464-10.469
			c0-5.773,4.696-10.469,10.464-10.469h51.732c5.773,0,10.469,4.696,10.469,10.469C292.335,377.412,287.639,382.108,281.866,382.108
			z M288.387,352.539c-2.058-0.706-4.227-1.172-6.522-1.172h-51.732c-2.293,0-4.46,0.466-6.517,1.171
			c-0.892-20.194-10.711-39.112-26.833-51.031c-25.342-18.745-40.468-48.726-40.468-80.19c0-56.743,48.012-103.8,107.303-99.404
			c49.233,3.657,88.72,43.584,91.86,92.875c2.168,34.068-12.896,66.494-40.301,86.743
			C299.083,313.427,289.279,332.334,288.387,352.539z M193.615,480.133c-32.781,0-59.522-26.081-60.77-58.791
			c10.986-10.396,27.888-9.925,38.3,0.487c1.915,1.915,5.017,1.915,6.931,0c1.915-1.915,1.915-5.017,0-6.931
			c-14.025-14.025-36.526-14.487-51.16-1.443c-0.124,0.011-0.247,0.011-0.371,0.031c-34.117,5.776-66.954-19.075-70.563-53.493
			c-1.71-16.496,4.186-33.405,9.1-38.319c10.737-10.737,28.155-10.738,38.893,0c1.915,1.915,5.017,1.915,6.931,0
			c1.915-1.915,1.915-5.017,0-6.931c-13.754-13.754-35.67-14.484-50.314-2.207c-26.441-7.237-44.768-31.087-44.768-58.701
			c0-34.507,28.821-60.654,57.691-60.654c15.165,0,27.501,12.336,27.501,27.501c0,2.709,2.192,4.902,4.902,4.902
			c2.709,0,4.902-2.192,4.902-4.902c0-19.492-15.035-35.514-34.112-37.142c-3.576-7.836-5.48-16.202-5.48-24.958
			c0-33.57,27.333-60.884,60.932-60.884c0.31,0,0.852-0.064,1.144-0.134c14.734-3.552,29.621,5.572,33.163,20.311
			c0.633,2.633,3.277,4.249,5.912,3.624c2.633-0.637,4.256-3.284,3.624-5.912c-4.301-17.886-20.902-29.612-38.653-28.476
			c2.877-30.936,28.939-55.242,60.592-55.242c1.197,0,2.393,0.043,3.499,0.081c27.845,1.561,49.659,25.361,49.659,54.187v25.822
			c-59.226,2.539-104.588,51.68-104.588,109.359c0,34.561,16.615,67.485,44.441,88.069c14.423,10.665,23.034,27.903,23.034,46.112
			v4.02c-2.552,3.391-4.122,7.559-4.122,12.121c0,8.236,4.954,15.31,12.022,18.479c-1.569,2.547-2.52,5.515-2.52,8.72
			c0,7.655,5.199,14.054,12.23,16.033c1.688,9.781,9.073,17.581,18.629,19.875C245.446,463.081,219.994,480.133,193.615,480.133z
			 M451.415,312.533c-6.697-5.629-15.076-8.71-23.942-8.71c-9.971,0-19.339,3.877-26.38,10.919c-1.915,1.915-1.915,5.017,0,6.931
			c1.915,1.915,5.017,1.915,6.931,0c5.189-5.189,12.096-8.047,19.449-8.047c12.083,0,18.309,7.279,20.224,8.564
			c15.746,26.111,9.779,60.43-15.446,79.586c-13.427,10.196-30.473,14.452-47.16,11.67c-0.003-0.001-0.01-0.001-0.013-0.001
			c-14.63-13.031-37.128-12.574-51.154,1.452c-1.915,1.915-1.915,5.017,0,6.931c1.915,1.915,5.017,1.915,6.931,0
			c10.539-10.539,27.545-10.66,38.306-0.483c-1.14,32.599-27.923,58.787-60.771,58.787c-25.818,0-51.75-16.53-56.615-45.392
			c9.555-2.299,16.937-10.093,18.625-19.869c7.034-1.977,12.236-8.377,12.236-16.035c0-3.205-0.952-6.174-2.521-8.721
			c7.068-3.17,12.023-10.243,12.023-18.478c0-4.56-1.57-8.728-4.122-12.119v-4.018c0-18.219,8.592-35.447,22.991-46.083
			c30.095-22.24,46.638-57.849,44.255-95.254c-3.447-54.149-46.835-98.011-100.917-102.027c-1.151-0.085-2.295-0.118-3.442-0.168
			V86.135c0-28.827,21.809-52.627,49.568-54.183c1.197-0.043,2.389-0.086,3.585-0.086c31.653,0,57.719,24.306,60.596,55.242
			c-17.753-1.135-34.357,10.598-38.658,28.476c-0.632,2.628,0.991,5.275,3.624,5.912c2.635,0.626,5.279-0.991,5.912-3.624
			c3.542-14.739,18.429-23.858,33.168-20.311c0.293,0.07,0.842,0.134,1.144,0.134c33.594,0,60.927,27.314,60.927,60.884
			c0,8.755-1.903,17.116-5.475,24.958c-19.082,1.627-34.118,17.65-34.118,37.143c0,2.709,2.192,4.902,4.902,4.902
			c2.709,0,4.902-2.192,4.902-4.902c0-15.165,12.341-27.501,27.505-27.501c28.768,0,57.687,26.01,57.687,60.654
			C496.174,281.446,477.851,305.293,451.415,312.533z" fill="#707070" class="color242c35 svgShape"></path>
      <path d="M308.73,207.99c-0.823-1.68-2.532-2.743-4.404-2.743h-24.068l14.002-48.788
			c0.426-1.479,0.129-3.068-0.795-4.299c-0.929-1.23-2.374-1.953-3.916-1.953h-54.527c-2.226,0-4.174,1.503-4.739,3.652
			l-20.387,77.461c-0.388,1.47-0.072,3.04,0.857,4.241c0.929,1.206,2.36,1.91,3.882,1.91h27.663l-20.148,71.224
			c-0.641,2.259,0.412,4.653,2.504,5.711c0.704,0.354,1.46,0.527,2.207,0.527c1.479,0,2.925-0.665,3.877-1.896l77.461-99.883
			C309.347,211.676,309.553,209.67,308.73,207.99z M238.449,287.098l15.045-53.192c0.421-1.479,0.12-3.068-0.804-4.294
			c-0.929-1.225-2.374-1.943-3.911-1.943h-27.788l17.807-67.658h44.245l-14.002,48.788c-0.426,1.479-0.129,3.068,0.795,4.299
			c0.929,1.23,2.374,1.953,3.916,1.953h20.569L238.449,287.098z" fill="#707070" class="color242c35 svgShape"></path>
    </g>
  </g>
</svg>
