<svg xmlns="http://www.w3.org/2000/svg" xml:space="preserve" viewBox="0 0 512 512" enable-background="new 0 0 512 512" id="11962813">
  <g id="_x30_3_Profits" fill="#000000" class="color000000 svgShape">
    <g fill="#000000" class="color000000 svgShape">
      <g fill="#000000" class="color000000 svgShape">
        <rect width="58.276" height="95.117" x="28.256" y="299.941" fill="#0966c2" class="color5a83fc svgShape"></rect>
      </g>
      <g fill="#000000" class="color000000 svgShape">
        <rect width="58.276" height="174.827" x="124.042" y="220.23" fill="#ccdff2" class="colord9f2cc svgShape"></rect>
      </g>
      <g fill="#000000" class="color000000 svgShape">
        <rect width="58.276" height="140.666" x="222.508" y="254.392" fill="#aeaeae" class="colorf66866 svgShape"></rect>
      </g>
      <g opacity=".3" fill="#000000" class="color000000 svgShape">
        <g fill="#000000" class="color000000 svgShape">
          <path d="M86.531,299.95v26.352c-3.267-1.333-6.835-2.02-10.575-2.02
					c-16.078,0-29.146,13.068-29.146,29.146v36.841c0,1.634,0.129,3.224,0.43,4.772H28.24V299.95H86.531z" fill="#ffffff" class="colorffffff svgShape"></path>
        </g>
      </g>
      <g opacity=".3" fill="#000000" class="color000000 svgShape">
        <g fill="#000000" class="color000000 svgShape">
          <path d="M182.308,220.251v26.352c-3.267-1.333-6.835-2.021-10.575-2.021
					c-16.077,0-29.103,13.068-29.103,29.146v116.54c0,1.634,0.129,3.224,0.43,4.772H124.06V220.251H182.308z" fill="#ffffff" class="colorffffff svgShape"></path>
        </g>
      </g>
      <g opacity=".3" fill="#000000" class="color000000 svgShape">
        <g fill="#000000" class="color000000 svgShape">
          <path d="M280.793,254.383v26.352c-3.267-1.29-6.835-1.978-10.575-1.978
					c-16.078,0-29.146,13.025-29.146,29.146v82.364c0,1.634,0.129,3.224,0.43,4.772h-19.001V254.383H280.793z" fill="#ffffff" class="colorffffff svgShape"></path>
        </g>
      </g>
      <g fill="#000000" class="color000000 svgShape">
        <rect width="58.276" height="194.922" x="326.333" y="200.135" fill="#707070" class="color576066 svgShape"></rect>
      </g>
      <g fill="#000000" class="color000000 svgShape">
        <circle cx="153.18" cy="66.168" r="28.803" fill="#aeaeae" class="colorf66866 svgShape"></circle>
      </g>
      <g opacity=".3" fill="#000000" class="color000000 svgShape">
        <g fill="#000000" class="color000000 svgShape">
          <path d="M180.89,58.531c-4.858-3.826-10.962-6.061-17.668-6.061c-15.906,0-28.802,12.854-28.802,28.802
					c0,2.622,0.344,5.202,1.032,7.609c-6.749-5.245-11.091-13.455-11.091-22.698c0-15.948,12.896-28.802,28.802-28.802
					C166.446,37.381,177.579,46.323,180.89,58.531z" fill="#ffffff" class="colorffffff svgShape"></path>
        </g>
      </g>
      <g fill="#000000" class="color000000 svgShape">
        <circle cx="54.045" cy="181.38" r="28.803" fill="#ccdff2" class="colord9f2cc svgShape"></circle>
      </g>
      <g opacity=".3" fill="#000000" class="color000000 svgShape">
        <g fill="#000000" class="color000000 svgShape">
          <path d="M80.814,171.503c-4.17-2.364-8.984-3.697-14.143-3.697c-15.906,0-28.802,12.853-28.802,28.802
					c0,3.439,0.602,6.792,1.763,9.844c-8.77-4.943-14.659-14.315-14.659-25.062c0-15.949,12.896-28.802,28.802-28.802
					C66.241,152.588,76.816,160.455,80.814,171.503z" fill="#ffffff" class="colorffffff svgShape"></path>
        </g>
      </g>
      <g fill="#000000" class="color000000 svgShape">
        <circle cx="251.646" cy="142.529" r="28.803" fill="#d9dee3" class="colord9dde3 svgShape"></circle>
      </g>
      <g opacity=".3" fill="#000000" class="color000000 svgShape">
        <g fill="#000000" class="color000000 svgShape">
          <path d="M277.87,130.708c-3.955-2.106-8.468-3.267-13.283-3.267c-15.905,0-28.802,12.896-28.802,28.845
					c0,4.213,0.903,8.168,2.536,11.779c-9.199-4.815-15.475-14.444-15.475-25.535c0-15.906,12.896-28.802,28.802-28.802
					C263.34,113.727,273.399,120.691,277.87,130.708z" fill="#ffffff" class="colorffffff svgShape"></path>
        </g>
      </g>
      <g fill="#000000" class="color000000 svgShape">
        <circle cx="350.782" cy="76.215" r="28.803" fill="#0966c2" class="color5a83fc svgShape"></circle>
      </g>
      <g opacity=".3" fill="#000000" class="color000000 svgShape">
        <g fill="#000000" class="color000000 svgShape">
          <path d="M378.59,68.934c-4.986-4.127-11.349-6.577-18.27-6.577c-15.906,0-28.802,12.896-28.802,28.802
					c0,2.493,0.301,4.944,0.946,7.265c-6.405-5.244-10.489-13.24-10.489-22.225c0-15.906,12.896-28.802,28.802-28.802
					C364.146,47.397,375.409,56.554,378.59,68.934z" fill="#ffffff" class="colorffffff svgShape"></path>
        </g>
      </g>
      <g fill="#000000" class="color000000 svgShape">
        <path d="M379.773,332.003h75.899c45.951,54.852,55.604,97.963,35.564,131.47
				c-4.167,6.968-11.763,11.162-19.882,11.162H364.128c-7.974,0-15.43-4.061-19.668-10.815
				C323.982,431.182,339.115,386.064,379.773,332.003z" fill="#d9dee3" class="colord9dde3 svgShape"></path>
      </g>
      <g opacity=".3" fill="#000000" class="color000000 svgShape">
        <g fill="#000000" class="color000000 svgShape">
          <path d="M470.756,351.45h-10.274c-49.092,0-92.983,33.487-103.085,81.505
					c-3.181,15.175-2.493,29.017,2.579,41.311c-6.362-1.117-11.993-4.9-15.519-10.446c-20.462-32.628-5.33-77.765,35.336-131.8
					h75.873C461.256,338.682,466.285,345.13,470.756,351.45z" fill="#ffffff" class="colorffffff svgShape"></path>
        </g>
      </g>
      <g fill="#000000" class="color000000 svgShape">
        <path d="M452.8,309.392h-70.155c-6.244,0-11.305,5.062-11.305,11.305l0,0
				c0,6.244,5.062,11.305,11.305,11.305H452.8c6.244,0,11.305-5.062,11.305-11.305l0,0
				C464.105,314.453,459.044,309.392,452.8,309.392z" fill="#ffffff" class="colorffffff svgShape"></path>
      </g>
      <g fill="#000000" class="color000000 svgShape">
        <path d="M382.681,275.92c23.135,4.206,46.505,4.236,70.115-0.038c6.219-1.126,11.234,5.078,8.912,10.956
				l-8.909,22.554h-70.155l-8.896-22.522C371.423,280.982,376.453,274.788,382.681,275.92z" fill="#d9dee3" class="colord9dde3 svgShape"></path>
      </g>
      <g opacity=".3" fill="#000000" class="color000000 svgShape">
        <g fill="#000000" class="color000000 svgShape">
          <path d="M461.729,286.839l-1.763,4.471c-2.923-1.548-6.276-2.235-9.93-1.891
					c-12.724,1.29-25.406,1.29-38.001,0.043c-11.134-1.118-19.946,7.867-19.946,18.141c0,0.602,0.043,1.204,0.086,1.805h-9.543
					l-8.898-22.526c-2.321-5.889,2.708-12.08,8.942-10.962c23.127,4.213,46.513,4.256,70.113-0.043
					C459.02,274.76,464.05,280.95,461.729,286.839z" fill="#ffffff" class="colorffffff svgShape"></path>
        </g>
      </g>
      <path d="M54.045 215.084c18.585 0 33.704-15.119 33.704-33.704 0-8.442-3.142-16.149-8.289-22.069l53.701-66.091c5.606 4.16 12.519 6.654 20.02 6.654 10.35 0 19.616-4.699 25.804-12.065l44.719 35.895c-3.636 5.379-5.761 11.859-5.761 18.826 0 18.585 15.122 33.704 33.704 33.704s33.704-15.119 33.704-33.704c0-5.729-1.445-11.123-3.977-15.852l44.164-28.208c6.181 7.002 15.194 11.449 25.245 11.449 18.583 0 33.704-15.119 33.704-33.704S369.366 42.51 350.784 42.51s-33.704 15.119-33.704 33.704c0 5.015 1.132 9.762 3.105 14.043l-44.653 28.52c-6.108-6.142-14.559-9.953-23.884-9.953-8.082 0-15.505 2.865-21.319 7.625l-46.157-37.05c1.743-4.066 2.714-8.538 2.714-13.234 0-18.585-15.119-33.704-33.704-33.704s-33.707 15.119-33.707 33.704c0 7.535 2.516 14.475 6.71 20.095l-54.16 66.659c-5.211-3.304-11.366-5.246-17.979-5.246-18.585 0-33.707 15.119-33.707 33.704S35.46 215.084 54.045 215.084zM350.784 52.314c13.178 0 23.901 10.723 23.901 23.901s-10.723 23.901-23.901 23.901-23.901-10.723-23.901-23.901S337.605 52.314 350.784 52.314zM275.548 142.53c0 13.178-10.723 23.901-23.901 23.901-13.178 0-23.901-10.723-23.901-23.901 0-13.178 10.723-23.901 23.901-23.901C264.826 118.629 275.548 129.351 275.548 142.53zM153.182 42.266c13.178 0 23.901 10.723 23.901 23.901 0 13.181-10.723 23.903-23.901 23.903-13.181 0-23.903-10.723-23.903-23.903C129.278 52.989 140.001 42.266 153.182 42.266zM54.045 157.479c13.178 0 23.901 10.723 23.901 23.901 0 13.178-10.723 23.901-23.901 23.901-13.181 0-23.903-10.723-23.903-23.901C30.142 168.202 40.865 157.479 54.045 157.479zM10.964 399.96c216.21 0 74.854 0 324.876 0-8.542 26.1-7.041 48.12 4.47 66.463 5.146 8.212 14.054 13.114 23.819 13.114h107.226c9.861 0 19.09-5.191 24.088-13.549 21.212-35.463 10.215-80.127-32.487-132.764 3.659-2.974 6.049-7.454 6.049-12.527 0-6.569-3.945-12.21-9.574-14.752l6.836-17.308c1.738-4.39.953-9.389-2.049-13.047-3.021-3.681-7.635-5.373-12.293-4.531-20.797 3.769-41.757 4.067-62.416.982v-71.907c0-2.707-2.192-4.902-4.902-4.902h-58.275c-2.709 0-4.902 2.195-4.902 4.902v190.022h-35.744V254.392c0-2.707-2.192-4.902-4.902-4.902H222.51c-2.709 0-4.902 2.195-4.902 4.902v135.765h-30.387V220.23c0-2.707-2.192-4.902-4.902-4.902h-58.278c-2.707 0-4.902 2.195-4.902 4.902v169.927H91.433v-90.216c0-2.707-2.195-4.902-4.902-4.902H28.256c-2.707 0-4.902 2.195-4.902 4.902v90.216H10.964c-2.707 0-4.902 2.195-4.902 4.902S8.257 399.96 10.964 399.96zM453.376 336.905c41.536 50.219 52.857 91.949 33.652 124.052-3.236 5.414-9.239 8.777-15.672 8.777H364.129c-6.371 0-12.173-3.186-15.519-8.518-17.855-28.463-6.544-70.281 33.618-124.31C455.358 336.905 377.689 336.905 453.376 336.905zM382.645 314.295h70.156c3.528 0 6.4 2.872 6.4 6.402 0 3.533-2.872 6.405-6.4 6.405h-70.156c-3.533 0-6.405-2.872-6.405-6.405C376.24 317.167 379.112 314.295 382.645 314.295zM453.673 280.705c1.594-.306 2.618.675 2.968 1.103.359.443 1.134 1.642.512 3.229l-7.688 19.454h-63.483l-7.673-19.423c-.622-1.584.148-2.779.507-3.219.359-.433 1.393-1.386 2.992-1.106C405.531 285.056 429.71 285.047 453.673 280.705zM331.234 205.037h48.472v65.97c-3.267.377-6.281 1.962-8.468 4.624-2.997 3.652-3.782 8.65-2.044 13.039l6.821 17.274c-5.633 2.542-9.579 8.183-9.579 14.753 0 5.17 2.478 9.73 6.26 12.7-15.148 20.653-26.285 39.56-33.278 56.76h-8.184V205.037zM227.412 259.293h48.472v130.863h-48.472V259.293zM128.943 225.132h48.474v165.025h-48.474V225.132zM33.158 304.843H81.63v85.314H33.158V304.843z" fill="#2c2c2c" class="color242c35 svgShape"></path>
      <path d="M418.255,437.329c-8.023,0-14.552-6.529-14.552-14.554c0-2.707-2.192-4.902-4.902-4.902
			c-2.709,0-4.902,2.195-4.902,4.902c0,11.753,8.364,21.588,19.454,23.862v6.891c0,2.707,2.192,4.902,4.902,4.902
			c2.709,0,4.902-2.195,4.902-4.902v-6.891c11.091-2.274,19.459-12.109,19.459-23.863c0-13.432-10.928-24.358-24.36-24.358
			c-8.023,0-14.552-6.529-14.552-14.555c0-8.025,6.529-14.554,14.552-14.554c8.028,0,14.557,6.529,14.557,14.554
			c0,2.707,2.192,4.902,4.902,4.902c2.709,0,4.902-2.195,4.902-4.902c0-11.754-8.368-21.588-19.459-23.863v-6.891
			c0-2.707-2.192-4.902-4.902-4.902c-2.709,0-4.902,2.195-4.902,4.902V360c-11.09,2.275-19.454,12.109-19.454,23.862
			c0,13.432,10.924,24.358,24.356,24.358c8.028,0,14.557,6.529,14.557,14.555C432.811,430.8,426.282,437.329,418.255,437.329z" fill="#2c2c2c" class="color242c35 svgShape"></path>
    </g>
  </g>
</svg>
