<svg xmlns="http://www.w3.org/2000/svg" xml:space="preserve" viewBox="0 0 512 512" enable-background="new 0 0 512 512" id="11962834">
  <g id="_x32_4_Project" fill="#000000" class="color000000 svgShape">
    <g fill="#000000" class="color000000 svgShape">
      <g fill="#000000" class="color000000 svgShape">
        <rect width="412.691" height="306.57" x="52.147" y="102.715" fill="#ffffff" class="colorffffff svgShape"></rect>
      </g>
      <g fill="#000000" class="color000000 svgShape">
        <path d="M474.559,49.655H37.443c-14.652,0-26.53,11.878-26.53,26.53v0c0,14.652,11.878,26.53,26.53,26.53
				h437.115c14.652,0,26.53-11.878,26.53-26.53v0C501.089,61.533,489.211,49.655,474.559,49.655z" fill="#d9dee3" class="colord9dde3 svgShape"></path>
      </g>
      <g opacity=".3" fill="#000000" class="color000000 svgShape">
        <g fill="#000000" class="color000000 svgShape">
          <path d="M500.794,72.472c-2.843-1.078-5.931-1.666-9.166-1.666H54.489
					c-14.656,0-26.519,11.911-26.519,26.567c0,1.275,0.098,2.5,0.294,3.725c-3.627-1.324-6.911-3.431-9.607-6.127
					c-4.804-4.804-7.745-11.47-7.745-18.774c0-14.656,11.862-26.567,26.518-26.567h437.139c7.304,0,13.97,2.99,18.773,7.794
					C497.313,61.394,500.01,66.639,500.794,72.472z" fill="#ffffff" class="colorffffff svgShape"></path>
        </g>
      </g>
      <g fill="#000000" class="color000000 svgShape">
        <path d="M474.559,409.285H37.443c-14.652,0-26.53,11.878-26.53,26.53v0c0,14.652,11.878,26.53,26.53,26.53
				h437.115c14.652,0,26.53-11.878,26.53-26.53v0C501.089,421.163,489.211,409.285,474.559,409.285z" fill="#d9dee3" class="colord9dde3 svgShape"></path>
      </g>
      <g opacity=".3" fill="#000000" class="color000000 svgShape">
        <g fill="#000000" class="color000000 svgShape">
          <path d="M500.794,432.114c-2.843-1.078-5.931-1.666-9.166-1.666H54.489
					c-14.656,0-26.519,11.911-26.519,26.567c0,1.275,0.098,2.5,0.294,3.676c-3.627-1.324-6.911-3.431-9.607-6.127
					c-4.804-4.804-7.745-11.421-7.745-18.725c0-14.656,11.862-26.567,26.518-26.567h437.139c7.304,0,13.97,2.99,18.773,7.794
					C497.313,421.036,500.01,426.281,500.794,432.114z" fill="#ffffff" class="colorffffff svgShape"></path>
        </g>
      </g>
      <g fill="#000000" class="color000000 svgShape">
        <path d="M243.206,184.224c0,13.321-4.757,25.49-12.695,34.955c-9.991,11.969-25.014,19.581-41.841,19.581
				c-30.123,0-54.536-24.414-54.536-54.536c0-1.978,0.1-3.931,0.3-5.859c2.93-27.368,26.091-48.677,54.236-48.677
				C218.792,129.688,243.206,154.101,243.206,184.224z" fill="#aeaeae" class="colorf66866 svgShape"></path>
      </g>
      <g opacity=".3" fill="#000000" class="color000000 svgShape">
        <g fill="#000000" class="color000000 svgShape">
          <path d="M242.667,176.782c-9.461-16.078-26.96-26.813-46.959-26.813
					c-28.136,0-51.272,21.323-54.213,48.674c-0.196,1.961-0.294,3.873-0.294,5.882c0,2.5,0.147,5,0.539,7.402
					c-4.853-8.088-7.598-17.597-7.598-27.695c0-2.01,0.098-3.921,0.294-5.882c2.941-27.352,26.077-48.674,54.213-48.674
					C216.247,129.676,239.04,150.166,242.667,176.782z" fill="#ffffff" class="colorffffff svgShape"></path>
        </g>
      </g>
      <g fill="#000000" class="color000000 svgShape">
        <path d="M230.511,219.179c-9.991,11.969-25.014,19.581-41.841,19.581
				c-30.123,0-54.536-24.414-54.536-54.536c0-1.978,0.1-3.931,0.3-5.859h54.236L230.511,219.179z" fill="#d9dee3" class="colord9dde3 svgShape"></path>
      </g>
      <g opacity=".3" fill="#000000" class="color000000 svgShape">
        <g fill="#000000" class="color000000 svgShape">
          <path d="M230.511,219.182c-3.48,4.167-7.549,7.794-12.107,10.735l-19.411-18.921
					c-10.098-9.853-23.676-15.392-37.793-15.392h-25.832c-0.834-3.676-1.225-7.45-1.225-11.372c0-2.01,0.098-3.921,0.294-5.882
					h54.213L230.511,219.182z" fill="#ffffff" class="colorffffff svgShape"></path>
        </g>
      </g>
      <g fill="#000000" class="color000000 svgShape">
        <path d="M205.504,275.703v35.179c0,5.506-4.464,9.97-9.97,9.97H95.878c-5.506,0-9.97-4.464-9.97-9.97
				v-35.179c0-5.506,4.464-9.97,9.97-9.97h99.656C201.04,265.733,205.504,270.196,205.504,275.703z" fill="#ccdff2" class="colord9f2cc svgShape"></path>
      </g>
      <g opacity=".3" fill="#000000" class="color000000 svgShape">
        <g fill="#000000" class="color000000 svgShape">
          <path d="M205.512,275.699v8.284c-2.99-1.176-6.225-1.765-9.608-1.765h-64.507
					c-7.598,0-14.509,3.088-19.46,8.039c-5,5-8.088,11.862-8.088,19.509c0,3.921,0.833,7.696,2.304,11.078H95.86
					c-5.49,0-9.951-4.461-9.951-9.951v-35.195c0-5.49,4.461-9.951,9.951-9.951h99.653
					C201.051,265.749,205.512,270.209,205.512,275.699z" fill="#ffffff" class="colorffffff svgShape"></path>
        </g>
      </g>
      <g fill="#000000" class="color000000 svgShape">
        <path d="M433.199,147.274v14.117c0,6.064-4.916,10.98-10.98,10.98h-70.562
				c-6.064,0-10.98-4.916-10.98-10.98v-14.117c0-6.064,4.916-10.98,10.98-10.98h70.562
				C428.283,136.294,433.199,141.209,433.199,147.274z" fill="#707070" class="color576066 svgShape"></path>
      </g>
      <g fill="#000000" class="color000000 svgShape">
        <path d="M412.435,338.507c-1.047,3.693-2.536,7.248-4.355,10.556l7.552,7.552l-21.387,21.359l-7.552-7.552
				c-3.307,1.846-6.835,3.307-10.528,4.382v10.666h-30.234v-10.666c-3.693-1.075-7.221-2.536-10.556-4.354l-7.524,7.524
				l-21.387-21.359l7.552-7.552c-1.819-3.307-3.307-6.863-4.355-10.556h-10.693V308.3h10.693c1.047-3.693,2.536-7.248,4.355-10.556
				l-7.552-7.552l21.387-21.359l7.524,7.524c3.335-1.819,6.863-3.28,10.556-4.355v-10.666h30.234v10.666
				c3.693,1.075,7.221,2.535,10.528,4.382l7.552-7.552l21.387,21.359l-7.552,7.552c1.819,3.307,3.307,6.863,4.355,10.556h10.666
				v30.206H412.435z" fill="#0966c2" class="color5a83fc svgShape"></path>
      </g>
      <g opacity=".3" fill="#000000" class="color000000 svgShape">
        <g fill="#000000" class="color000000 svgShape">
          <path d="M415.659,290.22l-5.001,5.001c-9.553-5.282-20.567-8.316-32.255-8.316
					c-34.053,0-62.206,25.512-66.195,58.553c-1.012-2.248-1.854-4.552-2.529-6.968h-10.733v-30.176h10.733
					c1.011-3.709,2.529-7.249,4.327-10.564l-7.53-7.53l21.353-21.41l7.53,7.53c3.371-1.798,6.855-3.259,10.564-4.327v-10.676h30.232
					v10.676c3.709,1.068,7.249,2.529,10.564,4.383l7.53-7.586L415.659,290.22z" fill="#ffffff" class="colorffffff svgShape"></path>
        </g>
      </g>
      <g fill="#000000" class="color000000 svgShape">
        <circle cx="361.047" cy="323.404" r="30.206" fill="#ffffff" class="colorffffff svgShape"></circle>
      </g>
      <path d="M474.559,107.617c17.333,0,31.431-14.1,31.431-31.431c0-17.333-14.097-31.433-31.431-31.433H37.441
			c-17.333,0-31.431,14.1-31.431,31.433c0,17.331,14.097,31.431,31.431,31.431h9.804v296.767h-9.804
			c-17.333,0-31.431,14.1-31.431,31.433c0,17.331,14.097,31.431,31.431,31.431h437.118c17.333,0,31.431-14.1,31.431-31.431
			c0-17.333-14.097-31.433-31.431-31.433h-4.82V107.617H474.559z M15.814,76.186c0-11.926,9.703-21.629,21.627-21.629h437.118
			c11.924,0,21.627,9.703,21.627,21.629c0,11.924-9.703,21.627-21.627,21.627c-67.014,0-330.104,0-437.118,0
			C25.517,97.813,15.814,88.11,15.814,76.186z M496.186,435.816c0,11.924-9.703,21.627-21.627,21.627H37.441
			c-11.924,0-21.627-9.703-21.627-21.627c0-11.926,9.703-21.629,21.627-21.629c40.037,0,375.146,0,437.118,0
			C486.483,414.187,496.186,423.89,496.186,435.816z M459.935,404.383H57.048V107.617h402.887V404.383z" fill="#2c2c2c" class="color242c35 svgShape"></path>
      <path d="M78.536 183.266h50.747c-.53 33.844 26.849 60.396 59.385 60.396 17.209 0 32.911-7.37 43.966-19.581h53.839c2.709 0 4.902-2.195 4.902-4.902s-2.192-4.902-4.902-4.902h-46.555c5.313-9.056 8.189-19.435 8.189-30.054 0-13.145-4.341-25.266-11.594-35.119l18.009-14.514h49.98c2.709 0 4.902-2.195 4.902-4.902 0-2.707-2.192-4.902-4.902-4.902h-51.708c-1.12 0-2.207.383-3.078 1.084l-19.621 15.813c-10.715-10.436-25.321-16.897-41.426-16.897-28.96 0-53.317 20.636-58.429 48.675H78.536c-2.709 0-4.902 2.195-4.902 4.902C73.635 181.071 75.827 183.266 78.536 183.266zM139.086 183.266h47.586l36.991 36.082c-9.395 9.395-22.303 14.511-34.994 14.511C161.378 233.858 138.586 211.571 139.086 183.266zM188.668 134.591c13.019 0 24.848 5.079 33.711 13.31l-17.407 14.028c-2.106 1.699-2.437 4.784-.737 6.893 1.685 2.094 4.765 2.45 6.893.742l17.757-14.312c5.899 8.163 9.418 18.154 9.418 28.971 0 9.838-2.966 19.423-8.385 27.531l-37.828-36.899c-.914-.893-2.145-1.393-3.423-1.393h-48.449C145.165 150.962 165.091 134.591 188.668 134.591zM340.675 206.621h88.437c2.709 0 4.902-2.195 4.902-4.902 0-2.707-2.192-4.902-4.902-4.902h-88.437c-2.709 0-4.902 2.195-4.902 4.902C335.773 204.426 337.966 206.621 340.675 206.621zM340.675 240.402h56.432c2.709 0 4.902-2.195 4.902-4.902 0-2.707-2.192-4.902-4.902-4.902h-56.432c-2.709 0-4.902 2.195-4.902 4.902C335.773 238.207 337.966 240.402 340.675 240.402zM302.997 293.658l5.041 5.038c-.723 1.546-1.374 3.116-1.943 4.703h-7.128c-2.709 0-4.902 2.195-4.902 4.902v30.205c0 2.707 2.192 4.902 4.902 4.902h7.128c.57 1.587 1.221 3.157 1.943 4.701l-5.041 5.038c-1.923 1.923-1.906 5.028 0 6.934l21.388 21.361c1.915 1.91 5.017 1.912 6.931-.002l5.021-5.019c1.532.713 3.102 1.359 4.691 1.936v7.113c0 2.707 2.192 4.902 4.902 4.902h30.234c2.709 0 4.902-2.195 4.902-4.902v-7.113c1.599-.582 3.164-1.23 4.686-1.946l5.026 5.029c1.915 1.915 5.017 1.912 6.931.002l21.388-21.361c1.907-1.907 1.921-5.013 0-6.934l-5.041-5.038c.723-1.544 1.374-3.114 1.943-4.701h7.099c2.709 0 4.902-2.195 4.902-4.902v-30.205c0-2.707-2.192-4.902-4.902-4.902h-7.099c-.57-1.587-1.221-3.157-1.943-4.703l5.041-5.038c1.907-1.907 1.921-5.013 0-6.934l-21.388-21.359c-1.915-1.91-5.017-1.912-6.931.002l-5.026 5.026c-1.522-.716-3.088-1.364-4.686-1.946v-7.111c0-2.707-2.192-4.902-4.902-4.902h-30.234c-2.709 0-4.902 2.195-4.902 4.902v7.111c-1.589.577-3.159 1.225-4.691 1.939l-5.021-5.019c-1.915-1.915-5.017-1.912-6.931-.002l-21.388 21.359C301.075 288.647 301.092 291.752 302.997 293.658zM314.376 309.639c.924-3.26 2.25-6.467 3.935-9.533 1.053-1.912.713-4.287-.828-5.828l-4.083-4.083 14.452-14.432 4.059 4.062c1.537 1.541 3.911 1.874 5.811.838 3.04-1.659 6.266-2.987 9.579-3.954 2.092-.608 3.533-2.525 3.533-4.706v-5.763h20.43v5.763c0 2.18 1.441 4.098 3.533 4.708 3.356.974 6.553 2.305 9.512 3.956 1.92 1.065 4.308.74 5.854-.816l4.088-4.086 14.447 14.43-4.083 4.083c-1.541 1.541-1.881 3.916-.828 5.828 1.685 3.066 3.011 6.273 3.935 9.533.598 2.109 2.523 3.564 4.715 3.564h5.763v20.402h-5.763c-2.192 0-4.117 1.455-4.715 3.564-.924 3.26-2.25 6.467-3.935 9.531-1.053 1.91-.713 4.287.828 5.828l4.083 4.083-14.447 14.432-4.088-4.086c-1.551-1.551-3.94-1.879-5.854-.816-2.949 1.647-6.151 2.977-9.512 3.954-2.092.61-3.533 2.527-3.533 4.708v5.766h-20.43v-5.766c0-2.18-1.441-4.098-3.533-4.706-3.322-.967-6.544-2.298-9.579-3.952-1.9-1.036-4.265-.701-5.811.838l-4.059 4.062-14.452-14.435 4.083-4.083c1.541-1.541 1.881-3.918.828-5.828-1.685-3.064-3.011-6.271-3.935-9.531-.598-2.109-2.523-3.564-4.715-3.564h-5.792v-20.402h5.792C311.853 313.203 313.778 311.748 314.376 309.639z" fill="#2c2c2c" class="color242c35 svgShape"></path>
      <path d="M361.048 358.511c19.358 0 35.107-15.749 35.107-35.107 0-19.361-15.749-35.109-35.107-35.109-19.358 0-35.107 15.749-35.107 35.109C325.941 342.762 341.69 358.511 361.048 358.511zM361.048 298.098c13.954 0 25.303 11.352 25.303 25.306 0 13.951-11.35 25.303-25.303 25.303s-25.303-11.352-25.303-25.303C335.745 309.45 347.094 298.098 361.048 298.098zM95.879 325.754h99.653c8.2 0 14.873-6.673 14.873-14.873v-35.179c0-8.2-6.673-14.873-14.873-14.873H95.879c-8.2 0-14.873 6.673-14.873 14.873v35.179C81.006 319.081 87.679 325.754 95.879 325.754zM90.81 275.703c0-2.796 2.274-5.069 5.069-5.069h99.653c2.796 0 5.069 2.274 5.069 5.069v35.179c0 2.796-2.274 5.069-5.069 5.069H95.879c-2.796 0-5.069-2.274-5.069-5.069V275.703zM241.256 341.726H89.412c-2.709 0-4.902 2.195-4.902 4.902 0 2.707 2.192 4.902 4.902 4.902h151.844c2.709 0 4.902-2.195 4.902-4.902C246.158 343.92 243.966 341.726 241.256 341.726zM165.332 371.256h-75.92c-2.709 0-4.902 2.195-4.902 4.902 0 2.707 2.192 4.902 4.902 4.902h75.92c2.709 0 4.902-2.195 4.902-4.902C170.234 373.451 168.041 371.256 165.332 371.256zM351.656 177.273h70.563c8.76 0 15.883-7.125 15.883-15.883v-14.116c0-8.758-7.123-15.88-15.883-15.88h-70.563c-8.76 0-15.883 7.123-15.883 15.88v14.116C335.773 170.147 342.896 177.273 351.656 177.273zM345.577 147.273c0-3.351 2.729-6.077 6.079-6.077h70.563c3.351 0 6.079 2.726 6.079 6.077v14.116c0 3.353-2.729 6.079-6.079 6.079h-70.563c-3.351 0-6.079-2.726-6.079-6.079V147.273z" fill="#2c2c2c" class="color242c35 svgShape"></path>
    </g>
  </g>
</svg>
