<svg xmlns="http://www.w3.org/2000/svg" xml:space="preserve" viewBox="0 0 512 512" enable-background="new 0 0 512 512" id="11962836">
  <g id="_x32_6_Prototype" fill="#000000" class="color000000 svgShape">
    <g fill="#000000" class="color000000 svgShape">
      <g fill="#000000" class="color000000 svgShape">
        <path d="M485.414,114.647c-3.19,3.071-7.988,2.947-11.199,0c-3.11-2.855-2.99-8.32,0-11.199
				c5.851-5.632,11.592-11.375,17.307-17.145H27.628v20.097H10.913v250.137c0,12.352,5,23.528,13.088,31.616
				c8.088,8.088,19.264,13.088,31.616,13.088h400.768c12.353,0,23.528-5,31.616-13.088c8.088-8.088,13.088-19.264,13.088-31.616
				V99.123C495.908,104.343,490.713,109.547,485.414,114.647z" fill="#ffffff" class="colorffffff svgShape"></path>
      </g>
      <g fill="#000000" class="color000000 svgShape">
        <path d="M98.948,18.904v292.929H55.617c-24.705,0-44.704,19.999-44.704,44.704V106.94
				c0-7.107,0.833-14.019,2.451-20.636C22.628,47.629,57.43,18.904,98.948,18.904z" fill="#aeaeae" class="colorf66866 svgShape"></path>
      </g>
      <g opacity=".3" fill="#000000" class="color000000 svgShape">
        <g fill="#000000" class="color000000 svgShape">
          <path d="M98.948,18.909V46.31c-28.675,9.46-50.831,33.283-57.939,62.939
					c-1.618,6.617-2.451,13.529-2.451,20.636V315.22c-16.225,6.667-27.646,22.646-27.646,41.322V106.945
					c0-7.107,0.833-14.019,2.451-20.636C22.628,47.633,57.43,18.909,98.948,18.909z" fill="#ffffff" class="colorffffff svgShape"></path>
        </g>
      </g>
      <g fill="#000000" class="color000000 svgShape">
        <path d="M413.053,18.904v292.929h43.332c24.705,0,44.704,19.999,44.704,44.704V106.94
				c0-7.107-0.833-14.019-2.451-20.636C489.373,47.629,454.571,18.904,413.053,18.904z" fill="#aeaeae" class="colorf66866 svgShape"></path>
      </g>
      <g opacity=".3" fill="#000000" class="color000000 svgShape">
        <g fill="#000000" class="color000000 svgShape">
          <path d="M501.088,106.945v249.598c0-19.705-12.744-36.42-30.44-42.351V134.296
					c0-7.108-0.833-14.019-2.451-20.636c-6.862-28.675-27.793-51.909-55.145-61.958V18.909c41.518,0,76.32,28.724,85.585,67.399
					C500.255,92.926,501.088,99.837,501.088,106.945z" fill="#ffffff" class="colorffffff svgShape"></path>
        </g>
      </g>
      <g fill="#000000" class="color000000 svgShape">
        <path d="M413.053,311.833h43.332c24.705,0,44.704,19.999,44.704,44.704c0,12.352-5,23.528-13.088,31.616
				c-8.088,8.088-19.264,13.088-31.616,13.088h-43.332" fill="#ffffff" class="colorffffff svgShape"></path>
      </g>
      <g fill="#000000" class="color000000 svgShape">
        <path d="M270.527,225.223c-1.362,4.804-3.298,9.429-5.665,13.731l9.823,9.823l-27.82,27.785l-9.823-9.823
				c-4.302,2.402-8.891,4.302-13.695,5.7v13.874h-39.329v-13.874c-4.804-1.398-9.393-3.298-13.731-5.664l-9.788,9.787l-27.82-27.785
				l9.823-9.823c-2.366-4.302-4.302-8.927-5.665-13.731h-13.91V185.93h13.91c1.362-4.804,3.298-9.429,5.665-13.731l-9.823-9.823
				l27.82-27.785l9.788,9.787c4.338-2.366,8.927-4.266,13.731-5.665V124.84h39.329v13.874c4.804,1.398,9.393,3.298,13.695,5.7
				l9.823-9.823l27.82,27.785l-9.823,9.823c2.366,4.302,4.302,8.927,5.665,13.731h13.874v39.293H270.527z" fill="#0966c2" class="color5a83fc svgShape"></path>
      </g>
      <g opacity=".3" fill="#000000" class="color000000 svgShape">
        <g fill="#000000" class="color000000 svgShape">
          <path d="M274.72,162.412l-6.506,6.506c-12.427-6.871-26.753-10.818-41.958-10.818
					c-44.297,0-80.918,33.186-86.108,76.167c-1.316-2.924-2.412-5.921-3.289-9.064h-13.962v-39.253h13.962
					c1.316-4.825,3.289-9.429,5.628-13.742l-9.795-9.795l27.777-27.85l9.795,9.795c4.386-2.339,8.918-4.24,13.742-5.629V124.84
					h39.326v13.888c4.825,1.389,9.43,3.289,13.742,5.702l9.795-9.868L274.72,162.412z" fill="#ffffff" class="colorffffff svgShape"></path>
        </g>
      </g>
      <g fill="#000000" class="color000000 svgShape">
        <circle cx="203.681" cy="205.577" r="39.293" fill="#ffffff" class="colorffffff svgShape"></circle>
      </g>
      <g fill="#000000" class="color000000 svgShape">
        <line x1="132.476" x2="333.056" y1="358.89" y2="358.89" fill="#fff"></line>
      </g>
      <g fill="#000000" class="color000000 svgShape">
        <path d="M397.492,493.093H156.864l-71.503-29.148l71.503-29.148h240.629
				c16.098,0,29.148,13.05,29.148,29.148v0C426.64,480.043,413.59,493.093,397.492,493.093z" fill="#d9dee3" class="colord9dde3 svgShape"></path>
      </g>
      <g opacity=".3" fill="#000000" class="color000000 svgShape">
        <g fill="#000000" class="color000000 svgShape">
          <path d="M397.475,493.11h-47.743c1.814-3.774,2.794-7.99,2.794-12.402
					c0-16.078-13.039-29.166-29.165-29.166h-207.59l41.077-16.764h240.627c16.127,0,29.166,13.088,29.166,29.166
					c0,8.039-3.235,15.342-8.529,20.587C412.817,489.826,405.563,493.11,397.475,493.11z" fill="#ffffff" class="colorffffff svgShape"></path>
        </g>
      </g>
      <g fill="#000000" class="color000000 svgShape">
        <path d="M362.792,493.093h34.7c16.098,0,29.148-13.05,29.148-29.148v0
				c0-16.098-13.05-29.148-29.148-29.148h-34.7V493.093z" fill="#ffffff" class="colorffffff svgShape"></path>
      </g>
      <g fill="#000000" class="color000000 svgShape">
        <polygon points="156.107 435.105 85.361 463.945 156.107 492.784" fill="#ffffff" class="colorffffff svgShape"></polygon>
      </g>
      <g fill="#000000" class="color000000 svgShape">
        <polygon points="127.337 446.833 85.361 463.945 127.337 481.056" fill="#707070" class="color576066 svgShape"></polygon>
      </g>
      <path d="M413.052,14.004c-2.707,0-4.902,2.192-4.902,4.902v62.497H103.849V18.906
			c0-2.709-2.195-4.902-4.902-4.902c-52.036,0-92.937,41.977-92.937,92.937c0,57.872,0,197.712,0,249.597
			c0,27.414,22.168,49.606,49.606,49.606c48.81,0,350.023,0,400.766,0c27.419,0,49.606-22.167,49.606-49.606
			c0-50.362,0-197.362,0-249.597C505.99,55.941,465.036,14.004,413.052,14.004z M417.954,23.952
			c44.306,2.557,78.232,39.105,78.232,82.99c0,52.222,0,167.979,0,220.024c-9.128-12.246-24.019-20.033-39.803-20.033h-38.429
			V23.952z M15.814,106.942c0-43.96,33.983-80.436,78.232-82.99v282.981H55.617c-15.678,0-30.576,7.655-39.803,20.033
			C15.814,253.743,15.814,180.412,15.814,106.942z M456.383,396.342c-45.616,0-355.119,0-400.766,0
			c-21.957,0-39.803-17.738-39.803-39.803c0-21.948,17.855-39.803,39.803-39.803h43.331c2.707,0,4.902-2.192,4.902-4.902V91.207
			h304.301v220.627c0,2.709,2.195,4.902,4.902,4.902h43.331c21.948,0,39.803,17.855,39.803,39.803
			C496.186,378.538,478.404,396.342,456.383,396.342z" fill="#2c2c2c" class="color242c35 svgShape"></path>
      <path d="M136.503,238.021l-7.288,7.29c-1.913,1.913-1.916,5.023,0.002,6.936l27.819,27.783
			c1.915,1.905,5.014,1.91,6.929-0.005l7.264-7.262c2.563,1.235,5.199,2.326,7.886,3.255v10.297c0,2.709,2.195,4.902,4.902,4.902
			h39.329c2.707,0,4.902-2.192,4.902-4.902v-10.297c2.707-0.938,5.34-2.034,7.872-3.269l7.281,7.276
			c1.915,1.915,5.014,1.91,6.929,0.005l27.819-27.783c1.911-1.906,1.922-5.016,0.002-6.936l-7.288-7.29
			c1.252-2.58,2.341-5.218,3.262-7.894h10.275c2.707,0,4.902-2.192,4.902-4.902V185.93c0-2.709-2.195-4.902-4.902-4.902h-10.275
			c-0.921-2.681-2.01-5.318-3.262-7.894l7.288-7.29c1.905-1.905,1.924-5.01-0.002-6.931l-27.819-27.788
			c-1.91-1.915-5.014-1.915-6.929,0l-7.281,7.276c-2.527-1.235-5.16-2.326-7.872-3.269V124.84c0-2.709-2.195-4.902-4.902-4.902
			h-39.329c-2.707,0-4.902,2.192-4.902,4.902v10.292c-2.695,0.938-5.33,2.025-7.886,3.255l-7.264-7.262
			c-1.915-1.915-5.019-1.915-6.929,0l-27.819,27.788c-1.931,1.926-1.903,5.031-0.002,6.931l7.288,7.29
			c-1.252,2.58-2.343,5.218-3.262,7.894h-10.313c-2.707,0-4.902,2.192-4.902,4.902v39.295c0,2.709,2.195,4.902,4.902,4.902h10.313
			C134.16,232.803,135.251,235.44,136.503,238.021z M127.829,190.832h9.009c2.192,0,4.117-1.455,4.715-3.566
			c1.235-4.351,2.999-8.621,5.244-12.7c1.053-1.91,0.716-4.289-0.828-5.83l-6.355-6.357l20.883-20.856l6.326,6.323
			c1.539,1.537,3.904,1.876,5.816,0.838c4.019-2.197,8.31-3.968,12.752-5.266c2.092-0.613,3.528-2.527,3.528-4.705v-8.971h29.525
			v8.971c0,2.178,1.438,4.098,3.528,4.705c4.497,1.312,8.762,3.088,12.678,5.275c1.92,1.067,4.311,0.737,5.857-0.814l6.362-6.357
			l20.883,20.856l-6.355,6.357c-1.544,1.541-1.881,3.92-0.828,5.83c2.24,4.069,4.004,8.344,5.244,12.704
			c0.598,2.106,2.525,3.561,4.715,3.561h8.971v29.492h-8.971c-2.19,0-4.117,1.455-4.715,3.561
			c-1.237,4.351-3.001,8.626-5.244,12.704c-1.053,1.915-0.713,4.289,0.828,5.83l6.355,6.357l-20.883,20.852l-6.362-6.357
			c-1.546-1.546-3.937-1.881-5.857-0.814c-3.932,2.197-8.198,3.973-12.673,5.275c-2.092,0.608-3.533,2.527-3.533,4.705v8.975
			h-29.525v-8.975c0-2.178-1.438-4.098-3.533-4.705c-4.418-1.288-8.707-3.054-12.752-5.261c-1.912-1.044-4.275-0.694-5.811,0.838
			l-6.326,6.319l-20.883-20.852l6.355-6.357c1.541-1.541,1.881-3.916,0.828-5.83c-2.247-4.083-4.011-8.358-5.244-12.7
			c-0.598-2.111-2.523-3.566-4.715-3.566h-9.009V190.832z" fill="#2c2c2c" class="color242c35 svgShape"></path>
      <path d="M203.682 249.772c24.368 0 44.192-19.827 44.192-44.197s-19.825-44.192-44.192-44.192c-24.37 0-44.195 19.822-44.195 44.192S179.312 249.772 203.682 249.772zM203.682 171.186c18.963 0 34.389 15.428 34.389 34.389 0 18.966-15.426 34.394-34.389 34.394s-34.391-15.428-34.391-34.394C169.291 186.614 184.719 171.186 203.682 171.186zM384.82 131.647h-76.468c-2.707 0-4.902 2.192-4.902 4.902s2.195 4.902 4.902 4.902h76.468c2.707 0 4.902-2.192 4.902-4.902S387.526 131.647 384.82 131.647zM308.352 178.505h38.233c2.707 0 4.902-2.192 4.902-4.902s-2.195-4.902-4.902-4.902h-38.233c-2.707 0-4.902 2.192-4.902 4.902S305.645 178.505 308.352 178.505zM384.82 205.757h-76.468c-2.707 0-4.902 2.192-4.902 4.902s2.195 4.902 4.902 4.902h76.468c2.707 0 4.902-2.192 4.902-4.902S387.526 205.757 384.82 205.757zM308.352 252.62h38.233c2.707 0 4.902-2.192 4.902-4.902 0-2.709-2.195-4.902-4.902-4.902h-38.233c-2.707 0-4.902 2.192-4.902 4.902C303.45 250.428 305.645 252.62 308.352 252.62zM384.82 279.872h-76.468c-2.707 0-4.902 2.192-4.902 4.902 0 2.709 2.195 4.902 4.902 4.902h76.468c2.707 0 4.902-2.192 4.902-4.902C389.721 282.065 387.526 279.872 384.82 279.872zM132.477 316.932c-2.707 0-4.902 2.192-4.902 4.902 0 2.709 2.195 4.902 4.902 4.902h126.17c2.707 0 4.902-2.192 4.902-4.902 0-2.709-2.195-4.902-4.902-4.902H132.477zM333.057 353.987h-200.58c-2.707 0-4.902 2.192-4.902 4.902 0 2.709 2.195 4.902 4.902 4.902h200.58c2.707 0 4.902-2.192 4.902-4.902C337.958 356.18 335.764 353.987 333.057 353.987zM155.014 497.632c.586.239 1.216.364 1.85.364 50.131 0 188.718 0 240.629 0 18.774 0 34.049-15.275 34.049-34.049 0-18.779-15.275-34.054-34.049-34.054-52.307 0-190.563 0-240.629 0-.634 0-1.264.124-1.85.364L83.51 459.409c-1.845.752-3.052 2.547-3.052 4.538s1.206 3.786 3.052 4.538L155.014 497.632zM98.347 463.947l24.088-9.821v19.638L98.347 463.947zM132.238 450.129l18.968-7.733v43.096l-18.968-7.731V450.129zM161.009 468.848h196.882v19.344H161.009V468.848zM357.891 459.045H161.009v-19.349h196.882V459.045zM397.493 439.696c13.37 0 24.245 10.881 24.245 24.25s-10.876 24.246-24.245 24.246h-29.798v-48.496H397.493z" fill="#2c2c2c" class="color242c35 svgShape"></path>
    </g>
  </g>
</svg>
