<svg xmlns="http://www.w3.org/2000/svg" xml:space="preserve" viewBox="0 0 512 512" enable-background="new 0 0 512 512" id="11962849">
  <g id="_x33_9_Puzzle" fill="#0966c2" class="color000000 svgShape">
    <g fill="#0966c2" class="color000000 svgShape">
      <g fill="#0966c2" class="color000000 svgShape">
        <path d="M312.445,254.85c-20.599,0-37.268-18.973-37.268-42.35c0-1.694,0.068-3.456,0.271-5.082h-61.255
				v-61.12c21.819-1.491,38.962-17.55,38.962-37.132s-17.143-35.642-38.962-37.132v-61.12h164.521
				c17.664,0,31.983,14.319,31.983,31.983v164.521h-61.255c0.203,1.626,0.271,3.388,0.271,5.082
				C349.713,235.878,333.044,254.85,312.445,254.85z" fill="#aeaeae" class="colorf66866 svgShape"></path>
      </g>
      <g opacity=".3" fill="#0966c2" class="color000000 svgShape">
        <g fill="#0966c2" class="color000000 svgShape">
          <path d="M410.7,42.874v164.552h-47.645v-81.565c0-37.155-30.146-67.301-67.301-67.301h-81.565V10.915
					h164.503C396.387,10.915,410.7,25.228,410.7,42.874z" fill="#ffffff" class="colorffffff svgShape"></path>
        </g>
      </g>
      <g fill="#0966c2" class="color000000 svgShape">
        <path d="M261.489,109.166c0,20.599-18.973,37.268-42.35,37.268c-1.694,0-3.456-0.068-5.082-0.271v61.255
				h-61.12c-1.491-21.819-17.55-38.962-37.132-38.962S80.163,185.6,78.673,207.418h-61.12V42.897
				c0-17.664,14.319-31.983,31.983-31.983h164.521v61.255c1.626-0.203,3.388-0.271,5.082-0.271
				C242.517,71.899,261.489,88.567,261.489,109.166z" fill="#ccdff2" class="colord9f2cc svgShape"></path>
      </g>
      <g opacity=".3" fill="#0966c2" class="color000000 svgShape">
        <g fill="#0966c2" class="color000000 svgShape">
          <path d="M214.041,10.915v35.44c-0.882-0.098-1.765-0.147-2.647-0.147h-93.918
					c-37.155,0-67.301,30.146-67.301,67.301v93.918H17.53V42.874c0-17.646,14.362-31.959,32.009-31.959H214.041z" fill="#ffffff" class="colorffffff svgShape"></path>
        </g>
      </g>
      <g fill="#0966c2" class="color000000 svgShape">
        <path d="M115.805,158.902c20.599,0,37.268,18.973,37.268,42.35c0,1.694-0.068,3.456-0.271,5.082h61.255
				l0,61.12c-21.819,1.491-38.962,17.55-38.962,37.132c0,19.583,17.143,35.642,38.962,37.132l0,61.12H49.536
				c-17.664,0-31.983-14.319-31.983-31.983l0-164.521h61.255c-0.203-1.626-0.271-3.388-0.271-5.082
				C78.537,177.875,95.206,158.902,115.805,158.902z" fill="#707070" class="color576066 svgShape"></path>
      </g>
      <g fill="#0966c2" class="color000000 svgShape">
        <path d="M250.512,402.838c0-20.599,18.973-37.268,42.35-37.268c1.694,0,3.456,0.068,5.082,0.271v-61.255
				h61.12c1.491,21.819,17.55,38.962,37.132,38.962s35.642-17.143,37.132-38.962h61.12l0,164.521
				c0,17.664-14.319,31.983-31.983,31.983l-164.521,0l0-61.255c-1.626,0.203-3.388,0.271-5.082,0.271
				C269.485,440.106,250.512,423.438,250.512,402.838z" fill="#d9dee3" class="colord9dde3 svgShape"></path>
      </g>
      <g opacity=".3" fill="#0966c2" class="color000000 svgShape">
        <g fill="#0966c2" class="color000000 svgShape">
          <path d="M494.471,304.579v164.552c0,17.646-14.362,31.96-32.009,31.96H297.96v-34.116h92.888
					c37.155,0,67.301-30.146,67.301-67.301v-93.869c0-0.392,0-0.833-0.049-1.225H494.471z" fill="#ffffff" class="colorffffff svgShape"></path>
        </g>
      </g>
      <path d="M378.716,6.01c-73.512,0-281.17,0-329.179,0c-20.339,0-36.888,16.548-36.888,36.888
			c0,37.074,0,290.88,0,327.958c0,20.339,16.548,36.883,36.888,36.883h164.52c2.709,0,4.902-2.192,4.902-4.902v-61.119
			c0-2.575-1.996-4.715-4.567-4.892c-19.286-1.316-34.394-15.476-34.394-32.24c0-16.764,15.107-30.923,34.394-32.24
			c2.571-0.177,4.567-2.317,4.567-4.892V212.32h51.315v0.182c0,26.055,18.918,47.251,42.172,47.251
			c23.25,0,42.168-21.196,42.168-47.251v-0.182h56.083c2.709,0,4.902-2.192,4.902-4.902V42.898
			C415.599,22.559,399.056,6.01,378.716,6.01z M49.537,15.814h159.618V72.17c0,1.403,0.603,2.743,1.656,3.672
			c1.053,0.933,2.465,1.359,3.849,1.192c20.432-2.528,41.928,11.635,41.928,32.134c0,20.5-21.508,34.661-41.928,32.134
			c-1.383-0.163-2.796,0.258-3.849,1.192c-1.053,0.929-1.656,2.269-1.656,3.672v55.269h-51.181c0-0.062,0-0.12,0-0.182
			c0-26.055-18.918-47.251-42.168-47.251c-23.255,0-42.172,21.196-42.172,47.251c0,0.062,0,0.12,0,0.182H22.453V42.898
			C22.453,27.963,34.602,15.814,49.537,15.814z M209.156,263.08c-22.182,3.499-38.96,20.995-38.96,41.507
			s16.778,38.008,38.96,41.507v51.842H49.537c-14.935,0-27.084-12.149-27.084-27.079V211.238h56.356
			c1.407,0,2.748-0.603,3.676-1.661c0.933-1.053,1.364-2.46,1.187-3.853c-2.569-20.215,11.523-41.919,32.134-41.919
			c20.648,0,34.692,21.759,32.129,41.919c-0.177,1.393,0.254,2.8,1.187,3.853c0.929,1.058,2.269,1.661,3.676,1.661h56.356V263.08z
			 M405.796,202.516H349.44c-1.407,0-2.748,0.603-3.676,1.661c-0.933,1.053-1.364,2.46-1.187,3.853
			c2.562,20.16-11.482,41.919-32.129,41.919c-20.616,0-34.703-21.71-32.134-41.919c0.177-1.393-0.254-2.8-1.187-3.853
			c-0.929-1.058-2.269-1.661-3.676-1.661h-56.356v-51.181h0.048c26.055,0,47.251-18.918,47.251-42.168
			c0-23.255-21.196-42.172-47.251-42.172h-0.048V15.814h159.623c14.93,0,27.079,12.149,27.079,27.084V202.516z" fill="#2c2c2c" class="color242c35 svgShape"></path>
      <path d="M297.943,505.99h164.525c20.34,0,36.883-16.543,36.883-36.883v-164.52
			c0-2.709-2.192-4.902-4.902-4.902H433.33c-2.575,0-4.715,1.996-4.892,4.567c-1.316,19.286-15.481,34.394-32.24,34.394
			c-16.764,0-30.928-15.107-32.244-34.394c-0.177-2.571-2.317-4.567-4.892-4.567h-61.119c-2.709,0-4.902,2.192-4.902,4.902v56.083
			c-0.057,0-0.12,0-0.177,0c-26.055,0-47.251,18.918-47.251,42.168c0,23.255,21.196,42.172,47.251,42.172c0.057,0,0.12,0,0.177,0
			v56.078C293.041,503.797,295.233,505.99,297.943,505.99z M255.416,402.837c0-20.499,21.507-34.661,41.923-32.134
			c1.398,0.168,2.8-0.258,3.849-1.192c1.053-0.929,1.656-2.264,1.656-3.672v-56.351h51.842c3.504,22.182,21,38.96,41.512,38.96
			c20.507,0,38.003-16.778,41.507-38.96h51.842v159.618c0,14.93-12.149,27.079-27.079,27.079H302.844v-56.351
			c0-1.407-0.603-2.743-1.656-3.672c-1.048-0.933-2.451-1.355-3.849-1.192C276.912,437.499,255.416,423.337,255.416,402.837z" fill="#2c2c2c" class="color242c35 svgShape"></path>
    </g>
  </g>
</svg>
