<svg xmlns="http://www.w3.org/2000/svg" enable-background="new 0 0 512 512" viewBox="0 0 512 512" id="6622004">
  <polygon fill="#0966c2" points="396.025 469.331 347.067 461.563 313.644 498.154 255.999 332.78 198.353 498.154 164.93 461.563 115.973 469.331 188.438 261.847 255.999 285.457 323.559 261.847" class="colorfdce06 svgShape"></polygon>
  <path fill="#ffffff" d="M417.651,214.333l-0.1,0.134c-7.326,9.855-11.22,21.841-11.083,34.12l0.001,0.126
			c0.276,24.795-15.747,46.835-39.419,54.22l-0.078,0.024c-11.757,3.668-21.981,11.1-29.099,21.151l-0.004,0.006
			c-14.35,20.266-40.31,28.698-63.83,20.732l0,0c-11.679-3.955-24.335-3.956-36.015-0.002l-0.023,0.008
			c-23.515,7.962-49.467-0.466-63.818-20.724l-0.018-0.025c-7.119-10.05-17.346-17.48-29.103-21.145l-0.093-0.029
			c-23.67-7.379-39.697-29.411-39.431-54.203l0.002-0.148c0.132-12.274-3.762-24.253-11.086-34.103l-0.104-0.14
			c-14.785-19.884-14.786-47.109-0.004-66.995l0.113-0.151c7.322-9.85,11.215-21.828,11.083-34.101l-0.002-0.174
			c-0.267-24.786,15.75-46.814,39.411-54.2l0.117-0.037c11.755-3.669,21.977-11.101,29.092-21.151l0.022-0.031
			c14.347-20.263,40.298-28.697,63.816-20.74l0.038,0.013c11.672,3.949,24.318,3.949,35.99,0l0.023-0.008
			c23.523-7.959,49.48,0.479,63.825,20.75l0.013,0.018C345,47.579,355.22,55.013,366.973,58.686l0.103,0.032
			c23.662,7.394,39.675,29.431,39.396,54.22l-0.002,0.145c-0.138,12.28,3.754,24.267,11.081,34.124l0.102,0.138
			C432.433,167.229,432.432,194.45,417.651,214.333z" class="colorffffff svgShape"></path>
  <path fill="#cfd0d1" d="M417.651,214.333l-0.1,0.134c-7.326,9.855-11.22,21.841-11.083,34.12l0.001,0.126
			c0.276,24.795-15.747,46.835-39.419,54.22l-0.078,0.024c-11.757,3.668-21.981,11.1-29.099,21.151l-0.004,0.006
			c-14.35,20.266-40.31,28.698-63.83,20.732l0,0c-11.679-3.955-24.335-3.956-36.015-0.002l-0.023,0.008
			c-23.515,7.962-49.467-0.466-63.818-20.724l-0.018-0.025c-7.119-10.05-17.346-17.48-29.103-21.145l-0.093-0.029
			c-23.67-7.379-39.697-29.411-39.431-54.203l0.002-0.148c0.132-12.274-3.762-24.253-11.086-34.103l-0.104-0.14
			c-14.785-19.884-14.786-47.109-0.004-66.995l0.113-0.151c7.322-9.85,11.215-21.828,11.083-34.101l-0.002-0.174
			c-0.267-24.786,15.75-46.814,39.411-54.2l0.117-0.037c11.755-3.669,21.977-11.101,29.092-21.151l0.022-0.031
			c14.347-20.263,40.298-28.697,63.816-20.74l0.038,0.013c11.672,3.949,24.318,3.949,35.99,0l0.023-0.008
			c23.523-7.959,49.48,0.479,63.825,20.75l0.013,0.018C345,47.579,355.22,55.013,366.973,58.686l0.103,0.032
			c23.662,7.394,39.675,29.431,39.396,54.22l-0.002,0.145c-0.138,12.28,3.754,24.267,11.081,34.124l0.102,0.138
			C432.433,167.229,432.432,194.45,417.651,214.333z" class="colorcfcfd1 svgShape"></path>
  <path fill="#ffffff" d="M364.947,180.764c0,60.221-48.771,108.992-108.992,108.992
			c-60.134,0-108.905-48.771-108.905-108.992c0-60.134,48.771-108.905,108.905-108.905
			C316.176,71.858,364.947,120.63,364.947,180.764z" class="colorffffff svgShape"></path>
  <path fill="#0966c2" d="M290.024,201.54l3.007,17.505c1.56,9.082-7.972,16.009-16.128,11.722l-15.738-8.274
			c-3.239-1.703-7.109-1.702-10.348,0.001l-15.722,8.271c-8.154,4.289-17.687-2.633-16.132-11.714l2.999-17.518
			c0.617-3.605-0.579-7.284-3.198-9.837l-12.727-12.403c-6.599-6.431-2.958-17.637,6.16-18.962l17.595-2.557
			c3.622-0.526,6.752-2.801,8.371-6.083l7.865-15.946c4.075-8.263,15.856-8.266,19.936-0.005l7.881,15.957
			c1.62,3.279,4.749,5.552,8.368,6.078l17.587,2.556c9.12,1.325,12.759,12.535,6.157,18.965l-12.732,12.398
			C290.601,194.248,289.404,197.931,290.024,201.54z" class="colorfdce06 svgShape"></path>
  <path fill="none" d="M417.651,214.333l-0.1,0.134c-7.326,9.855-11.22,21.841-11.083,34.12l0.001,0.126
			c0.276,24.795-15.747,46.835-39.419,54.22l-0.078,0.024c-11.757,3.668-21.981,11.1-29.099,21.151l-0.004,0.006
			c-14.35,20.266-40.31,28.698-63.83,20.732l0,0c-11.679-3.955-24.335-3.956-36.015-0.002l-0.023,0.008
			c-23.515,7.962-49.467-0.466-63.818-20.724l-0.018-0.025c-7.119-10.05-17.346-17.48-29.103-21.145l-0.093-0.029
			c-23.67-7.379-39.697-29.411-39.431-54.203l0.002-0.148c0.132-12.274-3.762-24.253-11.086-34.103l-0.104-0.14
			c-14.785-19.884-14.786-47.109-0.004-66.995l0.113-0.151c7.322-9.85,11.215-21.828,11.083-34.101l-0.002-0.174
			c-0.267-24.786,15.75-46.814,39.411-54.2l0.117-0.037c11.755-3.669,21.977-11.101,29.092-21.151l0.022-0.031
			c14.347-20.263,40.298-28.697,63.816-20.74l0.038,0.013c11.672,3.949,24.318,3.949,35.99,0l0.023-0.008
			c23.523-7.959,49.48,0.479,63.825,20.75l0.013,0.018C345,47.579,355.22,55.013,366.973,58.686l0.103,0.032
			c23.662,7.394,39.675,29.431,39.396,54.22l-0.002,0.145c-0.138,12.28,3.754,24.267,11.081,34.124l0.102,0.138
			C432.433,167.229,432.432,194.45,417.651,214.333z"></path>
  <path fill="#707070" d="M414.284,113.023c0.32-28.457-17.715-53.275-44.978-61.789
			c-10.063-3.151-18.959-9.62-25.054-18.234c-16.22-22.918-46.122-32.645-72.729-23.635c-9.987,3.395-20.992,3.395-30.978,0
			c-0.084-0.031-0.172-0.053-0.263-0.084c-26.531-8.85-56.304,0.854-72.497,23.727c-6.088,8.606-14.984,15.075-25.161,18.257
			c-27.164,8.476-45.203,33.286-44.894,61.911c0.114,10.498-3.273,20.919-9.655,29.502c-16.964,22.827-16.96,53.496,0.114,76.46
			c6.264,8.423,9.651,18.852,9.537,29.502c-0.301,28.465,17.749,53.282,45.016,61.781c6.321,1.965,12.08,5.37,17.079,9.68
			L108.6,466.752c-0.908,2.602-0.385,5.478,1.377,7.591c1.766,2.098,4.501,3.151,7.221,2.701l44.803-7.103l30.586,33.485
			c1.854,2.029,4.646,2.922,7.339,2.38c2.693-0.549,4.898-2.479,5.806-5.081L256,356.517l50.265,144.208
			c0.908,2.602,3.113,4.532,5.806,5.081c2.781,0.568,5.537-0.413,7.339-2.38l30.586-33.485l44.803,7.103
			c2.72,0.458,5.459-0.603,7.221-2.701c1.762-2.113,2.285-4.99,1.377-7.591l-51.208-146.618c5.011-4.322,10.802-7.746,17.19-9.735
			c27.175-8.484,45.222-33.302,44.902-61.896c-0.118-10.505,3.269-20.935,9.517-29.35l0.103-0.137
			c0.008-0.008,0.015-0.015,0.023-0.023c16.964-22.819,16.964-53.488-0.103-76.445C417.549,134.11,414.162,123.681,414.284,113.023z
			 M195.287,483.216l-24.589-26.924c-1.492-1.633-3.593-2.541-5.768-2.541c-0.404,0-0.816,0.031-1.224,0.099l-36.048,5.714
			l44.09-126.234c16.053,18.521,42.555,27.55,69.233,18.802L195.287,483.216z M348.291,453.851
			c-2.571-0.443-5.222,0.504-6.992,2.441l-24.589,26.924l-45.695-131.092c26.95,8.781,53.281-0.213,69.296-18.614l44.028,126.056
			L348.291,453.851z M411.381,209.67l-0.103,0.137c-8.293,11.169-12.779,24.97-12.623,38.993
			c0.24,21.514-13.393,40.275-34.011,46.706c-13.313,4.15-25.089,12.71-33.149,24.093c-12.264,17.318-34.866,24.665-54.946,17.852
			c-13.233-4.486-27.797-4.494-41.053,0c-20.08,6.828-42.678-0.526-54.953-17.86c-8.064-11.383-19.84-19.943-33.252-24.124
			c-20.53-6.393-34.171-25.146-33.939-46.805c0.145-13.9-4.337-27.702-12.733-38.985c-12.825-17.25-12.825-40.427,0.111-57.83
			c8.289-11.154,12.775-24.948,12.623-39.016c-0.237-21.499,13.397-40.252,34.042-46.698c13.313-4.15,25.085-12.71,33.16-24.124
			c12.277-17.343,34.87-24.63,54.942-17.852c0.084,0.031,0.168,0.053,0.259,0.084c13.16,4.394,27.637,4.379,40.797-0.084
			c20.103-6.805,42.689,0.549,54.957,17.891c8.053,11.375,19.817,19.928,33.233,24.124c20.53,6.416,34.156,25.176,33.916,46.821
			c-0.16,13.9,4.322,27.709,12.722,39.016C424.206,169.251,424.206,192.428,411.381,209.67z" class="color3e3e3e svgShape"></path>
  <path fill="#707070" d="M255.955,64.044c-64.356,0-116.716,52.359-116.716,116.719
			c0,64.406,52.359,116.803,116.716,116.803c64.406,0,116.803-52.397,116.803-116.803
			C372.758,116.403,320.361,64.044,255.955,64.044z M255.955,281.942c-55.743,0-101.091-45.386-101.091-101.179
			c0-55.747,45.348-101.095,101.091-101.095c55.789,0,101.179,45.348,101.179,101.095
			C357.133,236.556,311.743,281.942,255.955,281.942z" class="color3e3e3e svgShape"></path>
  <path fill="#707070" d="M300.925,152.604l-17.585-2.556c-1.076-0.16-2.007-0.839-2.491-1.816l-7.881-15.953
			c-3.216-6.508-9.716-10.544-16.975-10.544c0,0-0.004,0-0.008,0c-7.255,0-13.755,4.043-16.964,10.551l-7.866,15.945
			c-0.481,0.977-1.411,1.656-2.487,1.816l-17.597,2.556c-7.183,1.045-13.038,5.981-15.281,12.886
			c-2.239,6.897-0.404,14.335,4.791,19.393l12.726,12.405c0.782,0.763,1.137,1.854,0.954,2.922l-2.998,17.524
			c-1.224,7.149,1.659,14.244,7.53,18.508c5.804,4.216,13.456,4.85,19.943,1.434l15.712-8.262c0.961-0.519,2.113-0.519,3.082-0.008
			l15.739,8.27c6.412,3.38,14.053,2.823,19.935-1.442c5.875-4.265,8.758-11.36,7.526-18.508l-3.01-17.509
			c-0.179-1.076,0.175-2.167,0.954-2.922l12.733-12.397c5.203-5.073,7.042-12.512,4.795-19.416
			C313.96,158.577,308.1,153.641,300.925,152.604z M300.506,173.698l-12.737,12.405c-4.463,4.349-6.496,10.612-5.447,16.754h0.004
			l3.01,17.509c0.301,1.762-0.694,2.777-1.316,3.235c-0.622,0.443-1.9,1.068-3.479,0.252l-15.743-8.278
			c-5.508-2.884-12.096-2.891-17.62,0.008l-15.716,8.27c-1.579,0.816-2.861,0.191-3.483-0.252c-0.622-0.45-1.614-1.472-1.312-3.227
			l2.994-17.524c1.053-6.134-0.98-12.397-5.443-16.746l-12.729-12.405c-1.278-1.251-1.072-2.655-0.835-3.387
			c0.237-0.725,0.9-1.991,2.666-2.251l17.593-2.556c6.172-0.893,11.501-4.768,14.259-10.36l7.866-15.945
			c0.79-1.602,2.19-1.839,2.956-1.839c0.771,0,2.174,0.237,2.968,1.846l7.881,15.953c2.762,5.585,8.087,9.453,14.248,10.345
			l17.593,2.556c1.762,0.259,2.426,1.518,2.663,2.251C301.581,171.043,301.787,172.455,300.506,173.698z" class="color3e3e3e svgShape"></path>
</svg>
