<svg xmlns="http://www.w3.org/2000/svg" enable-background="new 0 0 512 512" viewBox="0 0 512 512" id="6621980">
  <path fill="#ffffff" d="M194.645,470.371L79.781,339.388c-13.053-14.885-20.25-34.007-20.25-53.805V161.75
			c0-29.151,15.55-56.088,40.793-70.667l114.864-66.338c25.254-14.585,56.371-14.585,81.625,0l114.864,66.338
			c25.243,14.579,40.793,41.516,40.793,70.667v123.834c0,19.798-7.197,38.92-20.25,53.805L317.355,470.371
			C284.849,507.438,227.151,507.438,194.645,470.371z" class="colorffffff svgShape"></path>
  <path fill="#0966c2" d="M246.444,78.869l-114.862,66.332c-5.894,3.403-9.552,9.743-9.552,16.548v123.834
			c0,4.639,1.682,9.113,4.738,12.596l114.869,130.986c4.963,5.661,11.127,6.508,14.362,6.508V76.305
			C252.651,76.305,249.347,77.19,246.444,78.869z" class="colorfdce06 svgShape"></path>
  <path fill="#cfd0d1" d="M380.421,145.205l-114.869-66.34c-2.899-1.675-6.203-2.56-9.552-2.56v359.367
			c3.235,0,9.399-0.847,14.366-6.512l114.866-130.982c3.056-3.483,4.738-7.957,4.738-12.596V161.749
			C389.969,154.944,386.311,148.604,380.421,145.205z" class="colorcfcfd1 svgShape"></path>
  <path fill="#707070" d="M188.769,475.52c35.623,40.617,98.876,40.574,134.461,0l114.862-130.982
			c14.309-16.315,22.19-37.253,22.19-58.955V161.749c0-31.837-17.128-61.507-44.7-77.429L300.717,17.984
			c-27.58-15.93-61.846-15.937-89.434,0L96.418,84.32c-27.572,15.922-44.7,45.592-44.7,77.429v123.834
			c0,21.701,7.881,42.64,22.19,58.955L188.769,475.52z M67.343,161.749c0-26.275,14.133-50.761,36.887-63.902L219.096,31.51
			c22.769-13.145,51.047-13.145,73.809,0L407.77,97.846c22.754,13.141,36.887,37.627,36.887,63.902v123.834
			c0,17.91-6.504,35.19-18.314,48.655L311.482,465.22c-29.34,33.454-81.539,33.549-110.963,0L85.657,334.238
			c-11.81-13.466-18.314-30.746-18.314-48.655V161.749z" class="color3e3e3e svgShape"></path>
  <path fill="#707070" d="M235.765,434.318c10.716,12.218,29.738,12.242,40.477-0.008
			c43.203-49.265,74.494-84.946,114.866-130.982c4.307-4.913,6.676-11.215,6.676-17.746c0-45.987,0-78.35,0-123.834
			c0-9.586-5.157-18.516-13.458-23.307L269.46,72.102c-8.349-4.825-18.619-4.795-26.924,0c0,0,0,0,0,0.004l-114.858,66.328
			c-8.301,4.791-13.458,13.725-13.458,23.315v123.834c0,6.542,2.373,12.848,6.676,17.746L235.765,434.318z M382.159,209.063v36.493
			L263.814,127.211V90.785L382.159,209.063z M379.359,293.029l-3.883,4.428L263.814,185.721v-36.416L382.159,267.65v17.932
			C382.159,288.325,381.163,290.969,379.359,293.029z M348.133,328.635l-84.319-84.319v-36.485l101.334,101.402L348.133,328.635z
			 M320.758,359.852l-56.944-56.944V266.41l73.996,73.996L320.758,359.852z M293.418,391.028l-29.603-29.603v-36.422l46.621,46.621
			L293.418,391.028z M264.493,424.011c-0.221,0.256-0.45,0.492-0.679,0.713v-41.205l19.28,19.28L264.493,424.011z M382.159,161.749
			v25.219l-75.229-75.185l69.583,40.186c0,0.004,0,0.004,0,0.004C379.996,153.982,382.159,157.728,382.159,161.749z
			 M129.845,161.749c0-4.024,2.163-7.774,5.646-9.784L248.19,86.879v102.075c0,0.002,0,0.003,0,0.005v235.769
			c-0.229-0.221-0.458-0.462-0.679-0.713L132.641,293.021c-1.804-2.048-2.796-4.692-2.796-7.439V161.749z" class="color3e3e3e svgShape"></path>
</svg>
