<svg xmlns="http://www.w3.org/2000/svg" enable-background="new 0 0 512 512" viewBox="0 0 512 512" id="6621999">
  <path fill="#0966c2" d="M339.838,217.004l7.41,43.132c3.844,22.377-19.642,39.447-39.74,28.882l-38.779-20.386
			c-7.981-4.196-17.517-4.195-25.497,0.004l-38.738,20.379c-20.091,10.569-43.58-6.486-39.749-28.862l7.389-43.164
			c1.521-8.883-1.426-17.947-7.881-24.237l-31.358-30.561c-16.259-15.845-7.289-43.456,15.178-46.721l43.353-6.3
			c8.923-1.297,16.637-6.902,20.626-14.989l19.38-39.292c10.042-20.359,39.069-20.367,49.122-0.013l19.419,39.317
			c3.991,8.08,11.701,13.68,20.619,14.976l43.333,6.297c22.472,3.265,31.439,30.887,15.17,46.729l-31.372,30.549
			C341.26,199.038,338.311,208.112,339.838,217.004z" class="colorfdce06 svgShape"></path>
  <path fill="#cfd0d1" d="M146.561,426.003l4.57,26.6c2.371,13.8-12.114,24.327-24.508,17.811l-23.915-12.572
			c-4.922-2.588-10.803-2.587-15.724,0.002l-23.89,12.568c-12.39,6.518-26.876-4-24.513-17.799l4.557-26.62
			c0.938-5.478-0.879-11.068-4.86-14.947L18.939,392.2c-10.027-9.772-4.495-26.799,9.36-28.813l26.736-3.885
			c5.503-0.8,10.26-4.257,12.72-9.244l11.952-24.231c6.193-12.556,24.094-12.56,30.294-0.008l11.976,24.247
			c2.461,4.983,7.216,8.436,12.716,9.236l26.724,3.883c13.859,2.014,19.389,19.048,9.355,28.818l-19.347,18.839
			C147.438,414.923,145.619,420.519,146.561,426.003z" class="colorcfcfd1 svgShape"></path>
  <path fill="#ffffff" d="M468.846,426.003l4.57,26.6c2.371,13.8-12.114,24.327-24.508,17.811l-23.915-12.572
			c-4.922-2.588-10.803-2.587-15.724,0.002l-23.89,12.568c-12.39,6.518-26.876-4-24.513-17.799l4.557-26.62
			c0.938-5.478-0.88-11.068-4.86-14.947L341.224,392.2c-10.027-9.772-4.495-26.799,9.36-28.813l26.736-3.885
			c5.503-0.8,10.26-4.257,12.72-9.244l11.952-24.231c6.193-12.556,24.094-12.56,30.294-0.008l11.976,24.247
			c2.461,4.983,7.216,8.436,12.716,9.236l26.724,3.883c13.859,2.014,19.389,19.048,9.355,28.818l-19.347,18.839
			C469.723,414.923,467.904,420.519,468.846,426.003z" class="colorffffff svgShape"></path>
  <path fill="#707070" d="M384.547 167.795c9.674-9.422 13.092-23.254 8.922-36.094-4.169-12.84-15.06-22.026-28.423-23.963l-43.326-6.294c-6.378-.931-11.89-4.928-14.743-10.704l-19.416-39.329c-5.978-12.092-18.07-19.607-31.562-19.607-.004 0-.008 0-.011 0-13.496 0-25.588 7.522-31.562 19.63l-19.378 39.291c-2.853 5.783-8.365 9.788-14.743 10.719l-43.349 6.302c-13.359 1.93-24.249 11.116-28.423 23.956-4.169 12.84-.755 26.664 8.915 36.079l31.352 30.563c4.616 4.501 6.725 10.978 5.634 17.326l-7.389 43.166c-2.277 13.305 3.094 26.496 14.015 34.423 10.946 7.947 25.156 8.951 37.07 2.67l38.745-20.378c5.707-3.006 12.516-2.998 18.222-.008l38.776 20.385c11.959 6.294 26.157 5.264 37.082-2.678 10.917-7.934 16.281-21.133 13.992-34.431l-7.408-43.136v-.008c-1.091-6.355 1.015-12.832 5.638-17.334L384.547 167.795zM342.274 187.142c-8.312 8.095-12.1 19.752-10.132 31.188l7.408 43.128c1.289 7.515-1.621 14.671-7.786 19.149-6.168 4.478-13.87 5.028-20.622 1.495l-38.776-20.385c-10.265-5.409-22.518-5.386-32.768.008l-38.741 20.378c-6.74 3.548-14.454 2.998-20.622-1.488-6.164-4.478-9.075-11.635-7.789-19.142l7.389-43.166c1.953-11.413-1.831-23.063-10.132-31.15l-31.356-30.57c-5.459-5.31-7.309-12.809-4.955-20.057 2.354-7.248 8.262-12.23 15.808-13.328l43.353-6.302c11.467-1.663 21.377-8.865 26.508-19.264l19.378-39.291c3.372-6.836 9.933-10.917 17.551-10.917.004 0 .004 0 .008 0 7.618 0 14.179 4.074 17.555 10.902l19.416 39.321c5.127 10.391 15.033 17.585 26.504 19.249l43.33 6.294c7.541 1.099 13.45 6.08 15.804 13.328 2.354 7.255.5 14.755-4.963 20.072L342.274 187.142zM99.073 464.755l23.914 12.573c8.385 4.417 18.356 3.685 26.016-1.877 7.664-5.569 11.432-14.831 9.826-24.169l-4.57-26.595c-.504-2.953.469-5.958 2.617-8.041l19.344-18.844c6.79-6.607 9.189-16.311 6.264-25.321-2.926-9.018-10.566-15.464-19.943-16.822l-26.721-3.883c-2.96-.435-5.516-2.289-6.84-4.967l-11.974-24.253c-4.196-8.484-12.68-13.755-22.148-13.755-.004 0-.004 0-.008 0-9.472 0-17.959 5.279-22.151 13.771l-11.951 24.23c-1.32 2.685-3.879 4.539-6.832 4.974l-26.74 3.883c-9.373 1.358-17.017 7.805-19.943 16.815s-.53 18.714 6.256 25.321l19.332 18.844c2.14 2.09 3.12 5.089 2.613 8.034l-4.555 26.626c-1.595 9.338 2.171 18.592 9.834 24.154 7.628 5.538 17.593 6.315 26.019 1.877l23.887-12.573C93.267 463.366 96.426 463.366 99.073 464.755zM59.458 463.503c-3.132 1.64-6.698 1.396-9.563-.694-2.857-2.075-4.211-5.394-3.612-8.873l4.555-26.626c1.369-8.011-1.286-16.182-7.11-21.858l-19.336-18.844c-2.529-2.472-3.391-5.951-2.296-9.308 1.091-3.364 3.83-5.676 7.328-6.187l26.74-3.883c8.049-1.167 15.003-6.225 18.6-13.519l11.947-24.23c1.564-3.166 4.612-5.058 8.144-5.058 0 0 0 0 .004 0 3.532 0 6.576 1.892 8.14 5.051l11.974 24.246c3.597 7.294 10.551 12.344 18.596 13.511l26.721 3.883c3.502.511 6.241 2.823 7.332 6.187 1.091 3.365.233 6.836-2.3 9.3l-19.344 18.844c-5.836 5.676-8.495 13.855-7.114 21.881l4.57 26.595c.595 3.487-.755 6.805-3.616 8.888-2.857 2.075-6.424 2.335-9.559.694l-23.914-12.573c-7.202-3.784-15.796-3.784-22.998 0L59.458 463.503zM484.826 355.657l-26.721-3.883c-2.96-.435-5.516-2.289-6.84-4.967l-11.974-24.246c-4.192-8.491-12.68-13.763-22.151-13.763s-17.959 5.279-22.155 13.771l-11.951 24.23c-1.32 2.685-3.879 4.539-6.832 4.974l-26.74 3.883c-9.372 1.358-17.017 7.805-19.943 16.815s-.53 18.714 6.256 25.321l19.336 18.844c2.14 2.09 3.117 5.096 2.613 8.034l-4.558 26.626c-1.595 9.338 2.171 18.592 9.834 24.154 7.628 5.538 17.593 6.315 26.019 1.877l23.887-12.573c2.647-1.389 5.806-1.389 8.453 0l23.914 12.573c8.388 4.417 18.352 3.685 26.016-1.877 7.664-5.569 11.432-14.831 9.826-24.169l-4.57-26.595c-.504-2.953.469-5.958 2.617-8.041l19.344-18.844c6.79-6.607 9.189-16.311 6.264-25.321C501.843 363.461 494.202 357.015 484.826 355.657zM487.606 386.601l-19.344 18.844c-5.836 5.676-8.495 13.855-7.114 21.881l4.57 26.595c.595 3.487-.755 6.805-3.616 8.888-2.853 2.075-6.428 2.335-9.559.694l-23.914-12.573c-7.202-3.784-15.796-3.784-22.998 0l-23.887 12.573c-3.132 1.64-6.698 1.396-9.563-.694-2.857-2.075-4.211-5.394-3.612-8.873l4.558-26.634c1.366-8.003-1.289-16.174-7.11-21.85l-19.34-18.844c-2.529-2.472-3.387-5.951-2.296-9.308 1.091-3.364 3.834-5.676 7.328-6.187l26.74-3.883c8.049-1.167 15.003-6.225 18.6-13.519l11.947-24.23c1.568-3.166 4.612-5.058 8.148-5.058 3.532 0 6.576 1.884 8.14 5.051l11.974 24.246c3.597 7.294 10.551 12.344 18.596 13.511l26.721 3.883c3.502.511 6.241 2.823 7.332 6.187C490.998 380.665 490.139 384.137 487.606 386.601zM80.797 261.779c3.753 2.118 8.516.814 10.65-2.945l8.434-14.877c2.125-3.754.809-8.522-2.945-10.65-3.757-2.121-8.526-.801-10.65 2.945l-8.434 14.877C75.728 254.882 77.044 259.651 80.797 261.779zM32.863 173.73h17.082c4.314 0 7.812-3.494 7.812-7.812 0-4.318-3.498-7.812-7.812-7.812H32.863c-4.314 0-7.812 3.494-7.812 7.812C25.05 170.236 28.548 173.73 32.863 173.73zM86.286 95.584c2.132 3.766 6.902 5.06 10.65 2.945 3.754-2.129 5.07-6.897 2.945-10.65l-8.434-14.869c-2.129-3.761-6.889-5.066-10.65-2.945-3.754 2.129-5.07 6.897-2.945 10.65L86.286 95.584zM412.119 243.957l8.434 14.877c2.132 3.766 6.902 5.06 10.65 2.945 3.754-2.129 5.07-6.897 2.945-10.65l-8.434-14.877c-2.129-3.754-6.897-5.066-10.65-2.945C411.31 235.435 409.994 240.204 412.119 243.957zM479.138 173.73c4.314 0 7.812-3.494 7.812-7.812 0-4.318-3.498-7.812-7.812-7.812h-17.082c-4.314 0-7.812 3.494-7.812 7.812 0 4.318 3.498 7.812 7.812 7.812H479.138zM415.064 98.529c3.753 2.118 8.516.814 10.65-2.945l8.434-14.869c2.125-3.754.809-8.522-2.945-10.65-3.754-2.121-8.522-.801-10.65 2.945l-8.434 14.869C409.994 91.632 411.31 96.4 415.064 98.529z" class="color3e3e3e svgShape"></path>
</svg>
