<svg xmlns="http://www.w3.org/2000/svg" xml:space="preserve" viewBox="0 0 512 512" enable-background="new 0 0 512 512" id="11962848">
  <g id="_x33_8_Restart" fill="#000000" class="color000000 svgShape">
    <g fill="#000000" class="color000000 svgShape">
      <g fill="#000000" class="color000000 svgShape">
        <path d="M462.334,136.129v204.102H49.172V136.129c0-29.162,23.64-52.802,52.802-52.802h307.558
				C438.694,83.326,462.334,106.967,462.334,136.129z" fill="#ffffff" class="colorffffff svgShape"></path>
      </g>
      <g fill="#000000" class="color000000 svgShape">
        <polygon points="501.089 450.551 10.913 450.551 49.441 340.261 49.441 340.212 462.561 340.212 462.561 340.261 475.502 377.318 496.874 438.492 496.874 438.541" fill="#d9dee3" class="colord9dde3 svgShape"></polygon>
      </g>
      <g opacity=".3" fill="#000000" class="color000000 svgShape">
        <g fill="#000000" class="color000000 svgShape">
          <path d="M462.577,340.254l12.948,37.072c-9.009-6.302-19.939-9.846-31.459-9.846H109.242
					c-23.434,0-44.358,14.868-52.087,37.022c-2.117,6.105-3.102,12.259-3.102,18.216c0,9.994,2.757,19.545,7.582,27.816H10.926
					l38.499-110.279H462.577z" fill="#ffffff" class="colorffffff svgShape"></path>
        </g>
      </g>
      <g fill="#000000" class="color000000 svgShape">
        <path d="M471.3,499.629H40.702c-16.452,0-29.789-13.337-29.789-29.789v-19.295h490.176v19.295
				C501.089,486.292,487.752,499.629,471.3,499.629z" fill="#707070" class="color576066 svgShape"></path>
      </g>
      <g fill="#000000" class="color000000 svgShape">
        <path d="M183.655,450.545h144.693l-8.602-21.106c-1.671-4.101-5.659-6.782-10.088-6.782H202.345
				c-4.429,0-8.416,2.681-10.088,6.782L183.655,450.545z" fill="#ffffff" class="colorffffff svgShape"></path>
      </g>
      <g fill="#000000" class="color000000 svgShape">
        <path d="M184.397,206.722h-26.614c8.572-42.234,31.084-69.508,67.536-81.822
				c17.331-5.855,36.059-6.588,53.819-2.207c27.641,6.818,45.142,21.258,56.843,40.057l17.743-18.9v62.871h-60.942l25.843-25.843
				c-14.3-18.532-31.494-30.968-53.066-34.181c-17.173-2.558-34.716,1.448-49.403,10.708
				C198.112,168.782,188.021,185.556,184.397,206.722z" fill="#aeaeae" class="colorf66866 svgShape"></path>
      </g>
      <g opacity=".3" fill="#000000" class="color000000 svgShape">
        <g fill="#000000" class="color000000 svgShape">
          <path d="M333.152,166.187h5.361v-6.124l-2.511,2.678c-11.717-18.807-29.244-33.231-56.862-40.025
					c-17.773-4.382-36.481-3.692-53.81,2.166c-36.481,12.357-58.98,39.631-67.546,81.823h7.04
					c10.191-35.004,31.656-58.044,64.346-69.121c17.33-5.859,36.038-6.548,53.81-2.166
					C305.836,141.039,321.704,151.945,333.152,166.187z" fill="#ffffff" class="colorffffff svgShape"></path>
        </g>
      </g>
      <g fill="#000000" class="color000000 svgShape">
        <path d="M327.11,232.128h26.614c-8.572,42.234-31.084,69.508-67.536,81.822
				c-17.331,5.855-36.059,6.587-53.819,2.207c-27.641-6.818-45.142-21.257-56.843-40.057l-17.743,18.9v-62.871h60.942
				l-25.843,25.843c14.3,18.532,31.494,30.968,53.066,34.181c17.173,2.558,34.716-1.448,49.403-10.708
				C313.394,270.069,323.485,253.294,327.11,232.128z" fill="#ccdff2" class="colord9f2cc svgShape"></path>
      </g>
      <g opacity=".3" fill="#000000" class="color000000 svgShape">
        <g fill="#000000" class="color000000 svgShape">
          <path d="M345.209,232.107c-10.191,35.053-31.656,58.094-64.346,69.121
					c-17.329,5.859-36.038,6.597-53.81,2.215c-21.994-5.411-37.454-15.791-48.792-29.241h-5.609v4.955l2.856-3.038
					c11.717,18.757,29.244,33.231,56.862,40.025c17.773,4.382,36.48,3.643,53.81-2.215c36.48-12.308,58.979-39.582,67.546-81.823
					H345.209z" fill="#ffffff" class="colorffffff svgShape"></path>
        </g>
      </g>
      <g fill="#000000" class="color000000 svgShape">
        <path d="M501.089,88.244c0,41.951-33.96,75.911-75.91,75.911c-41.912,0-75.872-33.96-75.872-75.911
				c0-41.912,33.96-75.872,75.872-75.872C467.129,12.371,501.089,46.331,501.089,88.244z" fill="#0966c2" class="color5a83fc svgShape"></path>
      </g>
      <g opacity=".3" fill="#000000" class="color000000 svgShape">
        <g fill="#000000" class="color000000 svgShape">
          <path d="M499.944,75.142c-13.933-16.985-35.102-27.865-58.832-27.865
					c-41.896,0-75.866,33.97-75.866,75.866c0,4.48,0.394,8.862,1.132,13.095c-10.634-13.095-17.083-29.785-17.083-48.001
					c0-41.896,33.97-75.866,75.866-75.866C462.626,12.371,493.74,39.498,499.944,75.142z" fill="#ffffff" class="colorffffff svgShape"></path>
        </g>
      </g>
      <g fill="#000000" class="color000000 svgShape">
        <path d="M409.4,127.648c-5.916,0-11.833-2.255-16.338-6.76l-14.189-14.189
				c-6.001-6.001-6.001-15.73,0-21.73l0,0c6-6,15.728-6.001,21.729-0.001l8.802,8.8l40.39-40.39c6-6,15.729-6,21.729,0l0,0
				c6,6,6,15.729,0,21.729l-45.781,45.781C421.237,125.393,415.32,127.648,409.4,127.648z" fill="#ffffff" class="colorffffff svgShape"></path>
      </g>
      <path d="M92.16 363.094H80.571c-2.707 0-4.902 2.192-4.902 4.902 0 2.709 2.195 4.902 4.902 4.902H92.16c2.707 0 4.902-2.192 4.902-4.902C97.062 365.287 94.867 363.094 92.16 363.094zM140.556 363.094h-11.587c-2.707 0-4.902 2.192-4.902 4.902 0 2.709 2.195 4.902 4.902 4.902h11.587c2.707 0 4.902-2.192 4.902-4.902C145.457 365.287 143.263 363.094 140.556 363.094zM188.951 363.094h-11.584c-2.709 0-4.902 2.192-4.902 4.902 0 2.709 2.192 4.902 4.902 4.902h11.584c2.709 0 4.902-2.192 4.902-4.902C193.853 365.287 191.66 363.094 188.951 363.094zM237.351 363.094h-11.589c-2.709 0-4.902 2.192-4.902 4.902 0 2.709 2.192 4.902 4.902 4.902h11.589c2.709 0 4.902-2.192 4.902-4.902C242.253 365.287 240.06 363.094 237.351 363.094zM285.746 372.898c2.709 0 4.902-2.192 4.902-4.902 0-2.709-2.192-4.902-4.902-4.902h-11.589c-2.709 0-4.902 2.192-4.902 4.902 0 2.709 2.192 4.902 4.902 4.902H285.746zM339.043 367.996c0-2.709-2.192-4.902-4.902-4.902h-11.589c-2.709 0-4.902 2.192-4.902 4.902 0 2.709 2.192 4.902 4.902 4.902h11.589C336.851 372.898 339.043 370.705 339.043 367.996zM387.439 367.996c0-2.709-2.192-4.902-4.902-4.902h-11.589c-2.709 0-4.902 2.192-4.902 4.902 0 2.709 2.192 4.902 4.902 4.902h11.589C385.246 372.898 387.439 370.705 387.439 367.996zM430.932 363.094h-11.584c-2.709 0-4.902 2.192-4.902 4.902 0 2.709 2.192 4.902 4.902 4.902h11.584c2.709 0 4.902-2.192 4.902-4.902C435.834 365.287 433.642 363.094 430.932 363.094zM69.937 392.605H56.773c-2.707 0-4.902 2.192-4.902 4.902 0 2.709 2.195 4.902 4.902 4.902h13.164c2.707 0 4.902-2.192 4.902-4.902C74.839 394.798 72.644 392.605 69.937 392.605zM124.907 392.605h-13.162c-2.707 0-4.902 2.192-4.902 4.902 0 2.709 2.195 4.902 4.902 4.902h13.162c2.707 0 4.902-2.192 4.902-4.902C129.809 394.798 127.614 392.605 124.907 392.605zM179.88 392.605h-13.164c-2.707 0-4.902 2.192-4.902 4.902 0 2.709 2.195 4.902 4.902 4.902h13.164c2.709 0 4.902-2.192 4.902-4.902C184.782 394.798 182.589 392.605 179.88 392.605zM234.848 392.605h-13.159c-2.709 0-4.902 2.192-4.902 4.902 0 2.709 2.192 4.902 4.902 4.902h13.159c2.709 0 4.902-2.192 4.902-4.902C239.749 394.798 237.557 392.605 234.848 392.605zM289.82 392.605h-13.164c-2.709 0-4.902 2.192-4.902 4.902 0 2.709 2.192 4.902 4.902 4.902h13.164c2.709 0 4.902-2.192 4.902-4.902C294.722 394.798 292.529 392.605 289.82 392.605zM344.792 392.605h-13.164c-2.709 0-4.902 2.192-4.902 4.902 0 2.709 2.192 4.902 4.902 4.902h13.164c2.709 0 4.902-2.192 4.902-4.902C349.694 394.798 347.502 392.605 344.792 392.605zM399.76 392.605h-13.159c-2.709 0-4.902 2.192-4.902 4.902 0 2.709 2.192 4.902 4.902 4.902h13.159c2.709 0 4.902-2.192 4.902-4.902C404.662 394.798 402.469 392.605 399.76 392.605zM454.732 392.605h-13.164c-2.709 0-4.902 2.192-4.902 4.902 0 2.709 2.192 4.902 4.902 4.902h13.164c2.709 0 4.902-2.192 4.902-4.902C459.634 394.798 457.442 392.605 454.732 392.605zM355.529 139.294c-1.853-.747-3.997-.258-5.38 1.202l-13.513 14.394c-13.379-18.803-31.861-30.918-56.322-36.955-18.779-4.634-38.352-3.834-56.566 2.322-38.056 12.858-61.863 41.622-70.767 85.489-.292 1.446.077 2.939 1.008 4.078s2.324 1.8 3.796 1.8h26.615c2.389 0 4.428-1.723 4.83-4.074 3.538-20.651 13.197-35.696 29.54-45.997 13.949-8.789 30.315-12.355 46.069-10.005 17.826 2.652 33.307 12.144 47.223 28.965l-22.742 22.742c-1.403 1.403-1.824 3.509-1.063 5.342.756 1.833 2.547 3.025 4.528 3.025h60.942c2.709 0 4.902-2.192 4.902-4.902v-62.871C358.626 141.84 357.396 140.036 355.529 139.294zM348.823 201.82h-44.207l17.472-17.472c1.742-1.742 1.92-4.509.416-6.457-16.228-21.034-34.614-32.824-56.222-36.04-18.09-2.685-36.811 1.359-52.742 11.412-17.467 11.01-28.616 27.333-33.187 48.558h-16.46c9.059-37.357 29.71-61.033 62.993-72.277 16.433-5.558 34.102-6.285 51.081-2.092 24.064 5.94 41.679 18.334 53.852 37.888 1.687 2.711 5.51 3.13 7.731.766l9.272-9.871V201.82zM353.725 227.229H327.11c-2.389 0-4.428 1.718-4.83 4.074-3.538 20.651-13.197 35.696-29.54 45.997-13.954 8.793-30.306 12.369-46.069 10.005-17.822-2.652-33.307-12.144-47.222-28.965l22.742-22.742c1.403-1.403 1.824-3.509 1.063-5.342-.756-1.829-2.547-3.025-4.528-3.025h-60.942c-2.707 0-4.902 2.192-4.902 4.902v62.871c0 2.01 1.228 3.82 3.097 4.557 1.874.756 4.004.268 5.378-1.202l13.511-14.399c13.384 18.808 31.871 30.923 56.327 36.955 18.733 4.63 38.32 3.848 56.562-2.317 38.056-12.858 61.866-41.622 70.774-85.489.292-1.441-.081-2.939-1.01-4.078C356.587 227.889 355.194 227.229 353.725 227.229zM284.617 309.309c-16.443 5.553-34.092 6.271-51.076 2.087-24.064-5.936-41.679-18.329-53.857-37.888-1.705-2.74-5.536-3.105-7.733-.766l-9.265 9.871v-45.581h44.207l-17.477 17.472c-1.742 1.742-1.92 4.509-.416 6.462 16.232 21.029 34.623 32.819 56.227 36.036 18.085 2.69 36.801-1.359 52.742-11.412 17.467-11.01 28.616-27.333 33.187-48.558h16.457C338.55 274.389 317.9 298.065 284.617 309.309z" fill="#2c2c2c" class="color242c35 svgShape"></path>
      <path d="M505.99,88.242c0-44.537-36.251-80.774-80.812-80.774c-41.207,0-75.247,31.041-80.115,70.956
			h-243.09c-31.818,0-57.703,25.887-57.703,57.706v204.071L6.286,448.932c-0.167,0.477-0.23,0.97-0.245,1.463
			c-0.052,1.53-0.022,14.036-0.03,19.446c0,19.128,15.562,34.69,34.69,34.69H471.3c19.128,0,34.69-15.562,34.69-34.69v-19.296
			c0-0.349-0.108-1.136-0.278-1.618c-9.452-27.057-37.994-108.763-38.405-109.94c-0.015-0.058-0.055-0.104-0.072-0.162v-181.71
			C490.432,142.898,505.99,117.386,505.99,88.242z M425.178,17.272c39.152,0,71.008,31.837,71.008,70.97
			c0,39.152-31.857,71.008-71.008,71.008c-39.133,0-70.97-31.857-70.97-71.008C354.208,49.109,386.046,17.272,425.178,17.272z
			 M190.947,445.644l5.85-14.356c0.924-2.264,3.102-3.729,5.548-3.729h107.312c2.446,0,4.624,1.465,5.553,3.729l5.85,14.356H190.947
			z M471.3,494.728H40.702c-13.722,0-24.887-11.163-24.887-24.887v-14.389h480.372v14.389
			C496.187,483.565,485.024,494.728,471.3,494.728z M494.17,445.644H331.643l-7.357-18.056c-2.441-5.974-8.181-9.832-14.629-9.832
			H202.345c-6.453,0-12.192,3.863-14.624,9.837l-7.357,18.051H17.82l35.111-100.51h406.141
			C465.562,363.722,441.631,295.193,494.17,445.644z M457.432,335.311H54.074V136.13c0-26.414,21.488-47.902,47.9-47.902h242.432
			c0,0.005-0.001,0.01-0.001,0.014c0,44.561,36.237,80.812,80.774,80.812c11.467,0,22.364-2.435,32.254-6.76V335.311z" fill="#2c2c2c" class="color242c35 svgShape"></path>
      <path d="M389.598,124.354c10.936,10.936,28.675,10.936,39.611,0l45.782-45.782
			c7.903-7.903,7.903-20.756,0-28.659c-7.898-7.908-20.765-7.908-28.664,0l-36.921,36.921l-5.337-5.333
			c-7.908-7.898-20.761-7.898-28.659,0c-7.903,7.903-7.903,20.761,0,28.664L389.598,124.354z M382.341,88.433
			c4.087-4.087,10.726-4.07,14.796,0l8.803,8.798c1.915,1.915,5.017,1.915,6.931,0l40.387-40.387c4.078-4.078,10.723-4.078,14.801,0
			c4.078,4.078,4.078,10.718,0,14.796l-45.782,45.782c-6.864,6.864-18.884,6.864-25.749,0l-14.188-14.188
			C378.262,99.151,378.262,92.516,382.341,88.433z" fill="#2c2c2c" class="color242c35 svgShape"></path>
    </g>
  </g>
</svg>
