<svg xmlns="http://www.w3.org/2000/svg" xml:space="preserve" viewBox="0 0 512 512" enable-background="new 0 0 512 512" id="11962814">
  <g id="_x30_4_Scalable" fill="#000000" class="color000000 svgShape">
    <g fill="#000000" class="color000000 svgShape">
      <g fill="#000000" class="color000000 svgShape">
        <path d="M337.072,277.626c-1.651,5.824-3.998,11.43-6.867,16.645l11.908,11.908l-33.725,33.682
				l-11.908-11.908c-5.215,2.912-10.778,5.215-16.602,6.91v16.819h-47.676v-16.819c-5.824-1.695-11.387-3.998-16.645-6.867
				l-11.865,11.865l-33.725-33.682l11.908-11.908c-2.869-5.215-5.215-10.822-6.867-16.645h-16.863v-47.633h16.863
				c1.652-5.824,3.998-11.43,6.867-16.645l-11.908-11.908l33.725-33.682l11.865,11.865c5.259-2.869,10.822-5.172,16.645-6.867
				v-16.819h47.676v16.819c5.824,1.695,11.387,3.998,16.602,6.91l11.908-11.908l33.725,33.682l-11.908,11.908
				c2.869,5.215,5.215,10.822,6.867,16.645h16.819v47.633H337.072z" fill="#0966c2" class="color5a83fc svgShape"></path>
      </g>
      <g opacity=".3" fill="#000000" class="color000000 svgShape">
        <g fill="#000000" class="color000000 svgShape">
          <path d="M342.155,201.483l-7.887,7.887c-15.064-8.329-32.431-13.114-50.863-13.114
					c-53.698,0-98.093,40.229-104.384,92.333c-1.595-3.544-2.924-7.177-3.988-10.988H158.11v-47.584h16.925
					c1.595-5.849,3.988-11.431,6.823-16.659l-11.874-11.874l33.672-33.761l11.874,11.874c5.316-2.836,10.81-5.14,16.659-6.823
					v-16.836h47.672v16.836c5.849,1.684,11.431,3.988,16.659,6.912l11.874-11.963L342.155,201.483z" fill="#ffffff" class="colorffffff svgShape"></path>
        </g>
      </g>
      <g fill="#000000" class="color000000 svgShape">
        <circle cx="256.038" cy="253.81" r="47.632" fill="#ffffff" class="colorffffff svgShape"></circle>
      </g>
      <path d="M256.038,201.275c-28.97,0-52.536,23.568-52.536,52.536s23.566,52.534,52.536,52.534
			s52.536-23.566,52.536-52.534S285.008,201.275,256.038,201.275z M256.038,296.541c-23.561,0-42.732-19.169-42.732-42.73
			c0-23.563,19.171-42.732,42.732-42.732s42.732,19.169,42.732,42.732C298.771,277.372,279.599,296.541,256.038,296.541z" fill="#707070" class="color242c35 svgShape"></path>
      <path d="M504.55,252.529l-26.123-26.123c-1.915-1.915-5.017-1.915-6.931,0
			c-1.915,1.915-1.915,5.017,0,6.931l17.759,17.759H358.793v-21.103c0-2.707-2.192-4.902-4.902-4.902h-13.207
			c-1.225-3.674-2.719-7.295-4.466-10.823l9.363-9.363c1.907-1.907,1.921-5.012,0-6.934l-12.32-12.303l91.141-91.141v25.114
			c0,2.707,2.192,4.902,4.902,4.902c2.709,0,4.902-2.195,4.902-4.902V82.695c0-2.641-2.164-4.902-4.902-4.902h-36.95
			c-2.709,0-4.902,2.195-4.902,4.902c0,2.707,2.192,4.902,4.902,4.902h25.117l-91.145,91.145l-14.472-14.452
			c-1.915-1.91-5.017-1.912-6.931,0.002l-9.349,9.351c-3.456-1.726-7.065-3.226-10.794-4.483v-13.224
			c0-2.707-2.192-4.902-4.902-4.902h-18.975V22.744l17.759,17.759c1.915,1.915,5.017,1.915,6.931,0c1.915-1.915,1.915-5.017,0-6.931
			L259.47,7.449c-1.888-1.893-5.021-1.924-6.94,0l-26.123,26.123c-1.915,1.915-1.915,5.017,0,6.931c1.915,1.915,5.017,1.915,6.931,0
			l17.759-17.759v128.291h-18.894c-2.709,0-4.902,2.195-4.902,4.902v13.224c-3.7,1.247-7.314,2.738-10.818,4.461l-9.325-9.33
			c-1.915-1.915-5.017-1.912-6.931-0.002l-14.513,14.493L94.529,87.596h25.117c2.709,0,4.902-2.195,4.902-4.902
			c0-2.707-2.192-4.902-4.902-4.902h-36.95c-2.705,0-4.902,2.224-4.902,4.902v36.947c0,2.707,2.192,4.902,4.902,4.902
			c2.709,0,4.902-2.195,4.902-4.902V94.528l91.182,91.182l-12.28,12.263c-1.923,1.923-1.906,5.028,0,6.934l9.363,9.363
			c-1.747,3.528-3.241,7.149-4.466,10.823h-13.25c-2.709,0-4.902,2.195-4.902,4.902v21.103h-130.5l17.759-17.759
			c1.915-1.915,1.915-5.017,0-6.931s-5.017-1.915-6.931,0L7.45,252.529c-1.923,1.919-1.892,5.049,0,6.938l26.123,26.123
			c1.915,1.915,5.017,1.915,6.931,0c1.915-1.915,1.915-5.017,0-6.931L22.745,260.9h130.5v16.725c0,2.707,2.192,4.902,4.902,4.902
			h13.25c1.225,3.674,2.719,7.295,4.466,10.823l-9.363,9.363c-1.907,1.907-1.921,5.013,0,6.934l14.47,14.45l-93.372,93.372v-25.114
			c0-2.707-2.192-4.902-4.902-4.902c-2.709,0-4.902,2.195-4.902,4.902v36.947c0,2.702,2.22,4.902,4.902,4.902h36.95
			c2.709,0,4.902-2.195,4.902-4.902c0-2.707-2.192-4.902-4.902-4.902H94.529l93.376-93.376l12.323,12.306
			c1.915,1.91,5.017,1.912,6.931-0.002l9.325-9.33c3.504,1.723,7.118,3.214,10.818,4.461v13.224c0,2.707,2.192,4.902,4.902,4.902
			h18.894v132.668l-17.759-17.759c-1.915-1.915-5.017-1.915-6.931,0c-1.915,1.915-1.915,5.017,0,6.931l26.123,26.123
			c1.933,1.938,5.058,1.887,6.94,0l26.123-26.123c1.915-1.915,1.915-5.017,0-6.931c-1.915-1.915-5.017-1.915-6.931,0l-17.759,17.759
			V356.585h18.975c2.709,0,4.902-2.195,4.902-4.902V338.46c3.729-1.257,7.338-2.757,10.794-4.483l9.349,9.351
			c1.915,1.915,5.017,1.912,6.931,0.002l12.282-12.265l93.336,93.336h-25.117c-2.709,0-4.902,2.195-4.902,4.902
			c0,2.707,2.192,4.902,4.902,4.902h36.95c2.691,0,4.902-2.209,4.902-4.902v-36.947c0-2.707-2.192-4.902-4.902-4.902
			c-2.709,0-4.902,2.195-4.902,4.902v25.114l-93.331-93.331l14.511-14.491c1.923-1.923,1.906-5.028,0-6.934l-9.363-9.363
			c1.747-3.528,3.241-7.149,4.466-10.823h13.207c2.709,0,4.902-2.195,4.902-4.902V260.9h130.461l-17.759,17.759
			c-1.915,1.915-1.915,5.017,0,6.931c1.915,1.915,5.017,1.915,6.931,0l26.123-26.123
			C506.457,257.564,506.459,254.435,504.55,252.529z M348.99,272.724H337.07c-2.192,0-4.117,1.455-4.715,3.564
			c-1.517,5.347-3.686,10.603-6.443,15.622c-1.053,1.912-0.713,4.287,0.828,5.828l8.439,8.439l-26.787,26.754l-8.444-8.444
			c-1.551-1.551-3.949-1.881-5.854-0.814c-4.84,2.7-10.081,4.883-15.586,6.484c-2.092,0.608-3.533,2.525-3.533,4.705v11.919h-37.869
			v-11.919c0-2.18-1.441-4.098-3.533-4.705c-5.433-1.582-10.703-3.755-15.672-6.465c-1.896-1.032-4.27-0.701-5.811,0.838
			l-8.401,8.401l-26.787-26.754l8.439-8.439c1.541-1.541,1.881-3.916,0.828-5.828c-2.757-5.019-4.926-10.275-6.443-15.622
			c-0.598-2.109-2.523-3.564-4.715-3.564h-11.962v-37.828h11.962c2.192,0,4.117-1.455,4.715-3.564
			c1.517-5.347,3.686-10.603,6.443-15.622c1.053-1.912,0.713-4.287-0.828-5.828l-8.439-8.439l26.787-26.754l8.401,8.401
			c1.541,1.541,3.911,1.874,5.811,0.838c4.969-2.709,10.239-4.883,15.672-6.462c2.092-0.61,3.533-2.527,3.533-4.708v-11.919h37.869
			v11.919c0,2.18,1.441,4.098,3.533,4.708c5.505,1.599,10.747,3.782,15.586,6.481c1.905,1.075,4.303,0.742,5.854-0.814l8.444-8.444
			l26.787,26.754l-8.439,8.439c-1.541,1.541-1.881,3.916-0.828,5.828c2.757,5.019,4.926,10.275,6.443,15.622
			c0.598,2.109,2.523,3.564,4.715,3.564h11.919V272.724z" fill="#707070" class="color242c35 svgShape"></path>
    </g>
  </g>
</svg>
