<svg xmlns="http://www.w3.org/2000/svg" enable-background="new 0 0 512 512" viewBox="0 0 512 512" id="6622006">
  <circle cx="336.056" cy="175.989" r="162.141" fill="#0966c2" transform="rotate(-45.001 336.055 175.994)" class="colorfdce06 svgShape"></circle>
  <path fill="#ffffff" d="M198.705,394.852L71.788,490.895c-14.393,10.892-34.615,9.499-47.379-3.265l0,0
			c-12.763-12.763-14.157-32.985-3.265-47.379l96.043-126.916c13.238-17.493,38.879-19.26,54.392-3.748l30.874,30.874
			C217.965,355.973,216.198,381.614,198.705,394.852z" class="colorffffff svgShape"></path>
  <path fill="#707070" d="M215.883,55.816c-64.403,64.403-66.023,167.936-5.244,234.548l-23.618,23.618l-9.918-9.918
			c-18.909-18.909-50.084-16.653-66.153,4.555l-96.029,126.92c-13.183,17.402-11.474,42.174,3.967,57.616
			c15.462,15.462,40.23,17.115,57.616,3.975l126.912-96.044c21.231-16.071,23.445-47.263,4.562-66.145l-9.91-9.91l23.618-23.618
			c67.663,61.74,170.888,58.402,234.548-5.244c66.267-66.267,66.267-174.084,0-240.351C389.889-10.53,282.301-10.602,215.883,55.816
			z M193.987,388.618L67.075,484.662c-11.23,8.499-27.191,7.393-37.139-2.556c-9.956-9.956-11.055-25.916-2.556-37.139
			l96.029-126.92c10.363-13.684,30.467-15.118,42.647-2.937l30.875,30.875C209.115,358.185,207.663,378.277,193.987,388.618z
			 M445.187,285.12c-60.179,60.179-158.093,60.164-218.257,0c-60.172-60.172-60.172-158.085,0-218.257
			c60.158-60.158,158.076-60.181,218.257,0C505.359,127.035,505.359,224.948,445.187,285.12z" class="color3e3e3e svgShape"></path>
  <path fill="#707070" d="M417.569,83.434c-3.052,3.052-3.052,7.995,0,11.047c44.936,44.944,44.936,118.077,0,163.021
			c-3.052,3.052-3.052,7.995,0,11.047c3.052,3.052,7.995,3.052,11.047,0c51.032-51.04,51.032-134.076,0-185.115
			C425.565,80.382,420.621,80.382,417.569,83.434z" class="color3e3e3e svgShape"></path>
</svg>
