<svg xmlns="http://www.w3.org/2000/svg" xml:space="preserve" viewBox="0 0 512 512" enable-background="new 0 0 512 512" id="11962855">
  <g id="_x34_5__Secure" fill="#0966c2" class="color000000 svgShape">
    <g fill="#0966c2" class="color000000 svgShape">
      <g fill="#0966c2" class="color000000 svgShape">
        <path d="M485.852,114.442v156.771c0,148.176-229.853,229.853-229.853,229.853h0
				c0,0-229.853-81.677-229.853-229.853V114.442c57.163,0,103.503-46.34,103.503-103.503h252.7
				C382.348,68.102,428.688,114.442,485.852,114.442z" fill="#ccdff2" class="colord9f2cc svgShape"></path>
      </g>
      <g opacity=".3" fill="#0966c2" class="color000000 svgShape">
        <g fill="#0966c2" class="color000000 svgShape">
          <path d="M443.398,105.341c-8.995-0.877-18.1-1.316-27.315-1.316
					c-171.349,0-310.227,138.878-310.227,310.227v0.877c-43.66-36.968-79.75-85.126-79.75-143.924V114.447
					c57.152,0,103.555-46.292,103.555-103.556h252.635C382.296,53.014,407.417,89.106,443.398,105.341z" fill="#ffffff" class="colorffffff svgShape"></path>
        </g>
      </g>
      <g fill="#0966c2" class="color000000 svgShape">
        <path d="M255.988,449.579c-62.62-26.044-181.842-93.197-181.842-178.364V154.651
				c44.991-15.07,80.639-50.719,95.709-95.714H342.14c15.07,44.995,50.719,80.644,95.714,95.714v116.564
				C437.854,356.077,316.555,424.224,255.988,449.579z" fill="#ffffff" class="colorffffff svgShape"></path>
      </g>
      <g fill="#0966c2" class="color000000 svgShape">
        <path d="M212.389,364.728c-16.332,0-32.664-6.224-45.102-18.662l-39.171-39.171
				c-16.565-16.565-16.565-43.422,0-59.988l0,0c16.564-16.564,43.419-16.565,59.985-0.003l24.299,24.294L323.897,159.7
				c16.564-16.564,43.42-16.564,59.985,0l0,0c16.564,16.564,16.564,43.42,0,59.985l-126.38,126.38
				C245.063,358.503,228.731,364.728,212.389,364.728z" fill="#aeaeae" class="colorf66866 svgShape"></path>
      </g>
      <g opacity=".3" fill="#0966c2" class="color000000 svgShape">
        <g fill="#0966c2" class="color000000 svgShape">
          <path d="M396.267,189.707c0,10.882-4.117,21.714-12.401,29.999L257.499,346.073
					c-12.45,12.45-28.773,18.675-45.096,18.675c-16.323,0-32.695-6.225-45.096-18.675l-39.214-39.165
					c-12.499-12.549-15.538-30.93-9.117-46.322c2.01,4.951,5.098,9.656,9.117,13.676l39.214,39.165
					c12.402,12.451,28.774,18.676,45.096,18.676c16.323,0,32.646-6.225,45.096-18.676l126.367-126.367
					c4.068-4.068,7.107-8.725,9.166-13.676C395.189,178.58,396.267,184.119,396.267,189.707z" fill="#ffffff" class="colorffffff svgShape"></path>
        </g>
      </g>
      <path d="M387.249,10.936c0-2.709-2.192-4.902-4.902-4.902H129.648c-2.709,0-4.902,2.192-4.902,4.902
			c0,54.369-44.231,98.605-98.6,98.605c-2.709,0-4.902,2.192-4.902,4.902v156.77c0,149.915,223.595,231.086,233.111,234.471
			c0.531,0.187,1.087,0.282,1.642,0.282c0.555,0,1.111-0.096,1.642-0.282c9.516-3.384,233.116-84.555,233.116-234.471v-156.77
			c0-2.709-2.192-4.902-4.902-4.902C431.484,109.541,387.249,65.305,387.249,10.936z M480.952,271.213
			c0,136.498-204.419,216.903-224.954,224.624c-20.536-7.712-224.949-88.059-224.949-224.624V119.234
			c55.887-2.499,100.893-47.51,103.392-103.396h243.116c2.499,55.887,47.51,100.898,103.396,103.396V271.213z" fill="#707070" class="color242c35 svgShape"></path>
      <path d="M346.785,57.383c-0.67-2.001-2.542-3.346-4.648-3.346H169.853c-2.106,0-3.978,1.345-4.648,3.346
			c-14.552,43.441-49.176,78.064-92.616,92.621c-2.001,0.67-3.346,2.542-3.346,4.648v116.56
			c0,78.246,99.586,147.426,184.864,182.892c0.603,0.254,1.24,0.378,1.881,0.378c0.641,0,1.288-0.124,1.891-0.378
			c18.927-7.922,184.879-80.357,184.879-182.892v-116.56c0-2.106-1.345-3.978-3.346-4.648
			C395.966,135.452,361.342,100.824,346.785,57.383z M432.954,271.213c0,93.473-151.605,162.208-176.971,173.05
			c-25.38-10.78-176.937-79.113-176.937-173.05V158.137c43.666-15.754,78.543-50.636,94.292-94.297h165.315
			c15.754,43.661,50.636,78.543,94.301,94.297V271.213z" fill="#707070" class="color242c35 svgShape"></path>
      <path d="M320.429,156.237l-108.03,108.03l-20.832-20.828c-18.449-18.449-48.467-18.449-66.916,0
			c-18.463,18.463-18.53,48.391,0,66.92l39.171,39.171c26.817,26.817,70.32,26.825,97.145,0l126.383-126.378
			c18.449-18.453,18.449-48.472,0-66.916C368.889,137.776,338.96,137.706,320.429,156.237z M380.418,216.221L254.035,342.599
			c-22.983,22.983-60.287,22.995-83.282,0l-39.171-39.171c-14.64-14.64-14.69-38.358,0-53.058c14.635-14.625,38.424-14.62,53.053,0
			l24.298,24.293c1.915,1.915,5.017,1.915,6.931,0L327.36,163.168c14.629-14.629,38.429-14.629,53.058,0
			C395.042,177.792,395.042,201.592,380.418,216.221z" fill="#707070" class="color242c35 svgShape"></path>
    </g>
  </g>
</svg>
