<svg xmlns="http://www.w3.org/2000/svg" xml:space="preserve" viewBox="0 0 512 512" enable-background="new 0 0 512 512" id="11962817">
  <g id="_x30_7_Sme" fill="#000000" class="color000000 svgShape">
    <g fill="#000000" class="color000000 svgShape">
      <g fill="#000000" class="color000000 svgShape">
        <path d="M332.046,120.942v313.942c0,20.023-16.232,36.255-36.255,36.255H63.382
				c-20.023,0-36.255-16.232-36.255-36.255V120.942c0-20.023,16.232-36.255,36.255-36.255h232.409
				C315.814,84.688,332.046,100.919,332.046,120.942z" fill="#ffffff" class="colorffffff svgShape"></path>
      </g>
      <g fill="#000000" class="color000000 svgShape">
        <path d="M236.581,146.273L236.581,146.273c0,11.804-9.569,21.373-21.373,21.373h-71.243
				c-11.804,0-21.373-9.569-21.373-21.373v0c0-11.804,9.569-21.373,21.373-21.373h71.243
				C227.012,124.9,236.581,134.469,236.581,146.273z" fill="#ccdff2" class="colord9f2cc svgShape"></path>
      </g>
      <g opacity=".3" fill="#000000" class="color000000 svgShape">
        <g fill="#000000" class="color000000 svgShape">
          <path d="M236.581,146.28c0,0.441,0,0.882-0.049,1.275c-3.137-1.863-6.814-2.941-10.735-2.941h-71.222
					c-5.931,0-11.225,2.402-15.097,6.274c-3.578,3.529-5.931,8.431-6.225,13.823c-6.372-3.627-10.637-10.539-10.637-18.431
					c0-5.882,2.402-11.274,6.274-15.097c3.872-3.872,9.166-6.274,15.097-6.274h71.223
					C227.022,124.908,236.581,134.467,236.581,146.28z" fill="#ffffff" class="colorffffff svgShape"></path>
        </g>
      </g>
      <g fill="#000000" class="color000000 svgShape">
        <path d="M194.389,42.259h-29.605c-8.612,0-15.594,6.982-15.594,15.594V124.9h60.794V57.853
				C209.984,49.241,203.002,42.259,194.389,42.259z" fill="#aeaeae" class="colorf66866 svgShape"></path>
      </g>
      <g opacity=".3" fill="#000000" class="color000000 svgShape">
        <g fill="#000000" class="color000000 svgShape">
          <path d="M209.964,57.852v2.843c-4.314-2.353-9.264-3.676-14.509-3.676
					c-16.764,0-30.391,13.627-30.391,30.44v37.449h-15.882V57.852c0-8.627,7.009-15.588,15.588-15.588h29.607
					C203.004,42.265,209.964,49.225,209.964,57.852z" fill="#ffffff" class="colorffffff svgShape"></path>
        </g>
      </g>
      <g fill="#000000" class="color000000 svgShape">
        <path d="M188.007,219.369v74.66c0,13.009-8.044,24.132-19.435,28.642
				c-3.519,1.414-7.369,2.184-11.391,2.184h-74.66c-4.022,0-7.871-0.77-11.391-2.184c-11.391-4.509-19.435-15.633-19.435-28.642
				v-74.66c0-17.031,13.794-30.825,30.825-30.825h74.66C174.213,188.544,188.007,202.338,188.007,219.369z" fill="#707070" class="color576066 svgShape"></path>
      </g>
      <g fill="#000000" class="color000000 svgShape">
        <path d="M168.588,321.586c0,0.361,0,0.723-0.016,1.084c-3.519,1.414-7.369,2.184-11.391,2.184h-74.66
				c-4.022,0-7.871-0.77-11.391-2.184c-0.016-0.361-0.016-0.723-0.016-1.084c0-26.929,21.823-48.736,48.736-48.736
				C146.765,272.85,168.588,294.657,168.588,321.586z" fill="#ffffff" class="colorffffff svgShape"></path>
      </g>
      <g fill="#000000" class="color000000 svgShape">
        <circle cx="119.852" cy="231.122" r="24.479" fill="#ffffff" class="colorffffff svgShape"></circle>
      </g>
      <g fill="#000000" class="color000000 svgShape">
        <path d="M311.148,211.816v28.642c0,6.295-5.103,11.399-11.399,11.399h-78.367
				c-6.295,0-11.399-5.103-11.399-11.399v-28.642c0-6.295,5.103-11.399,11.399-11.399h78.367
				C306.045,200.417,311.148,205.521,311.148,211.816z" fill="#aeaeae" class="colorf66866 svgShape"></path>
      </g>
      <g opacity=".3" fill="#000000" class="color000000 svgShape">
        <g fill="#000000" class="color000000 svgShape">
          <path d="M311.136,211.816v13.186c-1.569-0.343-3.186-0.49-4.804-0.49H256.58
					c-7.059,0-13.529,2.892-18.137,7.549c-4.657,4.657-7.549,11.078-7.549,18.186c0,0.539,0,1.078,0.098,1.618h-9.607
					c-6.274,0-11.421-5.098-11.421-11.421v-28.626c0-6.274,5.147-11.421,11.421-11.421h78.379
					C306.038,200.395,311.136,205.542,311.136,211.816z" fill="#ffffff" class="colorffffff svgShape"></path>
        </g>
      </g>
      <g fill="#000000" class="color000000 svgShape">
        <path d="M468.685,429.821c-1.589,5.604-3.848,11-6.608,16.018l11.46,11.46l-32.455,32.413l-11.46-11.46
				c-5.019,2.802-10.372,5.019-15.977,6.65v16.186h-45.88v-16.186c-5.604-1.631-10.958-3.848-16.018-6.608l-11.418,11.418
				l-32.455-32.413l11.46-11.46c-2.76-5.019-5.019-10.414-6.608-16.018h-16.227v-45.839h16.227c1.589-5.604,3.848-11,6.608-16.018
				l-11.46-11.46l32.455-32.413l11.418,11.418c5.06-2.76,10.414-4.977,16.018-6.608v-16.186h45.88v16.186
				c5.604,1.631,10.958,3.848,15.977,6.65l11.46-11.46l32.455,32.413l-11.46,11.46c2.76,5.019,5.019,10.414,6.608,16.018h16.186
				v45.839H468.685z" fill="#0966c2" class="color5a83fc svgShape"></path>
      </g>
      <g opacity=".3" fill="#000000" class="color000000 svgShape">
        <g fill="#000000" class="color000000 svgShape">
          <path d="M473.577,356.546l-7.589,7.589c-14.497-8.016-31.21-12.62-48.947-12.62
					c-51.676,0-94.398,38.714-100.452,88.855c-1.535-3.411-2.814-6.907-3.837-10.574h-16.288v-45.792h16.288
					c1.535-5.628,3.837-11,6.566-16.031l-11.426-11.427l32.404-32.489l11.427,11.427c5.116-2.729,10.403-4.946,16.032-6.566v-16.202
					h45.877v16.202c5.628,1.62,11.001,3.837,16.031,6.652l11.427-11.512L473.577,356.546z" fill="#ffffff" class="colorffffff svgShape"></path>
        </g>
      </g>
      <g fill="#000000" class="color000000 svgShape">
        <circle cx="390.703" cy="406.902" r="45.838" fill="#ffffff" class="colorffffff svgShape"></circle>
      </g>
      <path d="M63.382,476.041h232.41c6.912,0,13.409-1.745,19.127-4.778l21.947,21.918
			c1.915,1.91,5.014,1.912,6.929-0.002l8.884-8.882c3.298,1.616,6.704,3.021,10.184,4.2v12.592c0,2.707,2.195,4.902,4.902,4.902
			h45.88c2.707,0,4.902-2.195,4.902-4.902v-12.592c3.509-1.19,6.907-2.602,10.165-4.222l8.904,8.904
			c1.915,1.915,5.014,1.912,6.929,0.002l32.455-32.412c1.923-1.918,1.911-5.025,0.002-6.934l-8.916-8.918
			c1.642-3.324,3.049-6.733,4.212-10.194h12.573c2.707,0,4.902-2.195,4.902-4.902v-45.839c0-2.707-2.195-4.902-4.902-4.902h-12.575
			c-1.161-3.461-2.568-6.869-4.21-10.191l8.916-8.918c1.913-1.913,1.916-5.02-0.002-6.934l-32.455-32.414
			c-1.915-1.91-5.014-1.912-6.929,0.002l-8.904,8.904c-3.257-1.62-6.656-3.032-10.165-4.222v-12.592
			c0-2.707-2.195-4.902-4.902-4.902h-45.88c-2.707,0-4.902,2.195-4.902,4.902v12.592c-3.48,1.18-6.886,2.585-10.184,4.203
			l-8.884-8.884c-1.891-1.891-4.928-1.895-6.848-0.056V120.943c0-22.695-18.463-41.158-41.155-41.158h-80.908v-11.41h4.598
			c12.13,0,22-9.871,22-22V28.011c0-12.13-9.871-22-22-22h-79.79c-12.13,0-22,9.871-22,22v18.365c0,12.13,9.871,22,22,22h4.595
			v11.41H63.382c-22.692,0-41.155,18.463-41.155,41.158v313.942C22.227,457.578,40.69,476.041,63.382,476.041z M348.283,338.976
			c1.534,1.537,3.904,1.879,5.814,0.838c4.763-2.599,9.82-4.686,15.038-6.206c2.094-0.608,3.533-2.525,3.533-4.705v-11.285h36.076
			v11.285c0,2.18,1.441,4.098,3.533,4.708c5.282,1.534,10.316,3.628,14.959,6.221c1.92,1.075,4.306,0.737,5.854-0.814l7.994-7.994
			l25.519,25.485l-7.992,7.992c-1.544,1.541-1.881,3.918-0.828,5.828c2.65,4.816,4.729,9.859,6.187,14.992
			c0.598,2.109,2.523,3.564,4.715,3.564h11.285v36.036h-11.285c-2.192,0-4.117,1.455-4.715,3.564
			c-1.455,5.134-3.538,10.179-6.187,14.995c-1.053,1.91-0.716,4.287,0.828,5.828l7.992,7.992l-25.519,25.485l-7.994-7.996
			c-1.549-1.551-3.935-1.881-5.854-0.814c-4.643,2.592-9.677,4.686-14.959,6.221c-2.092,0.61-3.533,2.527-3.533,4.708v11.285
			h-36.076v-11.285c0-2.18-1.438-4.098-3.533-4.705c-5.213-1.517-10.273-3.605-15.038-6.204c-1.917-1.041-4.279-0.699-5.814,0.838
			l-7.956,7.953l-25.519-25.485l7.992-7.992c1.541-1.541,1.881-3.916,0.831-5.828c-2.654-4.825-4.737-9.868-6.189-14.995
			c-0.598-2.109-2.523-3.564-4.715-3.564H301.4v-36.036h11.326c2.192,0,4.117-1.455,4.715-3.564
			c1.455-5.124,3.535-10.17,6.189-14.992c1.051-1.912,0.711-4.287-0.831-5.828l-7.992-7.992l25.519-25.488L348.283,338.976z
			 M215.207,129.801c9.083,0,16.472,7.389,16.472,16.472c0,9.083-7.389,16.472-16.472,16.472h-71.243
			c-9.081,0-16.469-7.389-16.469-16.472c0-9.083,7.389-16.472,16.469-16.472C175.081,129.801,190.208,129.801,215.207,129.801z
			 M154.091,119.998V57.852c0-5.895,4.796-10.691,10.694-10.691h29.604c5.895,0,10.691,4.796,10.691,10.691v62.146H154.091z
			 M139.692,58.573c-6.726,0-12.197-5.471-12.197-12.197V28.011c0-6.726,5.471-12.197,12.197-12.197h79.79
			c6.726,0,12.197,5.471,12.197,12.197v18.365c0,6.726-5.471,12.197-12.197,12.197h-4.598v-0.72
			c0-11.302-9.193-20.495-20.495-20.495h-29.604c-11.302,0-20.497,9.193-20.497,20.495v0.72H139.692z M32.031,120.943
			c0-17.288,14.064-31.354,31.352-31.354h80.905v30.409h-0.323c-14.487,0-26.273,11.788-26.273,26.275
			c0,14.487,11.785,26.275,26.273,26.275h71.243c14.487,0,26.275-11.788,26.275-26.275c0-14.487-11.788-26.275-26.275-26.275h-0.323
			V89.589h80.908c17.288,0,31.352,14.066,31.352,31.354v209.389l-22.733,22.704c-1.923,1.918-1.911,5.025-0.002,6.934l8.916,8.918
			c-1.642,3.327-3.052,6.735-4.21,10.191h-12.616c-2.707,0-4.902,2.195-4.902,4.902v45.839c0,2.707,2.195,4.902,4.902,4.902h12.616
			c1.158,3.456,2.568,6.867,4.21,10.194l-8.916,8.918c-1.913,1.913-1.916,5.02,0.002,6.934l3.09,3.085
			c-3.628,1.482-7.552,2.384-11.708,2.384H63.382c-17.288,0-31.352-14.064-31.352-31.352V120.943z" fill="#2c2c2c" class="color242c35 svgShape"></path>
      <path d="M82.523,329.756h74.658c19.612,0,35.729-15.866,35.729-35.727v-74.661
			c0-19.7-16.029-35.727-35.729-35.727H82.523c-19.7,0-35.727,16.026-35.727,35.727v74.661
			C46.796,314.26,63.156,329.756,82.523,329.756z M82.523,319.953c-2.512,0-4.374-0.381-6.428-0.91
			c1.323-22.99,20.441-41.291,43.758-41.291c23.315,0,42.433,18.301,43.756,41.292c-1.351,0.348-3.3,0.91-6.428,0.91H82.523z
			 M56.599,219.368c0-14.294,11.63-25.923,25.923-25.923h74.658c14.296,0,25.926,11.63,25.926,25.923v74.661
			c0,8.246-3.834,15.722-10.131,20.533c-3.459-26.26-25.933-46.614-53.122-46.614c-27.189,0-49.666,20.354-53.125,46.615
			c-6.292-4.808-10.129-12.285-10.129-20.534V219.368z" fill="#2c2c2c" class="color242c35 svgShape"></path>
      <path d="M119.853 260.502c16.199 0 29.379-13.181 29.379-29.379 0-16.201-13.181-29.382-29.379-29.382-16.201 0-29.382 13.181-29.382 29.382C90.471 247.321 103.652 260.502 119.853 260.502zM119.853 211.544c10.794 0 19.576 8.784 19.576 19.578 0 10.794-8.782 19.576-19.576 19.576s-19.578-8.782-19.578-19.576C100.275 220.328 109.059 211.544 119.853 211.544zM221.383 256.759h78.366c8.99 0 16.302-7.312 16.302-16.299v-28.642c0-8.99-7.312-16.302-16.302-16.302h-78.366c-8.99 0-16.302 7.312-16.302 16.302v28.642C205.081 249.447 212.393 256.759 221.383 256.759zM214.884 211.817c0-3.583 2.915-6.498 6.498-6.498h78.366c3.583 0 6.498 2.915 6.498 6.498v28.642c0 3.583-2.915 6.496-6.498 6.496h-78.366c-3.583 0-6.498-2.913-6.498-6.496V211.817zM211.883 277.986h48.682c2.707 0 4.902-2.195 4.902-4.902s-2.195-4.902-4.902-4.902h-48.682c-2.707 0-4.902 2.195-4.902 4.902S209.176 277.986 211.883 277.986zM311.148 299.924h-99.265c-2.707 0-4.902 2.195-4.902 4.902 0 2.707 2.195 4.902 4.902 4.902h99.265c2.707 0 4.902-2.195 4.902-4.902C316.05 302.119 313.855 299.924 311.148 299.924zM265.467 336.568c0-2.707-2.195-4.902-4.902-4.902h-48.682c-2.707 0-4.902 2.195-4.902 4.902s2.195 4.902 4.902 4.902h48.682C263.272 341.47 265.467 339.275 265.467 336.568zM104.545 377.302c8.116 0 14.717 6.601 14.717 14.717 0 2.707 2.195 4.902 4.902 4.902 2.707 0 4.902-2.195 4.902-4.902 0-13.521-11-24.521-24.521-24.521s-24.521 11-24.521 24.521c0 13.521 11 24.521 24.521 24.521 8.116 0 14.717 6.601 14.717 14.717s-6.601 14.717-14.717 14.717-14.717-6.601-14.717-14.717c0-2.707-2.195-4.902-4.902-4.902s-4.902 2.195-4.902 4.902c0 13.521 11 24.521 24.521 24.521s24.521-11 24.521-24.521-11-24.521-24.521-24.521c-8.116 0-14.717-6.601-14.717-14.717C89.827 383.903 96.428 377.302 104.545 377.302zM155.506 371.986c-1.285-1.661-3.478-2.307-5.462-1.637-1.982.677-3.315 2.542-3.315 4.638v71.559c0 2.707 2.195 4.902 4.902 4.902 2.707 0 4.902-2.195 4.902-4.902v-57.222l18.93 24.444c1.857 2.398 5.895 2.398 7.75 0l18.927-24.444v57.222c0 2.707 2.195 4.902 4.902 4.902 2.707 0 4.902-2.195 4.902-4.902v-71.559c0-2.097-1.333-3.961-3.315-4.638-1.984-.675-4.179-.024-5.462 1.637l-23.829 30.775L155.506 371.986zM274.246 379.889c2.707 0 4.902-2.195 4.902-4.902s-2.195-4.902-4.902-4.902h-39.736c-2.707 0-4.902 2.195-4.902 4.902v71.559c0 2.707 2.195 4.902 4.902 4.902h39.736c2.707 0 4.902-2.195 4.902-4.902s-2.195-4.902-4.902-4.902h-34.834v-25.976h34.834c2.707 0 4.902-2.195 4.902-4.902s-2.195-4.902-4.902-4.902h-34.834v-25.976H274.246zM390.704 457.642c27.979 0 50.741-22.762 50.741-50.741 0-27.979-22.762-50.741-50.741-50.741-27.979 0-50.741 22.762-50.741 50.741C339.963 434.881 362.725 457.642 390.704 457.642zM390.704 365.964c22.573 0 40.937 18.365 40.937 40.937 0 22.573-18.365 40.937-40.937 40.937-22.572 0-40.937-18.365-40.937-40.937C349.766 384.329 368.131 365.964 390.704 365.964z" fill="#2c2c2c" class="color242c35 svgShape"></path>
    </g>
  </g>
</svg>
