<svg xmlns="http://www.w3.org/2000/svg" xml:space="preserve" viewBox="0 0 512 512" enable-background="new 0 0 512 512" id="11962823">
  <g id="_x31_3_Solution" fill="#0966c2" class="color000000 svgShape">
    <g fill="#0966c2" class="color000000 svgShape">
      <g fill="#0966c2" class="color000000 svgShape">
        <path d="M309.97,360.156c0,11.69-9.46,21.15-21.15,21.15c-11.669,0-21.128-9.46-21.128-21.15
				c0-11.669,9.46-21.128,21.128-21.128C300.511,339.028,309.97,348.487,309.97,360.156z" fill="#ffffff" class="colorffffff svgShape"></path>
      </g>
      <g fill="#0966c2" class="color000000 svgShape">
        <path d="M267.713,360.167h42.236c6.93,0,12.548-5.618,12.548-12.548v0c0-6.93-5.618-12.548-12.548-12.548
				h-42.236c-6.93,0-12.548,5.618-12.548,12.548v0C255.165,354.549,260.783,360.167,267.713,360.167z" fill="#aeaeae" class="colorf66866 svgShape"></path>
      </g>
      <g fill="#0966c2" class="color000000 svgShape">
        <path d="M399.562,152.021c2.519,39.543-15.709,75.009-44.857,96.546
				c-16.789,12.405-26.5,32.202-26.5,53.077v6.779h-78.748v-6.785c0-20.893-9.747-40.679-26.544-53.103
				c-27.327-20.213-45.045-52.674-45.045-89.255c0-64.07,54.337-115.479,119.43-110.648
				C352.059,52.697,396.071,97.221,399.562,152.021z" fill="#ffffff" class="colorffffff svgShape"></path>
      </g>
      <g fill="#0966c2" class="color000000 svgShape">
        <line x1="288.831" x2="288.831" y1="10.924" y2="29.924" fill="#fff"></line>
      </g>
      <g fill="#0966c2" class="color000000 svgShape">
        <line x1="395.516" x2="382.081" y1="55.114" y2="68.549" fill="#fff"></line>
      </g>
      <g fill="#0966c2" class="color000000 svgShape">
        <line x1="439.707" x2="420.707" y1="161.8" y2="161.8" fill="#fff"></line>
      </g>
      <g fill="#0966c2" class="color000000 svgShape">
        <line x1="156.955" x2="137.955" y1="161.8" y2="161.8" fill="#fff"></line>
      </g>
      <g fill="#0966c2" class="color000000 svgShape">
        <line x1="195.58" x2="182.145" y1="68.549" y2="55.114" fill="#fff"></line>
      </g>
      <g fill="#0966c2" class="color000000 svgShape">
        <path d="M261.389,335.07h54.884c9.006,0,16.306-7.301,16.306-16.306v0c0-9.006-7.301-16.306-16.306-16.306
				h-54.884c-9.006,0-16.306,7.301-16.306,16.306v0C245.082,327.769,252.383,335.07,261.389,335.07z" fill="#aeaeae" class="colorf66866 svgShape"></path>
      </g>
      <g opacity=".3" fill="#0966c2" class="color000000 svgShape">
        <g fill="#0966c2" class="color000000 svgShape">
          <path d="M322.468,346.398H282.42c-6.911,0-12.548,5.637-12.548,12.549c0,0.441,0,0.833,0.049,1.225
					h-2.206c-3.48,0-6.617-1.422-8.872-3.676c-2.255-2.304-3.676-5.441-3.676-8.872c0-6.911,5.637-12.548,12.548-12.548h42.253
					c3.48,0,6.618,1.422,8.872,3.676C320.801,340.761,322.174,343.457,322.468,346.398z" fill="#ffffff" class="colorffffff svgShape"></path>
        </g>
      </g>
      <g opacity=".3" fill="#0966c2" class="color000000 svgShape">
        <g fill="#0966c2" class="color000000 svgShape">
          <path d="M331.83,313.85c-0.294-0.049-0.539-0.049-0.833-0.049h-54.9c-9.019,0-16.323,7.304-16.323,16.274
					c0,1.715,0.245,3.382,0.784,4.951c-4.166-0.196-7.941-1.961-10.735-4.755c-2.941-2.941-4.755-7.009-4.755-11.519
					c0-8.97,7.304-16.274,16.323-16.274h54.9c4.51,0,8.529,1.814,11.519,4.755C329.624,309.046,331.046,311.35,331.83,313.85z" fill="#ffffff" class="colorffffff svgShape"></path>
        </g>
      </g>
      <g fill="#0966c2" class="color000000 svgShape">
        <path d="M223.24,437.971L223.24,437.971c7.001-7.001,16.497-10.934,26.398-10.934h76.537
				c8.746,0,15.836-7.09,15.836-15.836v0c0-8.746-7.09-15.836-15.836-15.836h-68.314c-11.679,0-23.268-2.042-34.243-6.033l0,0
				c-10.976-3.991-22.564-6.033-34.243-6.033h-44.937v89.738l105.875,26.025c18.599,4.572,38.258,1.376,54.452-8.851l124.873-78.867
				c10.564-6.672,11.297-21.807,1.428-29.469l0,0c-5.164-4.009-12.094-4.906-18.108-2.346l-70.945,30.204" fill="#ffffff" class="colorffffff svgShape"></path>
      </g>
      <g fill="#0966c2" class="color000000 svgShape">
        <path d="M72.294,482.714V373.621c0-9.093,7.371-16.465,16.465-16.465h39.213
				c9.093,0,16.465,7.371,16.465,16.465v109.093c0,9.093-7.371,16.465-16.465,16.465H88.759
				C79.666,499.179,72.294,491.807,72.294,482.714z" fill="#ccdff2" class="colord9f2cc svgShape"></path>
      </g>
      <g opacity=".3" fill="#0966c2" class="color000000 svgShape">
        <g fill="#0966c2" class="color000000 svgShape">
          <path d="M144.436,373.603v3.529c-6.225-5.049-14.117-8.088-22.695-8.088
					c-19.901,0-36.077,16.176-36.077,36.077v69.899c0,9.313,3.578,17.793,9.412,24.166h-6.323c-9.068,0-16.47-7.402-16.47-16.47
					V373.603c0-9.068,7.402-16.47,16.47-16.47h39.214C137.083,357.132,144.436,364.534,144.436,373.603z" fill="#ffffff" class="colorffffff svgShape"></path>
        </g>
      </g>
      <g fill="#0966c2" class="color000000 svgShape">
        <path d="M124.836,409.011c0,9.067-7.385,16.452-16.488,16.452c-9.067,0-16.452-7.385-16.452-16.452
				c0-9.103,7.385-16.488,16.452-16.488C117.451,392.523,124.836,399.908,124.836,409.011z" fill="#ffffff" class="colorffffff svgShape"></path>
      </g>
      <path d="M219.997 252.476c15.375 11.371 24.557 29.75 24.557 49.161v4.375c-2.703 3.56-4.37 7.945-4.37 12.75 0 8.73 5.307 16.236 12.859 19.484-1.739 2.713-2.778 5.917-2.778 9.371 0 8.059 5.52 14.794 12.957 16.791 2.044 12.337 12.701 21.799 25.601 21.799 12.91 0 23.576-9.463 25.621-21.8 7.436-1.998 12.957-8.732 12.957-16.789 0-3.454-1.04-6.657-2.779-9.37 7.553-3.248 12.86-10.754 12.86-19.485 0-4.807-1.669-9.195-4.375-12.756v-4.362c0-19.425 9.162-37.792 24.514-49.135 31.847-23.535 49.353-61.217 46.835-100.8-3.648-57.304-49.559-103.72-106.79-107.966-69.133-5.098-124.698 49.787-124.698 115.536C172.966 195.855 190.548 230.694 219.997 252.476zM288.822 376.404c-7.226 0-13.293-4.786-15.387-11.335h30.792C302.131 371.618 296.056 376.404 288.822 376.404zM309.947 355.265h-42.235c-4.217 0-7.645-3.43-7.645-7.647 0-4.217 3.427-7.647 7.645-7.647h42.235c4.217 0 7.649 3.43 7.649 7.647C317.596 351.835 314.164 355.265 309.947 355.265zM316.275 330.167c-.771 0-55.934 0-54.886 0-6.285 0-11.402-5.117-11.402-11.405 0-6.288 5.117-11.402 11.402-11.402h54.886c6.285 0 11.402 5.115 11.402 11.402C327.677 325.05 322.56 330.167 316.275 330.167zM296.936 53.52c52.378 3.889 94.392 46.368 97.734 98.813 2.307 36.246-13.719 70.748-42.881 92.293-17.104 12.64-27.493 32.778-28.325 54.271-2.255-.819-4.654-1.34-7.189-1.34h-22.541v-94.988l37.304-37.304c1.915-1.915 1.915-5.017 0-6.931-1.915-1.915-5.017-1.915-6.931 0l-35.284 35.282-35.265-35.282c-1.915-1.915-5.017-1.912-6.931-.002-1.915 1.915-1.915 5.019 0 6.934l37.304 37.323v94.97h-22.541c-2.545 0-4.954.523-7.217 1.349-.828-21.483-11.21-41.639-28.345-54.313-26.96-19.94-43.058-51.832-43.058-85.312C182.769 98.931 233.828 48.831 296.936 53.52zM293.734 29.923V10.924c0-2.707-2.192-4.902-4.902-4.902-2.709 0-4.902 2.195-4.902 4.902v18.999c0 2.707 2.192 4.902 4.902 4.902C291.541 34.824 293.734 32.63 293.734 29.923z" fill="#707070" class="color242c35 svgShape"></path>
      <path d="m385.546 72.014 13.437-13.434c1.915-1.912 1.915-5.017 0-6.931-1.915-1.915-5.017-1.915-6.931 0l-13.437 13.434c-1.915 1.912-1.915 5.017 0 6.931C380.529 73.928 383.631 73.928 385.546 72.014zM439.705 166.7c2.709 0 4.902-2.195 4.902-4.902 0-2.707-2.192-4.902-4.902-4.902h-18.999c-2.709 0-4.902 2.195-4.902 4.902 0 2.707 2.192 4.902 4.902 4.902H439.705zM156.956 166.7c2.707 0 4.902-2.195 4.902-4.902 0-2.707-2.195-4.902-4.902-4.902h-19.001c-2.707 0-4.902 2.195-4.902 4.902 0 2.707 2.195 4.902 4.902 4.902H156.956zM199.045 72.014c1.915-1.912 1.915-5.017 0-6.931l-13.432-13.434c-1.915-1.915-5.017-1.915-6.931 0-1.915 1.912-1.915 5.017 0 6.931l13.432 13.434C194.028 73.928 197.13 73.928 199.045 72.014zM88.76 352.254c-11.78 0-21.366 9.586-21.366 21.366v109.095c0 11.78 9.586 21.366 21.366 21.366h39.212c11.78 0 21.366-9.586 21.366-21.366v-3.426l99.806 24.534c19.681 4.84 40.933 1.461 58.237-9.466l124.875-78.868c13.422-8.478 14.358-27.747 1.814-37.486-6.563-5.096-15.399-6.24-23.034-2.982l-65.8 28.01c-3.178-7.384-10.526-12.568-19.061-12.568h-68.313c-11.144 0-22.101-1.931-32.57-5.739-11.551-4.198-23.633-6.326-35.916-6.326h-40.037v-4.777c0-11.78-9.586-21.366-21.366-21.366H88.76zM108.348 420.56c-6.369 0-11.551-5.179-11.551-11.548 0-6.388 5.182-11.587 11.551-11.587 6.388 0 11.587 5.199 11.587 11.587C119.934 415.381 114.736 420.56 108.348 420.56zM189.375 388.201c11.139 0 22.096 1.929 32.565 5.737 11.546 4.198 23.633 6.328 35.921 6.328h68.313c6.027 0 10.933 4.904 10.933 10.933 0 6.029-4.907 10.936-10.933 10.936h-76.537c-11.283 0-21.886 4.392-29.861 12.369-1.915 1.915-1.915 5.019 0 6.931 1.915 1.915 5.017 1.915 6.931 0 6.122-6.125 14.265-9.497 22.929-9.497h76.537c10.828 0 19.741-8.339 20.66-18.932l68.041-28.968c4.38-1.855 9.425-1.209 13.183 1.709 7.195 5.582 6.665 16.587-1.039 21.45l-124.875 78.869c-14.978 9.466-33.427 12.467-50.664 8.236l-102.142-25.11v-80.991H189.375zM139.534 373.62c0 26.875 0 82.112 0 109.095 0 6.376-5.187 11.563-11.563 11.563h-14.705v-64.539c9.421-2.231 16.472-10.65 16.472-20.727 0-11.795-9.595-21.39-21.39-21.39-11.776 0-21.354 9.595-21.354 21.39 0 10.086 7.05 18.513 16.469 20.735v64.532H88.76c-6.376 0-11.563-5.187-11.563-11.563V373.62c0-6.376 5.187-11.563 11.563-11.563h39.212C134.348 362.057 139.534 367.244 139.534 373.62z" fill="#707070" class="color242c35 svgShape"></path>
    </g>
  </g>
</svg>
