<svg xmlns="http://www.w3.org/2000/svg" enable-background="new 0 0 512 512" viewBox="0 0 512 512" id="6621990">
  <path fill="#ffffff" d="M339.07,449.288v-38.963c0-14.429-11.697-26.126-26.126-26.126H199.056
			c-14.429,0-26.126,11.697-26.126,26.126v38.963H339.07z" class="colorffffff svgShape"></path>
  <path fill="#0966c2" d="M364.624,498.18v-25.731c0-12.791-10.37-23.161-23.161-23.161H170.537
			c-12.791,0-23.161,10.37-23.161,23.161v25.731H364.624z" class="colorcfcfd1 svgShape"></path>
  <path fill="#818181" d="M351.332,190.389c-9.062-2.031-17.812-5.781-27.109-6.718c-10-1.016-19.922,1.406-30,2.265
			c30.155,35.859,47.968,81.952,50.233,128.747c0.781,16.249-12.344,29.843-28.593,30.312c-5.469,0.156-11.094,0.312-16.562,0.469
			v38.749h-86.561c-4.141-10.703-7.265-23.984-9.297-38.749l-0.078,0.156c-13.593,2.188-28.359,2.5-41.327-0.625
			c-12.734-3.047-21.797-14.531-22.109-27.656c-2.031-87.576,9.531-226.401,94.06-244.682c4.688-29.53,34.296-53.28,63.671-58.827
			c-5.391,17.734-10.625,35.077-16.093,52.811c18.593-0.625,36.328,9.921,48.124,24.374c5.547,6.718,9.531,14.531,14.922,21.249
			c6.484,8.047,14.765,14.375,22.343,21.25c7.656,6.953,14.765,14.921,17.812,24.687
			C391.175,178.201,378.597,196.248,351.332,190.389z" class="colorfdce06 svgShape"></path>
  <path fill="#707070" d="M165.119,410.326v31.698c-14.494,2.578-25.554,15.204-25.554,30.427v17.917H115.35
			c-4.314,0-7.812,3.498-7.812,7.812s3.498,7.812,7.812,7.812h32.027h217.246h32.027c4.314,0,7.812-3.498,7.812-7.812
			s-3.498-7.812-7.812-7.812h-24.215v-17.917c0-15.223-11.06-27.849-25.554-30.427v-31.698c0-18.715-15.224-33.939-33.939-33.939
			h-5.852V353.09c0.86-0.025,1.72-0.05,2.579-0.075l6.428-0.187c9.99-0.29,19.615-4.661,26.405-11.997
			c6.748-7.286,10.204-16.712,9.735-26.538c-2.106-44.15-17.489-87.004-43.426-122.286c5.081-0.631,9.946-1.052,14.599-0.597
			c5.035,0.526,10.078,2.033,15.419,3.628c3.593,1.072,7.183,2.136,10.864,2.956c15.506,3.376,28.606,0.248,36.834-8.812
			c7.587-8.346,9.723-20.813,5.726-33.313c-3.841-12.222-12.706-21.45-20.031-28.152c-2.01-1.82-4.07-3.601-6.126-5.382
			c-5.669-4.913-11.024-9.552-15.384-14.946c-2.407-2.983-4.547-6.29-6.813-9.792c-2.479-3.834-5.043-7.793-8.129-11.558
			c-11.875-14.48-27.713-23.929-43.857-26.527c2.392-7.786,4.738-15.518,7.091-23.269l6.126-20.141
			c0.801-2.617,0.175-5.463-1.652-7.5c-1.823-2.037-4.589-2.96-7.274-2.46c-28.262,5.371-60.908,28.026-68.861,60.145
			c-87.233,24.021-97.17,167.038-95.197,251.215c0.393,16.758,11.944,31.192,28.087,35.098c7.709,1.862,15.529,2.537,22.83,2.537
			c4.982,0,9.663-0.333,13.95-0.801c1.338,7.945,2.969,15.363,4.898,22.052h-2.853C180.343,376.387,165.119,391.611,165.119,410.326
			z M356.811,472.451v17.917H155.189v-17.917c0-8.465,6.885-15.35,15.346-15.35h2.396h166.138h2.396
			C349.925,457.101,356.811,463.986,356.811,472.451z M331.257,410.326v31.15H180.743v-31.15c0-10.097,8.217-18.314,18.314-18.314
			h13.399c0.086,0.003,0.163,0.038,0.249,0.038h86.573c0.067,0,0.122-0.036,0.189-0.038h13.475
			C323.04,392.012,331.257,400.228,331.257,410.326z M225.508,204.539c1.873-3.887,0.24-8.556-3.647-10.429
			c-3.872-1.873-8.556-0.244-10.429,3.647c-17.392,36.081-21.729,94.404-16.563,141.023c-11.296,1.173-22.104,0.777-30.964-1.37
			c-9.277-2.243-15.915-10.582-16.143-20.275c-1.522-65.165,3.99-218.688,87.892-236.807c3.151-0.683,5.562-3.227,6.069-6.412
			c3.639-22.926,23.62-40.515,44.272-48.598l-1.945,6.389c-3.288,10.837-6.569,21.64-9.968,32.596
			c-0.748,2.411-0.286,5.035,1.244,7.046c1.53,2.006,4.04,3.128,6.454,3.078c14.923-0.332,30.483,7.595,41.907,21.518
			c2.521,3.082,4.742,6.512,7.091,10.139c2.384,3.685,4.852,7.5,7.774,11.12c5.237,6.481,11.375,11.799,17.311,16.941
			c1.972,1.709,3.944,3.414,5.844,5.131c5.848,5.352,12.912,12.607,15.648,21.316c2.323,7.263,1.453,13.855-2.392,18.085
			c-4.311,4.745-12.1,6.199-21.911,4.059c-3.281-0.732-6.515-1.705-9.754-2.67c-5.791-1.728-11.78-3.517-18.31-4.2
			c-7.839-0.774-15.365,0.244-22.647,1.228c-4.509,0.61-8.766,1.186-13.027,1.335c-8.121,0.343-18.989-1.858-22.788-9.163
			c-1.991-3.826-6.71-5.314-10.536-3.326c-3.826,1.991-5.318,6.706-3.326,10.536c6.096,11.718,20.076,18.245,37.25,17.566
			c0.243-0.009,0.475-0.043,0.717-0.054c27.524,34.092,43.892,76.873,45.997,121.054c0.271,5.604-1.717,10.994-5.592,15.178
			c-4.017,4.337-9.483,6.821-15.392,6.992l-6.428,0.187c-16.159,0.473-32.905,0.961-39.626,1.129
			c-4.314,0.107-7.725,3.689-7.614,8.003c0.103,4.249,3.582,7.618,7.805,7.618c0.065,0,0.134,0,0.198-0.004
			c4.161-0.104,12.166-0.33,21.488-0.599v22.842H218.2C203.986,333.218,204.259,248.616,225.508,204.539z" class="color3e3e3e svgShape"></path>
</svg>
