<svg xmlns="http://www.w3.org/2000/svg" xml:space="preserve" viewBox="0 0 512 512" enable-background="new 0 0 512 512" id="11962846">
  <g id="_x33_6_Suply_Chain" fill="#000000" class="color000000 svgShape">
    <g fill="#000000" class="color000000 svgShape">
      <g fill="#000000" class="color000000 svgShape">
        <ellipse cx="409.305" cy="146.806" rx="35.551" ry="14.072" fill="#d9dee3" class="colord9dde3 svgShape"></ellipse>
      </g>
      <g fill="#000000" class="color000000 svgShape">
        <polygon points="501.088 376.247 446.168 407.04 391.247 376.247 446.168 345.453" fill="#aeaeae" class="colorf66866 svgShape"></polygon>
      </g>
      <g opacity=".3" fill="#000000" class="color000000 svgShape">
        <g fill="#000000" class="color000000 svgShape">
          <path d="M501.068,376.246l-17.909,10.068c-1.252-3.016-3.526-5.66-6.773-7.516l-22.455-12.573
					c-4.825-2.691-10.717-2.691-15.542,0l-22.409,12.573c-3.248,1.809-5.521,4.5-6.82,7.47l-17.909-10.021l54.932-30.806
					L501.068,376.246z" fill="#ffffff" class="colorffffff svgShape"></path>
        </g>
      </g>
      <g fill="#000000" class="color000000 svgShape">
        <polygon points="391.247 433.707 446.168 464.501 446.168 407.04 391.247 376.247" fill="#aeaeae" class="colorf66866 svgShape"></polygon>
      </g>
      <g opacity=".3" fill="#000000" class="color000000 svgShape">
        <g fill="#000000" class="color000000 svgShape">
          <path d="M446.182,407.052v15.078l-27.883-15.635c-7.145-3.99-16.006,1.16-16.006,9.372V439.9
					l-11.042-6.171v-57.483L446.182,407.052z" fill="#ffffff" class="colorffffff svgShape"></path>
        </g>
      </g>
      <g fill="#000000" class="color000000 svgShape">
        <polygon points="501.088 433.707 446.168 464.501 446.168 407.04 501.088 376.247" fill="#aeaeae" class="colorf66866 svgShape"></polygon>
      </g>
      <g opacity=".3" fill="#000000" class="color000000 svgShape">
        <g fill="#000000" class="color000000 svgShape">
          <path d="M501.068,376.246v20.275c-2.134,0.093-4.269,0.696-6.31,1.809l-26.213,14.707
					c-4.547,2.552-7.33,7.33-7.33,12.527v24.589c0,1.949,0.371,3.712,1.067,5.336l-16.099,9.001v-57.437L501.068,376.246z" fill="#ffffff" class="colorffffff svgShape"></path>
        </g>
      </g>
      <g fill="#000000" class="color000000 svgShape">
        <circle cx="114.316" cy="103.062" r="63.597" transform="rotate(-45.001 114.315 103.064)" fill="#d9dee3" class="colord9dde3 svgShape"></circle>
      </g>
      <g opacity=".3" fill="#000000" class="color000000 svgShape">
        <g fill="#000000" class="color000000 svgShape">
          <path d="M177.91,103.066c0,35.121-28.44,63.608-63.607,63.608c-20.136,0-38.044-9.325-49.643-23.94
					c-8.722-10.856-13.918-24.636-13.918-39.668c0-35.121,28.44-63.607,63.561-63.607c30.667,0,56.184,21.666,62.215,50.478
					C177.447,94.158,177.91,98.566,177.91,103.066z" fill="#ffffff" class="colorffffff svgShape"></path>
        </g>
      </g>
      <g opacity=".3" fill="#000000" class="color000000 svgShape">
        <g fill="#000000" class="color000000 svgShape">
          <path d="M177.91,103.066c0,35.121-28.44,63.608-63.607,63.608c-20.136,0-38.044-9.325-49.643-23.94
					c-0.928-4.222-1.392-8.629-1.392-13.13c0-35.121,28.44-63.608,63.561-63.608c20.136,0,38.09,9.325,49.689,23.94
					C177.447,94.158,177.91,98.566,177.91,103.066z" fill="#ffffff" class="colorffffff svgShape"></path>
        </g>
      </g>
      <g fill="#000000" class="color000000 svgShape">
        <path d="M121.789,379.522v94.898H36.09c-13.9,0-25.177-11.277-25.177-25.177v-69.721
				c0-10.954,8.897-19.851,19.851-19.851h71.174C112.892,359.671,121.789,368.568,121.789,379.522z" fill="#ccdff2" class="colord9f2cc svgShape"></path>
      </g>
      <g opacity=".3" fill="#000000" class="color000000 svgShape">
        <g fill="#000000" class="color000000 svgShape">
          <path d="M121.773,379.534v14.846c-9.929-10.207-23.847-16.563-39.204-16.563h-1.438
					c-15.125,0-28.811,6.124-38.694,16.006c-9.928,9.928-16.052,23.568-16.052,38.693c0,16.331,6.495,31.038,17.027,41.895h-7.33
					c-13.872,0-25.146-11.274-25.146-25.146v-69.731c0-10.949,8.862-19.857,19.811-19.857h71.17
					C112.911,359.677,121.773,368.585,121.773,379.534z" fill="#ffffff" class="colorffffff svgShape"></path>
        </g>
      </g>
      <g fill="#000000" class="color000000 svgShape">
        <path d="M176.017,433.75v26.63c0,7.747-6.294,14.041-14.041,14.041h-40.187v-94.898
				c5.386,0,10.591,0.787,15.494,2.259c20.315,6.032,35.627,23.644,38.29,45.19C175.875,429.191,176.017,431.45,176.017,433.75z" fill="#ccdff2" class="colord9f2cc svgShape"></path>
      </g>
      <g opacity=".3" fill="#000000" class="color000000 svgShape">
        <g fill="#000000" class="color000000 svgShape">
          <path d="M176.008,433.77V460.4c0,7.748-6.263,14.011-14.011,14.011h-40.224v-9.929h11.877
					c14.522,0,26.306-11.738,26.306-26.26v-14.382c0-2.32-0.139-4.593-0.464-6.774c-1.624-13.362-8.166-25.192-17.723-33.729
					c18.048,7.145,31.317,23.708,33.822,43.611C175.869,429.176,176.008,431.45,176.008,433.77z" fill="#ffffff" class="colorffffff svgShape"></path>
        </g>
      </g>
      <g fill="#000000" class="color000000 svgShape">
        <path d="M175.573,426.972h-22.958c-8.473,0-15.332-6.859-15.332-15.353v-29.837
				C157.598,387.814,172.91,405.426,175.573,426.972z" fill="#ffffff" class="colorffffff svgShape"></path>
      </g>
      <g fill="#000000" class="color000000 svgShape">
        <path d="M455.894,65.973c0,25.75-46.55,79.055-46.55,79.055s-46.627-53.306-46.627-79.055
				s20.878-46.55,46.627-46.55C435.093,19.423,455.894,40.223,455.894,65.973z" fill="#707070" class="color576066 svgShape"></path>
      </g>
      <g fill="#000000" class="color000000 svgShape">
        <path d="M409.344,86.614c-11.383,0-20.645-9.257-20.645-20.64c0-11.343,9.262-20.569,20.645-20.569
				c11.34,0,20.566,9.226,20.566,20.569C429.91,77.358,420.684,86.614,409.344,86.614z" fill="#ffffff" class="colorffffff svgShape"></path>
      </g>
      <g fill="#000000" class="color000000 svgShape">
        <path d="M359.765,280.303c-1.77,6.241-4.285,12.25-7.359,17.839l12.762,12.762l-36.144,36.097
				l-12.762-12.762c-5.589,3.121-11.551,5.589-17.793,7.406v18.025h-51.096v-18.025c-6.241-1.816-12.203-4.285-17.839-7.359
				l-12.716,12.716l-36.144-36.097l12.762-12.762c-3.074-5.589-5.589-11.598-7.359-17.839h-18.072v-51.049h18.072
				c1.77-6.241,4.285-12.25,7.359-17.839l-12.762-12.762l36.144-36.097l12.716,12.716c5.636-3.074,11.598-5.543,17.839-7.359
				v-18.025h51.096v18.025c6.241,1.817,12.203,4.285,17.793,7.406l12.762-12.762l36.144,36.097l-12.762,12.762
				c3.074,5.589,5.589,11.598,7.359,17.839h18.025v51.049H359.765z" fill="#0966c2" class="color5a83fc svgShape"></path>
      </g>
      <g opacity=".3" fill="#000000" class="color000000 svgShape">
        <g fill="#000000" class="color000000 svgShape">
          <path d="M365.213,198.699l-8.452,8.452c-16.144-8.927-34.758-14.055-54.511-14.055
					c-57.55,0-105.128,43.115-111.87,98.955c-1.71-3.798-3.134-7.692-4.274-11.776h-18.139v-50.997h18.139
					c1.709-6.268,4.274-12.25,7.312-17.854l-12.725-12.726l36.087-36.182l12.726,12.726c5.698-3.039,11.586-5.508,17.854-7.313
					v-18.043h51.092v18.043c6.268,1.804,12.251,4.274,17.854,7.408l12.726-12.821L365.213,198.699z" fill="#ffffff" class="colorffffff svgShape"></path>
        </g>
      </g>
      <g fill="#000000" class="color000000 svgShape">
        <circle cx="272.919" cy="254.779" r="51.049" fill="#ffffff" class="colorffffff svgShape"></circle>
      </g>
      <g fill="#000000" class="color000000 svgShape">
        <circle cx="54.83" cy="474.421" r="18.157" fill="#ffffff" class="colorffffff svgShape"></circle>
      </g>
      <g fill="#000000" class="color000000 svgShape">
        <circle cx="135.185" cy="474.421" r="18.157" fill="#ffffff" class="colorffffff svgShape"></circle>
      </g>
      <path d="M170.573 41.924c-2.444 1.163-3.482 4.088-2.322 6.534.84 1.766 2.599 2.796 4.43 2.796.706 0 1.424-.153 2.104-.474 50.667-24.098 106.777-26.819 156.343-12.173l-8.632 5.51c-2.281 1.455-2.951 4.485-1.493 6.769 1.457 2.286 4.495 2.947 6.769 1.494l17.592-11.23c2.281-1.455 2.951-4.485 1.493-6.769l-11.23-17.597c-1.453-2.279-4.478-2.949-6.769-1.494-2.281 1.455-2.951 4.485-1.493 6.769l4.138 6.484C279.182 13.698 221.792 17.569 170.573 41.924zM65.224 185.171c1.126 2.455 4.025 3.538 6.501 2.413 2.458-1.13 3.537-4.04 2.408-6.501l-8.71-18.97c-1.13-2.465-4.052-3.533-6.498-2.413l-18.968 8.707c-2.46 1.13-3.54 4.04-2.41 6.501 1.13 2.46 4.04 3.523 6.498 2.413l8.42-3.865c-18.822 53.844-17.539 115.74 8.203 171.497 1.132 2.461 4.049 3.528 6.503 2.398 2.458-1.134 3.53-4.05 2.396-6.505-24.14-52.295-26.183-111.34-8.021-163.685L65.224 185.171zM474.645 304.474c-1.199-2.427-4.143-3.427-6.565-2.221-2.427 1.197-3.423 4.141-2.223 6.568l9.246 18.712c1.195 2.418 4.131 3.421 6.565 2.221l18.714-9.243c2.427-1.197 3.423-4.136 2.224-6.563-1.199-2.437-4.131-3.432-6.565-2.226l-7.806 3.854c16.546-54.593 12.779-116.539-15.551-171.467-1.24-2.413-4.193-3.365-6.603-2.111-2.405 1.24-3.351 4.198-2.109 6.601 27.392 53.115 30.554 112.548 14.831 164.286L474.645 304.474zM215.594 448.353c-1.199-2.432-4.136-3.432-6.565-2.226l-18.714 9.243c-2.42 1.192-3.427 4.131-2.224 6.568l9.246 18.717c1.195 2.418 4.131 3.421 6.565 2.221 2.427-1.197 3.423-4.136 2.223-6.568l-3.931-7.954c53.858 16.356 114.088 12.722 167.436-13.433 2.432-1.187 3.437-4.126 2.245-6.558-1.197-2.432-4.131-3.451-6.558-2.24-52.075 25.527-109.805 28.156-160.202 12.872l8.255-4.078C215.797 453.719 216.793 450.78 215.594 448.353zM503.565 372.017c-.492-.288-54.506-30.588-54.999-30.837-1.489-.833-3.308-.833-4.796 0-1.66.931 11.076-6.212-54.95 30.816-1.154 1.018-2.474 1.754-2.474 4.252v57.457c0 1.771.957 3.408 2.504 4.275 60.024 33.656 54.671 30.71 55.575 31.057 1.406.538 2.312.449 3.485 0 1.568-.601-2.571 1.477 55.575-31.057 1.546-.866 2.504-2.504 2.504-4.275v-57.457C505.99 374.474 505.011 372.864 503.565 372.017zM446.168 351.074l44.896 25.174-44.896 25.174-44.896-25.174L446.168 351.074zM396.15 384.616c66.793 37.453 37.05 20.775 45.116 25.298v46.217l-45.116-25.299V384.616zM451.07 456.132v-46.217c9.786-5.487 28.23-15.829 45.116-25.298v46.217L451.07 456.132zM182.814 103.062c0-37.773-30.727-68.5-68.498-68.5s-68.498 30.727-68.498 68.5 30.727 68.5 68.498 68.5S182.814 140.835 182.814 103.062zM55.622 103.062c0-32.364 26.33-58.697 58.694-58.697s58.694 26.333 58.694 58.697-26.33 58.697-58.694 58.697S55.622 135.426 55.622 103.062z" fill="#2c2c2c" class="color242c35 svgShape"></path>
      <path d="M119.218 140.117v-4.148c8.238-2.184 14.358-9.633 14.358-18.547 0-10.622-8.64-19.262-19.26-19.262-5.215 0-9.456-4.241-9.456-9.454 0-5.218 4.241-9.459 9.456-9.459 5.215 0 9.456 4.241 9.456 9.459 0 2.709 2.195 4.902 4.902 4.902 2.707 0 4.902-2.192 4.902-4.902 0-8.918-6.12-16.368-14.358-18.552v-4.143c0-2.709-2.195-4.902-4.902-4.902-2.707 0-4.902 2.192-4.902 4.902v4.143c-8.238 2.184-14.358 9.634-14.358 18.552 0 10.617 8.64 19.258 19.26 19.258 5.215 0 9.456 4.241 9.456 9.459 0 5.213-4.241 9.454-9.456 9.454-5.215 0-9.456-4.241-9.456-9.454 0-2.709-2.195-4.902-4.902-4.902s-4.902 2.192-4.902 4.902c0 8.913 6.12 16.363 14.358 18.547v4.148c0 2.709 2.195 4.902 4.902 4.902C117.023 145.019 119.218 142.826 119.218 140.117zM6.01 449.244c0 15.279 11.46 27.9 26.228 29.799 2.146 10.507 11.459 18.438 22.591 18.438 11.029 0 20.251-7.794 22.508-18.157h35.339c2.257 10.362 11.479 18.157 22.508 18.157s20.251-7.794 22.508-18.157h4.284c10.445 0 18.942-8.501 18.942-18.946v-26.629c0-31.34-24.237-56.705-54.707-58.961-2.218-11.388-12.246-20.018-24.274-20.018H30.763c-13.65 0-24.753 11.106-24.753 24.753V449.244zM54.829 487.677c-7.31 0-13.255-5.945-13.255-13.255 0-7.31 5.945-13.255 13.255-13.255s13.255 5.945 13.255 13.255C68.084 481.732 62.139 487.677 54.829 487.677zM135.184 487.677c-7.31 0-13.255-5.945-13.255-13.255 0-7.31 5.945-13.255 13.255-13.255s13.255 5.945 13.255 13.255C148.439 481.732 142.494 487.677 135.184 487.677zM171.114 460.378c0 5.041-4.1 9.143-9.138 9.143h-4.284c-2.257-10.362-11.479-18.157-22.508-18.157-3.005 0-5.859.618-8.494 1.668v-68.368c1.922.191 3.816.533 5.692.948v26.007c0 11.168 9.076 20.253 20.234 20.253h18.377c.025.636.122 1.228.122 1.876V460.378zM169.61 422.069h-16.995c-5.751 0-10.431-4.686-10.431-10.45v-22.751C155.333 394.852 165.873 406.677 169.61 422.069zM15.814 379.523c0-8.243 6.706-14.949 14.949-14.949h71.174c8.243 0 14.949 6.706 14.949 14.949v81.027c-1.995 2.624-3.485 5.642-4.21 8.971H77.337c-2.257-10.362-11.479-18.157-22.508-18.157-10.878 0-19.965 7.595-22.38 17.745-9.439-1.725-16.636-9.935-16.636-19.866V379.523zM409.343 14.519c-28.412 0-51.528 23.082-51.528 51.454 0 17.715 18.711 45.43 32.842 63.856-12.364 2.787-21.804 8.496-21.804 16.975 0 12.455 20.349 18.975 40.451 18.975 20.102 0 40.454-6.52 40.454-18.975 0-8.468-9.422-14.169-21.764-16.961 14.111-18.427 32.803-46.153 32.803-63.87C460.797 37.601 437.714 14.519 409.343 14.519zM409.343 24.323c22.965 0 41.651 18.683 41.651 41.651 0 17.903-27.314 54.326-41.653 71.502-14.363-17.171-41.722-53.584-41.722-71.502C367.618 43.006 386.335 24.323 409.343 24.323zM439.955 146.804c0 2.661-10.742 9.172-30.65 9.172s-30.648-6.51-30.648-9.172c0-2.072 6.549-6.454 18.835-8.298 4.003 4.938 7.065 8.495 8.161 9.749.931 1.063 2.276 1.675 3.691 1.675h.002c1.415 0 2.76-.613 3.691-1.675 1.088-1.247 4.119-4.775 8.082-9.669C433.323 140.439 439.955 144.74 439.955 146.804z" fill="#2c2c2c" class="color242c35 svgShape"></path>
      <path d="M434.811 65.973c0-14.045-11.424-25.471-25.466-25.471-14.088 0-25.548 11.426-25.548 25.471 0 14.083 11.46 25.543 25.548 25.543C423.387 91.516 434.811 80.056 434.811 65.973zM393.601 65.973c0-8.64 7.063-15.667 15.744-15.667 8.635 0 15.663 7.027 15.663 15.667 0 8.679-7.027 15.739-15.663 15.739C400.664 81.712 393.601 74.652 393.601 65.973zM377.79 224.352h-14.404c-1.348-4.083-3.009-8.104-4.966-12.02l10.215-10.215c1.913-1.913 1.916-5.023-.002-6.936l-36.146-36.093c-1.915-1.905-5.014-1.91-6.929.005l-10.201 10.201c-3.832-1.929-7.843-3.595-11.986-4.983v-14.423c0-2.709-2.195-4.902-4.902-4.902h-51.095c-2.707 0-4.902 2.192-4.902 4.902v14.423c-4.107 1.374-8.126 3.03-12.01 4.954l-10.177-10.172c-1.915-1.915-5.014-1.91-6.929-.005l-36.143 36.093c-1.921 1.916-1.913 5.03-.002 6.936l10.213 10.215c-1.955 3.911-3.616 7.932-4.966 12.02h-14.452c-2.707 0-4.902 2.192-4.902 4.902v51.052c0 2.709 2.195 4.902 4.902 4.902h14.452c1.352 4.088 3.013 8.109 4.966 12.02l-10.213 10.21c-1.913 1.913-1.916 5.023.002 6.936l36.143 36.098c1.915 1.905 5.014 1.91 6.929-.005l10.177-10.172c3.885 1.924 7.903 3.581 12.01 4.954v14.423c0 2.709 2.195 4.902 4.902 4.902h51.095c2.707 0 4.902-2.192 4.902-4.902v-14.423c4.143-1.388 8.154-3.054 11.986-4.983l10.201 10.201c1.915 1.915 5.014 1.91 6.929.005l36.146-36.098c1.911-1.906 1.922-5.016.002-6.936l-10.215-10.215c1.955-3.911 3.616-7.932 4.966-12.015h14.404c2.707 0 4.902-2.192 4.902-4.902v-51.052C382.692 226.544 380.497 224.352 377.79 224.352zM372.888 275.404h-13.123c-2.192 0-4.117 1.455-4.715 3.566-1.632 5.754-3.968 11.412-6.939 16.807-1.053 1.91-.716 4.289.828 5.83l9.296 9.296-29.21 29.166-9.298-9.296c-1.549-1.546-3.942-1.876-5.857-.814-5.211 2.91-10.854 5.256-16.771 6.979-2.092.608-3.533 2.527-3.533 4.706v13.126h-41.292v-13.126c0-2.178-1.441-4.098-3.533-4.706-5.84-1.699-11.512-4.04-16.859-6.955-1.915-1.044-4.277-.694-5.814.838l-9.253 9.248-29.207-29.166 9.294-9.296c1.544-1.541 1.881-3.92.828-5.83-2.965-5.39-5.301-11.043-6.939-16.811-.598-2.106-2.523-3.561-4.715-3.561h-13.171v-41.248h13.171c2.192 0 4.117-1.455 4.715-3.561 1.635-5.763 3.971-11.421 6.939-16.811 1.053-1.91.716-4.289-.828-5.83l-9.294-9.296 29.207-29.166 9.253 9.248c1.537 1.532 3.899 1.876 5.814.838 5.347-2.915 11.019-5.256 16.859-6.955 2.092-.608 3.533-2.527 3.533-4.705v-13.126h41.292v13.126c0 2.178 1.441 4.098 3.533 4.705 5.917 1.723 11.56 4.069 16.771 6.979 1.922 1.067 4.308.732 5.857-.814l9.298-9.296 29.21 29.166-9.296 9.296c-1.544 1.541-1.881 3.92-.828 5.83 2.973 5.4 5.309 11.058 6.939 16.807.596 2.111 2.523 3.566 4.715 3.566h13.123V275.404z" fill="#2c2c2c" class="color242c35 svgShape"></path>
      <path d="M272.919,198.828c-30.851,0-55.951,25.098-55.951,55.949s25.1,55.954,55.951,55.954
			s55.951-25.102,55.951-55.954S303.771,198.828,272.919,198.828z M272.919,300.927c-25.447,0-46.148-20.703-46.148-46.15
			s20.701-46.145,46.148-46.145s46.148,20.698,46.148,46.145S298.366,300.927,272.919,300.927z" fill="#2c2c2c" class="color242c35 svgShape"></path>
    </g>
  </g>
</svg>
