<svg xmlns="http://www.w3.org/2000/svg" xml:space="preserve" viewBox="0 0 512 512" enable-background="new 0 0 512 512" id="11962820">
  <g id="_x31_0_Swot_Analysis" fill="#000000" class="color000000 svgShape">
    <g fill="#000000" class="color000000 svgShape">
      <g fill="#000000" class="color000000 svgShape">
        <path d="M339.531,94.443c0,46.133-83.531,148.195-83.531,148.195S172.47,140.575,172.47,94.443
				c0-46.133,37.398-83.531,83.531-83.531S339.531,48.31,339.531,94.443z" fill="#707070" class="color576066 svgShape"></path>
      </g>
      <g fill="#000000" class="color000000 svgShape">
        <circle cx="256.001" cy="91.444" r="53.499" fill="#ffffff" class="colorffffff svgShape"></circle>
      </g>
      <g fill="#000000" class="color000000 svgShape">
        <path d="M172.47,417.557c0-46.133,83.531-148.195,83.531-148.195s83.53,102.062,83.53,148.195
				c0,46.133-37.398,83.53-83.53,83.53C209.868,501.088,172.47,463.69,172.47,417.557z" fill="#d9dee3" class="colord9dde3 svgShape"></path>
      </g>
      <g opacity=".3" fill="#000000" class="color000000 svgShape">
        <g fill="#000000" class="color000000 svgShape">
          <path d="M309.675,481.53c-14.558,12.205-33.283,19.558-53.674,19.558
					c-46.125,0-83.526-37.4-83.526-83.526c0-46.126,83.526-148.18,83.526-148.18s5.049,6.176,12.647,16.176
					c-24.509,33.969-57.351,84.898-57.351,113.819c0,46.125,37.4,83.526,83.526,83.526
					C299.92,482.902,304.871,482.461,309.675,481.53z" fill="#ffffff" class="colorffffff svgShape"></path>
        </g>
      </g>
      <g fill="#000000" class="color000000 svgShape">
        <circle cx="256.001" cy="420.556" r="53.499" fill="#ffffff" class="colorffffff svgShape"></circle>
      </g>
      <g fill="#000000" class="color000000 svgShape">
        <path d="M417.558,339.531c-46.133,0-148.195-83.531-148.195-83.531s102.062-83.531,148.195-83.531
				c46.133,0,83.53,37.398,83.53,83.531C501.088,302.133,463.69,339.531,417.558,339.531z" fill="#aeaeae" class="colorf66866 svgShape"></path>
      </g>
      <g opacity=".3" fill="#000000" class="color000000 svgShape">
        <g fill="#000000" class="color000000 svgShape">
          <path d="M501.088,256c0,46.125-37.4,83.526-83.526,83.526c-46.126,0-148.18-83.526-148.18-83.526
					s7.402-6.029,19.117-14.901c33.92,24.509,84.408,56.958,113.181,56.958c46.126,0,83.526-37.4,83.526-83.526
					c0-2.696-0.147-5.343-0.392-7.99C495.059,220.364,501.088,237.52,501.088,256z" fill="#ffffff" class="colorffffff svgShape"></path>
        </g>
      </g>
      <g fill="#000000" class="color000000 svgShape">
        <path d="M94.443,172.469c46.133,0,148.195,83.531,148.195,83.531s-102.062,83.53-148.195,83.53
				c-46.133,0-83.531-37.398-83.531-83.53C10.913,209.867,48.311,172.469,94.443,172.469z" fill="#0966c2" class="color5a83fc svgShape"></path>
      </g>
      <g opacity=".3" fill="#000000" class="color000000 svgShape">
        <g fill="#000000" class="color000000 svgShape">
          <path d="M242.619,256c0,0-102.055,83.526-148.18,83.526c-46.125,0-83.526-37.4-83.526-83.526
					c0-12.744,2.843-24.852,7.99-35.636c1.225,45.047,38.136,81.222,83.477,81.222c30.636,0,85.977-36.861,119.652-61.615
					C234.58,249.432,242.619,256,242.619,256z" fill="#ffffff" class="colorffffff svgShape"></path>
        </g>
      </g>
      <g fill="#000000" class="color000000 svgShape">
        <circle cx="420.556" cy="256" r="53.499" fill="#ffffff" class="colorffffff svgShape"></circle>
      </g>
      <g fill="#000000" class="color000000 svgShape">
        <circle cx="91.445" cy="256" r="53.499" fill="#ffffff" class="colorffffff svgShape"></circle>
      </g>
      <g fill="#000000" class="color000000 svgShape">
        <circle cx="256" cy="256" r="65.291" transform="rotate(-76.714 256.026 256.011)" fill="#ffffff" class="colorffffff svgShape"></circle>
      </g>
      <path d="M314.4 91.444c0-32.204-26.199-58.402-58.4-58.402s-58.4 26.199-58.4 58.402c0 32.201 26.199 58.4 58.4 58.4S314.4 123.645 314.4 91.444zM207.404 91.444c0-26.797 21.799-48.599 48.596-48.599s48.596 21.802 48.596 48.599S282.797 140.04 256 140.04 207.404 118.241 207.404 91.444zM197.6 420.556c0 32.204 26.199 58.402 58.4 58.402s58.4-26.199 58.4-58.402c0-32.201-26.199-58.4-58.4-58.4S197.6 388.355 197.6 420.556zM304.596 420.556c0 26.797-21.799 48.599-48.596 48.599s-48.596-21.802-48.596-48.599S229.203 371.96 256 371.96 304.596 393.759 304.596 420.556zM420.558 314.4c32.201 0 58.4-26.199 58.4-58.4s-26.199-58.4-58.4-58.4c-32.206 0-58.405 26.199-58.405 58.4S388.352 314.4 420.558 314.4zM420.558 207.404c26.797 0 48.596 21.799 48.596 48.596s-21.799 48.596-48.596 48.596S371.957 282.797 371.957 256 393.761 207.404 420.558 207.404z" fill="#2c2c2c" class="color242c35 svgShape"></path>
      <path d="M94.443,344.433c26.717,0,70.041-25.83,103.543-48.979c4.968,7.281,11.267,13.58,18.547,18.549
			c-23.142,33.5-48.966,76.852-48.966,103.553c0,48.761,39.669,88.433,88.433,88.433s88.433-39.671,88.433-88.433
			c0-26.708-25.828-70.046-48.973-103.548c7.279-4.967,13.576-11.264,18.544-18.541c33.499,23.141,76.851,48.965,103.553,48.965
			c48.764,0,88.433-39.671,88.433-88.433s-39.669-88.433-88.433-88.433c-26.703,0-70.056,25.824-103.553,48.965
			c-4.966-7.275-11.261-13.569-18.536-18.535c23.141-33.498,48.965-76.852,48.965-103.554c0-48.761-39.669-88.433-88.433-88.433
			s-88.433,39.671-88.433,88.433c0,26.715,25.829,70.045,48.977,103.545c-7.28,4.967-13.579,11.265-18.547,18.543
			c-33.501-23.14-76.852-48.964-103.554-48.964C45.679,167.567,6.01,207.239,6.01,256S45.679,344.433,94.443,344.433z
			 M334.629,417.557c0,43.357-35.274,78.629-78.629,78.629s-78.629-35.272-78.629-78.629c0-24.379,25.199-66.136,47.735-98.625
			c19.638,9.68,42.14,9.687,61.792-0.002C309.433,351.416,334.629,393.173,334.629,417.557z M417.557,177.371
			c43.355,0,78.629,35.272,78.629,78.629s-35.274,78.629-78.629,78.629c-24.38,0-66.138-25.199-98.623-47.734
			c9.681-19.637,9.689-42.143-0.002-61.795C351.414,202.567,393.181,177.371,417.557,177.371z M177.371,94.443
			c0-43.357,35.274-78.629,78.629-78.629s78.629,35.272,78.629,78.629c0,24.378-25.198,66.138-47.734,98.625
			c-19.637-9.68-42.141-9.687-61.791,0C202.568,160.583,177.371,118.829,177.371,94.443z M256,195.611
			c33.297,0,60.391,27.091,60.391,60.389S289.297,316.389,256,316.389S195.609,289.297,195.609,256S222.703,195.611,256,195.611z
			 M94.443,177.371c24.38,0,66.137,25.198,98.624,47.734c-9.682,19.638-9.688,42.141,0.001,61.792
			c-32.488,22.535-74.247,47.733-98.624,47.733c-43.355,0-78.629-35.272-78.629-78.629S51.088,177.371,94.443,177.371z" fill="#2c2c2c" class="color242c35 svgShape"></path>
      <path d="M91.446 314.4c32.201 0 58.4-26.199 58.4-58.4s-26.199-58.4-58.4-58.4c-32.206 0-58.405 26.199-58.405 58.4S59.24 314.4 91.446 314.4zM91.446 207.404c26.797 0 48.596 21.799 48.596 48.596s-21.799 48.596-48.596 48.596S42.845 282.797 42.845 256 64.65 207.404 91.446 207.404zM275.875 106.417c0-10.96-8.918-19.875-19.875-19.875-5.553 0-10.072-4.519-10.072-10.072 0-5.555 4.519-10.074 10.072-10.074s10.072 4.519 10.072 10.074c0 2.707 2.192 4.902 4.902 4.902 2.709 0 4.902-2.195 4.902-4.902 0-10.96-8.918-19.877-19.875-19.877s-19.875 8.918-19.875 19.877S245.043 96.346 256 96.346c5.553 0 10.072 4.519 10.072 10.072 0 5.555-4.519 10.074-10.072 10.074s-10.072-4.519-10.072-10.074c0-2.707-2.192-4.902-4.902-4.902-2.709 0-4.902 2.195-4.902 4.902 0 10.96 8.918 19.877 19.875 19.877S275.875 117.377 275.875 106.417zM406.705 288.773c1.857 0 3.552-1.048 4.385-2.709l9.55-19.102 9.545 19.102c1.022 2.047 3.32 3.097 5.51 2.578 2.212-.522 3.777-2.496 3.777-4.77v-55.743c0-2.707-2.192-4.902-4.902-4.902-2.709 0-4.902 2.195-4.902 4.902v34.971l-4.643-9.291c-.828-1.661-2.527-2.709-4.385-2.709s-3.552 1.048-4.385 2.709l-4.811 9.624v-35.303c0-2.707-2.192-4.902-4.902-4.902-2.709 0-4.902 2.195-4.902 4.902v55.743C401.641 286.579 403.996 288.773 406.705 288.773z" fill="#2c2c2c" class="color242c35 svgShape"></path>
      <path d="M91.446 287.928c10.134 0 18.377-8.245 18.377-18.379v-27.098c0-10.134-8.243-18.379-18.377-18.379s-18.382 8.245-18.382 18.379v27.098C73.065 279.683 81.313 287.928 91.446 287.928zM82.868 242.451c0-4.729 3.849-8.576 8.578-8.576 4.729 0 8.573 3.846 8.573 8.576v27.098c0 4.729-3.844 8.576-8.573 8.576-4.729 0-8.578-3.846-8.578-8.576V242.451zM234.727 394.08c0 2.707 2.192 4.902 4.902 4.902h11.469v48.051c0 2.707 2.192 4.902 4.902 4.902 2.709 0 4.902-2.195 4.902-4.902v-48.051h11.469c2.709 0 4.902-2.195 4.902-4.902s-2.192-4.902-4.902-4.902h-32.742C236.92 389.178 234.727 391.373 234.727 394.08z" fill="#2c2c2c" class="color242c35 svgShape"></path>
    </g>
  </g>
</svg>
