<svg xmlns="http://www.w3.org/2000/svg" enable-background="new 0 0 512 512" viewBox="0 0 512 512" id="6621985">
  <path fill="#ffffff" d="M283.465,343.074h-19.316c-2.54-12.119-7.356-23.496-13.918-33.551l13.653-13.653
			c6.245-6.191,6.245-16.246,0.053-22.438l-7.567-7.568c-6.192-6.244-16.299-6.244-22.491,0l-13.653,13.6
			c-10.055-6.562-21.433-11.325-33.551-13.865v-19.316c0-8.785-7.091-15.876-15.876-15.876h-10.69
			c-8.785,0-15.929,7.091-15.929,15.876V265.6c-12.118,2.54-23.443,7.303-33.498,13.865l-13.653-13.6
			c-6.192-6.244-16.299-6.244-22.491,0l-7.567,7.568c-6.192,6.192-6.192,16.246,0.053,22.438l13.653,13.653
			c-6.562,10.055-11.378,21.432-13.918,33.551H47.443c-8.785,0-15.929,7.091-15.929,15.876v10.69
			c0,8.785,7.144,15.876,15.929,15.876h19.316c2.54,12.119,7.356,23.496,13.918,33.551L67.023,432.72
			c-6.244,6.191-6.244,16.246-0.053,22.438l7.567,7.568c6.192,6.244,16.299,6.244,22.491,0.053l13.653-13.653
			c10.055,6.562,21.379,11.325,33.498,13.865v19.316c0,8.785,7.144,15.876,15.929,15.876h10.69c8.785,0,15.876-7.091,15.876-15.876
			V462.99c12.119-2.54,23.496-7.303,33.551-13.865l13.653,13.653c6.192,6.192,16.299,6.192,22.491-0.053l7.567-7.568
			c6.192-6.191,6.192-16.246-0.053-22.438l-13.653-13.653c6.562-10.055,11.378-21.432,13.918-33.551h19.316
			c8.785,0,15.876-7.091,15.876-15.876v-10.69C299.341,350.165,292.25,343.074,283.465,343.074z M165.454,420.972
			c-31.328,0-56.677-25.348-56.677-56.677c0-31.329,25.348-56.677,56.677-56.677s56.677,25.348,56.677,56.677
			C222.131,395.624,196.782,420.972,165.454,420.972z" class="colorffffff svgShape"></path>
  <path fill="#0966c2" d="M467.282,209.305h-16.064c-2.113-10.079-6.118-19.542-11.575-27.904l11.355-11.355
			c5.193-5.149,5.193-13.512,0.044-18.661l-6.294-6.294c-5.149-5.193-13.556-5.193-18.705,0l-11.355,11.311
			c-8.363-5.458-17.825-9.419-27.904-11.531v-16.065c0-7.306-5.898-13.204-13.204-13.204h-8.891
			c-7.306,0-13.248,5.898-13.248,13.204v16.065c-10.079,2.113-19.498,6.074-27.86,11.531l-11.355-11.311
			c-5.149-5.193-13.556-5.193-18.705,0l-6.294,6.294c-5.149,5.15-5.149,13.512,0.044,18.661l11.355,11.355
			c-5.458,8.363-9.463,17.825-11.575,27.904h-16.065c-7.306,0-13.248,5.898-13.248,13.204v8.89c0,7.306,5.942,13.204,13.248,13.204
			h16.065c2.113,10.079,6.118,19.542,11.575,27.904l-11.355,11.355c-5.193,5.149-5.193,13.512-0.044,18.661l6.294,6.294
			c5.149,5.193,13.556,5.193,18.705,0.044l11.355-11.355c8.362,5.458,17.781,9.419,27.86,11.531v16.065
			c0,7.306,5.942,13.204,13.248,13.204h8.891c7.306,0,13.204-5.898,13.204-13.204v-16.065c10.079-2.113,19.542-6.074,27.904-11.531
			l11.355,11.355c5.15,5.149,13.556,5.149,18.705-0.044l6.294-6.294c5.15-5.149,5.15-13.512-0.044-18.661l-11.355-11.355
			c5.458-8.363,9.463-17.825,11.575-27.904h16.064c7.306,0,13.204-5.898,13.204-13.204v-8.89
			C480.486,215.202,474.588,209.305,467.282,209.305z M369.134,274.091c-26.055,0-47.137-21.082-47.137-47.137
			c0-26.056,21.082-47.138,47.137-47.138c26.055,0,47.138,21.082,47.138,47.138C416.272,253.009,395.189,274.091,369.134,274.091z" class="colorfdce06 svgShape"></path>
  <path fill="#cfd0d1" d="M277.501,94.426h-13.82c-1.818-8.671-5.263-16.811-9.958-24.005l9.768-9.768
			c4.468-4.43,4.468-11.623,0.038-16.053l-5.414-5.414c-4.43-4.468-11.661-4.468-16.091,0l-9.768,9.731
			c-7.194-4.695-15.334-8.103-24.005-9.92v-13.82c0-6.285-5.074-11.359-11.359-11.359h-7.648c-6.285,0-11.397,5.074-11.397,11.359
			v13.82c-8.67,1.817-16.773,5.225-23.967,9.92l-9.768-9.731c-4.43-4.468-11.662-4.468-16.091,0l-5.414,5.414
			c-4.43,4.43-4.43,11.624,0.038,16.053l9.768,9.768c-4.695,7.194-8.14,15.334-9.958,24.005h-13.82
			c-6.285,0-11.397,5.073-11.397,11.359v7.648c0,6.285,5.112,11.359,11.397,11.359h13.82c1.817,8.671,5.263,16.811,9.958,24.005
			l-9.768,9.768c-4.468,4.43-4.468,11.624-0.038,16.053l5.414,5.414c4.43,4.468,11.662,4.468,16.091,0.038l9.768-9.768
			c7.194,4.695,15.296,8.103,23.967,9.92v13.82c0,6.285,5.112,11.359,11.397,11.359h7.648c6.285,0,11.359-5.074,11.359-11.359
			v-13.82c8.67-1.817,16.811-5.225,24.005-9.92l9.768,9.768c4.43,4.43,11.662,4.43,16.091-0.038l5.414-5.414
			c4.43-4.43,4.43-11.624-0.038-16.053l-9.768-9.768c4.695-7.194,8.14-15.334,9.958-24.005h13.82
			c6.285,0,11.359-5.073,11.359-11.359v-7.648C288.86,99.5,283.787,94.426,277.501,94.426z M193.069,150.159
			c-22.414,0-40.55-18.136-40.55-40.55c0-22.415,18.136-40.55,40.55-40.55s40.55,18.136,40.55,40.55
			C233.619,132.024,215.483,150.159,193.069,150.159z" class="colorcfcfd1 svgShape"></path>
  <path fill="#707070" d="M47.442,393.33H60.61c2.346,8.579,5.756,16.8,10.193,24.562l-9.281,9.281
			c-9.304,9.225-9.352,24.232-0.076,33.508l7.545,7.545c9.26,9.339,24.323,9.315,33.561,0.076l9.308-9.308
			c7.728,4.41,15.93,7.805,24.509,10.147v13.164c0,13.061,10.65,23.689,23.742,23.689h10.689c13.061,0,23.689-10.628,23.689-23.689
			v-13.164c8.61-2.342,16.83-5.741,24.558-10.147l9.311,9.308c9.308,9.308,24.374,9.186,33.534-0.053l7.568-7.568
			c9.33-9.33,9.161-24.349-0.053-33.485l-9.304-9.304c4.436-7.767,7.85-15.987,10.196-24.562h13.164
			c13.061,0,23.689-10.628,23.689-23.689v-10.692c0-13.061-10.628-23.685-23.689-23.685h-13.164
			c-2.346-8.575-5.76-16.8-10.196-24.566l9.281-9.281c9.304-9.225,9.352-24.232,0.076-33.508l-7.545-7.545
			c-8.945-9.025-24.677-8.983-33.546-0.034l-9.311,9.27c-7.732-4.41-15.957-7.805-24.57-10.151v-13.164
			c0-13.061-10.628-23.689-23.689-23.689H160.11c-13.092,0-23.742,10.628-23.742,23.689v13.164
			c-8.583,2.342-16.788,5.741-24.52,10.151l-9.273-9.235c-8.941-9.018-24.665-8.995-33.561-0.023l-7.568,7.568
			c-9.33,9.33-9.161,24.349,0.053,33.485l9.304,9.304c-4.436,7.763-7.847,15.987-10.193,24.566H47.442
			c-13.088,0-23.738,10.624-23.738,23.685v10.692C23.703,382.702,34.354,393.33,47.442,393.33z M39.328,358.949
			c0-4.444,3.639-8.06,8.114-8.06h19.317c3.696,0,6.889-2.59,7.644-6.21c2.308-10.998,6.618-21.392,12.813-30.887
			c2.018-3.094,1.595-7.179-1.019-9.792l-13.675-13.675c-3.163-3.139-3.171-8.227-0.031-11.368l7.591-7.591
			c3.036-3.059,8.327-3.094,11.432,0.034l13.652,13.599c2.609,2.605,6.695,3.029,9.781,1.007
			c9.441-6.161,19.813-10.452,30.834-12.756c3.616-0.759,6.21-3.952,6.21-7.648v-19.317c0-4.448,3.643-8.064,8.117-8.064h10.689
			c4.448,0,8.064,3.616,8.064,8.064v19.317c0,3.696,2.594,6.889,6.21,7.648c11.07,2.315,21.457,6.607,30.883,12.756
			c3.094,2.022,7.175,1.598,9.781-1.007l13.691-13.633c3.033-3.059,8.331-3.082,11.417,0.023l7.568,7.568
			c3.099,3.099,3.182,8.178-0.053,11.39l-13.652,13.652c-2.613,2.613-3.04,6.698-1.019,9.792
			c6.199,9.502,10.509,19.893,12.817,30.887c0.755,3.62,3.948,6.21,7.645,6.21h19.313c4.448,0,8.064,3.616,8.064,8.06v10.692
			c0,4.448-3.616,8.064-8.064,8.064H264.15c-3.696,0-6.889,2.59-7.645,6.21c-2.308,10.99-6.618,21.381-12.817,30.883
			c-2.022,3.094-1.595,7.179,1.019,9.792l13.675,13.675c3.163,3.139,3.171,8.227,0.031,11.368l-7.591,7.591
			c-3.141,3.165-8.283,3.165-11.417,0.031l-13.656-13.652c-2.613-2.613-6.702-3.048-9.792-1.018
			c-9.426,6.149-19.813,10.441-30.883,12.756c-3.616,0.759-6.21,3.952-6.21,7.648v19.317c0,4.448-3.616,8.064-8.064,8.064H160.11
			c-4.475,0-8.117-3.616-8.117-8.064v-19.317c0-3.696-2.594-6.889-6.21-7.648c-11.02-2.304-21.392-6.595-30.834-12.756
			c-3.122-2.039-7.211-1.57-9.792,1.018l-13.652,13.652c-3.094,3.094-8.232,3.183-11.444-0.053l-7.568-7.568
			c-3.099-3.099-3.182-8.178,0.053-11.39l13.652-13.652c2.613-2.613,3.036-6.698,1.019-9.792
			c-6.195-9.495-10.505-19.886-12.813-30.883c-0.755-3.62-3.948-6.21-7.644-6.21H47.442c-4.475,0-8.114-3.616-8.114-8.064V358.949z" class="color3e3e3e svgShape"></path>
  <path fill="#707070" d="M165.454 428.783c35.56 0 64.49-28.93 64.49-64.486 0-35.56-28.93-64.49-64.49-64.49s-64.49 28.93-64.49 64.49C100.965 399.853 129.895 428.783 165.454 428.783zM165.454 315.432c26.943 0 48.865 21.923 48.865 48.865 0 26.943-21.923 48.861-48.865 48.861s-48.865-21.919-48.865-48.861C116.589 337.354 138.512 315.432 165.454 315.432zM456.567 145.861l-6.271-6.271c-7.934-8.003-21.9-7.969-29.765-.034l-7.038 7.007c-5.978-3.319-12.298-5.932-18.898-7.809v-9.949c0-11.589-9.426-21.015-21.015-21.015h-8.892c-11.612 0-21.06 9.426-21.06 21.015v9.952c-6.569 1.873-12.878 4.482-18.852 7.805l-7.004-6.973c-7.934-8.003-21.884-7.98-29.781-.023l-6.286 6.294c-8.26 8.26-8.153 21.584.042 29.708l7.034 7.034c-3.342 6-5.966 12.317-7.843 18.89h-9.952c-11.612 0-21.06 9.426-21.06 21.015v8.892c0 11.589 9.449 21.015 21.06 21.015h9.952c1.877 6.573 4.501 12.89 7.843 18.89l-7.011 7.011c-8.256 8.185-8.294 21.498-.069 29.731l6.271 6.271c8.19 8.261 21.564 8.281 29.777.069l7.038-7.034c5.97 3.319 12.275 5.928 18.84 7.797v9.952c0 11.589 9.449 21.015 21.06 21.015h8.892c11.589 0 21.015-9.426 21.015-21.015v-9.948c6.592-1.877 12.912-4.486 18.886-7.805l7.038 7.042c8.109 8.101 21.494 8.283 29.754-.05l6.294-6.294c8.249-8.249 8.166-21.568-.046-29.708l-7.034-7.034c3.342-6 5.966-12.317 7.843-18.89h9.952c11.589 0 21.015-9.426 21.015-21.015v-8.892c0-11.589-9.426-21.015-21.015-21.015h-9.952c-1.877-6.573-4.501-12.89-7.843-18.89l7.011-7.007C464.773 167.384 464.783 154.078 456.567 145.861zM451.218 217.118h16.063c2.972 0 5.39 2.418 5.39 5.39v8.892c0 2.972-2.418 5.39-5.39 5.39h-16.063c-3.696 0-6.889 2.59-7.644 6.21-1.884 8.987-5.409 17.479-10.475 25.234-2.022 3.097-1.594 7.183 1.019 9.796l11.379 11.383c2.093 2.069 2.142 5.468.023 7.587l-6.317 6.317c-2.103 2.111-5.538 2.114-7.637.023l-11.356-11.356c-2.609-2.613-6.698-3.044-9.792-1.019-7.698 5.02-16.189 8.529-25.237 10.429-3.62.755-6.21 3.948-6.21 7.644v16.063c0 2.972-2.418 5.39-5.39 5.39h-8.892c-2.998 0-5.436-2.418-5.436-5.39v-16.063c0-3.696-2.59-6.889-6.21-7.644-9.002-1.888-17.479-5.398-25.192-10.429-3.122-2.039-7.211-1.57-9.792 1.019l-11.356 11.352c-2.072 2.072-5.506 2.124-7.656-.042l-6.294-6.294c-2.041-2.041-2.157-5.423.042-7.614l11.356-11.356c2.613-2.613 3.04-6.698 1.018-9.796-5.066-7.755-8.59-16.246-10.475-25.234-.755-3.62-3.948-6.21-7.644-6.21h-16.063c-2.998 0-5.436-2.418-5.436-5.39v-8.892c0-2.972 2.438-5.39 5.436-5.39h16.063c3.696 0 6.889-2.59 7.644-6.21 1.884-8.987 5.409-17.479 10.475-25.234 2.022-3.097 1.595-7.183-1.018-9.796l-11.379-11.379c-2.111-2.103-2.119-5.496-.015-7.591l6.309-6.317c2.022-2.037 5.558-2.071 7.648.034l11.356 11.31c2.609 2.602 6.679 3.033 9.781 1.007 7.713-5.031 16.189-8.541 25.192-10.429 3.62-.755 6.21-3.948 6.21-7.644v-16.063c0-2.972 2.438-5.39 5.436-5.39h8.892c2.972 0 5.39 2.418 5.39 5.39v16.063c0 3.696 2.59 6.889 6.21 7.644 9.048 1.9 17.54 5.409 25.237 10.429 3.094 2.026 7.175 1.594 9.781-1.007l11.39-11.345c2.022-2.037 5.569-2.06 7.637.023l6.294 6.294c2.071 2.071 2.128 5.456-.046 7.614l-11.356 11.356c-2.613 2.613-3.04 6.698-1.019 9.796 5.066 7.755 8.591 16.246 10.475 25.234C444.329 214.528 447.522 217.118 451.218 217.118z" class="color3e3e3e svgShape"></path>
  <path fill="#707070" d="M369.136 172.002c-30.299 0-54.949 24.654-54.949 54.953s24.65 54.949 54.949 54.949c30.299 0 54.949-24.65 54.949-54.949S399.435 172.002 369.136 172.002zM369.136 266.28c-21.682 0-39.325-17.643-39.325-39.325 0-21.686 17.643-39.329 39.325-39.329 21.682 0 39.325 17.643 39.325 39.329C408.461 248.638 390.818 266.28 369.136 266.28zM241.411 109.61c0-26.668-21.694-48.365-48.362-48.365s-48.362 21.698-48.362 48.365 21.694 48.362 48.362 48.362S241.411 136.278 241.411 109.61zM160.312 109.61c0-18.055 14.686-32.741 32.737-32.741s32.737 14.686 32.737 32.741c0 18.051-14.686 32.737-32.737 32.737S160.312 127.661 160.312 109.61z" class="color3e3e3e svgShape"></path>
  <path fill="#707070" d="M189.227,213.212h7.648c10.57,0,19.168-8.598,19.168-19.168v-7.74
			c5.203-1.541,10.208-3.609,14.965-6.183l5.474,5.474c7.619,7.619,19.814,7.344,27.137-0.034l5.417-5.417
			c7.536-7.536,7.433-19.695-0.038-27.103l-5.47-5.47c2.594-4.776,4.669-9.777,6.21-14.965h7.744
			c10.57,0,19.172-8.602,19.172-19.172v-7.648c0-10.57-8.602-19.168-19.172-19.168h-7.744c-1.541-5.188-3.616-10.193-6.21-14.969
			l5.447-5.447c7.468-7.398,7.628-19.547,0.061-27.13l-5.394-5.386c-7.24-7.301-19.977-7.267-27.149-0.034l-5.474,5.451
			c-4.761-2.579-9.769-4.646-14.976-6.183v-7.74c0-10.57-8.598-19.172-19.168-19.172h-7.648c-10.593,0-19.21,8.602-19.21,19.172
			v7.74c-5.188,1.537-10.181,3.605-14.938,6.183l-5.44-5.417c-7.24-7.301-19.966-7.278-27.16-0.023l-5.413,5.413
			c-7.518,7.518-7.458,19.677,0.038,27.103l5.466,5.47c-2.594,4.78-4.669,9.784-6.21,14.969h-7.744
			c-10.589,0-19.207,8.598-19.207,19.168v7.648c0,10.57,8.617,19.172,19.207,19.172h7.744c1.541,5.184,3.616,10.189,6.21,14.965
			l-5.443,5.447c-7.481,7.411-7.624,19.578-0.061,27.126l5.39,5.39c8.153,8.222,20.275,6.946,27.16,0.061l5.474-5.474
			c4.753,2.579,9.743,4.642,14.927,6.18v7.744C170.017,204.613,178.634,213.212,189.227,213.212z M158.13,163.759
			c-3.079-2.017-7.181-1.599-9.792,1.019l-9.769,9.769c-1.343,1.343-3.604,1.406-5.043-0.038l-5.413-5.417
			c-1.362-1.356-1.399-3.579,0.038-5.005l9.765-9.765c2.613-2.613,3.036-6.698,1.019-9.792c-4.284-6.569-7.263-13.748-8.85-21.339
			c-0.759-3.616-3.952-6.21-7.648-6.21h-13.82c-1.976,0-3.582-1.591-3.582-3.548v-7.648c0-1.953,1.606-3.544,3.582-3.544h13.82
			c3.696,0,6.889-2.594,7.648-6.21c1.587-7.591,4.566-14.77,8.85-21.339c2.018-3.094,1.595-7.179-1.019-9.792l-9.792-9.796
			c-1.367-1.356-1.407-3.586-0.011-4.982l5.436-5.436c1.345-1.357,3.587-1.422,5.031,0.034l9.769,9.731
			c2.605,2.598,6.695,3.025,9.781,1.007c6.519-4.253,13.683-7.217,21.301-8.812c3.616-0.759,6.21-3.952,6.21-7.648v-13.82
			c0-1.957,1.61-3.548,3.586-3.548h7.648c1.953,0,3.544,1.591,3.544,3.548v13.82c0,3.696,2.594,6.889,6.21,7.648
			c7.656,1.602,14.831,4.566,21.339,8.812c3.086,2.022,7.164,1.598,9.781-1.007l9.804-9.765c1.354-1.365,3.6-1.411,5.02,0.027
			l5.413,5.409c1.365,1.365,1.395,3.592-0.034,5.009l-9.769,9.769c-2.613,2.613-3.04,6.698-1.018,9.792
			c4.284,6.565,7.259,13.74,8.85,21.339c0.759,3.616,3.952,6.21,7.648,6.21h13.82c1.957,0,3.548,1.591,3.548,3.544v7.648
			c0,1.957-1.591,3.548-3.548,3.548h-13.82c-3.696,0-6.889,2.594-7.648,6.21c-1.591,7.599-4.566,14.774-8.85,21.339
			c-2.022,3.094-1.595,7.179,1.018,9.792l9.788,9.788c1.388,1.376,1.394,3.612,0.019,4.982l-5.44,5.44
			c-1.353,1.353-3.622,1.413-5.02,0.015l-9.769-9.769c-2.609-2.617-6.706-3.048-9.792-1.019c-6.504,4.246-13.683,7.21-21.343,8.819
			c-3.616,0.759-6.206,3.948-6.206,7.644v13.82c0,1.953-1.591,3.544-3.544,3.544h-7.648c-1.976,0-3.586-1.591-3.586-3.544v-13.82
			c0-3.696-2.59-6.885-6.206-7.644C171.813,170.976,164.646,168.012,158.13,163.759z" class="color3e3e3e svgShape"></path>
</svg>
