<svg xmlns="http://www.w3.org/2000/svg" xml:space="preserve" viewBox="0 0 512 512" enable-background="new 0 0 512 512" id="11962815">
  <g id="_x30_5_Teamwork" fill="#000000" class="color000000 svgShape">
    <g fill="#000000" class="color000000 svgShape">
      <g fill="#000000" class="color000000 svgShape">
        <path d="M489.203,387.1c0,32.944-119.298,32.944-119.298,0c0-24.848,15.198-46.135,36.787-55.116
				c7.038-2.914,14.767-4.534,22.862-4.534s15.824,1.619,22.862,4.534C474.005,340.966,489.203,362.252,489.203,387.1z" fill="#ccdff2" class="colord9f2cc svgShape"></path>
      </g>
      <g opacity=".3" fill="#000000" class="color000000 svgShape">
        <g fill="#000000" class="color000000 svgShape">
          <path d="M475.059,348.594c-0.294-0.147-0.637-0.294-0.98-0.441c-7.059-2.941-14.754-4.559-22.842-4.559
					c-8.137,0-15.833,1.618-22.891,4.559c-21.568,8.97-36.763,30.244-36.763,55.096c0,1.275,0.196,2.451,0.539,3.628
					c-13.137-4.118-22.205-10.686-22.205-19.754c0-24.852,15.196-46.174,36.763-55.145c7.059-2.892,14.803-4.51,22.891-4.51
					c8.088,0,15.833,1.617,22.842,4.51C461.285,335.654,469.03,341.389,475.059,348.594z" fill="#ffffff" class="colorffffff svgShape"></path>
        </g>
      </g>
      <g fill="#000000" class="color000000 svgShape">
        <path d="M142.093,390.63c0,32.944-119.298,32.944-119.298,0c0-24.848,15.198-46.135,36.787-55.116
				c7.038-2.914,14.767-4.534,22.862-4.534s15.824,1.619,22.862,4.534C126.895,344.495,142.093,365.781,142.093,390.63z" fill="#aeaeae" class="colorf66866 svgShape"></path>
      </g>
      <g opacity=".3" fill="#000000" class="color000000 svgShape">
        <g fill="#000000" class="color000000 svgShape">
          <path d="M130.71,355.653c-0.833-0.441-1.667-0.834-2.549-1.176c-7.059-2.892-14.803-4.51-22.891-4.51
					s-15.833,1.618-22.842,4.51c-21.617,8.97-36.812,30.293-36.812,55.145c0,0.343,0,0.637,0.049,0.98
					c-13.529-4.068-22.891-10.686-22.891-19.95c0-24.852,15.196-46.174,36.812-55.145c7.009-2.892,14.754-4.51,22.842-4.51
					c8.088,0,15.833,1.618,22.891,4.51C115.564,339.771,124.338,346.781,130.71,355.653z" fill="#ffffff" class="colorffffff svgShape"></path>
        </g>
      </g>
      <g fill="#000000" class="color000000 svgShape">
        <path d="M314.798,138.663c0,32.944-119.298,32.944-119.298,0c0-24.848,15.198-46.135,36.787-55.116
				c7.038-2.914,14.767-4.534,22.862-4.534c8.096,0,15.824,1.619,22.862,4.534C299.599,92.529,314.798,113.815,314.798,138.663z" fill="#d9dee3" class="colord9dde3 svgShape"></path>
      </g>
      <g opacity=".3" fill="#000000" class="color000000 svgShape">
        <g fill="#000000" class="color000000 svgShape">
          <path d="M301.046,100.565c-6.372-2.353-13.284-3.627-20.489-3.627c-8.088,0-15.833,1.618-22.891,4.559
					c-21.568,8.97-36.763,30.244-36.763,55.096c0,0.98,0.098,1.912,0.294,2.794c-14.999-3.97-25.685-10.882-25.685-20.734
					c0-24.852,15.196-46.125,36.763-55.096c7.059-2.941,14.754-4.559,22.891-4.559c8.088,0,15.784,1.617,22.842,4.559
					C286.978,87.331,294.919,93.213,301.046,100.565z" fill="#ffffff" class="colorffffff svgShape"></path>
        </g>
      </g>
      <g fill="#000000" class="color000000 svgShape">
        <path d="M289.38,89.782c-7.108,11.372-19.803,18.97-34.214,18.97c-14.46,0-27.156-7.598-34.263-18.97
				c3.529-2.451,7.353-4.559,11.372-6.225c5.294-2.206,10.931-3.676,16.862-4.265c1.961-0.196,3.97-0.294,6.029-0.294
				c8.088,0,15.784,1.617,22.842,4.559C282.028,85.223,285.851,87.331,289.38,89.782z" fill="#ffffff" class="colorffffff svgShape"></path>
      </g>
      <g fill="#000000" class="color000000 svgShape">
        <path d="M116.683,341.764c-7.108,11.372-19.803,18.97-34.214,18.97c-14.46,0-27.156-7.598-34.263-18.97
				c3.529-2.451,7.353-4.559,11.372-6.225c5.294-2.206,10.931-3.676,16.862-4.265c1.961-0.196,3.97-0.294,6.029-0.294
				c8.088,0,15.784,1.617,22.842,4.559C109.33,337.206,113.154,339.314,116.683,341.764z" fill="#ffffff" class="colorffffff svgShape"></path>
      </g>
      <g fill="#000000" class="color000000 svgShape">
        <path d="M463.793,338.235c-7.108,11.372-19.803,18.97-34.214,18.97c-14.46,0-27.156-7.598-34.263-18.97
				c3.529-2.451,7.353-4.559,11.372-6.225c5.294-2.206,10.931-3.676,16.862-4.265c1.961-0.196,3.97-0.294,6.029-0.294
				c8.088,0,15.784,1.617,22.842,4.559C456.44,333.676,460.264,335.784,463.793,338.235z" fill="#ffffff" class="colorffffff svgShape"></path>
      </g>
      <g fill="#000000" class="color000000 svgShape">
        <path d="M339.094,335.904c-1.693,5.969-4.098,11.715-7.038,17.061l12.206,12.205l-34.567,34.522
				l-12.205-12.205c-5.345,2.984-11.047,5.345-17.016,7.082v17.239h-48.866V394.57c-5.969-1.737-11.671-4.098-17.061-7.038
				l-12.161,12.161l-34.567-34.522l12.206-12.205c-2.94-5.345-5.345-11.092-7.038-17.061h-17.283v-48.821h17.283
				c1.693-5.969,4.098-11.715,7.038-17.061l-12.206-12.206l34.567-34.522l12.161,12.161c5.39-2.94,11.092-5.301,17.061-7.038
				v-17.239h48.866v17.239c5.969,1.737,11.671,4.098,17.016,7.083l12.205-12.206l34.567,34.522l-12.206,12.206
				c2.94,5.345,5.345,11.092,7.038,17.061h17.239v48.821H339.094z" fill="#0966c2" class="color5a83fc svgShape"></path>
      </g>
      <g opacity=".3" fill="#000000" class="color000000 svgShape">
        <g fill="#000000" class="color000000 svgShape">
          <path d="M344.304,257.861l-8.083,8.083c-15.44-8.537-33.241-13.442-52.132-13.442
					c-55.039,0-100.541,41.233-106.989,94.637c-1.635-3.633-2.997-7.357-4.087-11.262h-17.347v-48.772h17.347
					c1.635-5.995,4.087-11.716,6.993-17.075l-12.17-12.171l34.513-34.603l12.171,12.171c5.449-2.906,11.08-5.268,17.075-6.994
					v-17.256h48.862v17.256c5.995,1.726,11.716,4.087,17.075,7.084l12.171-12.261L344.304,257.861z" fill="#ffffff" class="colorffffff svgShape"></path>
        </g>
      </g>
      <g fill="#000000" class="color000000 svgShape">
        <circle cx="256.038" cy="311.493" r="48.821" fill="#ffffff" class="colorffffff svgShape"></circle>
      </g>
      <g fill="#000000" class="color000000 svgShape">
        <circle cx="255.146" cy="47.721" r="36.808" fill="#ffffff" class="colorffffff svgShape"></circle>
      </g>
      <g fill="#000000" class="color000000 svgShape">
        <circle cx="429.552" cy="292.808" r="36.808" fill="#ffffff" class="colorffffff svgShape"></circle>
      </g>
      <g fill="#000000" class="color000000 svgShape">
        <ellipse cx="429.57" cy="269.431" rx="28.43" ry="13.431" fill="#707070" class="color576066 svgShape"></ellipse>
      </g>
      <g fill="#000000" class="color000000 svgShape">
        <ellipse cx="255.146" cy="24.343" rx="28.43" ry="13.431" fill="#707070" class="color576066 svgShape"></ellipse>
      </g>
      <g fill="#000000" class="color000000 svgShape">
        <circle cx="82.444" cy="296.338" r="36.808" fill="#ffffff" class="colorffffff svgShape"></circle>
      </g>
      <g fill="#000000" class="color000000 svgShape">
        <path d="M110.858,272.96c-6.764,8.186-17.009,13.431-28.43,13.431c-11.47,0-21.715-5.245-28.43-13.431
				c6.715-8.186,16.96-13.431,28.43-13.431C93.849,259.529,104.094,264.774,110.858,272.96z" fill="#707070" class="color576066 svgShape"></path>
      </g>
      <path d="M334.1 147.92c40.779 18.877 73.081 51.964 90.96 93.167 1.058 2.445 3.919 3.64 6.448 2.547 2.48-1.077 3.619-3.964 2.542-6.448-18.832-43.412-52.866-78.275-95.833-98.164-2.451-1.132-5.371-.065-6.505 2.391C330.572 143.868 331.645 146.78 334.1 147.92zM80.693 251.184c2.497.967 5.352-.273 6.328-2.822 16.429-42.859 48.142-77.741 89.299-98.219 2.422-1.206 3.413-4.15 2.207-6.572-1.202-2.422-4.145-3.406-6.572-2.207-43.364 21.579-76.777 58.333-94.086 103.49C76.897 247.381 78.161 250.217 80.693 251.184zM113.54 425.85c-1.671-2.135-4.744-2.518-6.879-.85-2.135 1.666-2.513 4.746-.847 6.881 36.754 47.096 92.052 74.108 151.71 74.108 60.516 0 118.241-29.03 154.415-77.655 1.613-2.171 1.163-5.242-1.01-6.857-2.168-1.616-5.242-1.161-6.86 1.008-34.844 46.837-88.256 73.701-146.545 73.701C200.906 496.186 148.427 470.55 113.54 425.85zM82.445 420.24c32.129 0 64.551-9.155 64.551-29.609 0-27.57-17.24-50.864-40.844-60.02 10.862-7.538 18.001-20.081 18.001-34.274 0-23.105-18.922-42.04-42.406-41.673-23.291.389-41.015 19.464-41.015 41.673 0 14.197 7.143 26.744 18.011 34.281-24.488 9.59-40.849 33.247-40.849 60.014C17.894 414.208 58.562 420.24 82.445 420.24zM72.539 336.809c6.667 1.633 12.947 1.651 19.624.048 5.775 1.038 10.864 2.549 17.223 6.133.088.05.178.097.266.148-6.683 8.025-16.533 12.695-27.183 12.695-10.674 0-20.543-4.67-27.23-12.696C60.423 340.169 66.43 337.919 72.539 336.809zM82.445 264.432c7.66 0 15.577 2.91 21.663 8.55-5.885 5.45-13.576 8.508-21.678 8.508-8.134 0-15.824-3.051-21.676-8.487C66.913 267.276 74.592 264.432 82.445 264.432zM50.535 296.337c0-5.698 1.52-11.04 4.149-15.676 7.581 6.788 17.372 10.633 27.746 10.633 10.342 0 20.142-3.855 27.753-10.661 2.639 4.642 4.166 9.994 4.166 15.704 0 17.594-14.313 31.907-31.905 31.907C64.848 328.243 50.535 313.931 50.535 296.337zM47.183 348.735c8.542 10.657 21.371 16.901 35.286 16.901 13.89 0 26.701-6.243 35.236-16.902 12.166 10.224 19.488 25.409 19.488 41.897 0 11.106-24.049 19.806-54.747 19.806s-54.747-8.7-54.747-19.806C27.697 374.144 35.019 358.958 47.183 348.735zM255.165 168.257c32.134 0 64.556-9.152 64.556-29.604 0-24.268-13.916-47.88-38.047-58.767 9.268-7.657 15.185-19.233 15.185-32.165 0-23.055-18.807-41.71-41.713-41.71-22.887 0-41.708 18.649-41.708 41.71 0 12.93 5.915 24.504 15.179 32.161-24.571 11.092-38.008 34.924-38.008 58.771C190.609 162.283 231.452 168.257 255.165 168.257zM282.333 91.176c-6.686 8.011-16.528 12.673-27.168 12.673-10.664 0-20.524-4.663-27.212-12.674 3.727-2.117 6.619-3.466 11.322-4.9 10.208 4.219 21.609 4.204 31.789-.017C275.31 87.555 278.672 89.089 282.333 91.176zM255.146 15.814c7.779 0 15.59 2.91 21.672 8.554-5.879 5.446-13.572 8.504-21.672 8.504-8.133 0-15.83-3.054-21.679-8.493C239.651 18.634 247.455 15.814 255.146 15.814zM223.241 47.721c0-5.703 1.522-11.048 4.154-15.685 7.58 6.792 17.374 10.64 27.751 10.64 10.342 0 20.137-3.854 27.745-10.656 2.637 4.641 4.164 9.992 4.164 15.702 0 17.594-14.313 31.907-31.909 31.907C237.554 79.628 223.241 65.315 223.241 47.721zM219.931 96.824c8.542 10.616 21.344 16.829 35.233 16.829 13.859 0 26.648-6.212 35.186-16.828 12.295 10.415 19.567 25.684 19.567 41.827 0 11.103-24.049 19.801-54.752 19.801s-54.752-8.698-54.752-19.801C200.412 122.481 207.674 107.205 219.931 96.824zM155.703 282.182c-2.709 0-4.902 2.195-4.902 4.902v48.821c0 2.707 2.192 4.902 4.902 4.902h13.667c1.264 3.81 2.819 7.57 4.643 11.237l-9.66 9.66c-1.907 1.907-1.921 5.013 0 6.934l34.566 34.523c1.915 1.91 5.017 1.912 6.931-.002l9.626-9.624c3.633 1.795 7.391 3.344 11.23 4.636v13.638c0 2.707 2.192 4.902 4.902 4.902h48.864c2.709 0 4.902-2.195 4.902-4.902V398.17c3.868-1.304 7.621-2.86 11.206-4.658l9.65 9.646c1.915 1.915 5.017 1.912 6.931.002l34.566-34.523c1.923-1.923 1.906-5.028 0-6.934l-9.66-9.66c1.824-3.667 3.38-7.427 4.643-11.237h13.623c2.709 0 4.902-2.195 4.902-4.902v-48.821c0-2.707-2.192-4.902-4.902-4.902h-13.623c-1.269-3.813-2.819-7.573-4.643-11.24l9.66-9.66c1.907-1.907 1.921-5.013 0-6.934l-34.566-34.523c-1.915-1.91-5.017-1.912-6.931.002l-9.65 9.648c-3.585-1.797-7.338-3.356-11.206-4.658v-13.64c0-2.707-2.192-4.902-4.902-4.902h-48.864c-2.709 0-4.902 2.195-4.902 4.902v13.64c-3.839 1.29-7.597 2.839-11.23 4.634l-9.626-9.624c-1.915-1.915-5.017-1.912-6.931-.002l-34.566 34.523c-1.923 1.923-1.906 5.028 0 6.934l9.66 9.66c-1.824 3.667-3.375 7.427-4.643 11.24H155.703zM177.704 288.419c1.551-5.476 3.777-10.871 6.615-16.034 1.053-1.91.713-4.287-.828-5.828l-8.736-8.738 27.63-27.596 8.698 8.698c1.537 1.539 3.911 1.872 5.811.838 5.103-2.784 10.517-5.014 16.084-6.632 2.092-.61 3.533-2.527 3.533-4.708V216.08h39.061v12.338c0 2.18 1.441 4.098 3.533 4.708 5.639 1.64 11.024 3.877 15.998 6.654 1.905 1.067 4.308.742 5.854-.814l8.741-8.743 27.63 27.596-8.736 8.738c-1.541 1.541-1.881 3.918-.828 5.828 2.839 5.163 5.065 10.557 6.615 16.034.594 2.109 2.523 3.566 4.715 3.566h12.341v39.018h-12.341c-2.192 0-4.122 1.458-4.715 3.566-1.551 5.471-3.777 10.866-6.615 16.034-1.053 1.912-.713 4.287.828 5.828l8.736 8.736-27.63 27.596-8.741-8.741c-1.556-1.553-3.94-1.879-5.854-.816-4.974 2.776-10.359 5.014-15.998 6.659-2.092.608-3.533 2.525-3.533 4.706v12.336H236.51V394.57c0-2.18-1.441-4.098-3.533-4.706-5.572-1.623-10.981-3.856-16.084-6.637-1.9-1.032-4.27-.701-5.811.838l-8.698 8.698-27.63-27.596 8.736-8.736c1.541-1.541 1.881-3.916.828-5.828-2.839-5.167-5.065-10.562-6.615-16.034-.594-2.109-2.523-3.566-4.715-3.566h-12.384v-39.018h12.384C175.181 291.985 177.11 290.528 177.704 288.419z" fill="#2c2c2c" class="color242c35 svgShape"></path>
      <path d="M256.036 365.217c29.621 0 53.723-24.1 53.723-53.723s-24.102-53.723-53.723-53.723c-29.621 0-53.723 24.099-53.723 53.723S226.415 365.217 256.036 365.217zM256.036 267.575c24.217 0 43.92 19.703 43.92 43.92 0 24.217-19.703 43.92-43.92 43.92-24.217 0-43.92-19.703-43.92-43.92C212.116 287.277 231.819 267.575 256.036 267.575zM387.857 292.811c0 14.187 7.133 26.727 17.987 34.267-23.818 9.231-40.839 32.682-40.839 60.023 0 23.577 40.669 29.609 64.551 29.609 32.129 0 64.551-9.155 64.551-29.609 0-27.086-16.731-50.61-40.829-60.009 10.865-7.538 18.006-20.085 18.006-34.281 0-22.894-18.566-41.713-41.713-41.713C406.383 251.098 387.857 269.928 387.857 292.811zM451.249 269.45c-5.88 5.45-13.577 8.51-21.68 8.51-8.141 0-15.847-3.059-21.699-8.51 6.054-5.647 13.993-8.548 21.699-8.548C437.262 260.902 445.169 263.809 451.249 269.45zM456.764 339.608c-6.682 8.023-16.534 12.694-27.185 12.694-10.674 0-20.545-4.67-27.232-12.695 5.624-3.214 11.257-5.223 17.288-6.326 6.676 1.64 12.972 1.661 19.667.052C445.619 334.471 450.667 336.127 456.764 339.608zM484.303 387.1c0 11.106-24.049 19.806-54.747 19.806s-54.747-8.7-54.747-19.806c0-16.487 7.322-31.671 19.484-41.894 8.542 10.658 21.371 16.9 35.287 16.9 13.895 0 26.702-6.244 35.236-16.902C476.981 355.428 484.303 370.614 484.303 387.1zM429.57 324.723c-17.597 0-31.909-14.315-31.909-31.912 0-5.612 1.413-10.956 4.126-15.716 7.584 6.81 17.391 10.668 27.783 10.668 10.355 0 20.162-3.863 27.774-10.682 2.717 4.761 4.135 10.111 4.135 15.729C461.479 310.408 447.166 324.723 429.57 324.723z" fill="#2c2c2c" class="color242c35 svgShape"></path>
    </g>
  </g>
</svg>
