<svg xmlns="http://www.w3.org/2000/svg" xml:space="preserve" viewBox="0 0 512 512" enable-background="new 0 0 512 512" id="11962858">
  <g id="_x34_8_Time_Management" fill="#000000" class="color000000 svgShape">
    <g fill="#000000" class="color000000 svgShape">
      <g fill="#000000" class="color000000 svgShape">
        <path d="M448.154,210.933c-2.714,9.572-6.571,18.786-11.286,27.358l19.572,19.572l-55.43,55.358
				l-19.572-19.572c-8.572,4.786-17.715,8.572-27.286,11.357v27.643h-78.359v-27.643c-9.571-2.785-18.715-6.571-27.357-11.286
				l-19.501,19.5l-55.43-55.358l19.572-19.572c-4.715-8.572-8.572-17.786-11.286-27.358h-27.715v-78.288h27.715
				c2.714-9.571,6.571-18.786,11.286-27.357l-19.572-19.572l55.43-55.358l19.501,19.501c8.643-4.715,17.786-8.5,27.357-11.286
				V10.929h78.359v27.643c9.571,2.786,18.715,6.571,27.286,11.358l19.572-19.572l55.43,55.358l-19.572,19.572
				c4.715,8.571,8.572,17.786,11.286,27.357h27.643v78.288H448.154z" fill="#0966c2" class="color5a83fc svgShape"></path>
      </g>
      <g opacity=".3" fill="#000000" class="color000000 svgShape">
        <g fill="#000000" class="color000000 svgShape">
          <path d="M456.509,85.787l-12.962,12.962c-24.759-13.69-53.303-21.554-83.597-21.554
					c-88.257,0-161.222,66.12-171.562,151.755c-2.622-5.825-4.806-11.797-6.554-18.059h-27.818v-78.208h27.818
					c2.621-9.613,6.554-18.787,11.214-27.38l-19.515-19.516l55.343-55.488l19.516,19.516c8.738-4.661,17.768-8.447,27.38-11.214
					V10.929h78.353V38.6c9.613,2.767,18.788,6.554,27.38,11.36l19.516-19.662L456.509,85.787z" fill="#ffffff" class="colorffffff svgShape"></path>
        </g>
      </g>
      <g fill="#000000" class="color000000 svgShape">
        <circle cx="314.969" cy="171.79" r="109.458" fill="#ffffff" class="colorffffff svgShape"></circle>
      </g>
      <g fill="#000000" class="color000000 svgShape">
        <path d="M214.526,419.11L214.526,419.11c9.094-9.094,21.427-14.202,34.287-14.202h99.41
				c11.36,0,20.569-9.209,20.569-20.569v0c0-11.36-9.209-20.569-20.569-20.569h-88.73c-15.169,0-30.221-2.652-44.477-7.836l0,0
				c-14.256-5.184-29.308-7.836-44.477-7.836h-58.367v116.556l137.517,33.803c24.158,5.938,49.692,1.788,70.725-11.497
				l162.192-102.437c13.72-8.666,14.673-28.325,1.854-38.276l0,0c-6.707-5.207-15.708-6.373-23.52-3.047l-92.147,39.231" fill="#ffffff" class="colorffffff svgShape"></path>
      </g>
      <g fill="#000000" class="color000000 svgShape">
        <path d="M18.47,477.225V335.529c0-11.811,9.574-21.385,21.385-21.385h50.932
				c11.811,0,21.385,9.574,21.385,21.385v141.696c0,11.811-9.574,21.385-21.385,21.385H39.855
				C28.044,498.61,18.47,489.036,18.47,477.225z" fill="#aeaeae" class="colorf66866 svgShape"></path>
      </g>
      <g opacity=".3" fill="#000000" class="color000000 svgShape">
        <g fill="#000000" class="color000000 svgShape">
          <path d="M112.171,335.505v4.584c-8.085-6.557-18.336-10.505-29.477-10.505
					c-25.849,0-46.859,21.01-46.859,46.859v90.789c0,12.096,4.648,23.111,12.224,31.388h-8.213
					c-11.778,0-21.392-9.614-21.392-21.392V335.505c0-11.779,9.614-21.392,21.392-21.392h50.933
					C102.621,314.113,112.171,323.727,112.171,335.505z" fill="#ffffff" class="colorffffff svgShape"></path>
        </g>
      </g>
      <path d="M475.796,215.834c2.709,0,4.902-2.192,4.902-4.902v-78.285c0-2.709-2.192-4.902-4.902-4.902
			h-23.992c-2.317-7.353-5.299-14.576-8.904-21.555l17.008-17.008c1.918-1.918,1.91-5.026,0-6.936l-55.432-55.36
			c-1.915-1.905-5.017-1.91-6.931,0.005l-16.993,16.993c-6.807-3.552-14.011-6.548-21.498-8.942V10.927
			c0-2.709-2.192-4.902-4.902-4.902h-78.356c-2.709,0-4.902,2.192-4.902,4.902v24.016c-7.405,2.365-14.629,5.347-21.551,8.894
			l-16.941-16.946c-1.915-1.915-5.017-1.91-6.931-0.005l-55.43,55.36c-1.911,1.906-1.922,5.016-0.002,6.936l17.008,17.008
			c-3.609,6.989-6.596,14.212-8.904,21.555h-24.066c-2.707,0-4.902,2.192-4.902,4.902v78.285c0,2.709,2.195,4.902,4.902,4.902
			h24.066c2.307,7.343,5.294,14.566,8.904,21.555l-17.008,17.008c-1.913,1.913-1.916,5.023,0.002,6.936l55.43,55.36
			c1.915,1.905,5.017,1.91,6.931-0.005l16.941-16.946c6.922,3.547,14.145,6.529,21.551,8.894v24.011
			c0,2.709,2.192,4.902,4.902,4.902h78.356c2.709,0,4.902-2.192,4.902-4.902v-24.011c7.487-2.393,14.691-5.39,21.498-8.942
			l16.993,16.993c1.915,1.915,5.017,1.91,6.931,0.005l55.432-55.36c1.91-1.91,1.917-5.019,0-6.936L442.9,237.389
			c3.605-6.979,6.587-14.203,8.904-21.555H475.796z M443.441,209.592c-2.566,9.033-6.223,17.893-10.866,26.333
			c-1.053,1.915-0.713,4.289,0.828,5.83l16.103,16.108l-48.496,48.429l-16.108-16.108c-1.551-1.551-3.949-1.872-5.854-0.814
			c-8.157,4.557-16.993,8.233-26.266,10.933c-2.092,0.608-3.533,2.527-3.533,4.706v22.738h-68.553v-22.738
			c0-2.178-1.441-4.098-3.533-4.706c-9.143-2.661-18.023-6.323-26.385-10.885c-1.9-1.029-4.265-0.699-5.811,0.838l-16.036,16.036
			l-48.491-48.429l16.103-16.108c1.541-1.541,1.881-3.916,0.828-5.83c-4.653-8.458-8.31-17.319-10.866-26.328
			c-0.598-2.111-2.523-3.566-4.715-3.566h-22.812v-68.481h22.812c2.192,0,4.117-1.455,4.715-3.566
			c2.556-9.009,6.213-17.869,10.866-26.328c1.053-1.915,0.713-4.289-0.828-5.83l-16.103-16.108l48.491-48.429l16.036,16.036
			c1.541,1.541,3.911,1.872,5.811,0.838c8.363-4.562,17.242-8.224,26.385-10.885c2.092-0.608,3.533-2.527,3.533-4.705V15.829h68.553
			v22.742c0,2.178,1.441,4.098,3.533,4.705c9.272,2.7,18.109,6.376,26.266,10.933c1.905,1.067,4.303,0.742,5.854-0.814
			l16.108-16.108l48.496,48.429l-16.103,16.108c-1.541,1.541-1.881,3.916-0.828,5.83c4.643,8.439,8.3,17.3,10.866,26.333
			c0.598,2.106,2.523,3.561,4.715,3.561h22.738v68.481h-22.738C445.964,206.03,444.04,207.485,443.441,209.592z" fill="#707070" class="color242c35 svgShape"></path>
      <path d="M314.966,57.431c-63.057,0-114.358,51.301-114.358,114.358s51.301,114.358,114.358,114.358
			c63.062,0,114.363-51.301,114.363-114.358S378.029,57.431,314.966,57.431z M409.196,176.691h10.082
			c-1.174,25.125-11.212,47.914-27.11,65.364l-7.103-7.103c-1.915-1.915-5.017-1.915-6.931,0c-1.915,1.915-1.915,5.017,0,6.931
			l7.103,7.103c-17.451,15.898-40.242,25.936-65.368,27.11v-10.082c0-2.709-2.192-4.902-4.902-4.902s-4.902,2.192-4.902,4.902
			v10.082c-25.126-1.173-47.915-11.211-65.365-27.109l7.104-7.104c1.915-1.915,1.915-5.017,0-6.931s-5.017-1.915-6.931,0
			l-7.104,7.104c-15.898-17.45-25.935-40.239-27.109-65.365h10.082c2.709,0,4.902-2.192,4.902-4.902s-2.192-4.902-4.902-4.902
			H210.66c1.174-25.126,11.211-47.915,27.109-65.365l7.104,7.104c1.915,1.915,5.017,1.915,6.931,0c1.915-1.915,1.915-5.017,0-6.931
			l-7.104-7.104c17.45-15.898,40.239-25.935,65.365-27.109v10.082c0,2.709,2.192,4.902,4.902,4.902s4.902-2.192,4.902-4.902V67.483
			c25.126,1.173,47.917,11.211,65.368,27.11l-7.103,7.103c-1.915,1.915-1.915,5.017,0,6.931c1.915,1.915,5.017,1.915,6.931,0
			l7.103-7.103c15.898,17.45,25.936,40.238,27.11,65.364h-10.082c-2.709,0-4.902,2.192-4.902,4.902S406.487,176.691,409.196,176.691
			z" fill="#707070" class="color242c35 svgShape"></path>
      <path d="M363.965 167.027h-44.097v-47.088c0-2.709-2.192-4.902-4.902-4.902s-4.902 2.192-4.902 4.902v51.99c0 2.709 2.192 4.902 4.902 4.902h48.998c2.709 0 4.902-2.192 4.902-4.902C368.867 169.219 366.674 167.027 363.965 167.027zM487.466 342.375c-8.114-6.295-19.018-7.702-28.448-3.681l-86.848 36.974c-3.552-9.784-12.948-16.797-23.949-16.797h-88.729c-14.638 0-29.042-2.537-42.799-7.539-14.835-5.395-30.363-8.133-46.153-8.133h-53.465v-7.669c0-14.495-11.792-26.285-26.287-26.285H39.855c-14.495 0-26.287 11.79-26.287 26.285v141.696c0 14.495 11.792 26.285 26.287 26.285h50.932c14.495 0 26.287-11.79 26.287-26.285v-6.32l131.445 32.313c25.249 6.204 52.416 1.84 74.512-12.111l162.194-102.439C501.844 378.167 502.988 354.428 487.466 342.375zM107.271 477.226c0 9.085-7.396 16.481-16.484 16.481H70.223v-72.488c0-2.709-2.195-4.902-4.902-4.902-2.707 0-4.902 2.192-4.902 4.902v72.488H39.855c-9.088 0-16.484-7.396-16.484-16.481V335.529c0-9.085 7.396-16.481 16.484-16.481h50.932c9.088 0 16.484 7.396 16.484 16.481C107.271 370.729 107.271 442.249 107.271 477.226zM479.989 380.378 317.795 482.817c-19.789 12.503-44.178 16.467-66.94 10.885l-133.781-32.891v-107.81h53.465c14.641 0 29.044 2.537 42.802 7.539 14.835 5.395 30.363 8.133 46.15 8.133h88.729c8.64 0 15.667 7.027 15.667 15.667 0 8.64-7.027 15.667-15.667 15.667h-99.409c-14.26 0-27.668 5.553-37.749 15.634-1.915 1.915-1.915 5.017 0 6.931 1.915 1.915 5.017 1.915 6.931 0 8.109-8.109 19.344-12.762 30.818-12.762h99.409c13.59 0 24.734-10.699 25.437-24.121l89.199-37.979c6.18-2.628 13.303-1.704 18.597 2.408C491.54 357.946 490.912 373.48 479.989 380.378z" fill="#707070" class="color242c35 svgShape"></path>
    </g>
  </g>
</svg>
