<svg xmlns="http://www.w3.org/2000/svg" xml:space="preserve" viewBox="0 0 512 512" enable-background="new 0 0 512 512" id="11962828">
  <g id="_x31_8_Time" fill="#0966c2" class="color000000 svgShape">
    <g fill="#0966c2" class="color000000 svgShape">
      <g fill="#0966c2" class="color000000 svgShape">
        <path d="M383.498,256.938c-3.339,11.774-8.084,23.109-13.883,33.653l24.076,24.075l-68.185,68.097
				l-24.075-24.075c-10.544,5.887-21.791,10.544-33.565,13.97v34.004h-96.39v-34.004c-11.774-3.426-23.021-8.084-33.652-13.883
				l-23.988,23.987l-68.185-68.097l24.076-24.075c-5.799-10.544-10.544-21.879-13.883-33.653H21.752v-96.302h34.092
				c3.339-11.774,8.084-23.109,13.883-33.653l-24.076-24.076l68.185-68.097L137.824,58.8c10.632-5.799,21.879-10.456,33.652-13.883
				V10.912h96.39v34.004c11.774,3.427,23.021,8.084,33.565,13.971l24.075-24.076l68.185,68.097l-24.076,24.076
				c5.799,10.544,10.544,21.879,13.883,33.653h34.004v96.302H383.498z" fill="#aeaeae" class="colorf66866 svgShape"></path>
      </g>
      <g opacity=".3" fill="#0966c2" class="color000000 svgShape">
        <g fill="#0966c2" class="color000000 svgShape">
          <path d="M393.775,102.995L377.83,118.94c-30.456-16.84-65.569-26.514-102.833-26.514
					c-108.566,0-198.321,81.334-211.04,186.675c-3.226-7.165-5.912-14.511-8.062-22.215H21.677v-96.204h34.219
					c3.225-11.825,8.062-23.11,13.794-33.681l-24.006-24.007l68.077-68.257l24.007,24.007c10.749-5.733,21.856-10.391,33.681-13.795
					V10.913h96.382v34.038c11.825,3.404,23.111,8.062,33.681,13.974l24.007-24.186L393.775,102.995z" fill="#ffffff" class="colorffffff svgShape"></path>
        </g>
      </g>
      <g fill="#0966c2" class="color000000 svgShape">
        <circle cx="219.666" cy="208.788" r="134.645" fill="#ffffff" class="colorffffff svgShape"></circle>
      </g>
      <g fill="#0966c2" class="color000000 svgShape">
        <path d="M307.374,286.004h114.453c69.292,82.714,83.849,147.724,53.63,198.252
				c-6.284,10.507-17.738,16.832-29.981,16.832H283.782c-12.024,0-23.268-6.123-29.658-16.309
				C223.245,435.562,246.065,367.527,307.374,286.004z" fill="#ccdff2" class="colord9f2cc svgShape"></path>
      </g>
      <g opacity=".3" fill="#0966c2" class="color000000 svgShape">
        <g fill="#0966c2" class="color000000 svgShape">
          <path d="M444.573,315.33H429.08c-74.029,0-140.214,50.498-155.447,122.906
					c-4.797,22.883-3.76,43.756,3.889,62.296c-9.594-1.685-18.086-7.39-23.401-15.752c-30.856-49.201-8.038-117.266,53.285-198.749
					H421.82C430.247,296.077,437.832,305.801,444.573,315.33z" fill="#ffffff" class="colorffffff svgShape"></path>
        </g>
      </g>
      <g fill="#0966c2" class="color000000 svgShape">
        <path d="M417.496,251.908H311.706c-9.415,0-17.048,7.633-17.048,17.048v0
				c0,9.415,7.633,17.048,17.048,17.048h105.791c9.415,0,17.048-7.633,17.048-17.048v0
				C434.545,259.541,426.912,251.908,417.496,251.908z" fill="#ffffff" class="colorffffff svgShape"></path>
      </g>
      <g fill="#0966c2" class="color000000 svgShape">
        <path d="M311.76,201.434c34.887,6.342,70.127,6.388,105.731-0.058c9.379-1.698,16.941,7.657,13.439,16.521
				l-13.434,34.01H311.706l-13.415-33.962C294.784,209.068,302.369,199.727,311.76,201.434z" fill="#ccdff2" class="colord9f2cc svgShape"></path>
      </g>
      <g opacity=".3" fill="#0966c2" class="color000000 svgShape">
        <g fill="#0966c2" class="color000000 svgShape">
          <path d="M430.961,217.9l-2.658,6.742c-4.408-2.334-9.464-3.371-14.974-2.852
					c-19.188,1.945-38.311,1.945-57.304,0.065c-16.79-1.685-30.078,11.863-30.078,27.356c0,0.908,0.065,1.815,0.13,2.722h-14.391
					l-13.419-33.968c-3.5-8.881,4.084-18.215,13.483-16.53c34.875,6.353,70.139,6.417,105.727-0.065
					C426.877,199.684,434.461,209.019,430.961,217.9z" fill="#ffffff" class="colorffffff svgShape"></path>
        </g>
      </g>
      <path d="M21.752,155.734c-2.707,0-4.902,2.195-4.902,4.902v96.302c0,2.707,2.195,4.902,4.902,4.902h30.433
			c2.934,9.5,6.793,18.841,11.503,27.86l-21.503,21.503c-1.913,1.913-1.916,5.02,0.002,6.934l68.184,68.096
			c1.915,1.91,5.014,1.912,6.929-0.002l21.426-21.421c8.918,4.619,18.257,8.473,27.848,11.488v30.366
			c0,2.707,2.195,4.902,4.902,4.902h66.197c-5.393,29.014-1.277,54.182,12.3,75.819c7.305,11.651,19.947,18.607,33.81,18.607
			h161.691c13.997,0,27.098-7.362,34.193-19.217c31.665-52.947,14.7-120.014-50.35-199.379c6.076-3.908,10.131-10.693,10.131-18.438
			c0-9.737-6.415-17.916-15.209-20.78l11.25-28.477c2.322-5.871,1.312-12.295-2.7-17.182c-2.707-3.3-6.38-5.35-10.383-5.995v-35.886
			c0-2.707-2.192-4.902-4.902-4.902h-30.349c-2.934-9.5-6.793-18.844-11.498-27.857l21.498-21.503c1.907-1.907,1.921-5.013,0-6.934
			l-68.184-68.098c-1.915-1.91-5.017-1.912-6.931,0.002l-21.483,21.488c-8.77-4.629-18.09-8.504-27.788-11.556V10.912
			c0-2.707-2.192-4.902-4.902-4.902h-96.391c-2.707,0-4.902,2.195-4.902,4.902v30.366c-9.588,3.016-18.925,6.869-27.848,11.491
			L117.3,31.345c-1.915-1.915-5.014-1.912-6.929-0.002L42.187,99.441c-1.923,1.918-1.911,5.025-0.002,6.934l21.5,21.503
			c-4.708,9.014-8.564,18.355-11.5,27.857H21.752z M419.534,290.906c63.991,77.03,81.386,141.225,51.717,190.833
			c-5.328,8.911-15.208,14.447-25.777,14.447H283.783c-10.469,0-20.004-5.239-25.509-14.011
			c-28.032-44.678-11.168-107.259,51.55-191.269C349.771,290.906,384.992,290.906,419.534,290.906z M219.668,319.795
			c-2.709,0-4.902,2.195-4.902,4.902v13.71c-32.079-1.199-61.208-14.087-83.25-34.536l9.657-9.657c1.915-1.915,1.915-5.017,0-6.931
			c-1.915-1.915-5.017-1.915-6.931,0l-9.657,9.657c-20.45-22.042-33.339-51.171-34.538-83.25h13.71c2.707,0,4.902-2.195,4.902-4.902
			c0-2.707-2.195-4.902-4.902-4.902h-13.71c1.199-32.079,14.087-61.208,34.537-83.249l9.658,9.656c1.915,1.915,5.017,1.915,6.931,0
			c1.915-1.915,1.915-5.019,0-6.931l-9.658-9.656c22.042-20.45,51.172-33.337,83.251-34.537v13.71c0,2.707,2.192,4.902,4.902,4.902
			c2.709,0,4.902-2.195,4.902-4.902V79.166c32.081,1.2,61.196,14.102,83.228,34.558l-9.635,9.637c-1.915,1.915-1.915,5.019,0,6.931
			c1.915,1.915,5.017,1.915,6.931,0l9.65-9.652c19.783,21.339,32.466,49.327,34.346,80.191c-12.204-0.645-24.37-2.022-36.453-4.219
			c-6.132-1.115-12.226,1.108-16.208,5.962c-4.007,4.885-5.017,11.304-2.695,17.173l11.228,28.429
			c-8.792,2.865-15.206,11.044-15.206,20.78c0,7.849,4.175,14.696,10.386,18.577c-10.021,13.553-18.874,26.589-26.561,39.122
			c-15.025,6.925-31.569,11.045-49.013,11.704v-13.663C224.569,321.989,222.377,319.795,219.668,319.795z M429.644,268.956
			c0,6.697-5.452,12.147-12.149,12.147h-105.79c-6.697,0-12.144-5.45-12.144-12.147c0-6.697,5.447-12.147,12.144-12.147h105.79
			C424.192,256.809,429.644,262.259,429.644,268.956z M426.374,216.097l-12.211,30.909h-99.122l-12.192-30.861
			c-0.991-2.511-0.56-5.258,1.158-7.35c1.695-2.066,4.241-3.023,6.879-2.537c35.48,6.446,71.636,6.436,107.48-0.057
			c2.58-0.467,5.155,0.479,6.845,2.535C426.93,210.831,427.365,213.584,426.374,216.097z M60.559,161.974
			c3.169-11.17,7.697-22.146,13.461-32.627c1.053-1.91,0.713-4.287-0.828-5.828l-20.607-20.607l61.248-61.171l20.526,20.526
			c1.534,1.534,3.897,1.881,5.814,0.838c10.354-5.649,21.347-10.184,32.673-13.482c2.094-0.608,3.535-2.525,3.535-4.705V15.814
			h86.585v29.102c0,2.18,1.441,4.098,3.533,4.705c11.488,3.346,22.436,7.903,32.546,13.547c1.91,1.067,4.303,0.737,5.854-0.814
			l20.612-20.612l61.243,61.169l-20.603,20.607c-1.541,1.541-1.881,3.916-0.828,5.828c5.763,10.481,10.292,21.457,13.461,32.627
			c0.598,2.109,2.523,3.564,4.715,3.564h29.104v31.652c-17.868,2.984-35.802,4.3-53.68,3.964
			C354.937,127.753,294.044,69.24,219.668,69.24c-76.947,0-139.549,62.6-139.549,139.547s62.603,139.547,139.549,139.547
			c16.033,0,31.411-2.78,45.754-7.791c-12.334,22.006-20.861,42.386-25.594,61.217H176.38v-29.102c0-2.18-1.441-4.098-3.535-4.706
			c-11.333-3.301-22.326-7.836-32.673-13.48c-1.917-1.039-4.279-0.697-5.814,0.838l-20.526,20.524l-61.248-61.169l20.607-20.607
			c1.541-1.541,1.881-3.918,0.831-5.828c-5.768-10.486-10.297-21.464-13.463-32.63c-0.598-2.109-2.523-3.564-4.715-3.564h-29.19
			v-86.499h29.19C58.037,165.538,59.961,164.082,60.559,161.974z" fill="#707070" class="color242c35 svgShape"></path>
      <path d="M284.836 208.957c0-2.707-2.192-4.902-4.902-4.902h-55.365v-59.048c0-2.707-2.192-4.902-4.902-4.902-2.709 0-4.902 2.195-4.902 4.902v63.95c0 2.707 2.192 4.902 4.902 4.902h60.267C282.644 213.859 284.836 211.664 284.836 208.957zM365.404 447.322c-13.475 0-24.437-10.962-24.437-24.437 0-2.707-2.192-4.902-4.902-4.902-2.709 0-4.902 2.195-4.902 4.902 0 17.211 12.779 31.458 29.339 33.848v12.527c0 2.707 2.192 4.902 4.902 4.902s4.902-2.195 4.902-4.902v-12.527c16.56-2.391 29.339-16.637 29.339-33.848 0-18.879-15.361-34.24-34.24-34.24-13.475 0-24.437-10.962-24.437-24.437s10.962-24.437 24.437-24.437 24.437 10.962 24.437 24.437c0 2.707 2.192 4.902 4.902 4.902 2.709 0 4.902-2.195 4.902-4.902 0-17.211-12.779-31.458-29.339-33.848v-12.527c0-2.707-2.192-4.902-4.902-4.902s-4.902 2.195-4.902 4.902v12.527c-16.56 2.391-29.339 16.637-29.339 33.848 0 18.879 15.361 34.24 34.241 34.24 13.475 0 24.437 10.962 24.437 24.437C389.841 436.36 378.879 447.322 365.404 447.322z" fill="#707070" class="color242c35 svgShape"></path>
    </g>
  </g>
</svg>
