<svg xmlns="http://www.w3.org/2000/svg" xml:space="preserve" viewBox="0 0 512 512" enable-background="new 0 0 512 512" id="11962840">
  <g id="_x33_0_Venture" fill="#000000" class="color000000 svgShape">
    <g fill="#000000" class="color000000 svgShape">
      <g fill="#000000" class="color000000 svgShape">
        <rect width="27.42" height="185.789" x="266.318" y="207.715" fill="#ffffff" class="colorffffff svgShape"></rect>
      </g>
      <g fill="#000000" class="color000000 svgShape">
        <path d="M360.396,157.528c12.76,13.018,12.675,33.875-0.258,46.807
				c-12.932,12.932-33.789,13.018-46.807,0.258c-0.2,18.225-15.021,32.931-33.303,32.931c-18.282,0-33.103-14.706-33.303-32.931
				c-13.018,12.76-33.875,12.675-46.807-0.258c-12.932-12.932-13.018-33.789-0.258-46.807c-18.225-0.2-32.931-15.021-32.931-33.303
				c0-18.282,14.706-33.102,32.931-33.303c-12.76-13.018-12.675-33.875,0.258-46.807c12.932-12.932,33.789-13.018,46.807-0.257
				c0.2-18.225,15.021-32.931,33.303-32.931c18.282,0,33.103,14.706,33.303,32.931c13.018-12.76,33.875-12.675,46.807,0.257
				c12.932,12.932,13.018,33.789,0.258,46.807c18.225,0.2,32.931,15.021,32.931,33.303
				C393.327,142.508,378.621,157.328,360.396,157.528z" fill="#ccdff2" class="colord9f2cc svgShape"></path>
      </g>
      <g opacity=".3" fill="#000000" class="color000000 svgShape">
        <path d="M369.822,69.313c-8.872-1.225-17.891-1.863-27.107-1.863c-66.909,0-126.024,33.234-161.758,84.065
				c-8.627-6.029-14.215-16.029-14.215-27.303c0-18.284,14.705-33.087,32.94-33.283c-12.794-13.039-12.695-33.871,0.245-46.812
				c12.94-12.941,33.773-13.039,46.812-0.245c0.196-18.235,14.999-32.94,33.283-32.94c18.284,0,33.087,14.705,33.332,32.94
				c12.99-12.794,33.871-12.696,46.763,0.245C367.028,51.03,370.312,60.245,369.822,69.313z" fill="#ffffff" class="colorffffff svgShape"></path>
      </g>
      <g fill="#000000" class="color000000 svgShape">
        <circle cx="280.028" cy="124.228" r="68.255" transform="rotate(-45.001 280.028 124.232)" fill="#aeaeae" class="colorf66866 svgShape"></circle>
      </g>
      <g opacity=".3" fill="#000000" class="color000000 svgShape">
        <g fill="#000000" class="color000000 svgShape">
          <path d="M342.738,97.313c-12.445-16.144-32.012-26.55-53.998-26.55c-37.716,0-68.241,30.56-68.241,68.275
					c0,9.541,1.936,18.599,5.462,26.826c-8.884-11.512-14.174-25.927-14.174-41.622c0-37.716,30.525-68.275,68.241-68.275
					C308.168,55.967,332.333,72.976,342.738,97.313z" fill="#ffffff" class="colorffffff svgShape"></path>
        </g>
      </g>
      <g fill="#000000" class="color000000 svgShape">
        <circle cx="280.029" cy="124.229" r="44.062" fill="#ffffff" class="colorffffff svgShape"></circle>
      </g>
      <g fill="#000000" class="color000000 svgShape">
        <path d="M238.571,261.717c28.219,28.219,27.747,74.464,27.747,74.464s-46.245,0.472-74.464-27.747
				c-28.219-28.219-27.747-74.464-27.747-74.464S210.352,233.498,238.571,261.717z" fill="#ccdff2" class="colord9f2cc svgShape"></path>
      </g>
      <g opacity=".3" fill="#000000" class="color000000 svgShape">
        <g fill="#000000" class="color000000 svgShape">
          <path d="M266.297,336.165c0,0-6.274,0.049-15.588-1.275c-2.059-15.882-8.235-42.057-26.715-60.537
					c-17.842-17.842-42.89-24.215-58.87-26.518c-1.078-8.382-1.029-13.872-1.029-13.872s46.273-0.49,74.458,27.744
					C266.787,289.942,266.297,336.165,266.297,336.165z" fill="#ffffff" class="colorffffff svgShape"></path>
        </g>
      </g>
      <g fill="#000000" class="color000000 svgShape">
        <path d="M321.486,285.748c-28.219,28.219-27.747,74.464-27.747,74.464s46.245,0.472,74.464-27.747
				c28.219-28.219,27.747-74.464,27.747-74.464S349.704,257.529,321.486,285.748z" fill="#ccdff2" class="colord9f2cc svgShape"></path>
      </g>
      <g opacity=".3" fill="#000000" class="color000000 svgShape">
        <g fill="#000000" class="color000000 svgShape">
          <path d="M394.429,275.334c-15.637,1.863-43.135,7.745-62.35,26.96
					c-17.205,17.205-23.724,41.077-26.224,57.106c-7.353,0.882-12.108,0.833-12.108,0.833s-0.49-46.273,27.744-74.507
					c28.234-28.185,74.458-27.744,74.458-27.744S396.047,265.04,394.429,275.334z" fill="#ffffff" class="colorffffff svgShape"></path>
        </g>
      </g>
      <g fill="#000000" class="color000000 svgShape">
        <path d="M221.111,432.103L221.111,432.103c7.652-7.652,18.031-11.952,28.854-11.952h83.656
				c9.56,0,17.309-7.75,17.309-17.309v0c0-9.56-7.75-17.309-17.309-17.309h-74.669c-12.765,0-25.432-2.232-37.428-6.594l0,0
				c-11.997-4.362-24.663-6.594-37.428-6.594h-49.117v98.085l115.724,28.446c20.329,4.997,41.817,1.504,59.517-9.675l136.488-86.203
				c11.546-7.292,12.348-23.836,1.56-32.21l0,0c-5.644-4.382-13.219-5.363-19.793-2.564l-77.544,33.014" fill="#ffffff" class="colorffffff svgShape"></path>
      </g>
      <g fill="#000000" class="color000000 svgShape">
        <path d="M56.125,481.008V361.767c0-9.939,8.057-17.996,17.996-17.996h42.861
				c9.939,0,17.996,8.057,17.996,17.996v119.241c0,9.939-8.057,17.996-17.996,17.996H74.121
				C64.182,499.004,56.125,490.947,56.125,481.008z" fill="#0966c2" class="color5a83fc svgShape"></path>
      </g>
      <g opacity=".3" fill="#000000" class="color000000 svgShape">
        <g fill="#000000" class="color000000 svgShape">
          <path d="M134.977,361.747v3.857c-6.804-5.518-15.43-8.84-24.806-8.84
					c-21.752,0-39.433,17.68-39.433,39.433v76.401c0,10.179,3.911,19.448,10.287,26.413h-6.912c-9.912,0-18.002-8.09-18.002-18.002
					V361.747c0-9.912,8.09-18.002,18.002-18.002h42.862C126.94,343.745,134.977,351.835,134.977,361.747z" fill="#ffffff" class="colorffffff svgShape"></path>
        </g>
      </g>
      <path d="M353.186,124.23c0-40.339-32.819-73.158-73.158-73.158S206.87,83.891,206.87,124.23
			s32.819,73.158,73.158,73.158S353.186,164.569,353.186,124.23z M216.674,124.23c0-34.935,28.42-63.354,63.354-63.354
			s63.354,28.42,63.354,63.354s-28.42,63.354-63.354,63.354S216.674,159.165,216.674,124.23z" fill="#707070" class="color242c35 svgShape"></path>
      <path d="M328.993,124.23c0-26.998-21.967-48.965-48.965-48.965s-48.965,21.967-48.965,48.965
			s21.967,48.965,48.965,48.965S328.993,151.228,328.993,124.23z M240.867,124.23c0-21.594,17.568-39.161,39.161-39.161
			s39.161,17.568,39.161,39.161s-17.568,39.161-39.161,39.161S240.867,145.824,240.867,124.23z" fill="#707070" class="color242c35 svgShape"></path>
      <path d="M284.93,150.855v-1.969c5.981-2.054,10.32-7.673,10.32-14.34c0-8.391-6.831-15.217-15.222-15.217
			c-2.987,0-5.419-2.432-5.419-5.419s2.432-5.414,5.419-5.414s5.419,2.427,5.419,5.414c0,2.709,2.192,4.902,4.902,4.902
			s4.902-2.192,4.902-4.902c0-6.667-4.34-12.284-10.32-14.336v-1.973c0-2.709-2.192-4.902-4.902-4.902s-4.902,2.192-4.902,4.902
			v1.973c-5.981,2.052-10.32,7.669-10.32,14.336c0,8.391,6.831,15.222,15.222,15.222c2.987,0,5.419,2.427,5.419,5.414
			c0,2.987-2.432,5.419-5.419,5.419s-5.419-2.432-5.419-5.419c0-2.709-2.192-4.902-4.902-4.902s-4.902,2.192-4.902,4.902
			c0,6.667,4.34,12.286,10.32,14.34v1.969c0,2.709,2.192,4.902,4.902,4.902S284.93,153.564,284.93,150.855z" fill="#707070" class="color242c35 svgShape"></path>
      <path d="M116.982,338.869H74.121c-12.623,0-22.896,10.273-22.896,22.9V481.01
			c0,12.623,10.273,22.896,22.896,22.896h42.862c12.623,0,22.896-10.273,22.896-22.896v-4.329l109.658,26.952
			c20.945,5.162,44.117,1.828,63.302-10.287l136.488-86.202c14.395-9.091,15.409-29.772,1.948-40.229
			c-7.051-5.467-16.529-6.697-24.719-3.198l-72.339,30.794c-3.303-8.133-11.287-13.882-20.593-13.882h-34.982v-15.67
			c13.01-0.707,48.859-4.86,73.029-29.03c29.339-29.339,29.205-76.006,29.186-77.978c-0.029-2.671-2.183-4.825-4.854-4.854
			c-1.958-0.01-48.639-0.153-77.978,29.186c-8.915,8.915-15.08,19.429-19.382,29.804v-74.548
			c9.012-5.072,15.804-13.686,18.42-23.934c14.657,8.722,33.996,6.745,46.543-5.806c12.556-12.551,14.514-31.89,5.806-46.543
			c16.524-4.217,28.822-19.282,28.822-37.031s-12.297-32.814-28.822-37.031c8.707-14.653,6.75-33.992-5.806-46.543
			c-12.546-12.551-31.885-14.509-46.543-5.806c-4.217-16.524-19.282-28.822-37.031-28.822s-32.814,12.297-37.031,28.822
			c-14.653-8.712-33.996-6.745-46.543,5.806c-12.556,12.551-14.514,31.89-5.806,46.543c-16.519,4.217-28.817,19.282-28.817,37.031
			s12.297,32.814,28.817,37.031c-8.707,14.653-6.749,33.992,5.806,46.543c12.546,12.551,31.89,14.514,46.543,5.806
			c2.615,10.248,9.408,18.862,18.42,23.934v50.516c-4.302-10.374-10.467-20.888-19.382-29.803
			c-29.344-29.344-76.159-29.233-77.973-29.186c-2.671,0.029-4.825,2.183-4.854,4.854c-0.019,1.972-0.158,48.639,29.181,77.978
			c24.173,24.173,60.02,28.32,73.029,29.026v39.704h-2.465c-12.23,0-24.26-2.121-35.753-6.295
			c-12.58-4.576-25.734-6.893-39.104-6.893h-44.216v-5.672C139.878,349.141,129.605,338.869,116.982,338.869z M324.953,289.214
			c21.081-21.081,53.488-25.275,65.891-26.108c-0.833,12.403-5.026,44.81-26.108,65.891c-21.081,21.081-53.489,25.275-65.891,26.108
			C299.678,342.703,303.872,310.296,324.953,289.214z M195.32,304.968c-21.081-21.081-25.27-53.489-26.103-65.891
			c12.398,0.833,44.805,5.026,65.887,26.108s25.275,53.489,26.108,65.887C248.808,330.238,216.401,326.049,195.32,304.968z
			 M130.075,481.01c0,7.219-5.873,13.092-13.092,13.092h-16.529v-60.224c0-2.709-2.192-4.902-4.902-4.902s-4.902,2.192-4.902,4.902
			v60.224H74.121c-7.219,0-13.092-5.874-13.092-13.092V361.769c0-7.223,5.873-13.097,13.092-13.097h42.862
			c7.219,0,13.092,5.873,13.092,13.097C130.075,391.39,130.075,451.576,130.075,481.01z M251.628,204.539
			c-0.024-1.967-1.216-3.724-3.03-4.476c-1.751-0.737-3.873-0.38-5.304,1.029c-11.053,10.833-28.951,10.732-39.908-0.225
			c-10.957-10.952-11.058-28.855-0.225-39.908c1.374-1.403,1.781-3.49,1.029-5.304s-2.508-3.006-4.476-3.03
			c-15.481-0.172-28.08-12.91-28.08-28.401s12.599-28.228,28.08-28.401c1.967-0.024,3.724-1.216,4.476-3.03s0.345-3.901-1.029-5.304
			c-10.833-11.053-10.732-28.956,0.225-39.908c10.962-10.962,28.86-11.053,39.908-0.225c1.403,1.379,3.494,1.786,5.304,1.029
			c1.814-0.752,3.006-2.508,3.03-4.476c0.172-15.486,12.91-28.085,28.401-28.085s28.228,12.599,28.401,28.085
			c0.024,1.967,1.216,3.724,3.03,4.476c1.8,0.756,3.901,0.349,5.304-1.029c11.058-10.833,28.956-10.732,39.908,0.225
			c10.957,10.952,11.058,28.855,0.225,39.908c-1.374,1.403-1.781,3.49-1.029,5.304c0.752,1.814,2.508,3.006,4.476,3.03
			c15.486,0.172,28.085,12.91,28.085,28.401s-12.599,28.228-28.085,28.401c-1.967,0.024-3.724,1.216-4.476,3.03
			c-0.752,1.814-0.345,3.901,1.029,5.304c10.833,11.053,10.732,28.956-0.225,39.908c-10.962,10.962-28.86,11.053-39.908,0.225
			c-1.403-1.379-3.504-1.795-5.304-1.029c-1.814,0.752-3.006,2.508-3.03,4.476c-0.172,15.486-12.91,28.085-28.401,28.085
			S251.8,220.025,251.628,204.539z M271.22,241.367c5.845,1.397,11.629,1.43,17.616,0v139.262H271.22V241.367z M184.094,377.245
			c12.221,0,24.25,2.121,35.753,6.299c12.57,4.571,25.725,6.888,39.104,6.888h74.67c6.84,0,12.408,5.567,12.408,12.408
			c0,6.84-5.567,12.408-12.408,12.408h-83.655c-12.211,0-23.685,4.753-32.321,13.389c-1.915,1.915-1.915,5.017,0,6.931
			c1.915,1.915,5.017,1.915,6.931,0c6.783-6.783,15.801-10.517,25.39-10.517h83.655c11.69,0,21.297-9.076,22.149-20.55
			l74.623-31.766c4.945-2.106,10.636-1.359,14.868,1.924c8.114,6.304,7.514,18.707-1.173,24.193l-136.488,86.202
			c-16.481,10.411-36.782,13.719-55.729,9.062l-111.994-27.529v-89.342H184.094z" fill="#707070" class="color242c35 svgShape"></path>
    </g>
  </g>
</svg>
