<svg xmlns="http://www.w3.org/2000/svg" enable-background="new 0 0 512 512" viewBox="0 0 512 512" id="6622005">
  <path fill="#ffffff" d="M463.163,321.152c0,0-100.666,150.457-224.674,150.457c-124.118,0-224.674-150.457-224.674-150.457
			s100.556-150.458,224.674-150.458C362.497,170.695,463.163,321.152,463.163,321.152z" class="colorffffff svgShape"></path>
  <circle cx="238.489" cy="321.152" r="93.986" fill="#0966c2" class="colorfdce06 svgShape"></circle>
  <path fill="#707070" d="M501.855,185.076L244.682,47.994c-46.76-24.909-103.437-19.279-144.36,14.366l-70.196,57.692
			c-3.334,2.739-3.815,7.66-1.076,10.994c2.743,3.349,7.664,3.815,10.994,1.076L110.24,74.43
			c36.04-29.609,85.928-34.576,127.095-12.642L494.508,198.87c3.878,2.046,8.567,0.529,10.566-3.22
			C507.104,191.843,505.662,187.106,501.855,185.076z" class="color3e3e3e svgShape"></path>
  <path fill="#707070" d="M238.491,162.883c-126.836,0-226.969,147.641-231.169,153.927c-1.755,2.624-1.755,6.058,0,8.682
			c4.2,6.286,104.333,153.927,231.169,153.927c126.721,0,226.962-147.641,231.165-153.927c1.759-2.624,1.759-6.058,0-8.682
			C465.453,310.524,365.212,162.883,238.491,162.883z M238.491,463.795c-106.794,0-197.574-118.291-215.121-142.644
			c17.547-24.352,108.327-142.644,215.121-142.644c106.687,0,197.543,118.276,215.121,142.644
			C436.034,345.519,345.178,463.795,238.491,463.795z" class="color3e3e3e svgShape"></path>
  <path fill="#707070" d="M238.491,219.354c-56.132,0-101.801,45.669-101.801,101.797s45.669,101.797,101.801,101.797
			s101.797-45.669,101.797-101.797S294.623,219.354,238.491,219.354z M238.491,407.323c-47.519,0-86.176-38.657-86.176-86.172
			s38.657-86.172,86.176-86.172c47.515,0,86.172,38.657,86.172,86.172S286.006,407.323,238.491,407.323z" class="color3e3e3e svgShape"></path>
  <path fill="#707070" d="M238.491,257.05c-4.314,0-7.812,3.494-7.812,7.812s3.498,7.812,7.812,7.812
			c26.729,0,48.472,21.743,48.472,48.476c0,4.318,3.498,7.812,7.812,7.812c4.314,0,7.812-3.494,7.812-7.812
			C302.588,285.805,273.833,257.05,238.491,257.05z" class="color3e3e3e svgShape"></path>
</svg>
