<svg xmlns="http://www.w3.org/2000/svg" xml:space="preserve" viewBox="0 0 512 512" enable-background="new 0 0 512 512" id="11962811">
  <g id="_x30_1_Workshop" fill="#000000" class="color000000 svgShape">
    <g fill="#000000" class="color000000 svgShape">
      <g fill="#000000" class="color000000 svgShape">
        <path d="M194.987,487.778v13.309H59.111v-13.309c0-37.521,30.417-67.938,67.938-67.938h0
				C164.57,419.84,194.987,450.257,194.987,487.778z" fill="#707070" class="color576066 svgShape"></path>
      </g>
      <g fill="#000000" class="color000000 svgShape">
        <path d="M331.747,487.778v13.309H195.871v-13.309c0-37.521,30.417-67.938,67.938-67.938h0
				C301.33,419.84,331.747,450.257,331.747,487.778z" fill="#aeaeae" class="colorf66866 svgShape"></path>
      </g>
      <g fill="#000000" class="color000000 svgShape">
        <path d="M468.507,487.778v13.309H332.631v-13.309c0-37.521,30.417-67.938,67.938-67.938h0
				C438.09,419.84,468.507,450.257,468.507,487.778z" fill="#0966c2" class="color5a83fc svgShape"></path>
      </g>
      <g opacity=".3" fill="#000000" class="color000000 svgShape">
        <g fill="#000000" class="color000000 svgShape">
          <path d="M312.4,440.257c-8.529-3.873-17.989-6.029-27.989-6.029c-37.204,0-67.35,29.852-67.89,66.86
					h-20.636v-13.333c0-37.499,30.391-67.939,67.938-67.939c18.774,0,35.734,7.598,48.037,19.901
					C312.057,439.914,312.204,440.061,312.4,440.257z" fill="#ffffff" class="colorffffff svgShape"></path>
        </g>
      </g>
      <g opacity=".3" fill="#000000" class="color000000 svgShape">
        <g fill="#000000" class="color000000 svgShape">
          <path d="M449.159,440.257c-8.529-3.873-17.989-6.029-27.989-6.029c-37.204,0-67.35,29.852-67.889,66.86
					h-20.637v-13.333c0-9.608,2.01-18.725,5.588-27.009c10.441-24.068,34.41-40.93,62.351-40.93
					c18.773,0,35.734,7.598,48.037,19.901C448.816,439.914,448.963,440.061,449.159,440.257z" fill="#ffffff" class="colorffffff svgShape"></path>
        </g>
      </g>
      <g fill="#000000" class="color000000 svgShape">
        <rect width="248.471" height="155.904" x="139.573" y="41.118" fill="#ffffff" class="colorffffff svgShape"></rect>
      </g>
      <g fill="#000000" class="color000000 svgShape">
        <path d="M394.622,10.912H132.996c-4.44,0-8.039,3.599-8.039,8.039V33.08c0,4.44,3.599,8.039,8.039,8.039
				h261.625c4.44,0,8.039-3.599,8.039-8.039V18.951C402.66,14.511,399.061,10.912,394.622,10.912z" fill="#ccdff2" class="colord9f2cc svgShape"></path>
      </g>
      <g fill="#000000" class="color000000 svgShape">
        <path d="M394.622,197.022H132.996c-4.44,0-8.039,3.599-8.039,8.039v14.129c0,4.44,3.599,8.039,8.039,8.039
				h261.625c4.44,0,8.039-3.599,8.039-8.039v-14.129C402.66,200.621,399.061,197.022,394.622,197.022z" fill="#ccdff2" class="colord9f2cc svgShape"></path>
      </g>
      <g opacity=".3" fill="#000000" class="color000000 svgShape">
        <g fill="#000000" class="color000000 svgShape">
          <path d="M402.642,18.951v7.059H161.475c-8.382,0-15.098,6.764-15.098,15.097h-13.382
					c-4.46,0-8.039-3.578-8.039-8.039V18.951c0-4.461,3.578-8.039,8.039-8.039h261.607C399.063,10.912,402.642,14.49,402.642,18.951
					z" fill="#ffffff" class="colorffffff svgShape"></path>
        </g>
      </g>
      <g opacity=".3" fill="#000000" class="color000000 svgShape">
        <g fill="#000000" class="color000000 svgShape">
          <path d="M402.642,205.071v7.059H161.475c-8.382,0-15.098,6.764-15.098,15.098h-13.382
					c-4.46,0-8.039-3.578-8.039-8.039v-14.117c0-4.46,3.578-8.039,8.039-8.039h261.607
					C399.063,197.032,402.642,200.61,402.642,205.071z" fill="#ffffff" class="colorffffff svgShape"></path>
        </g>
      </g>
      <g fill="#000000" class="color000000 svgShape">
        <path d="M276.808,259.444l-57.273,57.273c-6.136,6.136-16.084,6.136-22.22,0h0
				c-6.136-6.136-6.136-16.084,0-22.22l57.273-57.273L276.808,259.444z" fill="#aeaeae" class="colorf66866 svgShape"></path>
      </g>
      <g opacity=".3" fill="#000000" class="color000000 svgShape">
        <g fill="#000000" class="color000000 svgShape">
          <path d="M276.814,259.431l-57.302,57.302c-6.127,6.127-16.078,6.127-22.205,0
					c-1.127-1.128-2.01-2.402-2.745-3.725c4.265,0.245,8.676-1.275,11.96-4.559l57.302-57.252l-11.617-11.617l2.402-2.353
					L276.814,259.431z" fill="#ffffff" class="colorffffff svgShape"></path>
        </g>
      </g>
      <g fill="#000000" class="color000000 svgShape">
        <path d="M250.81,259.444l57.273,57.273c6.136,6.136,16.084,6.136,22.22,0h0
				c6.136-6.136,6.136-16.084,0-22.22l-57.273-57.273L250.81,259.444z" fill="#aeaeae" class="colorf66866 svgShape"></path>
      </g>
      <g opacity=".3" fill="#000000" class="color000000 svgShape">
        <g fill="#000000" class="color000000 svgShape">
          <path d="M331.37,315.556c-0.343,0.392-0.686,0.784-1.079,1.176c-6.127,6.127-16.078,6.127-22.205,0
					l-57.253-57.302l22.205-22.205l3.627,3.627l-12.892,12.843l57.302,57.301C323.968,313.841,327.645,315.36,331.37,315.556z" fill="#ffffff" class="colorffffff svgShape"></path>
        </g>
      </g>
      <g fill="#000000" class="color000000 svgShape">
        <path d="M279.521,227.228v85.057c0,8.678-7.035,15.712-15.712,15.712h0
				c-8.678,0-15.712-7.035-15.712-15.712v-85.057H279.521z" fill="#aeaeae" class="colorf66866 svgShape"></path>
      </g>
      <g opacity=".3" fill="#000000" class="color000000 svgShape">
        <g fill="#000000" class="color000000 svgShape">
          <path d="M279.51,227.227v27.156c-10.049,5.196-16.862,15.686-16.862,27.793v45.782
					c-3.873-0.294-7.353-1.961-9.951-4.559c-2.843-2.843-4.608-6.814-4.608-11.127v-85.045H279.51z" fill="#ffffff" class="colorffffff svgShape"></path>
        </g>
      </g>
      <g fill="#000000" class="color000000 svgShape">
        <path d="M171.193,92.581v38.57H72.844v-27.267c0-24.455,19.825-44.28,44.28-44.28h4.661
				c8.366,0,15.149,6.782,15.149,15.149v0h16.43C163.211,74.753,171.193,82.735,171.193,92.581z" fill="#707070" class="color576066 svgShape"></path>
      </g>
      <g fill="#000000" class="color000000 svgShape">
        <circle cx="81.623" cy="132.331" r="16.533" fill="#ffffff" class="colorffffff svgShape"></circle>
      </g>
      <g fill="#000000" class="color000000 svgShape">
        <circle cx="160.084" cy="132.331" r="16.533" fill="#ffffff" class="colorffffff svgShape"></circle>
      </g>
      <g fill="#000000" class="color000000 svgShape">
        <path d="M283.952,217.667c0,4.946-2.214,9.814-6.37,13.064l-11.212,8.765l-54.379,42.532
				c-3.328,2.615-8.092,2.318-11.083-0.673l-36.706-36.706v32.394c0,5.283-4.273,9.555-9.555,9.555H53.048
				c-5.464,0-9.814-4.57-9.542-10.021l1.696-34.725l0.401-8.092c0.673-13.647,10.423-25.157,23.772-28.07l10.5-2.279
				c2.136-0.466,4.234-1.152,6.254-2.02l24.937-10.811h26.568l14.009,8.144c2.149,1.243,4.428,2.253,6.81,3.004l23.305,7.367
				c3.133,0.997,5.878,2.939,7.846,5.58l21.674,29.041l33.288-28.342l12.08-10.293c7.587-6.461,19.123-4.804,24.587,3.522
				C283.059,211.387,283.952,214.546,283.952,217.667z" fill="#d9dee3" class="colord9dde3 svgShape"></path>
      </g>
      <g opacity=".3" fill="#000000" class="color000000 svgShape">
        <g fill="#000000" class="color000000 svgShape">
          <path d="M283.97,217.668c0,4.951-2.255,9.804-6.372,13.039l-11.225,8.774l-49.508,38.773
					c-14.656-32.156-47.106-54.458-84.8-54.458c-39.41,0-73.085,24.362-86.712,58.919c-1.275-1.716-1.961-3.824-1.863-6.127
					l1.716-34.754l0.392-8.088c0.686-13.627,10.441-25.146,23.774-28.038l10.49-2.304c2.157-0.441,4.265-1.128,6.274-2.01
					l24.95-10.833h26.567l13.97,8.186c2.157,1.225,4.461,2.206,6.814,2.99l23.332,7.353c3.137,0.98,5.882,2.941,7.843,5.588
					l21.666,29.018l33.283-28.332l12.107-10.294c7.549-6.47,19.117-4.804,24.558,3.529
					C283.039,211.394,283.97,214.531,283.97,217.668z" fill="#ffffff" class="colorffffff svgShape"></path>
        </g>
      </g>
      <g fill="#000000" class="color000000 svgShape">
        <path d="M283.952,217.667c0,4.946-2.214,9.814-6.37,13.064l-11.212,8.765l-21.804-24.121l12.08-10.293
				c7.587-6.461,19.123-4.804,24.587,3.522C283.059,211.387,283.952,214.546,283.952,217.667z" fill="#ffffff" class="colorffffff svgShape"></path>
      </g>
      <g fill="#000000" class="color000000 svgShape">
        <path d="M138.099,177.996v9.257c0,3.744-0.644,7.461-1.903,10.987l-0.219,0.613
				c-2.797,7.831-7.823,14.672-14.46,19.681l-0.12,0.09l0,0c-7.105-5.057-12.487-12.172-15.421-20.385l0,0
				c-1.259-3.526-1.903-7.243-1.903-10.987v-9.257H138.099z" fill="#ffffff" class="colorffffff svgShape"></path>
      </g>
      <g fill="#000000" class="color000000 svgShape">
        <path d="M159.23,114.896v28.295c0,20.985-16.522,38.677-37.502,39.145
				c-10.936,0.244-20.882-4.098-28.012-11.229c-6.94-6.94-11.238-16.547-11.238-27.138v-24.684c0-4.473,3.626-8.099,8.099-8.099
				h8.157c5.823,0,11.501-1.817,16.242-5.198l12.754-9.096l8.515,6.082c3.481,2.486,7.651,3.823,11.929,3.823h2.959
				C155.604,106.798,159.23,110.424,159.23,114.896z" fill="#ffffff" class="colorffffff svgShape"></path>
      </g>
      <g fill="#000000" class="color000000 svgShape">
        <path d="M77.35,261.118v25.481H53.048c-5.464,0-9.814-4.57-9.542-10.021l0.751-15.459H77.35z" fill="#ffffff" class="colorffffff svgShape"></path>
      </g>
      <g fill="#000000" class="color000000 svgShape">
        <path d="M161.688,378.24v28.664c0,19.131-15.508,34.639-34.639,34.639h0
				c-19.131,0-34.639-15.508-34.639-34.639V378.24c0-19.131,15.508-34.639,34.639-34.639h0
				C146.179,343.601,161.688,359.109,161.688,378.24z" fill="#ffffff" class="colorffffff svgShape"></path>
      </g>
      <g fill="#000000" class="color000000 svgShape">
        <path d="M298.448,378.24v28.664c0,19.131-15.508,34.639-34.639,34.639h0
				c-19.131,0-34.639-15.508-34.639-34.639V378.24c0-19.131,15.508-34.639,34.639-34.639h0
				C282.94,343.601,298.448,359.109,298.448,378.24z" fill="#ffffff" class="colorffffff svgShape"></path>
      </g>
      <g fill="#000000" class="color000000 svgShape">
        <path d="M435.208,378.24v28.664c0,19.131-15.508,34.639-34.639,34.639h0
				c-19.131,0-34.639-15.508-34.639-34.639V378.24c0-19.131,15.508-34.639,34.639-34.639h0
				C419.7,343.601,435.208,359.109,435.208,378.24z" fill="#ffffff" class="colorffffff svgShape"></path>
      </g>
      <g fill="#000000" class="color000000 svgShape">
        <path d="M291.354,132.245c-0.914,3.222-2.212,6.323-3.799,9.208l6.587,6.587l-18.656,18.632l-6.587-6.587
				c-2.885,1.611-5.962,2.885-9.184,3.822v9.304h-26.373v-9.304c-3.221-0.937-6.299-2.212-9.208-3.798l-6.563,6.563l-18.656-18.632
				l6.587-6.587c-1.587-2.885-2.885-5.986-3.799-9.208h-9.328v-26.349h9.328c0.914-3.221,2.212-6.323,3.799-9.208l-6.587-6.587
				l18.656-18.632l6.563,6.563c2.909-1.587,5.986-2.861,9.208-3.799V64.93h26.373v9.304c3.221,0.938,6.299,2.212,9.184,3.823
				l6.587-6.587l18.656,18.632l-6.587,6.587c1.587,2.885,2.885,5.986,3.799,9.208h9.304v26.349H291.354z" fill="#0966c2" class="color5a83fc svgShape"></path>
      </g>
      <g opacity=".3" fill="#000000" class="color000000 svgShape">
        <g fill="#000000" class="color000000 svgShape">
          <path d="M294.166,90.124l-4.363,4.363c-8.333-4.608-17.94-7.255-28.136-7.255
					c-29.705,0-54.262,22.254-57.743,51.076c-0.883-1.961-1.618-3.97-2.206-6.078h-9.363v-26.322h9.363
					c0.882-3.235,2.206-6.323,3.774-9.215l-6.568-6.568l18.627-18.676l6.568,6.568c2.941-1.569,5.98-2.843,9.215-3.774V64.93h26.371
					v9.313c3.235,0.931,6.323,2.206,9.215,3.824l6.569-6.618L294.166,90.124z" fill="#ffffff" class="colorffffff svgShape"></path>
        </g>
      </g>
      <g fill="#000000" class="color000000 svgShape">
        <circle cx="246.528" cy="119.07" r="26.349" fill="#ffffff" class="colorffffff svgShape"></circle>
      </g>
      <g fill="#000000" class="color000000 svgShape">
        <path d="M368.084,147.867v19.525c0,3.411-2.765,6.176-6.176,6.176h-40.145
				c-3.411,0-6.176-2.765-6.176-6.176v-19.525c0-3.411,2.765-6.176,6.176-6.176h40.145
				C365.319,141.691,368.084,144.456,368.084,147.867z" fill="#707070" class="color576066 svgShape"></path>
      </g>
      <path d="M53.047 291.502c38.155 0 79.642 0 101.599 0 7.97 0 14.456-6.486 14.456-14.459v-20.56l28.341 28.338c.445.445.937.816 1.428 1.185l-5.023 5.023c-8.037 8.037-8.037 21.115 0 29.152 8.04 8.04 21.115 8.037 29.152 0l20.196-20.196v12.297c0 11.366 9.246 20.615 20.612 20.615 11.366 0 20.615-9.248 20.615-20.615v-12.297l20.196 20.195c8.052 8.057 21.094 8.058 29.152 0 8.035-8.037 8.035-21.115 0-29.152l-49.348-49.346v-9.554h110.199c7.135 0 12.941-5.806 12.941-12.941v-14.128c0-7.135-5.806-12.941-12.941-12.941h-1.675v-146.1h1.675c7.135 0 12.941-5.804 12.941-12.939V18.952c0-7.135-5.806-12.941-12.941-12.941H132.997c-7.135 0-12.941 5.806-12.941 12.941V33.08c0 7.135 5.806 12.939 12.941 12.939h1.675v13.439c-3.491-2.947-7.971-4.755-12.886-4.755h-4.662c-27.118 0-49.18 22.063-49.18 49.183v12.083c-4.699 3.935-7.755 9.769-7.755 16.363 0 10.802 8.058 19.673 18.463 21.135 2.55 11.435 9.642 21.601 20.519 27.932.137 6.075-.254 2.546.26 8.884l-15.238 6.607c-1.762.756-3.569 1.34-5.357 1.733l-10.507 2.279c-15.483 3.38-26.842 16.792-27.62 32.615-.161 3.283-1.574 32.114-2.099 42.819C38.208 284.381 44.579 291.502 53.047 291.502zM53.047 281.698c-2.657 0-4.78-2.213-4.646-4.882l.529-10.795h23.518v15.677H53.047zM167.666 241.185c-1.403-1.405-3.509-1.821-5.342-1.063-1.831.759-3.025 2.547-3.025 4.528v32.393c0 2.566-2.087 4.655-4.653 4.655h-28.348v-60.85c6.761-5.666 11.917-12.791 14.925-22.511 6.371 3.52 9.566 6.115 15.755 8.066l23.298 7.365c2.178.692 4.045 2.018 5.402 3.839l21.675 29.042c.809 1.087 2.032 1.788 3.38 1.939 1.338.165 2.693-.261 3.727-1.139l29.662-25.26 15.086 16.692-50.246 39.295c-1.369 1.079-3.346.955-4.586-.285L167.666 241.185zM266.946 232.824l-15.359-16.993 8.238-7.018c5.381-4.582 13.496-3.332 17.309 2.475 3.323 5.074 2.242 11.811-2.571 15.581L266.946 232.824zM228.837 222.327h-27.406l-7.897-10.581c-2.587-3.473-6.146-6.003-10.299-7.324l-7.906-2.499h77.467L228.837 222.327zM217.325 232.13l-5.244 4.466-3.333-4.466H217.325zM216.069 313.251c-4.217 4.212-11.072 4.212-15.289 0-4.215-4.215-4.215-11.074 0-15.289l9.797-9.797c1.571-.462 3.08-1.21 4.434-2.276l28.185-22.043v22.278L216.069 313.251zM263.808 323.095c-5.96 0-10.809-4.849-10.809-10.811v-56.105l21.62-16.908v73.014C274.619 318.246 269.77 323.095 263.808 323.095zM326.839 297.962c4.212 4.215 4.212 11.074 0 15.289-4.083 4.088-11.206 4.083-15.289 0l-27.127-27.126v-30.578L326.839 297.962zM397.759 205.061v14.128c0 1.73-1.407 3.138-3.138 3.138H288.34c1.277-5.806.128-11.627-3.008-16.414-.983-1.498-2.181-2.801-3.479-3.99 17.862 0 87.536 0 112.768 0C396.352 201.923 397.759 203.33 397.759 205.061zM129.859 33.08V18.952c0-1.73 1.407-3.138 3.138-3.138h261.624c1.73 0 3.138 1.407 3.138 3.138V33.08c0 1.728-1.407 3.135-3.138 3.135-256.542 0-44.063 0-261.624 0C131.267 36.216 129.859 34.808 129.859 33.08zM383.142 46.019v146.1H150.029l-7.091-4.123c.005-.25.064-.493.064-.743v-6.331c9.801-6.024 17.093-15.873 19.866-27.437 10.494-1.382 18.651-10.289 18.651-21.154 0-5.423-2.09-10.326-5.424-14.105V92.581c0-12.534-10.196-22.73-22.73-22.73h-8.889V46.019H383.142zM171.716 132.331c0 4.986-3.169 9.213-7.585 10.865 0-.001 0-.002 0-.003v-21.718C168.547 123.125 171.716 127.346 171.716 132.331zM77.747 103.885c0-21.713 17.664-39.379 39.377-39.379h4.662c5.651 0 10.246 4.595 10.246 10.246 0 2.707 2.195 4.902 4.902 4.902h16.431c7.128 0 12.927 5.799 12.927 12.927v19.34c-.9-.275-1.803-.521-2.748-.676-1.59-5.384-6.522-9.349-12.414-9.349h-2.958c-3.272 0-6.412-1.008-9.081-2.908l-8.513-6.082c-1.704-1.221-3.99-1.218-5.694-.002l-12.755 9.093c-3.935 2.805-8.568 4.289-13.396 4.289h-8.157c-4.002 0-7.543 1.856-9.929 4.708-.982.045-1.956.12-2.899.293V103.885zM69.992 132.331c0-4.985 3.168-9.213 7.582-10.864v21.729C73.16 141.544 69.992 137.316 69.992 132.331zM87.378 143.97v-24.686c0-1.762 1.434-3.195 3.198-3.195h8.157c6.881 0 13.48-2.113 19.088-6.11l9.906-7.063 5.67 4.05c4.339 3.097 9.449 4.734 14.775 4.734h2.958c1.764 0 3.198 1.434 3.198 3.198v28.295c0 18.48-14.672 33.841-32.706 34.243C103.398 178.051 87.378 163.163 87.378 143.97zM133.198 185.358v1.895c0 7.977-4.02 17.872-11.883 25.074-7.003-6.096-12.341-15.485-12.341-25.074v-1.672C117.055 187.872 125.22 187.81 133.198 185.358zM70.414 210.479l10.507-2.279c2.408-.527 4.811-1.302 7.159-2.312l13.37-5.796c2.997 8.263 8.219 15.351 15.045 20.81v60.796H82.252c0-1.286 0-41.635 0-39.846 0-2.707-2.195-4.902-4.902-4.902-2.707 0-4.902 2.195-4.902 4.902v14.365H49.411l1.089-22.216C51.063 222.588 59.253 212.916 70.414 210.479zM361.029 378.24v28.664c0 6.233 1.489 12.111 4.069 17.36-15.09 8.457-26.872 22.1-32.903 38.524-6.039-16.41-17.833-30.047-32.924-38.502 2.586-5.254 4.079-11.14 4.079-17.382V378.24c0-21.802-17.738-39.54-39.542-39.54-21.802 0-39.54 17.738-39.54 39.54v28.664c0 6.237 1.491 12.119 4.074 17.371-15.093 8.456-26.879 22.105-32.915 38.522-6.026-16.437-17.802-30.095-32.895-38.558 2.572-5.243 4.057-11.112 4.057-17.335V378.24c0-21.802-17.738-39.54-39.54-39.54-21.804 0-39.542 17.738-39.542 39.54v28.664c0 6.238 1.492 12.121 4.075 17.373-22.258 12.472-37.375 36.223-37.375 63.501v13.31c0 2.707 2.195 4.902 4.902 4.902h135.878c.157 0 .289-.075.442-.089.153.014.285.089.442.089h135.878c.157 0 .289-.075.442-.089.153.014.285.089.442.089h135.875c2.707 0 4.902-2.195 4.902-4.902v-13.31c0-27.28-15.109-51.037-37.371-63.506 2.582-5.251 4.073-11.132 4.073-17.369V378.24c0-21.802-17.738-39.54-39.542-39.54C378.767 338.7 361.029 356.438 361.029 378.24zM234.072 378.24c0-16.397 13.339-29.736 29.736-29.736s29.738 13.339 29.738 29.736v28.664c0 16.397-13.341 29.738-29.738 29.738s-29.736-13.341-29.736-29.738V378.24zM97.311 378.24c0-16.397 13.341-29.736 29.738-29.736s29.736 13.339 29.736 29.736v28.664c0 16.397-13.339 29.738-29.736 29.738s-29.738-13.341-29.738-29.738V378.24zM190.085 496.186H64.011v-8.408c0-23.852 13.353-44.587 32.945-55.287 7.258 8.524 18.046 13.955 30.093 13.955 12.04 0 22.821-5.426 30.08-13.942 19.597 10.693 32.956 31.42 32.956 55.274V496.186zM326.846 496.186H200.772v-8.408c0-23.85 13.343-44.6 32.931-55.302 7.258 8.533 18.052 13.97 30.105 13.97 12.045 0 22.83-5.429 30.088-13.95 19.594 10.698 32.95 31.429 32.95 55.282V496.186zM463.605 487.778v8.408H337.533v-8.408c0-23.852 13.354-44.587 32.946-55.285 7.258 8.523 18.045 13.953 30.09 13.953 12.044 0 22.829-5.429 30.087-13.948C450.249 443.196 463.605 463.926 463.605 487.778zM430.307 378.24v28.664c0 16.397-13.341 29.738-29.738 29.738s-29.736-13.341-29.736-29.738V378.24c0-16.397 13.339-29.736 29.736-29.736S430.307 361.843 430.307 378.24z" fill="#2c2c2c" class="color242c35 svgShape"></path>
      <path d="M192.376,137.147h5.778c0.416,1.125,0.878,2.24,1.381,3.341l-4.086,4.086
			c-1.917,1.917-1.912,5.024,0.002,6.934l18.657,18.633c1.915,1.91,5.014,1.912,6.929-0.002l4.069-4.069
			c1.096,0.498,2.207,0.955,3.334,1.376v5.766c0,2.707,2.195,4.902,4.902,4.902h26.373c2.707,0,4.902-2.195,4.902-4.902v-5.768
			c1.13-0.421,2.24-0.883,3.327-1.381l4.076,4.076c1.915,1.915,5.014,1.912,6.929,0.002l18.657-18.633
			c1.923-1.918,1.911-5.025,0.002-6.934l-4.086-4.086c0.505-1.101,0.965-2.216,1.381-3.341h5.754c2.707,0,4.902-2.195,4.902-4.902
			v-26.349c0-2.707-2.195-4.902-4.902-4.902h-5.754c-0.416-1.125-0.876-2.24-1.381-3.341l4.086-4.086
			c1.913-1.913,1.916-5.02-0.002-6.934L278.949,68c-1.915-1.91-5.014-1.912-6.929,0.002l-4.076,4.076
			c-1.087-0.498-2.197-0.96-3.327-1.381V64.93c0-2.707-2.195-4.902-4.902-4.902h-26.373c-2.707,0-4.902,2.195-4.902,4.902v5.766
			c-1.127,0.421-2.238,0.878-3.334,1.376l-4.069-4.069c-1.915-1.915-5.014-1.912-6.929-0.002l-18.657,18.633
			c-1.92,1.915-1.915,5.022-0.002,6.934l4.086,4.086c-0.503,1.101-0.965,2.216-1.381,3.341h-5.778c-2.707,0-4.902,2.195-4.902,4.902
			v26.349C187.474,134.952,189.669,137.147,192.376,137.147z M197.278,110.797h4.428c2.192,0,4.119-1.458,4.717-3.566
			c0.79-2.793,1.924-5.543,3.375-8.181c1.053-1.91,0.713-4.287-0.828-5.828l-3.119-3.119l11.718-11.706l3.1,3.1
			c1.537,1.537,3.899,1.879,5.811,0.838c2.609-1.422,5.378-2.563,8.233-3.396c2.092-0.608,3.53-2.525,3.53-4.705v-4.402h16.57v4.402
			c0,2.18,1.438,4.098,3.53,4.705c2.891,0.842,5.637,1.984,8.164,3.396c1.924,1.07,4.306,0.735,5.857-0.814l3.123-3.123
			l11.721,11.706l-3.119,3.119c-1.544,1.541-1.881,3.918-0.828,5.828c1.446,2.628,2.583,5.383,3.377,8.183
			c0.598,2.109,2.523,3.564,4.715,3.564h4.402v16.546h-4.402c-2.192,0-4.117,1.455-4.715,3.564c-0.795,2.8-1.931,5.555-3.377,8.183
			c-1.053,1.91-0.716,4.287,0.828,5.828l3.119,3.119l-11.721,11.706l-3.123-3.123c-1.551-1.549-3.94-1.886-5.857-0.814
			c-2.527,1.412-5.273,2.554-8.164,3.396c-2.092,0.608-3.53,2.525-3.53,4.705v4.402h-16.57v-4.402c0-2.18-1.438-4.098-3.53-4.705
			c-2.855-0.833-5.625-1.975-8.233-3.396c-1.912-1.041-4.275-0.699-5.811,0.838l-3.1,3.099l-11.718-11.706l3.119-3.119
			c1.541-1.541,1.881-3.918,0.828-5.828c-1.45-2.638-2.585-5.388-3.375-8.181c-0.598-2.109-2.525-3.566-4.717-3.566h-4.428V110.797z
			" fill="#2c2c2c" class="color242c35 svgShape"></path>
      <path d="M246.527 150.32c17.233 0 31.251-14.018 31.251-31.251 0-17.23-14.018-31.249-31.251-31.249s-31.251 14.018-31.251 31.249C215.276 136.302 229.295 150.32 246.527 150.32zM246.527 97.624c11.826 0 21.448 9.619 21.448 21.445 0 11.826-9.622 21.448-21.448 21.448-11.826 0-21.448-9.622-21.448-21.448C225.08 107.243 234.701 97.624 246.527 97.624zM318.675 75.566h46.32c2.707 0 4.902-2.195 4.902-4.902s-2.195-4.902-4.902-4.902h-46.32c-2.707 0-4.902 2.195-4.902 4.902S315.968 75.566 318.675 75.566zM318.675 97.624h23.161c2.707 0 4.902-2.195 4.902-4.902s-2.195-4.902-4.902-4.902h-23.161c-2.707 0-4.902 2.195-4.902 4.902S315.968 97.624 318.675 97.624zM318.675 119.679h46.32c2.707 0 4.902-2.195 4.902-4.902s-2.195-4.902-4.902-4.902h-46.32c-2.707 0-4.902 2.195-4.902 4.902S315.968 119.679 318.675 119.679zM321.763 178.469h40.145c6.108 0 11.079-4.969 11.079-11.077v-19.526c0-6.108-4.971-11.077-11.079-11.077h-40.145c-6.108 0-11.079 4.969-11.079 11.077v19.526C310.683 173.501 315.655 178.469 321.763 178.469zM320.487 147.867c0-.701.572-1.273 1.276-1.273h40.145c.704 0 1.276.572 1.276 1.273v19.526c0 .701-.572 1.273-1.276 1.273h-40.145c-.704 0-1.276-.572-1.276-1.273V147.867zM114.826 131.996c-1.915-1.91-5.019-1.912-6.934.002-2.092 2.099-5.663 2.094-7.76 0-1.915-1.915-5.017-1.915-6.931 0s-1.915 5.017 0 6.931c5.998 5.998 15.624 6.003 21.627 0C116.741 137.015 116.741 133.911 114.826 131.996zM148.507 138.93c1.915-1.915 1.915-5.017 0-6.931s-5.017-1.915-6.931 0c-2.178 2.178-5.586 2.178-7.764 0-1.915-1.915-5.017-1.915-6.931 0s-1.915 5.017 0 6.931C132.844 144.894 142.542 144.894 148.507 138.93zM131.666 156.179c-1.915-1.915-5.017-1.915-6.931 0-2.176 2.173-5.584 2.176-7.764-.002-1.915-1.91-5.019-1.912-6.934.002-1.912 1.915-1.912 5.019.002 6.934 5.962 5.957 15.665 5.96 21.627-.002C133.581 161.196 133.581 158.094 131.666 156.179z" fill="#2c2c2c" class="color242c35 svgShape"></path>
    </g>
  </g>
</svg>
